<svg width="25" height="24" viewBox="0 0 25 24" fill="none" xmlns="http://www.w3.org/2000/svg">
<g clip-path="url(#clip0_412_177)">
<path d="M4.94628 20.147C4.81668 20.0923 4.7114 19.9924 4.65012 19.8658C4.58884 19.7391 4.57575 19.5946 4.61328 19.459C4.74828 18.365 4.86128 17.269 4.97928 16.173C4.97913 16.0713 5.00957 15.9719 5.06663 15.8877C5.1237 15.8036 5.20476 15.7385 5.29928 15.701C5.39688 15.6637 5.50387 15.6588 5.60449 15.6869C5.70512 15.7149 5.79408 15.7746 5.85828 15.857C6.07628 16.081 6.29828 16.301 6.55828 16.557C6.5864 16.5015 6.61989 16.4489 6.65828 16.4C7.18162 15.8733 7.70628 15.348 8.23228 14.824C8.27713 14.7638 8.33533 14.7148 8.4023 14.6808C8.46928 14.6469 8.5432 14.6289 8.61829 14.6283C8.69338 14.6277 8.76757 14.6446 8.83506 14.6775C8.90256 14.7104 8.9615 14.7585 9.00728 14.818C9.31595 15.1247 9.62328 15.4323 9.92928 15.741C9.98744 15.7862 10.0345 15.8442 10.0669 15.9104C10.0992 15.9766 10.1161 16.0493 10.1161 16.123C10.1161 16.1967 10.0992 16.2694 10.0669 16.3356C10.0345 16.4018 9.98744 16.4597 9.92928 16.505C9.40595 17.031 8.88128 17.556 8.35528 18.08C8.31428 18.121 8.26728 18.156 8.20428 18.209C8.45828 18.46 8.70428 18.689 8.93128 18.927C8.98248 18.972 9.02303 19.0279 9.04998 19.0905C9.07694 19.1532 9.08963 19.221 9.08715 19.2892C9.08466 19.3573 9.06705 19.424 9.0356 19.4845C9.00414 19.5451 8.95963 19.5978 8.90528 19.639C8.80978 19.7043 8.6994 19.7445 8.58428 19.756C7.50028 19.881 6.41528 19.998 5.33028 20.118C5.29957 20.124 5.26946 20.1327 5.24028 20.144H4.94628V20.147Z" fill="#30469A"/>
<path d="M20.8952 4.484C20.8532 4.809 20.8072 5.13301 20.7712 5.459C20.6812 6.25901 20.5952 7.05901 20.5072 7.85901C20.5032 7.95639 20.4699 8.0503 20.4117 8.12846C20.3535 8.20661 20.273 8.26536 20.1808 8.29703C20.0886 8.32869 19.989 8.33178 19.8951 8.30591C19.8011 8.28003 19.7171 8.22639 19.6542 8.15201C19.4302 7.92601 19.2052 7.701 18.9282 7.423C18.9065 7.48034 18.8773 7.5345 18.8412 7.584C18.3225 8.10734 17.8018 8.62901 17.2792 9.14901C17.2328 9.21284 17.172 9.26479 17.1017 9.30061C17.0314 9.33643 16.9536 9.3551 16.8747 9.3551C16.7958 9.3551 16.718 9.33643 16.6477 9.30061C16.5774 9.26479 16.5166 9.21284 16.4702 9.14901L15.5922 8.27201C15.5263 8.22548 15.4726 8.1637 15.4358 8.09195C15.399 8.02019 15.38 7.94059 15.3806 7.85994C15.3812 7.77928 15.4013 7.69997 15.4392 7.62876C15.4771 7.55755 15.5316 7.49657 15.5982 7.451C16.1148 6.93701 16.6328 6.422 17.1522 5.906C17.2013 5.86783 17.2538 5.83435 17.3092 5.80601C17.0502 5.548 16.8302 5.325 16.6092 5.106C16.5269 5.04216 16.4672 4.95361 16.439 4.85335C16.4107 4.7531 16.4153 4.64643 16.4522 4.549C16.4903 4.45499 16.5557 4.37459 16.6401 4.31825C16.7244 4.2619 16.8237 4.2322 16.9252 4.233C18.0422 4.108 19.1642 3.985 20.2852 3.849C20.4107 3.82634 20.5403 3.84819 20.6515 3.91081C20.7626 3.97343 20.8485 4.07287 20.8942 4.192V4.483L20.8952 4.484Z" fill="#30469A"/>
<path d="M20.2594 20.148C19.9294 20.106 19.5994 20.06 19.2684 20.023C18.4684 19.933 17.6774 19.848 16.8814 19.76C16.784 19.7559 16.69 19.7224 16.6119 19.664C16.5338 19.6055 16.4752 19.5249 16.4438 19.4326C16.4123 19.3402 16.4095 19.2406 16.4356 19.1466C16.4618 19.0526 16.5158 18.9688 16.5904 18.906C16.8184 18.684 17.0434 18.459 17.3214 18.185C17.2617 18.1612 17.2053 18.13 17.1534 18.092C16.6301 17.5727 16.1081 17.0517 15.5874 16.529C15.5234 16.4827 15.4712 16.4218 15.4353 16.3514C15.3994 16.281 15.3806 16.2031 15.3806 16.124C15.3806 16.045 15.3994 15.967 15.4353 15.8966C15.4712 15.8262 15.5234 15.7654 15.5874 15.719C15.8907 15.415 16.1947 15.1113 16.4994 14.808C16.5442 14.7528 16.6008 14.7084 16.665 14.6778C16.7291 14.6473 16.7993 14.6314 16.8704 14.6314C16.9415 14.6314 17.0117 14.6473 17.0758 14.6778C17.14 14.7084 17.1966 14.7528 17.2414 14.808C17.7747 15.3347 18.3037 15.8637 18.8284 16.395C18.8712 16.4441 18.9113 16.4955 18.9484 16.549L19.6484 15.843C19.7112 15.7684 19.795 15.7144 19.889 15.6883C19.983 15.6621 20.0826 15.6649 20.1749 15.6964C20.2673 15.7278 20.3479 15.7865 20.4064 15.8645C20.4648 15.9426 20.4983 16.0366 20.5024 16.134C20.5504 16.545 20.5924 16.956 20.6374 17.367C20.7127 18.0523 20.7887 18.7373 20.8654 19.422C20.8714 19.453 20.8801 19.4835 20.8914 19.513V19.801C20.8198 19.9554 20.6958 20.0794 20.5414 20.151H20.2544L20.2594 20.148Z" fill="#30469A"/>
<path d="M15.4524 12.014C15.4524 12.73 15.4524 13.4457 15.4524 14.161C15.4614 14.2341 15.4536 14.3082 15.4298 14.3779C15.4059 14.4475 15.3665 14.5108 15.3146 14.563C15.2627 14.6152 15.1996 14.6549 15.1301 14.6792C15.0606 14.7034 14.9865 14.7116 14.9134 14.703H10.5864C10.512 14.7124 10.4365 14.7046 10.3656 14.6802C10.2947 14.6557 10.2304 14.6153 10.1776 14.5621C10.1248 14.5088 10.085 14.4441 10.0612 14.373C10.0374 14.3019 10.0303 14.2263 10.0404 14.152V9.84201C10.0302 9.76765 10.0373 9.69196 10.0612 9.6208C10.085 9.54964 10.125 9.48494 10.1779 9.43173C10.2308 9.37852 10.2953 9.33824 10.3663 9.314C10.4373 9.28977 10.513 9.28224 10.5874 9.29201H14.9144C14.9875 9.28356 15.0616 9.29184 15.1311 9.31622C15.2005 9.3406 15.2636 9.38044 15.3154 9.43274C15.3672 9.48503 15.4064 9.54842 15.4302 9.6181C15.4539 9.68779 15.4615 9.76196 15.4524 9.83501C15.4531 10.561 15.4531 11.2873 15.4524 12.014Z" fill="#30469A"/>
<path d="M6.53921 7.44201C6.28821 7.69601 6.06821 7.91701 5.85021 8.142C5.7872 8.22188 5.70068 8.27992 5.60287 8.30792C5.50507 8.33592 5.40093 8.33245 5.30521 8.298C5.20793 8.26077 5.12442 8.19459 5.06595 8.1084C5.00747 8.02221 4.97685 7.92015 4.97821 7.816C4.85954 6.69867 4.73554 5.58201 4.60621 4.466C4.58463 4.38176 4.5854 4.29334 4.60845 4.20948C4.63149 4.12562 4.67601 4.04922 4.7376 3.98783C4.7992 3.92644 4.87574 3.88217 4.95968 3.8594C5.04361 3.83664 5.13203 3.83615 5.21621 3.858C6.32687 3.98467 7.43821 4.108 8.55021 4.228C8.65738 4.22422 8.76307 4.25385 8.85266 4.31279C8.94224 4.37174 9.01128 4.45708 9.05021 4.557C9.08358 4.65564 9.08534 4.76223 9.05522 4.8619C9.0251 4.96158 8.96462 5.04936 8.88221 5.113C8.66021 5.326 8.44421 5.544 8.18221 5.804C8.23983 5.83108 8.29418 5.86463 8.34421 5.90401C8.86754 6.42334 9.38921 6.94434 9.90921 7.46701C9.97323 7.51336 10.0254 7.57424 10.0613 7.64464C10.0972 7.71504 10.116 7.79296 10.116 7.872C10.116 7.95105 10.0972 8.02897 10.0613 8.09937C10.0254 8.16977 9.97323 8.23065 9.90921 8.277C9.60987 8.577 9.30987 8.877 9.00921 9.177C8.96407 9.23534 8.90617 9.28256 8.83996 9.31505C8.77374 9.34754 8.70096 9.36443 8.62721 9.36443C8.55345 9.36443 8.48067 9.34754 8.41446 9.31505C8.34824 9.28256 8.29034 9.23534 8.24521 9.177C7.71921 8.653 7.19454 8.12801 6.67121 7.60201C6.62426 7.55117 6.5802 7.49775 6.53921 7.44201Z" fill="#30469A"/>
</g>
<defs>
<clipPath id="clip0_412_177">
<rect width="24" height="24" fill="white" transform="translate(0.748291)"/>
</clipPath>
</defs>
</svg>
