<svg width="25" height="24" viewBox="0 0 25 24" fill="none" xmlns="http://www.w3.org/2000/svg">
<g clip-path="url(#clip0_412_57)">
<path d="M21.4482 14.272C21.4836 14.9124 21.4443 15.5547 21.3312 16.186C21.1414 16.9163 20.7169 17.564 20.123 18.0295C19.5291 18.4949 18.7987 18.7523 18.0442 18.762C14.5142 18.7727 10.9842 18.7727 7.4542 18.762C6.55446 18.75 5.69508 18.3866 5.05975 17.7494C4.42441 17.1122 4.06352 16.2518 4.0542 15.352C4.0542 14.997 4.0542 14.642 4.0542 14.273H21.4542L21.4482 14.272ZM20.8012 15.335V15.312C20.8055 15.267 20.8007 15.2216 20.7873 15.1784C20.7739 15.1352 20.7521 15.0951 20.723 15.0604C20.694 15.0257 20.6584 14.9971 20.6183 14.9763C20.5781 14.9554 20.5343 14.9428 20.4892 14.939C20.4438 14.9395 20.399 14.9491 20.3575 14.9675C20.3159 14.9858 20.2785 15.0123 20.2476 15.0455C20.2166 15.0787 20.1927 15.1179 20.1774 15.1606C20.162 15.2033 20.1555 15.2487 20.1582 15.294C20.1446 15.8665 19.912 16.4119 19.5083 16.8181C19.1046 17.2242 18.5606 17.46 17.9882 17.477C17.9002 17.4706 17.813 17.4982 17.7446 17.5539C17.6762 17.6097 17.6317 17.6895 17.6202 17.777C17.6175 17.8546 17.6418 17.9308 17.6891 17.9924C17.7363 18.0541 17.8035 18.0974 17.8792 18.115C17.9387 18.1243 17.9991 18.1267 18.0592 18.122C18.7813 18.0834 19.463 17.7763 19.9704 17.2611C20.4779 16.7459 20.7746 16.0596 20.8022 15.337L20.8012 15.335ZM16.2882 17.48C16.1812 17.48 16.0732 17.474 15.9672 17.48C15.8826 17.48 15.8015 17.5136 15.7416 17.5734C15.6818 17.6333 15.6482 17.7144 15.6482 17.799C15.6482 17.8836 15.6818 17.9647 15.7416 18.0246C15.8015 18.0844 15.8826 18.118 15.9672 18.118C16.1872 18.127 16.4092 18.128 16.6292 18.118C16.71 18.1114 16.7857 18.0757 16.8423 18.0176C16.899 17.9596 16.9326 17.883 16.9372 17.802C16.9328 17.722 16.9003 17.6461 16.8454 17.5878C16.7905 17.5294 16.7168 17.4923 16.6372 17.483C16.5242 17.473 16.4102 17.483 16.2962 17.483L16.2882 17.48Z" fill="#30469A"/>
<path d="M20.0914 12.319H4.79736C4.80836 11.999 5.23636 11.719 5.55036 11.683C5.92136 11.644 5.95036 11.602 5.98736 11.225C6.02448 10.8157 6.22192 10.4377 6.53663 10.1733C6.85135 9.90903 7.2578 9.77986 7.66736 9.814C7.82763 9.82412 7.98682 9.84719 8.14336 9.883C8.42336 9.943 8.51136 9.909 8.64936 9.661C8.72257 9.50464 8.83676 9.37102 8.9798 9.27434C9.12285 9.17766 9.2894 9.12151 9.46178 9.11187C9.63417 9.10223 9.80594 9.13946 9.95887 9.21959C10.1118 9.29973 10.2402 9.41978 10.3304 9.567C10.5184 9.833 10.6304 9.85 10.8864 9.653C11.0653 9.50197 11.2729 9.38864 11.4968 9.3198C11.7206 9.25097 11.956 9.22805 12.1889 9.25243C12.4218 9.2768 12.6474 9.34796 12.8522 9.46165C13.0569 9.57533 13.2365 9.72919 13.3804 9.914C13.5805 10.1345 13.6994 10.4167 13.7174 10.714C13.7137 10.7615 13.7202 10.8092 13.7366 10.8539C13.753 10.8986 13.7788 10.9393 13.8123 10.9732C13.8458 11.007 13.8861 11.0333 13.9307 11.0502C13.9752 11.0671 14.0228 11.0742 14.0704 11.071C14.2561 11.0748 14.4365 11.134 14.5884 11.2409C14.7403 11.3477 14.857 11.4975 14.9234 11.671C15.0344 11.922 15.1784 11.98 15.4234 11.856C15.5802 11.7591 15.7604 11.7065 15.9448 11.7039C16.1292 11.7013 16.3108 11.7486 16.4704 11.841C16.6644 11.953 16.9014 11.778 16.9394 11.529C16.9597 11.3497 16.9976 11.1729 17.0524 11.001C17.1106 10.7948 17.2448 10.6183 17.4279 10.507C17.611 10.3957 17.8295 10.3578 18.0394 10.401C18.2544 10.4286 18.4536 10.5288 18.604 10.685C18.7544 10.8412 18.8469 11.044 18.8664 11.26C18.9014 11.599 18.9524 11.64 19.2974 11.686C19.4753 11.7092 19.6436 11.7808 19.7837 11.8929C19.9239 12.0051 20.0306 12.1535 20.0924 12.322L20.0914 12.319ZM6.62836 11.324C6.62743 11.409 6.6573 11.4915 6.71244 11.5562C6.76758 11.6209 6.84428 11.6634 6.92836 11.676C7.00896 11.6772 7.08723 11.6489 7.14839 11.5964C7.20955 11.5439 7.24938 11.4709 7.26036 11.391C7.26513 11.2931 7.30675 11.2007 7.37687 11.1322C7.44699 11.0638 7.54041 11.0244 7.63836 11.022C7.71882 11.008 7.79114 10.9645 7.8411 10.8999C7.89107 10.8353 7.91506 10.7544 7.90836 10.673C7.89197 10.5948 7.84968 10.5245 7.78835 10.4733C7.72701 10.4221 7.65021 10.3931 7.57036 10.391C7.3231 10.3943 7.08677 10.4934 6.91107 10.6674C6.73538 10.8414 6.63404 11.0768 6.62836 11.324Z" fill="#30469A"/>
<path d="M22.0823 12.359L21.4463 12.309V12.085C21.4463 9.62366 21.4463 7.16233 21.4463 4.701C21.4618 4.56022 21.4332 4.41809 21.3644 4.2943C21.2956 4.1705 21.1901 4.07114 21.0623 4.01C20.9364 3.95124 20.795 3.9345 20.6589 3.96222C20.5228 3.98995 20.3992 4.06069 20.3063 4.164C20.0993 4.343 19.8853 4.515 19.6783 4.687C19.8581 4.97802 19.9414 5.31835 19.9164 5.6595C19.8915 6.00065 19.7595 6.32523 19.5393 6.587C19.3173 6.869 19.1753 6.87 18.9213 6.621C18.3573 6.06566 17.793 5.511 17.2283 4.957C16.9943 4.727 17.0033 4.557 17.2533 4.357C17.5278 4.13303 17.866 4.00136 18.2197 3.98071C18.5734 3.96006 18.9246 4.0515 19.2233 4.242C19.4693 4.042 19.7233 3.831 19.9733 3.618C20.1393 3.47282 20.3402 3.37339 20.5563 3.32951C20.7724 3.28563 20.9961 3.2988 21.2056 3.36774C21.415 3.43668 21.6029 3.559 21.7507 3.72265C21.8984 3.8863 22.001 4.08563 22.0483 4.301C22.0737 4.41191 22.0871 4.52522 22.0883 4.639C22.0883 7.16033 22.0883 9.682 22.0883 12.204C22.0883 12.257 22.0833 12.309 22.0803 12.36L22.0823 12.359Z" fill="#30469A"/>
<path d="M12.7622 12.967H21.5792C21.6392 12.967 21.7002 12.967 21.7602 12.967C21.8038 12.9643 21.8474 12.9704 21.8885 12.9851C21.9296 12.9998 21.9673 13.0227 21.9992 13.0525C22.0312 13.0822 22.0567 13.1182 22.0743 13.1581C22.0919 13.1981 22.1011 13.2412 22.1014 13.2849C22.1018 13.3285 22.0932 13.3718 22.0763 13.412C22.0593 13.4522 22.0344 13.4886 22.0029 13.5188C21.9714 13.5491 21.9341 13.5726 21.8932 13.5879C21.8524 13.6032 21.8088 13.6101 21.7652 13.608C21.7052 13.608 21.6452 13.608 21.5842 13.608H3.90822C3.57922 13.608 3.40022 13.491 3.40822 13.279C3.41622 13.067 3.58422 12.964 3.90822 12.964H12.7622V12.967Z" fill="#30469A"/>
<path d="M6.62633 20.054V19.354L7.70533 19.435L7.40533 20.051H15.1303C15.1843 20.051 15.2383 20.051 15.2913 20.051C15.3362 20.0467 15.3814 20.0518 15.4241 20.0659C15.4669 20.0801 15.5062 20.1031 15.5395 20.1334C15.5729 20.1636 15.5995 20.2006 15.6178 20.2417C15.636 20.2829 15.6454 20.3275 15.6454 20.3725C15.6454 20.4175 15.636 20.4621 15.6178 20.5033C15.5995 20.5445 15.5729 20.5814 15.5395 20.6116C15.5062 20.6419 15.4669 20.6649 15.4241 20.6791C15.3814 20.6933 15.3362 20.6983 15.2913 20.694C15.2513 20.694 15.2103 20.694 15.1703 20.694H3.24533C2.93533 20.694 2.75733 20.573 2.76333 20.365C2.76933 20.157 2.93733 20.049 3.23833 20.049H6.62533L6.62633 20.054Z" fill="#30469A"/>
<path d="M18.0943 20.054L17.7883 19.433L18.8613 19.35V20.044C18.9433 20.044 19.0073 20.054 19.0713 20.054C19.5203 20.054 19.9713 20.054 20.4183 20.054C20.4646 20.046 20.512 20.0482 20.5574 20.0603C20.6027 20.0725 20.6449 20.0943 20.6811 20.1243C20.7172 20.1543 20.7464 20.1918 20.7666 20.2342C20.7869 20.2765 20.7977 20.3228 20.7984 20.3697C20.799 20.4167 20.7895 20.4632 20.7705 20.5062C20.7514 20.5491 20.7233 20.5874 20.688 20.6184C20.6527 20.6494 20.6112 20.6724 20.5662 20.6858C20.5211 20.6992 20.4738 20.7027 20.4273 20.696C19.1746 20.696 17.9213 20.696 16.6673 20.696C16.621 20.7023 16.5739 20.6986 16.5292 20.6851C16.4846 20.6716 16.4433 20.6486 16.4083 20.6177C16.3733 20.5868 16.3454 20.5487 16.3264 20.506C16.3074 20.4634 16.2979 20.4171 16.2984 20.3705C16.2989 20.3238 16.3094 20.2777 16.3293 20.2355C16.3492 20.1933 16.378 20.1558 16.4137 20.1257C16.4493 20.0956 16.4911 20.0735 16.536 20.0609C16.581 20.0484 16.6282 20.0457 16.6743 20.053C17.1363 20.053 17.5973 20.053 18.0933 20.053L18.0943 20.054Z" fill="#30469A"/>
<path d="M22.0804 20.695C21.9674 20.695 21.8524 20.703 21.7404 20.695C21.7 20.694 21.6602 20.6849 21.6235 20.6681C21.5867 20.6514 21.5537 20.6274 21.5265 20.5977C21.4992 20.5679 21.4782 20.5329 21.4648 20.4948C21.4514 20.4567 21.4458 20.4163 21.4484 20.376C21.4459 20.3362 21.4515 20.2963 21.4646 20.2586C21.4778 20.221 21.4984 20.1864 21.5251 20.1567C21.5518 20.1271 21.5842 20.1032 21.6203 20.0862C21.6564 20.0692 21.6955 20.0597 21.7354 20.058C21.9684 20.048 22.2034 20.048 22.4354 20.058C22.4762 20.0579 22.5167 20.0662 22.5542 20.0824C22.5918 20.0985 22.6256 20.1221 22.6537 20.1518C22.6818 20.1815 22.7036 20.2166 22.7176 20.255C22.7316 20.2934 22.7377 20.3342 22.7354 20.375C22.7378 20.4153 22.7321 20.4557 22.7185 20.4937C22.705 20.5318 22.6839 20.5667 22.6565 20.5964C22.6292 20.6261 22.5961 20.6499 22.5593 20.6665C22.5225 20.6831 22.4827 20.6921 22.4424 20.693C22.3214 20.703 22.2004 20.695 22.0804 20.695Z" fill="#30469A"/>
<path d="M16.9723 8.16799C16.8876 8.16826 16.8061 8.13497 16.7458 8.07539C16.6854 8.01581 16.6511 7.93478 16.6503 7.84999C16.6489 7.80807 16.6559 7.76627 16.671 7.72713C16.686 7.68798 16.7089 7.6523 16.7381 7.62222C16.7674 7.59213 16.8024 7.56828 16.8411 7.55209C16.8798 7.53589 16.9214 7.5277 16.9633 7.52799C17.048 7.52665 17.1297 7.55878 17.1908 7.6174C17.2518 7.67602 17.2872 7.75638 17.2893 7.84099C17.2879 7.92557 17.2544 8.00643 17.1955 8.06716C17.1366 8.12789 17.0568 8.16394 16.9723 8.16799Z" fill="#30469A"/>
<path d="M16.0382 7.232C15.9963 7.23266 15.9548 7.22497 15.9159 7.20938C15.877 7.19378 15.8417 7.17059 15.8119 7.14117C15.7821 7.11175 15.7585 7.07668 15.7424 7.03802C15.7263 6.99935 15.7181 6.95787 15.7182 6.916C15.7167 6.8742 15.7237 6.83254 15.7388 6.79351C15.7538 6.75449 15.7766 6.71891 15.8057 6.68892C15.8349 6.65893 15.8698 6.63515 15.9084 6.61901C15.9469 6.60287 15.9884 6.5947 16.0302 6.595C16.072 6.59393 16.1137 6.60119 16.1527 6.61634C16.1917 6.6315 16.2273 6.65425 16.2574 6.68327C16.2876 6.7123 16.3116 6.74702 16.3283 6.78543C16.3449 6.82383 16.3537 6.86515 16.3542 6.907C16.3545 6.99164 16.3215 7.073 16.2624 7.1336C16.2034 7.19419 16.1228 7.23016 16.0382 7.232Z" fill="#30469A"/>
<path d="M16.8372 9.198C16.8375 9.23983 16.8295 9.2813 16.8136 9.32C16.7977 9.35871 16.7743 9.39387 16.7447 9.42345C16.7151 9.45303 16.6799 9.47645 16.6412 9.49233C16.6025 9.50822 16.5611 9.51626 16.5192 9.516C16.4774 9.51708 16.4358 9.5097 16.397 9.49429C16.3581 9.47888 16.3227 9.45577 16.293 9.42634C16.2633 9.39691 16.2399 9.36178 16.2241 9.32305C16.2083 9.28433 16.2005 9.24281 16.2012 9.201C16.2004 9.15908 16.208 9.11743 16.2234 9.07846C16.2389 9.03949 16.262 9.00399 16.2913 8.97402C16.3206 8.94405 16.3556 8.92022 16.3942 8.9039C16.4328 8.88759 16.4743 8.87912 16.5162 8.879C16.6009 8.87952 16.6819 8.91323 16.7419 8.97288C16.802 9.03254 16.8362 9.11337 16.8372 9.198Z" fill="#30469A"/>
<path d="M17.4213 6.14301C17.5062 6.14404 17.5872 6.1782 17.6472 6.23817C17.7072 6.29815 17.7413 6.37919 17.7423 6.46401C17.7423 6.54914 17.7085 6.63079 17.6483 6.69099C17.5881 6.75119 17.5065 6.78501 17.4213 6.78501C17.3362 6.78501 17.2546 6.75119 17.1944 6.69099C17.1342 6.63079 17.1003 6.54914 17.1003 6.46401C17.1019 6.37946 17.1365 6.29888 17.1966 6.23947C17.2568 6.18005 17.3378 6.14651 17.4223 6.14601L17.4213 6.14301Z" fill="#30469A"/>
<path d="M15.0023 7.40199C14.9965 7.484 14.9594 7.56063 14.8987 7.61609C14.838 7.67155 14.7583 7.7016 14.6761 7.70007C14.5939 7.69853 14.5155 7.66551 14.4569 7.60782C14.3983 7.55013 14.3641 7.47216 14.3613 7.38999C14.3673 7.30796 14.4045 7.23134 14.4653 7.17594C14.526 7.12053 14.6058 7.09058 14.688 7.09224C14.7702 7.09391 14.8487 7.12708 14.9072 7.1849C14.9657 7.24272 14.9997 7.31979 15.0023 7.40199Z" fill="#30469A"/>
<path d="M15.5914 8.618C15.5089 8.61634 15.4303 8.58302 15.3718 8.52495C15.3132 8.46687 15.2793 8.3885 15.277 8.30608C15.2747 8.22366 15.3042 8.14351 15.3593 8.08224C15.4145 8.02098 15.4912 7.98329 15.5734 7.97701C15.6558 7.97867 15.7345 8.01199 15.793 8.07006C15.8515 8.12814 15.8855 8.20651 15.8878 8.28893C15.8901 8.37135 15.8606 8.4515 15.8054 8.51277C15.7502 8.57403 15.6736 8.61172 15.5914 8.618Z" fill="#30469A"/>
</g>
<defs>
<clipPath id="clip0_412_57">
<rect width="24" height="24" fill="white" transform="translate(0.748291)"/>
</clipPath>
</defs>
</svg>
