<svg width="25" height="25" viewBox="0 0 25 25" fill="none" xmlns="http://www.w3.org/2000/svg">
<g clip-path="url(#clip0_412_32)">
<path d="M22.7482 12.579C22.6482 13.073 22.5372 13.566 22.4362 14.061C22.2552 14.946 22.0972 15.836 21.8942 16.716C21.7745 17.2366 21.4631 17.6931 21.0221 17.9945C20.5811 18.296 20.0428 18.4204 19.5142 18.343C19.8702 17.4979 19.9602 16.5645 19.7722 15.667C19.7287 15.2383 19.5581 14.8324 19.2823 14.5013C19.0065 14.1703 18.638 13.9292 18.2242 13.809C18.0972 13.763 18.0532 13.709 18.0582 13.579C18.0772 13.027 18.0402 12.469 18.1072 11.923C18.1796 11.449 18.4141 11.0147 18.7708 10.6941C19.1274 10.3736 19.5842 10.1866 20.0632 10.165C20.4197 10.1395 20.7779 10.1624 21.1282 10.233C21.5289 10.3203 21.8941 10.526 22.1764 10.8234C22.4587 11.1209 22.645 11.4963 22.7112 11.901C22.7212 11.945 22.7362 11.987 22.7492 12.03V12.577L22.7482 12.579Z" fill="#30469A"/>
<path d="M16.8892 13.664H8.60621C8.60621 13.582 8.60621 13.5 8.60621 13.418C8.62251 12.8272 8.59644 12.236 8.52821 11.649C8.38976 10.8959 7.98995 10.2159 7.39925 9.72875C6.80854 9.24159 6.06485 8.97855 5.29921 8.98599H5.05721C5.04887 8.18722 5.08995 7.3887 5.18021 6.59499C5.30615 5.94245 5.65711 5.35481 6.1719 4.9345C6.68669 4.51419 7.33266 4.28787 7.99721 4.29499C11.1645 4.29499 14.3342 4.29666 17.5062 4.29999C18.2709 4.30543 19.003 4.61052 19.5452 5.14976C20.0874 5.68899 20.3965 6.41935 20.4062 7.18399C20.4132 7.77499 20.4062 8.36699 20.4062 8.95599C20.1002 8.99099 19.8062 9.00299 19.5122 9.06199C18.7798 9.215 18.1214 9.61276 17.6452 10.1898C17.169 10.7669 16.9034 11.4889 16.8922 12.237C16.8872 12.705 16.8922 13.174 16.8922 13.665L16.8892 13.664ZM10.9482 7.22999C10.9488 7.11408 10.9149 7.0006 10.8509 6.90396C10.7869 6.80732 10.6957 6.73188 10.5887 6.6872C10.4817 6.64252 10.3639 6.63062 10.2502 6.65302C10.1365 6.67541 10.0319 6.73109 9.94991 6.81298C9.86788 6.89488 9.81202 6.9993 9.78943 7.11299C9.76684 7.22668 9.77854 7.34452 9.82303 7.45156C9.86753 7.55859 9.94281 7.64999 10.0393 7.71417C10.1359 7.77834 10.2493 7.81239 10.3652 7.81199C10.5189 7.80968 10.6657 7.74765 10.7745 7.63903C10.8833 7.53041 10.9456 7.38372 10.9482 7.22999ZM15.7142 7.22999C15.7142 7.11412 15.6798 7.00086 15.6153 6.90457C15.5509 6.80829 15.4593 6.73331 15.3521 6.68915C15.245 6.64499 15.1272 6.63365 15.0136 6.65654C14.9 6.67944 14.7958 6.73556 14.7141 6.81777C14.6325 6.89999 14.5771 7.0046 14.555 7.11834C14.5328 7.23208 14.545 7.34983 14.5899 7.45665C14.6348 7.56347 14.7104 7.65456 14.8071 7.71835C14.9038 7.78215 15.0173 7.81579 15.1332 7.81499C15.2871 7.81214 15.4338 7.74947 15.5423 7.64026C15.6507 7.53106 15.7124 7.3839 15.7142 7.22999ZM10.3612 11.33C10.4774 11.3306 10.5911 11.2966 10.6879 11.2325C10.7847 11.1683 10.8603 11.0768 10.905 10.9696C10.9497 10.8624 10.9616 10.7444 10.9391 10.6304C10.9166 10.5165 10.8607 10.4118 10.7786 10.3296C10.6964 10.2475 10.5917 10.1916 10.4778 10.1691C10.3638 10.1466 10.2458 10.1585 10.1386 10.2032C10.0314 10.2479 9.93988 10.3235 9.87571 10.4203C9.81155 10.5171 9.77761 10.6308 9.77821 10.747C9.78053 10.9009 9.8427 11.0478 9.95153 11.1567C10.0604 11.2655 10.2073 11.3277 10.3612 11.33ZM15.7142 10.744C15.714 10.6281 15.6794 10.5149 15.6148 10.4187C15.5501 10.3226 15.4584 10.2477 15.3512 10.2038C15.244 10.1598 15.1262 10.1487 15.0126 10.1718C14.8991 10.1948 14.7949 10.2511 14.7134 10.3335C14.6319 10.4158 14.5767 10.5206 14.5548 10.6343C14.5329 10.7481 14.5452 10.8658 14.5903 10.9726C14.6354 11.0793 14.7111 11.1703 14.808 11.2339C14.9048 11.2975 15.0183 11.331 15.1342 11.33C15.2884 11.3271 15.4355 11.2642 15.544 11.1545C15.6525 11.0449 15.7139 10.8972 15.7152 10.743L15.7142 10.744Z" fill="#30469A"/>
<path d="M12.7484 18.36H8.1194C7.94951 18.3738 7.77864 18.3506 7.61859 18.292C7.45853 18.2334 7.31308 18.1408 7.19227 18.0205C7.07145 17.9003 6.97815 17.7553 6.91879 17.5955C6.85942 17.4357 6.83541 17.265 6.8484 17.095C6.8484 16.737 6.8484 16.379 6.8484 16.021C6.84692 15.8659 6.87647 15.712 6.93531 15.5684C6.99415 15.4249 7.08109 15.2945 7.19103 15.1851C7.30096 15.0756 7.43167 14.9892 7.57548 14.931C7.71928 14.8728 7.87327 14.8439 8.0284 14.846C11.1724 14.846 14.3167 14.846 17.4614 14.846C17.6172 14.8428 17.772 14.8709 17.9166 14.9286C18.0613 14.9864 18.1929 15.0726 18.3036 15.1822C18.4144 15.2918 18.5019 15.4225 18.5611 15.5666C18.6204 15.7107 18.65 15.8652 18.6484 16.021C18.6537 16.405 18.6537 16.789 18.6484 17.173C18.651 17.3298 18.6219 17.4855 18.563 17.6308C18.5041 17.7762 18.4164 17.9081 18.3054 18.0188C18.1943 18.1295 18.062 18.2167 17.9165 18.2751C17.771 18.3336 17.6152 18.3621 17.4584 18.359C15.8894 18.359 14.3204 18.359 12.7514 18.359L12.7484 18.36Z" fill="#30469A"/>
<path d="M5.99931 18.349C5.43578 18.4304 4.86292 18.2857 4.40565 17.9465C3.94838 17.6072 3.64379 17.1009 3.55831 16.538C3.29131 15.226 3.01731 13.915 2.77931 12.595C2.73335 12.3033 2.74929 12.0051 2.8261 11.7199C2.90291 11.4348 3.03887 11.169 3.22515 10.9398C3.41142 10.7106 3.64384 10.5232 3.90729 10.3897C4.17074 10.2562 4.45933 10.1796 4.75431 10.165C5.11728 10.1426 5.48162 10.1671 5.83831 10.238C6.28515 10.3461 6.68365 10.5991 6.97163 10.9574C7.25962 11.3158 7.4209 11.7594 7.43031 12.219C7.44131 12.688 7.43031 13.156 7.43631 13.625C7.43631 13.73 7.39631 13.765 7.30131 13.798C6.81946 13.9508 6.40036 14.2561 6.10724 14.6679C5.81412 15.0797 5.66287 15.5757 5.67631 16.081C5.67631 16.322 5.68331 16.563 5.67631 16.804C5.62673 17.3402 5.73962 17.8789 6.00031 18.35L5.99931 18.349Z" fill="#30469A"/>
<path d="M6.26336 19.541H7.41836C7.43383 19.7768 7.43149 20.0135 7.41136 20.249C7.38501 20.388 7.3071 20.512 7.19324 20.596C7.07937 20.68 6.93797 20.7178 6.79736 20.702C6.6537 20.6883 6.5201 20.6222 6.422 20.5164C6.32389 20.4105 6.26814 20.2723 6.26536 20.128C6.25936 19.94 6.26536 19.752 6.26536 19.541H6.26336Z" fill="#30469A"/>
<path d="M18.0612 19.541H19.2152C19.2307 19.7768 19.2284 20.0135 19.2082 20.249C19.1819 20.388 19.104 20.512 18.9901 20.596C18.8762 20.68 18.7348 20.7178 18.5942 20.702C18.4506 20.6883 18.317 20.6222 18.2189 20.5164C18.1208 20.4105 18.065 20.2723 18.0622 20.128C18.0552 19.94 18.0612 19.752 18.0612 19.541Z" fill="#30469A"/>
</g>
<defs>
<clipPath id="clip0_412_32">
<rect width="24" height="24" fill="white" transform="translate(0.748291 0.5)"/>
</clipPath>
</defs>
</svg>
