<svg width="25" height="24" viewBox="0 0 25 24" fill="none" xmlns="http://www.w3.org/2000/svg">
<g clip-path="url(#clip0_412_96)">
<path d="M22.6804 14.136C22.5904 14.136 22.4994 14.148 22.4094 14.148H2.83141C2.82541 14.079 2.81541 14.024 2.81541 13.968C2.81541 13.476 2.81541 12.984 2.81541 12.493C2.80311 12.4022 2.81209 12.3098 2.84164 12.2231C2.87118 12.1363 2.92049 12.0577 2.98567 11.9933C3.05084 11.9289 3.1301 11.8805 3.21718 11.852C3.30425 11.8235 3.39677 11.8156 3.48741 11.829H21.9874C22.3934 11.829 22.5264 11.938 22.6814 12.389L22.6804 14.136Z" fill="#30469A"/>
<path d="M14.0593 2.058C14.0843 2.075 14.1083 2.094 14.1353 2.108C14.2591 2.16319 14.3598 2.25986 14.42 2.38135C14.4801 2.50283 14.496 2.6415 14.4648 2.77342C14.4336 2.90535 14.3574 3.02225 14.2492 3.10396C14.141 3.18567 14.0078 3.22707 13.8723 3.221C13.1533 3.221 12.4353 3.221 11.7173 3.221H11.5583V3.928C11.5583 4.239 11.5673 4.55 11.5583 4.86C11.5505 4.92439 11.5653 4.9895 11.6001 5.04422C11.6349 5.09893 11.6877 5.13986 11.7493 5.16C12.0696 5.31383 12.3341 5.56349 12.5061 5.87437C12.6781 6.18524 12.7491 6.54194 12.7093 6.895C12.6801 7.19761 12.572 7.48728 12.396 7.73514C12.2199 7.983 11.982 8.18041 11.7059 8.3077C11.4298 8.43499 11.1252 8.48772 10.8224 8.46063C10.5196 8.43354 10.2291 8.32758 9.98001 8.15331C9.73089 7.97904 9.53178 7.74253 9.40252 7.46736C9.27325 7.19218 9.21834 6.88794 9.24326 6.58494C9.26818 6.28194 9.37205 5.99075 9.54454 5.74039C9.71702 5.49003 9.95209 5.28923 10.2263 5.158C10.283 5.14037 10.3316 5.10332 10.3636 5.05339C10.3956 5.00345 10.409 4.94382 10.4013 4.885C10.3913 4.342 10.4013 3.8 10.4013 3.241H6.90933V3.441C6.90933 3.92 6.91533 4.399 6.90933 4.878C6.89999 4.9397 6.91272 5.00271 6.94528 5.05595C6.97784 5.10918 7.02815 5.14922 7.08733 5.169C7.44446 5.33786 7.73268 5.62438 7.90364 5.98051C8.0746 6.33664 8.11792 6.74072 8.02633 7.125C7.95865 7.41149 7.81947 7.67616 7.62178 7.89429C7.42409 8.11242 7.17435 8.27689 6.89588 8.37235C6.61741 8.46781 6.31929 8.49114 6.02935 8.44017C5.73942 8.38919 5.46713 8.26557 5.23792 8.08085C5.00871 7.89613 4.83004 7.65634 4.71862 7.38386C4.60719 7.11139 4.56663 6.81512 4.60072 6.52272C4.63482 6.23032 4.74246 5.95133 4.91359 5.7118C5.08472 5.47228 5.31377 5.28002 5.57933 5.153C5.63556 5.13513 5.68361 5.09787 5.71492 5.04788C5.74624 4.99788 5.75879 4.93839 5.75033 4.88C5.74033 4.337 5.75033 3.795 5.75033 3.223H3.54933C3.14533 3.222 2.91533 3.079 2.83833 2.787C2.76133 2.495 2.89833 2.244 3.26233 2.058H14.0593Z" fill="#30469A"/>
<path d="M22.6804 21.359C22.5144 21.859 22.4034 21.942 21.8744 21.942H14.4944V15.31H22.4534C22.5299 15.3145 22.6061 15.3238 22.6814 15.338V21.357L22.6804 21.359ZM18.5734 20.78C19.1424 20.78 19.7114 20.78 20.2804 20.78C20.3649 20.7883 20.4502 20.7779 20.5302 20.7498C20.6103 20.7216 20.6833 20.6762 20.744 20.6168C20.8047 20.5575 20.8516 20.4856 20.8816 20.4061C20.9116 20.3267 20.9238 20.2417 20.9174 20.157C20.9227 19.1417 20.9227 18.1263 20.9174 17.111C20.9244 17.0264 20.913 16.9413 20.884 16.8615C20.8549 16.7817 20.8089 16.7092 20.7491 16.6489C20.6893 16.5886 20.6172 16.5421 20.5376 16.5124C20.4581 16.4827 20.373 16.4706 20.2884 16.477C19.1437 16.4737 17.9991 16.4737 16.8544 16.477C16.7698 16.4707 16.6848 16.4829 16.6054 16.5128C16.526 16.5426 16.4541 16.5895 16.3947 16.6501C16.3353 16.7106 16.2898 16.7834 16.2614 16.8634C16.233 16.9433 16.2224 17.0285 16.2304 17.113C16.2304 18.1223 16.2304 19.1313 16.2304 20.14C16.2212 20.226 16.2313 20.3129 16.2599 20.3944C16.2885 20.476 16.335 20.5502 16.396 20.6115C16.4569 20.6728 16.5307 20.7197 16.6121 20.7489C16.6935 20.778 16.7804 20.7887 16.8664 20.78C17.4354 20.78 18.0044 20.78 18.5734 20.78Z" fill="#30469A"/>
<path d="M2.8274 15.319H7.4734V21.933C7.4194 21.933 7.3574 21.94 7.2964 21.94C6.0224 21.94 4.74807 21.94 3.4734 21.94C3.38564 21.9512 3.29648 21.9424 3.2126 21.9142C3.12871 21.8861 3.05228 21.8394 2.989 21.7775C2.92572 21.7157 2.87724 21.6404 2.84718 21.5571C2.81712 21.4739 2.80625 21.385 2.8154 21.297C2.8154 19.3523 2.8154 17.4057 2.8154 15.457C2.8154 15.419 2.8214 15.381 2.8264 15.32L2.8274 15.319ZM5.1634 18.619C5.1634 18.748 5.1634 18.877 5.1634 19.007C5.16129 19.157 5.21688 19.3021 5.31868 19.4122C5.42048 19.5224 5.56071 19.5893 5.7104 19.599C5.86108 19.6084 6.00938 19.558 6.12318 19.4588C6.23698 19.3596 6.30712 19.2195 6.3184 19.069C6.33811 18.779 6.33811 18.488 6.3184 18.198C6.31394 18.1237 6.29488 18.051 6.2623 17.9841C6.22972 17.9172 6.18426 17.8574 6.12853 17.8081C6.0728 17.7587 6.00789 17.7209 5.93751 17.6967C5.86714 17.6725 5.79268 17.6624 5.7184 17.667C5.56827 17.6727 5.42637 17.7371 5.32316 17.8463C5.21996 17.9555 5.16368 18.1008 5.1664 18.251C5.1664 18.373 5.1664 18.496 5.1664 18.619H5.1634Z" fill="#30469A"/>
<path d="M8.66138 21.927V15.327H13.3064V21.927H8.66138ZM10.9764 18.627C10.9764 18.485 10.9874 18.342 10.9764 18.201C10.9676 18.0508 10.9005 17.9099 10.7893 17.8085C10.6781 17.707 10.5318 17.653 10.3814 17.658C10.2309 17.6629 10.0884 17.7265 9.9842 17.835C9.87996 17.9435 9.82225 18.0885 9.82338 18.239C9.81638 18.491 9.81738 18.739 9.82338 18.994C9.81797 19.1475 9.87369 19.2969 9.9783 19.4094C10.0829 19.5219 10.2279 19.5883 10.3814 19.594C10.4592 19.5959 10.5365 19.5822 10.609 19.5538C10.6815 19.5255 10.7475 19.483 10.8034 19.4288C10.8592 19.3746 10.9038 19.3099 10.9343 19.2383C10.9649 19.1667 10.9809 19.0898 10.9814 19.012C10.9894 18.883 10.9814 18.754 10.9814 18.625L10.9764 18.627Z" fill="#30469A"/>
<path d="M21.3343 8.206C21.3253 8.572 21.3213 8.939 21.3043 9.306C21.2953 9.518 21.2693 9.73 21.2423 9.941C21.229 10.0101 21.2072 10.0773 21.1773 10.141C20.9863 10.619 20.9263 10.66 20.4143 10.66C18.7143 10.66 17.0223 10.66 15.3273 10.66C15.2577 10.6658 15.1878 10.6515 15.1261 10.6187C15.0644 10.5859 15.0134 10.536 14.9793 10.475C14.7906 10.1942 14.6865 9.8652 14.6793 9.527C14.6733 9.08767 14.6683 8.648 14.6643 8.208C14.7301 8.19261 14.797 8.18225 14.8643 8.177C16.9516 8.177 19.0386 8.177 21.1253 8.177C21.1958 8.18097 21.2659 8.18932 21.3353 8.202L21.3343 8.206Z" fill="#30469A"/>
<path d="M14.6963 7.04701C14.6317 6.73605 14.6376 6.41455 14.7135 6.10617C14.7895 5.79778 14.9336 5.51035 15.1353 5.26501C15.2935 5.08867 15.4867 4.94732 15.7027 4.85002C15.9186 4.75273 16.1525 4.70163 16.3893 4.70001C16.7183 4.69501 17.0473 4.70001 17.3983 4.70001C17.3771 4.57755 17.3893 4.45162 17.4339 4.33559C17.4784 4.21955 17.5536 4.11775 17.6513 4.04101C17.7597 3.97348 17.8838 3.93524 18.0113 3.93001C18.3533 3.92501 18.5033 4.13001 18.5913 4.69901H19.4543C19.7012 4.68371 19.9486 4.721 20.18 4.80839C20.4114 4.89578 20.6216 5.0313 20.7968 5.20597C20.9719 5.38065 21.108 5.59051 21.196 5.82168C21.284 6.05285 21.322 6.30008 21.3073 6.54701C21.3073 6.70101 21.3073 6.85401 21.3073 7.02601H14.9213C14.8453 7.02601 14.7683 7.03801 14.6923 7.04501L14.6963 7.04701Z" fill="#30469A"/>
<path d="M14.6913 7.04101C14.6913 7.36201 14.6833 7.68301 14.6773 8.00401C14.6773 8.07501 14.6683 8.145 14.6623 8.216C14.6285 8.20174 14.5928 8.19231 14.5563 8.18801C14.4674 8.19633 14.3778 8.1847 14.2939 8.15397C14.2101 8.12323 14.1341 8.07417 14.0716 8.01035C14.0092 7.94654 13.9617 7.86958 13.9328 7.78509C13.9038 7.70061 13.8941 7.61073 13.9043 7.52201C13.9178 7.43521 13.9502 7.35243 13.9991 7.27951C14.0481 7.2066 14.1125 7.14532 14.1878 7.10002C14.263 7.05471 14.3473 7.02649 14.4347 7.01733C14.522 7.00816 14.6103 7.0183 14.6933 7.04701L14.6913 7.04101Z" fill="#30469A"/>
<path d="M21.3382 8.21V7.041C21.4198 7.01793 21.5054 7.013 21.589 7.02657C21.6727 7.04014 21.7523 7.07187 21.8224 7.11953C21.8924 7.16719 21.9512 7.22963 21.9945 7.30245C22.0379 7.37526 22.0647 7.45669 22.0732 7.541C22.0815 7.62463 22.0716 7.70904 22.0444 7.78855C22.0172 7.86805 21.9733 7.94079 21.9156 8.00185C21.8578 8.0629 21.7876 8.11085 21.7098 8.14244C21.6319 8.17404 21.5482 8.18855 21.4642 8.185C21.4205 8.18975 21.3771 8.1971 21.3342 8.207L21.3382 8.21Z" fill="#30469A"/>
<path d="M19.7452 19.608H17.4082V17.647H19.7452V19.608Z" fill="#30469A"/>
</g>
<defs>
<clipPath id="clip0_412_96">
<rect width="24" height="24" fill="white" transform="translate(0.748291)"/>
</clipPath>
</defs>
</svg>
