<svg width="24" height="24" viewBox="0 0 24 24" fill="none" xmlns="http://www.w3.org/2000/svg">
<g clip-path="url(#clip0_399_294)">
<path d="M22 22.001H2V20.829H3.34302V20.54C3.34302 15.8246 3.34135 11.1093 3.33801 6.39399C3.33801 6.17599 3.38899 6.09398 3.61499 6.06598C3.97399 6.02898 4.32902 5.95202 4.69702 5.89002V2.00202H11.245V4.80201L12.589 4.58301V7.383H20.663V20.834H22V22.001ZM4.53003 7.10798V20.814H6.03802V18.145H9.90002V20.818H11.4V5.96198L4.53003 7.10798ZM19.476 8.56299H12.6V20.815H19.479L19.476 8.56299ZM5.87598 5.69501L10.061 4.995V3.172H5.87598V5.69501ZM8.70801 20.817V19.317H7.21503V20.817H8.70801Z" fill="#30469A"/>
<path d="M8.73901 7.38801H9.87799V8.534H8.73901V7.38801Z" fill="#30469A"/>
<path d="M6.04199 16.604V15.461H7.18402V16.604H6.04199Z" fill="#30469A"/>
<path d="M8.73511 15.4551H9.88007V16.6H8.73511V15.4551Z" fill="#30469A"/>
<path d="M6.04102 11.221V10.084H7.18903V11.221H6.04102Z" fill="#30469A"/>
<path d="M9.88208 11.222H8.73413V10.079H9.88208V11.222Z" fill="#30469A"/>
<path d="M7.18591 13.908H6.04395V12.763H7.18591V13.908Z" fill="#30469A"/>
<path d="M8.73413 12.767H9.8811V13.911H8.73413V12.767Z" fill="#30469A"/>
<path d="M14.1199 15.4511H15.2639V16.595H14.1199V15.4511Z" fill="#30469A"/>
<path d="M17.9581 15.465V16.595H16.8081V15.465H17.9581Z" fill="#30469A"/>
<path d="M15.2639 18.152V19.298H14.1189V18.152H15.2639Z" fill="#30469A"/>
<path d="M17.9581 18.155V19.2971H16.8091V18.155H17.9581Z" fill="#30469A"/>
<path d="M15.2621 10.079V11.221H14.1121V10.079H15.2621Z" fill="#30469A"/>
<path d="M17.9559 10.08V11.218H16.8079V10.08H17.9559Z" fill="#30469A"/>
<path d="M14.1179 12.767H15.2639V13.91H14.1179V12.767Z" fill="#30469A"/>
<path d="M16.8069 13.914V12.774H17.9579V13.914H16.8069Z" fill="#30469A"/>
</g>
<defs>
<clipPath id="clip0_399_294">
<rect width="24" height="24" fill="white"/>
</clipPath>
</defs>
</svg>
