<svg width="25" height="24" viewBox="0 0 25 24" fill="none" xmlns="http://www.w3.org/2000/svg">
<g clip-path="url(#clip0_412_22)">
<path d="M2.5813 19.46V18.122H4.5993V10.664H5.9523V18.103H8.6663V16.771H7.3323C7.3323 16.681 7.3223 16.613 7.3223 16.546C7.3223 15.74 7.3223 14.934 7.3223 14.128C7.31082 13.8461 7.35798 13.565 7.46079 13.3023C7.5636 13.0396 7.71982 12.8011 7.91957 12.602C8.11931 12.4028 8.35823 12.2472 8.62121 12.1452C8.88418 12.0431 9.16548 11.9967 9.4473 12.009C13.236 12.009 17.0246 12.009 20.8133 12.009C21.0935 11.9974 21.373 12.0438 21.6344 12.1454C21.8958 12.247 22.1333 12.4015 22.3321 12.5993C22.5309 12.797 22.6867 13.0338 22.7896 13.2946C22.8926 13.5555 22.9405 13.8348 22.9303 14.115C22.9303 14.928 22.9303 15.741 22.9303 16.554V16.754H21.5873V18.115H22.9193V19.459H2.5813V19.46ZM10.0463 18.102H20.1993V16.77H10.0463V18.102Z" fill="#30469A"/>
<path d="M20.8772 10.642H17.5012C17.5012 10.425 17.5012 10.215 17.5012 10.006C17.5059 9.82128 17.4729 9.63754 17.4041 9.46604C17.3353 9.29455 17.2322 9.13891 17.1011 9.00867C16.97 8.87843 16.8137 8.77634 16.6418 8.70864C16.4699 8.64095 16.2859 8.60909 16.1012 8.615C15.4439 8.61167 14.7869 8.61167 14.1302 8.615C13.9481 8.61215 13.7673 8.64598 13.5986 8.71448C13.4299 8.78297 13.2766 8.88473 13.1481 9.01368C13.0195 9.14264 12.9182 9.29616 12.8502 9.46509C12.7821 9.63403 12.7488 9.81492 12.7522 9.997C12.7522 10.207 12.7522 10.418 12.7522 10.639H9.35822V10.439C9.35822 9.627 9.35822 8.813 9.35822 8.001C9.34933 7.72282 9.39756 7.44577 9.49995 7.18697C9.60234 6.92816 9.75671 6.6931 9.95351 6.49629C10.1503 6.29949 10.3854 6.14513 10.6442 6.04274C10.903 5.94035 11.18 5.89211 11.4582 5.901C13.9029 5.901 16.3476 5.901 18.7922 5.901C19.0708 5.89141 19.3484 5.93913 19.6078 6.04121C19.8672 6.14328 20.1029 6.29754 20.3002 6.49442C20.4976 6.69129 20.6524 6.9266 20.7551 7.18575C20.8578 7.4449 20.9061 7.72239 20.8972 8.001C20.8972 8.863 20.8972 9.725 20.8972 10.587C20.894 10.6077 20.889 10.6281 20.8822 10.648L20.8772 10.642Z" fill="#30469A"/>
<path d="M8.02324 9.289H2.58624C2.52614 8.77685 2.57175 8.25782 2.72024 7.764C3.05324 6.739 3.40224 5.716 3.73824 4.69C3.78024 4.563 3.85024 4.539 3.97124 4.539C4.84724 4.539 5.72424 4.539 6.60024 4.546C6.64088 4.54677 6.6808 4.55692 6.71688 4.57565C6.75296 4.59439 6.78422 4.6212 6.80824 4.654C7.27571 5.78918 7.65288 6.95948 7.93624 8.154C7.99005 8.52868 8.01911 8.9065 8.02324 9.285V9.289Z" fill="#30469A"/>
</g>
<defs>
<clipPath id="clip0_412_22">
<rect width="24" height="24" fill="white" transform="translate(0.748291)"/>
</clipPath>
</defs>
</svg>
