<svg width="14" height="13" viewBox="0 0 14 13" fill="none" xmlns="http://www.w3.org/2000/svg">
<path d="M12.7602 2.06867C12.8617 1.97071 12.9427 1.8535 12.9984 1.7239C13.0542 1.5943 13.0835 1.45489 13.0848 1.31381C13.0861 1.17274 13.0593 1.03282 13.006 0.902213C12.9526 0.771611 12.8738 0.652944 12.774 0.553137C12.6743 0.453329 12.5557 0.37438 12.4252 0.320895C12.2946 0.26741 12.1547 0.240461 12.0137 0.24162C11.8726 0.242779 11.7331 0.272022 11.6035 0.327645C11.4738 0.383268 11.3566 0.464155 11.2585 0.565587L7 4.82267L2.74291 0.565587C2.64564 0.461198 2.52834 0.37747 2.39801 0.319398C2.26768 0.261326 2.12698 0.230099 1.98432 0.227582C1.84166 0.225065 1.69995 0.251309 1.56765 0.304747C1.43535 0.358185 1.31517 0.437723 1.21428 0.538616C1.11338 0.63951 1.03384 0.75969 0.980406 0.89199C0.926968 1.02429 0.900724 1.166 0.903242 1.30866C0.905759 1.45132 0.936985 1.59202 0.995057 1.72235C1.05313 1.85268 1.13686 1.96998 1.24125 2.06725L5.4955 6.32575L1.23841 10.5828C1.05073 10.7843 0.948558 11.0507 0.953415 11.3259C0.958272 11.6012 1.06978 11.8638 1.26445 12.0585C1.45912 12.2531 1.72175 12.3646 1.99701 12.3695C2.27227 12.3744 2.53867 12.2722 2.74008 12.0845L7 7.82742L11.2571 12.0859C11.4585 12.2736 11.7249 12.3758 12.0002 12.3709C12.2754 12.3661 12.538 12.2546 12.7327 12.0599C12.9274 11.8652 13.0389 11.6026 13.0437 11.3273C13.0486 11.0521 12.9464 10.7857 12.7587 10.5843L8.5045 6.32575L12.7602 2.06867Z" fill="black"/>
</svg>
