<svg width="25" height="24" viewBox="0 0 25 24" fill="none" xmlns="http://www.w3.org/2000/svg">
<g clip-path="url(#clip0_412_77)">
<path d="M12.5923 2H12.9043C13.0043 2.063 13.1143 2.124 13.2183 2.188C16.2397 4.082 19.2637 5.97567 22.2903 7.869C22.4861 7.97165 22.6464 8.13091 22.7503 8.326V9.81C22.5203 10.365 22.0123 10.216 21.5883 10.247V20.824C22.0303 20.83 22.5193 20.709 22.7503 21.252V21.564C22.6846 21.7124 22.5721 21.8353 22.43 21.9138C22.2879 21.9924 22.124 22.0223 21.9633 21.999C21.1113 21.982 20.2633 21.993 19.4063 21.993H19.1963V13.333C19.1963 12.833 18.9803 12.621 18.4833 12.621H7.02034C6.52034 12.621 6.30534 12.835 6.30534 13.331V21.993C5.30534 21.993 4.33434 21.993 3.36534 21.993C3.28564 21.9977 3.20582 21.986 3.1308 21.9587C3.05577 21.9314 2.98711 21.8891 2.92903 21.8343C2.87096 21.7795 2.82468 21.7134 2.79306 21.6401C2.76143 21.5668 2.74512 21.4878 2.74512 21.408C2.74512 21.3282 2.76143 21.2492 2.79306 21.1759C2.82468 21.1026 2.87096 21.0365 2.92903 20.9817C2.98711 20.9269 3.05577 20.8846 3.1308 20.8573C3.20582 20.83 3.28564 20.8183 3.36534 20.823C3.54534 20.823 3.72534 20.823 3.90834 20.823V10.24C3.72134 10.24 3.54634 10.24 3.37134 10.24C3.288 10.2449 3.20457 10.232 3.12661 10.2021C3.04865 10.1722 2.97795 10.1261 2.9192 10.0668C2.86045 10.0075 2.81501 9.93632 2.78589 9.85808C2.75678 9.77984 2.74466 9.69629 2.75034 9.613C2.75034 9.255 2.75034 8.9 2.75034 8.539C2.7439 8.42154 2.77069 8.30463 2.82765 8.2017C2.8846 8.09876 2.9694 8.01395 3.07234 7.957C3.44334 7.73 3.81134 7.495 4.18034 7.264L12.5923 2ZM7.49234 10.24C7.67434 10.24 7.85634 10.24 8.03734 10.24C8.11699 10.2451 8.19686 10.2339 8.27203 10.207C8.34719 10.1802 8.41608 10.1383 8.47447 10.0838C8.53285 10.0294 8.5795 9.96362 8.61156 9.89051C8.64361 9.81741 8.66039 9.73853 8.66087 9.65871C8.66134 9.57889 8.64551 9.49981 8.61433 9.42633C8.58316 9.35285 8.5373 9.28651 8.47957 9.23139C8.42184 9.17626 8.35346 9.13351 8.27861 9.10576C8.20377 9.07801 8.12405 9.06584 8.04434 9.07C7.66834 9.066 7.292 9.066 6.91534 9.07C6.83851 9.06954 6.76235 9.08422 6.6912 9.11319C6.62005 9.14217 6.5553 9.18487 6.50065 9.23887C6.39029 9.34792 6.32777 9.49635 6.32684 9.6515C6.32591 9.80665 6.38665 9.95582 6.4957 10.0662C6.60476 10.1765 6.75319 10.2391 6.90834 10.24C7.10334 10.24 7.29734 10.24 7.49234 10.24ZM11.0103 9.068C10.8103 9.068 10.6103 9.068 10.4103 9.068C10.2555 9.06667 10.1064 9.12693 9.99592 9.23551C9.88546 9.3441 9.82266 9.49211 9.82134 9.647C9.82001 9.80189 9.88027 9.95096 9.98885 10.0614C10.0974 10.1719 10.2455 10.2347 10.4003 10.236C10.7963 10.244 11.1923 10.244 11.5883 10.236C11.7432 10.2347 11.8912 10.1719 11.9998 10.0614C12.1084 9.95096 12.1687 9.80189 12.1673 9.647C12.166 9.49211 12.1032 9.3441 11.9928 9.23551C11.8823 9.12693 11.7332 9.06667 11.5783 9.068C11.3863 9.064 11.1983 9.068 11.0103 9.068ZM14.4933 10.24C14.6933 10.24 14.8933 10.245 15.0933 10.24C15.2482 10.2392 15.3965 10.1769 15.5054 10.0668C15.6144 9.95674 15.6751 9.80789 15.6743 9.653C15.6735 9.49811 15.6112 9.34989 15.5012 9.24093C15.3911 9.13197 15.2422 9.0712 15.0873 9.072C14.698 9.06533 14.3087 9.06533 13.9193 9.072C13.8405 9.06917 13.762 9.0823 13.6884 9.11059C13.6148 9.13889 13.5477 9.18177 13.4911 9.23665C13.4345 9.29154 13.3896 9.3573 13.359 9.42999C13.3285 9.50267 13.3129 9.58078 13.3133 9.65963C13.3138 9.73847 13.3301 9.81642 13.3614 9.88878C13.3927 9.96115 13.4383 10.0265 13.4954 10.0808C13.5526 10.1351 13.6201 10.1772 13.694 10.2048C13.7679 10.2323 13.8466 10.2446 13.9253 10.241C14.1133 10.241 14.3023 10.241 14.4893 10.241L14.4933 10.24ZM18.0043 10.24C18.2043 10.24 18.4043 10.245 18.6043 10.24C18.7594 10.24 18.908 10.1784 19.0176 10.0688C19.1273 9.95919 19.1888 9.81052 19.1888 9.6555C19.1888 9.50048 19.1273 9.35181 19.0176 9.2422C18.908 9.13258 18.7594 9.071 18.6043 9.071C18.2153 9.064 17.8253 9.065 17.4363 9.071C17.2813 9.071 17.1326 9.13258 17.023 9.2422C16.9134 9.35181 16.8518 9.50048 16.8518 9.6555C16.8518 9.81052 16.9134 9.95919 17.023 10.0688C17.1326 10.1784 17.2813 10.24 17.4363 10.24C17.6243 10.245 17.8133 10.24 18.0003 10.24H18.0043Z" fill="#30469A"/>
<path d="M18.0123 13.807V14.954H7.48633V13.807H18.0123Z" fill="#30469A"/>
<path d="M18.0082 17.3H7.49219V16.149H18.0082V17.3Z" fill="#30469A"/>
<path d="M7.48633 19.638V18.489H18.0053V19.638H7.48633Z" fill="#30469A"/>
<path d="M18.0102 21.986H7.49023V20.834H18.0092V21.986H18.0102Z" fill="#30469A"/>
</g>
<defs>
<clipPath id="clip0_412_77">
<rect width="24" height="24" fill="white" transform="translate(0.748291)"/>
</clipPath>
</defs>
</svg>
