<svg width="36" height="38" viewBox="0 0 36 38" fill="none" xmlns="http://www.w3.org/2000/svg">
<g filter="url(#filter0_d_84_101)">
<path d="M30.0221 11.1185H23.2969C23.9236 10.8416 24.5055 10.473 25.0237 10.0248C25.383 9.70525 25.6724 9.31492 25.8738 8.87826C26.0752 8.44161 26.1842 7.96805 26.194 7.48729C26.2095 6.95451 26.116 6.42418 25.9192 5.92884C25.7224 5.4335 25.4265 4.98358 25.0496 4.60669C24.6727 4.2298 24.2228 3.93389 23.7274 3.7371C23.2321 3.54031 22.7017 3.44679 22.169 3.46229C21.6882 3.47205 21.2146 3.58104 20.778 3.78243C20.3413 3.98382 19.951 4.27326 19.6315 4.6326C18.8235 5.54451 18.3149 6.7326 17.9908 7.87147C17.6696 6.7326 17.161 5.54725 16.3502 4.6326C16.0307 4.27326 15.6404 3.98382 15.2037 3.78243C14.767 3.58104 14.2935 3.47205 13.8127 3.46229C13.2799 3.44679 12.7496 3.54031 12.2543 3.7371C11.7589 3.93389 11.309 4.2298 10.9321 4.60669C10.5552 4.98358 10.2593 5.4335 10.0625 5.92884C9.86574 6.42418 9.77222 6.95451 9.78772 7.48729C9.79748 7.96805 9.90647 8.44161 10.1079 8.87826C10.3093 9.31492 10.5987 9.70525 10.958 10.0248C11.4762 10.473 12.0581 10.8416 12.6848 11.1185H5.95959C5.52447 11.1185 5.10717 11.2914 4.7995 11.5991C4.49182 11.9067 4.31897 12.324 4.31897 12.7592V17.1342C4.31897 17.5693 4.49182 17.9866 4.7995 18.2943C5.10717 18.6019 5.52447 18.7748 5.95959 18.7748H6.50647V28.0717C6.50647 28.5068 6.67932 28.9241 6.987 29.2318C7.29467 29.5394 7.71197 29.7123 8.14709 29.7123H27.8346C28.2697 29.7123 28.687 29.5394 28.9947 29.2318C29.3024 28.9241 29.4752 28.5068 29.4752 28.0717V18.7748H30.0221C30.4572 18.7748 30.8745 18.6019 31.1822 18.2943C31.4899 17.9866 31.6627 17.5693 31.6627 17.1342V12.7592C31.6627 12.324 31.4899 11.9067 31.1822 11.5991C30.8745 11.2914 30.4572 11.1185 30.0221 11.1185ZM20.4518 5.35721C20.6726 5.11043 20.9421 4.91189 21.2432 4.77403C21.5443 4.63617 21.8707 4.56196 22.2018 4.55604H22.2852C22.6618 4.55644 23.0346 4.6323 23.3814 4.77915C23.7282 4.92601 24.0421 5.14087 24.3045 5.41105C24.5669 5.68123 24.7725 6.00126 24.9092 6.35222C25.0459 6.70319 25.1108 7.07799 25.1002 7.45447C25.0943 7.7856 25.0201 8.11194 24.8822 8.41307C24.7444 8.71419 24.5458 8.98361 24.299 9.20447C22.6461 10.6674 19.7778 11.0105 18.5569 11.0898C18.6416 9.8785 18.9834 7.01697 20.4518 5.35721ZM10.8815 7.45447C10.8709 7.07799 10.9358 6.70319 11.0725 6.35222C11.2092 6.00126 11.4148 5.68123 11.6772 5.41105C11.9396 5.14087 12.2535 4.92601 12.6003 4.77915C12.9471 4.6323 13.3199 4.55644 13.6965 4.55604H13.7799C14.111 4.56196 14.4374 4.63617 14.7385 4.77403C15.0396 4.91189 15.309 5.11043 15.5299 5.35721C16.9942 7.01014 17.336 9.8785 17.4153 11.0994C16.1998 11.0201 13.3315 10.6769 11.6731 9.21404C11.4269 8.99124 11.2294 8.7199 11.0932 8.41708C10.957 8.11425 10.8849 7.78651 10.8815 7.45447ZM5.41272 17.1342V12.7592C5.41272 12.6141 5.47034 12.475 5.5729 12.3725C5.67545 12.2699 5.81455 12.2123 5.95959 12.2123H17.444V17.681H5.95959C5.81455 17.681 5.67545 17.6234 5.5729 17.5209C5.47034 17.4183 5.41272 17.2792 5.41272 17.1342ZM7.60022 28.0717V18.7748H17.444V28.6185H8.14709C8.00205 28.6185 7.86295 28.5609 7.7604 28.4584C7.65784 28.3558 7.60022 28.2167 7.60022 28.0717ZM28.3815 28.0717C28.3815 28.2167 28.3239 28.3558 28.2213 28.4584C28.1187 28.5609 27.9796 28.6185 27.8346 28.6185H18.5377V18.7748H28.3815V28.0717ZM30.569 17.1342C30.569 17.2792 30.5114 17.4183 30.4088 17.5209C30.3062 17.6234 30.1671 17.681 30.0221 17.681H18.5377V12.2123H30.0221C30.1671 12.2123 30.3062 12.2699 30.4088 12.3725C30.5114 12.475 30.569 12.6141 30.569 12.7592V17.1342Z" fill="#30469A" stroke="#30469A" stroke-width="0.5"/>
</g>
<defs>
<filter id="filter0_d_84_101" x="-3.50916" y="0.727905" width="43" height="43" filterUnits="userSpaceOnUse" color-interpolation-filters="sRGB">
<feFlood flood-opacity="0" result="BackgroundImageFix"/>
<feColorMatrix in="SourceAlpha" type="matrix" values="0 0 0 0 0 0 0 0 0 0 0 0 0 0 0 0 0 0 127 0" result="hardAlpha"/>
<feOffset dy="4"/>
<feGaussianBlur stdDeviation="2"/>
<feComposite in2="hardAlpha" operator="out"/>
<feColorMatrix type="matrix" values="0 0 0 0 0 0 0 0 0 0 0 0 0 0 0 0 0 0 0.25 0"/>
<feBlend mode="normal" in2="BackgroundImageFix" result="effect1_dropShadow_84_101"/>
<feBlend mode="normal" in="SourceGraphic" in2="effect1_dropShadow_84_101" result="shape"/>
</filter>
</defs>
</svg>
