<svg width="25" height="24" viewBox="0 0 25 24" fill="none" xmlns="http://www.w3.org/2000/svg">
<g clip-path="url(#clip0_409_170)">
<path d="M5.90337 6.246C6.32075 5.72478 6.84646 5.30055 7.44408 5.00269C8.04169 4.70483 8.69693 4.54047 9.36437 4.521C9.46304 4.521 9.56304 4.523 9.66437 4.527C10.1765 4.55713 10.6794 4.6766 11.1504 4.88C11.394 4.98442 11.6282 5.10955 11.8504 5.254C11.8864 5.278 11.922 5.30266 11.9574 5.328C12.0874 5.421 12.2104 5.528 12.3364 5.622C12.3824 5.658 12.4294 5.702 12.4794 5.743C12.5388 5.7993 12.6113 5.83986 12.6904 5.861C12.7129 5.86429 12.7358 5.86429 12.7584 5.861C12.8808 5.82588 12.9927 5.76133 13.0844 5.673C13.2104 5.581 13.3344 5.479 13.4554 5.389C13.4904 5.363 13.5244 5.338 13.5554 5.315C13.5864 5.292 13.6404 5.257 13.6834 5.229C13.866 5.11171 14.0572 5.00841 14.2554 4.92C14.8196 4.66824 15.4306 4.53841 16.0484 4.539H16.1204C16.7325 4.54992 17.3359 4.68605 17.8934 4.939C18.2116 5.08311 18.5133 5.26114 18.7934 5.47C19.3122 5.86012 19.7437 6.35435 20.0604 6.921C20.376 7.50839 20.591 8.14454 20.6964 8.803L20.7104 8.879L20.7224 8.952C20.7324 9.09133 20.7397 9.231 20.7444 9.371C20.749 9.511 20.749 9.642 20.7444 9.764C20.6958 10.4383 20.5328 11.0994 20.2624 11.719C19.9307 12.3803 19.4914 12.9818 18.9624 13.499L18.9194 13.544C18.3614 14.134 17.8104 14.731 17.2554 15.324L16.5474 16.079C15.7194 16.9623 14.8907 17.845 14.0614 18.727C13.8086 18.9986 13.5109 19.2246 13.1814 19.395C12.9438 19.5121 12.6735 19.5452 12.4147 19.4889C12.1559 19.4326 11.9238 19.2902 11.7564 19.085C10.6757 17.9397 9.59804 16.7907 8.52337 15.638C8.02937 15.111 7.52337 14.594 7.03437 14.064C6.54621 13.5564 6.09316 13.0161 5.67837 12.447C5.18383 11.7456 4.87428 10.9308 4.77837 10.078C4.74787 9.8098 4.74017 9.53949 4.75537 9.27C4.80911 8.26853 5.14352 7.30239 5.72037 6.482C5.77904 6.402 5.84004 6.32333 5.90337 6.246Z" stroke="#087C7C" stroke-linecap="round" stroke-linejoin="bevel"/>
</g>
<defs>
<clipPath id="clip0_409_170">
<rect width="24" height="24" fill="white" transform="translate(0.748291)"/>
</clipPath>
</defs>
</svg>
