<svg width="23" height="23" viewBox="0 0 23 23" fill="none" xmlns="http://www.w3.org/2000/svg">
<g clip-path="url(#clip0_399_220)">
<path d="M11.6063 20.3317C11.4581 20.2102 11.3216 20.0752 11.1984 19.9284C10.1213 18.3856 9.0369 16.8484 7.99006 15.2855C7.1046 14.0063 6.38449 12.6203 5.84689 11.1605C5.50665 10.2479 5.33273 9.28173 5.3335 8.3078C5.36523 6.7571 5.95755 5.27037 7.00089 4.12271C8.04423 2.97506 9.46795 2.24416 11.0086 2.06525C12.5493 1.88633 14.1027 2.27152 15.3812 3.14954C16.6598 4.02755 17.577 5.339 17.9633 6.84116C18.284 8.16528 18.2134 9.554 17.7599 10.8387C17.2877 12.2593 16.6233 13.6086 15.7853 14.8491C14.8292 16.3011 13.8237 17.7201 12.8392 19.1575C12.6604 19.4178 12.4927 19.6864 12.2992 19.9348C12.1725 20.0786 12.0359 20.2134 11.8904 20.3382L11.6063 20.3317ZM11.7438 18.8311C11.775 18.7954 11.7915 18.7789 11.8052 18.7597C12.7897 17.3333 13.7943 15.9179 14.7532 14.4769C15.5842 13.2674 16.2473 11.9507 16.724 10.5628C17.1062 9.52039 17.1927 8.39263 16.9742 7.30408C16.8078 6.51844 16.4663 5.78043 15.9752 5.14507C15.4841 4.5097 14.8559 3.99332 14.1375 3.63439C13.4191 3.27546 12.629 3.08322 11.826 3.07199C11.023 3.06077 10.2279 3.23084 9.49979 3.56955C8.45142 4.06331 7.58982 4.88141 7.0424 5.90278C6.49498 6.92416 6.29078 8.09458 6.46009 9.24097C6.62621 10.2227 6.93503 11.1748 7.37675 12.0671C8.11299 13.5378 8.96969 14.9451 9.93798 16.2745C10.5338 17.1234 11.1351 17.9676 11.7438 18.8311Z" fill="#30469A"/>
<path d="M11.7659 5.09212C12.451 5.08977 13.1213 5.29097 13.6919 5.67024C14.2624 6.04951 14.7074 6.58977 14.9704 7.22238C15.2334 7.85499 15.3026 8.55147 15.1692 9.22345C15.0357 9.89542 14.7055 10.5126 14.2207 10.9966C13.7359 11.4807 13.1182 11.8098 12.446 11.9422C11.7738 12.0746 11.0775 12.0044 10.4453 11.7404C9.81308 11.4763 9.27351 11.0305 8.89515 10.4593C8.5168 9.88815 8.31667 9.21746 8.32011 8.53236C8.32254 7.61975 8.6865 6.74529 9.33234 6.10049C9.97818 5.45568 10.8533 5.09309 11.7659 5.09212ZM11.7493 6.24439C11.2927 6.2404 10.8453 6.37209 10.4636 6.62277C10.082 6.87345 9.78331 7.23178 9.60559 7.6524C9.42787 8.07302 9.37898 8.53698 9.46527 8.98538C9.55157 9.43378 9.76908 9.84643 10.0902 10.1711C10.4114 10.4957 10.8217 10.7176 11.2692 10.8088C11.7166 10.8999 12.181 10.8561 12.6036 10.6829C13.0261 10.5097 13.3876 10.215 13.6424 9.83603C13.8972 9.45709 14.0337 9.01098 14.0346 8.55435C14.0363 7.9453 13.7968 7.36036 13.3684 6.92747C12.94 6.49458 12.3584 6.24899 11.7493 6.24439Z" fill="#30469A"/>
</g>
<defs>
<clipPath id="clip0_399_220">
<rect width="22" height="22" fill="white" transform="translate(0.748291 0.165039)"/>
</clipPath>
</defs>
</svg>
