<svg width="21" height="21" viewBox="0 0 21 21" fill="none" xmlns="http://www.w3.org/2000/svg">
<path d="M18.5352 9.48417H17.3769C17.2255 7.90881 16.5306 6.43521 15.4116 5.31613C14.2925 4.19705 12.8189 3.50223 11.2435 3.35084V2.1925C11.2435 2.02674 11.1777 1.86777 11.0605 1.75056C10.9433 1.63335 10.7843 1.5675 10.6185 1.5675C10.4528 1.5675 10.2938 1.63335 10.1766 1.75056C10.0594 1.86777 9.99353 2.02674 9.99353 2.1925V3.35084C8.42506 3.5098 6.96037 4.20814 5.84942 5.32669C4.73847 6.44524 4.05013 7.91466 3.90186 9.48417H2.74353C2.66145 9.48417 2.58018 9.50034 2.50435 9.53175C2.42852 9.56316 2.35963 9.60919 2.30159 9.66723C2.24355 9.72527 2.19751 9.79417 2.16611 9.86999C2.1347 9.94582 2.11853 10.0271 2.11853 10.1092C2.11853 10.1912 2.1347 10.2725 2.16611 10.3483C2.19751 10.4242 2.24355 10.4931 2.30159 10.5511C2.35963 10.6091 2.42852 10.6552 2.50435 10.6866C2.58018 10.718 2.66145 10.7342 2.74353 10.7342H3.90186C4.05326 12.3095 4.74808 13.7831 5.86716 14.9022C6.98624 16.0213 8.45984 16.7161 10.0352 16.8675V18.0258C10.0352 18.1916 10.101 18.3506 10.2183 18.4678C10.3355 18.585 10.4944 18.6508 10.6602 18.6508C10.826 18.6508 10.9849 18.585 11.1021 18.4678C11.2193 18.3506 11.2852 18.1916 11.2852 18.0258V16.8675C12.86 16.7146 14.3327 16.0192 15.4515 14.9005C16.5703 13.7817 17.2656 12.309 17.4185 10.7342H18.5769C18.6589 10.7342 18.7402 10.718 18.816 10.6866C18.8919 10.6552 18.9608 10.6091 19.0188 10.5511C19.0768 10.4931 19.1229 10.4242 19.1543 10.3483C19.1857 10.2725 19.2019 10.1912 19.2019 10.1092C19.2019 10.0271 19.1857 9.94582 19.1543 9.86999C19.1229 9.79417 19.0768 9.72527 19.0188 9.66723C18.9608 9.60919 18.8919 9.56316 18.816 9.53175C18.7402 9.50034 18.6589 9.48417 18.5769 9.48417H18.5352ZM10.6185 15.6425C9.52414 15.6425 8.45433 15.318 7.54438 14.71C6.63442 14.102 5.9252 13.2378 5.5064 12.2267C5.08759 11.2156 4.97801 10.103 5.19152 9.02967C5.40502 7.95631 5.93202 6.97036 6.70587 6.19651C7.47972 5.42266 8.46567 4.89566 9.53903 4.68216C10.6124 4.46865 11.725 4.57823 12.736 4.99704C13.7471 5.41584 14.6113 6.12506 15.2193 7.03502C15.8273 7.94497 16.1519 9.01478 16.1519 10.1092C16.1519 11.5775 15.5692 12.9858 14.5317 14.0248C13.4942 15.0638 12.0868 15.6486 10.6185 15.6508V15.6425Z" fill="#398BCB"/>
<path d="M14.3935 10.1174C14.3934 10.8661 14.1713 11.5979 13.7553 12.2202C13.3392 12.8426 12.7478 13.3275 12.056 13.6136C11.3642 13.8997 10.6031 13.9741 9.86896 13.8275C9.13483 13.6808 8.46072 13.3197 7.93195 12.7897C7.40317 12.2598 7.0435 11.5849 6.89847 10.8504C6.75343 10.116 6.82954 9.35501 7.11717 8.66385C7.4048 7.97268 7.89102 7.38238 8.51428 6.96767C9.13754 6.55295 9.86983 6.33247 10.6185 6.33412C11.1149 6.33411 11.6065 6.43203 12.065 6.62227C12.5236 6.8125 12.9401 7.09131 13.2907 7.44273C13.6414 7.79416 13.9193 8.21129 14.1085 8.67026C14.2977 9.12923 14.3945 9.62101 14.3935 10.1174Z" fill="#398BCB"/>
</svg>
