<svg width="324" height="18" viewBox="0 0 324 18" fill="none" xmlns="http://www.w3.org/2000/svg">
<path d="M160.849 13.9111C160.017 13.9111 159.285 13.7161 158.652 13.3261C158.019 12.9275 157.525 12.3771 157.17 11.6751C156.815 10.9645 156.637 10.1411 156.637 9.20513C156.637 8.27779 156.815 7.46313 157.17 6.76113C157.525 6.05046 158.019 5.49579 158.652 5.09713C159.285 4.69846 160.017 4.49913 160.849 4.49913C161.698 4.49913 162.439 4.69846 163.072 5.09713C163.705 5.49579 164.194 6.05046 164.541 6.76113C164.888 7.46313 165.061 8.27779 165.061 9.20513C165.061 10.1411 164.888 10.9645 164.541 11.6751C164.194 12.3771 163.705 12.9275 163.072 13.3261C162.439 13.7161 161.698 13.9111 160.849 13.9111ZM160.849 12.9491C161.473 12.9491 162.015 12.8018 162.474 12.5071C162.942 12.2038 163.302 11.7748 163.553 11.2201C163.813 10.6568 163.943 9.98513 163.943 9.20513C163.943 8.42513 163.813 7.75779 163.553 7.20313C163.302 6.63979 162.942 6.21079 162.474 5.91613C162.015 5.62146 161.473 5.47413 160.849 5.47413C160.234 5.47413 159.692 5.62146 159.224 5.91613C158.765 6.21079 158.405 6.63979 158.145 7.20313C157.885 7.75779 157.755 8.42513 157.755 9.20513C157.755 9.98513 157.885 10.6568 158.145 11.2201C158.405 11.7748 158.765 12.2038 159.224 12.5071C159.692 12.8018 160.234 12.9491 160.849 12.9491ZM166.609 13.7551V7.15113H167.597L167.675 8.39913C167.823 8.09579 168.013 7.84013 168.247 7.63213C168.49 7.42413 168.776 7.26813 169.105 7.16413C169.435 7.05146 169.807 6.99513 170.223 6.99513V8.13913H169.781C169.504 8.13913 169.24 8.17813 168.988 8.25613C168.737 8.32546 168.512 8.44246 168.312 8.60713C168.122 8.76313 167.97 8.97979 167.857 9.25713C167.753 9.53446 167.701 9.88113 167.701 10.2971V13.7551H166.609Z" fill="#212121" fill-opacity="0.6"/>
<line x1="183.801" y1="8.75513" x2="324" y2="8.75513" stroke="black" stroke-opacity="0.1"/>
<line y1="8.75513" x2="140.199" y2="8.75513" stroke="black" stroke-opacity="0.1"/>
</svg>
