<svg width="16" height="16" viewBox="0 0 16 16" fill="none" xmlns="http://www.w3.org/2000/svg">
<path d="M15 5V3.5C15 3.10218 14.842 2.72064 14.5607 2.43934C14.2794 2.15804 13.8978 2 13.5 2H11.5V1.5C11.5 1.36739 11.4473 1.24021 11.3536 1.14645C11.2598 1.05268 11.1326 1 11 1C10.8674 1 10.7402 1.05268 10.6464 1.14645C10.5527 1.24021 10.5 1.36739 10.5 1.5V2H5.5V1.5C5.5 1.36739 5.44732 1.24021 5.35355 1.14645C5.25979 1.05268 5.13261 1 5 1C4.86739 1 4.74021 1.05268 4.64645 1.14645C4.55268 1.24021 4.5 1.36739 4.5 1.5V2H2.5C2.10218 2 1.72064 2.15804 1.43934 2.43934C1.15804 2.72064 1 3.10218 1 3.5V5H15Z" fill="#7166F0"/>
<path d="M1 6V13.5C1 13.8978 1.15804 14.2794 1.43934 14.5607C1.72064 14.842 2.10218 15 2.5 15H13.5C13.8978 15 14.2794 14.842 14.5607 14.5607C14.842 14.2794 15 13.8978 15 13.5V6H1ZM10.825 8.8795L7.325 11.8795C7.22933 11.9613 7.10633 12.004 6.98056 11.9991C6.85479 11.9942 6.7355 11.942 6.6465 11.853L5.1465 10.353C5.05542 10.2587 5.00502 10.1324 5.00616 10.0013C5.0073 9.8702 5.05989 9.7448 5.15259 9.65209C5.24529 9.55939 5.3707 9.5068 5.5018 9.50566C5.6329 9.50452 5.7592 9.55492 5.8535 9.646L7.0265 10.819L10.1765 8.119C10.2261 8.07432 10.2841 8.04001 10.3471 8.0181C10.4102 7.99619 10.477 7.98713 10.5436 7.99145C10.6102 7.99576 10.6752 8.01336 10.7349 8.04322C10.7946 8.07308 10.8477 8.11458 10.8911 8.16529C10.9345 8.216 10.9673 8.27488 10.9876 8.33847C11.0079 8.40205 11.0152 8.46906 11.0092 8.53553C11.0032 8.60199 10.9839 8.66659 10.9525 8.72549C10.9212 8.78439 10.8783 8.83642 10.8265 8.8785L10.825 8.8795Z" fill="#7166F0"/>
</svg>
