<svg width="14" height="14" viewBox="0 0 14 14" fill="none" xmlns="http://www.w3.org/2000/svg">
<g clip-path="url(#clip0_127_174667)">
<path d="M12.6875 2.38656V3.77344H0.4375V2.38656C0.4375 1.88344 0.844375 1.47656 1.3475 1.47656H11.7775C12.2806 1.47656 12.6875 1.88344 12.6875 2.38656Z" fill="#7166F0"/>
<path d="M6.01562 6.17969H7.10938V7.27344H6.01562V6.17969Z" fill="#7166F0"/>
<path d="M2.51562 6.17969V7.27344H3.60938V6.17969H2.51562ZM2.51562 6.17969V7.27344H3.60938V6.17969H2.51562ZM0.4375 4.42969V11.9416C0.4375 12.4447 0.844375 12.8516 1.3475 12.8516H8.16813C7.84438 12.3484 7.65625 11.7447 7.65625 11.1016C7.65625 9.29031 9.12625 7.82031 10.9375 7.82031C11.5806 7.82031 12.1844 8.00844 12.6875 8.33219V4.42969H0.4375ZM4.26562 11.1016C4.26562 11.2809 4.11687 11.4297 3.9375 11.4297H2.1875C2.00812 11.4297 1.85938 11.2809 1.85938 11.1016V9.35156C1.85938 9.17219 2.00812 9.02344 2.1875 9.02344H3.9375C4.11687 9.02344 4.26562 9.17219 4.26562 9.35156V11.1016ZM4.26562 7.60156C4.26562 7.78094 4.11687 7.92969 3.9375 7.92969H2.1875C2.00812 7.92969 1.85938 7.78094 1.85938 7.60156V5.85156C1.85938 5.67219 2.00812 5.52344 2.1875 5.52344H3.9375C4.11687 5.52344 4.26562 5.67219 4.26562 5.85156V7.60156ZM7.76562 7.60156C7.76562 7.78094 7.61688 7.92969 7.4375 7.92969H5.6875C5.50812 7.92969 5.35938 7.78094 5.35938 7.60156V5.85156C5.35938 5.67219 5.50812 5.52344 5.6875 5.52344H7.4375C7.61688 5.52344 7.76562 5.67219 7.76562 5.85156V7.60156ZM2.51562 10.7734H3.60938V9.67969H2.51562V10.7734ZM2.51562 7.27344H3.60938V6.17969H2.51562V7.27344Z" fill="#7166F0"/>
<path d="M6.5625 2.67969C6.38133 2.67969 6.23438 2.53273 6.23438 2.35156V0.601562C6.23438 0.420394 6.38133 0.273438 6.5625 0.273438C6.74367 0.273438 6.89062 0.420394 6.89062 0.601562V2.35156C6.89062 2.53273 6.74367 2.67969 6.5625 2.67969Z" fill="#7166F0"/>
<path d="M2.1875 2.67969C2.00633 2.67969 1.85938 2.53273 1.85938 2.35156V0.601562C1.85938 0.420394 2.00633 0.273438 2.1875 0.273438C2.36867 0.273438 2.51562 0.420394 2.51562 0.601562V2.35156C2.51562 2.53273 2.36867 2.67969 2.1875 2.67969Z" fill="#7166F0"/>
<path d="M10.9375 2.67969C10.7563 2.67969 10.6094 2.53273 10.6094 2.35156V0.601562C10.6094 0.420394 10.7563 0.273438 10.9375 0.273438C11.1187 0.273438 11.2656 0.420394 11.2656 0.601562V2.35156C11.2656 2.53273 11.1187 2.67969 10.9375 2.67969Z" fill="#7166F0"/>
<path d="M10.9375 8.47656C9.48937 8.47656 8.3125 9.65344 8.3125 11.1016C8.3125 12.5497 9.48937 13.7266 10.9375 13.7266C12.3856 13.7266 13.5625 12.5497 13.5625 11.1016C13.5625 9.65344 12.3856 8.47656 10.9375 8.47656ZM11.8125 11.4297H10.9375C10.7581 11.4297 10.6094 11.2809 10.6094 11.1016V9.78906C10.6094 9.60969 10.7581 9.46094 10.9375 9.46094C11.1169 9.46094 11.2656 9.60969 11.2656 9.78906V10.7734H11.8125C11.9919 10.7734 12.1406 10.9222 12.1406 11.1016C12.1406 11.2809 11.9919 11.4297 11.8125 11.4297Z" fill="#7166F0"/>
</g>
<defs>
<clipPath id="clip0_127_174667">
<rect width="14" height="14" fill="white"/>
</clipPath>
</defs>
</svg>
