<svg width="24" height="24" viewBox="0 0 24 24" fill="none" xmlns="http://www.w3.org/2000/svg">
<g clip-path="url(#clip0_254_111138)">
<path d="M4.40625 6.75H5.34375V7.6875C5.34375 8.07581 5.65856 8.39062 6.04688 8.39062C6.43519 8.39062 6.75 8.07581 6.75 7.6875V6.75H7.6875C8.07581 6.75 8.39062 6.43519 8.39062 6.04688C8.39062 5.65856 8.07581 5.34375 7.6875 5.34375H6.75V4.40625C6.75 4.01794 6.43519 3.70312 6.04688 3.70312C5.65856 3.70312 5.34375 4.01794 5.34375 4.40625V5.34375H4.40625C4.01794 5.34375 3.70312 5.65856 3.70312 6.04688C3.70312 6.43519 4.01794 6.75 4.40625 6.75Z" fill="#7166F0"/>
<path d="M15.3281 6.75H18.1406C18.5289 6.75 18.8438 6.43519 18.8438 6.04688C18.8438 5.65856 18.5289 5.34375 18.1406 5.34375H15.3281C14.9398 5.34375 14.625 5.65856 14.625 6.04688C14.625 6.43519 14.9398 6.75 15.3281 6.75Z" fill="#7166F0"/>
<path d="M18.375 17.2031H15.0938C14.7054 17.2031 14.3906 17.5179 14.3906 17.9062C14.3906 18.2946 14.7054 18.6094 15.0938 18.6094H18.375C18.7633 18.6094 19.0781 18.2946 19.0781 17.9062C19.0781 17.5179 18.7633 17.2031 18.375 17.2031Z" fill="#7166F0"/>
<path d="M18.375 14.8594H15.0938C14.7054 14.8594 14.3906 15.1742 14.3906 15.5625C14.3906 15.9508 14.7054 16.2656 15.0938 16.2656H18.375C18.7633 16.2656 19.0781 15.9508 19.0781 15.5625C19.0781 15.1742 18.7633 14.8594 18.375 14.8594Z" fill="#7166F0"/>
<path d="M7.71593 15.0654C7.44138 14.7908 6.99616 14.7908 6.72157 15.0654L6.0469 15.74L5.37218 15.0653C5.09763 14.7907 4.65241 14.7907 4.37782 15.0653C4.10323 15.3399 4.10323 15.7851 4.37782 16.0597L5.05254 16.7344L4.37782 17.4091C4.10323 17.6837 4.10323 18.1289 4.37782 18.4035C4.51512 18.5408 4.69507 18.6094 4.87502 18.6094C5.05498 18.6094 5.23493 18.5408 5.37218 18.4034L6.0469 17.7288L6.72162 18.4035C6.85887 18.5408 7.03882 18.6094 7.21877 18.6094C7.39873 18.6094 7.57868 18.5408 7.71593 18.4034C7.99052 18.1288 7.99052 17.6837 7.71593 17.4091L7.04126 16.7344L7.71598 16.0597C7.99057 15.7851 7.99057 15.3399 7.71593 15.0654Z" fill="#7166F0"/>
<path d="M22.7812 12.711V2.10938C22.7812 0.946266 21.835 0 20.6719 0H2.10938C0.946266 0 0 0.946266 0 2.10938V20.6719C0 21.835 0.946266 22.7812 2.10938 22.7812H12.711C13.8637 23.5508 15.2475 24 16.7344 24C20.7407 24 24 20.7406 24 16.7344C24 15.2475 23.5508 13.8637 22.7812 12.711ZM21.375 2.10938V11.1483C20.1154 10.1001 18.4973 9.46875 16.7344 9.46875C14.9715 9.46875 13.3533 10.1001 12.0938 11.1483V1.40625H20.6719C21.0596 1.40625 21.375 1.72167 21.375 2.10938ZM2.10938 1.40625H10.6875V10.6875H1.40625V2.10938C1.40625 1.72167 1.72167 1.40625 2.10938 1.40625ZM1.40625 20.6719V12.0938H10.6875V12.711C9.918 13.8637 9.46875 15.2475 9.46875 16.7344C9.46875 18.4973 10.1001 20.1154 11.1483 21.375H2.10938C1.72167 21.375 1.40625 21.0596 1.40625 20.6719ZM16.7344 22.5938C13.5035 22.5938 10.875 19.9652 10.875 16.7344C10.875 13.5035 13.5035 10.875 16.7344 10.875C19.9652 10.875 22.5938 13.5035 22.5938 16.7344C22.5938 19.9652 19.9652 22.5938 16.7344 22.5938Z" fill="#7166F0"/>
</g>
<defs>
<clipPath id="clip0_254_111138">
<rect width="24" height="24" fill="white"/>
</clipPath>
</defs>
</svg>
