<svg width="14" height="14" viewBox="0 0 14 14" fill="none" xmlns="http://www.w3.org/2000/svg">
<path d="M8.67161 2.67583C9.32626 2.80331 9.9279 3.12286 10.3995 3.59359C10.8712 4.06432 11.1913 4.66481 11.319 5.3182L8.67161 2.67583ZM8.67161 0C10.0317 0.150807 11.3 0.758713 12.2683 1.72391C13.2365 2.6891 13.8472 3.95421 14 5.31151L8.67161 0ZM13.3298 10.6498V12.6567C13.3305 12.843 13.2923 13.0274 13.2175 13.1981C13.1427 13.3688 13.033 13.522 12.8955 13.648C12.758 13.7739 12.5956 13.8698 12.4187 13.9295C12.2419 13.9892 12.0546 14.0113 11.8686 13.9946C9.80621 13.7709 7.8251 13.0675 6.08449 11.9409C4.46509 10.9138 3.09211 9.54345 2.06307 7.92713C0.930353 6.18196 0.225441 4.19502 0.00544012 2.12728C-0.0113088 1.94229 0.0107182 1.75585 0.0701183 1.57982C0.129518 1.4038 0.22499 1.24204 0.350456 1.10486C0.475921 0.967681 0.62863 0.858077 0.798861 0.783028C0.969092 0.70798 1.15312 0.669131 1.33921 0.668956H3.34993C3.6752 0.665761 3.99053 0.780725 4.23716 0.992419C4.48379 1.20411 4.64488 1.49809 4.6904 1.81956C4.77527 2.4618 4.93266 3.0924 5.15957 3.69933C5.24974 3.93876 5.26926 4.19898 5.2158 4.44915C5.16235 4.69932 5.03816 4.92895 4.85796 5.11083L4.00676 5.9604C4.96088 7.63516 6.35021 9.02184 8.02818 9.97414L8.87938 9.12457C9.06162 8.94471 9.29168 8.82076 9.54233 8.7674C9.79298 8.71405 10.0537 8.73353 10.2936 8.82353C10.9017 9.05001 11.5335 9.2071 12.177 9.29181C12.5025 9.33765 12.7999 9.50133 13.0124 9.75171C13.225 10.0021 13.3379 10.3217 13.3298 10.6498Z" fill="white"/>
</svg>
