<svg width="18" height="18" viewBox="0 0 18 18" fill="none" xmlns="http://www.w3.org/2000/svg">
<path d="M10.6491 8.85447L17.6579 1.95871C18.114 1.51017 18.114 0.784945 17.6579 0.336405C17.202 -0.112135 16.4649 -0.112135 16.0089 0.336405L8.99989 7.23216L1.99106 0.336405C1.53493 -0.112135 0.798002 -0.112135 0.342092 0.336405C-0.114031 0.784945 -0.114031 1.51017 0.342092 1.95871L7.35093 8.85447L0.342092 15.7502C-0.114031 16.1988 -0.114031 16.924 0.342092 17.3725C0.5693 17.5963 0.868044 17.7087 1.16657 17.7087C1.4651 17.7087 1.76363 17.5963 1.99106 17.3725L8.99989 10.4768L16.0089 17.3725C16.2364 17.5963 16.5349 17.7087 16.8334 17.7087C17.132 17.7087 17.4305 17.5963 17.6579 17.3725C18.114 16.924 18.114 16.1988 17.6579 15.7502L10.6491 8.85447Z" fill="#EF262C"/>
</svg>
