<svg width="42" height="42" viewBox="0 0 42 42" fill="none" xmlns="http://www.w3.org/2000/svg">
<path d="M41.3281 40.6804H37.4818V34.9685C37.4818 34.6107 37.1921 34.3207 36.834 34.3207C36.4759 34.3207 36.1862 34.6107 36.1862 34.9685V40.6804H32.0691V14.888C32.0691 14.5303 31.7794 14.2402 31.4213 14.2402H30.313V9.66863C30.313 9.31088 30.0233 9.02083 29.6652 9.02083H28.7663V5.73218C28.7663 5.37444 28.4765 5.08439 28.1185 5.08439H24.2462V1.1647C24.2462 0.806958 23.9565 0.516907 23.5984 0.516907C23.2404 0.516907 22.9506 0.806958 22.9506 1.1647V5.08439H19.079C18.721 5.08439 18.4312 5.37444 18.4312 5.73218V9.02083H17.5323C17.1742 9.02083 16.8845 9.31088 16.8845 9.66863V14.2402H15.7761C15.4181 14.2402 15.1283 14.5303 15.1283 14.888V20.92H11.0714C10.7133 20.92 10.4236 21.21 10.4236 21.5678V40.6804H6.30654V34.9685C6.30654 34.6107 6.0168 34.3207 5.65874 34.3207C5.30068 34.3207 5.01094 34.6107 5.01094 34.9685V40.6804H1.16464C0.806586 40.6804 0.516846 40.9704 0.516846 41.3282C0.516846 41.6859 0.806586 41.976 1.16464 41.976H41.3281C41.6861 41.976 41.9759 41.6859 41.9759 41.3282C41.9759 40.9704 41.6861 40.6804 41.3281 40.6804ZM29.0174 14.2402H26.8773V10.3164C26.9935 10.3164 29.11 10.3164 29.0174 10.3164V14.2402ZM25.5817 14.2402H21.6145V10.3164H25.5817V14.2402ZM19.7268 6.37998H27.4707V9.02083C24.1289 9.02083 23.19 9.02083 19.7268 9.02083V6.37998ZM18.1801 10.3164C18.4259 10.3164 20.3855 10.3164 20.319 10.3164V14.2402H18.1801V10.3164ZM11.7192 22.2156H18.7267V40.6804H11.7192V22.2156ZM20.0223 40.6804V21.5678C20.0223 21.21 19.7325 20.92 19.3745 20.92H16.4239V15.5358C17.4274 15.5358 30.862 15.5358 30.7735 15.5358V40.6804H20.0223Z" fill="#7E8BA0"/>
<path d="M16.7149 25.8601H13.7308C13.3727 25.8601 13.083 26.1502 13.083 26.5079C13.083 26.8657 13.3727 27.1557 13.7308 27.1557H16.7149C17.0729 27.1557 17.3627 26.8657 17.3627 26.5079C17.3627 26.1502 17.0729 25.8601 16.7149 25.8601Z" fill="#7E8BA0"/>
<path d="M16.7149 30.8002H13.7308C13.3727 30.8002 13.083 31.0903 13.083 31.448C13.083 31.8058 13.3727 32.0958 13.7308 32.0958H16.7149C17.0729 32.0958 17.3627 31.8058 17.3627 31.448C17.3627 31.0903 17.0729 30.8002 16.7149 30.8002Z" fill="#7E8BA0"/>
<path d="M16.7149 35.7403H13.7308C13.3727 35.7403 13.083 36.0303 13.083 36.3881C13.083 36.7458 13.3727 37.0359 13.7308 37.0359H16.7149C17.0729 37.0359 17.3627 36.7458 17.3627 36.3881C17.3627 36.0303 17.0729 35.7403 16.7149 35.7403Z" fill="#7E8BA0"/>
</svg>
