<svg width="41" height="40" viewBox="0 0 41 40" fill="none" xmlns="http://www.w3.org/2000/svg">
<path d="M11.0637 1.41821H29.8691V4.99192H11.0637V1.41821Z" fill="#DAE8F0"/>
<path d="M39.4584 38.0178H33.5212V34.0746H34.9948C35.3377 34.0746 35.6152 33.7968 35.6152 33.4542V9.50533H37.2439C37.5868 9.50533 37.8643 9.22753 37.8643 8.88489V4.99172C37.8643 4.64909 37.5868 4.37129 37.2439 4.37129H30.49V1.41816C30.49 1.07553 30.2125 0.797729 29.8695 0.797729H11.0644C10.7215 0.797729 10.444 1.07553 10.444 1.41816V4.37129H3.69067C3.34773 4.37129 3.07023 4.6491 3.07023 4.99173V8.8849C3.07023 9.22754 3.34773 9.50534 3.69067 9.50534H5.31931V38.0178H0.991407C0.648474 38.0178 0.370972 38.2956 0.370972 38.6382C0.370972 38.9809 0.648474 39.2587 0.991407 39.2587C16.8924 39.2626 20.1329 39.2613 39.4584 39.2587C39.8013 39.2587 40.0788 38.9809 40.0788 38.6382C40.0788 38.2956 39.8013 38.0178 39.4584 38.0178ZM32.2804 38.0178H26.6189V34.0746H32.2804V38.0178ZM19.4154 38.0178H12.5222V33.3364C12.5222 31.4341 14.0672 29.8867 15.9661 29.8867C17.8482 29.8867 19.4154 31.3987 19.4154 33.3364V38.0178ZM34.3743 32.8338C31.619 32.8338 31.3718 32.8338 26.6189 32.8338V9.50533H34.3743V32.8338ZM11.6848 2.0386H29.2491V4.37129H11.6848V2.0386ZM4.3111 5.61216H36.6234V8.26446C21.548 8.26446 19.0383 8.26446 4.3111 8.26446V5.61216ZM6.56018 9.50534H25.378V38.0178H20.6563V33.3364C20.6563 30.7163 18.5377 28.6458 15.9661 28.6458C13.3832 28.6458 11.2813 30.7501 11.2813 33.3364V38.0178H6.56018V9.50534Z" fill="#7E8BA0"/>
</svg>
