<svg width="40" height="42" viewBox="0 0 40 42" fill="none" xmlns="http://www.w3.org/2000/svg">
<path d="M8.18523 17.9052L4.94078 25.5223H1.00793L4.25236 17.9052H8.18523Z" fill="#DAE8F0"/>
<path d="M32.1184 17.905L35.3629 25.5221H39.2957L36.0513 17.905H32.1184Z" fill="#DAE8F0"/>
<path d="M5.38806 30.4269H10.0884V36.2433H5.38806V30.4269Z" fill="#DAE8F0"/>
<path d="M30.2144 30.4269H34.9147V36.2433H30.2144V30.4269Z" fill="#DAE8F0"/>
<path d="M20.1505 10.5313L28.1695 15.6226V9.96169L20.1505 4.98096L12.1316 9.96169V15.6226L20.1505 10.5313Z" fill="#DAE8F0"/>
<path d="M39.2931 40.4635H38.1054V26.1584H39.2956C39.5097 26.1584 39.7095 26.051 39.8272 25.8724C39.9455 25.694 39.966 25.4681 39.882 25.2714L36.6401 17.6576C36.5399 17.4223 36.3096 17.2698 36.0538 17.2698H28.2996V16.2447C28.6134 16.1796 28.8075 15.9096 28.8075 15.6227V9.96159C28.8075 9.74124 28.6936 9.53644 28.5062 9.42004L20.7882 4.62643V1.5812C20.7882 1.22919 20.5031 0.943787 20.1508 0.943787C19.7984 0.943787 19.5133 1.22919 19.5133 1.5812V4.62643L11.7959 9.42004C11.6085 9.53644 11.4946 9.74124 11.4946 9.96159V15.6227C11.4946 15.8552 11.621 16.0693 11.8251 16.1814C11.8811 16.2121 11.9406 16.231 12.0013 16.2438V17.2698H4.25273C3.99689 17.2698 3.76656 17.4223 3.66636 17.6576L0.424508 25.2714C0.340459 25.4681 0.361015 25.694 0.479288 25.8724C0.596935 26.051 0.796752 26.1584 1.01088 26.1584H2.20167V40.4635H1.00839C0.656068 40.4635 0.370972 40.7489 0.370972 41.1009C0.370972 41.4529 0.656068 41.7383 1.00839 41.7383H39.2931C39.6454 41.7383 39.9305 41.4529 39.9305 41.1009C39.9305 40.7489 39.6454 40.4635 39.2931 40.4635ZM12.0007 40.4629H3.4765V26.2079H12.0007V40.4629ZM20.1508 11.2862L27.0247 15.6506V40.4629H24.368V32.023C24.368 31.671 24.0829 31.3856 23.7306 31.3856H16.5697C16.2173 31.3856 15.9322 31.671 15.9322 32.023V40.4629H13.2755C13.2755 0.570914 13.2752 39.0542 13.2761 15.6514L20.1508 11.2862ZM28.2996 26.2079H36.8306V40.4629H28.2996V26.2079ZM20.7875 32.6605H23.0932V40.4629H20.7875V32.6605ZM19.5127 40.4629H17.2071V32.6605H19.5127V40.4629ZM38.3314 24.8836H28.2996V18.5446H35.6323L38.3314 24.8836ZM12.7694 10.3161L20.1508 5.73124L27.5327 10.3161V14.463L20.4925 9.99302C20.3879 9.92673 20.2696 9.89373 20.1508 9.89373C20.0319 9.89373 19.9136 9.92673 19.809 9.99302L12.7694 14.463V10.3161ZM4.67415 18.5446H12.0007V24.8836H1.97509L4.67415 18.5446Z" fill="#7E8BA0"/>
<path d="M5.38876 36.8809H10.0891C10.4414 36.8809 10.7265 36.5954 10.7265 36.2434V30.427C10.7265 30.075 10.4414 29.7896 10.0891 29.7896H5.38876C5.03644 29.7896 4.75134 30.075 4.75134 30.427V36.2434C4.75134 36.5954 5.03644 36.8809 5.38876 36.8809ZM6.02617 31.0644H9.45165V35.606H6.02617V31.0644Z" fill="#7E8BA0"/>
<path d="M34.9152 29.7896H30.2149C29.8626 29.7896 29.5775 30.075 29.5775 30.427V36.2434C29.5775 36.5954 29.8626 36.8809 30.2149 36.8809H34.9152C35.2676 36.8809 35.5527 36.5954 35.5527 36.2434V30.427C35.5527 30.075 35.2676 29.7896 34.9152 29.7896ZM34.2778 35.606H30.8523V31.0644H34.2778V35.606Z" fill="#7E8BA0"/>
<path d="M23.6322 19.1732C23.6322 21.0904 22.0828 22.6453 20.1656 22.6453C18.2484 22.6453 16.6935 21.0904 16.6935 19.1732C16.6935 17.2559 18.2484 15.701 20.1656 15.701C22.0829 15.701 23.6322 17.2559 23.6322 19.1732Z" fill="#7166F0"/>
</svg>
