<svg width="43" height="41" viewBox="0 0 43 41" fill="none" xmlns="http://www.w3.org/2000/svg">
<path d="M10.8471 20.2081H6.78547C6.43147 20.2081 6.14502 20.4949 6.14502 20.8486C6.14502 21.2023 6.43147 21.489 6.78547 21.489H10.8471C11.2011 21.489 11.4875 21.2023 11.4875 20.8486C11.4875 20.4949 11.2011 20.2081 10.8471 20.2081Z" fill="#7E8BA0"/>
<path d="M10.8471 25.4425H6.78547C6.43147 25.4425 6.14502 25.7293 6.14502 26.083C6.14502 26.4366 6.43147 26.7234 6.78547 26.7234H10.8471C11.2011 26.7234 11.4875 26.4366 11.4875 26.083C11.4875 25.7293 11.2011 25.4425 10.8471 25.4425Z" fill="#7E8BA0"/>
<path d="M10.8471 30.6768H6.78547C6.43147 30.6768 6.14502 30.9635 6.14502 31.3172C6.14502 31.6709 6.43147 31.9577 6.78547 31.9577H10.8471C11.2011 31.9577 11.4875 31.6709 11.4875 31.3172C11.4875 30.9635 11.2011 30.6768 10.8471 30.6768Z" fill="#7E8BA0"/>
<path d="M10.8471 35.911H6.78547C6.43147 35.911 6.14502 36.1978 6.14502 36.5515C6.14502 36.9051 6.43147 37.1919 6.78547 37.1919H10.8471C11.2011 37.1919 11.4875 36.9051 11.4875 36.5515C11.4875 36.1978 11.2011 35.911 10.8471 35.911Z" fill="#7E8BA0"/>
<path d="M36.0007 35.4061H32.3913C32.0373 35.4061 31.7509 35.6928 31.7509 36.0465C31.7509 36.4002 32.0373 36.687 32.3913 36.687H36.0007C36.3547 36.687 36.6412 36.4002 36.6412 36.0465C36.6412 35.6928 36.3547 35.4061 36.0007 35.4061Z" fill="#7E8BA0"/>
<path d="M36.0007 30.0188H32.3913C32.0373 30.0188 31.7509 30.3056 31.7509 30.6592C31.7509 31.0129 32.0373 31.2997 32.3913 31.2997H36.0007C36.3547 31.2997 36.6412 31.0129 36.6412 30.6592C36.6412 30.3056 36.3547 30.0188 36.0007 30.0188Z" fill="#7E8BA0"/>
<path d="M36.0007 24.6319H32.3913C32.0373 24.6319 31.7509 24.9187 31.7509 25.2723C31.7509 25.626 32.0373 25.9128 32.3913 25.9128H36.0007C36.3547 25.9128 36.6412 25.626 36.6412 25.2723C36.6412 24.9187 36.3547 24.6319 36.0007 24.6319Z" fill="#7E8BA0"/>
<path d="M42.0002 38.7978H40.0976V23.7528C40.0976 23.5192 39.9706 23.3044 39.7661 23.1918L34.9265 20.5285V11.6775C34.9265 11.3238 34.64 11.037 34.286 11.037H29.5752V9.60164C29.5752 9.24796 29.2888 8.96119 28.9348 8.96119H28.1367V5.13695C28.1367 4.78326 27.8503 4.4965 27.4963 4.4965H22.1463V1.01124C22.1463 0.65755 21.8598 0.370789 21.5058 0.370789C21.1518 0.370789 20.8654 0.65755 20.8654 1.01124V4.49649H15.5153C15.1614 4.49649 14.8749 4.78325 14.8749 5.13694V8.96119C14.6195 9.01212 13.437 8.71523 13.437 9.60164V17.3217H3.55508C3.20109 17.3217 2.91463 17.6085 2.91463 17.9622V38.7978H1.01142C0.657425 38.7978 0.370972 39.0845 0.370972 39.4382C0.370972 39.7919 0.657425 40.0787 1.01142 40.0787H42.0002C42.3542 40.0787 42.6406 39.7919 42.6406 39.4382C42.6406 39.0845 42.3542 38.7978 42.0002 38.7978ZM33.6456 12.3179V19.8236L29.5752 17.5836V12.3179H33.6456ZM16.1558 5.77739H26.8558V8.96119H16.1558V5.77739ZM4.19553 18.6026H13.437V38.7978H4.19553V18.6026ZM14.7179 10.2421H28.2943V38.7978H25.5774V27.3769C25.5774 27.0232 25.291 26.7365 24.937 26.7365H18.0759C17.7219 26.7365 17.4354 27.0232 17.4354 27.3769V38.7978H14.7179C14.7179 32.0482 14.7179 16.9504 14.7179 10.2421ZM18.7163 28.0174H20.866V38.7978H18.7163V28.0174ZM22.1469 38.7978V28.0174H24.2965V38.7978H22.1469ZM29.5752 38.7978V19.0458L38.8167 24.1315V38.7978H29.5752Z" fill="#7E8BA0"/>
</svg>
