<svg width="24" height="24" viewBox="0 0 24 24" fill="none" xmlns="http://www.w3.org/2000/svg">
<path fill-rule="evenodd" clip-rule="evenodd" d="M17.2929 4.29289C16.9024 4.68342 16.9024 5.31658 17.2929 5.70711L18.5858 7H13C10.7909 7 9 8.79086 9 11V12C9 12.5523 9.44772 13 10 13C10.5523 13 11 12.5523 11 12V11C11 9.89543 11.8954 9 13 9H18.5858L17.2929 10.2929C16.9024 10.6834 16.9024 11.3166 17.2929 11.7071C17.6834 12.0976 18.3166 12.0976 18.7071 11.7071L21.7071 8.70711C22.0976 8.31658 22.0976 7.68342 21.7071 7.29289L18.7071 4.29289C18.3166 3.90237 17.6834 3.90237 17.2929 4.29289ZM14 11C13.4477 11 13 11.4477 13 12V13C13 14.1046 12.1046 15 11 15H5.41421L6.70711 13.7071C7.09763 13.3166 7.09763 12.6834 6.70711 12.2929C6.31658 11.9024 5.68342 11.9024 5.29289 12.2929L2.29289 15.2929C1.90237 15.6834 1.90237 16.3166 2.29289 16.7071L5.29289 19.7071C5.68342 20.0976 6.31658 20.0976 6.70711 19.7071C7.09763 19.3166 7.09763 18.6834 6.70711 18.2929L5.41421 17H11C13.2091 17 15 15.2091 15 13V12C15 11.4477 14.5523 11 14 11Z" fill="#7166F0"/>
</svg>
