<svg width="28" height="27" viewBox="0 0 28 27" fill="none" xmlns="http://www.w3.org/2000/svg">
<path d="M20.1763 17.244C19.9893 15.9733 19.353 14.8118 18.3829 13.97C17.4128 13.1283 16.1732 12.6622 14.8888 12.6562H13.6918C12.4075 12.6622 11.1678 13.1283 10.1977 13.97C9.22759 14.8118 8.59132 15.9733 8.40432 17.244L7.83057 21.2557C7.81224 21.3854 7.82435 21.5176 7.86594 21.6418C7.90753 21.766 7.97746 21.8788 8.07019 21.9713C8.29519 22.1963 9.67557 23.3438 14.2914 23.3438C18.9073 23.3438 20.2843 22.2008 20.5127 21.9713C20.6054 21.8788 20.6754 21.766 20.7169 21.6418C20.7585 21.5176 20.7706 21.3854 20.7523 21.2557L20.1763 17.244Z" fill="#7166F0"/>
<path d="M9.295 13.2751C8.20772 14.2775 7.50028 15.6248 7.2925 17.0889L6.87625 19.9689C3.535 19.9464 2.5225 18.7314 2.35375 18.4839C2.28852 18.394 2.24197 18.2919 2.21685 18.1837C2.19173 18.0755 2.18855 17.9633 2.2075 17.8539L2.455 16.4589C2.58395 15.7298 2.88679 15.0426 3.33787 14.4555C3.78894 13.8684 4.37493 13.3987 5.04615 13.0863C5.71737 12.7739 6.45404 12.6279 7.19368 12.6608C7.93332 12.6937 8.65413 12.9044 9.295 13.2751Z" fill="#7166F0"/>
<path d="M26.3707 17.8539C26.3896 17.9633 26.3865 18.0755 26.3614 18.1837C26.3362 18.2919 26.2897 18.394 26.2245 18.4839C26.0557 18.7314 25.0432 19.9464 21.702 19.9689L21.2857 17.0889C21.0779 15.6248 20.3705 14.2775 19.2832 13.2751C19.9241 12.9044 20.6449 12.6937 21.3845 12.6608C22.1242 12.6279 22.8608 12.7739 23.532 13.0863C24.2033 13.3987 24.7893 13.8684 25.2403 14.4555C25.6914 15.0426 25.9943 15.7298 26.1232 16.4589L26.3707 17.8539Z" fill="#7166F0"/>
<path d="M9.48531 10.8C9.20213 11.2016 8.82618 11.529 8.38942 11.7542C7.95266 11.9794 7.46798 12.0959 6.97656 12.0938C6.48635 12.0938 6.00316 11.9773 5.5668 11.7539C5.13044 11.5305 4.75341 11.2066 4.46678 10.8089C4.18015 10.4113 3.99212 9.95117 3.9182 9.46656C3.84427 8.98196 3.88656 8.48673 4.04157 8.02167C4.19659 7.55662 4.4599 7.13506 4.80981 6.79173C5.15971 6.4484 5.58619 6.19314 6.05411 6.04697C6.52202 5.90081 7.01797 5.86793 7.50108 5.95104C7.9842 6.03415 8.44064 6.23087 8.83281 6.525C8.72002 6.96611 8.66332 7.41969 8.66406 7.875C8.66492 8.90679 8.94899 9.91855 9.48531 10.8Z" fill="#7166F0"/>
<path d="M24.6962 9C24.6965 9.40636 24.6167 9.80879 24.4614 10.1843C24.306 10.5598 24.0781 10.9009 23.7908 11.1883C23.5034 11.4756 23.1623 11.7035 22.7868 11.8589C22.4113 12.0142 22.0089 12.094 21.6025 12.0938C21.1111 12.0959 20.6264 11.9794 20.1896 11.7542C19.7529 11.529 19.3769 11.2016 19.0938 10.8C19.6301 9.91855 19.9141 8.90679 19.915 7.875C19.9157 7.4197 19.859 6.96611 19.7462 6.525C20.2059 6.18027 20.7524 5.97035 21.3247 5.91875C21.8969 5.86715 22.4722 5.97592 22.9861 6.23287C23.5 6.48981 23.9321 6.88478 24.2342 7.37352C24.5363 7.86226 24.6962 8.42546 24.6962 9Z" fill="#7166F0"/>
<path d="M14.2891 12.0938C16.619 12.0938 18.5078 10.205 18.5078 7.875C18.5078 5.54505 16.619 3.65625 14.2891 3.65625C11.9591 3.65625 10.0703 5.54505 10.0703 7.875C10.0703 10.205 11.9591 12.0938 14.2891 12.0938Z" fill="#7166F0"/>
</svg>
