<svg width="17" height="17" viewBox="0 0 17 17" fill="none" xmlns="http://www.w3.org/2000/svg">
<path d="M9.21258 4.98254C9.21258 6.17687 9.20926 7.37119 9.21391 8.56552C9.21723 9.41928 9.69987 9.9079 10.5483 9.90989C12.2512 9.91454 13.9547 9.91454 15.6576 9.90989C16.5007 9.9079 16.9966 9.40799 16.9979 8.56751C16.9999 6.16757 16.9999 3.76763 16.9979 1.36835C16.9973 0.508624 16.4961 0.00340804 15.6423 0.00274416C13.9613 0.000752505 12.2804 0.00141639 10.5994 0.00274416C9.69722 0.00340804 9.2159 0.488044 9.21391 1.40022C9.21059 2.59388 9.21258 3.78821 9.21258 4.98254ZM7.78722 12.0522C7.78722 10.8579 7.78921 9.66359 7.78656 8.46926C7.78456 7.57036 7.31122 7.09104 6.42028 7.08971C4.73933 7.08639 3.05837 7.08705 1.37742 7.08971C0.489805 7.09104 0.00251398 7.57965 0.0018501 8.46395C0.000522332 10.8526 0.000522332 13.2413 0.0018501 15.6299C0.00251398 16.4896 0.503747 16.9969 1.35551 16.9982C3.04775 17.0002 4.73933 17.0002 6.43157 16.9982C7.2913 16.9969 7.78257 16.5036 7.78589 15.6359C7.78988 14.4409 7.78722 13.2466 7.78722 12.0522ZM3.89022 5.66236C4.75261 5.66236 5.61499 5.66767 6.47738 5.66103C7.28665 5.65439 7.77925 5.16444 7.78523 4.35782C7.79253 3.34075 7.79253 2.32302 7.78523 1.30595C7.77925 0.505968 7.27337 0.00473581 6.47339 0.00274416C4.75924 -0.00123915 3.04576 -0.000575264 1.33161 0.00274416C0.519016 0.00407193 0.00516952 0.516591 0.00251398 1.32719C-0.00146932 2.32236 -0.000141552 3.31752 0.00251398 4.31268C0.00450564 5.15648 0.49578 5.65638 1.33626 5.66169C2.18736 5.667 3.03846 5.66236 3.89022 5.66236ZM13.1083 11.3372C12.2459 11.3372 11.3835 11.3319 10.5211 11.3386C9.71248 11.3452 9.21988 11.8358 9.21457 12.6431C9.20793 13.6602 9.20727 14.6779 9.21457 15.695C9.22055 16.493 9.72908 16.9955 10.5271 16.9969C12.2412 17.0008 13.9547 17.0002 15.6689 16.9969C16.4801 16.9955 16.994 16.481 16.9973 15.6704C17.0013 14.6752 16.9999 13.6801 16.9973 12.6849C16.9953 11.8418 16.502 11.3425 15.6622 11.3379C14.8111 11.3333 13.9594 11.3372 13.1083 11.3372Z" fill="#7166F0"/>
<path d="M9.21223 4.98172C9.21223 3.78739 9.21024 2.59306 9.2129 1.39873C9.21489 0.486556 9.69621 0.00192088 10.5984 0.00125699C12.2794 -7.07761e-05 13.9603 -0.00073466 15.6413 0.00125699C16.495 0.00258476 16.9963 0.507801 16.9969 1.36687C16.9983 3.76681 16.9989 6.16675 16.9969 8.56603C16.9963 9.4065 16.5004 9.90641 15.6566 9.9084C13.9537 9.91305 12.2502 9.91305 10.5473 9.9084C9.69886 9.90575 9.21622 9.41779 9.2129 8.56404C9.20891 7.37037 9.21223 6.17604 9.21223 4.98172Z" fill="#7166F0"/>
<path d="M7.78637 12.0514C7.78637 13.2457 7.78902 14.44 7.78504 15.6344C7.78238 16.5021 7.29045 16.9953 6.43072 16.9967C4.73847 16.9986 3.0469 16.9986 1.35466 16.9967C0.502892 16.9953 0.00165971 16.4881 0.000995826 15.6284C-0.000331942 13.2397 -0.000331942 10.8511 0.000995826 8.46243C0.00165971 7.57813 0.488951 7.09018 1.37656 7.08818C3.05752 7.08553 4.73847 7.08487 6.41943 7.08818C7.31036 7.09018 7.78305 7.56884 7.7857 8.46774C7.78836 9.66273 7.78637 10.8571 7.78637 12.0514Z" fill="#7166F0"/>
<path d="M3.89062 5.6621C3.03952 5.6621 2.18775 5.66609 1.33665 5.66077C0.496177 5.65613 0.00490302 5.15622 0.00224748 4.31243C-0.000408054 3.31726 -0.00107194 2.3221 0.00224748 1.32694C0.0055669 0.516336 0.519413 0.00381733 1.33201 0.00248957C3.04616 -0.000829855 4.75964 -0.000829855 6.47379 0.00248957C7.27311 0.00448122 7.77965 0.50505 7.78563 1.30569C7.79293 2.32276 7.79293 3.3405 7.78563 4.35757C7.77965 5.16485 7.28771 5.6548 6.47777 5.66077C5.61539 5.66741 4.753 5.6621 3.89062 5.6621Z" fill="#7166F0"/>
<path d="M13.1101 11.3378C13.9612 11.3378 14.813 11.3338 15.6641 11.3391C16.5039 11.3444 16.9971 11.843 16.9991 12.6862C17.0018 13.6813 17.0024 14.6765 16.9991 15.6716C16.9958 16.4822 16.482 16.9968 15.6707 16.9981C13.9565 17.0014 12.2431 17.0014 10.5289 16.9981C9.73026 16.9961 9.22173 16.4935 9.21641 15.6962C9.20911 14.6791 9.20911 13.6614 9.21641 12.6443C9.22173 11.837 9.71433 11.3464 10.5229 11.3398C11.3853 11.3325 12.2477 11.3378 13.1101 11.3378Z" fill="#7166F0"/>
</svg>
