<svg width="17" height="17" viewBox="0 0 17 17" fill="none" xmlns="http://www.w3.org/2000/svg">
<g clip-path="url(#clip0_254_110849)">
<path d="M6.55204 5.66671H1.23954C0.556023 5.66671 0 5.11069 0 4.42704V1.23954C0 0.556023 0.556023 0 1.23954 0H6.55204C7.23569 0 7.79171 0.556023 7.79171 1.23954V4.42704C7.79171 5.11069 7.23569 5.66671 6.55204 5.66671ZM1.23954 1.0625C1.14188 1.0625 1.0625 1.14188 1.0625 1.23954V4.42704C1.0625 4.52483 1.14188 4.60421 1.23954 4.60421H6.55204C6.64983 4.60421 6.72921 4.52483 6.72921 4.42704V1.23954C6.72921 1.14188 6.64983 1.0625 6.55204 1.0625H1.23954Z" fill="#7E8BA0"/>
<path d="M6.55204 17.0007H1.23954C0.556023 17.0007 0 16.4447 0 15.7612V8.32365C0 7.64001 0.556023 7.08398 1.23954 7.08398H6.55204C7.23569 7.08398 7.79171 7.64001 7.79171 8.32365V15.7612C7.79171 16.4447 7.23569 17.0007 6.55204 17.0007ZM1.23954 8.14648C1.14188 8.14648 1.0625 8.22586 1.0625 8.32365V15.7612C1.0625 15.8588 1.14188 15.9382 1.23954 15.9382H6.55204C6.64983 15.9382 6.72921 15.8588 6.72921 15.7612V8.32365C6.72921 8.22586 6.64983 8.14648 6.55204 8.14648H1.23954Z" fill="#7E8BA0"/>
<path d="M15.7612 17.0007H10.4487C9.76501 17.0007 9.20898 16.4447 9.20898 15.7612V12.5737C9.20898 11.89 9.76501 11.334 10.4487 11.334H15.7612C16.4447 11.334 17.0007 11.89 17.0007 12.5737V15.7612C17.0007 16.4447 16.4447 17.0007 15.7612 17.0007ZM10.4487 12.3965C10.3509 12.3965 10.2715 12.4759 10.2715 12.5737V15.7612C10.2715 15.8588 10.3509 15.9382 10.4487 15.9382H15.7612C15.8588 15.9382 15.9382 15.8588 15.9382 15.7612V12.5737C15.9382 12.4759 15.8588 12.3965 15.7612 12.3965H10.4487Z" fill="#7E8BA0"/>
<path d="M15.7612 9.91671H10.4487C9.76501 9.91671 9.20898 9.36069 9.20898 8.67704V1.23954C9.20898 0.556023 9.76501 0 10.4487 0H15.7612C16.4447 0 17.0007 0.556023 17.0007 1.23954V8.67704C17.0007 9.36069 16.4447 9.91671 15.7612 9.91671ZM10.4487 1.0625C10.3509 1.0625 10.2715 1.14188 10.2715 1.23954V8.67704C10.2715 8.77483 10.3509 8.85421 10.4487 8.85421H15.7612C15.8588 8.85421 15.9382 8.77483 15.9382 8.67704V1.23954C15.9382 1.14188 15.8588 1.0625 15.7612 1.0625H10.4487Z" fill="#7E8BA0"/>
</g>
<defs>
<clipPath id="clip0_254_110849">
<rect width="17" height="17" fill="white"/>
</clipPath>
</defs>
</svg>
