<svg width="50" height="45" viewBox="0 0 50 45" fill="none" xmlns="http://www.w3.org/2000/svg">
<g opacity="0.21">
<path d="M12.7816 35.792C9.50718 35.792 6.59474 33.6956 5.53734 30.5745L5.46576 30.3393C5.21624 29.513 5.11193 28.8177 5.11193 28.1223V14.1777L0.150145 30.7402C-0.487974 33.1761 0.966201 35.702 3.40619 36.3749L35.0319 44.8443C35.4267 44.9465 35.8214 44.9956 36.21 44.9956C38.2471 44.9956 40.1083 43.6437 40.6298 41.6516L42.4726 35.792H12.7816Z" fill="#222222"/>
<path d="M18.405 14.3177C20.6609 14.3177 22.4955 12.4831 22.4955 10.2272C22.4955 7.97131 20.6609 6.13672 18.405 6.13672C16.149 6.13672 14.3145 7.97131 14.3145 10.2272C14.3145 12.4831 16.149 14.3177 18.405 14.3177Z" fill="#222222"/>
<path d="M43.9736 0H13.2948C10.4764 0 8.18164 2.29477 8.18164 5.11313V27.6109C8.18164 30.4293 10.4764 32.7241 13.2948 32.7241H43.9736C46.7919 32.7241 49.0867 30.4293 49.0867 27.6109V5.11313C49.0867 2.29477 46.7919 0 43.9736 0ZM13.2948 4.09051H43.9736C44.5381 4.09051 44.9962 4.54864 44.9962 5.11313V19.6324L38.5352 12.0936C37.8501 11.2898 36.8581 10.8603 35.7926 10.8358C34.7331 10.8419 33.7391 11.3123 33.0601 12.1263L25.464 21.244L22.9893 18.7754C21.5903 17.3765 19.314 17.3765 17.917 18.7754L12.2721 24.4183V5.11313C12.2721 4.54864 12.7303 4.09051 13.2948 4.09051Z" fill="#222222"/>
</g>
</svg>
