<svg width="24" height="24" viewBox="0 0 24 24" fill="none" xmlns="http://www.w3.org/2000/svg">
<path fill-rule="evenodd" clip-rule="evenodd" d="M20.9998 3.75H17.2498V3.375C17.2498 2.87772 17.0523 2.40081 16.7007 2.04917C16.349 1.69754 15.8721 1.5 15.3748 1.5H11.6248C11.1276 1.5 10.6506 1.69754 10.299 2.04917C9.94738 2.40081 9.74984 2.87772 9.74984 3.375V3.75H5.99984C5.70147 3.75 5.41532 3.86853 5.20434 4.0795C4.99337 4.29048 4.87484 4.57663 4.87484 4.875C4.87484 5.17337 4.99337 5.45952 5.20434 5.6705C5.41532 5.88147 5.70147 6 5.99984 6H6.74984L6.98984 11.2687C6.99224 11.318 7.00434 11.3663 7.02544 11.4109C7.04654 11.4555 7.07623 11.4955 7.1128 11.5286C7.14938 11.5617 7.19212 11.5872 7.23859 11.6038C7.28506 11.6203 7.33433 11.6275 7.38359 11.625C7.48239 11.624 7.57682 11.5841 7.64633 11.5138C7.71585 11.4436 7.75484 11.3488 7.75484 11.25L7.51859 6H19.4998L18.8136 20.6775C18.8001 20.9667 18.6756 21.2395 18.4661 21.4393C18.2566 21.639 17.9781 21.7503 17.6886 21.75H9.81359C10.9025 21.0956 11.7172 20.0686 12.1066 18.8594C12.4961 17.6501 12.4338 16.3407 11.9314 15.1739C11.429 14.007 10.5206 13.0619 9.37451 12.5138C8.22844 11.9657 6.92249 11.8517 5.6988 12.1931C4.47511 12.5344 3.4167 13.3079 2.71981 14.3701C2.02292 15.4323 1.73482 16.7111 1.90893 17.9695C2.08304 19.228 2.70755 20.3806 3.66667 21.2136C4.62578 22.0467 5.85444 22.5037 7.12484 22.5H17.6923C18.175 22.5005 18.6393 22.3149 18.9886 21.9817C19.3378 21.6485 19.5451 21.1934 19.5673 20.7113L20.2498 6H20.9998C21.2982 6 21.5844 5.88147 21.7953 5.6705C22.0063 5.45952 22.1248 5.17337 22.1248 4.875C22.1248 4.57663 22.0063 4.29048 21.7953 4.0795C21.5844 3.86853 21.2982 3.75 20.9998 3.75ZM4.49984 20.9025C4.49984 20.2063 4.7764 19.5386 5.26868 19.0463C5.76097 18.5541 6.42865 18.2775 7.12484 18.2775C7.82103 18.2775 8.48871 18.5541 8.98099 19.0463C9.47328 19.5386 9.74984 20.2063 9.74984 20.9025C8.98615 21.4552 8.06752 21.7527 7.12484 21.7527C6.18216 21.7527 5.26352 21.4552 4.49984 20.9025ZM5.62484 16.125C5.62484 15.8283 5.71281 15.5383 5.87764 15.2916C6.04246 15.045 6.27673 14.8527 6.55081 14.7392C6.8249 14.6256 7.1265 14.5959 7.41748 14.6538C7.70845 14.7117 7.97572 14.8546 8.1855 15.0643C8.39528 15.2741 8.53814 15.5414 8.59602 15.8324C8.6539 16.1233 8.62419 16.4249 8.51066 16.699C8.39713 16.9731 8.20487 17.2074 7.95819 17.3722C7.71152 17.537 7.42151 17.625 7.12484 17.625C6.72701 17.625 6.34548 17.467 6.06418 17.1857C5.78287 16.9044 5.62484 16.5228 5.62484 16.125ZM2.62484 17.25C2.6231 16.5167 2.80059 15.7941 3.14185 15.1451C3.48312 14.4961 3.97782 13.9403 4.5829 13.526C5.18799 13.1118 5.88514 12.8518 6.61367 12.7685C7.34221 12.6852 8.08006 12.7812 8.76303 13.0481C9.44599 13.3151 10.0534 13.7449 10.5323 14.3001C11.0113 14.8554 11.3473 15.5193 11.5111 16.234C11.6749 16.9488 11.6616 17.6927 11.4723 18.4012C11.2829 19.1096 10.9234 19.761 10.4248 20.2987C10.3136 19.7761 10.0798 19.2874 9.74272 18.8727C9.40567 18.4581 8.97498 18.1294 8.48609 17.9137C8.86114 17.6288 9.13729 17.2333 9.27562 16.783C9.41396 16.3328 9.40749 15.8504 9.25714 15.404C9.10679 14.9577 8.82013 14.5697 8.43758 14.2949C8.05502 14.0201 7.59587 13.8722 7.12484 13.8722C6.65381 13.8722 6.19465 14.0201 5.8121 14.2949C5.42955 14.5697 5.14289 14.9577 4.99254 15.404C4.84219 15.8504 4.83572 16.3328 4.97406 16.783C5.11239 17.2333 5.38854 17.6288 5.76359 17.9137C5.2747 18.1294 4.84401 18.4581 4.50696 18.8727C4.16991 19.2874 3.93612 19.7761 3.82484 20.2987C3.05371 19.4708 2.62493 18.3814 2.62484 17.25ZM10.4998 3.375C10.4998 3.07663 10.6184 2.79048 10.8293 2.5795C11.0403 2.36853 11.3265 2.25 11.6248 2.25H15.3748C15.6732 2.25 15.9594 2.36853 16.1703 2.5795C16.3813 2.79048 16.4998 3.07663 16.4998 3.375V3.75H10.4998V3.375ZM20.9998 5.25H5.99984C5.90038 5.25 5.805 5.21049 5.73467 5.14016C5.66435 5.06984 5.62484 4.97446 5.62484 4.875C5.62484 4.77554 5.66435 4.68016 5.73467 4.60984C5.805 4.53951 5.90038 4.5 5.99984 4.5H20.9998C21.0993 4.5 21.1947 4.53951 21.265 4.60984C21.3353 4.68016 21.3748 4.77554 21.3748 4.875C21.3748 4.97446 21.3353 5.06984 21.265 5.14016C21.1947 5.21049 21.0993 5.25 20.9998 5.25ZM9.74984 17.7C9.74614 17.6751 9.74614 17.6499 9.74984 17.625C9.74857 17.5758 9.75885 17.527 9.77984 17.4825C9.79702 17.4361 9.82386 17.394 9.85859 17.3588C9.90225 17.3155 9.95586 17.2837 10.0147 17.266C10.0736 17.2484 10.1358 17.2454 10.1961 17.2575C10.2209 17.261 10.245 17.2686 10.2673 17.28C10.2904 17.2875 10.3119 17.2989 10.3311 17.3137C10.3525 17.3267 10.3726 17.3418 10.3911 17.3588C10.4258 17.394 10.4527 17.4361 10.4698 17.4825C10.4891 17.5276 10.4992 17.576 10.4998 17.625C10.4985 17.7243 10.4596 17.8194 10.3911 17.8913C10.3546 17.9244 10.3128 17.951 10.2673 17.97C10.245 17.9814 10.2209 17.989 10.1961 17.9925L10.1248 18H10.0498C10.0263 17.9959 10.0036 17.9883 9.98234 17.9775L9.91484 17.9437L9.85859 17.8988C9.84246 17.8809 9.82743 17.8621 9.81359 17.8425C9.7994 17.8216 9.78805 17.7989 9.77984 17.775C9.76567 17.7519 9.75553 17.7265 9.74984 17.7ZM3.80609 17.835C3.7919 17.8141 3.78055 17.7914 3.77234 17.7675C3.76092 17.7452 3.75332 17.7211 3.74984 17.6962C3.748 17.6725 3.748 17.6487 3.74984 17.625C3.74941 17.5505 3.77116 17.4776 3.81234 17.4155C3.85352 17.3534 3.91224 17.305 3.98103 17.2765C4.04982 17.2479 4.12556 17.2405 4.19859 17.2551C4.27162 17.2698 4.33864 17.3059 4.39109 17.3588C4.42421 17.3952 4.45085 17.4371 4.46984 17.4825C4.48905 17.5276 4.49925 17.576 4.49984 17.625C4.50027 17.6995 4.47851 17.7724 4.43734 17.8345C4.39616 17.8966 4.33744 17.945 4.26865 17.9735C4.19985 18.0021 4.12411 18.0095 4.05108 17.9949C3.97805 17.9802 3.91104 17.9441 3.85859 17.8913C3.84246 17.8734 3.82743 17.8546 3.81359 17.835H3.80609ZM15.1086 8.14125C15.0734 8.10639 15.0455 8.06491 15.0265 8.01922C15.0075 7.97352 14.9977 7.9245 14.9977 7.875C14.9977 7.8255 15.0075 7.77648 15.0265 7.73078C15.0455 7.68509 15.0734 7.64361 15.1086 7.60875C15.145 7.57563 15.1869 7.54899 15.2323 7.53C15.3006 7.50128 15.3759 7.49344 15.4486 7.50745C15.5214 7.52147 15.5884 7.55672 15.6411 7.60875C15.694 7.6612 15.73 7.72821 15.7447 7.80124C15.7593 7.87428 15.7519 7.95001 15.7234 8.01881C15.6948 8.0876 15.6464 8.14632 15.5843 8.1875C15.5223 8.22867 15.4493 8.25043 15.3748 8.25C15.3258 8.24941 15.2774 8.23922 15.2323 8.22C15.1869 8.20101 15.145 8.17437 15.1086 8.14125ZM13.2336 8.14125C13.1986 8.10629 13.1709 8.06478 13.152 8.01909C13.133 7.97341 13.1233 7.92445 13.1233 7.875C13.1233 7.82555 13.133 7.77659 13.152 7.73091C13.1709 7.68522 13.1986 7.64371 13.2336 7.60875C13.2686 7.57379 13.3101 7.54605 13.3557 7.52713C13.4014 7.5082 13.4504 7.49847 13.4998 7.49847C13.5493 7.49847 13.5983 7.5082 13.6439 7.52713C13.6896 7.54605 13.7311 7.57379 13.7661 7.60875C13.8008 7.64395 13.8277 7.68613 13.8448 7.7325C13.8647 7.77739 13.8749 7.82592 13.8749 7.875C13.8749 7.92408 13.8647 7.97261 13.8448 8.0175C13.8277 8.06387 13.8008 8.10605 13.7661 8.14125C13.7312 8.1764 13.6898 8.2043 13.6441 8.22333C13.5984 8.24237 13.5493 8.25217 13.4998 8.25217C13.4503 8.25217 13.4013 8.24237 13.3556 8.22333C13.3099 8.2043 13.2685 8.1764 13.2336 8.14125ZM11.3586 8.14125C11.297 8.08017 11.2585 7.99964 11.2496 7.91336C11.2408 7.82709 11.2621 7.7404 11.3099 7.66807C11.3578 7.59574 11.4292 7.54224 11.5121 7.51667C11.595 7.4911 11.6842 7.49505 11.7645 7.52785C11.8448 7.56064 11.9112 7.62026 11.9525 7.69653C11.9938 7.77281 12.0073 7.86104 11.9909 7.94619C11.9744 8.03135 11.9289 8.10816 11.8622 8.16356C11.7954 8.21895 11.7116 8.2495 11.6248 8.25C11.5256 8.24862 11.4305 8.20977 11.3586 8.14125ZM14.9998 9.75C15.0012 9.65071 15.0401 9.55561 15.1086 9.48375C15.145 9.45063 15.1869 9.42399 15.2323 9.405C15.3006 9.37628 15.3759 9.36844 15.4486 9.38245C15.5214 9.39647 15.5884 9.43172 15.6411 9.48375C15.694 9.5362 15.73 9.60321 15.7447 9.67624C15.7593 9.74928 15.7519 9.82501 15.7234 9.89381C15.6948 9.9626 15.6464 10.0213 15.5843 10.0625C15.5223 10.1037 15.4493 10.1254 15.3748 10.125C15.3258 10.1244 15.2774 10.1142 15.2323 10.095C15.1869 10.076 15.145 10.0494 15.1086 10.0162C15.0401 9.94439 15.0012 9.84929 14.9998 9.75ZM13.1248 9.75C13.1248 9.65054 13.1643 9.55516 13.2347 9.48483C13.305 9.41451 13.4004 9.375 13.4998 9.375C13.5993 9.375 13.6947 9.41451 13.765 9.48483C13.8353 9.55516 13.8748 9.65054 13.8748 9.75C13.8742 9.799 13.8641 9.84742 13.8448 9.8925C13.8277 9.93887 13.8008 9.98105 13.7661 10.0162C13.7136 10.0691 13.6466 10.1052 13.5736 10.1199C13.5006 10.1345 13.4248 10.1271 13.356 10.0985C13.2872 10.07 13.2285 10.0216 13.1873 9.95948C13.1462 9.89741 13.1244 9.82448 13.1248 9.75ZM11.2498 9.75C11.2503 9.66327 11.2809 9.5794 11.3363 9.51266C11.3917 9.44592 11.4685 9.40045 11.5536 9.38399C11.6388 9.36752 11.727 9.38108 11.8033 9.42236C11.8796 9.46364 11.9392 9.53008 11.972 9.61037C12.0048 9.69066 12.0087 9.77984 11.9832 9.86272C11.9576 9.94559 11.9041 10.017 11.8318 10.0649C11.7594 10.1128 11.6728 10.1341 11.5865 10.1252C11.5002 10.1163 11.4197 10.0778 11.3586 10.0162C11.2901 9.94439 11.2512 9.84929 11.2498 9.75ZM14.9998 11.625C15.0012 11.5257 15.0401 11.4306 15.1086 11.3588C15.145 11.3256 15.1869 11.299 15.2323 11.28C15.3006 11.2513 15.3759 11.2434 15.4486 11.2575C15.5214 11.2715 15.5884 11.3067 15.6411 11.3588C15.694 11.4112 15.73 11.4782 15.7447 11.5512C15.7593 11.6243 15.7519 11.7 15.7234 11.7688C15.6948 11.8376 15.6464 11.8963 15.5843 11.9375C15.5223 11.9787 15.4493 12.0004 15.3748 12C15.3258 11.9994 15.2774 11.9892 15.2323 11.97C15.1869 11.951 15.145 11.9244 15.1086 11.8912C15.0401 11.8194 15.0012 11.7243 14.9998 11.625ZM13.1248 11.625C13.1244 11.5505 13.1462 11.4776 13.1873 11.4155C13.2285 11.3534 13.2872 11.305 13.356 11.2765C13.4248 11.2479 13.5006 11.2405 13.5736 11.2551C13.6466 11.2698 13.7136 11.3059 13.7661 11.3588C13.8002 11.3944 13.827 11.4365 13.8448 11.4825C13.8647 11.5274 13.8749 11.5759 13.8749 11.625C13.8749 11.6741 13.8647 11.7226 13.8448 11.7675C13.8258 11.8129 13.7992 11.8548 13.7661 11.8912C13.7312 11.9264 13.6898 11.9543 13.6441 11.9733C13.5984 11.9924 13.5493 12.0022 13.4998 12.0022C13.4503 12.0022 13.4013 11.9924 13.3556 11.9733C13.3099 11.9543 13.2685 11.9264 13.2336 11.8912C13.2005 11.8548 13.1738 11.8129 13.1548 11.7675C13.1338 11.723 13.1236 11.6742 13.1248 11.625ZM14.9998 16.125C15.0012 16.0257 15.0401 15.9306 15.1086 15.8588C15.145 15.8256 15.1869 15.799 15.2323 15.78C15.3006 15.7513 15.3759 15.7434 15.4486 15.7575C15.5214 15.7715 15.5884 15.8067 15.6411 15.8588C15.694 15.9112 15.73 15.9782 15.7447 16.0512C15.7593 16.1243 15.7519 16.2 15.7234 16.2688C15.6948 16.3376 15.6464 16.3963 15.5843 16.4375C15.5223 16.4787 15.4493 16.5004 15.3748 16.5C15.3258 16.4994 15.2774 16.4892 15.2323 16.47C15.1869 16.451 15.145 16.4244 15.1086 16.3912C15.0401 16.3194 15.0012 16.2243 14.9998 16.125ZM13.1248 16.125C13.1244 16.0505 13.1462 15.9776 13.1873 15.9155C13.2285 15.8534 13.2872 15.805 13.356 15.7765C13.4248 15.7479 13.5006 15.7405 13.5736 15.7551C13.6466 15.7698 13.7136 15.8059 13.7661 15.8588C13.8002 15.8944 13.827 15.9365 13.8448 15.9825C13.8647 16.0274 13.8749 16.0759 13.8749 16.125C13.8749 16.1741 13.8647 16.2226 13.8448 16.2675C13.8277 16.3139 13.8008 16.356 13.7661 16.3912C13.7136 16.4441 13.6466 16.4802 13.5736 16.4949C13.5006 16.5095 13.4248 16.5021 13.356 16.4735C13.2872 16.445 13.2285 16.3966 13.1873 16.3345C13.1462 16.2724 13.1244 16.1995 13.1248 16.125ZM14.9998 18C15.0012 17.9007 15.0401 17.8056 15.1086 17.7337C15.145 17.7006 15.1869 17.674 15.2323 17.655C15.3006 17.6263 15.3759 17.6184 15.4486 17.6325C15.5214 17.6465 15.5884 17.6817 15.6411 17.7337C15.694 17.7862 15.73 17.8532 15.7447 17.9262C15.7593 17.9993 15.7519 18.075 15.7234 18.1438C15.6948 18.2126 15.6464 18.2713 15.5843 18.3125C15.5223 18.3537 15.4493 18.3754 15.3748 18.375C15.3258 18.3744 15.2774 18.3642 15.2323 18.345C15.1869 18.326 15.145 18.2994 15.1086 18.2663C15.0401 18.1944 15.0012 18.0993 14.9998 18ZM13.1248 18C13.1244 17.9255 13.1462 17.8526 13.1873 17.7905C13.2285 17.7284 13.2872 17.68 13.356 17.6515C13.4248 17.6229 13.5006 17.6155 13.5736 17.6301C13.6466 17.6448 13.7136 17.6809 13.7661 17.7337C13.8002 17.7694 13.827 17.8115 13.8448 17.8575C13.8641 17.9026 13.8742 17.951 13.8748 18C13.8751 18.0494 13.8657 18.0983 13.847 18.144C13.8283 18.1897 13.8008 18.2312 13.7661 18.2663C13.7136 18.3191 13.6466 18.3552 13.5736 18.3699C13.5006 18.3845 13.4248 18.3771 13.356 18.3485C13.2872 18.32 13.2285 18.2716 13.1873 18.2095C13.1462 18.1474 13.1244 18.0745 13.1248 18ZM14.9998 19.875C15.0012 19.7757 15.0401 19.6806 15.1086 19.6087C15.145 19.5756 15.1869 19.549 15.2323 19.53C15.3006 19.5013 15.3759 19.4934 15.4486 19.5075C15.5214 19.5215 15.5884 19.5567 15.6411 19.6087C15.694 19.6612 15.73 19.7282 15.7447 19.8012C15.7593 19.8743 15.7519 19.95 15.7234 20.0188C15.6948 20.0876 15.6464 20.1463 15.5843 20.1875C15.5223 20.2287 15.4493 20.2504 15.3748 20.25C15.3258 20.2494 15.2774 20.2392 15.2323 20.22C15.1869 20.201 15.145 20.1744 15.1086 20.1413C15.0401 20.0694 15.0012 19.9743 14.9998 19.875ZM13.1248 19.875C13.1253 19.7883 13.1559 19.7044 13.2113 19.6377C13.2667 19.5709 13.3435 19.5255 13.4286 19.509C13.5138 19.4925 13.602 19.5061 13.6783 19.5474C13.7546 19.5886 13.8142 19.6551 13.847 19.7354C13.8798 19.8157 13.8837 19.9048 13.8582 19.9877C13.8326 20.0706 13.7791 20.142 13.7068 20.1899C13.6344 20.2378 13.5478 20.2591 13.4615 20.2502C13.3752 20.2413 13.2947 20.2028 13.2336 20.1413C13.1651 20.0694 13.1262 19.9743 13.1248 19.875ZM11.2498 11.625C11.2512 11.5257 11.2901 11.4306 11.3586 11.3588C11.3943 11.3246 11.4363 11.2978 11.4823 11.28C11.5506 11.2513 11.6259 11.2434 11.6986 11.2575C11.7714 11.2715 11.8384 11.3067 11.8911 11.3588C11.9344 11.4024 11.9663 11.4561 11.984 11.515C12.0017 11.5739 12.0046 11.6363 11.9925 11.6966C11.9804 11.7569 11.9537 11.8133 11.9146 11.8608C11.8756 11.9084 11.8254 11.9456 11.7686 11.9692C11.7118 11.9927 11.6501 12.002 11.5889 11.9961C11.5276 11.9902 11.4688 11.9693 11.4175 11.9353C11.3663 11.9013 11.3242 11.8552 11.2949 11.8011C11.2657 11.747 11.2502 11.6865 11.2498 11.625Z" fill="#7166F0"/>
</svg>
