<svg width="22" height="21" viewBox="0 0 22 21" fill="none" xmlns="http://www.w3.org/2000/svg">
<path d="M16.8085 13.9405C16.2618 13.9405 15.8199 14.3824 15.8199 14.9291V18.0342C15.8199 18.5799 15.377 19.0228 14.8313 19.0228H3.95692C3.41121 19.0228 2.96837 18.5799 2.96837 18.0342V5.18271C2.96837 4.637 3.41125 4.19416 3.95692 4.19416H9.70055C10.2472 4.19416 10.6891 3.75226 10.6891 3.2056C10.6891 2.65893 10.2472 2.21704 9.70055 2.21704H3.95692C2.32182 2.21696 0.991211 3.54761 0.991211 5.18271V18.0342C0.991211 19.6693 2.32182 20.9999 3.95692 20.9999H14.8313C16.4664 20.9999 17.797 19.6703 17.797 18.0342V14.9291C17.797 14.3824 17.3551 13.9405 16.8085 13.9405Z" fill="black"/>
<path d="M20.2358 2.09167C19.5181 1.37398 18.5809 1.01214 17.6368 0.992384C16.6433 0.970643 15.6438 1.33046 14.8925 2.08277L8.19982 8.77545C7.2231 9.75614 6.6853 11.0571 6.6853 12.4391V14.6535C6.6853 15.2002 7.1272 15.6421 7.67386 15.6421H9.88826C11.2703 15.6421 12.5713 15.1043 13.5529 14.1265L20.2367 7.44277C21.7097 5.96888 21.7097 3.56664 20.2358 2.09167ZM12.1561 12.7278C11.5501 13.3318 10.7434 13.665 9.88834 13.665H8.66246V12.4391C8.66246 11.584 8.99561 10.7773 9.59863 10.1723L14.0107 5.76029L16.5671 8.31674L12.1561 12.7278ZM18.8379 6.04599L17.965 6.91892L15.4085 4.36247L16.2814 3.48957C16.9873 2.78373 18.134 2.78572 18.8379 3.48957C19.5418 4.19439 19.5418 5.34113 18.8379 6.04599Z" fill="black"/>
</svg>
