<svg width="163" height="118" viewBox="0 0 163 118" fill="none" xmlns="http://www.w3.org/2000/svg">
<path d="M138.799 26.8572C138.528 26.8572 138.263 26.7779 138.031 26.6194C137.596 26.3268 137.369 25.8072 137.448 25.2877L137.675 23.7674L136.237 24.5986C135.698 24.9158 135.015 24.8174 134.577 24.3717C134.142 23.9287 134.063 23.2424 134.386 22.7092L135.537 20.8006L132.781 22.392C132.225 22.7174 131.517 22.6053 131.085 22.1268C130.653 21.6482 130.609 20.9346 130.987 20.4123L134.656 15.2908L127.831 19.2283C127.246 19.5729 126.494 19.4279 126.07 18.8893C125.652 18.3533 125.688 17.5904 126.158 17.101L129.959 13.1389L126.628 15.0611C126.109 15.3592 125.455 15.2881 125.012 14.8807C124.575 14.4732 124.452 13.8225 124.714 13.2838L126.204 10.2076C125.707 10.2814 125.179 10.0025 124.903 9.52948C124.525 8.87597 124.75 8.03925 125.406 7.65917L128.586 5.8244C129.103 5.52635 129.762 5.60018 130.202 6.0076C130.64 6.41503 130.763 7.06581 130.5 7.60448L129.114 10.4674L136.915 5.96659C137.5 5.62206 138.252 5.76971 138.676 6.30565C139.094 6.84159 139.059 7.60448 138.588 8.09394L134.785 12.0588L138.769 9.75917C139.324 9.43378 140.035 9.54589 140.464 10.0244C140.896 10.5029 140.94 11.2166 140.563 11.7389L136.896 16.8549L138.769 15.7748C139.308 15.4576 139.994 15.5561 140.426 15.999C140.863 16.4447 140.943 17.1311 140.62 17.6643L139.329 19.8025C139.638 19.7834 139.956 19.8545 140.218 20.035C140.653 20.3303 140.88 20.8498 140.8 21.3666L140.39 24.1174C140.483 24.2049 140.563 24.3061 140.634 24.4236C141.014 25.0772 140.792 25.9139 140.136 26.294L139.488 26.6713C139.275 26.7943 139.04 26.8545 138.802 26.8545L138.799 26.8572Z" fill="#AD322F"/>
<path d="M113.271 117.639C112.823 117.639 112.385 117.417 112.123 117.012C111.726 116.403 111.879 115.588 112.47 115.161L133.404 100.032L104.751 116.572C104.105 116.947 103.291 116.736 102.902 116.105C102.514 115.473 102.7 114.65 103.318 114.242L113.167 107.814L104.751 112.673C104.105 113.048 103.285 112.837 102.9 112.2C102.511 111.568 102.703 110.74 103.326 110.338L106.545 108.273L104.751 109.307C104.105 109.684 103.291 109.471 102.902 108.839C102.514 108.208 102.7 107.385 103.318 106.977L113.873 100.078L104.748 105.345C104.103 105.722 103.282 105.509 102.897 104.874C102.509 104.24 102.7 103.414 103.323 103.012L107.78 100.141L104.748 101.891C104.111 102.263 103.299 102.061 102.905 101.435C102.514 100.808 102.689 99.9909 103.299 99.5753L123.547 85.8596L104.748 96.7124C104.111 97.0842 103.299 96.8819 102.905 96.2557C102.514 95.6323 102.686 94.8147 103.296 94.3991L124.81 79.7373L104.748 91.3174C104.108 91.6866 103.293 91.4842 102.902 90.8553C102.511 90.2264 102.692 89.4061 103.304 88.996L119.894 77.9299L104.745 86.6745C104.105 87.0463 103.285 86.844 102.897 86.2096C102.509 85.5834 102.692 84.7577 103.307 84.3502L116.905 75.376L104.745 82.3952C104.116 82.7698 103.299 82.5647 102.905 81.9413C102.511 81.3178 102.684 80.5002 103.291 80.0819L125.595 64.8186L104.745 76.8553C104.116 77.2244 103.304 77.0248 102.908 76.4096C102.514 75.7916 102.675 74.9768 103.277 74.553L125.436 58.9779L104.748 70.9217C104.119 71.2909 103.304 71.0912 102.911 70.4733C102.517 69.8553 102.681 69.0377 103.282 68.6166L116.189 59.6123L104.748 66.2158C104.127 66.5795 103.332 66.3908 102.93 65.7975C102.53 65.2014 102.656 64.3947 103.225 63.9545L116.566 53.5693L104.748 60.3916C104.152 60.7444 103.378 60.583 102.965 60.017C102.552 59.4565 102.626 58.6772 103.137 58.2041L112.218 49.8205L104.748 54.1354C104.146 54.4908 103.367 54.324 102.954 53.7498C102.547 53.1811 102.634 52.3936 103.159 51.9287L104.797 50.4795L104.748 50.5068C104.286 50.7775 103.703 50.7502 103.266 50.4357C102.831 50.1213 102.618 49.5826 102.725 49.0549L103.621 44.6006C103.321 44.4994 103.053 44.2889 102.88 43.9908C102.5 43.3373 102.725 42.5006 103.381 42.1232L104.751 41.333C105.218 41.0623 105.798 41.0896 106.233 41.4041C106.668 41.7185 106.881 42.2572 106.774 42.785L106.003 46.624L115.193 41.3166C115.8 40.9666 116.574 41.1334 116.987 41.7021C117.395 42.2709 117.307 43.0584 116.782 43.5232L115.141 44.9752L121.491 41.3084C122.089 40.9611 122.866 41.1225 123.273 41.6803C123.686 42.2435 123.613 43.0228 123.101 43.4959L114.018 51.8795L132.357 41.292C132.978 40.9283 133.773 41.117 134.175 41.7103C134.575 42.3064 134.449 43.1131 133.88 43.5533L120.536 53.9412L142.469 41.2783C143.095 40.9092 143.915 41.1088 144.306 41.7268C144.7 42.3475 144.536 43.1623 143.934 43.5834L131.039 52.5795L150.636 41.2646C151.263 40.8928 152.075 41.0951 152.474 41.7103C152.868 42.3283 152.706 43.1432 152.105 43.567L129.945 59.1447L155.167 44.5842C155.799 44.215 156.614 44.4174 157.007 45.0381C157.401 45.6615 157.229 46.4791 156.622 46.8975L134.318 62.1608L155.167 50.124C155.807 49.7494 156.622 49.9545 157.016 50.5889C157.404 51.215 157.221 52.0408 156.606 52.4482L143.007 61.4225L155.167 54.4033C155.807 54.026 156.622 54.2365 157.013 54.8654C157.404 55.4943 157.223 56.3147 156.611 56.7248L140 67.8045L155.17 59.049C155.807 58.6799 156.622 58.8795 157.013 59.5057C157.404 60.1291 157.232 60.9467 156.622 61.3623L135.108 76.0241L155.17 64.444C155.807 64.0748 156.622 64.2744 157.013 64.9006C157.404 65.5268 157.229 66.3444 156.619 66.76L136.39 80.4647L155.17 69.6201C155.815 69.2455 156.636 69.4533 157.021 70.0905C157.409 70.7248 157.218 71.5506 156.595 71.9526L152.138 74.8237L155.17 73.0737C155.815 72.6963 156.63 72.9096 157.018 73.5412C157.407 74.1729 157.221 74.9959 156.603 75.4034L146.018 82.3213L155.173 77.0385C155.818 76.6639 156.638 76.8745 157.024 77.5116C157.412 78.1432 157.221 78.9717 156.597 79.3737L153.42 81.4135L155.175 80.4018C155.821 80.0272 156.636 80.2377 157.024 80.8694C157.412 81.501 157.226 82.3241 156.608 82.7315L146.732 89.1764L155.178 84.301C155.804 83.9291 156.611 84.1315 157.01 84.7413C157.407 85.351 157.254 86.1659 156.663 86.5924L135.734 101.719L155.178 90.4944C155.815 90.1253 156.625 90.3276 157.018 90.9483C157.412 91.5717 157.24 92.3893 156.633 92.8077L150.426 97.0487L155.175 94.3061C155.802 93.9397 156.603 94.1366 157.002 94.7381C157.401 95.3397 157.256 96.1518 156.677 96.5838L147.552 103.387L155.175 98.9874C155.78 98.6374 156.551 98.8014 156.964 99.3647C157.374 99.9307 157.295 100.716 156.778 101.183L148.561 108.626L155.175 104.809C155.736 104.483 156.452 104.596 156.882 105.085C157.311 105.572 157.344 106.291 156.953 106.81L153.302 111.699L155.175 110.617C155.829 110.234 156.66 110.461 157.043 111.117C157.423 111.771 157.199 112.607 156.543 112.985L148.908 117.395C148.35 117.723 147.637 117.608 147.202 117.119C146.773 116.632 146.74 115.913 147.131 115.394L150.784 110.502L138.818 117.409C138.22 117.762 137.446 117.598 137.03 117.032C136.62 116.466 136.699 115.681 137.216 115.213L145.433 107.77L128.707 117.425C128.083 117.792 127.282 117.598 126.88 116.993C126.481 116.389 126.626 115.58 127.205 115.148L136.327 108.347L120.577 117.439C119.943 117.814 119.131 117.608 118.737 116.985C118.343 116.362 118.516 115.544 119.123 115.126L125.335 110.879L113.957 117.447C113.744 117.573 113.506 117.63 113.274 117.63L113.271 117.639Z" fill="#DDDDDD"/>
<path d="M132.342 46.4846C131.902 46.4846 131.47 46.2713 131.208 45.8775C130.808 45.2787 130.937 44.4721 131.506 44.0346L133.863 42.2162L126.789 46.2986C126.174 46.6568 125.383 46.4791 124.979 45.8912C124.577 45.3006 124.692 44.5021 125.247 44.0537L132.501 38.1939L118.46 46.2986C117.839 46.6623 117.049 46.4764 116.647 45.8857C116.245 45.2951 116.363 44.4939 116.926 44.0482L127.377 35.7193L111.504 44.8822C110.888 45.2432 110.098 45.06 109.693 44.4748C109.291 43.8869 109.406 43.0885 109.959 42.64L123.196 31.8912L107.58 40.9037C106.945 41.2756 106.139 41.0732 105.745 40.458C105.349 39.8428 105.51 39.0306 106.106 38.6041L109.775 36.0037L105.294 38.5877C104.673 38.9514 103.883 38.7599 103.481 38.1775C103.079 37.5869 103.197 36.7857 103.757 36.3373L114.919 27.3986L101.756 34.9974C101.127 35.3666 100.315 35.167 99.9208 34.5517C99.5243 33.9365 99.6856 33.1217 100.282 32.6978L102.24 31.3115L99.6145 32.8263C98.9965 33.1873 98.2036 33.0013 97.8016 32.4162C97.3997 31.8256 97.5172 31.0244 98.0778 30.5787L107.864 22.7201L96.2567 29.422C95.6333 29.7857 94.8294 29.597 94.4329 28.9927C94.0337 28.3884 94.1731 27.5791 94.7528 27.147L100.304 22.9798L93.6727 26.8052C93.0575 27.1689 92.27 26.983 91.8653 26.4006C91.4606 25.8181 91.5727 25.0142 92.125 24.5658L101.047 17.2705L90.3559 23.442C89.7407 23.8056 88.9477 23.6224 88.5458 23.0345C88.1438 22.4466 88.2586 21.6455 88.8137 21.197L96.5137 14.9708L87.2633 20.3084C86.6399 20.6775 85.8332 20.4834 85.434 19.8736C85.0375 19.2638 85.1852 18.4517 85.7704 18.0224L87.1758 16.9943L85.1469 18.1646C84.5262 18.5255 83.7332 18.3423 83.3313 17.749C82.9321 17.1556 83.0524 16.3517 83.6157 15.9087L89.3551 11.3806C88.8848 11.3806 88.4282 11.1345 88.1766 10.697C87.7965 10.0435 88.0208 9.20678 88.677 8.82944L103.344 0.361067C103.959 -0.00533997 104.758 0.180596 105.16 0.776691C105.559 1.37005 105.439 2.17396 104.875 2.61693L100.148 6.34662L107.49 2.10833C108.116 1.74466 108.922 1.93607 109.319 2.5431C109.715 3.15013 109.568 3.96498 108.982 4.39428L107.585 5.41693L110.249 3.88021C110.864 3.51654 111.654 3.69974 112.059 4.28763C112.461 4.87553 112.346 5.6767 111.791 6.12514L104.091 12.354L114.282 6.4724C114.897 6.11146 115.684 6.29467 116.089 6.87709C116.494 7.45951 116.382 8.26342 115.829 8.71186L106.907 16.0072L118.608 9.25327C119.228 8.88412 120.032 9.07826 120.431 9.68256C120.831 10.2869 120.691 11.0962 120.111 11.531L114.569 15.69L121.974 11.4189C122.591 11.0552 123.382 11.2412 123.786 11.8291C124.188 12.4197 124.071 13.2208 123.51 13.6666L113.718 21.5279L126.351 14.2353C126.977 13.8634 127.792 14.0658 128.186 14.681C128.583 15.2962 128.421 16.1111 127.825 16.5349L125.87 17.9185L129.143 16.0318C129.761 15.6681 130.551 15.8541 130.956 16.4419C131.358 17.0326 131.24 17.8337 130.68 18.2822L119.513 27.2236L133.759 19.0013C134.396 18.6322 135.2 18.8318 135.593 19.447C135.99 20.0623 135.829 20.8744 135.233 21.3009L131.56 23.9041L136.739 20.9154C137.352 20.5545 138.145 20.7349 138.549 21.3228C138.951 21.9107 138.836 22.7091 138.284 23.1576L125.05 33.9037L141.855 24.2048C142.47 23.8412 143.263 24.0244 143.668 24.6177C144.07 25.2084 143.952 26.0095 143.389 26.4552L132.941 34.7814L146.307 27.0677C146.922 26.7068 147.712 26.8873 148.117 27.4752C148.519 28.0658 148.404 28.8642 147.849 29.3127L140.592 35.1752L150.247 29.6025C150.865 29.2388 151.669 29.4248 152.065 30.0236C152.465 30.6224 152.336 31.4291 151.767 31.8666L149.418 33.6795L153.197 31.4974C153.772 31.1611 154.507 31.2924 154.934 31.8064C155.358 32.3205 155.352 33.0642 154.917 33.5728L149.465 39.9139L158.33 34.7978C158.879 34.4752 159.582 34.5791 160.014 35.0521C160.449 35.5197 160.504 36.2252 160.143 36.7502L157.291 40.9392L160.638 39.0088C161.288 38.626 162.128 38.8529 162.505 39.5092C162.885 40.1627 162.661 40.9994 162.005 41.3767L153.479 46.3014C152.929 46.624 152.227 46.5174 151.795 46.0471C151.36 45.5795 151.305 44.874 151.666 44.349L154.518 40.1572L143.876 46.3014C143.302 46.6377 142.566 46.5064 142.14 45.9924C141.716 45.4783 141.721 44.7346 142.156 44.226L147.606 37.8849L133.029 46.3014C132.815 46.4271 132.577 46.4846 132.345 46.4846H132.342Z" fill="#E24A42"/>
<path d="M124.257 92.9608C123.817 92.9608 123.385 92.7475 123.122 92.3537C122.723 91.7549 122.852 90.9483 123.42 90.5108L125.14 89.1846L118.92 92.7748C118.293 93.1385 117.495 92.9471 117.096 92.3455C116.697 91.7412 116.836 90.9291 117.416 90.4971L122.994 86.3244L113 92.0912C112.365 92.4631 111.553 92.2608 111.159 91.6373C110.766 91.0166 110.935 90.1991 111.542 89.7807L112.754 88.9467L110.911 90.0104C110.284 90.3768 109.475 90.1799 109.081 89.5729C108.682 88.9604 108.835 88.1483 109.423 87.7217L120.131 79.9506L110.219 85.6737C109.595 86.0428 108.791 85.8459 108.392 85.2416C107.993 84.6373 108.138 83.8252 108.72 83.3932L121.244 74.0881L110.219 80.4537C109.593 80.8229 108.781 80.6233 108.384 80.0108C107.99 79.3955 108.146 78.5834 108.739 78.1569L114.017 74.3889L110.219 76.5818C109.593 76.9483 108.778 76.7514 108.387 76.1416C107.99 75.5264 108.146 74.7143 108.739 74.2877L109.792 73.533C109.292 73.626 108.759 73.4373 108.439 73.008C108.026 72.4502 108.094 71.6736 108.6 71.1979L114.126 65.9807L110.219 68.2338C109.675 68.5564 108.977 68.4525 108.543 67.9904C108.108 67.5283 108.045 66.8311 108.392 66.3006L110.621 62.9018C110.063 63.033 109.437 62.7869 109.131 62.2537C108.75 61.6002 108.975 60.7635 109.631 60.3861L114.159 57.7721C114.706 57.4549 115.403 57.556 115.835 58.0154C116.27 58.4775 116.333 59.1748 115.986 59.7053L113.831 62.992L122.884 57.7666C123.481 57.4166 124.249 57.5752 124.665 58.133C125.077 58.6908 125.009 59.4674 124.503 59.9432L118.974 65.1631L131.79 57.7666C132.416 57.3974 133.226 57.5943 133.622 58.2068C134.019 58.8193 133.863 59.6342 133.27 60.0607L132.87 60.3478L137.15 57.876C137.773 57.5068 138.585 57.7037 138.984 58.3189C139.378 58.9342 139.222 59.7463 138.629 60.1728L133.333 63.9545L140.382 59.8857C141.008 59.5193 141.809 59.7162 142.208 60.3178C142.608 60.9248 142.463 61.7342 141.88 62.1662L129.359 71.4686L141.495 64.4631C142.121 64.0912 142.927 64.2936 143.324 64.9006C143.723 65.5131 143.57 66.3252 142.982 66.7518L132.28 74.5174L141.495 69.199C142.126 68.8326 142.944 69.0322 143.335 69.6529C143.729 70.2736 143.559 71.0912 142.952 71.5096L141.626 72.4229C142.219 72.1522 142.947 72.3545 143.318 72.9205C143.718 73.5248 143.578 74.3369 142.999 74.769L137.434 78.9334L141.495 76.59C142.113 76.2264 142.917 76.4151 143.313 77.0112C143.712 77.61 143.584 78.4166 143.015 78.8541L141.295 80.1803L141.495 80.0654C142.066 79.7291 142.804 79.8604 143.228 80.3717C143.655 80.883 143.649 81.6268 143.22 82.1326L139.54 86.4694L141.467 85.3565C142.121 84.9737 142.958 85.2006 143.335 85.8569C143.715 86.5104 143.491 87.3471 142.834 87.7244L134.074 92.7858C133.502 93.1194 132.766 92.9909 132.34 92.4795C131.913 91.9682 131.919 91.2244 132.348 90.7186L136.031 86.3819L124.935 92.7858C124.722 92.9116 124.484 92.969 124.252 92.969L124.257 92.9608Z" fill="#5FC8E0"/>
<path d="M43.2601 117.573C42.798 117.573 42.3468 117.338 42.0898 116.914C41.7042 116.28 41.9011 115.451 42.5273 115.049L54.9523 107.182L37.2718 117.387C36.632 117.762 35.8144 117.551 35.4234 116.922C35.0351 116.293 35.2183 115.467 35.8363 115.06L71.3203 91.7767L26.9632 117.384C26.3179 117.759 25.503 117.551 25.112 116.917C24.7237 116.285 24.9124 115.459 25.5331 115.055L67.782 87.6013L16.1979 117.384C15.5526 117.764 14.7351 117.548 14.3468 116.911C13.9585 116.28 14.1526 115.451 14.7761 115.049L61.9441 84.8013L9.46044 115.112C8.81512 115.489 7.99481 115.276 7.60653 114.636C7.22098 114.002 7.41512 113.173 8.0413 112.774L57.5691 81.2713L9.04755 109.288C8.3995 109.662 7.57372 109.449 7.18817 108.804C6.80536 108.164 7.01043 107.333 7.64481 106.939L30.8105 92.6572L9.04755 105.222C8.40223 105.599 7.57919 105.386 7.19364 104.746C6.80809 104.112 7.00223 103.283 7.6284 102.884L50.6265 75.5373L9.04755 99.5424C8.3995 99.917 7.57372 99.701 7.1909 99.0639C6.80536 98.424 7.0077 97.5955 7.63934 97.199L29.6402 83.4697L9.04755 95.3588C8.3995 95.7334 7.57372 95.5174 7.1909 94.8775C6.80536 94.2377 7.0077 93.4092 7.64208 93.0127L19.873 85.4084L9.04755 91.6564C8.40223 92.031 7.58192 91.8232 7.19637 91.1861C6.80809 90.5545 6.9995 89.726 7.6202 89.324L35.4316 71.3837L9.04755 86.6142C8.40223 86.9861 7.59559 86.781 7.20458 86.1549C6.81356 85.5287 6.98856 84.7111 7.60106 84.2982L38.8195 63.2408L9.04755 80.4263C8.41044 80.8009 7.60106 80.5959 7.20731 79.9697C6.81356 79.3462 6.98583 78.5287 7.59286 78.113L31.382 61.8872L9.04755 74.7798C8.42137 75.1462 7.61473 74.9494 7.21551 74.3396C6.81903 73.7271 6.97489 72.915 7.56551 72.4857L28.5765 57.3837L9.04755 68.6576C8.42411 69.0267 7.6202 68.8298 7.22098 68.2283C6.82176 67.6212 6.96395 66.8119 7.54637 66.3798L22.3858 55.3001L9.04755 63.0001C8.42684 63.3638 7.63114 63.1751 7.22919 62.5818C6.82997 61.9857 6.95575 61.179 7.52176 60.7388L16.712 53.5829L9.04481 58.0072C8.42684 58.3681 7.64208 58.1876 7.23739 57.6025C6.8327 57.0173 6.94481 56.2161 7.49715 55.7677L11.946 52.131L9.04481 53.8017C8.47606 54.1325 7.75692 54.0095 7.32489 53.5146C6.89833 53.0142 6.88192 52.2868 7.28934 51.77L10.8386 47.2939L9.04481 48.3275C8.55809 48.6118 7.9538 48.5681 7.51356 48.2181C7.07606 47.8708 6.89012 47.2939 7.04872 46.7579L7.71044 44.5239C7.49442 44.4064 7.30848 44.2341 7.17723 44.0044C6.79715 43.3509 7.02137 42.5142 7.67762 42.1368L9.04481 41.3466C9.52333 41.0649 10.1304 41.1087 10.5761 41.456C11.0136 41.8032 11.1995 42.3802 11.0409 42.9161L10.6444 44.2478L15.6811 41.3411C16.2444 41.0048 16.9663 41.1306 17.4011 41.6282C17.8276 42.1259 17.844 42.856 17.4366 43.3728L13.8847 47.8544L25.1776 41.3357C25.7929 40.972 26.5804 41.1579 26.9851 41.7403C27.3898 42.3228 27.2776 43.1267 26.7253 43.5751L22.2819 47.2091L32.473 41.3274C33.0937 40.961 33.8894 41.1524 34.2913 41.7458C34.6905 42.3419 34.5648 43.1485 33.9988 43.5888L24.8085 50.7446L41.1327 41.322C41.7589 40.9556 42.5601 41.1524 42.9593 41.7513C43.3585 42.3583 43.2163 43.1677 42.6339 43.5997L27.7862 54.6849L50.9464 41.3138C51.5699 40.9419 52.3792 41.1442 52.7785 41.754C53.175 42.3665 53.0191 43.1786 52.4285 43.6079L31.4175 58.7099L61.564 41.3056C62.2066 40.9364 63.0105 41.136 63.4043 41.7622C63.798 42.3857 63.6257 43.2032 63.0187 43.6189L39.2378 59.8419L71.3531 41.3001C71.9929 40.9255 72.8051 41.1333 73.1961 41.7595C73.5871 42.3856 73.4121 43.2032 72.7996 43.6161L41.5757 64.679L82.0828 41.2919C82.7254 40.9146 83.5484 41.1251 83.934 41.7622C84.3223 42.3939 84.1308 43.2224 83.5101 43.6243L55.7207 61.5509L90.8219 41.2864C91.4699 40.9063 92.2902 41.1224 92.6785 41.7677C93.0641 42.4048 92.8617 43.236 92.2273 43.6325L79.9691 51.256L97.2449 41.2837C97.8902 40.9064 98.7133 41.1224 99.1016 41.7622C99.4871 42.4021 99.2848 43.2306 98.6531 43.6271L76.6414 57.3646L104.502 41.2782C105.147 40.9036 105.97 41.1169 106.356 41.754C106.741 42.3911 106.547 43.2169 105.921 43.6161L62.923 70.9599L111.42 42.9626C112.065 42.5825 112.891 42.7985 113.279 43.4466C113.662 44.0864 113.457 44.9177 112.823 45.3114L89.657 59.5931L111.42 47.0286C112.065 46.654 112.888 46.8673 113.274 47.5044C113.659 48.1415 113.465 48.9673 112.839 49.3665L63.3086 80.8693L111.423 53.0935C112.068 52.7189 112.891 52.9322 113.274 53.5665C113.662 54.1982 113.468 55.0267 112.845 55.4286L65.6711 85.6763L111.423 59.2622C112.068 58.8849 112.883 59.0982 113.274 59.7298C113.662 60.3615 113.473 61.1872 112.853 61.5919L70.6093 89.0396L111.425 65.4775C112.071 65.1029 112.883 65.3134 113.274 65.9423C113.662 66.5712 113.479 67.397 112.861 67.8044L77.3715 91.0931L111.428 71.433C112.073 71.0583 112.897 71.2689 113.282 71.9087C113.668 72.5431 113.471 73.3716 112.845 73.7736L100.428 81.6349L111.428 75.2857C112.068 74.9166 112.877 75.1162 113.271 75.7423C113.662 76.3658 113.49 77.1834 112.88 77.599L85.0961 96.4963L111.428 81.2959C112.073 80.9212 112.891 81.1291 113.277 81.7634C113.665 82.3923 113.479 83.2181 112.861 83.6256L103.282 89.8709L111.428 85.1677C112.065 84.7904 112.886 84.9982 113.274 85.6326C113.665 86.2588 113.482 87.0818 112.869 87.492L105.125 92.6162L111.431 88.9767C112.06 88.6049 112.872 88.8072 113.266 89.4224C113.662 90.0404 113.501 90.8525 112.902 91.2763L100.477 100.051L111.431 93.7291C112.043 93.3627 112.842 93.5486 113.247 94.1447C113.648 94.7381 113.525 95.542 112.962 95.9849L100.857 105.514L111.431 99.4111C112.027 99.0584 112.795 99.2197 113.211 99.7775C113.624 100.335 113.555 101.115 113.05 101.59L105.013 109.156L111.431 105.454C111.997 105.118 112.73 105.249 113.159 105.752C113.586 106.261 113.588 106.996 113.17 107.508L110.08 111.246L111.431 110.466C112.082 110.083 112.921 110.308 113.298 110.967C113.679 111.62 113.454 112.457 112.798 112.834L104.879 117.406C104.308 117.737 103.578 117.611 103.151 117.108C102.725 116.599 102.722 115.864 103.14 115.353L106.227 111.617L96.2004 117.406C95.6043 117.756 94.8359 117.6 94.4203 117.04C94.0074 116.482 94.0758 115.703 94.5816 115.227L102.621 107.658L85.7359 117.403C85.1152 117.764 84.325 117.581 83.9203 116.988C83.5183 116.394 83.6414 115.59 84.2047 115.147L96.3043 105.621L75.8949 117.406C75.2687 117.775 74.4539 117.576 74.0601 116.96C73.6637 116.342 73.825 115.53 74.4238 115.106L86.8461 106.335L67.6672 117.406C67.0246 117.778 66.207 117.576 65.8214 116.941C65.4304 116.315 65.6136 115.492 66.2261 115.082L73.9863 109.947L61.0664 117.406C60.4238 117.781 59.6062 117.573 59.2179 116.938C58.8296 116.31 59.0156 115.484 59.6336 115.076L69.2175 108.826L54.3562 117.406C53.7218 117.781 52.9042 117.576 52.5132 116.949C52.1222 116.326 52.2945 115.508 52.9042 115.093L80.6801 96.201L43.9464 117.406C43.7304 117.532 43.4952 117.589 43.2628 117.589L43.2601 117.573Z" fill="#EBEDED"/>
<path d="M28.6462 117.636C28.2169 117.636 27.7931 117.433 27.5306 117.056C27.1232 116.479 27.2244 115.683 27.7603 115.227L36.8986 107.458L22.7181 115.645C22.0919 116.011 21.2826 115.815 20.8888 115.208C20.4896 114.595 20.6427 113.783 21.2306 113.356L27.238 108.995L22.7181 111.604C22.1001 111.965 21.3044 111.779 20.9052 111.191C20.5033 110.6 20.6208 109.796 21.1841 109.35L34.063 99.0966L22.7208 105.645C22.0919 106.015 21.2798 105.815 20.8861 105.2C20.4896 104.584 20.6509 103.772 21.247 103.346L24.5337 101.013L22.7208 102.061C22.1029 102.422 21.3017 102.236 20.9025 101.64C20.5033 101.043 20.6318 100.234 21.2033 99.7938L32.1244 91.3801L22.7208 96.8079C22.1056 97.1688 21.3154 96.9884 20.9107 96.4005C20.5087 95.8126 20.6236 95.0114 21.1787 94.563L34.8533 83.4915L22.7208 90.497C22.0947 90.8606 21.2962 90.6692 20.897 90.0704C20.4978 89.4661 20.6372 88.6567 21.2142 88.2219L30.6861 81.0715L22.7208 85.6708C22.1029 86.029 21.3072 85.8485 20.9052 85.2551C20.506 84.6618 20.6263 83.8579 21.1896 83.4149L33.2837 73.8911L22.7208 79.9887C22.1029 80.3469 21.3072 80.1665 20.9052 79.5731C20.5033 78.9798 20.6263 78.1758 21.1896 77.7329L30.5959 70.3254L22.7181 74.8727C22.122 75.22 21.3509 75.0641 20.9408 74.5063C20.5251 73.9512 20.5908 73.1747 21.0966 72.6961L28.2361 65.9286L22.7181 69.1114C22.1794 69.4231 21.5013 69.3329 21.0638 68.8899C20.6263 68.4497 20.5443 67.7661 20.8587 67.2329L23.5111 62.7539L23.5001 62.7594C22.8439 63.1368 22.0072 62.9153 21.6326 62.259C21.2525 61.6055 21.4767 60.7688 22.133 60.3914L26.6611 57.7774C27.197 57.4629 27.8751 57.5559 28.3154 57.9989C28.7529 58.4391 28.8349 59.1227 28.5205 59.6559L25.8681 64.1348L36.8931 57.7692C37.4892 57.4192 38.2603 57.575 38.6705 58.1356C39.0861 58.6907 39.0205 59.4672 38.5146 59.9457L31.3752 66.7161L45.717 58.4364C46.3322 58.07 47.1279 58.2559 47.5326 58.852C47.9345 59.4453 47.8115 60.2493 47.2482 60.6922L37.842 68.0997L48.3912 62.0075C49.0064 61.6438 49.8021 61.8297 50.2068 62.4231C50.6088 63.0164 50.4857 63.8204 49.9224 64.2633L37.8256 73.7872L48.5361 67.6047C49.1568 67.2383 49.9607 67.4297 50.3599 68.0313C50.7592 68.6356 50.6197 69.445 50.0428 69.8797L40.5736 77.0274L48.5443 72.4254C49.1596 72.0618 49.9525 72.245 50.3545 72.8329C50.7564 73.4208 50.6416 74.2219 50.0865 74.6704L36.4091 85.7419L48.5525 78.7337C49.1732 78.37 49.9717 78.5586 50.3709 79.1547C50.7701 79.7508 50.6416 80.5602 50.0701 81.0005L39.1517 89.4114L48.5607 83.9809C49.1896 83.6118 50.0045 83.8114 50.3955 84.4266C50.792 85.0419 50.6306 85.854 50.0346 86.2805L46.7451 88.613L48.5662 87.563C49.1814 87.1993 49.9799 87.3852 50.3791 87.9759C50.781 88.5665 50.6635 89.3704 50.1002 89.8161L37.224 100.07L48.5717 93.5184C49.1978 93.1466 50.0045 93.3489 50.401 93.9559C50.8002 94.5684 50.6471 95.3805 50.0592 95.8071L44.0572 100.166L48.5799 97.5544C49.1814 97.1962 49.9689 97.3684 50.3791 97.9509C50.7865 98.5278 50.6853 99.3235 50.1494 99.7802L41.0111 107.549L48.5881 103.174C49.176 102.826 49.9389 102.979 50.3572 103.529C50.7728 104.076 50.7209 104.847 50.2287 105.331L45.7881 109.706L48.5935 108.084C49.0939 107.797 49.7119 107.849 50.1521 108.218C50.5924 108.588 50.7564 109.189 50.5623 109.731L49.2471 113.406C49.6599 113.417 50.2123 113.638 50.4666 114.089C50.8467 114.743 50.6224 115.579 49.9662 115.957L47.4697 117.398C46.9693 117.682 46.3513 117.636 45.9111 117.264C45.4709 116.895 45.3068 116.293 45.5009 115.752L46.7314 112.315L37.8802 117.425C37.2896 117.77 36.5267 117.617 36.1111 117.07C35.6955 116.523 35.7474 115.752 36.2396 115.268L40.6802 110.895L29.3244 117.45C29.1111 117.575 28.8732 117.633 28.6408 117.633L28.6462 117.636Z" fill="#4F5E8E"/>
<path d="M75.6128 92.9662C75.1644 92.9662 74.7241 92.7448 74.4644 92.3401C74.0679 91.7248 74.2238 90.9127 74.8144 90.4862L75.2327 90.1881L70.896 92.6901C70.2698 93.0619 69.4577 92.8596 69.0585 92.2416C68.6648 91.6237 68.8288 90.8088 69.4277 90.3877L72.2195 88.4299L67.8362 90.9592C67.2101 91.3256 66.4007 91.1287 66.0042 90.519C65.6077 89.9092 65.7609 89.0944 66.3542 88.6678L75.6948 81.933L66.4691 87.2569C65.8429 87.6205 65.0444 87.4319 64.6452 86.8276C64.246 86.2233 64.3855 85.4139 64.9651 84.9791L78.8312 74.5803L66.4691 81.717C65.8429 82.0834 65.0444 81.8865 64.648 81.2932C64.2487 80.6916 64.3827 79.885 64.9542 79.4475L76.1952 70.8697L66.4663 76.4861C65.8566 76.8444 65.0718 76.6666 64.6644 76.0897C64.2597 75.51 64.3608 74.7143 64.8995 74.2576L72.5667 67.7744L66.4691 71.2936C65.8593 71.649 65.0745 71.474 64.6671 70.8943C64.2597 70.3146 64.3636 69.5189 64.905 69.0623L66.3296 67.8647C65.8073 68.0916 65.1812 67.9686 64.7819 67.5365C64.3499 67.0635 64.3007 66.3553 64.6644 65.8303L66.6741 62.9318C66.1984 62.9783 65.6569 62.724 65.3835 62.251C65.0034 61.5975 65.2276 60.7607 65.8839 60.3834L70.412 57.7693C70.9616 57.4467 71.6671 57.556 72.1019 58.0264C72.5339 58.4994 72.5831 59.2076 72.2195 59.7326L70.3874 62.374L78.3745 57.7611C78.9843 57.4057 79.7691 57.5779 80.1765 58.1603C80.5839 58.74 80.48 59.5357 79.9386 59.9924L78.555 61.1545L84.4285 57.7639C85.03 57.4057 85.8203 57.5807 86.2304 58.1603C86.6351 58.74 86.5339 59.5357 85.9953 59.9924L78.3226 66.4811L93.2796 57.8486C93.9003 57.4795 94.7042 57.6736 95.1007 58.2725C95.5 58.874 95.366 59.6807 94.7945 60.1182L83.548 68.7014L97.2062 60.8154C97.8269 60.449 98.6308 60.6377 99.03 61.2447C99.4293 61.849 99.2898 62.6584 98.7101 63.0932L84.8523 73.4838L97.7504 66.0381C98.3738 65.6689 99.1832 65.8658 99.5824 66.4783C99.9789 67.0908 99.8257 67.9029 99.2324 68.3295L89.8863 75.0697L97.7504 70.5307C98.3847 70.1588 99.1914 70.3611 99.5878 70.9791C99.9816 71.5971 99.8175 72.4119 99.2187 72.833L96.4406 74.7826L97.7504 74.0279C98.3738 73.6588 99.1859 73.8557 99.5824 74.4682C99.9789 75.0807 99.823 75.8955 99.2324 76.3221L98.1769 77.0768C98.6746 76.9811 99.1886 77.1643 99.5113 77.5799C99.9296 78.1158 99.8886 78.8842 99.4156 79.3709L93.4574 85.526L97.7476 83.0487C98.3027 82.7205 99.0109 82.8354 99.4457 83.3166C99.8777 83.7951 99.916 84.5115 99.5386 85.0311L97.6765 87.6123C98.1386 87.6233 98.5843 87.8666 98.8304 88.2959C99.2105 88.9494 98.9863 89.7862 98.33 90.1635L93.8074 92.7748C93.2496 93.1002 92.5441 92.9909 92.1093 92.5069C91.6773 92.0284 91.639 91.3119 92.0164 90.7924L93.5941 88.6022L86.3589 92.7776C85.7738 93.1221 85.0191 92.9744 84.5953 92.4358C84.1769 91.8998 84.2179 91.1315 84.691 90.6448L90.6492 84.4897L76.2937 92.7776C76.0804 92.9034 75.8425 92.9608 75.6101 92.9608L75.6128 92.9662Z" fill="#5FC8E0"/>
<path d="M13.7088 46.4901C13.2467 46.4901 12.7983 46.255 12.5412 45.8339C12.153 45.1995 12.3471 44.3737 12.9705 43.9718L20.203 39.3479L8.21272 46.2686C7.57014 46.6405 6.75803 46.4354 6.36701 45.8065C5.976 45.1804 6.15647 44.36 6.76623 43.9472L32.0319 27.0514L3.9799 43.2471C3.33732 43.6245 2.51701 43.4085 2.12873 42.7741C1.74044 42.1397 1.93185 41.3139 2.55529 40.912L14.4034 33.3077L4.04826 39.2878C3.40568 39.6624 2.58537 39.4518 2.19709 38.8147C1.8088 38.1831 2.00021 37.3573 2.62365 36.9526L44.1835 10.2541C44.1014 9.71546 44.3503 9.15765 44.8507 8.8678L59.5698 0.372088C60.2124 0.000212952 61.0354 0.208027 61.421 0.845137C61.8093 1.47678 61.6179 2.30256 60.9944 2.70725L52.6054 8.09671L63.3733 1.88147C64.0187 1.50412 64.839 1.7174 65.2245 2.35451C65.6128 2.98616 65.4214 3.81467 64.798 4.21663L52.9116 11.8455L66.589 3.94866C67.2261 3.57405 68.0409 3.77913 68.4347 4.41077C68.8257 5.03694 68.6452 5.85725 68.0355 6.27014L42.7862 23.1549L71.0679 6.82796C71.7159 6.45335 72.5335 6.66663 72.9191 7.30101C73.3073 7.93538 73.1132 8.76116 72.4898 9.16312L65.2737 13.7787L74.021 8.72835C74.6609 8.35374 75.4702 8.56155 75.864 9.18773C76.255 9.8139 76.08 10.6342 75.4675 11.0471L56.037 24.1284L78.1335 11.3725C78.7761 10.9951 79.5909 11.2084 79.982 11.8373C80.3702 12.4662 80.187 13.292 79.5691 13.6995L69.8948 20.0487L81.3464 13.437C81.989 13.0623 82.8066 13.2702 83.1976 13.9073C83.5859 14.5389 83.3945 15.3647 82.7738 15.7694L81.021 16.9014L84.0316 15.1651C84.6714 14.7959 85.4808 14.9955 85.8718 15.619C86.2656 16.2424 86.0933 17.06 85.489 17.4756L72.498 26.3924L87.7749 17.5713C88.3984 17.2049 89.1995 17.3936 89.5988 17.9979C89.998 18.6022 89.8585 19.4116 89.2816 19.8463L72.0632 32.8456L92.8554 20.8389C93.4816 20.467 94.2992 20.6694 94.6929 21.2901C95.0867 21.9081 94.9226 22.7256 94.3183 23.144L87.8242 27.6585L96.0656 22.9034C96.689 22.5342 97.5011 22.7311 97.9003 23.3463C98.2941 23.9616 98.1382 24.7737 97.5421 25.2002L91.3132 29.6409L99.3386 25.0088C99.9484 24.6479 100.736 24.8284 101.141 25.4081C101.548 25.9905 101.444 26.7835 100.9 27.2401L90.2824 36.1624L104.192 28.1315C104.796 27.7815 105.57 27.9428 105.98 28.5116C106.391 29.0776 106.309 29.8624 105.792 30.3299L97.8812 37.4612L108.854 31.1284C109.459 30.7756 110.243 30.9424 110.651 31.5194C111.058 32.0936 110.965 32.8839 110.432 33.346L106.462 36.7858L112.357 33.3842C112.942 33.0397 113.694 33.1874 114.121 33.726C114.539 34.262 114.501 35.0276 114.025 35.5171L110.582 39.08L115.879 36.0257C116.401 35.7194 117.066 35.8014 117.503 36.2143C117.943 36.63 118.055 37.2889 117.782 37.8276L115.843 41.6448L116.245 41.4124C116.899 41.0296 117.736 41.2538 118.113 41.9128C118.493 42.5663 118.269 43.403 117.612 43.7803L113.221 46.3179C112.699 46.6159 112.032 46.5448 111.597 46.1292C111.157 45.7136 111.044 45.0546 111.318 44.5159L113.257 40.6987L103.519 46.3179C102.934 46.6597 102.185 46.512 101.756 45.9761C101.337 45.4401 101.376 44.6745 101.852 44.185L105.294 40.6221L95.4257 46.3179C94.8214 46.6733 94.0367 46.5011 93.6292 45.9268C93.2218 45.3526 93.3148 44.5624 93.848 44.1003L97.8128 40.6632L88.021 46.3151C87.4249 46.6706 86.6429 46.5038 86.2327 45.935C85.8226 45.369 85.9046 44.5843 86.4214 44.1167L94.3347 36.9854L78.1691 46.3151C77.5538 46.6761 76.7745 46.4929 76.3671 45.9159C75.9597 45.3335 76.0636 44.5405 76.6077 44.0839L87.2226 35.1643L67.9124 46.3124C67.2862 46.6788 66.4741 46.4847 66.0776 45.8694C65.6839 45.2542 65.8397 44.4421 66.4358 44.0155L72.6538 39.5858L60.9944 46.3151C60.3683 46.687 59.5507 46.4847 59.1569 45.864C58.7632 45.246 58.9272 44.4284 59.5315 44.01L66.0366 39.4874L54.2077 46.3151C53.5815 46.6788 52.7831 46.4874 52.3839 45.8886C51.9846 45.2843 52.1241 44.4749 52.7011 44.0401L69.9167 31.0436L43.4671 46.3151C42.83 46.6897 42.0206 46.4847 41.6268 45.8612C41.2331 45.2378 41.4053 44.4202 42.0096 44.0046L55.0143 35.0796L35.5538 46.3124C34.9112 46.6843 34.0936 46.4792 33.7026 45.8421C33.3143 45.2104 33.5057 44.3847 34.1264 43.98L35.8655 42.8561L29.8799 46.3124C29.2346 46.6843 28.4225 46.4765 28.0315 45.8475C27.6432 45.2186 27.8264 44.3929 28.4444 43.9854L38.1214 37.6335L23.0905 46.3124C22.4479 46.6815 21.6385 46.4764 21.2475 45.853C20.8565 45.2268 21.0315 44.4065 21.644 43.9936L41.069 30.9151L14.4006 46.3124C14.1846 46.4382 13.9494 46.4956 13.717 46.4956L13.7088 46.4901Z" fill="#F25549"/>
<path d="M99.4428 82.1987C97.8869 74.4713 103.738 60.8459 94.54 57.2447C84.9724 58.683 63.565 51.1224 62.6681 65.4232C63.8603 73.4322 59.8134 83.9705 65.0415 90.6014C69.6462 93.2182 75.3775 91.4655 80.4525 91.9494C87.9666 92.0533 101.267 93.6065 99.4428 82.1932V82.1987ZM89.6099 59.1451C97.5178 58.3931 95.1525 68.0728 95.4806 73.074H83.0365V59.1451H89.6099ZM66.6302 64.5373C65.5994 56.8947 74.333 59.558 79.0744 59.1451V73.074H66.6302V64.5373ZM71.6451 89.8631C64.4345 89.7073 67.1033 80.6865 66.6302 75.9342H79.0744V89.8631H71.6451ZM95.4806 84.9576C96.1752 92.3241 87.6111 89.2971 83.0365 89.8631V75.9342H95.4806V84.9576Z" fill="#262626"/>
<path d="M5.24656 45.2926C9.6161 123.225 -14.0199 117.3 48.3158 116.436C175.202 110.313 155.993 146.891 156.868 44.7567C173.225 37.0567 146.863 26.8602 140.464 21.8781C139.444 16.743 143.04 8.40037 137.992 5.23396C133.081 5.0781 122.368 2.76755 122.822 10.484C103.367 -4.80667 100.507 -0.448073 81.7709 12.3133C73.1931 8.64647 64.4595 -4.1805 54.6021 1.37576C48.6384 8.15975 -19.0593 39.3645 5.24656 45.2926ZM22.8806 114.762C23.0665 97.6997 22.506 80.6071 22.8806 63.5528C22.5962 58.0102 28.5845 58.9426 32.3552 59.1422C37.0064 59.1422 45.8275 57.3321 46.2622 64.0969C46.738 80.8915 46.0052 97.7708 46.2622 114.59C38.4446 114.615 30.7146 114.489 22.8806 114.762ZM50.2244 114.59C50.0931 97.1665 50.4431 79.672 50.1751 62.295C49.2236 55.8883 41.4333 57.0559 36.7876 57.0559C32.079 57.0559 25.0626 55.8418 21.1935 59.2106C15.3474 76.0216 20.6411 96.7235 18.9185 114.803C8.88329 116.589 8.15321 109.433 9.20868 101.298C9.20868 82.6962 9.20868 64.0915 9.20868 45.4895C42.5216 45.67 75.84 45.3774 109.153 45.495C108.221 68.2587 110.974 92.1161 108.152 114.355C88.9049 114.833 69.5291 114.5 50.2244 114.59ZM128.324 59.2461C139.543 57.1106 139.928 64.1708 139.228 73.1969C135.083 73.1969 130.938 73.1969 126.79 73.1969V59.2489H128.321L128.324 59.2461ZM137.076 89.636C133.702 89.9724 130.208 89.6497 126.792 89.7563V75.811H139.231C138.482 80.104 141.216 86.8388 137.079 89.6333L137.076 89.636ZM120.399 89.7563C118.209 89.7563 115.245 90.1938 113.115 89.3216V75.8083H122.819V89.7536L120.399 89.7563ZM122.819 73.1942C119.585 73.1942 116.35 73.1942 113.115 73.1942V59.2571C116.358 59.2161 119.576 59.2626 122.819 59.2461V73.1942ZM152.332 113.644C139.433 115.815 124.87 113.589 111.474 114.355C115.245 108.104 112.185 99.1681 113.112 92.0259C140.407 92.5427 145.526 95.802 143.19 65.2919C143.997 51.1469 121.901 58.4641 113.112 57.1817V45.227C126.374 45.186 139.636 45.2899 152.898 45.2352C152.321 67.9333 154.002 91.222 152.332 113.644ZM126.79 10.3883C126.814 9.3492 126.606 8.19256 127.246 7.33123C139.045 5.81639 136.303 10.1203 136.491 19.398C133.21 17.3746 130.016 15.2391 126.79 13.1117V10.3883ZM93.835 6.60662C97.2119 5.25037 100.209 0.34216 104.062 2.33279C110.692 6.29217 117.069 10.8832 123.626 14.9137C128.862 20.6148 166.307 35.8481 156.403 43.4742C155.728 43.0887 154.459 43.2555 153.639 43.7285C141.129 43.4551 128.638 43.7149 116.128 43.6274C127.219 33.5539 89.6185 20.232 83.3623 13.3469C86.8541 11.1019 90.3459 8.85428 93.835 6.60936V6.60662ZM4.88836 36.1188C23.1759 25.4793 40.9466 9.70741 60.09 2.25349C77.2756 15.2965 100.914 23.8414 114.627 39.9114C114.537 47.4664 78.7302 41.645 71.1478 43.3785C62.756 40.8711 -5.82494 50.1461 4.88836 36.1188Z" fill="#262626"/>
</svg>
