<svg width="120" height="118" viewBox="0 0 120 118" fill="none" xmlns="http://www.w3.org/2000/svg">
<path d="M70.9302 47.8684C70.6559 47.8684 70.3876 47.7563 70.1934 47.544C69.877 47.1976 69.841 46.679 70.1093 46.2946L71.9894 43.5995L67.8187 46.0063C67.3982 46.2526 66.8576 46.1544 66.5452 45.778C66.2329 45.4016 66.2409 44.855 66.5612 44.4845L70.0913 40.4079L63.9983 43.9259C63.5498 44.1902 62.9732 44.0581 62.6768 43.6336C62.3805 43.2091 62.4586 42.6264 62.857 42.2921L64.8093 40.6622L61.5055 42.5684C61.051 42.8327 60.4703 42.6985 60.176 42.264C59.8837 41.8295 59.9718 41.2409 60.3842 40.9165L62.3645 39.3567L47.9221 47.6942C47.4616 47.9645 46.8649 47.8183 46.5766 47.3658C46.2882 46.9133 46.4084 46.3146 46.8489 46.0063L60.9028 36.2011L45.0708 45.3395C44.6003 45.6118 44.0056 45.4637 43.7173 44.9991C43.433 44.5406 43.5671 43.9359 44.0177 43.6376L54.5396 36.6857L44.8206 42.2981C44.352 42.5684 43.7554 42.4182 43.469 41.9617C43.1827 41.5032 43.3149 40.9005 43.7614 40.6001L56.1214 32.3187L45.4373 38.4857C44.9767 38.756 44.3821 38.6099 44.0937 38.1594C43.8034 37.7069 43.9215 37.1102 44.36 36.8018L58.402 26.9046L46.1741 33.9626C45.7156 34.2329 45.1189 34.0867 44.8286 33.6342C44.5402 33.1837 44.6604 32.587 45.0989 32.2767L53.4424 26.414L45.8998 30.769C45.4433 31.0373 44.8566 30.8951 44.5663 30.4566C44.2739 30.0161 44.3721 29.4255 44.7925 29.1051L54.7719 21.5305L43.3129 28.146C42.8543 28.4123 42.2717 28.2721 41.9773 27.8336C41.685 27.3931 41.7851 26.8005 42.2076 26.4821L53.118 18.2067L40.6278 25.4189C40.1573 25.6912 39.5626 25.541 39.2763 25.0825C38.9899 24.624 39.1221 24.0213 39.5686 23.721L39.945 23.4687L39.1541 23.9252C38.6996 24.1915 38.115 24.0554 37.8226 23.6169C37.5303 23.1784 37.6244 22.5877 38.0409 22.2673L38.2471 22.1091L37.8887 22.3154C37.4962 22.5456 36.9977 22.4776 36.6773 22.1532C36.357 21.8288 36.2969 21.3303 36.5292 20.9398L38.2631 18.0145L38.141 18.0826C37.6604 18.3589 37.0477 18.1967 36.7734 17.7162C36.4951 17.2376 36.6593 16.6249 37.1398 16.3486L40.5737 14.3664C40.9642 14.1361 41.4608 14.2042 41.7851 14.5285C42.1055 14.8529 42.1655 15.3515 41.9333 15.7419L40.1993 18.6692L50.2247 12.8807C50.6792 12.6124 51.2639 12.7525 51.5562 13.189C51.8485 13.6255 51.7544 14.2182 51.338 14.5386L51.1297 14.6987L65.0716 6.6496C65.5401 6.37328 66.1348 6.52746 66.4231 6.98598C66.7094 7.4445 66.5773 8.04718 66.1308 8.34752L65.7784 8.58379L65.9485 8.48568C66.4011 8.21738 66.9897 8.35754 67.2841 8.79804C67.5764 9.23854 67.4763 9.83121 67.0538 10.1496L56.1394 18.427L67.5484 11.8415C68.0029 11.5712 68.5915 11.7133 68.8819 12.1538C69.1742 12.5943 69.0761 13.185 68.6556 13.5054L58.6783 21.078L71.9654 13.4073C72.4259 13.137 73.0206 13.2831 73.3109 13.7356C73.5992 14.1862 73.4791 14.7828 73.0406 15.0932L64.6891 20.9598L76.5666 14.1041C77.0251 13.8338 77.6218 13.9799 77.9101 14.4304C78.2005 14.8829 78.0823 15.4796 77.6438 15.788L63.6039 25.6852L81.1098 15.5777C81.5783 15.3034 82.175 15.4556 82.4613 15.9141C82.7476 16.3726 82.6155 16.9753 82.169 17.2757L69.8149 25.5551L82.3692 18.3068C82.8357 18.0325 83.4364 18.1827 83.7227 18.6472C84.007 19.1057 83.8729 19.7104 83.4224 20.0088L72.8944 26.9647L80.1246 22.7899C80.5892 22.5196 81.1818 22.6658 81.4702 23.1183C81.7585 23.5708 81.6384 24.1695 81.1979 24.4778L67.1479 34.281L73.415 30.6629C73.8675 30.3946 74.4502 30.5307 74.7445 30.9672C75.0369 31.4017 74.9488 31.9904 74.5363 32.3147L72.554 33.8765L73.8255 33.1437C74.272 32.8794 74.8506 33.0115 75.147 33.436C75.4433 33.8605 75.3652 34.4431 74.9668 34.7775L73.0126 36.4094L74.244 35.7006C74.6624 35.4543 75.2031 35.5524 75.5174 35.9288C75.8278 36.3053 75.8218 36.8519 75.5014 37.2223L71.9714 41.2969L74.8887 39.613C75.2952 39.3768 75.8077 39.4548 76.1261 39.8032C76.4425 40.1496 76.4785 40.6682 76.2102 41.0527L74.3281 43.7497L74.8627 43.4434C75.3392 43.163 75.9539 43.3292 76.2302 43.8098C76.5085 44.2883 76.3443 44.901 75.8638 45.1773L71.4328 47.7342C71.2766 47.8263 71.1024 47.8684 70.9302 47.8684Z" fill="#F6CA4A"/>
<path d="M51.7746 13.8498C51.4643 13.8498 51.1559 13.7056 50.9637 13.4353C50.6634 13.0188 50.7254 12.4422 51.1079 12.1018L55.2306 8.42762L54.6098 8.78603C54.1934 9.03231 53.6568 8.9362 53.3444 8.56578C53.0321 8.19536 53.0301 7.65274 53.3384 7.28032L56.1696 3.87445C55.9594 3.79837 55.7712 3.6482 55.649 3.43596C55.3707 2.95741 55.5349 2.34472 56.0154 2.0684L59.3592 0.136211C59.7777 -0.110068 60.3143 -0.0139591 60.6247 0.356461C60.937 0.728884 60.939 1.2695 60.6307 1.64192L58.4622 4.25088L62.685 1.81211C63.1275 1.55582 63.6982 1.67396 63.9965 2.09243C64.2968 2.5089 64.2348 3.08556 63.8523 3.42595L59.7297 7.09811L64.0886 4.58326C64.5651 4.30294 65.1798 4.46713 65.4562 4.94968C65.7345 5.42822 65.5703 6.04091 65.0897 6.31723L52.2752 13.7156C52.119 13.8077 51.9468 13.8498 51.7746 13.8498Z" fill="#F6CA4A"/>
<path d="M8.33158 51.5065C8.00521 51.5065 7.68685 51.3463 7.49463 51.054C7.2023 50.6115 7.30842 50.0168 7.7329 49.7005L19.4822 40.9465L7.56671 47.8263C7.09618 48.0986 6.50351 47.9485 6.21518 47.49C5.92885 47.0314 6.061 46.4287 6.50751 46.1284L7.75292 45.2935C7.35047 45.4016 6.90596 45.2514 6.65968 44.889C6.36735 44.4545 6.45545 43.8678 6.86792 43.5415L16.2065 36.1611L8.75206 40.462C8.30755 40.7263 7.7309 40.5981 7.43256 40.1716C7.13622 39.7472 7.21031 39.1665 7.60476 38.8321L14.2243 33.2178L6.20317 37.847C5.74865 38.1193 5.15598 37.9732 4.86364 37.5286C4.57131 37.0841 4.68144 36.4855 5.11193 36.1731L6.79384 34.9437L4.59334 36.2132C4.13882 36.4835 3.55015 36.3393 3.25582 35.8968C2.96349 35.4543 3.06961 34.8596 3.49409 34.5433L6.95202 31.9683L2.86137 34.331C2.46492 34.5633 1.96235 34.4892 1.64399 34.1628C1.32563 33.8365 1.26756 33.3319 1.50784 32.9434L2.36481 31.5459C1.97837 31.6099 1.58192 31.4117 1.37769 31.0533C1.09937 30.5748 1.26356 29.9621 1.7441 29.6857L4.68945 27.9858C5.08389 27.7536 5.58647 27.8236 5.90683 28.154C6.22519 28.4824 6.28326 28.9849 6.04298 29.3734L5.27411 30.6268L20.8097 21.6586C21.2683 21.3903 21.8549 21.5345 22.1473 21.975C22.4396 22.4155 22.3335 23.0122 21.909 23.3285L18.4491 25.9035L21.889 23.9192C22.3475 23.6509 22.9362 23.7931 23.2285 24.2396C23.5208 24.6841 23.4107 25.2807 22.9802 25.5931L21.3063 26.8165L22.8501 25.9275C23.2986 25.6672 23.8732 25.7933 24.1696 26.2178C24.4659 26.6423 24.3918 27.2229 23.9974 27.5573L17.3738 33.1757L27.1289 27.5453C27.5794 27.277 28.1621 27.4132 28.4584 27.8497C28.7508 28.2842 28.6627 28.8708 28.2502 29.1972L18.9096 36.5816L32.3729 28.8087C32.8414 28.5324 33.4381 28.6866 33.7244 29.1451C34.0107 29.6037 33.8786 30.2063 33.4321 30.5067L32.6151 31.0533L33.3159 30.6508C33.7745 30.3845 34.3631 30.5267 34.6535 30.9672C34.9458 31.4097 34.8397 32.0044 34.4152 32.3207L22.6639 41.0767L27.4132 38.3356C27.8397 38.0853 28.3883 38.1894 28.7027 38.5838C29.0091 38.9743 28.983 39.5329 28.6386 39.8933L25.1947 43.4994L27.5514 42.1399C27.9799 41.8896 28.5265 41.9917 28.8369 42.3842C29.1452 42.7706 29.1232 43.3292 28.7848 43.6896L27.5474 45.0111L27.9859 44.7589C28.4024 44.5146 28.939 44.6087 29.2533 44.9791C29.5657 45.3515 29.5657 45.8921 29.2533 46.2666L28.6867 46.9473C29.0651 46.8813 29.4796 47.0735 29.6898 47.4379C29.9681 47.9164 29.804 48.5291 29.3234 48.8054L24.9504 51.3303C24.534 51.5746 23.9994 51.4825 23.683 51.1101C23.3707 50.7376 23.3707 50.197 23.683 49.8226L24.1135 49.306L22.7139 50.1129C22.2874 50.3652 21.7388 50.2591 21.4284 49.8687C21.1201 49.4822 21.1421 48.9236 21.4805 48.5632L22.7159 47.2437L20.151 48.7234C19.7245 48.9736 19.1759 48.8695 18.8615 48.4751C18.5552 48.0846 18.5812 47.526 18.9256 47.1656L22.3695 43.5575L8.83615 51.3704C8.67998 51.4625 8.50578 51.5045 8.33559 51.5045L8.33158 51.5065Z" fill="#F6CA4A"/>
<path d="M13.7437 25.0524C13.4513 25.0524 13.167 24.9263 12.9708 24.686C12.6604 24.3096 12.6684 23.7609 12.9888 23.3925L14.7348 21.3883C14.6447 21.3142 14.5686 21.2241 14.5085 21.1179C14.2302 20.6394 14.3944 20.0267 14.8749 19.7504L17.61 18.1706C18.0325 17.9223 18.5691 18.0224 18.8835 18.4009C19.1938 18.7773 19.1858 19.3259 18.8655 19.6943L18.445 20.1789L19.7144 19.4461C20.191 19.1677 20.8057 19.3299 21.082 19.8125C21.3603 20.291 21.1961 20.9037 20.7156 21.18L14.2462 24.9163C14.09 25.0084 13.9178 25.0504 13.7457 25.0504L13.7437 25.0524Z" fill="#F6CA4A"/>
<path d="M92.1065 51.2802C91.7801 51.2802 91.4618 51.1201 91.2695 50.8297C90.9772 50.3852 91.0833 49.7925 91.5078 49.4762L103.535 40.506L91.7461 47.3117C91.2896 47.582 90.7009 47.4379 90.4066 46.9934C90.1162 46.5469 90.2243 45.9522 90.6528 45.6378L99.8192 38.9082L92.4128 43.1851C91.9603 43.4534 91.3716 43.3152 91.0813 42.8767C90.789 42.4402 90.8831 41.8495 91.2976 41.5272L97.885 36.4254L92.1545 39.7331C91.698 40.0054 91.1113 39.8593 90.817 39.4168C90.5247 38.9723 90.6308 38.3796 91.0573 38.0632L93.0175 36.6056L90.5027 38.0572C90.0642 38.3175 89.4855 38.1934 89.1872 37.7709C88.8888 37.3504 88.9569 36.7718 89.3474 36.4334L97.2784 29.5556L87.6234 35.1299C87.253 35.3401 86.7884 35.3021 86.4681 35.0198C86.1457 34.7395 86.0356 34.289 86.1938 33.8925L87.283 31.1654L86.8385 31.4197C86.356 31.698 85.7453 31.5318 85.471 31.0533C85.1926 30.5747 85.3568 29.962 85.8374 29.6857L88.7827 27.9858C89.1531 27.7736 89.6157 27.8156 89.938 28.0959C90.2604 28.3762 90.3705 28.8268 90.2123 29.2232L89.1231 31.9503L105.348 22.5837C105.79 22.3274 106.365 22.4495 106.663 22.87C106.961 23.2905 106.893 23.8691 106.503 24.2075L98.5718 31.0853L107.065 26.1817C107.524 25.9154 108.111 26.0576 108.403 26.4981C108.695 26.9426 108.589 27.5353 108.163 27.8516L106.2 29.3113L109.668 27.309C110.121 27.0407 110.708 27.1789 111 27.6174C111.292 28.0539 111.198 28.6445 110.784 28.9669L104.202 34.0647L114.608 28.0559C115.067 27.7876 115.657 27.9297 115.948 28.3742C116.238 28.8187 116.13 29.4154 115.701 29.7298L106.535 36.4594L117.319 30.2343C117.778 29.966 118.364 30.1102 118.657 30.5487C118.949 30.9932 118.843 31.5859 118.418 31.9022L106.391 40.8724L112.434 37.3845C112.866 37.1262 113.427 37.2423 113.733 37.6488C114.037 38.0532 113.991 38.6219 113.627 38.9723L109.853 42.6024L111.557 41.6193C111.993 41.363 112.556 41.4771 112.86 41.8896C113.162 42.296 113.112 42.8667 112.742 43.2151L112.211 43.7116C112.57 43.6396 112.942 43.7597 113.186 44.048C113.497 44.4225 113.497 44.9651 113.186 45.3375L112.311 46.3747L112.337 46.3607C112.814 46.0803 113.429 46.2465 113.705 46.7271C113.983 47.2056 113.819 47.8183 113.339 48.0946L108.369 50.9659C107.95 51.2122 107.416 51.114 107.099 50.7436C106.789 50.3692 106.789 49.8266 107.099 49.4542L107.976 48.415L105.888 49.6204C105.454 49.8766 104.891 49.7625 104.585 49.35C104.282 48.9436 104.332 48.3729 104.703 48.0245L105.073 47.6761L103.736 48.449C103.301 48.7033 102.741 48.5912 102.436 48.1847C102.132 47.7803 102.178 47.2116 102.542 46.8612L106.317 43.2331L92.6091 51.1461C92.4529 51.2382 92.2767 51.2802 92.1065 51.2802Z" fill="#F6CA4A"/>
<path d="M97.0682 26.6782C96.7859 26.6782 96.5116 26.5581 96.3134 26.3358C95.999 25.9754 95.983 25.4428 96.2753 25.0644L99.0225 21.5144C98.8523 21.4303 98.7041 21.2981 98.602 21.1199C98.3237 20.6414 98.4879 20.0287 98.9684 19.7524L101.704 18.1726C102.116 17.9323 102.643 18.0204 102.959 18.3808C103.273 18.7412 103.289 19.2738 102.997 19.6523L100.975 22.2672L104.282 20.3571C104.759 20.0787 105.374 20.2409 105.65 20.7235C105.928 21.202 105.764 21.8147 105.284 22.091L97.5668 26.5481C97.4106 26.6402 97.2384 26.6822 97.0662 26.6822L97.0682 26.6782Z" fill="#F6CA4A"/>
<path d="M67.8652 97.5749C67.5308 97.5749 67.2044 97.4067 67.0142 97.1043C66.7279 96.6458 66.86 96.0431 67.3065 95.7428L76.2387 89.764L72.8588 91.7162C72.4003 91.9825 71.8076 91.8403 71.5173 91.3938C71.227 90.9473 71.3391 90.3507 71.7736 90.0383L83.7412 81.4085L82.9703 81.853C82.5258 82.1173 81.9511 81.9872 81.6528 81.5647C81.3545 81.1422 81.4265 80.5615 81.819 80.2252L91.3178 72.0839C91.3038 72.0639 91.2917 72.0439 91.2797 72.0238C91.0014 71.5453 91.1656 70.9326 91.6461 70.6563L95.8309 68.2396C96.2734 67.9773 96.8481 68.1034 97.1484 68.5279C97.4467 68.9504 97.3747 69.531 96.9822 69.8674L91.3158 74.7229L99.8835 69.7773C100.342 69.505 100.933 69.6512 101.225 70.0997C101.515 70.5482 101.403 71.1428 100.969 71.4552L88.9911 80.091L101.393 72.9329C101.862 72.6586 102.456 72.8107 102.745 73.2693C103.031 73.7278 102.899 74.3305 102.452 74.6308L93.5543 80.5876L100.344 76.6691C100.795 76.4048 101.371 76.539 101.668 76.9635C101.964 77.3919 101.882 77.9766 101.479 78.307L92.7214 85.5152L94.8858 84.2677C95.3644 83.9874 95.9771 84.1536 96.2534 84.6342C96.5317 85.1127 96.3675 85.7254 95.887 86.0017L83.2446 93.3C82.7961 93.5663 82.2174 93.4301 81.9211 93.0057C81.6248 92.5772 81.7069 91.9925 82.1093 91.6621L90.8573 84.462L68.3697 97.4447C68.2115 97.5368 68.0394 97.5789 67.8692 97.5789L67.8652 97.5749Z" fill="#EFB69A"/>
<path d="M50.9419 77.6442C50.5975 77.6442 50.2592 77.464 50.075 77.1437C49.7966 76.6651 49.9608 76.0524 50.4414 75.7761L68.7622 65.1981C69.1947 64.9458 69.7473 65.0539 70.0556 65.4504C70.36 65.8468 70.3299 66.4095 69.9796 66.7639L66.3955 70.42L69.2928 68.7481C69.7693 68.4658 70.386 68.632 70.6603 69.1145C70.9386 69.5931 70.7744 70.2058 70.2939 70.4821L61.0574 75.8141C60.6289 76.0664 60.0743 75.9583 59.764 75.5619C59.4596 75.1654 59.4896 74.6028 59.84 74.2484L63.4221 70.5942L51.4425 77.5101C51.2843 77.6022 51.1121 77.6442 50.9419 77.6442Z" fill="#F4BFA8"/>
<path d="M66.0487 118C65.7123 118 65.3819 117.828 65.1937 117.522C64.9094 117.057 65.0495 116.452 65.5061 116.156L81.1999 106.069L61.8819 117.221C61.4094 117.498 60.8067 117.341 60.5244 116.873C60.2421 116.408 60.3842 115.802 60.8428 115.509L75.0589 106.469L58.0696 116.276C57.5971 116.552 56.9964 116.398 56.7121 115.928C56.4297 115.461 56.5739 114.855 57.0344 114.562L67.9388 107.678L54.5496 115.407C54.0771 115.685 53.4764 115.529 53.1921 115.057C52.9098 114.592 53.0539 113.984 53.5144 113.693L56.8702 111.581L51.5302 114.662C51.0597 114.939 50.457 114.782 50.1726 114.314C49.8903 113.849 50.0325 113.245 50.491 112.95L52.209 111.857L48.6029 113.937C48.1363 114.208 47.5457 114.062 47.2573 113.609C46.969 113.157 47.0891 112.558 47.5296 112.25L57.8333 105.059L44.296 112.874C43.8415 113.143 43.2568 113 42.9665 112.57C42.6721 112.133 42.7642 111.545 43.1767 111.22L53.9429 102.779L38.8017 111.519C38.3432 111.789 37.7465 111.643 37.4582 111.192C37.1679 110.742 37.286 110.145 37.7225 109.835L44.0437 105.366L35.0054 110.582C34.5469 110.848 33.9622 110.708 33.6699 110.269C33.3776 109.827 33.4797 109.234 33.9022 108.916L44.326 101.063L29.9857 109.342C29.5132 109.613 28.9205 109.464 28.6342 109.004C28.3479 108.545 28.48 107.945 28.9285 107.642L29.387 107.336L27.1325 108.637C26.674 108.902 26.0893 108.764 25.797 108.325C25.5046 107.887 25.6048 107.292 26.0272 106.974L37.4882 98.3017L21.8445 107.334C21.38 107.608 20.7853 107.458 20.497 107.002C20.2086 106.547 20.3328 105.948 20.7753 105.642L26.68 101.573L18.2424 106.445C17.7819 106.713 17.1892 106.567 16.8989 106.121C16.6085 105.67 16.7247 105.073 17.1612 104.763L28.5641 96.6498L13.5851 105.296C13.1206 105.57 12.5259 105.42 12.2376 104.963C11.9493 104.507 12.0754 103.906 12.5199 103.602L24.6957 95.2843L9.22016 104.218C8.75162 104.493 8.14894 104.339 7.86462 103.872C7.58029 103.41 7.72045 102.803 8.17697 102.508L32.4205 86.9368L4.63295 102.979C4.16041 103.255 3.55573 103.097 3.27341 102.629C2.99109 102.16 3.13925 101.553 3.59978 101.263L18.8611 91.6962L2.76283 100.991C2.29029 101.269 1.68961 101.111 1.40529 100.642C1.12296 100.178 1.26513 99.5712 1.72365 99.2788L20.1426 87.5655L2.41643 97.7971C1.9459 98.0735 1.35122 97.9173 1.0629 97.4568C0.778574 96.9962 0.912726 96.3915 1.36524 96.0932L22.4852 82.2375L2.41643 93.8246C1.9459 94.0989 1.34722 93.9448 1.0629 93.4822C0.778574 93.0197 0.914728 92.417 1.36724 92.1207L15.287 83.0104L2.41443 90.4408C1.9439 90.7131 1.34922 90.5629 1.0629 90.1024C0.776571 89.6439 0.908721 89.0432 1.35523 88.7409L13.3729 80.7037L2.41243 87.0309C1.9479 87.3032 1.35523 87.1551 1.0649 86.6985C0.776571 86.242 0.902715 85.6433 1.34722 85.337L9.8769 79.5004L2.41243 83.8073C2.00797 84.0455 1.49339 83.9634 1.17502 83.619C0.858665 83.2727 0.822624 82.7541 1.08893 82.3696L2.57461 80.2312C2.24224 80.2692 1.84178 80.077 1.64155 79.7326C1.36324 79.2541 1.52742 78.6414 2.00797 78.3651L5.31372 76.4549C5.71618 76.2186 6.23076 76.2987 6.55113 76.6431C6.86749 76.9895 6.90353 77.5081 6.63722 77.8925L5.28569 79.8368L31.4914 64.7076C31.962 64.4373 32.5526 64.5834 32.839 65.04C33.1273 65.4965 33.0011 66.0952 32.5566 66.4015L24.023 72.2401L38.6876 63.7745C39.1561 63.4982 39.7508 63.6504 40.0391 64.1129C40.3255 64.5714 40.1933 65.1721 39.7468 65.4744L27.7392 73.5036L45.3171 63.356C45.7877 63.0837 46.3883 63.2359 46.6707 63.6984C46.955 64.159 46.8188 64.7636 46.3663 65.06L32.4465 74.1723L51.9026 62.9396C52.3731 62.6653 52.9698 62.8214 53.2561 63.28C53.5405 63.7405 53.4063 64.3452 52.9538 64.6435L31.8238 78.5052L59.6314 62.451C60.1059 62.1767 60.7086 62.3309 60.9889 62.7994C61.2712 63.2639 61.1291 63.8706 60.6706 64.163L42.2436 75.8823L65.508 62.451C65.9826 62.1787 66.5853 62.3329 66.8676 62.8014C67.1499 63.2699 67.0017 63.8766 66.5412 64.167L51.2979 73.7218L67.9969 64.0829C68.4694 63.8066 69.0701 63.9627 69.3524 64.4293C69.6367 64.8918 69.4966 65.4985 69.0401 65.7928L44.7965 81.3645L46.5746 80.3393C47.0451 80.071 47.6358 80.2172 47.9221 80.6717C48.2104 81.1282 48.0843 81.7289 47.6398 82.0332L35.4639 90.3507L45.8317 84.3659C46.2882 84.0956 46.8809 84.2377 47.1752 84.6903C47.4656 85.1408 47.3494 85.7375 46.9129 86.0478L35.504 94.167L47.3735 87.3152C47.842 87.0469 48.4347 87.1931 48.721 87.6476C49.0093 88.1021 48.8852 88.7008 48.4427 89.0072L42.534 93.0778L50.4369 88.5166C50.8935 88.2483 51.4801 88.3885 51.7725 88.829C52.0648 89.2695 51.9647 89.8621 51.5422 90.1805L40.0852 98.8483L55.0362 90.2165C55.5027 89.9422 56.0994 90.0924 56.3877 90.5549C56.674 91.0134 56.5419 91.6141 56.0934 91.9165L55.6288 92.2268L57.519 91.1356C57.9735 90.8653 58.5622 91.0074 58.8545 91.4479C59.1468 91.8904 59.0447 92.4831 58.6222 92.8015L48.2024 100.65L61.8859 92.7514C62.3445 92.4791 62.9411 92.6273 63.2295 93.0778C63.5198 93.5283 63.4017 94.125 62.9652 94.4353L56.646 98.9044L65.1877 93.9728C65.6422 93.7065 66.2269 93.8447 66.5172 94.2771C66.8115 94.7136 66.7194 95.3023 66.307 95.6267L55.5367 104.072L77.0672 91.6422C77.5257 91.3718 78.1244 91.518 78.4127 91.9705C78.701 92.423 78.5809 93.0217 78.1404 93.3301L67.8287 100.526L91.4555 86.8868C91.93 86.6124 92.5307 86.7666 92.813 87.2352C93.0954 87.6997 92.9532 88.3044 92.4947 88.5987L90.8148 89.6679L101.225 83.6571C101.699 83.3848 102.302 83.537 102.582 84.0075C102.866 84.472 102.72 85.0807 102.26 85.371L98.896 87.4894L110.836 80.5976C111.31 80.3253 111.911 80.4795 112.193 80.946C112.475 81.4125 112.331 82.0192 111.871 82.3116L100.98 89.1874L114.534 81.3645C115.008 81.0902 115.611 81.2444 115.891 81.7129C116.174 82.1774 116.031 82.7841 115.573 83.0764L101.369 92.1087L116.54 83.3507C117.011 83.0764 117.611 83.2326 117.896 83.6951C118.18 84.1597 118.04 84.7643 117.583 85.0607L101.875 95.1581L117.421 86.184C117.88 85.9157 118.466 86.0598 118.758 86.5003C119.051 86.9448 118.945 87.5375 118.518 87.8539L113.028 91.9345L116.262 90.0684C116.738 89.7901 117.353 89.9522 117.629 90.4348C117.908 90.9133 117.743 91.526 117.263 91.8023L99.0501 102.316C98.5936 102.587 98.0049 102.442 97.7126 102C97.4203 101.557 97.5264 100.963 97.9529 100.646L103.439 96.5677L66.5492 117.866C66.3911 117.958 66.2189 118 66.0487 118Z" fill="#F4BFA8"/>
<path d="M116.845 81.885C110.455 78.1949 103.117 84.0135 96.6278 85.2629C99.6752 80.6897 107.814 73.2092 100.164 68.9664C88.004 66.9161 77.2417 87.6956 67.5367 94.2891C61.6601 92.1667 55.407 90.3366 49.7185 87.7397C46.7571 86.3621 48.2108 81.9031 48.9176 79.3982C51.915 75.1394 59.7579 76.9154 64.5213 75.0913C73.3273 74.6709 73.5095 61.6701 64.289 62.2067C54.1816 63.1258 43.9039 62.9295 33.8645 64.2731C23.9072 66.3074 17.0815 76.6071 6.55551 76.4449C-3.79824 77.3439 1.49577 91.568 0.412537 98.542C0.606757 106.771 38.0152 109.879 46.4688 113.759C55.7834 115.647 65.7347 120.643 74.789 115.325C82.2875 108.505 130.841 93.3501 116.845 81.8891V81.885ZM84.4439 80.1371C87.8097 76.8634 91.1555 73.5636 94.5234 70.2939C96.5296 68.5499 99.2988 70.7124 100.118 72.6766C101.786 78.0447 95.6707 82.0492 93.34 86.3521C85.5952 88.9331 77.8845 91.5921 70.1257 94.1189C74.8991 89.4576 79.6725 84.7984 84.4439 80.1371ZM115.497 90.8953C104.326 98.3517 91.6501 103.874 79.9688 110.654C72.9789 115.812 64.8437 117.726 56.6283 114.228C40.0295 110.133 23.4287 106.036 6.82982 101.942C1.64594 101.007 3.56812 94.5514 3.31583 90.7491C3.91852 86.8667 1.78409 81.5467 4.70941 78.5453C36.2833 71.4332 16.1244 64.207 63.5642 63.8586C68.8662 63.9006 70.4841 72.0339 65.14 73.4174C58.5425 75.9063 46.1044 72.8588 45.4737 82.4957C43.0449 88.5947 49.258 90.0643 53.8011 91.518C58.7708 92.8715 63.5382 96.2554 68.7381 96.1252C76.8994 96.0952 123.544 70.43 115.495 90.8933L115.497 90.8953Z" fill="#262626"/>
<path d="M77.4582 28.182C90.469 17.2897 83.0646 13.9198 69.9297 13.1069C63.7046 -4.22074 56.5385 -3.64809 50.2033 13.2531C32.5192 14.3483 31.458 19.9867 44.5549 30.9892C40.4222 47.8984 44.0463 52.0171 59.3977 42.1058C74.6611 52.2153 79.851 47.3718 75.2878 30.3245C75.7243 29.5716 76.9136 28.7347 77.4582 28.182ZM73.3656 45.6178C69.1408 47.7302 64.5236 40.3499 60.2007 40.6142C55.6475 41.0446 51.4467 47.9905 47.0057 45.4977C43.5538 41.351 47.5883 35.162 47.4622 30.4046C45.0835 26.8325 40.236 24.4158 38.518 20.3491C36.4857 12.9568 48.9178 16.0883 52.3177 13.7416C55.3952 11.0506 57.001 -3.31772 62.2049 3.73829C64.2112 6.92791 64.9701 11.7234 67.6631 14.2362C71.4114 15.6358 81.5729 13.7737 81.5048 19.9687C80.6419 24.7181 74.8633 27.1929 72.3765 31.0273C72.3705 35.5804 75.8104 41.395 73.3656 45.6178Z" fill="#262626"/>
<path d="M35.208 30.5849C33.6001 26.7605 28.4343 27.9499 25.1025 26.9547C21.0439 14.879 15.013 15.3836 10.8463 27.0408C-1.34953 27.6996 -2.54489 32.483 6.6996 40.0616C3.51198 51.7068 7.24823 55.1648 17.5739 48.1548C27.9838 55.2529 32.3607 51.3765 29.065 39.6131C31.1654 36.7719 36.0089 34.6455 35.208 30.5849ZM29.3113 36.2973C23.3405 39.9215 28.4903 44.5587 27.0407 49.5484C22.0851 50.6356 20.0768 42.4263 13.7636 48.1428C5.89869 53.9213 9.0723 43.7138 9.67298 39.485C8.30543 36.8059 4.79544 35.2722 3.47194 32.501C1.80405 27.7997 11.1927 30.1464 13.0949 28.106C14.4444 25.8154 15.3514 23.2145 16.6048 20.8438C20.249 17.6762 20.3391 28.0199 23.3825 28.7187C28.8167 29.3875 37.046 30.0382 29.3113 36.2973Z" fill="#262626"/>
<path d="M114.608 27.8156C112.812 27.5433 111.016 27.271 109.22 27.0007C105.439 15.1552 98.7719 15.5397 94.9355 27.0968C82.8017 27.7515 81.5223 32.5109 90.8108 40.0495C87.6012 51.6727 91.3334 55.1006 101.639 48.1166C112.039 55.2007 116.464 51.3463 113.152 39.573C117.059 36.2051 124.107 28.8968 114.608 27.8156ZM113.523 36.2292C107.338 40.1396 112.622 44.3444 111.144 49.5763C106.316 50.6796 104.376 42.4542 97.8088 48.2268C90.0239 54.0394 93.1595 43.6516 93.7582 39.5129C92.721 36.8419 89.0148 35.4042 87.6913 32.8133C86.1195 27.5593 94.2307 30.0441 96.9198 28.2721C98.8139 25.9195 99.4346 22.4976 101.201 20.0348C104.845 20.0668 104.344 27.0247 107.175 28.6345C112.345 29.5055 121.361 29.6977 113.521 36.2312L113.523 36.2292Z" fill="#262626"/>
</svg>
