<svg width="62" height="52" viewBox="0 0 62 52" fill="none" xmlns="http://www.w3.org/2000/svg">
<path d="M19.2351 30.3299C19.5174 30.0476 19.5174 29.577 19.2351 29.2946L16.9762 27.0358L19.8939 24.1182C20.1762 23.8358 20.1762 23.3652 19.8939 23.0829C19.6115 22.8005 19.1409 22.8005 18.8586 23.0829L15.9409 26.0005L13.3057 23.3652C13.0233 23.0829 12.5527 23.0829 12.2704 23.3652C11.988 23.6476 11.988 24.1182 12.2704 24.4005L14.9057 27.0358L12.2704 29.6711C11.988 29.9534 11.988 30.424 12.2704 30.7064C12.5527 30.9887 13.0233 30.9887 13.3057 30.7064L15.9409 28.0711L18.1998 30.3299C18.5762 30.6123 18.9527 30.6123 19.2351 30.3299Z" fill="#7166F0"/>
<path d="M18.9513 39.6484C18.6689 39.9308 18.6689 40.4013 19.0454 40.6837C19.3277 40.9661 19.7983 40.9661 20.0807 40.5896C24.6924 35.5072 32.5983 35.6013 37.116 40.3072C37.3983 40.5896 37.8689 40.5896 38.1513 40.3072C38.4336 40.0249 38.4336 39.5543 38.1513 39.2719C32.9748 34.0013 24.1277 33.9072 18.9513 39.6484Z" fill="#7166F0"/>
<path d="M54.1521 45.2952L56.5992 20.354C56.6933 19.3187 56.3168 18.2834 55.658 17.5305C54.9992 16.7775 53.9639 16.3069 52.9286 16.3069V9.81282C52.9286 7.36576 51.0462 5.38929 48.5992 5.29518L8.97564 4.73047C6.43446 4.73047 4.55211 6.70694 4.45799 9.05988V10.754C3.32858 11.0364 2.48152 11.7893 2.01093 12.9187C1.44623 13.5775 1.06976 14.4246 0.881522 15.0834C0.410934 16.7775 0.505051 18.5658 0.693286 20.354C1.44623 28.6364 2.19917 36.8246 2.85799 45.1069C3.14035 48.6834 4.08152 50.1893 9.25799 50.4716C24.0345 51.2246 38.8109 51.1305 53.5874 50.8481C54.1521 50.8481 54.8109 50.8481 55.2815 50.5658C55.8462 50.2834 56.2227 49.7187 56.1286 49.154C55.8462 47.9305 53.7756 48.1187 52.5521 48.0246C53.3992 47.4599 53.9639 46.5187 54.1521 45.2952ZM8.97564 6.23635L48.5992 6.80106C50.1992 6.80106 51.6109 8.21282 51.5168 9.81282V16.4011H37.6815C36.6462 16.4011 35.6109 15.9305 34.858 15.1775L32.6933 12.7305C31.5639 11.5069 29.9639 10.754 28.2698 10.754H5.86976V9.24812C5.86976 7.45988 7.28152 6.14223 8.97564 6.23635ZM50.4815 47.2716H8.03446C6.90505 47.2716 5.86976 46.4246 5.77564 45.2011L3.04623 14.5187C2.95211 13.2011 3.9874 12.0716 5.30505 12.0716H28.2698C29.5874 12.0716 30.8109 12.6364 31.658 13.5775L33.8227 16.0246C34.7639 17.154 36.1756 17.8128 37.6815 17.8128H52.9286C53.5874 17.8128 54.1521 18.0952 54.6227 18.5658C55.0933 19.0364 55.2815 19.6952 55.1874 20.2599L52.7403 45.2011C52.6462 46.3305 51.6109 47.2716 50.4815 47.2716Z" fill="#7166F0"/>
<path d="M40.5993 25.812L42.6699 23.7415C42.9522 23.4591 42.9522 22.9885 42.6699 22.7062C42.3875 22.4238 41.9169 22.4238 41.6346 22.7062L39.564 24.7767L36.9287 22.1415C36.6463 21.8591 36.1758 21.8591 35.8934 22.1415C35.6111 22.4238 35.6111 22.8944 35.8934 23.1767L38.5287 25.812L36.0816 28.2591C35.7993 28.5415 35.7993 29.012 36.0816 29.2944C36.364 29.5767 36.8346 29.5767 37.1169 29.2944L39.564 26.8473L42.1993 29.4826C42.4816 29.765 42.9522 29.765 43.2346 29.4826C43.5169 29.2003 43.5169 28.7297 43.2346 28.4473L40.5993 25.812Z" fill="#7166F0"/>
<path d="M53.3989 1.15345C52.5518 2.28286 51.893 3.41227 51.4224 4.72992C51.3283 5.10639 51.5165 5.48286 51.893 5.57698C52.2695 5.67109 52.6459 5.48286 52.7401 5.10639C53.1165 3.97698 53.6812 2.84756 54.4342 1.90639C54.7165 1.62403 54.6224 1.15345 54.3401 0.871094C54.0577 0.871094 53.6812 0.871093 53.3989 1.15345Z" fill="#7166F0"/>
<path d="M59.4224 3.8826C59.2341 3.60024 58.7635 3.41201 58.4812 3.69436L54.0577 6.51789C53.7753 6.70612 53.6812 7.17671 53.8694 7.45907C54.0577 7.74142 54.5282 7.92965 54.8106 7.6473L59.2341 4.82377C59.5165 4.63554 59.6106 4.16495 59.4224 3.8826Z" fill="#7166F0"/>
<path d="M60.7408 8.96484L55.7526 9.34131C55.3761 9.34131 55.0938 9.71779 55.0938 10.0943C55.0938 10.4707 55.4702 10.7531 55.8467 10.7531L60.8349 10.3766C61.2114 10.3766 61.4938 10.0001 61.4938 9.62367C61.3996 9.2472 61.1173 8.96484 60.7408 8.96484Z" fill="#7166F0"/>
</svg>
