<svg width="131" height="116" viewBox="0 0 131 116" fill="none" xmlns="http://www.w3.org/2000/svg">
<path d="M90.9183 18.0429C90.6935 18.0434 90.4741 17.9744 90.29 17.8454C90.1059 17.7165 89.966 17.5339 89.8896 17.3225C89.8131 17.1111 89.8038 16.8812 89.8629 16.6643C89.922 16.4474 90.0466 16.2541 90.2197 16.1107L90.7306 15.6871L86.8966 17.8901C86.6641 18.0251 86.3899 18.0696 86.1266 18.015C85.8633 17.9603 85.6294 17.8104 85.4698 17.594C85.3102 17.3776 85.2361 17.1099 85.2617 16.8422C85.2873 16.5745 85.4108 16.3257 85.6085 16.1434L87.7547 14.1544L81.292 17.8901C81.0597 18.0179 80.7888 18.0568 80.5299 17.9995C80.271 17.9422 80.0418 17.7926 79.8851 17.5787C79.7284 17.3648 79.6549 17.1012 79.6784 16.837C79.7019 16.5729 79.8206 16.3264 80.0126 16.1434L81.9492 14.3967L75.8664 17.8901C75.6303 18.0229 75.3533 18.0631 75.0892 18.003C74.825 17.943 74.5927 17.7868 74.4372 17.565C74.2818 17.3431 74.2144 17.0714 74.2481 16.8026C74.2819 16.5339 74.4143 16.2872 74.6198 16.1107L75.2748 15.5495L71.2312 17.8901C70.9953 18.0245 70.7178 18.0662 70.4528 18.007C70.1878 17.9478 69.9544 17.792 69.7981 17.57C69.6418 17.348 69.5738 17.0756 69.6075 16.8062C69.6412 16.5368 69.774 16.2896 69.9802 16.1128L70.8775 15.3509L66.4781 17.8901C66.2456 18.0251 65.9714 18.0696 65.7081 18.015C65.4448 17.9603 65.2109 17.8104 65.0513 17.594C64.8917 17.3776 64.8176 17.1099 64.8431 16.8422C64.8687 16.5745 64.9922 16.3257 65.1899 16.1434L67.3536 14.1391L60.856 17.8901C60.6234 18.0293 60.3473 18.077 60.0815 18.0238C59.8157 17.9707 59.5792 17.8206 59.4179 17.6027C59.2567 17.3848 59.1823 17.1147 59.2092 16.845C59.2361 16.5752 59.3624 16.3252 59.5635 16.1434L61.8429 14.0037L55.1182 17.8901C54.886 18.0147 54.6166 18.0511 54.3597 17.9926C54.1028 17.9341 53.8757 17.7846 53.7203 17.5718C53.565 17.359 53.4918 17.0972 53.5144 16.8346C53.537 16.5721 53.6537 16.3266 53.8432 16.1434L55.6466 14.5234L49.7974 17.8901C49.5648 18.034 49.2866 18.0853 49.018 18.0339C48.7493 17.9825 48.5098 17.8321 48.3467 17.6124C48.1836 17.3928 48.109 17.12 48.1374 16.848C48.1659 16.5759 48.2955 16.3245 48.5005 16.1434L50.8716 13.923L43.9767 17.8901C43.7441 18.0293 43.468 18.077 43.2022 18.0238C42.9364 17.9707 42.6998 17.8206 42.5386 17.6027C42.3773 17.3848 42.3029 17.1147 42.3298 16.845C42.3567 16.5752 42.483 16.3252 42.6841 16.1434L44.9504 14.019L38.252 17.8901C38.0194 18.0271 37.7443 18.0732 37.4798 18.0193C37.2152 17.9654 36.9801 17.8154 36.8197 17.5982C36.6592 17.3811 36.585 17.1122 36.6112 16.8436C36.6374 16.5749 36.7623 16.3254 36.9616 16.1434L39.1668 14.0867L32.5862 17.8901C32.3619 18.0185 32.0993 18.0632 31.8452 18.0162C31.591 17.9692 31.3618 17.8335 31.1983 17.6333C31.0348 17.4331 30.9476 17.1814 30.9523 16.923C30.957 16.6645 31.0532 16.4161 31.2238 16.222L34.3853 12.6654L25.3266 17.8901C25.0962 18.0248 24.8244 18.0704 24.5627 18.0183C24.3009 17.9662 24.0673 17.82 23.906 17.6074C23.7447 17.3947 23.6668 17.1303 23.6872 16.8642C23.7076 16.5981 23.8248 16.3487 24.0166 16.1631L26.5842 13.6675L19.2701 17.8901C19.0374 18.034 18.7593 18.0853 18.4906 18.0339C18.222 17.9825 17.9824 17.8321 17.8193 17.6124C17.6563 17.3928 17.5816 17.12 17.6101 16.848C17.6386 16.5759 17.7681 16.3245 17.9732 16.1434L20.3399 13.9142L13.4428 17.8901C13.2134 18.0175 12.9459 18.0581 12.6891 18.0044C12.4323 17.9508 12.2034 17.8064 12.0443 17.5977C11.8852 17.3891 11.8066 17.1301 11.8229 16.8683C11.8391 16.6064 11.9491 16.3592 12.1328 16.1718L14.8466 13.4623L7.16785 17.8901C6.9313 18.0218 6.65425 18.0608 6.3905 17.9997C6.12675 17.9386 5.89512 17.7817 5.74058 17.5594C5.58604 17.3371 5.51961 17.0653 5.55419 16.7968C5.58877 16.5283 5.7219 16.2822 5.92772 16.1063L6.32072 15.781L4.36664 16.9054C4.13788 17.0297 3.87222 17.0682 3.6176 17.0139C3.36297 16.9595 3.13615 16.816 2.97804 16.6091C2.81994 16.4023 2.74097 16.1457 2.75538 15.8858C2.76979 15.6258 2.87664 15.3796 3.05664 15.1915L4.85134 13.3859L2.90599 14.5081C2.68589 14.6358 2.4281 14.6826 2.17718 14.6404C1.92625 14.5982 1.69794 14.4696 1.53171 14.277C1.36548 14.0844 1.27176 13.8397 1.26675 13.5853C1.26175 13.3309 1.34576 13.0827 1.50429 12.8837L2.59595 11.4995C2.38616 11.4452 2.19726 11.3298 2.05329 11.1678C1.90933 11.0058 1.81683 10.8047 1.78756 10.59C1.75829 10.3753 1.79359 10.1567 1.88895 9.96215C1.98431 9.76756 2.13542 9.60576 2.32304 9.49735L5.94737 7.41008C6.16721 7.28476 6.42376 7.23972 6.67315 7.28264C6.92253 7.32556 7.14926 7.45378 7.31456 7.64538C7.47986 7.83699 7.57346 8.08006 7.57935 8.33305C7.58525 8.58603 7.50308 8.8332 7.34689 9.0323L6.7683 9.75061L10.8424 7.41008C11.0712 7.28576 11.3368 7.24729 11.5914 7.30162C11.8461 7.35594 12.0729 7.49948 12.231 7.70633C12.3891 7.91318 12.4681 8.16973 12.4537 8.42968C12.4393 8.68964 12.3324 8.93589 12.1524 9.124L10.3599 10.9296L16.4667 7.41008C16.7032 7.27841 16.9803 7.23933 17.244 7.30044C17.5078 7.36155 17.7394 7.51849 17.8939 7.74078C18.0485 7.96307 18.1149 8.23486 18.0803 8.50338C18.0458 8.77189 17.9126 9.01798 17.7068 9.19386L17.3094 9.52355L20.9753 7.41008C21.2046 7.28263 21.4721 7.24203 21.7289 7.29572C21.9858 7.34941 22.2146 7.49378 22.3737 7.70243C22.5328 7.91107 22.6114 8.17001 22.5951 8.43187C22.5789 8.69373 22.4689 8.94098 22.2853 9.12836L19.5692 11.8379L27.2502 7.41008C27.4828 7.26619 27.761 7.21487 28.0296 7.26629C28.2983 7.3177 28.5378 7.4681 28.7009 7.68771C28.864 7.90732 28.9386 8.18015 28.9101 8.4522C28.8817 8.72424 28.7521 8.97568 28.5471 9.15675L26.1781 11.3881L33.0797 7.41008C33.3101 7.27538 33.5819 7.22977 33.8436 7.28186C34.1054 7.33395 34.339 7.48014 34.5003 7.69279C34.6616 7.90544 34.7394 8.16982 34.7191 8.43595C34.6987 8.70207 34.5815 8.95151 34.3897 9.1371L31.8221 11.6261L39.1384 7.41008C39.3627 7.28164 39.6253 7.23696 39.8795 7.28398C40.1336 7.33101 40.3629 7.46669 40.5264 7.66687C40.6899 7.86706 40.777 8.11876 40.7723 8.37719C40.7677 8.63562 40.6714 8.88401 40.5008 9.07815L37.335 12.6304L46.3936 7.41008C46.6262 7.27301 46.9013 7.22698 47.1658 7.28088C47.4304 7.33478 47.6655 7.48478 47.8259 7.70191C47.9863 7.91904 48.0606 8.18791 48.0344 8.4566C48.0082 8.72528 47.8833 8.97472 47.684 9.15675L45.4766 11.2134L52.0594 7.41008C52.292 7.27088 52.568 7.22321 52.8339 7.27632C53.0997 7.32944 53.3362 7.47956 53.4975 7.69745C53.6587 7.91535 53.7331 8.18545 53.7062 8.45518C53.6793 8.72492 53.553 8.97499 53.3519 9.15675L51.0812 11.2811L57.7863 7.41008C58.0189 7.26619 58.2971 7.21487 58.5657 7.26629C58.8344 7.3177 59.0739 7.4681 59.237 7.68771C59.4001 7.90732 59.4747 8.18015 59.4462 8.4522C59.4178 8.72424 59.2882 8.97568 59.0832 9.15675L56.723 11.3772L63.6048 7.41008C63.837 7.28549 64.1064 7.24908 64.3634 7.30758C64.6203 7.36607 64.8474 7.51552 65.0027 7.72835C65.1581 7.94117 65.2312 8.20301 65.2087 8.46554C65.1861 8.72807 65.0693 8.97357 64.8799 9.15675L63.0765 10.7768L68.9256 7.41008C69.1582 7.27088 69.4343 7.22321 69.7001 7.27632C69.9659 7.32944 70.2025 7.47956 70.3637 7.69745C70.525 7.91535 70.5994 8.18545 70.5725 8.45518C70.5456 8.72492 70.4193 8.97499 70.2182 9.15675L67.9366 11.2986L74.67 7.41008C74.9025 7.27503 75.1767 7.23056 75.44 7.2852C75.7033 7.33983 75.9372 7.48973 76.0968 7.70615C76.2564 7.92256 76.3305 8.19028 76.3049 8.45797C76.2793 8.72566 76.1559 8.97448 75.9581 9.15675L73.7988 11.1589L80.2855 7.41008C80.5215 7.27339 80.8001 7.22997 81.0664 7.28837C81.3328 7.34676 81.5677 7.50273 81.7248 7.7256C81.882 7.94846 81.9501 8.22207 81.9156 8.49259C81.8812 8.76311 81.7467 9.01094 81.5387 9.18731L80.6414 9.9493L85.0386 7.41008C85.2748 7.27513 85.5528 7.2332 85.8183 7.29252C86.0838 7.35184 86.3175 7.50813 86.4738 7.73078C86.63 7.95343 86.6976 8.2264 86.6631 8.49621C86.6286 8.76603 86.4947 9.01327 86.2875 9.1895L85.615 9.7528L89.676 7.41008C89.9083 7.28226 90.1792 7.24336 90.4381 7.30066C90.697 7.35796 90.9262 7.50753 91.0829 7.72144C91.2396 7.93536 91.3131 8.19899 91.2896 8.46312C91.2662 8.72724 91.1474 8.9738 90.9555 9.15675L89.021 10.9034L95.1016 7.41008C95.3341 7.27695 95.6074 7.23397 95.8696 7.28931C96.1317 7.34465 96.3643 7.49445 96.5232 7.71019C96.682 7.92594 96.756 8.19256 96.731 8.4593C96.706 8.72604 96.5838 8.97427 96.3876 9.15675L94.2414 11.1458L100.711 7.41008C100.947 7.27626 101.225 7.23555 101.49 7.29591C101.755 7.35627 101.988 7.51336 102.144 7.73644C102.299 7.95952 102.366 8.23254 102.33 8.50209C102.295 8.77163 102.16 9.01831 101.953 9.19386L101.444 9.61743L105.272 7.41008C105.495 7.28285 105.757 7.23871 106.01 7.28543C106.263 7.33215 106.491 7.46673 106.654 7.66543C106.818 7.86413 106.906 8.11418 106.903 8.37145C106.9 8.62873 106.806 8.87669 106.638 9.0716L103.451 12.7178L112.66 7.41008C112.896 7.27821 113.172 7.23832 113.435 7.2981C113.698 7.35788 113.93 7.51309 114.086 7.73377C114.241 7.95444 114.309 8.22492 114.277 8.49296C114.245 8.76101 114.114 9.00761 113.911 9.18513L112.985 9.97113L117.415 7.41008C117.635 7.28352 117.892 7.23749 118.142 7.2799C118.392 7.32231 118.62 7.45051 118.786 7.64247C118.952 7.83443 119.046 8.07817 119.051 8.3318C119.057 8.58543 118.974 8.83311 118.817 9.0323L115.555 13.1391L125.162 7.59785C125.378 7.47329 125.631 7.42681 125.878 7.46617C126.125 7.50553 126.35 7.62834 126.518 7.81411C126.685 7.99987 126.783 8.23734 126.796 8.48686C126.809 8.73638 126.736 8.98286 126.59 9.18513L123.485 13.4186L128.087 10.7615C128.307 10.6348 128.564 10.5885 128.814 10.6306C129.064 10.6727 129.292 10.8006 129.458 10.9922C129.624 11.1839 129.718 11.4273 129.724 11.6809C129.73 11.9344 129.648 12.1821 129.491 12.3815L128.376 13.7985C128.588 13.8494 128.78 13.9627 128.927 14.1239C129.075 14.285 129.17 14.4866 129.202 14.7026C129.233 14.9187 129.199 15.1392 129.104 15.3357C129.009 15.5322 128.857 15.6956 128.668 15.805L125.055 17.8901C124.835 18.0155 124.579 18.0608 124.329 18.0182C124.08 17.9756 123.853 17.8477 123.688 17.6565C123.522 17.4652 123.428 17.2223 123.422 16.9695C123.416 16.7166 123.497 16.4694 123.653 16.27L124.271 15.484L120.083 17.8901C119.867 18.0135 119.614 18.0591 119.368 18.0192C119.122 17.9794 118.897 17.8565 118.731 17.6711C118.564 17.4856 118.466 17.2487 118.453 16.9998C118.439 16.7509 118.512 16.5049 118.658 16.3028L121.751 12.0715L111.68 17.8901C111.46 18.0154 111.203 18.0604 110.954 18.0175C110.704 17.9746 110.478 17.8464 110.312 17.6548C110.147 17.4632 110.054 17.2201 110.048 16.9671C110.042 16.7141 110.124 16.467 110.28 16.2679L113.555 12.1545L103.606 17.8901C103.37 18.0219 103.094 18.0618 102.831 18.0021C102.567 17.9423 102.336 17.7871 102.18 17.5664C102.025 17.3457 101.956 17.0752 101.989 16.8072C102.021 16.5392 102.151 16.2926 102.355 16.115L103.276 15.3312L98.8417 17.8901C98.618 18.0173 98.3566 18.0615 98.1036 18.0147C97.8506 17.968 97.6222 17.8334 97.4588 17.6347C97.2953 17.436 97.2073 17.186 97.2103 16.9287C97.2132 16.6714 97.3069 16.4235 97.4749 16.2286L100.652 12.5868L91.4642 17.8901C91.2989 17.9882 91.1106 18.0409 90.9183 18.0429Z" fill="#9B51E0"/>
<path d="M26.9336 24.5426C26.7227 24.5425 26.5163 24.4814 26.3394 24.3666C26.1625 24.2518 26.0227 24.0882 25.9368 23.8956C25.8509 23.703 25.8226 23.4896 25.8553 23.2813C25.8881 23.073 25.9805 22.8786 26.1214 22.7217L27.2895 21.4117L23.5298 23.5819C23.3026 23.7133 23.0356 23.7584 22.7779 23.709C22.5201 23.6597 22.2888 23.5191 22.1262 23.313C21.9637 23.107 21.8808 22.8493 21.8927 22.5871C21.9047 22.3249 22.0107 22.0758 22.1914 21.8855L26.7174 17.1127L20.7962 20.5383C20.5593 20.6727 20.2807 20.7137 20.0152 20.6532C19.7496 20.5927 19.5163 20.4351 19.3609 20.2114C19.2056 19.9877 19.1395 19.714 19.1756 19.4441C19.2117 19.1741 19.3474 18.9274 19.5561 18.7524L21.8508 16.8616L20.2613 17.7786C20.0309 17.9133 19.7591 17.9589 19.4973 17.9068C19.2355 17.8547 19.0019 17.7085 18.8406 17.4959C18.6793 17.2832 18.6015 17.0189 18.6219 16.7527C18.6423 16.4866 18.7595 16.2372 18.9513 16.0516L24.8026 10.3487L20.2613 12.9687C20.0247 13.1025 19.7466 13.1432 19.4816 13.0829C19.2165 13.0225 18.9835 12.8654 18.8281 12.6424C18.6728 12.4193 18.6062 12.1463 18.6415 11.8767C18.6768 11.6072 18.8114 11.3605 19.019 11.1849L19.9251 10.4339C19.7075 10.4766 19.482 10.452 19.2787 10.3634C19.0754 10.2748 18.9039 10.1264 18.787 9.93797C18.6702 9.74951 18.6135 9.52992 18.6245 9.30843C18.6355 9.08694 18.7137 8.87406 18.8487 8.69812L21.318 5.47552C21.0811 5.54685 20.827 5.53655 20.5966 5.44629C20.3662 5.35603 20.1728 5.19102 20.0473 4.97772C19.9745 4.85342 19.9271 4.71595 19.9077 4.57322C19.8882 4.43049 19.8973 4.28533 19.9342 4.14611C19.9711 4.00688 20.0353 3.87634 20.1229 3.76201C20.2105 3.64768 20.3199 3.55182 20.4447 3.47995L24.9205 0.894886C25.139 0.768455 25.3945 0.721624 25.6436 0.762363C25.8927 0.803102 26.1199 0.928892 26.2867 1.11833C26.4535 1.30777 26.5495 1.54914 26.5584 1.80138C26.5672 2.05363 26.4884 2.30115 26.3353 2.50182L23.9053 5.68512L29.7435 2.31624C29.9802 2.18242 30.2582 2.14171 30.5233 2.20207C30.7883 2.26243 31.0213 2.41951 31.1767 2.64259C31.3321 2.86567 31.3986 3.1387 31.3633 3.40824C31.328 3.67779 31.1934 3.92447 30.9858 4.10002L30.3614 4.61747L31.2675 4.09565C31.4979 3.96096 31.7697 3.91534 32.0315 3.96743C32.2932 4.01953 32.5269 4.16572 32.6882 4.37837C32.8495 4.59102 32.9273 4.85539 32.9069 5.12152C32.8865 5.38765 32.7693 5.63708 32.5775 5.82267L26.7218 11.5277L32.1386 8.40337C32.3755 8.26899 32.6541 8.22802 32.9197 8.28851C33.1852 8.34899 33.4186 8.50656 33.5739 8.73027C33.7293 8.95399 33.7954 9.22769 33.7593 9.49765C33.7232 9.76761 33.5875 10.0143 33.3788 10.1893L31.0841 12.0801L32.1386 11.4731C32.3656 11.3433 32.6316 11.2993 32.8882 11.349C33.1449 11.3987 33.3752 11.5389 33.5372 11.7441C33.6993 11.9492 33.7824 12.2057 33.7713 12.4669C33.7602 12.7281 33.6558 12.9767 33.477 13.1674L28.9553 17.9358L32.1365 16.0996C32.3614 15.9699 32.6253 15.9246 32.8807 15.9719C33.136 16.0192 33.3662 16.1559 33.5298 16.3577C33.6934 16.5594 33.7797 16.8128 33.7732 17.0725C33.7667 17.3321 33.6679 17.5809 33.4945 17.7742L31.6692 19.8069C31.8805 19.859 32.0713 19.9731 32.2173 20.1345C32.3633 20.2959 32.4577 20.4972 32.4884 20.7126C32.5192 20.928 32.4848 21.1477 32.3898 21.3434C32.2948 21.5392 32.1435 21.7021 31.9552 21.8112L27.4794 24.3963C27.3139 24.4932 27.1254 24.5437 26.9336 24.5426Z" fill="#D0E2E8"/>
<path d="M92.0559 48.6094C91.8306 48.6096 91.6108 48.5401 91.4266 48.4104C91.2424 48.2807 91.1028 48.0972 91.027 47.8851C90.9512 47.673 90.9429 47.4426 91.0032 47.2255C91.0635 47.0085 91.1894 46.8154 91.3638 46.6728L91.5821 46.4981L88.1783 48.4631C87.9522 48.5928 87.6872 48.6374 87.4312 48.5887C87.1751 48.5401 86.9449 48.4014 86.7822 48.1978C86.6195 47.9942 86.535 47.7391 86.544 47.4786C86.5529 47.2182 86.6548 46.9695 86.8312 46.7776L89.8878 43.4611L81.22 48.4566C80.994 48.5848 80.7296 48.6282 80.4744 48.579C80.2193 48.5297 79.99 48.3911 79.828 48.188C79.6659 47.9848 79.5816 47.7305 79.5902 47.4708C79.5988 47.2111 79.6998 46.9629 79.8751 46.771L82.9317 43.472L74.301 48.4566C74.0684 48.598 73.7913 48.6475 73.5241 48.5952C73.2569 48.5429 73.0189 48.3926 72.8568 48.1739C72.6947 47.9552 72.6201 47.6838 72.6478 47.4129C72.6754 47.1421 72.8033 46.8913 73.0063 46.7099L75.325 44.5266L68.5261 48.4566C68.2987 48.588 68.0315 48.633 67.7736 48.5834C67.5156 48.5337 67.2842 48.3928 67.1218 48.1863C66.9594 47.9799 66.8769 47.7218 66.8894 47.4594C66.9019 47.1971 67.0086 46.948 67.1899 46.7579L70.1352 43.686L61.8669 48.4566C61.6437 48.5839 61.3827 48.6285 61.1299 48.5823C60.8771 48.5362 60.6487 48.4023 60.4848 48.2043C60.321 48.0063 60.2323 47.7568 60.2343 47.4999C60.2363 47.2429 60.3289 46.9948 60.4958 46.7994L63.7009 43.0877L54.4021 48.4566C54.1859 48.5804 53.9339 48.6265 53.6878 48.5873C53.4418 48.5481 53.2166 48.426 53.0495 48.2411C52.8825 48.0562 52.7838 47.8198 52.7697 47.571C52.7556 47.3223 52.827 47.0762 52.972 46.8736L56.2012 42.4153L45.7321 48.4566C45.5033 48.5809 45.2377 48.6193 44.9831 48.565C44.7284 48.5107 44.5016 48.3672 44.3435 48.1603C44.1854 47.9535 44.1064 47.6969 44.1208 47.437C44.1353 47.177 44.2421 46.9307 44.4221 46.7426L47.1884 43.9633L39.3917 48.4566C39.1731 48.5816 38.9179 48.6272 38.6695 48.5857C38.4211 48.5441 38.1947 48.4179 38.0287 48.2285C37.8627 48.0391 37.7673 47.7982 37.7586 47.5465C37.75 47.2947 37.8286 47.0478 37.9813 46.8474L41.241 42.6009L31.0928 48.4566C30.874 48.5814 30.6188 48.6268 30.3703 48.5849C30.1219 48.543 29.8956 48.4165 29.7298 48.2268C29.564 48.0371 29.4689 47.7959 29.4607 47.5441C29.4524 47.2923 29.5315 47.0454 29.6846 46.8453L32.9443 42.6205L22.8311 48.4566C22.6075 48.5838 22.3461 48.6279 22.0931 48.5812C21.8401 48.5345 21.6117 48.3999 21.4482 48.2012C21.2848 48.0025 21.1968 47.7525 21.1997 47.4952C21.2027 47.2379 21.2964 46.9899 21.4643 46.795L24.652 43.1467L15.4514 48.4566C15.219 48.5878 14.9465 48.6294 14.6855 48.5734C14.4245 48.5174 14.193 48.3677 14.0349 48.1526C13.8768 47.9375 13.803 47.6719 13.8275 47.406C13.8519 47.1402 13.973 46.8925 14.1676 46.7099L16.2112 44.8344L9.93635 48.4566C9.715 48.5848 9.45566 48.6312 9.20358 48.5877C8.95151 48.5442 8.72271 48.4136 8.55711 48.2186C8.39152 48.0237 8.29965 47.7767 8.29754 47.5209C8.29543 47.2651 8.38321 47.0167 8.54556 46.8191L11.79 42.8563L4.14833 47.2732C3.91817 47.4059 3.64751 47.4502 3.38707 47.3976C3.12663 47.3451 2.89429 47.1994 2.7336 46.9878C2.5729 46.7762 2.49488 46.5133 2.51416 46.2483C2.53344 45.9833 2.6487 45.7345 2.83833 45.5484L4.23785 44.175L2.87763 44.961C2.65649 45.0894 2.39732 45.136 2.14531 45.0928C1.89331 45.0496 1.66445 44.9194 1.49866 44.7247C1.33287 44.5301 1.24065 44.2834 1.23809 44.0278C1.23553 43.7721 1.3228 43.5236 1.48466 43.3257L2.53266 42.0441C2.33318 41.9778 2.15709 41.8552 2.02556 41.6912C1.89403 41.5272 1.81265 41.3287 1.79121 41.1196C1.76977 40.9104 1.80917 40.6996 1.90468 40.5123C2.00019 40.325 2.14774 40.1693 2.32961 40.0638L5.9474 37.9766C6.16813 37.8491 6.42652 37.8029 6.67775 37.846C6.92898 37.889 7.15722 38.0187 7.3229 38.2124C7.48901 38.4069 7.58153 38.6536 7.58433 38.9093C7.58712 39.1651 7.5 39.4138 7.33818 39.6119L6.94518 40.0922L10.6197 37.9766C10.8499 37.8438 11.1205 37.7996 11.381 37.8521C11.6414 37.9047 11.8738 38.0504 12.0345 38.262C12.1952 38.4735 12.2732 38.7365 12.2539 39.0015C12.2346 39.2664 12.1194 39.5153 11.9297 39.7014L10.528 41.0747L15.8947 37.9766C16.116 37.8483 16.3754 37.8019 16.6274 37.8454C16.8795 37.8889 17.1083 38.0195 17.2739 38.2145C17.4395 38.4095 17.5314 38.6564 17.5335 38.9122C17.5356 39.168 17.4478 39.4164 17.2854 39.6141L14.0323 43.5812L23.7437 37.9766C23.9762 37.8453 24.2487 37.8037 24.5097 37.8597C24.7707 37.9157 25.0021 38.0655 25.1602 38.2806C25.3183 38.4957 25.3922 38.7612 25.3677 39.0271C25.3432 39.2929 25.2222 39.5406 25.0275 39.7232L22.9839 41.5987L29.2567 37.9766C29.4803 37.8493 29.7417 37.8052 29.9947 37.8519C30.2477 37.8986 30.4761 38.0332 30.6395 38.2319C30.803 38.4306 30.891 38.6807 30.8881 38.9379C30.8851 39.1952 30.7914 39.4432 30.6234 39.6381L27.4358 43.2864L36.6385 37.9766C36.8574 37.8505 37.1132 37.8042 37.3623 37.8455C37.6115 37.8869 37.8386 38.0134 38.0049 38.2034C38.1713 38.3935 38.2666 38.6353 38.2746 38.8878C38.2827 39.1402 38.2029 39.3876 38.0489 39.5879L34.7892 43.8126L44.9002 37.9766C45.1189 37.8503 45.3745 37.8037 45.6237 37.8448C45.8728 37.8858 46.1 38.012 46.2666 38.2017C46.4331 38.3915 46.5288 38.6331 46.5372 38.8854C46.5457 39.1378 46.4664 39.3852 46.3129 39.5857L43.0531 43.8279L53.1991 37.9766C53.4281 37.8445 53.6972 37.8001 53.9565 37.8514C54.2158 37.9028 54.4477 38.0465 54.609 38.2559C54.7704 38.4653 54.8503 38.7261 54.8339 38.9899C54.8176 39.2537 54.706 39.5027 54.52 39.6905L51.745 42.4655L59.5417 37.9766C59.7579 37.8527 60.0099 37.8066 60.256 37.8458C60.502 37.885 60.7272 38.0072 60.8943 38.192C61.0613 38.3769 61.16 38.6133 61.1741 38.8621C61.1882 39.1108 61.1168 39.3569 60.9718 39.5595L57.7426 44.0178L68.2095 37.9766C68.4327 37.8492 68.6937 37.8047 68.9465 37.8508C69.1994 37.897 69.4278 38.0308 69.5916 38.2288C69.7555 38.4268 69.8442 38.6763 69.8422 38.9333C69.8402 39.1902 69.7476 39.4383 69.5806 39.6337L66.3755 43.3454L75.6743 37.9766C75.9017 37.8467 76.1682 37.8029 76.4252 37.8531C76.6822 37.9034 76.9126 38.0443 77.0743 38.2502C77.2361 38.4562 77.3184 38.7134 77.3063 38.975C77.2942 39.2366 77.1884 39.4851 77.0084 39.6752L74.063 42.7493L82.3357 37.9766C82.5683 37.8351 82.8454 37.7857 83.1126 37.838C83.3798 37.8903 83.6178 38.0405 83.7799 38.2592C83.942 38.4779 84.0166 38.7493 83.9889 39.0202C83.9613 39.291 83.8334 39.5418 83.6304 39.7232L81.3139 41.9066L88.1084 37.9766C88.3345 37.8468 88.5995 37.8023 88.8555 37.8509C89.1116 37.8996 89.3418 38.0383 89.5045 38.2419C89.6672 38.4455 89.7517 38.7006 89.7428 38.961C89.7338 39.2215 89.6319 39.4702 89.4555 39.6621L86.3989 42.9611L95.034 37.9766C95.26 37.8453 95.5257 37.7996 95.7827 37.8477C96.0396 37.8957 96.2708 38.0344 96.4342 38.2385C96.5975 38.4426 96.6822 38.6985 96.6729 38.9597C96.6636 39.221 96.5608 39.4702 96.3833 39.6621L93.3157 42.9742L101.981 37.9766C102.218 37.8416 102.498 37.8003 102.764 37.8609C103.03 37.9215 103.264 38.0796 103.419 38.3039C103.574 38.5283 103.64 38.8027 103.603 39.0731C103.566 39.3435 103.429 39.5902 103.219 39.7647L103.001 39.9394L106.405 37.9744C106.622 37.8494 106.876 37.8032 107.123 37.8433C107.371 37.8835 107.597 38.0076 107.764 38.1949C107.931 38.3821 108.028 38.6211 108.039 38.8716C108.051 39.1221 107.975 39.3688 107.826 39.5704L104.577 43.9371L114.898 37.9766C115.133 37.8414 115.41 37.7987 115.675 37.8567C115.94 37.9147 116.174 38.0692 116.331 38.2902C116.489 38.5113 116.558 38.7829 116.526 39.0523C116.494 39.3216 116.362 39.5694 116.158 39.7472L114.931 40.8062L119.834 37.9678C120.054 37.8422 120.31 37.7967 120.559 37.839C120.809 37.8813 121.036 38.0088 121.201 38.1998C121.367 38.3907 121.461 38.6333 121.468 38.8861C121.475 39.1389 121.394 39.3861 121.238 39.5857L117.976 43.7471L126.483 38.8499C126.693 38.729 126.937 38.6816 127.177 38.715C127.418 38.7484 127.64 38.8608 127.809 39.0345C127.978 39.2082 128.085 39.4332 128.112 39.6742C128.139 39.9151 128.085 40.1582 127.959 40.3651L125.467 44.4327L128.157 42.8803C128.282 42.8013 128.421 42.7483 128.566 42.7244C128.711 42.7005 128.86 42.7062 129.003 42.7413C129.146 42.7763 129.28 42.8399 129.398 42.9282C129.516 43.0166 129.614 43.1278 129.688 43.2553C129.762 43.3828 129.809 43.5238 129.827 43.67C129.844 43.8161 129.832 43.9644 129.791 44.1058C129.75 44.2472 129.681 44.3788 129.588 44.4928C129.495 44.6067 129.379 44.7007 129.249 44.7689L122.837 48.4806C122.626 48.6025 122.381 48.6507 122.141 48.6177C121.9 48.5848 121.677 48.4724 121.507 48.2985C121.338 48.1245 121.231 47.899 121.204 47.6575C121.177 47.416 121.231 47.1725 121.358 46.9653L123.852 42.9L114.188 48.4566C113.969 48.5834 113.712 48.6299 113.462 48.5881C113.212 48.5464 112.984 48.4189 112.818 48.2275C112.652 48.0362 112.557 47.793 112.551 47.5395C112.544 47.2861 112.626 47.0384 112.782 46.8387L116.057 42.6773L106.027 48.4566C105.792 48.5939 105.514 48.6384 105.247 48.5812C104.981 48.524 104.746 48.3693 104.588 48.1474C104.429 47.9256 104.36 47.6527 104.393 47.3822C104.426 47.1118 104.558 46.8634 104.765 46.6859L105.994 45.627L101.088 48.4566C100.871 48.5815 100.617 48.6278 100.37 48.5876C100.122 48.5475 99.8959 48.4233 99.7292 48.2361C99.5624 48.0488 99.4652 47.8098 99.4539 47.5593C99.4425 47.3088 99.5178 47.0621 99.667 46.8605L102.916 42.4939L92.6017 48.4566C92.4367 48.5554 92.2482 48.6081 92.0559 48.6094Z" fill="#9B51E0"/>
<path d="M43.6208 55.1574C43.4126 55.1575 43.2086 55.0981 43.033 54.9861C42.8574 54.8741 42.7176 54.7142 42.6299 54.5253C42.5422 54.3364 42.5104 54.1264 42.5382 53.92C42.566 53.7136 42.6522 53.5195 42.7868 53.3605L45.2823 50.4065L40.0096 53.45C39.7784 53.5915 39.5028 53.6419 39.2365 53.5915C38.9702 53.541 38.7322 53.3933 38.5688 53.177C38.4054 52.9608 38.3283 52.6915 38.3524 52.4215C38.3766 52.1516 38.5004 51.9002 38.6996 51.7165L42.8086 47.8017L38.0599 50.5418C37.8219 50.6789 37.541 50.7212 37.2732 50.6603C37.0054 50.5994 36.7704 50.4398 36.615 50.2134C36.4596 49.9869 36.3953 49.7103 36.4349 49.4385C36.4744 49.1667 36.615 48.9199 36.8285 48.7471L38.4267 47.4633L37.728 47.8651C37.4973 48.0019 37.2243 48.0489 36.9612 47.9973C36.698 47.9457 36.463 47.7991 36.301 47.5853C36.1391 47.3715 36.0615 47.1056 36.0831 46.8383C36.1046 46.5709 36.2239 46.3209 36.418 46.1359L42.0182 40.7059L37.728 43.184C37.4956 43.3135 37.2239 43.3537 36.964 43.2971C36.7041 43.2404 36.4738 43.0907 36.3164 42.8763C36.159 42.6618 36.0853 42.3972 36.1093 42.1322C36.1332 41.8672 36.2531 41.6201 36.4464 41.4373L38.7782 39.3173L37.728 39.9221C37.5041 40.0506 37.2419 40.0957 36.988 40.0492C36.7341 40.0028 36.5048 39.8678 36.3409 39.6683C36.1771 39.4689 36.0892 39.2178 36.0929 38.9597C36.0966 38.7015 36.1917 38.4531 36.3612 38.2584L38.2716 36.0751C38.051 36.0366 37.8475 35.9311 37.6889 35.773C37.5302 35.6149 37.424 35.4119 37.3847 35.1914C37.3453 34.9709 37.3748 34.7436 37.469 34.5404C37.5632 34.3372 37.7177 34.1679 37.9114 34.0555L42.3872 31.4704C42.6113 31.3405 42.8744 31.2946 43.1292 31.3407C43.3841 31.3869 43.6143 31.5222 43.7786 31.7225C43.9429 31.9227 44.0307 32.1749 44.0261 32.4339C44.0216 32.6929 43.9252 32.9419 43.754 33.1363L42.361 34.7236L46.4635 32.3547C46.6959 32.2251 46.9676 32.1849 47.2275 32.2416C47.4875 32.2983 47.7178 32.4479 47.8751 32.6624C48.0325 32.8769 48.1062 33.1415 48.0822 33.4065C48.0583 33.6714 47.9384 33.9185 47.7451 34.1013L45.4133 36.2301L48.5661 34.4114C48.7967 34.2746 49.0697 34.2275 49.3329 34.2791C49.5961 34.3307 49.8311 34.4774 49.993 34.6911C50.155 34.9049 50.2326 35.1708 50.211 35.4382C50.1894 35.7055 50.0702 35.9555 49.8761 36.1406L44.2758 41.5683L49.6075 38.492C49.8454 38.3575 50.1252 38.317 50.3914 38.3788C50.6577 38.4405 50.8911 38.5999 51.0456 38.8254C51.2 39.0509 51.2643 39.3261 51.2256 39.5967C51.1869 39.8673 51.0482 40.1135 50.8367 40.2867L49.2363 41.5749L49.6075 41.3565C49.8387 41.2151 50.1143 41.1647 50.3806 41.2151C50.6469 41.2656 50.8849 41.4133 51.0483 41.6295C51.2117 41.8458 51.2888 42.1151 51.2647 42.3851C51.2405 42.655 51.1167 42.9063 50.9175 43.0901L46.8172 47.0048L49.6053 45.4001C49.8277 45.2724 50.0879 45.227 50.3404 45.272C50.5929 45.317 50.8214 45.4494 50.986 45.646C51.1506 45.8427 51.2408 46.091 51.2406 46.3474C51.2405 46.6039 51.15 46.8521 50.9852 47.0485L48.4896 49.9851L48.756 49.8301C48.8803 49.7511 49.0192 49.698 49.1645 49.6741C49.3098 49.6502 49.4584 49.656 49.6014 49.691C49.7444 49.726 49.8788 49.7896 49.9966 49.878C50.1144 49.9663 50.2131 50.0776 50.2868 50.205C50.3605 50.3325 50.4076 50.4735 50.4254 50.6197C50.4431 50.7659 50.4311 50.9141 50.3901 51.0555C50.3491 51.1969 50.2799 51.3285 50.1867 51.4425C50.0934 51.5565 49.9781 51.6504 49.8477 51.7186L44.171 54.9936C44.0055 55.0963 43.8155 55.1529 43.6208 55.1574Z" fill="#D0E2E8"/>
<path d="M31.6081 79.1762C31.383 79.1767 31.1632 79.1076 30.9789 78.9784C30.7946 78.8492 30.6547 78.6661 30.5784 78.4543C30.5021 78.2425 30.4932 78.0123 30.5529 77.7952C30.6125 77.5782 30.7379 77.3848 30.9116 77.2418L31.2217 76.9885L27.6847 79.0277C27.4623 79.1568 27.2015 79.2032 26.9482 79.1587C26.6949 79.1143 26.4655 78.9819 26.3003 78.7849C26.1351 78.5878 26.0447 78.3388 26.0451 78.0816C26.0456 77.8245 26.1368 77.5758 26.3026 77.3793L29.5383 73.5345L20.019 79.0234C19.7864 79.1648 19.5093 79.2142 19.2421 79.162C18.9749 79.1097 18.7369 78.9594 18.5748 78.7407C18.4127 78.522 18.3381 78.2506 18.3658 77.9797C18.3934 77.7089 18.5213 77.4581 18.7243 77.2767L21.0473 75.0933L14.2375 79.0234C14.005 79.1584 13.7308 79.2029 13.4675 79.1482C13.2042 79.0936 12.9703 78.9437 12.8107 78.7273C12.6511 78.5109 12.577 78.2432 12.6026 77.9755C12.6282 77.7078 12.7516 77.4589 12.9494 77.2767L15.1764 75.196L8.55213 79.0234C8.32002 79.1464 8.05133 79.1816 7.79535 79.1226C7.53937 79.0635 7.31327 78.9141 7.15855 78.7018C7.00383 78.4895 6.93086 78.2285 6.95303 77.9667C6.9752 77.7049 7.09102 77.4599 7.27924 77.2767L9.02591 75.7091L4.63086 78.2417C4.40505 78.37 4.14092 78.4135 3.88589 78.3646C3.63086 78.3156 3.40164 78.1773 3.23938 77.9746C3.07712 77.7718 2.99246 77.5179 3.00059 77.2583C3.00872 76.9987 3.10911 76.7506 3.28374 76.5584L5.62864 74.0017L2.89293 75.5802C2.67245 75.7064 2.41489 75.7517 2.1646 75.7084C1.91432 75.665 1.68697 75.5358 1.52173 75.3429C1.35649 75.1499 1.26369 74.9054 1.25932 74.6515C1.25494 74.3975 1.33927 74.15 1.49778 73.9515L2.57416 72.6131C2.36858 72.5537 2.18498 72.4353 2.04617 72.2724C1.90736 72.1096 1.81946 71.9096 1.79341 71.6972C1.76735 71.4848 1.80429 71.2694 1.89962 71.0779C1.99496 70.8863 2.14449 70.727 2.32963 70.6197L5.94741 68.5433C6.16789 68.4172 6.42545 68.3719 6.67574 68.4152C6.92602 68.4586 7.15336 68.5878 7.31861 68.7807C7.48385 68.9736 7.57665 69.2181 7.58102 69.4721C7.58539 69.7261 7.50107 69.9736 7.34256 70.1721L6.84694 70.7878L10.7464 68.5433C10.9722 68.4151 11.2363 68.3715 11.4913 68.4205C11.7464 68.4695 11.9756 68.6077 12.1379 68.8105C12.3001 69.0133 12.3848 69.2672 12.3767 69.5268C12.3685 69.7863 12.2681 70.0345 12.0935 70.2267L9.74859 72.7659L17.0737 68.5433C17.3058 68.4203 17.5745 68.3851 17.8305 68.4441C18.0864 68.5032 18.3125 68.6526 18.4673 68.8649C18.622 69.0772 18.6949 69.3382 18.6728 69.6C18.6506 69.8618 18.5348 70.1068 18.3466 70.29L16.5999 71.8598L22.3595 68.5433C22.5921 68.4063 22.8672 68.3603 23.1317 68.4142C23.3963 68.468 23.6314 68.618 23.7918 68.8352C23.9523 69.0523 24.0265 69.3212 24.0003 69.5899C23.9741 69.8585 23.8492 70.108 23.6499 70.29L21.4207 72.3729L28.0493 68.5433C28.2819 68.4042 28.558 68.3565 28.8238 68.4096C29.0896 68.4627 29.3262 68.6128 29.4874 68.8307C29.6486 69.0486 29.7231 69.3187 29.6961 69.5885C29.6692 69.8582 29.5429 70.1083 29.3418 70.29L27.0231 72.4734L33.8264 68.5433C34.0488 68.4143 34.3096 68.3679 34.5629 68.4123C34.8162 68.4568 35.0456 68.5892 35.2108 68.7862C35.376 68.9833 35.4664 69.2323 35.4659 69.4894C35.4655 69.7466 35.3743 69.9953 35.2084 70.1918L31.9727 74.0366L41.4833 68.5433C41.7202 68.409 41.9988 68.368 42.2644 68.4285C42.5299 68.489 42.7633 68.6465 42.9186 68.8703C43.074 69.094 43.1401 69.3677 43.104 69.6376C43.0679 69.9076 42.9322 70.1543 42.7235 70.3293L42.4134 70.5869L45.9548 68.5433C46.191 68.4084 46.469 68.3665 46.7345 68.4258C47 68.4851 47.2337 68.6414 47.39 68.8641C47.5462 69.0867 47.6138 69.3597 47.5793 69.6295C47.5448 69.8993 47.4109 70.1465 47.2037 70.3228L46.4482 70.9559L50.6402 68.5433C50.8725 68.4172 51.1426 68.3795 51.4005 68.4374C51.6584 68.4954 51.8866 68.6449 52.0426 68.8582C52.1986 69.0716 52.2719 69.3343 52.2489 69.5976C52.2259 69.8609 52.1081 70.1069 51.9175 70.29L50.0748 71.9537L55.9938 68.5433C56.2181 68.4149 56.4807 68.3702 56.7348 68.4173C56.989 68.4643 57.2182 68.6 57.3817 68.8001C57.5452 69.0003 57.6324 69.252 57.6277 69.5105C57.623 69.7689 57.5268 70.0173 57.3562 70.2114L54.1991 73.7593L63.2381 68.5433C63.4671 68.4175 63.7337 68.378 63.9894 68.432C64.2451 68.486 64.4729 68.63 64.6315 68.8377C64.7901 69.0454 64.8689 69.3032 64.8536 69.5641C64.8383 69.825 64.7299 70.0717 64.5481 70.2595L61.8102 73.0039L69.5479 68.5433C69.7838 68.4089 70.0614 68.3672 70.3264 68.4264C70.5914 68.4856 70.8248 68.6414 70.9811 68.8634C71.1374 69.0855 71.2053 69.3578 71.1716 69.6272C71.138 69.8966 71.0051 70.1439 70.799 70.3206L69.9125 71.0716L74.2923 68.5433C74.5222 68.4125 74.7918 68.3695 75.0509 68.4225C75.3101 68.4754 75.5412 68.6207 75.7014 68.8312C75.8615 69.0418 75.9397 69.3033 75.9215 69.5672C75.9033 69.8311 75.7898 70.0794 75.6023 70.266L72.9561 72.8729L80.4602 68.5433C80.6776 68.4184 80.9314 68.3721 81.1789 68.4123C81.4265 68.4524 81.6526 68.5766 81.8194 68.7638C81.9861 68.9511 82.0834 69.1901 82.0947 69.4406C82.106 69.6911 82.0308 69.9378 81.8816 70.1394L78.6349 74.506L88.9577 68.5433C89.1854 68.4134 89.4521 68.3697 89.7093 68.4202C89.9664 68.4707 90.1969 68.612 90.3584 68.8184C90.52 69.0247 90.602 69.2823 90.5893 69.5441C90.5767 69.8059 90.4703 70.0544 90.2896 70.2442L87.3617 73.2899L95.5885 68.5433C95.8227 68.4099 96.098 68.3678 96.3613 68.4251C96.6247 68.4825 96.8575 68.6352 97.015 68.854C97.1725 69.0727 97.2435 69.342 97.2143 69.6099C97.1852 69.8779 97.0579 70.1256 96.857 70.3053L95.2698 71.7092L100.754 68.5433C100.987 68.4083 101.261 68.3638 101.524 68.4185C101.788 68.4731 102.022 68.623 102.181 68.8394C102.341 69.0558 102.415 69.3235 102.389 69.5912C102.364 69.8589 102.24 70.1078 102.042 70.29L99.8963 72.279L106.365 68.5455C106.593 68.4157 106.859 68.3718 107.116 68.4218C107.373 68.4717 107.603 68.6123 107.765 68.8178C107.927 69.0234 108.009 69.2802 107.998 69.5416C107.986 69.803 107.881 70.0516 107.702 70.242L104.724 73.3794L113.097 68.5433C113.327 68.4135 113.598 68.372 113.857 68.4265C114.116 68.481 114.346 68.6278 114.505 68.8396C114.664 69.0514 114.741 69.3137 114.72 69.5778C114.7 69.8418 114.585 70.0895 114.396 70.2747L111.935 72.6393L119.031 68.5433C119.25 68.4174 119.506 68.3714 119.755 68.413C120.004 68.4547 120.231 68.5816 120.398 68.7719C120.564 68.9623 120.659 69.2044 120.666 69.4569C120.674 69.7095 120.594 69.9568 120.439 70.1568L117.18 74.3619L126.144 69.1874C126.358 69.0657 126.606 69.0193 126.848 69.0559C127.091 69.0925 127.315 69.2099 127.482 69.3891C127.65 69.5684 127.753 69.7989 127.773 70.0436C127.794 70.2883 127.732 70.5328 127.596 70.7376L124.887 74.7855L128.21 72.8685C128.459 72.738 128.749 72.709 129.02 72.7874C129.29 72.8659 129.52 73.0458 129.661 73.2895C129.802 73.5333 129.843 73.8221 129.776 74.0956C129.709 74.369 129.539 74.6061 129.301 74.7571L121.898 79.0234C121.684 79.1459 121.436 79.1928 121.192 79.1563C120.949 79.1199 120.725 79.0022 120.557 78.8224C120.389 78.6426 120.286 78.4113 120.266 78.166C120.246 77.9207 120.309 77.6758 120.446 77.471L123.162 73.4253L113.461 79.0234C113.242 79.1505 112.986 79.1975 112.736 79.1564C112.486 79.1152 112.258 78.9884 112.091 78.7977C111.925 78.607 111.829 78.3642 111.822 78.111C111.815 77.8579 111.896 77.61 112.051 77.4099L115.313 73.2004L105.224 79.0234C104.993 79.1624 104.718 79.2111 104.454 79.16C104.189 79.1089 103.953 78.9618 103.79 78.7468C103.627 78.5318 103.55 78.2643 103.573 77.9957C103.596 77.7271 103.717 77.4764 103.914 77.292L106.376 74.9274L99.2915 79.0234C99.0643 79.1547 98.7973 79.1999 98.5396 79.1505C98.2818 79.1011 98.0505 78.9605 97.8879 78.7545C97.7254 78.5484 97.6425 78.2907 97.6545 78.0285C97.6664 77.7664 97.7724 77.5173 97.9531 77.3269L100.933 74.1895L92.5581 79.0234C92.3255 79.1584 92.0513 79.2029 91.788 79.1482C91.5247 79.0936 91.2909 78.9437 91.1312 78.7273C90.9716 78.5109 90.8975 78.2432 90.9231 77.9755C90.9487 77.7078 91.0722 77.4589 91.2699 77.2767L93.4161 75.2877L86.9469 79.0234C86.7127 79.1568 86.4375 79.1989 86.1741 79.1416C85.9107 79.0842 85.6779 78.9315 85.5204 78.7127C85.3629 78.494 85.2919 78.2247 85.3211 77.9568C85.3503 77.6888 85.4775 77.4411 85.6784 77.2614L87.2679 75.8575L81.7811 79.0234C81.5535 79.1533 81.2868 79.197 81.0296 79.1465C80.7724 79.096 80.542 78.9547 80.3804 78.7483C80.2189 78.542 80.1369 78.2844 80.1495 78.0226C80.1622 77.7608 80.2686 77.5123 80.4493 77.3225L83.3793 74.2659L75.1482 79.0234C74.9308 79.1483 74.677 79.1946 74.4294 79.1544C74.1819 79.1143 73.9558 78.9901 73.789 78.8029C73.6222 78.6156 73.525 78.3766 73.5137 78.1261C73.5024 77.8756 73.5776 77.6289 73.7268 77.4273L76.9734 73.0607L66.6506 79.0234C66.4207 79.1542 66.1512 79.1972 65.892 79.1442C65.6328 79.0913 65.4017 78.946 65.2416 78.7355C65.0814 78.5249 65.0032 78.2634 65.0214 77.9995C65.0397 77.7356 65.1531 77.4873 65.3406 77.3007L67.9868 74.6938L60.4783 79.0234C60.2424 79.1578 59.9649 79.1995 59.6999 79.1403C59.4349 79.0811 59.2015 78.9253 59.0452 78.7033C58.8889 78.4812 58.8209 78.2089 58.8546 77.9395C58.8883 77.6701 59.0212 77.4228 59.2273 77.2461L60.1137 76.4951L55.7383 79.0234C55.5093 79.1492 55.2427 79.1887 54.987 79.1347C54.7313 79.0807 54.5035 78.9367 54.3449 78.729C54.1863 78.5213 54.1075 78.2635 54.1228 78.0026C54.1382 77.7417 54.2465 77.495 54.4283 77.3072L57.175 74.5584L49.4307 79.0234C49.2064 79.1504 48.9444 79.194 48.6911 79.1464C48.4378 79.0989 48.2094 78.9632 48.0465 78.7634C47.8836 78.5637 47.7967 78.3127 47.8011 78.055C47.8054 77.7973 47.9009 77.5494 48.0705 77.3553L51.2276 73.8074L42.1842 79.0234C41.9519 79.1495 41.6818 79.1872 41.4239 79.1293C41.166 79.0713 40.9379 78.9218 40.7819 78.7085C40.6258 78.4951 40.5525 78.2324 40.5755 77.9691C40.5985 77.7058 40.7163 77.4598 40.9069 77.2767L42.7497 75.6152L36.8328 79.0234C36.5967 79.1583 36.3186 79.2002 36.0532 79.1409C35.7877 79.0816 35.5539 78.9253 35.3977 78.7026C35.2414 78.48 35.1739 78.207 35.2084 77.9372C35.2428 77.6674 35.3768 77.4202 35.584 77.2439L36.3416 76.6086L32.154 79.0234C31.9886 79.1215 31.8004 79.1742 31.6081 79.1762Z" fill="#9B51E0"/>
<path d="M105.534 85.6759C105.32 85.6755 105.11 85.6122 104.932 85.4938C104.754 85.3755 104.614 85.2073 104.531 85.0103C104.447 84.8132 104.423 84.596 104.462 84.3855C104.501 84.1751 104.601 83.9807 104.75 83.8266L105.071 83.4904L102.564 84.938C102.33 85.0664 102.056 85.1044 101.796 85.0446C101.535 84.9849 101.305 84.8316 101.15 84.6138C100.995 84.3959 100.926 84.1288 100.954 83.863C100.983 83.5972 101.109 83.3512 101.307 83.1717L101.505 83.0035L100.61 83.5188C100.376 83.6543 100.1 83.698 99.8351 83.6414C99.5705 83.5848 99.3363 83.4319 99.1781 83.2124C99.0198 82.993 98.9486 82.7225 98.9785 82.4536C99.0083 82.1846 99.1369 81.9363 99.3395 81.7569L102.503 78.9491L99.1168 80.9141C98.8856 81.0556 98.61 81.106 98.3437 81.0555C98.0774 81.0051 97.8394 80.8573 97.676 80.6411C97.5126 80.4248 97.4354 80.1555 97.4596 79.8856C97.4838 79.6156 97.6075 79.3643 97.8068 79.1805L103.787 73.4602L98.8482 76.2985C98.6199 76.4286 98.3524 76.4721 98.0947 76.4208C97.8369 76.3695 97.6064 76.2271 97.4452 76.0195C97.2841 75.8119 97.2033 75.5532 97.2176 75.2908C97.2318 75.0284 97.3402 74.78 97.5229 74.5911L102.617 69.3992L98.8635 71.5651C98.6457 71.6896 98.3916 71.7354 98.1441 71.6946C97.8965 71.6538 97.6705 71.529 97.5042 71.3411C97.3379 71.1532 97.2413 70.9138 97.2308 70.6631C97.2203 70.4124 97.2965 70.1658 97.4465 69.9647L99.9966 66.5783C99.7385 66.6869 99.4485 66.6922 99.1866 66.593C98.9247 66.4938 98.7109 66.2978 98.5895 66.0454C98.4681 65.793 98.4483 65.5036 98.5343 65.2371C98.6202 64.9705 98.8053 64.7472 99.0513 64.6133L103.527 62.0283C103.745 61.9027 104 61.8563 104.248 61.8969C104.496 61.9375 104.723 62.0626 104.89 62.2511C105.056 62.4396 105.153 62.6799 105.163 62.9313C105.173 63.1827 105.095 63.4298 104.944 63.6308L102.418 66.9888L108.426 63.5217C108.655 63.3899 108.923 63.3453 109.182 63.3959C109.44 63.4466 109.672 63.5891 109.834 63.7972C109.996 64.0053 110.077 64.2649 110.062 64.5281C110.047 64.7912 109.938 65.0402 109.754 65.229L104.673 70.4144L110.568 67.015C110.799 66.8833 111.071 66.8404 111.331 66.8945C111.591 66.9486 111.823 67.0959 111.983 67.3087C112.142 67.5216 112.218 67.7853 112.197 68.0504C112.176 68.3155 112.059 68.5638 111.867 68.7486L105.892 74.4689L110.745 71.6677C110.979 71.5322 111.256 71.4885 111.52 71.5451C111.785 71.6017 112.019 71.7546 112.177 71.974C112.336 72.1935 112.407 72.464 112.377 72.7329C112.347 73.0019 112.218 73.2502 112.016 73.4296L108.848 76.2396L110.745 75.1479C110.981 75.0112 111.26 74.9678 111.526 75.0262C111.793 75.0846 112.027 75.2406 112.185 75.4634C112.342 75.6863 112.41 75.9599 112.375 76.2304C112.341 76.5009 112.206 76.7488 111.998 76.9251L111.234 77.5801C111.401 77.5875 111.564 77.6286 111.714 77.7011C111.864 77.7735 111.998 77.8757 112.108 78.0015C112.269 78.2091 112.351 78.4681 112.337 78.7308C112.323 78.9936 112.214 79.2425 112.031 79.4316L110.488 81.0298C110.683 81.1249 110.844 81.2773 110.95 81.4665C111.095 81.7167 111.134 82.014 111.059 82.2931C110.985 82.5722 110.803 82.8104 110.553 82.9555L106.077 85.5406C105.911 85.6333 105.724 85.68 105.534 85.6759Z" fill="#D0E2E8"/>
<path d="M9.85992 109.743C9.63625 109.743 9.41781 109.675 9.23415 109.548C9.05049 109.42 8.91049 109.239 8.83307 109.029C8.75566 108.819 8.74458 108.591 8.80132 108.374C8.85806 108.158 8.9799 107.964 9.15034 107.819L10.1001 107.014L5.92556 109.415C5.70444 109.542 5.44583 109.588 5.1946 109.544C4.94337 109.501 4.71537 109.37 4.55016 109.176C4.38496 108.982 4.29297 108.736 4.29015 108.481C4.28734 108.226 4.37389 107.978 4.53477 107.78L7.64166 103.977L3.01517 106.651C2.79936 106.775 2.54755 106.822 2.30153 106.784C2.05551 106.745 1.83007 106.624 1.66259 106.439C1.49512 106.255 1.39569 106.019 1.3808 105.77C1.36591 105.522 1.43645 105.276 1.58072 105.073L2.89072 103.232C2.69393 103.255 2.49494 103.215 2.32286 103.116C2.15078 103.018 2.01466 102.867 1.93442 102.686C1.79017 102.436 1.751 102.139 1.82548 101.86C1.89996 101.581 2.08202 101.342 2.33179 101.197L5.94739 99.11C6.16298 98.9867 6.41419 98.9405 6.65954 98.9792C6.90488 99.0179 7.12969 99.1392 7.29686 99.3229C7.46403 99.5066 7.56355 99.7418 7.579 99.9897C7.59445 100.238 7.5249 100.483 7.38184 100.686L6.26616 102.254L11.7245 99.1056C11.9456 98.9786 12.2042 98.933 12.4554 98.9767C12.7067 99.0204 12.9347 99.1507 13.0999 99.345C13.2651 99.5392 13.3571 99.7852 13.3599 100.04C13.3627 100.295 13.2762 100.543 13.1153 100.741L9.99966 104.551L19.4317 99.11C19.6674 98.9739 19.9454 98.9307 20.2113 98.989C20.4772 99.0472 20.7117 99.2027 20.8689 99.425C21.0261 99.6472 21.0946 99.9201 21.0609 100.19C21.0273 100.46 20.894 100.708 20.6871 100.885L19.7351 101.693L24.2132 99.11C24.4394 98.9817 24.704 98.9385 24.9593 98.988C25.2146 99.0375 25.4439 99.1765 25.6058 99.38C25.7677 99.5835 25.8516 99.8382 25.8425 100.098C25.8334 100.358 25.7317 100.606 25.5559 100.798L22.5189 104.044L31.0797 99.11C31.3118 98.9869 31.5805 98.9517 31.8365 99.0108C32.0925 99.0699 32.3186 99.2193 32.4733 99.4316C32.628 99.6439 32.701 99.9049 32.6788 100.167C32.6567 100.428 32.5408 100.673 32.3526 100.857L30.6343 102.385L36.3394 99.11C36.5695 98.9773 36.8402 98.933 37.1006 98.9856C37.3611 99.0381 37.5934 99.1838 37.7541 99.3954C37.9148 99.607 37.9928 99.8699 37.9736 100.135C37.9543 100.4 37.839 100.649 37.6494 100.835L35.0578 103.365L42.4309 99.11C42.665 98.9785 42.9394 98.9379 43.2015 98.9959C43.4637 99.054 43.6953 99.2066 43.852 99.4247C44.0087 99.6427 44.0796 99.9109 44.051 100.178C44.0225 100.445 43.8965 100.692 43.6972 100.872L42.1689 102.226L47.5617 99.11C47.7898 98.9784 48.0578 98.9336 48.3163 98.984C48.5748 99.0344 48.8063 99.1765 48.9683 99.3842C49.1302 99.5919 49.2116 99.8511 49.1975 100.114C49.1834 100.377 49.0746 100.626 48.8914 100.815L46.0006 103.791L54.1139 99.11C54.3349 98.982 54.5937 98.9354 54.8454 98.9785C55.0971 99.0216 55.3258 99.1516 55.4916 99.3458C55.6577 99.5403 55.7502 99.787 55.753 100.043C55.7558 100.299 55.6687 100.547 55.5069 100.745L52.2515 104.736L62.0067 99.11C62.2303 98.9841 62.491 98.941 62.7433 98.9883C62.9955 99.0355 63.223 99.1701 63.3858 99.3684C63.5487 99.5667 63.6365 99.816 63.6338 100.073C63.6311 100.329 63.5382 100.577 63.3712 100.772L60.1858 104.411L69.3667 99.11C69.5903 98.9841 69.8511 98.941 70.1033 98.9883C70.3555 99.0355 70.583 99.1701 70.7458 99.3684C70.9087 99.5667 70.9965 99.816 70.9938 100.073C70.9912 100.329 70.8982 100.577 70.7313 100.772L67.5458 104.407L76.7289 99.11C76.9569 98.9799 77.2242 98.9364 77.4817 98.9874C77.7393 99.0385 77.9698 99.1806 78.1311 99.3877C78.2923 99.5949 78.3735 99.8532 78.3598 100.115C78.3461 100.378 78.2384 100.626 78.0563 100.815L75.1678 103.793L83.2832 99.11C83.512 98.9857 83.7777 98.9472 84.0323 99.0015C84.2869 99.0559 84.5137 99.1994 84.6718 99.4063C84.8299 99.6131 84.9089 99.8696 84.8945 100.13C84.8801 100.39 84.7732 100.636 84.5932 100.824L81.8291 103.597L89.6171 99.11C89.8434 98.9803 90.1086 98.9359 90.3648 98.9848C90.621 99.0337 90.8512 99.1728 91.0138 99.3767C91.1763 99.5807 91.2605 99.8362 91.251 100.097C91.2415 100.357 91.139 100.606 90.962 100.798L87.9054 104.073L96.5077 99.1078C96.7381 98.9731 97.0099 98.9275 97.2717 98.9796C97.5335 99.0317 97.7671 99.1779 97.9284 99.3905C98.0897 99.6032 98.1675 99.8676 98.1471 100.134C98.1267 100.4 98.0095 100.649 97.8177 100.835L95.2697 103.306L102.551 99.11C102.784 98.9708 103.06 98.9231 103.326 98.9762C103.591 99.0294 103.828 99.1795 103.989 99.3974C104.151 99.6153 104.225 99.8854 104.198 100.155C104.171 100.425 104.045 100.675 103.844 100.857L101.595 102.955L108.254 99.1144C108.472 98.9891 108.727 98.9433 108.976 98.9845C109.224 99.0258 109.451 99.1516 109.617 99.3407C109.783 99.5298 109.879 99.7705 109.888 100.022C109.897 100.274 109.819 100.521 109.667 100.721L106.407 104.979L116.573 99.11C116.794 98.9845 117.052 98.9403 117.303 98.9852C117.554 99.03 117.781 99.161 117.945 99.3556C118.109 99.5501 118.2 99.7959 118.202 100.05C118.205 100.305 118.118 100.552 117.957 100.75L114.71 104.68L124.299 99.1449C124.532 99.0079 124.807 98.9618 125.072 99.0157C125.336 99.0696 125.571 99.2196 125.732 99.4368C125.892 99.6539 125.966 99.9228 125.94 100.191C125.914 100.46 125.789 100.71 125.59 100.892L123.35 102.996L127.251 100.745C127.461 100.624 127.704 100.576 127.944 100.609C128.184 100.641 128.406 100.752 128.575 100.925C128.745 101.097 128.853 101.321 128.881 101.561C128.91 101.801 128.858 102.044 128.734 102.252L126.714 105.608L127.935 104.905C128.184 104.774 128.474 104.745 128.745 104.823C129.015 104.902 129.245 105.082 129.386 105.326C129.527 105.569 129.568 105.858 129.501 106.132C129.434 106.405 129.264 106.642 129.026 106.793L124.144 109.59C123.935 109.71 123.692 109.757 123.453 109.724C123.213 109.691 122.992 109.58 122.823 109.408C122.654 109.236 122.546 109.012 122.518 108.773C122.489 108.533 122.54 108.291 122.664 108.083L124.681 104.728L116.258 109.59C116.026 109.729 115.749 109.777 115.484 109.724C115.218 109.671 114.981 109.521 114.82 109.303C114.659 109.085 114.584 108.815 114.611 108.545C114.638 108.275 114.764 108.025 114.966 107.843L117.208 105.741L110.547 109.59C110.326 109.711 110.07 109.752 109.822 109.705C109.575 109.659 109.351 109.529 109.188 109.336C109.026 109.144 108.935 108.901 108.931 108.649C108.927 108.398 109.01 108.152 109.167 107.955L112.413 104.025L102.763 109.59C102.545 109.715 102.29 109.761 102.041 109.72C101.793 109.679 101.566 109.553 101.4 109.364C101.234 109.175 101.138 108.934 101.129 108.682C101.12 108.431 101.198 108.184 101.35 107.983L104.61 103.726L94.4466 109.59C94.214 109.729 93.9379 109.777 93.6721 109.724C93.4063 109.671 93.1698 109.521 93.0085 109.303C92.8473 109.085 92.7729 108.815 92.7998 108.545C92.8267 108.275 92.953 108.025 93.1541 107.843L95.4007 105.745L88.7438 109.59C88.5133 109.725 88.2415 109.77 87.9798 109.718C87.718 109.666 87.4844 109.52 87.3231 109.307C87.1618 109.095 87.084 108.83 87.1044 108.564C87.1248 108.298 87.2419 108.049 87.4338 107.863L89.9817 105.391L82.709 109.59C82.4827 109.72 82.2175 109.764 81.9613 109.715C81.7051 109.666 81.4749 109.527 81.3123 109.323C81.1498 109.119 81.0656 108.864 81.0751 108.603C81.0846 108.343 81.1871 108.094 81.3641 107.902L84.4208 104.627L75.8097 109.59C75.5807 109.722 75.3116 109.766 75.0523 109.715C74.793 109.664 74.5611 109.52 74.3998 109.311C74.2384 109.101 74.1585 108.84 74.1749 108.577C74.1912 108.313 74.3028 108.064 74.4888 107.876L77.2529 105.101L69.4715 109.59C69.2434 109.72 68.9761 109.764 68.7186 109.713C68.4611 109.662 68.2306 109.519 68.0693 109.312C67.908 109.105 67.8268 108.847 67.8405 108.585C67.8542 108.322 67.962 108.074 68.144 107.885L71.0326 104.909L62.9193 109.59C62.6957 109.717 62.4343 109.761 62.1813 109.715C61.9282 109.668 61.6999 109.533 61.5364 109.335C61.373 109.136 61.2849 108.886 61.2879 108.629C61.2908 108.371 61.3846 108.123 61.5525 107.928L64.738 104.293L55.568 109.59C55.3444 109.717 55.083 109.761 54.83 109.715C54.577 109.668 54.3486 109.533 54.1851 109.335C54.0217 109.136 53.9337 108.886 53.9366 108.629C53.9396 108.371 54.0333 108.123 54.2012 107.928L57.3867 104.289L48.1883 109.59C47.9672 109.717 47.7086 109.763 47.4574 109.719C47.2062 109.675 46.9782 109.545 46.8129 109.351C46.6477 109.156 46.5558 108.91 46.5529 108.655C46.5501 108.4 46.6367 108.153 46.7976 107.955L50.0529 103.964L40.3065 109.59C40.0784 109.72 39.8112 109.764 39.5536 109.713C39.2961 109.662 39.0656 109.519 38.9043 109.312C38.743 109.105 38.6618 108.847 38.6756 108.585C38.6893 108.322 38.797 108.074 38.979 107.885L41.8676 104.909L33.7543 109.59C33.5202 109.722 33.2458 109.762 32.9837 109.704C32.7215 109.646 32.4899 109.493 32.3332 109.275C32.1765 109.057 32.1056 108.789 32.1342 108.522C32.1628 108.255 32.2887 108.008 32.488 107.828L34.0163 106.474L28.6213 109.59C28.3912 109.723 28.1205 109.767 27.86 109.714C27.5996 109.662 27.3673 109.516 27.2066 109.305C27.0459 109.093 26.9679 108.83 26.9871 108.565C27.0064 108.3 27.1217 108.051 27.3113 107.865L29.9117 105.339L22.5298 109.59C22.2977 109.713 22.029 109.748 21.773 109.689C21.517 109.63 21.2909 109.481 21.1362 109.268C20.9815 109.056 20.9085 108.795 20.9307 108.533C20.9529 108.272 21.0687 108.027 21.2569 107.843L22.9752 106.315L17.2723 109.59C17.0461 109.718 16.7815 109.762 16.5262 109.712C16.2709 109.663 16.0416 109.523 15.8797 109.32C15.7178 109.116 15.6338 108.862 15.643 108.602C15.6521 108.342 15.7538 108.094 15.9296 107.902L18.9644 104.651L10.4058 109.59C10.2404 109.688 10.0521 109.741 9.85992 109.743Z" fill="#9B51E0"/>
<path d="M63.3844 115.922C63.1742 115.922 62.9684 115.861 62.7918 115.747C62.6152 115.633 62.4752 115.471 62.3888 115.279C62.3023 115.088 62.273 114.875 62.3044 114.667C62.3357 114.459 62.4264 114.265 62.5656 114.107L66.7532 109.372L60.4783 112.985C60.2458 113.122 59.9707 113.168 59.7061 113.114C59.4416 113.06 59.2064 112.91 59.046 112.693C58.8856 112.476 58.8113 112.207 58.8376 111.939C58.8638 111.67 58.9886 111.421 59.188 111.239L64.2097 106.553L59.5613 109.243C59.3232 109.376 59.044 109.415 58.7786 109.352C58.5132 109.29 58.2809 109.13 58.1273 108.905C57.9737 108.679 57.91 108.405 57.9487 108.135C57.9874 107.865 58.1258 107.619 58.3365 107.446L59.6465 106.4L59.5635 106.448C59.3311 106.578 59.0595 106.618 58.7995 106.561C58.5396 106.505 58.3093 106.355 58.1519 106.141C57.9945 105.926 57.9209 105.661 57.9448 105.396C57.9687 105.132 58.0886 104.884 58.2819 104.702L61.8997 101.405L59.5635 102.754C59.3485 102.878 59.0976 102.925 58.8523 102.887C58.607 102.85 58.3818 102.729 58.214 102.547C58.0461 102.364 57.9456 102.129 57.929 101.881C57.9123 101.634 57.9806 101.388 58.1225 101.184L61.0744 96.9464L60.8386 97.0818C60.5891 97.2123 60.2988 97.2414 60.0284 97.1629C59.758 97.0845 59.5284 96.9046 59.3874 96.6608C59.2465 96.417 59.2053 96.1282 59.2723 95.8547C59.3392 95.5813 59.5093 95.3442 59.7469 95.1932L64.2228 92.6081C64.4378 92.4841 64.6886 92.4371 64.934 92.4748C65.1793 92.5126 65.4045 92.6327 65.5723 92.8156C65.7402 92.9985 65.8407 93.2331 65.8573 93.4807C65.8739 93.7284 65.8057 93.9743 65.6638 94.1779L62.7141 98.4136L69.5501 94.4683C69.7825 94.3388 70.0542 94.2986 70.3141 94.3553C70.574 94.4119 70.8043 94.5616 70.9617 94.7761C71.1191 94.9906 71.1927 95.2551 71.1688 95.5201C71.1449 95.7851 71.025 96.0322 70.8317 96.215L67.2139 99.514L71.1767 97.2237C71.4151 97.0877 71.6961 97.0466 71.9636 97.1084C72.231 97.1703 72.4653 97.3307 72.6198 97.5576C72.7743 97.7846 72.8377 98.0614 72.7972 98.3329C72.7567 98.6044 72.6155 98.8507 72.4015 99.0228L71.0915 100.06L71.4299 99.8655C71.6625 99.7285 71.9376 99.6824 72.2022 99.7363C72.4667 99.7902 72.7019 99.9402 72.8623 100.157C73.0227 100.374 73.0969 100.643 73.0707 100.912C73.0445 101.181 72.9196 101.43 72.7203 101.612L67.6986 106.3L71.4387 104.132C71.663 104.002 71.9262 103.956 72.1812 104.003C72.4362 104.049 72.6664 104.185 72.8305 104.385C72.9946 104.586 73.082 104.838 73.077 105.098C73.072 105.357 72.975 105.606 72.8033 105.8L68.6178 110.551L71.3077 108.998C71.4319 108.919 71.5709 108.866 71.7161 108.842C71.8614 108.819 72.01 108.824 72.153 108.859C72.296 108.894 72.4305 108.958 72.5483 109.046C72.6661 109.135 72.7648 109.246 72.8385 109.373C72.9121 109.501 72.9593 109.642 72.977 109.788C72.9948 109.934 72.9828 110.082 72.9418 110.224C72.9007 110.365 72.8315 110.497 72.7383 110.611C72.6451 110.725 72.5298 110.819 72.3993 110.887L63.9302 115.778C63.7644 115.874 63.5759 115.923 63.3844 115.922Z" fill="#D0E2E8"/>
<path d="M3.71168 17.532C8.37528 18.6237 13.3467 17.7285 18.1217 18.0036C18.8291 26.7762 32.9946 26.047 34.1495 17.9032C65.2839 16.4229 98.0928 20.8354 128.47 16.2547C133.884 11.0169 126.852 6.10006 121.363 7.39696C92.3245 7.46246 63.308 7.27251 34.2827 7.39696C33.6561 -1.41716 19.5954 -0.803644 18.2723 7.29871C12.5389 8.01047 2.68115 4.59137 0.655018 12.1413C0.492787 13.2518 0.705238 14.3847 1.25879 15.3609C1.81235 16.3372 2.67545 17.1011 3.71168 17.532ZM113.73 9.16982C117.089 8.97551 120.456 8.97551 123.815 9.16982C128.055 9.67636 128.227 15.7984 124.131 16.1303C94.2065 16.1507 64.2672 16.1507 34.3133 16.1303C34.3635 13.8116 34.3133 11.4907 34.3373 9.16982H113.73ZM24.9293 2.60672C33.226 1.04127 33.8504 22.1235 26.8354 22.7414C19.2352 23.0274 18.8684 4.40797 24.9293 2.60672ZM4.18765 10.6851C4.40598 9.99294 5.63957 9.17419 5.96925 9.26807C9.98222 9.18729 14.0061 9.30737 18.0213 9.26807C17.9034 11.6064 18.1435 13.7963 18.0562 16.0364C13.5651 15.4076 1.84275 18.7263 4.1811 10.6851H4.18765Z" fill="#262626"/>
<path d="M6.12865 48.6226C15.9537 48.7951 25.7787 48.5352 35.6037 48.6226C36.3831 57.4432 50.7363 56.4826 51.6533 48.2449C76.9604 46.9501 103.647 50.8365 128.323 46.7318C133.323 42.6403 128.203 37.0203 122.965 38.1906H51.7887C51.4132 29.2542 37.1888 29.6756 35.7652 37.8129C25.2241 39.7233 8.4408 33.3152 0.938869 41.6294C0.657666 42.4403 0.578747 43.3076 0.708972 44.1559C0.839196 45.0042 1.17462 45.8079 1.6861 46.4971C2.19758 47.1864 2.86964 47.7402 3.64386 48.1107C4.41809 48.4811 5.27106 48.6568 6.12865 48.6226ZM115.638 39.505C118.232 39.3729 120.832 39.3729 123.426 39.505C127.201 39.8958 128.983 46.2296 124.847 46.9152C100.527 46.9458 76.122 46.8956 51.7712 46.9152C51.8411 44.448 51.7712 41.9743 51.8062 39.505H115.638ZM42.2432 33.1733C50.6665 31.1843 51.3389 52.9172 44.3108 53.3495C36.7128 53.5504 36.3918 35.2497 42.2432 33.1733ZM5.98674 39.8892C15.8074 39.8892 25.6382 39.8892 35.4792 39.8892C35.3657 42.197 35.6037 44.3498 35.5163 46.544C30.523 45.3148 -5.35131 50.8583 5.98674 39.8892Z" fill="#262626"/>
<path d="M127.328 69.0587C122.638 68.1854 117.688 68.9343 112.905 68.6985C112.448 59.6442 97.8155 60.4979 96.7981 68.8251C65.7948 69.8753 33.8963 66.7618 3.28811 69.967C-3.12871 74.3555 3.45841 80.2527 9.21586 78.7396C38.3721 78.6173 67.5349 78.971 96.6889 78.7396C96.9619 87.8114 111.682 87.1367 112.769 78.8662C119.252 79.7352 138.205 78.6566 127.328 69.0587ZM67.4301 77.5584C61.2884 75.672 -11.266 83.4229 6.38626 70.0085C36.4464 69.8491 66.572 70.2595 96.6475 70.0085C96.4619 72.6001 96.7479 75.0541 96.6475 77.5584H67.4301ZM109.761 78.8684C109.693 84.7285 102.387 85.5865 100.346 80.2701C99.9094 75.2223 97.6431 66.2968 103.346 63.6244C111.479 63.2008 109.723 73.552 109.761 78.8728V78.8684ZM126.856 75.8467C123.869 79.4317 117.232 76.5628 112.907 77.4274C112.972 74.9952 112.907 72.5542 112.937 70.1198C116.553 70.1023 120.169 70.0718 123.78 70.1307C124.398 70.2341 124.984 70.4777 125.494 70.8428C126.003 71.208 126.423 71.685 126.719 72.2372C127.016 72.7895 127.182 73.4023 127.205 74.0288C127.228 74.6552 127.107 75.2785 126.852 75.851L126.856 75.8467Z" fill="#262626"/>
<path d="M126.948 99.4202C109.247 98.5119 91.3594 99.4202 73.5871 99.1233C72.9998 90.283 58.7775 91.0449 57.5483 99.1386C41.4834 101.027 14.6284 95.1059 1.46504 101.909C-6.95389 116.269 48.994 107.169 57.4217 109.562C57.9675 118.391 72.2684 117.655 73.4605 109.577C80.7069 107.606 146.037 116.317 126.948 99.4202ZM12.6983 107.872C10.7442 108.051 8.77738 108.042 6.82513 107.844C3.41913 107.136 2.48248 101.617 6.27929 100.828C23.2547 100.802 40.3175 100.846 57.3234 100.828C57.1793 103.259 57.4435 105.542 57.3496 107.872H12.6983ZM70.4606 109.44C70.4746 110.601 70.0674 111.728 69.3144 112.612C68.5614 113.496 67.5136 114.077 66.3649 114.248C65.2163 114.419 64.0445 114.169 63.0666 113.542C62.0887 112.916 61.3709 111.956 61.046 110.841C59.1007 104.796 60.426 86.9184 69.5741 97.1015C71.395 100.783 70.2029 105.468 70.4606 109.44ZM124.668 107.857C107.689 107.883 90.6236 107.837 73.6133 107.857C73.6679 105.52 73.6133 103.18 73.6395 100.844C79.1328 102.551 140.587 95.5055 124.668 107.857Z" fill="#262626"/>
</svg>
