<svg width="90" height="117" viewBox="0 0 90 117" fill="none" xmlns="http://www.w3.org/2000/svg">
<path d="M15.317 115.704C15.1031 115.704 14.895 115.634 14.7246 115.505C14.5541 115.376 14.4306 115.194 14.3728 114.988C14.315 114.782 14.3262 114.563 14.4045 114.364C14.4829 114.165 14.6242 113.997 14.8069 113.886L15.1699 113.664L11.8642 115.571C11.6422 115.691 11.3824 115.721 11.1388 115.655C10.8952 115.588 10.6866 115.431 10.5565 115.214C10.4263 114.998 10.3846 114.74 10.44 114.493C10.4954 114.247 10.6436 114.032 10.8538 113.892L39.1452 96.2354L7.00868 114.794C6.78547 114.928 6.51828 114.967 6.2659 114.904C6.01351 114.841 5.79659 114.68 5.66288 114.457C5.52916 114.234 5.48959 113.966 5.55287 113.714C5.61615 113.462 5.7771 113.245 6.00031 113.111L37.7504 93.3437L4.32492 112.642C4.10266 112.767 3.84068 112.8 3.59441 112.735C3.34813 112.669 3.13688 112.511 3.00536 112.293C2.87383 112.075 2.83236 111.814 2.8897 111.566C2.94705 111.317 3.09872 111.101 3.31262 110.963L42.8295 86.1575L2.77704 109.289C2.55406 109.413 2.29187 109.444 2.04594 109.378C1.80002 109.311 1.58967 109.151 1.4594 108.932C1.32914 108.713 1.2892 108.452 1.34801 108.204C1.40683 107.957 1.5598 107.741 1.77455 107.604L21.4889 95.5429L2.61617 106.437C2.39346 106.556 2.13343 106.584 1.89019 106.517C1.64696 106.449 1.43927 106.29 1.31035 106.073C1.18144 105.855 1.14123 105.597 1.19809 105.351C1.25496 105.105 1.40452 104.89 1.61564 104.752L18.4873 94.458L2.61617 103.622C2.39333 103.747 2.13028 103.781 1.88307 103.715C1.63586 103.649 1.42406 103.49 1.29281 103.27C1.16155 103.051 1.12123 102.789 1.18044 102.54C1.23965 102.291 1.3937 102.075 1.60976 101.938L32.7595 82.6733L2.61617 100.069C2.39346 100.197 2.12923 100.233 1.88035 100.169C1.63147 100.104 1.41783 99.9446 1.28541 99.7243C1.15299 99.5039 1.11237 99.2404 1.17229 98.9904C1.23222 98.7404 1.3879 98.5239 1.60583 98.3875L40.8089 73.8648L2.61617 95.9215C2.39346 96.0499 2.12923 96.0858 1.88035 96.0213C1.63147 95.9569 1.41783 95.7973 1.28541 95.577C1.15299 95.3566 1.11237 95.0931 1.17229 94.8431C1.23222 94.5931 1.3879 94.3766 1.60583 94.2402L41.2346 69.431L2.61617 91.7291C2.39417 91.8493 2.13434 91.8794 1.89076 91.8129C1.64718 91.7465 1.4386 91.5886 1.30844 91.3723C1.17828 91.1559 1.13655 90.8977 1.19195 90.6514C1.24734 90.4051 1.39558 90.1896 1.60583 90.0498L38.9608 66.7512L2.61617 87.7329C2.39346 87.8519 2.13343 87.8804 1.89019 87.8126C1.64696 87.7447 1.43927 87.5857 1.31035 87.3685C1.18144 87.1514 1.14123 86.8929 1.19809 86.6469C1.25496 86.4008 1.40452 86.1862 1.61564 86.0477L13.9751 78.5339L2.61617 85.0883C2.39401 85.207 2.13472 85.2356 1.892 85.1684C1.64929 85.1011 1.44176 84.943 1.3124 84.7269C1.18304 84.5108 1.14176 84.2532 1.19712 84.0075C1.25247 83.7618 1.40022 83.5468 1.60976 83.4071L33.3461 63.7614L2.61617 81.5041C2.39362 81.6248 2.13302 81.6547 1.88889 81.5877C1.64476 81.5207 1.43599 81.3618 1.30626 81.1444C1.17653 80.927 1.13588 80.6679 1.19281 80.4212C1.24974 80.1745 1.39984 79.9594 1.61172 79.8208L27.7628 63.7339L2.61617 78.2534C2.39346 78.3724 2.13343 78.4009 1.89019 78.3331C1.64696 78.2652 1.43927 78.1062 1.31035 77.889C1.18144 77.6719 1.14123 77.4134 1.19809 77.1674C1.25496 76.9213 1.40452 76.7067 1.61564 76.5681L18.7698 66.0999L2.61617 75.4244C2.39346 75.5434 2.13343 75.572 1.89019 75.5041C1.64696 75.4363 1.43927 75.2772 1.31035 75.0601C1.18144 74.8429 1.14123 74.5844 1.19809 74.3384C1.25496 74.0924 1.40452 73.8777 1.61564 73.7392L16.6432 64.5834L2.61617 72.6818C2.39346 72.8008 2.13343 72.8294 1.89019 72.7615C1.64696 72.6936 1.43927 72.5346 1.31035 72.3175C1.18144 72.1003 1.14123 71.8418 1.19809 71.5958C1.25496 71.3498 1.40452 71.1351 1.61564 70.9966L16.6981 61.8133L2.61617 69.9333C2.39296 70.067 2.12577 70.1066 1.87338 70.0433C1.62099 69.98 1.40408 69.8191 1.27036 69.5958C1.13664 69.3726 1.09707 69.1054 1.16035 68.8531C1.22363 68.6007 1.38458 68.3837 1.6078 68.25L34.4035 47.8608L2.61617 66.2117C2.39417 66.332 2.13434 66.362 1.89076 66.2955C1.64718 66.2291 1.4386 66.0712 1.30844 65.8549C1.17828 65.6385 1.13655 65.3803 1.19195 65.134C1.24734 64.8877 1.39558 64.6722 1.60583 64.5324L34.8999 43.7077L2.61617 62.3469C2.39377 62.4694 2.13254 62.5009 1.8874 62.4347C1.64227 62.3686 1.43233 62.21 1.30174 61.9922C1.17115 61.7745 1.13007 61.5146 1.18715 61.2672C1.24422 61.0198 1.39501 60.8042 1.6078 60.6656L25.0947 46.0776L2.61617 59.055C2.39346 59.1834 2.12923 59.2193 1.88035 59.1548C1.63147 59.0904 1.41783 58.9308 1.28541 58.7105C1.15299 58.4901 1.11237 58.2266 1.17229 57.9766C1.23222 57.7266 1.3879 57.5101 1.60583 57.3737L22.5973 44.2707L2.61617 55.8101C2.39448 55.9341 2.13336 55.9672 1.88776 55.9025C1.64216 55.8378 1.43122 55.6804 1.29932 55.4633C1.16742 55.2463 1.12484 54.9866 1.18054 54.7388C1.23625 54.491 1.38589 54.2745 1.59799 54.1347L27.4175 37.6555L2.61617 51.9709C2.39554 52.0943 2.13578 52.1277 1.89108 52.0643C1.64637 52.0008 1.43562 51.8453 1.30277 51.6302C1.16993 51.4151 1.12525 51.1571 1.17806 50.9099C1.23087 50.6626 1.37709 50.4453 1.58622 50.3033L28.524 32.5999L2.61617 47.5568C2.39554 47.6802 2.13578 47.7136 1.89108 47.6502C1.64637 47.5867 1.43562 47.4312 1.30277 47.2161C1.16993 47.0011 1.12525 46.743 1.17806 46.4958C1.23087 46.2485 1.37709 46.0313 1.58622 45.8892L21.5144 32.8157L2.61617 43.7234C2.39572 43.8433 2.13768 43.8742 1.89515 43.8097C1.65261 43.7452 1.44403 43.5902 1.31233 43.3765C1.18063 43.1629 1.13582 42.9069 1.18714 42.6612C1.23845 42.4155 1.38197 42.1989 1.58818 42.0558L15.2719 33.0923L2.61617 40.4C2.39374 40.5351 2.12678 40.5762 1.87403 40.5144C1.62127 40.4526 1.40342 40.2929 1.2684 40.0705C1.13338 39.848 1.09225 39.5811 1.15406 39.3283C1.21587 39.0756 1.37556 38.8577 1.59799 38.7227L3.1184 37.7536L2.61617 38.0439C2.39859 38.1659 2.14273 38.2004 1.90063 38.1404C1.65853 38.0804 1.44837 37.9304 1.31291 37.721C1.17745 37.5115 1.12686 37.2584 1.17144 37.0129C1.21602 36.7675 1.35241 36.5483 1.55286 36.3999L16.8413 25.3902L2.61617 33.6004C2.39752 33.7244 2.1396 33.7598 1.89563 33.6992C1.65166 33.6386 1.44028 33.4866 1.3051 33.2747C1.16993 33.0627 1.12129 32.807 1.16922 32.5602C1.21715 32.3134 1.35799 32.0945 1.56267 31.9485L8.91557 26.7929L2.61617 30.4242C2.40182 30.5488 2.14824 30.5876 1.90644 30.5328C1.66464 30.478 1.45255 30.3337 1.31285 30.1289C1.17315 29.924 1.1162 29.6739 1.15345 29.4288C1.1907 29.1837 1.31939 28.9617 1.51363 28.8077L9.79839 22.212L2.61617 26.3652C2.4012 26.4872 2.14808 26.5236 1.90744 26.4671C1.6668 26.4105 1.45639 26.2652 1.3183 26.0601C1.18021 25.8551 1.12462 25.6055 1.16265 25.3612C1.20069 25.117 1.32954 24.8961 1.52344 24.7428L4.05418 22.781L2.61617 23.6088C2.4171 23.7239 2.18391 23.7655 1.95734 23.7261C1.73078 23.6868 1.52524 23.5691 1.37662 23.3936C1.22801 23.2181 1.14578 22.996 1.14428 22.766C1.14279 22.5361 1.22213 22.3129 1.36845 22.1355L4.38377 18.4728C4.15766 18.5814 3.89854 18.5992 3.65969 18.5226C3.42083 18.4461 3.22038 18.2809 3.09955 18.0611C2.97872 17.8413 2.94668 17.5835 3.01003 17.3408C3.07338 17.0981 3.22729 16.8889 3.44013 16.7562L8.10142 14.0666C8.30049 13.9514 8.53368 13.9099 8.76025 13.9493C8.98681 13.9886 9.19235 14.1063 9.34096 14.2818C9.48958 14.4573 9.57181 14.6794 9.5733 14.9094C9.5748 15.1393 9.49545 15.3625 9.34913 15.5399L6.33578 19.1947L15.4347 13.9449C15.6497 13.8229 15.9028 13.7865 16.1434 13.8431C16.3841 13.8996 16.5945 14.045 16.7326 14.25C16.8707 14.455 16.9262 14.7046 16.8882 14.9489C16.8502 15.1931 16.7213 15.414 16.5274 15.5673L13.9986 17.5292L20.2156 13.9449C20.43 13.8203 20.6836 13.7815 20.9254 13.8363C21.1672 13.8911 21.3793 14.0354 21.519 14.2403C21.6587 14.4451 21.7156 14.6952 21.6784 14.9403C21.6411 15.1855 21.5124 15.4074 21.3182 15.5615L13.0334 22.1512L27.2586 13.9449C27.4768 13.8251 27.7324 13.7927 27.9736 13.8543C28.2148 13.9159 28.4236 14.067 28.5575 14.2768C28.6915 14.4866 28.7407 14.7395 28.6951 14.9843C28.6495 15.229 28.5126 15.4473 28.3121 15.5948L20.967 20.7446L32.7379 13.9449C32.9555 13.823 33.2114 13.7885 33.4535 13.8485C33.6956 13.9085 33.9057 14.0584 34.0412 14.2679C34.1767 14.4773 34.2273 14.7305 34.1827 14.9759C34.1381 15.2213 34.0017 15.4405 33.8013 15.5889L18.5206 26.5987L40.444 13.9449C40.666 13.8148 40.9302 13.7772 41.1796 13.84C41.4291 13.9029 41.6439 14.0613 41.7777 14.2811C41.9115 14.5008 41.9537 14.7644 41.895 15.0149C41.8363 15.2654 41.6816 15.4828 41.4641 15.6203L39.9437 16.5895L44.5265 13.9449C44.747 13.825 45.005 13.7941 45.2475 13.8586C45.4901 13.9231 45.6987 14.0781 45.8304 14.2918C45.9621 14.5054 46.0069 14.7614 45.9556 15.0071C45.9042 15.2527 45.7607 15.4694 45.5545 15.6125L31.8669 24.5721L50.2845 13.9449C50.5051 13.8215 50.7648 13.7881 51.0095 13.8515C51.2542 13.915 51.465 14.0705 51.5979 14.2856C51.7307 14.5006 51.7754 14.7587 51.7226 15.0059C51.6698 15.2531 51.5235 15.4704 51.3144 15.6125L31.3961 28.6762L56.9233 13.9449C57.1437 13.825 57.4017 13.7941 57.6443 13.8586C57.8868 13.9231 58.0954 14.0781 58.2271 14.2918C58.3588 14.5054 58.4036 14.7614 58.3523 15.0071C58.301 15.2527 58.1574 15.4694 57.9512 15.6125L31.0115 33.314L64.5685 13.9449C64.7902 13.821 65.0513 13.7879 65.2969 13.8526C65.5425 13.9173 65.7534 14.0747 65.8853 14.2917C66.0172 14.5088 66.0598 14.7685 66.0041 15.0163C65.9484 15.2641 65.7987 15.4806 65.5866 15.6203L39.7691 32.0996L71.219 13.9449C71.441 13.8247 71.7009 13.7946 71.9444 13.8611C72.188 13.9276 72.3966 14.0854 72.5268 14.3017C72.6569 14.5181 72.6986 14.7763 72.6433 15.0226C72.5879 15.269 72.4396 15.4844 72.2294 15.6242L51.2379 28.7233L76.8357 13.9449C77.0581 13.8224 77.3193 13.7909 77.5645 13.8571C77.8096 13.9232 78.0196 14.0819 78.1501 14.2996C78.2807 14.5173 78.3218 14.7772 78.2647 15.0246C78.2077 15.272 78.0569 15.4877 77.8441 15.6262L54.3513 30.2143L82.0659 14.2137C82.2886 14.0853 82.5529 14.0494 82.8017 14.1138C83.0506 14.1783 83.2643 14.3378 83.3967 14.5582C83.5291 14.7786 83.5697 15.0421 83.5098 15.2921C83.4499 15.5421 83.2942 15.7586 83.0763 15.895L49.7901 36.702L85.4442 16.1245C85.6666 16.002 85.9278 15.9705 86.1729 16.0367C86.4181 16.1028 86.628 16.2614 86.7586 16.4792C86.8892 16.6969 86.9303 16.9568 86.8732 17.2042C86.8161 17.4516 86.6653 17.6673 86.4526 17.8058L53.6627 38.2009L87.2687 18.7985C87.4921 18.6711 87.7567 18.6366 88.0053 18.7025C88.254 18.7683 88.4668 18.9291 88.598 19.1504C88.7292 19.3716 88.7683 19.6355 88.7068 19.8853C88.6453 20.135 88.4881 20.3506 88.2692 20.4856L73.2181 29.6571L87.7984 21.2331C88.0218 21.1057 88.2864 21.0713 88.535 21.1371C88.7837 21.2029 88.9965 21.3638 89.1277 21.585C89.2589 21.8062 89.298 22.0701 89.2365 22.3199C89.175 22.5696 89.0178 22.7852 88.7989 22.9202L73.7812 32.0702L87.8376 23.9502C88.0603 23.8312 88.3203 23.8026 88.5636 23.8705C88.8068 23.9383 89.0145 24.0974 89.1434 24.3145C89.2723 24.5317 89.3125 24.7902 89.2557 25.0362C89.1988 25.2822 89.0492 25.4969 88.8381 25.6354L71.6349 36.1331L87.8376 26.7791C88.0606 26.6559 88.3228 26.6242 88.5687 26.6908C88.8146 26.7574 89.025 26.9171 89.1552 27.1361C89.2855 27.3551 89.3254 27.6161 89.2666 27.864C89.2078 28.1119 89.0548 28.3272 88.8401 28.4643L62.7263 44.5336L87.8376 30.0318C88.0595 29.9163 88.3173 29.8899 88.558 29.9581C88.7988 30.0263 89.0044 30.1839 89.1327 30.3988C89.2611 30.6136 89.3025 30.8693 89.2484 31.1137C89.1944 31.358 89.049 31.5725 88.842 31.7131L57.0763 51.3823L87.8376 33.6239C88.0601 33.5082 88.3184 33.482 88.5596 33.5509C88.8008 33.6197 89.0064 33.7783 89.1342 33.994C89.2621 34.2098 89.3024 34.4663 89.247 34.7109C89.1916 34.9555 89.0445 35.1696 88.8362 35.3091L76.4767 42.819L87.8278 36.2685C88.0496 36.1515 88.3077 36.1239 88.5493 36.1913C88.7908 36.2588 88.9973 36.4162 89.1263 36.6311C89.2554 36.8461 89.2973 37.1023 89.2433 37.3472C89.1893 37.5921 89.0437 37.807 88.8362 37.9478L51.5165 61.2248L87.8376 40.2627C88.0596 40.1425 88.3194 40.1124 88.563 40.1789C88.8066 40.2454 89.0152 40.4032 89.1453 40.6195C89.2755 40.8359 89.3172 41.0941 89.2618 41.3404C89.2064 41.5868 89.0582 41.8022 88.8479 41.942L49.1937 66.7649L87.8415 44.4551C88.0642 44.3267 88.3285 44.2909 88.5773 44.3553C88.8262 44.4197 89.0399 44.5793 89.1723 44.7996C89.3047 45.02 89.3453 45.2835 89.2854 45.5335C89.2255 45.7835 89.0698 46 88.8519 46.1364L49.6488 70.6591L87.8376 48.6103C88.0595 48.4947 88.3173 48.4683 88.558 48.5365C88.7988 48.6047 89.0044 48.7624 89.1327 48.9772C89.2611 49.192 89.3025 49.4478 89.2484 49.6921C89.1944 49.9364 89.049 50.1509 88.842 50.2915L57.7237 69.5389L87.8376 52.1533C88.0611 52.026 88.3256 51.9915 88.5743 52.0573C88.8229 52.1231 89.0358 52.284 89.167 52.5052C89.2982 52.7265 89.3372 52.9904 89.2757 53.2401C89.2142 53.4899 89.0571 53.7055 88.8381 53.8405L71.9665 64.1341L87.8396 54.9705C88.0623 54.8514 88.3223 54.8229 88.5655 54.8908C88.8088 54.9586 89.0165 55.1177 89.1454 55.3348C89.2743 55.5519 89.3145 55.8104 89.2576 56.0565C89.2008 56.3025 89.0512 56.5171 88.8401 56.6557L69.1101 68.7209L87.8376 57.9093C88.0596 57.789 88.3194 57.759 88.563 57.8255C88.8066 57.8919 89.0152 58.0497 89.1453 58.2661C89.2755 58.4824 89.3172 58.7406 89.2618 58.987C89.2064 59.2333 89.0582 59.4488 88.8479 59.5886L49.3467 84.386L87.8376 62.1625C88.06 62.04 88.3212 62.0085 88.5664 62.0747C88.8115 62.1408 89.0214 62.2994 89.152 62.5172C89.2826 62.7349 89.3237 62.9948 89.2666 63.2422C89.2095 63.4896 89.0588 63.7053 88.846 63.8438L57.092 83.613L87.8376 65.8625C88.06 65.74 88.3212 65.7085 88.5664 65.7747C88.8115 65.8408 89.0214 65.9994 89.152 66.2172C89.2826 66.4349 89.3237 66.6948 89.2666 66.9422C89.2095 67.1896 89.0588 67.4053 88.846 67.5438L60.5369 85.2002L87.8376 69.4467C88.0601 69.331 88.3184 69.3048 88.5596 69.3737C88.8008 69.4425 89.0064 69.6011 89.1342 69.8169C89.2621 70.0326 89.3024 70.2892 89.247 70.5337C89.1916 70.7783 89.0445 70.9924 88.8362 71.1319L87.9847 71.6518C88.2112 71.5689 88.4602 71.5723 88.6843 71.6614C88.9084 71.7505 89.0918 71.9189 89.1995 72.1347C89.3073 72.3504 89.3318 72.5982 89.2684 72.8309C89.205 73.0635 89.0581 73.2647 88.8558 73.3959L59.1911 92.3785L87.8337 75.8403C88.0559 75.7158 88.3179 75.6826 88.5642 75.7478C88.8105 75.813 89.0217 75.9715 89.1532 76.1896C89.2848 76.4078 89.3262 76.6686 89.2689 76.9168C89.2115 77.1651 89.0599 77.3812 88.846 77.5196L71.1445 88.6902L87.8376 79.0538C88.0593 78.9299 88.3204 78.8968 88.566 78.9614C88.8116 79.0261 89.0226 79.1835 89.1545 79.4006C89.2864 79.6176 89.3289 79.8774 89.2732 80.1251C89.2175 80.3729 89.0679 80.5895 88.8558 80.7292L69.9125 92.8787L87.8376 82.5321C88.0594 82.4151 88.3176 82.3875 88.5591 82.455C88.8006 82.5224 89.0071 82.6798 89.1362 82.8947C89.2652 83.1097 89.3071 83.366 89.2531 83.6108C89.1992 83.8557 89.0535 84.0706 88.846 84.2114L86.4918 85.6769L87.8278 84.9078C88.0491 84.7909 88.3066 84.763 88.5478 84.8298C88.789 84.8966 88.9955 85.0531 89.1251 85.2671C89.2548 85.4812 89.2976 85.7368 89.245 85.9814C89.1924 86.2261 89.0482 86.4414 88.842 86.5832L82.8605 90.3794L87.8376 87.5131C88.0586 87.3932 88.3171 87.3627 88.5599 87.4279C88.8027 87.4931 89.0112 87.649 89.1424 87.8635C89.2735 88.078 89.3173 88.3346 89.2647 88.5805C89.2121 88.8263 89.0671 89.0426 88.8597 89.1846L81.032 94.2402L87.8376 90.3166C88.0577 90.1932 88.3169 90.1594 88.5613 90.2222C88.8057 90.285 89.0166 90.4395 89.1499 90.6537C89.2833 90.868 89.329 91.1253 89.2775 91.3724C89.226 91.6194 89.0813 91.8371 88.8734 91.9802L77.8441 99.3861L87.8376 93.6164C88.0555 93.4932 88.3122 93.458 88.5551 93.518C88.7981 93.5779 89.009 93.7284 89.1446 93.9388C89.2802 94.1491 89.3303 94.4033 89.2846 94.6493C89.239 94.8954 89.101 95.1147 88.8989 95.2623L76.9142 103.839L87.8376 97.5184C88.0566 97.3928 88.3155 97.3564 88.5606 97.4168C88.8058 97.4772 89.0181 97.6298 89.1536 97.8429C89.2891 98.0559 89.3372 98.313 89.2879 98.5606C89.2386 98.8082 89.0958 99.0273 88.8891 99.1722L84.2318 102.423L87.8376 100.343C88.0553 100.223 88.3107 100.19 88.5519 100.251C88.7932 100.312 89.0023 100.462 89.1369 100.671C89.2716 100.88 89.3217 101.133 89.2771 101.378C89.2326 101.622 89.0967 101.841 88.897 101.989L86.6272 103.61L87.8376 102.909C88.053 102.788 88.3062 102.753 88.5466 102.81C88.787 102.868 88.9969 103.014 89.1342 103.219C89.2716 103.425 89.3263 103.675 89.2874 103.919C89.2485 104.163 89.1189 104.383 88.9244 104.536L86.5075 106.392L87.8376 105.625C88.0464 105.508 88.2905 105.472 88.5241 105.523C88.7577 105.574 88.9646 105.708 89.106 105.901C89.2474 106.094 89.3136 106.332 89.2921 106.57C89.2706 106.808 89.1629 107.03 88.9892 107.194L86.6213 109.352L87.2667 108.981C87.4909 108.864 87.7517 108.838 87.9947 108.908C88.2377 108.979 88.444 109.141 88.5706 109.36C88.6972 109.579 88.7343 109.838 88.6741 110.084C88.6139 110.33 88.4611 110.543 88.2476 110.678L79.7883 115.567C79.5794 115.684 79.3353 115.72 79.1018 115.669C78.8682 115.618 78.6613 115.483 78.5198 115.291C78.3784 115.098 78.3123 114.86 78.3338 114.622C78.3553 114.384 78.463 114.162 78.6367 113.998L81.0046 111.84L74.5306 115.567C74.3151 115.691 74.0607 115.728 73.8187 115.672C73.5768 115.615 73.3654 115.469 73.2271 115.262C73.0889 115.056 73.0342 114.804 73.074 114.559C73.1139 114.314 73.2453 114.093 73.4418 113.941L75.8568 112.089L69.8301 115.567C69.6123 115.687 69.357 115.721 69.1157 115.66C68.8745 115.599 68.6654 115.449 68.5307 115.24C68.3961 115.03 68.346 114.778 68.3905 114.533C68.4351 114.288 68.571 114.07 68.7707 113.921L71.0405 112.301L65.3826 115.567C65.1641 115.688 64.9077 115.721 64.6656 115.66C64.4236 115.598 64.2141 115.446 64.08 115.236C63.9458 115.025 63.8971 114.771 63.9438 114.526C63.9905 114.28 64.129 114.062 64.3311 113.915L68.9806 110.67L60.4977 115.575C60.2798 115.698 60.0231 115.733 59.7802 115.673C59.5372 115.613 59.3263 115.463 59.1907 115.253C59.0551 115.042 59.005 114.788 59.0506 114.542C59.0963 114.296 59.2343 114.077 59.4363 113.929L71.4289 105.346L53.7078 115.567C53.4882 115.686 53.2316 115.716 52.9902 115.653C52.7488 115.589 52.5409 115.435 52.4089 115.223C52.2768 115.011 52.2305 114.757 52.2794 114.512C52.3282 114.267 52.4687 114.05 52.672 113.905L63.6876 106.509L47.993 115.567C47.7721 115.687 47.5135 115.718 47.2707 115.652C47.0279 115.587 46.8194 115.431 46.6883 115.217C46.5571 115.002 46.5133 114.746 46.5659 114.5C46.6185 114.254 46.7635 114.038 46.9709 113.896L54.8182 108.83L43.1434 115.567C42.922 115.687 42.6628 115.717 42.4197 115.652C42.1765 115.586 41.968 115.429 41.8374 115.213C41.7067 114.998 41.664 114.741 41.7179 114.495C41.7719 114.249 41.9184 114.033 42.1272 113.892L48.0911 110.107L38.6332 115.567C38.4112 115.687 38.1514 115.717 37.9078 115.651C37.6642 115.585 37.4556 115.427 37.3255 115.21C37.1953 114.994 37.1536 114.736 37.209 114.489C37.2644 114.243 37.4126 114.028 37.6229 113.888L39.9771 112.413L34.5173 115.567C34.296 115.689 34.0363 115.721 33.7922 115.656C33.5481 115.591 33.3385 115.434 33.2071 115.218C33.0756 115.003 33.0324 114.745 33.0864 114.498C33.1405 114.251 33.2876 114.035 33.4972 113.894L52.4464 101.74L28.4926 115.567C28.2709 115.686 28.0123 115.714 27.77 115.648C27.5277 115.581 27.3202 115.424 27.1904 115.209C27.0605 114.994 27.0182 114.737 27.0722 114.492C27.1261 114.246 27.2722 114.031 27.4803 113.89L45.168 102.737L22.9445 115.567C22.7232 115.689 22.4635 115.721 22.2194 115.656C21.9754 115.591 21.7658 115.434 21.6343 115.218C21.5028 115.003 21.4596 114.745 21.5136 114.498C21.5677 114.251 21.7148 114.035 21.9244 113.894L51.6008 94.9033L15.7996 115.567C15.6534 115.654 15.487 115.701 15.317 115.704Z" fill="#8F5C4B"/>
<path d="M15.148 107.857C14.9353 107.857 14.7282 107.788 14.5581 107.661C14.388 107.533 14.2641 107.353 14.2049 107.149C14.1458 106.944 14.1548 106.726 14.2304 106.528C14.306 106.329 14.4442 106.16 14.6242 106.046L37.8031 91.419L10.8595 106.974C10.6378 107.098 10.3767 107.131 10.1311 107.067C9.88547 107.002 9.67453 106.845 9.54263 106.628C9.41073 106.41 9.36815 106.151 9.42386 105.903C9.47956 105.655 9.62921 105.439 9.8413 105.299L43.2648 83.9347L10.4632 102.876C10.2397 103.009 9.9725 103.048 9.72029 102.984C9.46809 102.921 9.25157 102.759 9.11837 102.536C8.98517 102.312 8.9462 102.045 9.01004 101.793C9.07387 101.541 9.23528 101.324 9.45875 101.191L17.5277 96.2392L10.4652 100.318C10.2426 100.439 9.98201 100.468 9.73788 100.401C9.49375 100.334 9.28498 100.176 9.15525 99.9582C9.02552 99.7408 8.98487 99.4817 9.0418 99.235C9.09873 98.9883 9.24883 98.7732 9.46071 98.6346L21.8829 90.9835L10.4652 97.5752C10.2423 97.7008 9.97927 97.7343 9.73206 97.6687C9.48485 97.6031 9.27305 97.4435 9.1418 97.224C9.01054 97.0045 8.97023 96.7424 9.02943 96.4935C9.08864 96.2447 9.24269 96.0289 9.45875 95.892L25.7418 85.8122L10.471 94.6403C10.2476 94.7677 9.98302 94.8022 9.73438 94.7363C9.48573 94.6705 9.27288 94.5097 9.14169 94.2884C9.01049 94.0672 8.97144 93.8033 9.03294 93.5535C9.09445 93.3038 9.25159 93.0882 9.47052 92.9532L10.8006 92.141L10.471 92.3372C10.2489 92.4641 9.98603 92.4992 9.73839 92.4351C9.49074 92.371 9.27795 92.2126 9.14539 91.9938C9.01283 91.775 8.971 91.5131 9.0288 91.2639C9.08661 91.0147 9.23948 90.7979 9.45482 90.6598L40.534 70.9043L10.4632 88.2644C10.2402 88.3877 9.97803 88.4194 9.7321 88.3528C9.48618 88.2862 9.27583 88.1265 9.14556 87.9075C9.0153 87.6885 8.97536 87.4274 9.03417 87.1795C9.09299 86.9316 9.24596 86.7163 9.46071 86.5792L16.3271 82.3652L10.4632 85.7474C10.2419 85.8691 9.98215 85.9008 9.73808 85.8358C9.49401 85.7708 9.28442 85.6142 9.15295 85.3985C9.02148 85.1828 8.97826 84.9248 9.0323 84.6781C9.08634 84.4313 9.23347 84.215 9.44305 84.074L44.6145 61.5131L10.4632 81.2352C10.2406 81.3559 9.98005 81.3859 9.73592 81.3188C9.49178 81.2518 9.28302 81.093 9.15329 80.8756C9.02356 80.6582 8.98291 80.399 9.03984 80.1524C9.09677 79.9057 9.24687 79.6906 9.45875 79.552L22.3224 71.6223L10.4632 78.4691C10.2416 78.5875 9.98293 78.6164 9.74063 78.5497C9.49834 78.4831 9.29087 78.326 9.16102 78.1108C9.03117 77.8957 8.98886 77.6389 9.04279 77.3934C9.09673 77.148 9.24281 76.9326 9.4509 76.7917L36.2023 59.9534L10.4632 74.8181C10.24 74.9518 9.9728 74.9914 9.72041 74.9281C9.46802 74.8649 9.25111 74.7039 9.11739 74.4807C8.98367 74.2575 8.9441 73.9903 9.00738 73.7379C9.07066 73.4855 9.23161 73.2686 9.45482 73.1349L28.355 61.3954L10.4632 71.7243C10.2397 71.8575 9.9725 71.8965 9.72029 71.8327C9.46809 71.7688 9.25157 71.6074 9.11837 71.384C8.98517 71.1605 8.9462 70.8933 9.01004 70.6411C9.07387 70.3889 9.23528 70.1723 9.45875 70.0391L20.598 63.1865L10.4632 69.0347C10.2402 69.158 9.97803 69.1896 9.7321 69.123C9.48618 69.0564 9.27583 68.8967 9.14556 68.6777C9.0153 68.4588 8.97536 68.1977 9.03417 67.9498C9.09299 67.7019 9.24596 67.4866 9.46071 67.3495L16.9627 62.749L10.4632 66.5C10.2411 66.6269 9.97818 66.6621 9.73054 66.5979C9.48289 66.5338 9.2701 66.3754 9.13754 66.1566C9.00499 65.9378 8.96315 65.6759 9.02095 65.4267C9.07876 65.1775 9.23163 64.9608 9.44698 64.8227L38.2739 46.4973L10.4632 62.5548C10.2404 62.6803 9.9773 62.7139 9.7301 62.6483C9.48289 62.5826 9.27109 62.4231 9.13984 62.2036C9.00858 61.984 8.96826 61.7219 9.02747 61.4731C9.08668 61.2243 9.24073 61.0084 9.45679 60.8716L15.7346 57.0048L10.4632 60.0476C10.2405 60.176 9.97626 60.2119 9.72738 60.1474C9.4785 60.083 9.26486 59.9234 9.13244 59.7031C9.00001 59.4827 8.9594 59.2192 9.01932 58.9692C9.07925 58.7192 9.23493 58.5027 9.45286 58.3663L19.0658 52.371L10.4632 57.3324C10.2415 57.4688 9.97482 57.5114 9.7217 57.4511C9.46858 57.3908 9.24979 57.2323 9.11347 57.0107C8.97715 56.789 8.93446 56.5223 8.9948 56.2692C9.05514 56.0161 9.21355 55.7973 9.43521 55.661L31.6391 41.1435L10.4632 53.3774C10.2432 53.5028 9.98334 53.5382 9.73784 53.4764C9.49234 53.4145 9.28027 53.2601 9.14598 53.0455C9.01168 52.8309 8.96557 52.5727 9.01728 52.3248C9.06899 52.077 9.21452 51.8587 9.42344 51.7157L30.2913 37.6593L10.4632 49.0967C10.2426 49.2346 9.97624 49.2792 9.72275 49.2207C9.46926 49.1622 9.24939 49.0054 9.11151 48.7848C8.97362 48.5642 8.92903 48.2978 8.98753 48.0443C9.04602 47.7908 9.20283 47.571 9.42344 47.4331L23.8251 37.7417L10.4632 45.4556C10.2428 45.5755 9.98471 45.6064 9.74218 45.5419C9.49964 45.4774 9.29106 45.3224 9.15936 45.1087C9.02766 44.8951 8.98285 44.6391 9.03416 44.3934C9.08548 44.1477 9.229 43.9311 9.43521 43.788L13.9474 40.8335L10.4632 42.8405C10.247 42.9644 9.99174 43.0013 9.74928 42.9438C9.50682 42.8863 9.29532 42.7387 9.15774 42.531C9.02015 42.3232 8.96679 42.0709 9.00848 41.8252C9.05018 41.5796 9.18381 41.359 9.38224 41.2082L22.1556 31.6169L10.4632 38.3675C10.246 38.493 9.98892 38.5305 9.7449 38.4723C9.50087 38.4141 9.28843 38.2646 9.15125 38.0545C9.01407 37.8445 8.96258 37.5899 9.00737 37.343C9.05215 37.0962 9.18982 36.8759 9.39205 36.7274L15.1166 32.537L10.4632 35.2227C10.2489 35.3449 9.99647 35.3819 9.75615 35.3263C9.51582 35.2707 9.30527 35.1266 9.16645 34.9227C9.02763 34.7188 8.97073 34.47 9.00708 34.2261C9.04344 33.9821 9.17038 33.7608 9.36262 33.6062L13.7316 30.1377L10.4632 32.025C10.2507 32.1489 9.99939 32.1884 9.75911 32.1357C9.51883 32.0831 9.3071 31.942 9.16591 31.7406C9.02471 31.5392 8.96435 31.2921 8.99679 31.0482C9.02922 30.8044 9.15209 30.5816 9.34104 30.4241L10.9733 29.0508L10.4632 29.3432C10.2862 29.4451 10.0819 29.4893 9.8786 29.4695C9.67534 29.4497 9.48331 29.367 9.32931 29.2329C9.17531 29.0988 9.06701 28.9199 9.01952 28.7213C8.97204 28.5226 8.98774 28.3142 9.06442 28.1249L10.3847 24.88C10.1539 24.957 9.90281 24.9454 9.68008 24.8476C9.45734 24.7498 9.2789 24.5727 9.1794 24.3507C9.07989 24.1287 9.06643 23.8777 9.14161 23.6463C9.2168 23.4149 9.37527 23.2198 9.58627 23.0987L11.8757 21.7921C12.0534 21.6914 12.2577 21.6478 12.461 21.6675C12.6643 21.6872 12.8566 21.769 13.0116 21.902C13.1658 22.0365 13.274 22.2159 13.3211 22.415C13.3683 22.6141 13.352 22.823 13.2745 23.0124L11.966 26.2239L19.6367 21.7921C19.8488 21.6728 20.0977 21.6366 20.3351 21.6906C20.5724 21.7446 20.7812 21.8849 20.9209 22.0842C21.0605 22.2836 21.1211 22.5277 21.0908 22.7692C21.0605 23.0107 20.9415 23.2324 20.7569 23.391L19.1246 24.7643L24.2744 21.7921C24.4887 21.6699 24.7411 21.6329 24.9815 21.6886C25.2218 21.7442 25.4323 21.8883 25.5712 22.0922C25.71 22.2961 25.7669 22.5448 25.7305 22.7888C25.6942 23.0328 25.5672 23.2541 25.375 23.4087L21.0041 26.8752L29.8146 21.7921C30.0315 21.667 30.2882 21.6296 30.5318 21.6876C30.7755 21.7455 30.9878 21.8946 31.1251 22.104C31.2625 22.3142 31.3141 22.5691 31.2692 22.8162C31.2243 23.0633 31.0864 23.2838 30.8838 23.4322L25.1592 27.6187L35.2586 21.7921C35.4748 21.6682 35.7301 21.6313 35.9726 21.6888C36.215 21.7463 36.4265 21.8939 36.5641 22.1016C36.7017 22.3094 36.755 22.5617 36.7133 22.8074C36.6717 23.053 36.538 23.2736 36.3396 23.4244L23.5682 33.0118L43.0078 21.7921C43.2283 21.6722 43.4863 21.6413 43.7288 21.7058C43.9714 21.7703 44.18 21.9253 44.3117 22.139C44.4434 22.3526 44.4882 22.6086 44.4369 22.8543C44.3855 23.0999 44.242 23.3166 44.0358 23.4597L39.5236 26.4161L47.5377 21.7921C47.7574 21.6704 48.0156 21.6376 48.2588 21.7006C48.502 21.7636 48.7118 21.9175 48.8449 22.1306C48.978 22.3437 49.0242 22.5997 48.9741 22.8459C48.924 23.0921 48.7813 23.3097 48.5755 23.4538L34.1737 33.1471L53.8429 21.7921C54.0627 21.6704 54.3209 21.6376 54.5641 21.7006C54.8073 21.7636 55.0171 21.9175 55.1502 22.1306C55.2833 22.3437 55.3295 22.5997 55.2794 22.8459C55.2293 23.0921 55.0866 23.3097 54.8807 23.4538L34.0109 37.5082L61.2429 21.7921C61.4639 21.6665 61.7251 21.6315 61.9713 21.6947C62.2176 21.7578 62.4297 21.9141 62.563 22.1305C62.6963 22.347 62.7403 22.6068 62.6858 22.8551C62.6314 23.1034 62.4826 23.3208 62.2709 23.4616L40.0729 37.9791L68.1073 21.7941C68.3293 21.6738 68.5892 21.6438 68.8327 21.7103C69.0763 21.7767 69.2849 21.9345 69.4151 22.1509C69.5452 22.3672 69.587 22.6254 69.5316 22.8718C69.4762 23.1181 69.3279 23.3336 69.1177 23.4734L59.4851 29.4805L72.802 21.7921C73.0245 21.6714 73.2851 21.6415 73.5293 21.7085C73.7734 21.7755 73.9821 21.9344 74.1119 22.1518C74.2416 22.3692 74.2823 22.6283 74.2253 22.875C74.1684 23.1217 74.0183 23.3368 73.8064 23.4754L67.5521 27.3303L77.1533 21.7921C77.375 21.6682 77.6361 21.6351 77.8817 21.6998C78.1273 21.7645 78.3382 21.9219 78.4701 22.1389C78.602 22.356 78.6446 22.6157 78.5889 22.8635C78.5332 23.1113 78.3836 23.3278 78.1715 23.4675L49.3465 41.7811L79.9901 24.0933C80.2131 23.9701 80.4752 23.9384 80.7212 24.005C80.9671 24.0716 81.1774 24.2313 81.3077 24.4503C81.438 24.6693 81.4779 24.9303 81.4191 25.1782C81.3603 25.4261 81.2073 25.6414 80.9926 25.7785L73.4886 30.381L79.9901 26.628C80.2131 26.5047 80.4752 26.473 80.7212 26.5397C80.9671 26.6063 81.1774 26.766 81.3077 26.985C81.438 27.2039 81.4779 27.465 81.4191 27.7129C81.3603 27.9608 81.2073 28.1761 80.9926 28.3132L69.8553 35.1796L79.9901 29.3294C80.2122 29.2108 80.4715 29.1821 80.7142 29.2494C80.957 29.3167 81.1645 29.4747 81.2938 29.6908C81.4232 29.907 81.4645 30.1645 81.4091 30.4102C81.3538 30.656 81.206 30.871 80.9965 31.0107L62.0983 42.7404L79.9901 32.4134C80.2117 32.295 80.4703 32.2661 80.7126 32.3327C80.9549 32.3994 81.1624 32.5565 81.2922 32.7717C81.4221 32.9868 81.4644 33.2436 81.4105 33.4891C81.3565 33.7345 81.2105 33.9499 81.0024 34.0908L54.251 50.9271L79.9901 36.0624C80.2126 35.9417 80.4732 35.9118 80.7174 35.9788C80.9615 36.0458 81.1703 36.2046 81.3 36.422C81.4297 36.6394 81.4704 36.8986 81.4134 37.1453C81.3565 37.3919 81.2064 37.6071 80.9945 37.7456L68.1309 45.6792L79.9901 38.8325C80.2118 38.7086 80.4729 38.6755 80.7185 38.7401C80.9641 38.8048 81.175 38.9622 81.3069 39.1793C81.4388 39.3963 81.4814 39.6561 81.4257 39.9038C81.37 40.1516 81.2204 40.3682 81.0083 40.5079L45.8387 63.0688L79.9901 43.3505C80.2131 43.2273 80.4752 43.1956 80.7212 43.2622C80.9671 43.3288 81.1774 43.4885 81.3077 43.7075C81.438 43.9265 81.4779 44.1875 81.4191 44.4354C81.3603 44.6833 81.2073 44.8986 80.9926 45.0357L74.1144 49.2576L79.9901 45.8656C80.2119 45.7436 80.4723 45.7121 80.7169 45.7777C80.9614 45.8433 81.1711 46.0009 81.3021 46.2176C81.4331 46.4342 81.4753 46.6931 81.4198 46.9401C81.3643 47.1872 81.2154 47.4032 81.0043 47.543L49.9173 67.271L79.9901 49.9109C80.2128 49.7918 80.4728 49.7633 80.7161 49.8312C80.9593 49.899 81.167 50.0581 81.2959 50.2752C81.4248 50.4923 81.465 50.7508 81.4082 50.9969C81.3513 51.2429 81.2017 51.4575 80.9906 51.5961L79.6605 52.4083L79.9901 52.2121C80.2129 52.0865 80.476 52.053 80.7232 52.1186C80.9704 52.1842 81.1822 52.3438 81.3134 52.5633C81.4447 52.7829 81.485 53.045 81.4258 53.2938C81.3666 53.5426 81.2125 53.7584 80.9965 53.8953L64.7134 63.9732L79.9901 55.1627C80.2135 55.0295 80.4808 54.9905 80.733 55.0543C80.9852 55.1182 81.2017 55.2796 81.3349 55.503C81.4681 55.7265 81.5071 55.9937 81.4432 56.2459C81.3794 56.4981 81.218 56.7147 80.9945 56.8479L68.5723 64.499L79.9901 57.9092C80.2124 57.792 80.4712 57.7647 80.7131 57.8327C80.955 57.9008 81.1616 58.0591 81.2902 58.2751C81.4188 58.491 81.4596 58.748 81.4042 58.9931C81.3488 59.2383 81.2015 59.4528 80.9926 59.5924L72.9236 64.5598L79.9861 60.4792C80.2078 60.3553 80.469 60.3222 80.7146 60.3868C80.9602 60.4515 81.1711 60.6089 81.303 60.826C81.4349 61.043 81.4775 61.3028 81.4218 61.5506C81.3661 61.7983 81.2164 62.0149 81.0043 62.1546L47.5808 83.5109L79.9901 64.7972C80.2123 64.6726 80.4743 64.6395 80.7206 64.7046C80.9669 64.7698 81.1781 64.9283 81.3096 65.1465C81.4412 65.3647 81.4826 65.6255 81.4253 65.8737C81.3679 66.1219 81.2163 66.3381 81.0024 66.4765L57.8215 81.1058L79.9901 68.3088C80.2112 68.1904 80.4692 68.1613 80.7112 68.2273C80.9532 68.2933 81.1607 68.4495 81.291 68.6637C81.4214 68.878 81.4647 69.134 81.4121 69.3793C81.3595 69.6245 81.215 69.8403 81.0083 69.9822L57.7175 84.9117L79.9901 72.0559C80.2102 71.9373 80.4673 71.9073 80.7088 71.972C80.9503 72.0366 81.158 72.191 81.2895 72.4036C81.4209 72.6163 81.4663 72.8711 81.4162 73.116C81.3661 73.3609 81.2244 73.5775 81.02 73.7215L56.9975 89.5671L79.9901 76.2973C80.2118 76.1734 80.4729 76.1403 80.7185 76.205C80.9641 76.2697 81.175 76.4271 81.3069 76.6441C81.4388 76.8612 81.4814 77.1209 81.4257 77.3687C81.37 77.6165 81.2204 77.833 81.0083 77.9727L71.3796 84.1211L79.9901 79.1518C80.2095 79.0263 80.4689 78.9905 80.7142 79.0516C80.9595 79.1128 81.1717 79.2663 81.3065 79.4801C81.4414 79.6939 81.4885 79.9515 81.438 80.1992C81.3876 80.4469 81.2435 80.6655 81.0357 80.8095L62.3415 93.681L79.9979 83.4933C80.2189 83.3734 80.4774 83.3428 80.7202 83.408C80.963 83.4732 81.1715 83.6292 81.3027 83.8437C81.4339 84.0581 81.4777 84.3148 81.4251 84.5606C81.3725 84.8065 81.2275 85.0227 81.02 85.1648L79.5663 86.1045L79.9979 85.8553C80.2146 85.7321 80.47 85.6961 80.7123 85.7544C80.9546 85.8127 81.1656 85.9611 81.3025 86.1694C81.4394 86.3777 81.4918 86.6303 81.4492 86.8758C81.4065 87.1214 81.272 87.3415 81.073 87.4915L67.5914 97.4987L79.9999 90.3361C80.2193 90.2107 80.4787 90.1748 80.724 90.2359C80.9693 90.2971 81.1815 90.4506 81.3163 90.6644C81.4512 90.8782 81.4983 91.1358 81.4479 91.3835C81.3974 91.6312 81.2533 91.8498 81.0455 91.9938L78.711 93.5967L79.9999 92.8551C80.2135 92.7303 80.4665 92.6908 80.708 92.7447C80.9495 92.7985 81.1618 92.9416 81.3022 93.1453C81.4427 93.3491 81.5009 93.5983 81.4653 93.8432C81.4297 94.0881 81.3029 94.3104 81.1103 94.4657L74.4126 99.9255L79.9999 96.7003C80.2046 96.582 80.4452 96.5418 80.6773 96.5868C80.9094 96.6319 81.1174 96.7592 81.263 96.9455C81.4087 97.1317 81.4821 97.3643 81.4699 97.6004C81.4577 97.8365 81.3607 98.0602 81.1966 98.2305L77.0336 102.546L79.9999 100.836C80.1995 100.722 80.4326 100.682 80.6587 100.723C80.8848 100.763 81.0894 100.882 81.237 101.058C81.3845 101.234 81.4656 101.456 81.4661 101.686C81.4666 101.916 81.3865 102.138 81.2397 102.315L80.3452 103.374C80.5397 103.346 80.7384 103.376 80.9155 103.462C81.0925 103.548 81.2396 103.685 81.3378 103.855C81.4675 104.08 81.5027 104.347 81.4357 104.598C81.3688 104.849 81.2052 105.063 80.9808 105.193L76.5922 107.72C76.3924 107.835 76.1585 107.875 75.9317 107.835C75.7049 107.794 75.4995 107.675 75.3516 107.499C75.2037 107.322 75.1227 107.099 75.1228 106.869C75.123 106.638 75.2042 106.415 75.3523 106.239L76.1135 105.338L71.9859 107.72C71.7813 107.838 71.541 107.878 71.3091 107.833C71.0771 107.789 70.8692 107.662 70.7234 107.476C70.5776 107.29 70.5038 107.058 70.5155 106.822C70.5272 106.586 70.6237 106.362 70.7872 106.192L74.9502 101.876L64.8174 107.72C64.604 107.842 64.3527 107.879 64.1131 107.824C63.8735 107.77 63.6632 107.627 63.5236 107.425C63.384 107.223 63.3254 106.976 63.3594 106.732C63.3933 106.489 63.5174 106.267 63.707 106.111L70.4085 100.657L58.155 107.72C57.936 107.84 57.6793 107.873 57.4372 107.811C57.1951 107.748 56.9859 107.596 56.8524 107.384C56.7189 107.173 56.6712 106.919 56.7189 106.673C56.7667 106.428 56.9064 106.21 57.1094 106.064L59.4263 104.469L53.7939 107.72C53.5772 107.843 53.3218 107.879 53.0795 107.821C52.8372 107.762 52.6262 107.614 52.4893 107.406C52.3525 107.197 52.3 106.945 52.3427 106.699C52.3853 106.454 52.5198 106.234 52.7188 106.084L66.2024 96.0784L46.0329 107.72C45.812 107.84 45.5534 107.87 45.3106 107.805C45.0678 107.74 44.8593 107.584 44.7282 107.369C44.597 107.155 44.5532 106.898 44.6058 106.652C44.6584 106.407 44.8034 106.19 45.0108 106.048L46.4626 105.111L41.9504 107.72C41.7314 107.84 41.4746 107.873 41.2325 107.811C40.9904 107.748 40.7813 107.596 40.6478 107.384C40.5143 107.173 40.4666 106.919 40.5143 106.673C40.5621 106.428 40.7017 106.21 40.9047 106.064L59.6048 93.1866L34.419 107.72C34.1973 107.844 33.9362 107.877 33.6906 107.812C33.445 107.747 33.234 107.59 33.1021 107.373C32.9702 107.156 32.9276 106.896 32.9833 106.648C33.039 106.401 33.1887 106.184 33.4008 106.044L43.0255 99.898L29.4752 107.72C29.2551 107.838 28.998 107.868 28.7565 107.804C28.515 107.739 28.3073 107.585 28.1758 107.372C28.0443 107.159 27.999 106.905 28.0491 106.66C28.0991 106.415 28.2408 106.198 28.4452 106.054L52.4657 90.2106L22.1282 107.72C21.9069 107.842 21.6471 107.873 21.4031 107.808C21.159 107.743 20.9494 107.587 20.8179 107.371C20.6865 107.155 20.6432 106.897 20.6973 106.65C20.7513 106.404 20.8984 106.187 21.108 106.046L44.3889 91.1208L15.6385 107.72C15.4899 107.808 15.3207 107.855 15.148 107.857Z" fill="white"/>
<path d="M42.0755 60.7734C41.8704 60.7714 41.6712 60.7051 41.5057 60.584C41.3403 60.4629 41.217 60.2929 41.1531 60.0981C41.0892 59.9032 41.088 59.6933 41.1497 59.4977C41.2113 59.3021 41.3327 59.1308 41.4967 59.0078L43.3016 57.6953L38.1832 60.6361C37.9652 60.7625 37.707 60.8001 37.462 60.7412C37.2169 60.6824 37.004 60.5314 36.8673 60.3198C36.7305 60.1081 36.6805 59.852 36.7275 59.6044C36.7746 59.3568 36.9151 59.1369 37.1199 58.9901L42.1167 55.4098L33.9751 60.1182C33.7577 60.2418 33.5013 60.2778 33.2583 60.2187C33.0152 60.1595 32.804 60.0098 32.6677 59.8001C32.5314 59.5904 32.4803 59.3365 32.525 59.0904C32.5696 58.8443 32.7066 58.6246 32.9079 58.4761L43.18 51.0212L32.0937 57.4207C31.8765 57.5462 31.6195 57.5837 31.3754 57.5254C31.1314 57.4672 30.919 57.3177 30.7818 57.1077C30.6446 56.8976 30.5931 56.643 30.6379 56.3962C30.6827 56.1493 30.8204 55.929 31.0226 55.7806L43.9137 46.3148L32.0427 53.1596C31.8261 53.2828 31.5706 53.3189 31.3283 53.2605C31.086 53.2022 30.875 53.0538 30.7382 52.8455C30.6013 52.6372 30.5489 52.3847 30.5915 52.1391C30.6341 51.8935 30.7686 51.6734 30.9677 51.5234L43.0309 42.5697L32.0447 48.9142C31.8262 49.0402 31.5676 49.0772 31.3226 49.0175C31.0776 48.9578 30.8649 48.8061 30.7288 48.5938C30.5928 48.3814 30.5437 48.1249 30.5918 47.8773C30.6399 47.6297 30.7816 47.4102 30.9873 47.2643L35.8506 43.8174L32.0447 46.0127C31.8288 46.1356 31.5742 46.172 31.3325 46.1145C31.0908 46.057 30.8799 45.9099 30.7424 45.703C30.6049 45.496 30.5511 45.2446 30.5918 44.9995C30.6325 44.7543 30.7647 44.5338 30.9618 44.3824L35.2974 41.0925L32.0427 42.9797C31.8325 43.1011 31.5847 43.1403 31.3473 43.0895C31.1099 43.0388 30.8997 42.9019 30.7574 42.7052C30.6151 42.5085 30.5508 42.266 30.577 42.0246C30.6031 41.7833 30.7179 41.5602 30.899 41.3985L34.6382 38.0634L32.0427 39.5603C31.854 39.6691 31.6345 39.7121 31.4187 39.6824C31.2029 39.6526 31.0031 39.5519 30.8509 39.3961C30.6987 39.2403 30.6026 39.0382 30.578 38.8218C30.5533 38.6053 30.6013 38.3868 30.7146 38.2007L32.5253 35.2286C32.2977 35.3268 32.0413 35.3352 31.8077 35.252C31.5741 35.1688 31.3807 35.0003 31.2664 34.7803C31.152 34.5603 31.1252 34.3052 31.1914 34.0662C31.2575 33.8273 31.4117 33.6222 31.6229 33.4924L34.8717 31.6169C35.0603 31.5089 35.2795 31.4667 35.4948 31.4968C35.7101 31.5269 35.9092 31.6277 36.061 31.7833C36.2128 31.9389 36.3086 32.1405 36.3334 32.3565C36.3581 32.5724 36.3105 32.7905 36.1979 32.9764L34.391 35.9172L41.8911 31.6012C42.0996 31.4906 42.3411 31.459 42.5711 31.512C42.8011 31.5651 43.0042 31.6993 43.1432 31.8901C43.2823 32.0809 43.3478 32.3154 43.3279 32.5506C43.308 32.7858 43.2039 33.006 43.0348 33.1706L39.3073 36.5057L47.8197 31.6012C48.0357 31.4755 48.2916 31.437 48.535 31.4936C48.7784 31.5502 48.9911 31.6976 49.1295 31.9056C49.268 32.1137 49.3218 32.3668 49.28 32.6132C49.2382 32.8596 49.1039 33.0807 48.9046 33.2314L44.565 36.5234L53.095 31.6012C53.3131 31.4797 53.5692 31.446 53.8112 31.5068C54.0533 31.5676 54.2631 31.7183 54.3979 31.9284C54.5326 32.1384 54.5823 32.392 54.5367 32.6374C54.4911 32.8827 54.3537 33.1015 54.1524 33.2491L49.293 36.6941L56.8264 32.3467C57.043 32.2235 57.2985 32.1874 57.5408 32.2457C57.7831 32.3041 57.9941 32.4525 58.131 32.6607C58.2678 32.869 58.3203 33.1216 58.2776 33.3672C58.235 33.6127 58.1005 33.8328 57.9015 33.9828L45.8382 42.9326L58.4096 35.6739C58.6268 35.5484 58.8839 35.5109 59.1279 35.5691C59.3719 35.6273 59.5844 35.7768 59.7215 35.9869C59.8587 36.1969 59.9102 36.4516 59.8654 36.6984C59.8206 36.9452 59.683 37.1655 59.4807 37.314L46.5994 46.7719L58.4155 39.9507C58.6329 39.827 58.8893 39.7911 59.1323 39.8502C59.3753 39.9093 59.5866 40.059 59.7229 40.2687C59.8592 40.4785 59.9103 40.7323 59.8656 40.9784C59.821 41.2245 59.684 41.4443 59.4827 41.5927L49.2185 49.0476L58.4155 43.7389C58.6333 43.6158 58.89 43.5806 59.133 43.6406C59.376 43.7005 59.5868 43.851 59.7225 44.0613C59.8581 44.2717 59.9082 44.5259 59.8625 44.7719C59.8169 45.018 59.6789 45.2373 59.4768 45.3849L54.4702 48.9731L58.4096 46.7072C58.627 46.5835 58.8834 46.5476 59.1264 46.6067C59.3695 46.6658 59.5807 46.8155 59.717 47.0253C59.8533 47.235 59.9044 47.4888 59.8597 47.7349C59.8151 47.981 59.6781 48.2008 59.4768 48.3492L57.67 49.6636L58.4096 49.2379C58.6207 49.1169 58.8692 49.0787 59.1069 49.1306C59.3447 49.1826 59.5546 49.3211 59.6959 49.5191C59.8372 49.7172 59.8999 49.9607 59.8718 50.2024C59.8436 50.4441 59.7266 50.6667 59.5435 50.827L56.0593 53.8541L58.4135 52.4985C58.6116 52.3851 58.843 52.3444 59.0679 52.3834C59.2928 52.4223 59.4971 52.5384 59.6456 52.7118C59.7941 52.8851 59.8774 53.1048 59.8814 53.333C59.8853 53.5612 59.8095 53.7836 59.6671 53.962L57.7681 56.3162L58.286 56.018C58.3976 55.947 58.5225 55.8993 58.653 55.8779C58.7836 55.8564 58.9171 55.8616 59.0456 55.893C59.1741 55.9245 59.2949 55.9816 59.4007 56.061C59.5066 56.1404 59.5953 56.2404 59.6615 56.3549C59.7277 56.4694 59.77 56.5962 59.786 56.7275C59.8019 56.8588 59.7911 56.992 59.7543 57.1191C59.7174 57.2461 59.6552 57.3644 59.5715 57.4668C59.4877 57.5692 59.3841 57.6536 59.2669 57.7149L54.1897 60.6361C53.9916 60.7494 53.7602 60.7901 53.5353 60.7512C53.3104 60.7123 53.1061 60.5961 52.9576 60.4228C52.8091 60.2495 52.7258 60.0298 52.7218 59.8016C52.7179 59.5734 52.7937 59.3509 52.9361 59.1726L54.8371 56.8184L48.212 60.6361C48.0012 60.7549 47.7539 60.7916 47.5177 60.7391C47.2815 60.6866 47.073 60.5487 46.9323 60.3518C46.7916 60.1549 46.7287 59.9129 46.7556 59.6725C46.7825 59.432 46.8974 59.2099 47.0781 59.049L50.5623 56.0258L42.5659 60.6361C42.4174 60.7243 42.2482 60.7716 42.0755 60.7734Z" fill="#FA8C42"/>
<path d="M48.5359 42.9974C48.3597 42.9974 48.1867 42.9498 48.0352 42.8598C47.8837 42.7697 47.7592 42.6405 47.6749 42.4858C47.5906 42.331 47.5495 42.1564 47.556 41.9802C47.5626 41.8041 47.6164 41.633 47.7119 41.4849L48.0101 41.0219L46.8644 41.683C46.673 41.7936 46.4498 41.8363 46.231 41.8041C46.0123 41.772 45.8108 41.6668 45.6593 41.5058C45.5078 41.3447 45.4152 41.1372 45.3964 40.9169C45.3776 40.6966 45.4338 40.4764 45.5559 40.2921L47.9277 36.7177L39.9745 41.3103C39.7737 41.4259 39.5385 41.4667 39.3105 41.4255C39.0825 41.3842 38.8765 41.2636 38.7289 41.085C38.5813 40.9064 38.5017 40.6813 38.5042 40.4497C38.5067 40.218 38.5911 39.9947 38.7425 39.8193L41.901 36.1683L39.8902 37.3297C39.7237 37.4261 39.5326 37.4713 39.3406 37.4599C39.1486 37.4485 38.9642 37.3809 38.8103 37.2655C38.6565 37.1501 38.5399 36.992 38.4752 36.8109C38.4105 36.6298 38.4004 36.4336 38.4463 36.2468L39.0172 33.9142C38.8494 33.843 38.7048 33.7264 38.5996 33.5776C38.4944 33.4288 38.4327 33.2535 38.4215 33.0716C38.4103 32.8897 38.45 32.7083 38.5361 32.5477C38.6223 32.387 38.7515 32.2536 38.9093 32.1623L39.8902 31.5914C40.0565 31.4953 40.2473 31.4502 40.4391 31.4616C40.6308 31.473 40.815 31.5404 40.9688 31.6555C41.1225 31.7706 41.2391 31.9284 41.304 32.1091C41.369 32.2899 41.3794 32.4857 41.3341 32.6724L40.8907 34.4812L45.9541 31.56C46.1549 31.4444 46.3902 31.4036 46.6181 31.4449C46.8461 31.4861 47.0522 31.6067 47.1998 31.7853C47.3473 31.9639 47.4269 32.189 47.4244 32.4206C47.422 32.6523 47.3376 32.8756 47.1862 33.051L44.0374 36.702L50.5625 32.9353C50.7538 32.8247 50.9768 32.782 51.1954 32.8141C51.4141 32.8461 51.6155 32.951 51.767 33.1118C51.9188 33.2729 52.0116 33.4805 52.0305 33.7009C52.0494 33.9214 51.9932 34.1417 51.871 34.3262L49.5011 37.9006L50.5625 37.2866C50.7523 37.1795 50.9724 37.1386 51.188 37.1705C51.4036 37.2024 51.6024 37.3052 51.7531 37.4626C51.9038 37.6201 51.9978 37.8232 52.0202 38.04C52.0426 38.2568 51.9922 38.4749 51.8769 38.6599L51.1961 39.7114C51.4304 39.7841 51.6283 39.9434 51.7494 40.1567C51.8796 40.3818 51.9151 40.6493 51.8482 40.9006C51.7812 41.1519 51.6173 41.3662 51.3923 41.4966L49.0264 42.8699C48.8771 42.9552 48.7078 42.9992 48.5359 42.9974Z" fill="#FCDFA8"/>
<path d="M30.1557 11.7654C29.9404 11.7646 29.7313 11.693 29.5607 11.5617C29.3901 11.4304 29.2675 11.2465 29.2117 11.0386C29.1559 10.8306 29.1701 10.6101 29.2521 10.411C29.3341 10.2119 29.4792 10.0453 29.6653 9.93694L32.916 8.05948C33.0276 7.9885 33.1525 7.94085 33.283 7.91938C33.4136 7.89791 33.5471 7.90306 33.6756 7.93454C33.8041 7.96601 33.9249 8.02315 34.0307 8.10252C34.1366 8.18189 34.2253 8.28185 34.2915 8.39639C34.3577 8.51093 34.4 8.63767 34.416 8.769C34.4319 8.90033 34.4212 9.03353 34.3843 9.16058C34.3474 9.28764 34.2853 9.40592 34.2015 9.50833C34.1177 9.61073 34.0141 9.69513 33.8969 9.75645L30.6462 11.6339C30.4973 11.7205 30.328 11.7659 30.1557 11.7654Z" fill="#C1DADC"/>
<path d="M37.7497 25.4608C37.5412 25.461 37.3381 25.3947 37.1698 25.2716C37.0015 25.1485 36.8768 24.975 36.8138 24.7762C36.7509 24.5774 36.7529 24.3637 36.8195 24.1662C36.8862 23.9686 37.0141 23.7975 37.1847 23.6775L40.4452 21.3861L33.6161 25.3235C33.4016 25.4464 33.1486 25.4838 32.9077 25.4281C32.6668 25.3724 32.4558 25.2279 32.3169 25.0233C32.1781 24.8187 32.1216 24.5692 32.1588 24.3248C32.196 24.0804 32.3241 23.859 32.5175 23.705L41.7597 16.4227L26.7498 25.0881C26.5327 25.2106 26.277 25.2459 26.0348 25.1867C25.7927 25.1275 25.5821 24.9784 25.4459 24.7695C25.3098 24.5607 25.2583 24.3078 25.3019 24.0623C25.3454 23.8169 25.4809 23.5972 25.6806 23.448L37.8105 14.5727L24.3132 22.3651C24.0944 22.4929 23.8347 22.5311 23.5884 22.4716C23.342 22.4122 23.1283 22.2597 22.9919 22.0462C22.8554 21.8327 22.8069 21.5747 22.8565 21.3262C22.9061 21.0777 23.0498 20.8581 23.2577 20.7132L33.2199 13.6997L24.1955 18.9084C24.0007 19.0211 23.773 19.0635 23.5506 19.0283C23.3283 18.993 23.1248 18.8824 22.9744 18.715C22.8239 18.5475 22.7356 18.3334 22.7244 18.1085C22.7131 17.8837 22.7795 17.6618 22.9125 17.4801L24.221 15.687C24.0104 15.6756 23.809 15.5965 23.6469 15.4616C23.4848 15.3267 23.3704 15.1431 23.3209 14.938C23.2713 14.733 23.2892 14.5174 23.3718 14.3233C23.4544 14.1293 23.5974 13.967 23.7796 13.8606L27.0303 11.9831C27.2254 11.8709 27.4531 11.8291 27.6752 11.8649C27.8974 11.9006 28.1005 12.0116 28.2506 12.1793C28.4009 12.3466 28.4892 12.5605 28.5007 12.7852C28.5121 13.0098 28.446 13.2316 28.3133 13.4133L27.2324 14.8945L51.1116 1.10484C51.33 0.982181 51.587 0.947676 51.8299 1.0084C52.0729 1.06913 52.2834 1.22048 52.4184 1.43144C52.5533 1.6424 52.6025 1.897 52.5558 2.14303C52.5091 2.38907 52.37 2.60793 52.1671 2.75473L42.205 9.7702L52.5045 3.82392C52.7217 3.70139 52.9773 3.66612 53.2195 3.7253C53.4617 3.78447 53.6722 3.93364 53.8084 4.14249C53.9445 4.35134 53.996 4.60419 53.9525 4.84966C53.9089 5.09513 53.7735 5.31479 53.5737 5.464L41.4438 14.3373L52.5811 7.90647C52.7959 7.78014 53.0508 7.74034 53.294 7.79516C53.5371 7.84998 53.7503 7.9953 53.8901 8.2016C54.03 8.40791 54.0861 8.65972 54.047 8.90589C54.0079 9.15205 53.8766 9.3741 53.6797 9.52693L44.4415 16.8151L58.5666 8.66177C58.7852 8.53772 59.0431 8.50235 59.2871 8.56296C59.5311 8.62357 59.7425 8.77553 59.8776 8.98748C60.0128 9.19943 60.0614 9.45519 60.0135 9.70196C59.9656 9.94873 59.8247 10.1677 59.6201 10.3136L56.3517 12.607L60.0791 10.4588C60.2912 10.3338 60.5425 10.2931 60.7832 10.3448C61.0239 10.3965 61.2363 10.5368 61.3784 10.7379C61.5204 10.939 61.5816 11.1861 61.5499 11.4302C61.5182 11.6743 61.3959 11.8976 61.2072 12.0557L53.9151 18.2747L64.1166 12.3892C64.3311 12.2663 64.5841 12.2289 64.825 12.2846C65.0659 12.3403 65.2769 12.4849 65.4158 12.6894C65.5546 12.894 65.6111 13.1435 65.5739 13.3879C65.5367 13.6323 65.4086 13.8537 65.2152 14.0077L61.6074 16.8445L65.941 14.3373C66.1553 14.2151 66.4078 14.1781 66.6481 14.2337C66.8884 14.2894 67.099 14.4335 67.2378 14.6374C67.3766 14.8413 67.4335 15.09 67.3972 15.334C67.3608 15.578 67.2339 15.7993 67.0416 15.9538L65.688 17.0309L66.2569 16.7033C66.4539 16.5903 66.684 16.5491 66.908 16.5868C67.1319 16.6246 67.3358 16.7388 67.4849 16.9102C67.634 17.0815 67.7191 17.2992 67.7255 17.5263C67.732 17.7533 67.6594 17.9755 67.5203 18.155L65.2171 21.0977L66.1627 20.5543C66.3869 20.437 66.6477 20.4109 66.8907 20.4814C67.1337 20.5519 67.34 20.7136 67.4666 20.9326C67.5933 21.1516 67.6303 21.4111 67.5701 21.6569C67.51 21.9026 67.3571 22.1156 67.1436 22.2513L61.833 25.3235C61.636 25.4376 61.4054 25.4797 61.1808 25.4424C60.9561 25.4051 60.7515 25.2909 60.6019 25.1192C60.4523 24.9476 60.367 24.7292 60.3608 24.5016C60.3545 24.274 60.4277 24.0513 60.5676 23.8718L62.8688 20.929L55.2491 25.3235C55.0348 25.4457 54.7824 25.4827 54.5421 25.4271C54.3017 25.3715 54.0912 25.2273 53.9524 25.0234C53.8136 24.8195 53.7567 24.5708 53.793 24.3268C53.8294 24.0829 53.9563 23.8615 54.1485 23.707L55.51 22.624L50.8311 25.3235C50.6167 25.4441 50.3647 25.4798 50.1252 25.4233C49.8857 25.3669 49.6762 25.2225 49.5382 25.0188C49.4001 24.8151 49.3437 24.567 49.3801 24.3236C49.4164 24.0803 49.5429 23.8595 49.7345 23.705L53.3324 20.8682L45.6186 25.3235C45.4068 25.4458 45.1569 25.4846 44.918 25.4323C44.6791 25.3799 44.4683 25.2402 44.3271 25.0405C44.1859 24.8408 44.1243 24.5956 44.1546 24.3529C44.1848 24.1101 44.3046 23.8875 44.4905 23.7285L51.7747 17.5155L38.2382 25.3274C38.0902 25.4148 37.9215 25.4609 37.7497 25.4608Z" fill="#C1DADC"/>
<path d="M37.4383 9.25808C37.2387 9.25825 37.0438 9.19754 36.8797 9.08406C36.7155 8.97058 36.5899 8.80973 36.5195 8.62297C36.4492 8.43622 36.4374 8.23244 36.4859 8.03886C36.5344 7.84527 36.6408 7.67108 36.7909 7.53953L37.6815 6.7548C37.505 6.79856 37.3198 6.79238 37.1466 6.73695C36.9734 6.68152 36.819 6.57902 36.7006 6.44091C36.5521 6.26724 36.4688 6.04715 36.4652 5.81863C36.4616 5.59011 36.538 5.36751 36.681 5.18927L37.7365 3.87681C37.4935 3.80475 37.2872 3.64266 37.1597 3.42363C37.0302 3.19852 36.9953 2.93125 37.0626 2.68044C37.1299 2.42963 37.2939 2.21575 37.5187 2.08567L40.7655 0.212135C40.9636 0.0987957 41.1951 0.0580868 41.4199 0.0970202C41.6448 0.135954 41.8491 0.252092 41.9976 0.425432C42.1461 0.598773 42.2295 0.818464 42.2334 1.04667C42.2373 1.27487 42.1615 1.4973 42.0191 1.67565L41.4855 2.33875L45.1796 0.212135C45.3902 0.0936529 45.6371 0.0570659 45.873 0.109388C46.1089 0.161711 46.3172 0.299261 46.4579 0.49567C46.5987 0.692078 46.662 0.933524 46.6357 1.17372C46.6094 1.41392 46.4954 1.63596 46.3155 1.79729L45.5622 2.45842L49.3465 0.272952C49.5707 0.155681 49.8315 0.129563 50.0745 0.200053C50.3175 0.270544 50.5238 0.432191 50.6504 0.651229C50.777 0.870268 50.8141 1.12976 50.7539 1.37549C50.6937 1.62122 50.5409 1.8342 50.3274 1.96993L37.9287 9.12664C37.7796 9.21274 37.6105 9.25807 37.4383 9.25808Z" fill="#C1DADC"/>
<path d="M28.2214 12.0498C26.4618 12.0304 24.7635 12.6959 23.4856 13.9056C15.0497 13.7977 -0.105301 11.626 0.644114 24.1973V96.2393C-4.45662 124.066 21.8808 113.976 39.292 115.593C52.8089 112.721 93.1714 124.721 89.8009 102.525C89.7866 75.7487 89.7866 48.9725 89.8009 22.1963C88.9122 10.8177 75.2148 14.4491 67.3872 13.9194C66.733 13.2469 65.9383 12.7272 65.0599 12.3975C64.1815 12.0679 63.2412 11.9364 62.3061 12.0125C62.0412 8.03195 57.6585 8.02999 54.4941 8.06334C55.7673 1.2264 50.8412 -0.707949 44.944 0.216068C39.7314 -0.643209 34.7425 2.23282 35.9196 8.06334C32.6865 8.13986 28.8825 8.62442 28.2214 12.0498ZM66.367 23.9502C66.6594 23.7213 66.9229 23.4578 67.1517 23.1654C73.0725 23.856 81.2768 20.0932 79.1188 29.5806C78.185 54.4152 80.9119 83.6679 78.185 106.347H18.1534C16.1386 106.347 11.8304 107.269 11.336 104.595C11.183 77.551 11.5793 50.2778 11.2164 23.2243C15.0242 23.0399 18.9852 23.24 22.8421 23.1694C24.3743 26.9027 62.3669 26.0709 66.367 23.9502ZM79.9663 15.5438C93.1792 17.2152 84.6943 46.7367 86.9681 56.8871C86.9681 73.2356 86.9681 89.5841 86.9681 105.933C86.9681 110.131 85.02 113.86 80.3587 113.976C58.5668 114.482 36.7082 113.976 14.9105 113.976C11.1085 113.976 7.12008 114.457 4.68546 110.704C1.40922 84.639 4.54029 57.1853 3.49071 30.6812C1.40334 14.1626 8.89945 14.916 22.4968 15.5438C21.9477 17.6343 21.9006 19.8251 22.3595 21.9373C17.2038 22.0668 7.13381 19.7636 8.49728 27.813V103.992C5.6134 112.02 64.8388 105.758 73.253 107.524C75.4993 107.524 78.905 108.016 80.8295 106.602C83.9214 95.1465 80.9885 81.4295 81.9654 69.2623C81.9341 54.4604 82.0106 39.6526 81.9654 24.8526C80.8256 19.2398 71.9719 22.9516 67.8011 21.9805C68.3713 19.8722 68.4658 17.6636 68.0777 15.5143C72.0386 15.4829 76.027 15.3829 79.9663 15.5398V15.5438ZM30.9523 12.3872C30.9209 7.39633 37.3125 11.4063 38.7995 8.46356C37.9383 2.91357 39.8746 0.80069 45.5011 1.7816C47.5963 1.7816 50.1683 1.36177 51.2865 3.66102C52.5931 5.16181 50.5018 9.20316 52.5127 9.62888C55.2808 9.62888 59.5007 9.13057 59.5007 13.1601C59.5007 13.4937 60.1598 13.5525 60.3599 13.5525C65.8256 12.4853 66.8594 20.0893 64.3208 23.3753C55.422 24.4838 45.9798 23.4126 36.9064 23.7677C32.6551 23.497 24.5469 25.7962 25.0688 19.0947C24.2703 11.1748 28.2096 15.4751 30.9523 12.3872Z" fill="#262626"/>
<path d="M60.3951 52.5339C58.9943 46.0835 64.4619 32.8314 55.3591 31.3934C47.606 32.851 35.219 27.6149 30.2968 35.0678C30.8285 41.6694 27.309 56.4281 32.8138 60.3537C40.7494 60.0104 62.5786 65.8919 60.3951 52.5339ZM41.6146 33.3787H49.6835C49.4069 35.8722 50.2956 38.9503 49.2421 41.1985C46.6623 39.121 44.4121 38.7463 41.9343 41.2162C39.5586 39.786 41.2516 35.7957 40.769 33.3689L41.6146 33.3787ZM49.1872 41.2495C49.0146 41.3417 49.1401 41.2495 49.2009 41.2495H49.1872ZM41.9775 41.226C41.9971 41.2299 41.9971 41.2299 41.9775 41.226ZM57.523 49.7226C57.0149 52.5849 59.1101 58.1016 55.1688 58.8667C48.3024 57.7092 38.6012 61.417 33.1827 57.001C32.8825 49.6599 32.3097 41.6125 33.4357 34.3734C34.5049 32.8843 36.3589 33.5141 37.9067 33.3924C37.3476 38.6776 37.9067 46.5582 44.9516 41.4359C51.6355 46.5229 53.3619 38.8012 52.5341 33.3924C61.0464 32.4194 56.4087 44.5984 57.523 49.7148V49.7226Z" fill="#262626"/>
<path d="M41.8659 51.2351C40.7261 51.3097 37.8167 50.8428 38.0188 52.5496C39.0115 53.4167 44.6772 52.3122 41.8659 51.2351Z" fill="#262626"/>
<path d="M59.5869 78.008C64.6229 84.635 69.9355 70.4569 73.9866 67.6241C71.0655 65.1345 65.747 75.7578 63.0456 77.7961C62.5571 76.3424 59.3907 76.9545 59.5869 78.008Z" fill="#262626"/>
<path d="M73.2433 86.5046C68.8115 88.2585 66.526 94.0596 62.9987 97.326C62.4709 95.8056 58.9907 96.3608 59.6008 97.685C60.823 99.025 62.5102 101.048 64.2071 99.1211C65.5314 96.3922 75.5935 87.9466 73.2433 86.5046Z" fill="#262626"/>
<path d="M19.5914 70.6845C23.0186 69.8096 59.4359 72.8877 53.2052 68.6384C49.7798 69.5114 13.3587 66.4333 19.5914 70.6845Z" fill="#262626"/>
<path d="M19.4404 78.5358C22.1438 77.6608 50.8727 80.7389 45.9583 76.4896C43.2648 77.3626 14.5241 74.2865 19.4404 78.5358Z" fill="#262626"/>
<path d="M19.4404 98.1775C22.1438 97.3025 50.8727 100.381 45.9583 96.1313C43.2648 97.0043 14.5241 93.9282 19.4404 98.1775Z" fill="#262626"/>
<path d="M19.5955 90.3499C23.0366 89.4768 59.6167 92.553 53.3545 88.3037C49.9135 89.1767 13.3354 86.1006 19.5955 90.3499Z" fill="#262626"/>
<path d="M44.3221 11.4514C46.3957 11.9575 47.6062 9.06579 46.1309 8.19866C44.0494 7.69251 42.8468 10.5842 44.3221 11.4514Z" fill="#262626"/>
</svg>
