<svg width="124" height="123" viewBox="0 0 124 123" fill="none" xmlns="http://www.w3.org/2000/svg">
<path d="M85.8126 5.44631C85.5825 5.4463 85.3589 5.37039 85.1764 5.23035C84.9939 5.0903 84.8627 4.89396 84.8032 4.67176C84.7436 4.44956 84.7591 4.21392 84.8471 4.00139C84.9351 3.78886 85.0908 3.61131 85.29 3.49628L90.7848 0.325658C91.0247 0.189263 91.3088 0.153293 91.5751 0.225597C91.8415 0.297901 92.0684 0.472608 92.2064 0.711594C92.3443 0.950579 92.3822 1.23444 92.3117 1.50123C92.2411 1.76802 92.0679 1.99609 91.8299 2.13565L86.3434 5.30419C86.1823 5.39808 85.999 5.44715 85.8126 5.44631Z" fill="#7166F0"/>
<path d="M92.8582 28.04C92.6515 28.0403 92.4494 27.9794 92.2773 27.8648C92.1052 27.7503 91.971 27.5873 91.8916 27.3965C91.8121 27.2056 91.7911 26.9955 91.8311 26.7927C91.8711 26.5899 91.9703 26.4035 92.1163 26.2571L95.5084 22.8566L87.9173 27.2457C87.6917 27.374 87.4265 27.4137 87.1733 27.3571C86.92 27.3006 86.6969 27.1519 86.5472 26.9399C86.3976 26.728 86.3321 26.4679 86.3636 26.2104C86.3951 25.9528 86.5213 25.7162 86.7176 25.5465L93.8803 19.431L83.1771 25.6092C82.9482 25.741 82.678 25.7812 82.4207 25.7219C82.1634 25.6626 81.9381 25.508 81.7901 25.2893C81.6421 25.0706 81.5824 24.804 81.6229 24.5431C81.6635 24.2822 81.8013 24.0463 82.0087 23.8828L90.718 17.0588L79.7891 23.3687C79.5556 23.5005 79.2804 23.5375 79.0204 23.4722C78.7604 23.4068 78.5355 23.244 78.3921 23.0174C78.2488 22.7909 78.198 22.5179 78.2503 22.2549C78.3026 21.992 78.4539 21.7592 78.673 21.6047L80.3576 20.4405L77.6948 21.9767C77.4624 22.1093 77.188 22.1476 76.9281 22.0839C76.6682 22.0202 76.4427 21.8592 76.298 21.6341C76.1533 21.409 76.1004 21.137 76.1503 20.8741C76.2002 20.6112 76.3491 20.3774 76.5662 20.221L81.9795 16.3732L75.1742 20.29C74.9423 20.4231 74.6682 20.4622 74.4083 20.3993C74.1484 20.3365 73.9225 20.1763 73.777 19.9519C73.6316 19.7275 73.5778 19.4559 73.6266 19.193C73.6754 18.93 73.8231 18.6958 74.0393 18.5385L81.1978 13.351L72.3861 18.4361C72.1534 18.5622 71.8816 18.5953 71.6255 18.5288C71.3694 18.4623 71.148 18.3011 71.0061 18.0778C70.8642 17.8544 70.8123 17.5856 70.8609 17.3255C70.9095 17.0653 71.0549 16.8333 71.2679 16.6763L74.2274 14.6176L70.1643 16.9605C69.9337 17.0936 69.661 17.1337 69.4018 17.0725C69.1426 17.0113 68.9166 16.8535 68.7699 16.6312C68.6232 16.409 68.5668 16.1392 68.6123 15.8768C68.6579 15.6144 68.8018 15.3793 69.0148 15.2195L69.3241 14.9896L68.1851 15.6459C67.9581 15.7729 67.6919 15.8108 67.4385 15.752C67.1851 15.6933 66.9628 15.5421 66.8149 15.3281C66.667 15.1142 66.6042 14.8527 66.6389 14.5949C66.6735 14.3371 66.803 14.1015 67.0021 13.9341L71.2783 10.4354L66.4252 13.236C66.1992 13.3632 65.934 13.4017 65.6812 13.3442C65.4283 13.2867 65.2059 13.1372 65.0571 12.9248C64.9083 12.7125 64.8438 12.4523 64.8761 12.1951C64.9083 11.9378 65.0351 11.7017 65.2318 11.5326L68.9793 8.39755L66.7011 9.7122C66.4803 9.84315 66.219 9.88822 65.967 9.83883C65.7151 9.78943 65.4901 9.64902 65.3351 9.44437C65.1801 9.23973 65.1058 8.98517 65.1265 8.72927C65.1471 8.47336 65.2612 8.23401 65.4471 8.05687L68.1955 5.39831C67.947 5.32087 67.7371 5.15207 67.6082 4.92596C67.4694 4.68619 67.4316 4.40114 67.5029 4.13346C67.5742 3.86579 67.7489 3.63738 67.9886 3.49845L73.4813 0.323643C73.7021 0.192695 73.9634 0.147621 74.2154 0.197019C74.4673 0.246417 74.6922 0.38683 74.8473 0.591474C75.0023 0.796118 75.0766 1.05067 75.0559 1.30658C75.0353 1.56248 74.9211 1.80183 74.7353 1.97897L73.0027 3.65102L78.3219 0.58281C78.5482 0.453091 78.8149 0.412718 79.0695 0.469624C79.324 0.526531 79.5481 0.676602 79.6977 0.890344C79.8473 1.10408 79.9115 1.36604 79.8777 1.62472C79.844 1.8834 79.7147 2.1201 79.5153 2.2883L75.7532 5.42339L81.3692 2.18171C81.5962 2.0525 81.8634 2.01301 82.1181 2.07102C82.3728 2.12902 82.5966 2.28033 82.7453 2.49511C82.894 2.7099 82.9568 2.97258 82.9215 3.23141C82.8861 3.49024 82.7551 3.72644 82.5542 3.89347L78.2884 7.40059L83.5136 4.38881C83.7442 4.25571 84.017 4.21567 84.2761 4.27687C84.5353 4.33807 84.7613 4.4959 84.908 4.71812C85.0547 4.94034 85.1111 5.21019 85.0656 5.47256C85.0201 5.73493 84.8761 5.97002 84.6631 6.12984L84.3475 6.36392L94.7518 0.354994C94.985 0.224731 95.2591 0.188654 95.518 0.25417C95.7769 0.319687 96.0008 0.481824 96.1439 0.707295C96.287 0.932767 96.3384 1.20446 96.2874 1.4666C96.2365 1.72875 96.0871 1.96144 95.87 2.11692L92.9188 4.17354L97.6131 1.45646C97.8451 1.32335 98.1192 1.28422 98.3791 1.34712C98.639 1.41001 98.8649 1.57014 99.0103 1.79455C99.1557 2.01897 99.2096 2.29058 99.1608 2.5535C99.112 2.81642 98.9643 3.05063 98.748 3.20793L91.577 8.408L100.088 3.49636C100.32 3.36377 100.595 3.3254 100.855 3.38914C101.114 3.45288 101.34 3.61389 101.485 3.83898C101.629 4.06407 101.682 4.33608 101.632 4.59898C101.582 4.86187 101.434 5.0956 101.216 5.25201L95.8219 9.08727L101.616 5.74317C101.849 5.61136 102.124 5.5743 102.384 5.63968C102.644 5.70505 102.869 5.86785 103.013 6.09441C103.156 6.32097 103.207 6.59396 103.154 6.85691C103.102 7.11987 102.951 7.35268 102.732 7.50719L101.018 8.69016L102.422 7.8834C102.651 7.75416 102.92 7.71582 103.176 7.77602C103.432 7.83622 103.655 7.99054 103.802 8.20826C103.949 8.42597 104.009 8.69109 103.97 8.95082C103.93 9.21054 103.794 9.44582 103.589 9.60979L94.8877 16.4318L102.721 11.9109C102.947 11.7778 103.215 11.7344 103.471 11.7895C103.728 11.8446 103.954 11.9941 104.105 12.2083C104.257 12.4225 104.322 12.6858 104.288 12.9459C104.254 13.206 104.124 13.4438 103.923 13.6123L96.7604 19.7215L101.3 17.1006C101.519 16.9801 101.774 16.9423 102.019 16.994C102.264 17.0457 102.482 17.1835 102.634 17.3824C102.786 17.5812 102.861 17.8279 102.846 18.0777C102.832 18.3274 102.728 18.5636 102.554 18.7434L97.2244 24.0856C97.3082 24.1603 97.3789 24.2486 97.4334 24.3468C97.5713 24.5867 97.6085 24.8714 97.5368 25.1386C97.4651 25.4058 97.2904 25.6337 97.0509 25.7722L93.3682 27.8999C93.2135 27.9905 93.0376 28.0388 92.8582 28.04Z" fill="#7166F0"/>
<path d="M19.8293 26.351C19.6087 26.3542 19.3928 26.2874 19.2125 26.1603C19.0322 26.0332 18.8967 25.8523 18.8255 25.6435C18.7543 25.4347 18.7509 25.2087 18.816 24.9979C18.8811 24.7871 19.0112 24.6023 19.1877 24.47L21.8839 22.3653L20.3518 23.2494C20.1239 23.3766 19.8566 23.4139 19.6026 23.3539C19.3485 23.294 19.1261 23.1411 18.9791 22.9255C18.8321 22.7098 18.7711 22.4469 18.8081 22.1885C18.8452 21.9301 18.9776 21.6949 19.1793 21.5293L22.8139 18.6262L20.3518 20.0474C20.1223 20.1726 19.8541 20.2072 19.6003 20.1444C19.3465 20.0816 19.1254 19.9258 18.9808 19.708C18.8362 19.4901 18.7785 19.226 18.8191 18.9676C18.8597 18.7093 18.9957 18.4756 19.2002 18.3127L20.1387 17.6041C19.9346 17.6695 19.7151 17.6696 19.511 17.6044C19.3068 17.5392 19.128 17.412 18.9996 17.2405C18.8457 17.0388 18.7704 16.7882 18.7877 16.5351C18.805 16.2821 18.9137 16.044 19.0936 15.8652L22.7617 12.2264L20.3518 13.6163C20.1593 13.7252 19.9373 13.7702 19.7176 13.7448C19.4979 13.7194 19.2919 13.625 19.1293 13.4752C18.9666 13.3253 18.8557 13.1277 18.8125 12.9108C18.7693 12.694 18.796 12.4689 18.8888 12.2682L20.0718 9.74341C19.8324 9.77379 19.5898 9.72036 19.3853 9.59221C19.1808 9.46405 19.027 9.26906 18.9499 9.04035C18.8728 8.81165 18.8773 8.56332 18.9626 8.33754C19.0478 8.11176 19.2086 7.92244 19.4176 7.80174L21.8567 6.39931C22.0492 6.29044 22.2713 6.24545 22.491 6.27081C22.7106 6.29617 22.9166 6.39057 23.0793 6.54042C23.2419 6.69028 23.3528 6.88787 23.396 7.10476C23.4392 7.32165 23.4125 7.54665 23.3197 7.7474L22.189 10.1614L28.6933 6.39931C28.9128 6.27731 29.1689 6.23844 29.4148 6.28984C29.6606 6.34123 29.8797 6.47944 30.032 6.67917C30.1843 6.87889 30.2595 7.12678 30.244 7.37745C30.2284 7.62812 30.1231 7.86481 29.9473 8.04419L26.2876 11.6767L33.561 7.4736C33.7914 7.34163 34.0633 7.30227 34.3216 7.36351C34.5799 7.42475 34.8053 7.582 34.9518 7.80333C35.0984 8.02467 35.1553 8.29349 35.1109 8.55522C35.0664 8.81695 34.9241 9.05196 34.7127 9.21253L33.9059 9.82283C34.1378 9.7209 34.3988 9.70667 34.6404 9.78278C34.882 9.85889 35.0878 10.0202 35.2194 10.2366C35.351 10.453 35.3995 10.7099 35.3559 10.9594C35.3122 11.2089 35.1795 11.4341 34.9823 11.5931L31.3602 14.492L33.8307 13.0666C34.0597 12.9366 34.3293 12.8978 34.5857 12.9581C34.8421 13.0183 35.0663 13.1732 35.2134 13.3916C35.3605 13.61 35.4197 13.876 35.3792 14.1362C35.3387 14.3964 35.2014 14.6317 34.9948 14.7951L27.5542 20.6117C27.6017 20.6635 27.6424 20.7211 27.6754 20.7831C27.8135 21.0227 27.851 21.3072 27.7797 21.5744C27.7084 21.8416 27.5341 22.0696 27.295 22.2085L20.3518 26.2089C20.1935 26.302 20.0131 26.3511 19.8293 26.351Z" fill="#7166F0"/>
<path d="M22.2224 106.451C21.9955 106.451 21.7748 106.377 21.5935 106.24C21.4123 106.104 21.2805 105.912 21.2179 105.694C21.1553 105.476 21.1655 105.243 21.2468 105.031C21.3281 104.82 21.4762 104.64 21.6686 104.52L45.2048 89.8245L16.6482 106.305C16.4131 106.415 16.1453 106.434 15.8969 106.358C15.6485 106.282 15.4375 106.116 15.3049 105.892C15.1723 105.669 15.1277 105.404 15.1797 105.149C15.2318 104.895 15.3768 104.669 15.5865 104.516L34.2382 93.0202L12.0752 105.813C11.8382 105.958 11.5537 106.002 11.2842 105.936C11.0148 105.87 10.7824 105.7 10.6383 105.463C10.4942 105.226 10.4501 104.942 10.5157 104.672C10.5814 104.403 10.7514 104.171 10.9884 104.026L51.7571 78.2978L9.92243 102.446C9.68463 102.589 9.39997 102.631 9.13108 102.564C8.8622 102.496 8.63111 102.325 8.48865 102.087C8.34619 101.849 8.30403 101.564 8.37145 101.296C8.43886 101.027 8.61033 100.796 8.84814 100.653L41.0079 80.6888L9.89944 98.6466C9.66173 98.7759 9.38314 98.8079 9.12229 98.736C8.86145 98.664 8.63868 98.4937 8.50086 98.2608C8.36304 98.028 8.32091 97.7507 8.38334 97.4874C8.44577 97.2242 8.6079 96.9953 8.8356 96.8492L13.9542 93.7454L9.89735 96.0863C9.65979 96.2176 9.38046 96.2514 9.11846 96.1804C8.85646 96.1094 8.63236 95.9393 8.49358 95.706C8.3548 95.4727 8.31224 95.1946 8.37491 94.9305C8.43757 94.6664 8.60054 94.437 8.82933 94.2909L33.8704 78.8663L9.89735 92.7192C9.65964 92.8485 9.38105 92.8805 9.1202 92.8085C8.85936 92.7366 8.63659 92.5663 8.49877 92.3334C8.36095 92.1006 8.31882 91.8233 8.38125 91.56C8.44369 91.2967 8.60581 91.0679 8.83351 90.9217L21.3739 83.2805L9.89526 89.8934C9.65832 90.0239 9.38001 90.0575 9.11885 89.987C8.85769 89.9165 8.63403 89.7475 8.4949 89.5156C8.35577 89.2836 8.31201 89.0067 8.37282 88.7431C8.43363 88.4796 8.59427 88.2498 8.82097 88.1023L44.4753 65.8034L9.89317 85.7677C9.65688 85.8923 9.38184 85.9217 9.12454 85.8498C8.86725 85.778 8.64725 85.6103 8.50972 85.3813C8.3722 85.1523 8.32761 84.8793 8.38511 84.6184C8.4426 84.3575 8.59782 84.1286 8.81888 83.9786L40.9285 63.914L9.89108 81.8258C9.65473 81.9558 9.37728 81.9893 9.11676 81.9194C8.85624 81.8496 8.63283 81.6816 8.49326 81.4508C8.35369 81.22 8.30877 80.9442 8.3679 80.681C8.42703 80.4178 8.58563 80.1877 8.81052 80.0388L45.2842 56.9164L9.88899 77.3489C9.65172 77.4857 9.37021 77.5239 9.10506 77.4553C8.83991 77.3866 8.61231 77.2166 8.47123 76.9818C8.33016 76.7471 8.28688 76.4663 8.35073 76.2C8.41457 75.9336 8.58043 75.703 8.81261 75.5577L35.6197 58.7682L9.88899 73.6244C9.65205 73.7549 9.37374 73.7884 9.11258 73.718C8.85142 73.6475 8.62776 73.4785 8.48863 73.2465C8.3495 73.0145 8.30574 72.7377 8.36655 72.4741C8.42736 72.2105 8.588 71.9808 8.8147 71.8332L30.6872 58.1788L9.8869 70.1862C9.65061 70.3109 9.37557 70.3403 9.11827 70.2684C8.86098 70.1965 8.64097 70.0289 8.50345 69.7999C8.36593 69.5708 8.32134 69.2979 8.37884 69.037C8.43633 68.7761 8.59155 68.5471 8.81261 68.3971L28.6682 55.9843L9.87854 66.8317C9.64191 66.9669 9.36182 67.0044 9.09798 66.936C8.83415 66.8677 8.60745 66.699 8.46622 66.4659C8.325 66.2328 8.28043 65.9537 8.34201 65.6882C8.4036 65.4227 8.56647 65.1918 8.79589 65.0447L36.3847 47.4485L9.88272 62.7477C9.64637 62.8777 9.36892 62.9112 9.1084 62.8414C8.84788 62.7715 8.62447 62.6036 8.4849 62.3727C8.34533 62.1419 8.30041 61.8661 8.35954 61.6029C8.41867 61.3397 8.57727 61.1096 8.80216 60.9607L30.612 47.1329L9.88272 59.0985C9.64732 59.2262 9.37185 59.2587 9.11318 59.1893C8.8545 59.1198 8.63237 58.9537 8.49264 58.7252C8.35292 58.4967 8.30625 58.2233 8.3623 57.9613C8.41834 57.6994 8.5728 57.469 8.7938 57.3177L34.5141 40.7143L9.88272 54.9267C9.64669 55.061 9.36764 55.0982 9.10467 55.0304C8.8417 54.9625 8.61547 54.795 8.47391 54.5632C8.33235 54.3314 8.28657 54.0537 8.34628 53.7887C8.40599 53.5238 8.5665 53.2925 8.7938 53.1439L29.9201 39.5585L9.88063 51.1416C9.64414 51.2802 9.36266 51.3203 9.09686 51.2533C8.83106 51.1863 8.60223 51.0176 8.45967 50.7835C8.31711 50.5494 8.27225 50.2686 8.33475 50.0017C8.39725 49.7348 8.56211 49.5032 8.7938 49.3567L25.9469 38.3776L9.87854 47.6428C9.64342 47.7825 9.36292 47.8244 9.09723 47.7596C8.83155 47.6948 8.60185 47.5285 8.45742 47.2962C8.313 47.064 8.26536 46.7844 8.32473 46.5175C8.3841 46.2505 8.54575 46.0175 8.77499 45.8684L33.0197 29.7373L9.87645 43.0928C9.64194 43.2242 9.36578 43.2603 9.10539 43.1934C8.84501 43.1265 8.62042 42.9618 8.47832 42.7336C8.33622 42.5053 8.28754 42.2311 8.3424 41.9679C8.39726 41.7048 8.55144 41.4728 8.77289 41.3204L29.4896 27.5385L9.87436 38.8625C9.63998 39.0056 9.35867 39.0507 9.09128 38.9881C8.82389 38.9254 8.59191 38.76 8.44552 38.5277C8.29913 38.2953 8.25009 38.0147 8.309 37.7464C8.36792 37.4782 8.53006 37.2439 8.76035 37.0943L45.4263 12.0135C45.3836 11.7991 45.4093 11.5767 45.4996 11.3776C45.59 11.1785 45.7405 11.0128 45.93 10.9037L53.17 6.72359C53.4044 6.58046 53.6857 6.53534 53.9531 6.598C54.2205 6.66066 54.4524 6.82605 54.5988 7.05841C54.7452 7.29077 54.7943 7.57142 54.7354 7.83966C54.6764 8.1079 54.5143 8.34216 54.284 8.49179L32.562 23.35L56.9697 9.26093C57.2041 9.13299 57.4785 9.09959 57.7366 9.16758C57.9948 9.23557 58.2172 9.3998 58.3581 9.62655C58.499 9.85331 58.5478 10.1254 58.4945 10.387C58.4411 10.6486 58.2897 10.8798 58.0712 11.0333L37.3629 24.811L60.3744 11.5266C60.6088 11.3986 60.8832 11.3652 61.1414 11.4332C61.3995 11.5012 61.6219 11.6654 61.7628 11.8922C61.9037 12.1189 61.9525 12.391 61.8992 12.6526C61.8458 12.9142 61.6944 13.1455 61.4759 13.2989L37.2312 29.4363L64.0341 13.9657C64.2697 13.8395 64.5446 13.8085 64.8024 13.8788C65.0602 13.9491 65.2812 14.1155 65.4201 14.3438C65.559 14.572 65.6052 14.8448 65.5492 15.1061C65.4931 15.3674 65.3392 15.5972 65.1189 15.7485L47.9804 26.7338L66.8515 15.8384C66.9687 15.7669 67.0989 15.7191 67.2345 15.6979C67.3702 15.6767 67.5086 15.6824 67.6421 15.7148C67.7755 15.7471 67.9013 15.8054 68.0122 15.8863C68.1231 15.9672 68.217 16.0692 68.2885 16.1864C68.36 16.3035 68.4077 16.4337 68.4289 16.5693C68.4501 16.705 68.4444 16.8435 68.4121 16.9769C68.3797 17.1103 68.3215 17.2361 68.2406 17.347C68.1596 17.4579 68.0577 17.5518 67.9405 17.6233L46.8308 31.1961L69.8989 17.8699C70.1345 17.7383 70.4119 17.7029 70.673 17.7712C70.9341 17.8394 71.1587 18.0061 71.2997 18.2362C71.4407 18.4664 71.4872 18.7421 71.4294 19.0058C71.3717 19.2694 71.2142 19.5005 70.9899 19.6506L45.2654 36.2603L73.2513 20.1021C73.4877 19.9721 73.7651 19.9386 74.0256 20.0084C74.2861 20.0783 74.5096 20.2462 74.6491 20.477C74.7887 20.7079 74.8336 20.9837 74.7745 21.2469C74.7154 21.51 74.5568 21.7402 74.3319 21.8891L52.5179 35.7211L76.1858 22.0563C76.4219 21.9243 76.7001 21.889 76.9618 21.9579C77.2234 22.0268 77.4482 22.1945 77.5887 22.4258C77.7292 22.657 77.7746 22.9337 77.7152 23.1977C77.6559 23.4617 77.4965 23.6924 77.2705 23.8412L49.7005 41.4291L79.4692 24.2446C79.7058 24.1165 79.9826 24.0845 80.2421 24.1553C80.5016 24.2261 80.7238 24.3942 80.8625 24.6247C81.0011 24.8552 81.0456 25.1303 80.9866 25.3927C80.9276 25.6552 80.7696 25.8847 80.5456 26.0337L60.6754 38.4528L82.1696 26.0462C82.4061 25.9181 82.6829 25.8861 82.9424 25.9569C83.2019 26.0277 83.4241 26.1959 83.5628 26.4263C83.7015 26.6568 83.7459 26.9319 83.6869 27.1944C83.6279 27.4568 83.47 27.6864 83.246 27.8353L61.3818 41.4834L84.9369 27.8834C85.1734 27.7553 85.4502 27.7233 85.7097 27.7941C85.9692 27.8649 86.1914 28.033 86.3301 28.2635C86.4687 28.494 86.5132 28.7691 86.4542 29.0315C86.3952 29.294 86.2372 29.5235 86.0132 29.6725L59.1894 46.4724L87.9319 29.8794C88.1679 29.7515 88.444 29.7193 88.703 29.7895C88.962 29.8596 89.1842 30.0268 89.3233 30.2562C89.4625 30.4857 89.5081 30.7599 89.4506 31.022C89.3931 31.2842 89.237 31.5141 89.0146 31.6643L52.5325 54.795L91.5352 32.2767C91.7725 32.1399 92.054 32.1017 92.3191 32.1703C92.5843 32.239 92.8119 32.409 92.9529 32.6437C93.094 32.8785 93.1373 33.1593 93.0734 33.4256C93.0096 33.6919 92.8437 33.9226 92.6116 34.0679L60.4936 54.1325L94.7079 34.3814C94.9452 34.2446 95.2267 34.2064 95.4918 34.275C95.757 34.3437 95.9846 34.5137 96.1256 34.7484C96.2667 34.9832 96.31 35.2639 96.2462 35.5303C96.1823 35.7966 96.0164 36.0273 95.7843 36.1726L60.1445 58.4694L96.5116 37.4726C96.7486 37.3493 97.0239 37.3214 97.2808 37.3947C97.5377 37.4681 97.7568 37.637 97.893 37.8669C98.0292 38.0968 98.0722 38.3701 98.0132 38.6306C97.9541 38.8912 97.7975 39.1193 97.5755 39.268L85.0706 46.8925L96.5116 40.2858C96.6295 40.2155 96.7601 40.1692 96.8959 40.1494C97.0317 40.1296 97.17 40.1367 97.3031 40.1704C97.4361 40.2041 97.5612 40.2636 97.6713 40.3456C97.7813 40.4277 97.8741 40.5306 97.9444 40.6484C98.0146 40.7663 98.061 40.8969 98.0808 41.0327C98.1006 41.1685 98.0934 41.3069 98.0598 41.4399C98.0261 41.5729 97.9666 41.6981 97.8845 41.8081C97.8025 41.9181 97.6996 42.0109 97.5817 42.0812L72.5198 57.5205L96.5179 43.6654C96.7556 43.5362 97.0342 43.5041 97.295 43.5761C97.5559 43.648 97.7786 43.8184 97.9165 44.0512C98.0543 44.2841 98.0964 44.5613 98.034 44.8246C97.9715 45.0879 97.8094 45.3167 97.5817 45.4629L92.5008 48.5436L96.5158 46.2258C96.7532 46.092 97.0335 46.0563 97.2968 46.1262C97.5602 46.1961 97.7858 46.3661 97.9257 46.6C98.0655 46.8338 98.1085 47.1131 98.0454 47.3782C97.9823 47.6433 97.8182 47.8732 97.588 48.019L65.4261 67.9875L96.52 50.038C96.7561 49.9118 97.0316 49.8811 97.2898 49.9521C97.5479 50.0231 97.7689 50.1905 97.9073 50.4197C98.0456 50.6489 98.0907 50.9225 98.0332 51.184C97.9758 51.4455 97.8201 51.6749 97.5984 51.825L56.8276 77.5621L96.5221 54.6487C96.7592 54.5201 97.0368 54.4882 97.2969 54.5596C97.557 54.6311 97.7794 54.8003 97.9176 55.0319C98.0558 55.2635 98.0991 55.5396 98.0385 55.8024C97.9778 56.0652 97.8179 56.2944 97.5922 56.442L78.9279 67.9373L96.5242 57.7796C96.7604 57.655 97.0355 57.6256 97.2928 57.6975C97.5501 57.7693 97.7701 57.937 97.9076 58.166C98.0451 58.395 98.0897 58.668 98.0322 58.9289C97.9747 59.1898 97.8195 59.4187 97.5984 59.5687L74.0769 74.2577L96.5242 61.2993C96.7602 61.1649 97.0392 61.1278 97.3022 61.1956C97.5652 61.2634 97.7914 61.431 97.933 61.6628C98.0745 61.8945 98.1203 62.1723 98.0606 62.4373C98.0009 62.7022 97.8404 62.9335 97.6131 63.0821L65.2297 84.0559L96.5263 65.9873C96.7632 65.8568 97.0415 65.8233 97.3027 65.8937C97.5638 65.9642 97.7875 66.1332 97.9266 66.3652C98.0657 66.5971 98.1095 66.874 98.0487 67.1376C97.9879 67.4012 97.8272 67.6309 97.6005 67.7785L86.2703 74.8638L96.5283 68.9426C96.7648 68.8041 97.0463 68.7639 97.3121 68.8309C97.5779 68.8979 97.8067 69.0667 97.9493 69.3008C98.0919 69.5349 98.1367 69.8157 98.0742 70.0826C98.0117 70.3494 97.8469 70.5811 97.6152 70.7276L78.9676 82.7203L94.2376 73.9086C94.4716 73.7771 94.7472 73.7406 95.0074 73.8067C95.2676 73.8729 95.4923 74.0366 95.635 74.264C95.7777 74.4913 95.8274 74.7649 95.7739 75.0279C95.7204 75.291 95.5677 75.5233 95.3475 75.6768L73.6213 90.4766L87.1063 82.6869C87.3373 82.5574 87.6089 82.5205 87.8661 82.5836C88.1233 82.6466 88.3469 82.805 88.4919 83.0266C88.6368 83.2483 88.6922 83.5166 88.6468 83.7775C88.6014 84.0384 88.4587 84.2724 88.2475 84.4321L73.8261 95.0266L79.9604 91.4944C80.1906 91.3605 80.4631 91.3195 80.7225 91.3798C80.9818 91.4401 81.2084 91.5971 81.3559 91.8188C81.5034 92.0404 81.5607 92.3101 81.5162 92.5726C81.4717 92.8351 81.3286 93.0707 81.1162 93.2313L75.7552 97.3173C75.9505 97.339 76.1358 97.4152 76.2897 97.5374C76.4436 97.6595 76.56 97.8226 76.6255 98.0078C76.6909 98.1931 76.7028 98.3931 76.6598 98.5848C76.6168 98.7766 76.5206 98.9523 76.3822 99.0918L71.9785 103.525C72.103 103.764 72.1305 104.041 72.0554 104.3C71.9802 104.558 71.8082 104.778 71.5751 104.913L69.1715 106.3C68.9523 106.427 68.6947 106.469 68.4464 106.42C68.1982 106.371 67.9763 106.233 67.8218 106.033C67.6674 105.833 67.5908 105.583 67.6065 105.33C67.6222 105.078 67.729 104.84 67.907 104.66L69.3701 103.176L63.9547 106.311C63.7249 106.441 63.4545 106.479 63.1977 106.418C62.9409 106.357 62.7168 106.2 62.5704 105.981C62.424 105.761 62.3662 105.494 62.4086 105.234C62.451 104.973 62.5904 104.738 62.7989 104.576L66.9122 101.441L58.4788 106.305C58.2474 106.435 57.9751 106.473 57.7171 106.41C57.4591 106.347 57.2347 106.188 57.0897 105.965C56.9446 105.743 56.8898 105.473 56.9362 105.212C56.9826 104.95 57.1269 104.716 57.3397 104.557L71.7486 93.9732L50.3777 106.305C50.144 106.435 49.8695 106.47 49.6105 106.404C49.3515 106.337 49.1278 106.174 48.9854 105.948C48.843 105.722 48.7927 105.45 48.8448 105.187C48.897 104.925 49.0476 104.693 49.2658 104.538L71.0024 89.7325L42.287 106.305C42.0513 106.434 41.7745 106.468 41.5145 106.399C41.2545 106.33 41.0312 106.163 40.8911 105.933C40.7511 105.703 40.705 105.428 40.7626 105.165C40.8202 104.902 40.9769 104.672 41.2002 104.522L59.8519 92.5269L35.9834 106.305C35.7469 106.433 35.4701 106.465 35.2106 106.394C34.9511 106.323 34.7289 106.155 34.5902 105.924C34.4515 105.694 34.4071 105.419 34.4661 105.156C34.5251 104.894 34.683 104.664 34.907 104.516L46.2164 97.4407L30.8649 106.305C30.6292 106.436 30.3518 106.472 30.0907 106.403C29.8296 106.335 29.605 106.168 29.464 105.938C29.323 105.708 29.2765 105.432 29.3343 105.169C29.392 104.905 29.5495 104.674 29.7738 104.524L62.1573 83.5564L22.745 106.305C22.5867 106.399 22.4065 106.449 22.2224 106.451Z" fill="#EAF4F4"/>
<path d="M98.5118 41.4456C98.3128 41.4454 98.1181 41.3884 97.9504 41.2813C97.7827 41.1742 97.6491 41.0214 97.5652 40.841C97.4813 40.6605 97.4507 40.4599 97.477 40.2627C97.5033 40.0654 97.5853 39.8798 97.7134 39.7276L99.2663 37.8862L96.3904 39.5457C96.18 39.6657 95.9344 39.7088 95.6956 39.6677C95.4569 39.6266 95.2399 39.5039 95.0816 39.3205C94.9234 39.1371 94.8338 38.9044 94.8282 38.6622C94.8225 38.42 94.9012 38.1834 95.0507 37.9928L96.8356 35.7418L93.5458 37.6459C93.3459 37.7616 93.1132 37.8078 92.8842 37.7773C92.6552 37.7468 92.4428 37.6412 92.2801 37.4771C92.1175 37.313 92.0138 37.0997 91.9853 36.8704C91.9568 36.6412 92.005 36.4089 92.1225 36.21L94.3463 32.4479L89.7482 35.1085C89.5482 35.2243 89.3156 35.2705 89.0866 35.24C88.8576 35.2094 88.6451 35.1039 88.4825 34.9398C88.3199 34.7757 88.2162 34.5624 88.1876 34.3331C88.1591 34.1038 88.2074 33.8716 88.3249 33.6727L90.5466 29.9106L85.9088 32.567C85.6884 32.6941 85.4293 32.7364 85.18 32.6861C84.9307 32.6358 84.7083 32.4964 84.5545 32.2938C84.4006 32.0913 84.3259 31.8396 84.3444 31.5859C84.3629 31.3322 84.4732 31.094 84.6547 30.9159L84.8449 30.7299L83.9336 31.2545C83.7282 31.3725 83.4887 31.4173 83.2545 31.3813C83.0203 31.3454 82.8052 31.231 82.6446 31.0567C82.484 30.8825 82.3873 30.6589 82.3705 30.4225C82.3537 30.1861 82.4178 29.9511 82.5521 29.7559L84.6547 26.7128L80.6146 29.0453C80.3976 29.171 80.1425 29.2144 79.8961 29.1676C79.6497 29.1208 79.4283 28.987 79.2724 28.7905C79.1165 28.594 79.0364 28.348 79.0469 28.0974C79.0573 27.8468 79.1575 27.6083 79.3292 27.4255L80.2928 26.3992L78.3344 27.5279C78.132 27.6469 77.8955 27.6944 77.6628 27.6626C77.4302 27.6308 77.2151 27.5216 77.0521 27.3526C76.8892 27.1836 76.7878 26.9646 76.7645 26.731C76.7412 26.4974 76.7972 26.2627 76.9236 26.0648L79.1369 22.4929L74.6517 25.0741C74.4521 25.1895 74.22 25.2356 73.9914 25.2054C73.7629 25.1751 73.5508 25.0701 73.3881 24.9067C73.2255 24.7433 73.1214 24.5308 73.0921 24.3021C73.0629 24.0735 73.11 23.8415 73.2263 23.6425L75.4584 19.8406L70.8164 22.5201C70.6073 22.6411 70.3627 22.686 70.1243 22.647C69.8858 22.608 69.6682 22.4875 69.5086 22.3062C69.3489 22.1248 69.257 21.8938 69.2485 21.6523C69.2401 21.4109 69.3155 21.1739 69.4621 20.9818L71.3682 18.4905L67.8381 20.5324C67.6387 20.6472 67.407 20.6929 67.179 20.6625C66.951 20.6321 66.7393 20.5274 66.5769 20.3645C66.4145 20.2016 66.3104 19.9897 66.2807 19.7615C66.251 19.5334 66.2974 19.3019 66.4127 19.1028L68.6469 15.2738L63.9735 17.9679C63.7535 18.0932 63.4954 18.1343 63.2473 18.0837C62.9992 18.033 62.778 17.8939 62.6247 17.6923C62.4714 17.4908 62.3965 17.2404 62.414 16.9878C62.4314 16.7352 62.54 16.4975 62.7195 16.3189L62.9411 16.0994L61.9859 16.6407C61.7781 16.7607 61.5354 16.8056 61.2985 16.7677C61.0616 16.7299 60.845 16.6117 60.6849 16.433C60.5248 16.2543 60.4311 16.026 60.4195 15.7864C60.4079 15.5468 60.4791 15.3104 60.6211 15.1171L62.6296 12.3812L58.8613 14.5653C58.6442 14.6895 58.3898 14.7318 58.1443 14.6845C57.8987 14.6371 57.6783 14.5033 57.523 14.3073C57.3677 14.1113 57.2879 13.8661 57.298 13.6162C57.308 13.3663 57.4074 13.1284 57.578 12.9455L58.5394 11.9214L56.5852 13.0479C56.3698 13.1655 56.1199 13.2036 55.8793 13.1555C55.6387 13.1073 55.4227 12.976 55.2691 12.7846C55.1156 12.5932 55.0343 12.3538 55.0395 12.1085C55.0448 11.8631 55.1361 11.6275 55.2977 11.4428L56.4995 10.1156L54.19 11.449C53.9501 11.5854 53.666 11.6214 53.3996 11.5491C53.1333 11.4768 52.9064 11.3021 52.7684 11.0631C52.6305 10.8241 52.5926 10.5402 52.6631 10.2735C52.7337 10.0067 52.9069 9.7786 53.1449 9.63904L61.2272 4.97193C61.443 4.84775 61.696 4.80468 61.9407 4.85048C62.1854 4.89628 62.4058 5.02794 62.562 5.22176C62.7183 5.41557 62.8002 5.65881 62.7931 5.90766C62.7859 6.15652 62.6902 6.39465 62.523 6.57919L61.3213 7.90637L63.6203 6.57501C63.8372 6.45081 64.0913 6.40841 64.3367 6.4555C64.5821 6.50259 64.8025 6.63606 64.9579 6.83169C65.1134 7.02733 65.1936 7.27219 65.184 7.52188C65.1744 7.77157 65.0757 8.00957 64.9057 8.19271L63.9443 9.21684L65.8964 8.0903C66.1042 7.9692 66.3474 7.92346 66.5849 7.96081C66.8225 7.99816 67.0399 8.1163 67.2005 8.29531C67.3611 8.47432 67.4551 8.70325 67.4665 8.94346C67.4779 9.18368 67.4062 9.4205 67.2633 9.61396L65.2548 12.3498L69.0169 10.1741C69.2369 10.0488 69.495 10.0077 69.7431 10.0584C69.9912 10.1091 70.2125 10.2481 70.3657 10.4497C70.519 10.6512 70.5939 10.9016 70.5765 11.1542C70.559 11.4069 70.4504 11.6446 70.2709 11.8232L70.0494 12.0322L70.9962 11.4867C71.1957 11.3722 71.4275 11.3268 71.6554 11.3575C71.8834 11.3882 72.0949 11.4933 72.2571 11.6564C72.4193 11.8196 72.5231 12.0317 72.5525 12.2598C72.5818 12.488 72.5351 12.7195 72.4195 12.9183L70.1936 16.7557L74.8565 14.0658C75.0651 13.944 75.3095 13.8983 75.548 13.9364C75.7866 13.9745 76.0046 14.0941 76.1649 14.2748C76.3236 14.456 76.4148 14.6864 76.4232 14.9271C76.4316 15.1678 76.3566 15.404 76.2109 15.5957L74.3047 18.1038L77.8411 16.0639C78.0407 15.9485 78.2728 15.9024 78.5014 15.9327C78.7299 15.963 78.942 16.068 79.1046 16.2313C79.2673 16.3947 79.3714 16.6073 79.4006 16.8359C79.4299 17.0646 79.3828 17.2965 79.2665 17.4956L77.0343 21.287L81.6743 18.6075C81.8766 18.4874 82.1136 18.4391 82.3468 18.4705C82.5801 18.5018 82.7959 18.611 82.9593 18.7802C83.1228 18.9495 83.2244 19.169 83.2476 19.4032C83.2708 19.6373 83.2143 19.8725 83.0872 20.0705L80.8738 23.6592L85.357 21.0717C85.574 20.946 85.8291 20.9026 86.0755 20.9493C86.3219 20.9961 86.5433 21.13 86.6992 21.3264C86.8551 21.5229 86.9352 21.7689 86.9247 22.0195C86.9143 22.2701 86.8141 22.5086 86.6424 22.6915L85.6768 23.7198L87.6351 22.5912C87.8406 22.4731 88.0801 22.4283 88.3143 22.4643C88.5485 22.5002 88.7636 22.6147 88.9242 22.7889C89.0848 22.9631 89.1814 23.1867 89.1982 23.4231C89.215 23.6595 89.151 23.8945 89.0167 24.0897L86.9141 27.1329L90.9521 24.792C91.1724 24.6649 91.4315 24.6226 91.6808 24.6729C91.9301 24.7232 92.1525 24.8627 92.3064 25.0652C92.4602 25.2677 92.5349 25.5194 92.5164 25.7731C92.498 26.0268 92.3876 26.265 92.2061 26.4431L92.0201 26.625L92.9188 26.1066C93.1176 25.9938 93.3479 25.9493 93.5744 25.9799C93.8009 26.0105 94.0111 26.1145 94.1729 26.2759C94.3356 26.4398 94.4394 26.653 94.4681 26.8822C94.4969 27.1113 94.4489 27.3435 94.3317 27.5425L92.1079 31.3046L96.7206 28.6419C96.9206 28.5261 97.1533 28.4799 97.3823 28.5105C97.6113 28.541 97.8237 28.6466 97.9863 28.8106C98.149 28.9747 98.2527 29.1881 98.2812 29.4173C98.3097 29.6466 98.2615 29.8788 98.144 30.0778L95.9222 33.8399L100.52 31.1813C100.731 31.0602 100.977 31.0161 101.216 31.0567C101.456 31.0973 101.674 31.22 101.832 31.4038C101.991 31.5875 102.081 31.8209 102.086 32.0637C102.092 32.3064 102.013 32.5436 101.862 32.7342L100.075 34.9873L103.375 33.0833C103.588 32.961 103.837 32.9176 104.079 32.9607C104.321 33.0037 104.54 33.1305 104.697 33.3187C104.855 33.507 104.941 33.7447 104.941 33.9901C104.941 34.2356 104.854 34.4732 104.696 34.6613L103.141 36.5026L104.813 35.5412C104.932 35.4656 105.065 35.4148 105.204 35.3919C105.343 35.369 105.486 35.3745 105.623 35.4081C105.76 35.4416 105.888 35.5025 106.001 35.587C106.114 35.6716 106.208 35.7781 106.279 35.9001C106.349 36.0221 106.394 36.1572 106.411 36.2971C106.428 36.437 106.417 36.5789 106.378 36.7143C106.338 36.8496 106.272 36.9756 106.183 37.0847C106.094 37.1938 105.983 37.2838 105.858 37.3491L99.0343 41.3035C98.8761 41.397 98.6956 41.4461 98.5118 41.4456Z" fill="#7166F0"/>
<path d="M4.05766 42.173C3.83162 42.1725 3.61185 42.0987 3.43131 41.9627C3.25077 41.8267 3.11919 41.6358 3.05631 41.4187C2.99344 41.2016 3.00266 40.9699 3.08258 40.7585C3.16251 40.5471 3.30884 40.3672 3.49961 40.246L17.503 31.3674L2.9771 39.7548C2.74061 39.8934 2.45913 39.9336 2.19333 39.8666C1.92753 39.7996 1.6987 39.6308 1.55614 39.3967C1.41358 39.1626 1.36872 38.8818 1.43122 38.6149C1.49372 38.3481 1.65858 38.1164 1.89027 37.9699L18.1928 27.5572L1.55585 37.159C1.31908 37.2916 1.03997 37.327 0.777592 37.2575C0.515216 37.1881 0.290157 37.0193 0.150036 36.7868C0.00991593 36.5544 -0.0342722 36.2765 0.0268224 36.0121C0.0879169 35.7476 0.249501 35.5173 0.477383 35.3699L15.9856 25.6636C15.7956 25.5779 15.636 25.4365 15.5279 25.2582C15.3857 25.0253 15.3402 24.7461 15.4011 24.4801C15.462 24.2141 15.6246 23.9826 15.854 23.8348L43.0958 6.26786C43.0895 6.07845 43.1347 5.89086 43.2268 5.72519C43.3188 5.55951 43.4542 5.42199 43.6184 5.32733L52.6077 0.12935C52.8435 -0.000323076 53.1202 -0.0340491 53.3802 0.0351949C53.6403 0.104439 53.8636 0.271316 54.0036 0.501075C54.1437 0.730835 54.1897 1.00577 54.1321 1.26862C54.0746 1.53148 53.9178 1.762 53.6945 1.91217L52.7478 2.52456L55.3269 1.03644C55.5642 0.899621 55.8457 0.861425 56.1108 0.930068C56.376 0.998711 56.6036 1.16871 56.7446 1.40347C56.8857 1.63823 56.929 1.919 56.8652 2.18534C56.8013 2.45169 56.6354 2.68233 56.4033 2.82762L51.3119 6.02123L57.465 2.46813C57.7008 2.33846 57.9775 2.30473 58.2375 2.37397C58.4976 2.44322 58.7209 2.6101 58.8609 2.83985C59.001 3.06961 59.047 3.34455 58.9895 3.6074C58.9319 3.87026 58.7751 4.10078 58.5519 4.25095L42.2703 14.6553L60.2093 4.30947C60.445 4.18492 60.7194 4.15518 60.9764 4.22634C61.2333 4.2975 61.4534 4.46418 61.5914 4.69226C61.7295 4.92034 61.7752 5.19257 61.7191 5.45323C61.6631 5.71389 61.5095 5.94326 61.2898 6.09439L25.5142 28.7632C25.6467 29.0029 25.6797 29.2851 25.6062 29.5489C25.5327 29.8128 25.3586 30.0372 25.1213 30.174L4.58018 42.0309C4.42152 42.1234 4.24129 42.1724 4.05766 42.173Z" fill="#7166F0"/>
<path d="M40.3368 106.514C40.1149 106.513 39.8988 106.442 39.7198 106.311C39.5409 106.18 39.4084 105.995 39.3416 105.783C39.2747 105.572 39.2771 105.344 39.3481 105.134C39.4192 104.924 39.5554 104.741 39.737 104.614L49.809 97.5514L37.0722 104.9C36.8373 105.034 36.5598 105.071 36.2979 105.004C36.036 104.938 35.8101 104.772 35.6676 104.543C35.5251 104.313 35.477 104.037 35.5336 103.773C35.5901 103.509 35.7468 103.277 35.9707 103.126L42.0319 99.0855L37.0722 101.951C36.8404 102.081 36.5678 102.118 36.3099 102.054C36.0519 101.99 35.828 101.83 35.6837 101.607C35.5394 101.384 35.4855 101.114 35.533 100.853C35.5805 100.591 35.7258 100.358 35.9394 100.199L52.3129 88.422L37.0722 97.2211C36.839 97.3514 36.5649 97.3875 36.306 97.322C36.0471 97.2565 35.8232 97.0943 35.6801 96.8688C35.537 96.6434 35.4856 96.3717 35.5366 96.1095C35.5875 95.8474 35.7369 95.6147 35.954 95.4592L48.9416 86.4218L37.0722 93.273C36.8373 93.4066 36.5598 93.444 36.2979 93.3774C36.036 93.3108 35.8101 93.1454 35.6676 92.9158C35.5251 92.6862 35.477 92.4103 35.5336 92.1461C35.5901 91.8818 35.7468 91.6498 35.9707 91.4986L41.9399 87.5274L37.0722 90.3365C36.8363 90.4736 36.5561 90.5131 36.2916 90.4465C36.027 90.3798 35.7989 90.2123 35.6562 89.9798C35.5135 89.7473 35.4673 89.4681 35.5277 89.202C35.588 88.9359 35.75 88.704 35.9791 88.5558L37.0408 87.8639C36.8065 87.9874 36.534 88.0173 36.2785 87.9475C36.023 87.8778 35.8035 87.7136 35.6644 87.4883C35.5253 87.2629 35.4769 86.9931 35.5292 86.7334C35.5814 86.4737 35.7302 86.2436 35.9456 86.0895L50.9293 75.4699L37.0722 83.4706C36.8389 83.6045 36.563 83.6433 36.3019 83.5789C36.0407 83.5145 35.8145 83.3519 35.6701 83.125C35.5258 82.898 35.4746 82.6241 35.5271 82.3603C35.5795 82.0966 35.7317 81.8632 35.9519 81.7087L48.9939 72.5898L37.0805 79.4723C36.8458 79.6084 36.5674 79.6478 36.3042 79.5823C36.0409 79.5168 35.8134 79.3515 35.6699 79.1213C35.5263 78.8911 35.4778 78.6141 35.5347 78.3489C35.5917 78.0837 35.7495 77.851 35.9749 77.7L41.9044 73.6996L37.0722 76.4856C36.8425 76.6132 36.5732 76.6495 36.318 76.5874C36.0627 76.5254 35.8402 76.3694 35.6947 76.1507C35.5493 75.932 35.4915 75.6665 35.533 75.4071C35.5744 75.1477 35.7121 74.9134 35.9185 74.7509L46.7074 66.5223L37.0722 72.0819C36.8444 72.2107 36.5766 72.2494 36.3217 72.1903C36.0668 72.1312 35.8434 71.9786 35.6955 71.7628C35.5477 71.5469 35.4862 71.2834 35.5232 71.0244C35.5602 70.7654 35.6931 70.5297 35.8955 70.3638L42.4165 65.1094L37.0722 68.1944C36.8473 68.3233 36.5825 68.364 36.3292 68.3087C36.076 68.2533 35.8523 68.1058 35.7018 67.8948C35.5512 67.6837 35.4844 67.4243 35.5144 67.1668C35.5444 66.9093 35.669 66.6722 35.8641 66.5014L39.0138 63.7593L37.0722 64.8774C36.8698 64.9955 36.6337 65.0421 36.4017 65.0099C36.1697 64.9777 35.9552 64.8684 35.7927 64.6996C35.6302 64.5309 35.5292 64.3125 35.5057 64.0794C35.4823 63.8463 35.5378 63.6121 35.6635 63.4144L37.5257 60.434C37.2798 60.5306 37.0063 60.5304 36.7605 60.4335C36.5147 60.3366 36.3147 60.1502 36.2008 59.9118C36.0868 59.6733 36.0675 59.4006 36.1466 59.1485C36.2256 58.8964 36.3973 58.6836 36.627 58.5529L40.0944 56.5527C40.2967 56.4357 40.5324 56.3898 40.7639 56.4225C40.9953 56.4552 41.2091 56.5645 41.3711 56.733C41.5331 56.9015 41.6339 57.1194 41.6574 57.3519C41.681 57.5845 41.6259 57.8182 41.501 58.0158L39.6576 60.9711L47.3114 56.5611C47.536 56.4345 47.7994 56.3954 48.0511 56.4513C48.3028 56.5072 48.5249 56.6542 48.6748 56.864C48.8247 57.0737 48.8917 57.3315 48.863 57.5877C48.8344 57.8439 48.712 58.0805 48.5194 58.2519L45.3697 60.992L53.057 56.5611C53.2847 56.4323 53.5525 56.3936 53.8074 56.4527C54.0623 56.5118 54.2857 56.6643 54.4336 56.8802C54.5815 57.0961 54.643 57.3595 54.6059 57.6186C54.5689 57.8776 54.4361 58.1133 54.2337 58.2791L47.7148 63.5314L59.7891 56.5611C60.0188 56.4311 60.2893 56.3928 60.5461 56.4541C60.8029 56.5153 61.027 56.6715 61.1734 56.8912C61.3198 57.1109 61.3776 57.3778 61.3352 57.6384C61.2928 57.899 61.1533 58.1339 60.9449 58.2958L50.158 66.5223L66.8284 56.908C67.0625 56.7783 67.3375 56.7434 67.5967 56.8105C67.8558 56.8776 68.0793 57.0416 68.2211 57.2686C68.3629 57.4956 68.4122 57.7684 68.3587 58.0307C68.3053 58.293 68.1533 58.5248 67.934 58.6783L62.0087 62.6745L68.839 58.7306C69.0725 58.5919 69.3507 58.5496 69.6148 58.6125C69.8789 58.6755 70.1081 58.8387 70.254 59.0677C70.3998 59.2966 70.4509 59.5734 70.3963 59.8393C70.3416 60.1053 70.1857 60.3395 69.9614 60.4925L56.9152 69.6135L69.3469 62.4362C69.5797 62.302 69.8552 62.2626 70.1162 62.3262C70.3773 62.3898 70.6038 62.5515 70.7488 62.7777C70.8937 63.0039 70.946 63.2772 70.8948 63.541C70.8435 63.8047 70.6926 64.0386 70.4735 64.194L55.4835 74.8157L69.3532 66.8107C69.589 66.6736 69.8692 66.6341 70.1338 66.7007C70.3984 66.7674 70.6264 66.9349 70.7691 67.1674C70.9119 67.4 70.958 67.6791 70.8977 67.9452C70.8374 68.2113 70.6754 68.4432 70.4463 68.5915L69.4013 69.277C69.6383 69.1537 69.9135 69.1258 70.1705 69.1992C70.4274 69.2725 70.6465 69.4415 70.7827 69.6713C70.9189 69.9012 70.9619 70.1745 70.9028 70.4351C70.8437 70.6957 70.6871 70.9237 70.4651 71.0724L64.4917 75.0435L69.3678 72.2303C69.6009 72.1 69.8751 72.0639 70.1339 72.1294C70.3928 72.195 70.6168 72.3571 70.7599 72.5826C70.903 72.808 70.9543 73.0797 70.9034 73.3419C70.8525 73.604 70.7031 73.8367 70.486 73.9922L57.4921 83.0192L69.3636 76.1638C69.5959 76.0291 69.871 75.989 70.132 76.0518C70.3931 76.1145 70.6199 76.2753 70.7656 76.5008C70.9113 76.7263 70.9646 76.9992 70.9145 77.2629C70.8643 77.5266 70.7147 77.761 70.4964 77.9173L54.125 89.6927L69.3699 80.8915C69.605 80.7518 69.8855 80.7099 70.1512 80.7747C70.4169 80.8395 70.6466 81.0059 70.791 81.2381C70.9354 81.4703 70.9831 81.7499 70.9237 82.0168C70.8643 82.2838 70.7027 82.5168 70.4735 82.666L64.4123 86.7019L69.3783 83.8343C69.6112 83.7021 69.886 83.6645 70.1459 83.729C70.4058 83.7936 70.631 83.9555 70.775 84.1813C70.919 84.4071 70.9709 84.6796 70.9198 84.9425C70.8687 85.2054 70.7187 85.4387 70.5006 85.5941L60.4265 92.6564L69.3803 87.494C69.6121 87.3588 69.8869 87.3179 70.148 87.3798C70.409 87.4417 70.6363 87.6016 70.7827 87.8264C70.9291 88.0513 70.9834 88.3238 70.9344 88.5875C70.8854 88.8513 70.7368 89.0861 70.5194 89.2434L62.9952 94.7214L69.3783 91.0367C69.6097 90.903 69.8835 90.863 70.1435 90.925C70.4035 90.987 70.6298 91.1463 70.776 91.3701C70.9221 91.5939 70.977 91.8651 70.9293 92.1281C70.8815 92.3911 70.7349 92.6258 70.5194 92.7839L67.3969 95.083L69.3824 93.9398C69.6028 93.8127 69.8619 93.7703 70.1112 93.8206C70.3605 93.8709 70.5829 94.0104 70.7367 94.213C70.8906 94.4155 70.9652 94.6672 70.9468 94.9209C70.9283 95.1745 70.818 95.4128 70.6365 95.5909L65.7206 100.398L69.3887 98.2829C69.6077 98.1639 69.862 98.1271 70.1058 98.1791C70.3495 98.2311 70.5666 98.3685 70.718 98.5665C70.8693 98.7645 70.9449 99.0101 70.9311 99.2589C70.9173 99.5078 70.8151 99.7435 70.6427 99.9236L69.7628 100.81C69.9408 100.786 70.1218 100.808 70.2886 100.875C70.4554 100.941 70.6023 101.049 70.715 101.189C70.8278 101.329 70.9027 101.495 70.9325 101.672C70.9623 101.849 70.946 102.031 70.8852 102.2L70.3376 103.713C70.5366 103.804 70.7029 103.955 70.8141 104.143C70.883 104.262 70.9277 104.394 70.9456 104.53C70.9635 104.667 70.9544 104.805 70.9186 104.938C70.8829 105.071 70.8213 105.195 70.7374 105.304C70.6535 105.413 70.5489 105.505 70.4296 105.573L69.1337 106.319C68.9481 106.426 68.734 106.474 68.5205 106.455C68.3071 106.436 68.1045 106.352 67.9403 106.215C67.7762 106.077 67.6584 105.893 67.6027 105.686C67.547 105.479 67.5561 105.26 67.6289 105.059L67.9466 104.181L64.2263 106.328C64.0073 106.447 63.753 106.483 63.5092 106.431C63.2655 106.379 63.0483 106.242 62.897 106.044C62.7456 105.846 62.67 105.6 62.6838 105.351C62.6976 105.103 62.7999 104.867 62.9722 104.687L63.6578 104.005L59.6239 106.33C59.4036 106.457 59.1445 106.499 58.8952 106.449C58.6459 106.398 58.4235 106.259 58.2696 106.056C58.1158 105.854 58.0411 105.602 58.0596 105.349C58.078 105.095 58.1884 104.857 58.3699 104.678L63.2836 99.8713L52.0537 106.351C51.8223 106.484 51.5484 106.524 51.2885 106.462C51.0285 106.4 50.8022 106.241 50.656 106.017C50.5099 105.793 50.455 105.522 50.5027 105.259C50.5504 104.996 50.6971 104.761 50.9126 104.603L54.0477 102.304L47.025 106.359C46.7933 106.494 46.5185 106.535 46.2574 106.473C45.9964 106.411 45.7691 106.251 45.6227 106.026C45.4763 105.802 45.422 105.529 45.471 105.265C45.52 105.002 45.6686 104.767 45.886 104.61L53.3956 99.1377L40.8594 106.367C40.7015 106.462 40.521 106.513 40.3368 106.514Z" fill="#F2C94C"/>
<path d="M92.0828 71.7663C91.8528 71.7663 91.6292 71.6904 91.4467 71.5503C91.2642 71.4103 91.133 71.2139 91.0735 70.9917C91.0139 70.7695 91.0294 70.5339 91.1174 70.3214C91.2054 70.1089 91.3611 69.9313 91.5603 69.8163L98.9236 65.5651C99.0425 65.4895 99.1756 65.4387 99.3146 65.4158C99.4537 65.393 99.596 65.3985 99.7329 65.432C99.8698 65.4655 99.9985 65.5264 100.111 65.611C100.224 65.6955 100.318 65.802 100.389 65.924C100.46 66.046 100.505 66.1811 100.522 66.321C100.539 66.4609 100.527 66.6028 100.488 66.7382C100.449 66.8735 100.382 66.9996 100.293 67.1086C100.204 67.2177 100.094 67.3077 99.9686 67.373L92.6053 71.6263C92.4467 71.7186 92.2663 71.7669 92.0828 71.7663Z" fill="#D3374E"/>
<path d="M87.7375 122.758C87.5141 122.757 87.2967 122.685 87.1174 122.552C86.938 122.418 86.806 122.231 86.7408 122.018C86.6756 121.804 86.6805 121.575 86.755 121.364C86.8294 121.154 86.9694 120.972 87.1543 120.847L90.2455 118.757L85.6244 121.428C85.3916 121.562 85.1161 121.602 84.8551 121.538C84.594 121.475 84.3675 121.313 84.2225 121.087C84.0776 120.861 84.0253 120.587 84.0766 120.324C84.1278 120.06 84.2787 119.826 84.4979 119.67L100.506 108.353L81.5049 119.319C81.2711 119.453 80.9947 119.491 80.7334 119.426C80.4721 119.361 80.2461 119.197 80.1024 118.97C79.9587 118.742 79.9085 118.467 79.9623 118.204C80.016 117.94 80.1696 117.707 80.3909 117.553L98.796 104.919L77.701 117.098C77.4665 117.229 77.1903 117.265 76.9299 117.198C76.6695 117.131 76.4449 116.967 76.3028 116.738C76.1607 116.51 76.1121 116.236 76.1669 115.973C76.2218 115.71 76.376 115.478 76.5974 115.325L94.9147 103.088L74.4049 114.928C74.1699 115.06 73.8932 115.095 73.6325 115.028C73.3718 114.96 73.1472 114.794 73.0057 114.565C72.8642 114.336 72.8166 114.061 72.8728 113.798C72.9291 113.534 73.0849 113.303 73.3077 113.152L90.534 101.865L71.5541 112.823C71.3182 112.961 71.0381 113 70.7735 112.933C70.5089 112.867 70.2809 112.699 70.1381 112.467C69.9954 112.234 69.9493 111.955 70.0096 111.689C70.0699 111.423 70.2319 111.191 70.461 111.043L88.5317 99.2548L68.883 110.598C68.6465 110.726 68.3697 110.758 68.1102 110.687C67.8507 110.616 67.6285 110.448 67.4898 110.217C67.3511 109.987 67.3067 109.712 67.3657 109.449C67.4247 109.187 67.5826 108.957 67.8066 108.808L69.6145 107.678L67.2089 109.066C66.973 109.203 66.6928 109.242 66.4282 109.176C66.1637 109.109 65.9356 108.941 65.7929 108.709C65.6502 108.476 65.604 108.197 65.6644 107.931C65.7247 107.665 65.8867 107.433 66.1158 107.285L86.5001 93.9732L64.7321 106.537C64.4957 106.681 64.2115 106.726 63.942 106.661C63.6726 106.596 63.4399 106.427 63.2952 106.191C63.1505 105.954 63.1057 105.67 63.1706 105.401C63.2354 105.131 63.4047 104.898 63.6411 104.754L82.0776 92.8132L62.64 104.037C62.4051 104.17 62.1276 104.208 61.8657 104.141C61.6038 104.075 61.3779 103.909 61.2354 103.68C61.0929 103.45 61.0449 103.174 61.1014 102.91C61.1579 102.646 61.3146 102.414 61.5385 102.262L85.2691 86.5179L60.4183 100.87C60.1831 101.01 59.9026 101.052 59.6369 100.987C59.3713 100.922 59.1416 100.756 58.9971 100.524C58.8527 100.292 58.8051 100.012 58.8644 99.745C58.9238 99.4781 59.0855 99.2451 59.3147 99.0959L82.5395 83.5751L58.5476 97.4176C58.3154 97.547 58.0425 97.583 57.7846 97.5182C57.5267 97.4534 57.3032 97.2928 57.1596 97.069C57.016 96.8452 56.9631 96.5751 57.0117 96.3137C57.0603 96.0523 57.2067 95.8192 57.4211 95.662L69.7525 86.9213L57.256 94.1362C57.0237 94.2709 56.7486 94.311 56.4876 94.2482C56.2265 94.1855 55.9997 94.0247 55.854 93.7992C55.7083 93.5737 55.655 93.3008 55.7051 93.0371C55.7553 92.7733 55.9049 92.539 56.1232 92.3826L68.7764 83.2992L56.3259 90.4828C56.0967 90.602 55.8314 90.632 55.5813 90.5671C55.3313 90.5022 55.1141 90.347 54.9717 90.1314C54.8294 89.9158 54.772 89.6551 54.8105 89.3996C54.8491 89.1441 54.9809 88.912 55.1806 88.748L68.1661 79.1191L55.9016 86.1981C55.6705 86.3305 55.3975 86.3697 55.1385 86.3076C54.8795 86.2455 54.654 86.0868 54.508 85.864C54.3621 85.6412 54.3067 85.3711 54.3532 85.1088C54.3998 84.8466 54.5447 84.612 54.7584 84.4529L64.4312 77.3049L56.2339 82.0368C56.0072 82.1655 55.7405 82.2047 55.4863 82.1468C55.2321 82.0889 55.0087 81.9381 54.86 81.7239C54.7112 81.5097 54.648 81.2477 54.6825 80.9893C54.7171 80.7309 54.847 80.4947 55.0468 80.3272L63.8669 73.0538L58.2655 76.2829C58.0382 76.4127 57.7704 76.4525 57.5152 76.3944C57.26 76.3363 57.0358 76.1845 56.8872 75.9691C56.7385 75.7537 56.676 75.4903 56.7122 75.231C56.7484 74.9718 56.8805 74.7355 57.0825 74.569L60.7318 71.6095C60.5968 71.5187 60.4839 71.3987 60.4015 71.2584C60.263 71.0184 60.2254 70.7331 60.2971 70.4654C60.3689 70.1977 60.544 69.9695 60.784 69.8309L68.1578 65.5734C68.3851 65.4436 68.6528 65.4038 68.908 65.4619C69.1633 65.52 69.3874 65.6718 69.5361 65.8872C69.6848 66.1027 69.7472 66.366 69.711 66.6253C69.6749 66.8845 69.5427 67.1208 69.3407 67.2873L68.5047 67.9728L73.7299 64.961C73.957 64.8295 74.2252 64.7882 74.4814 64.8454C74.7375 64.9027 74.9628 65.0541 75.1123 65.2698C75.2619 65.4855 75.3248 65.7495 75.2886 66.0094C75.2525 66.2694 75.1198 66.5062 74.917 66.6728L66.0844 73.9295L79.4065 66.2381C79.6376 66.1057 79.9105 66.0665 80.1696 66.1286C80.4286 66.1907 80.6541 66.3494 80.8001 66.5722C80.946 66.795 81.0014 67.0651 80.9549 67.3274C80.9083 67.5897 80.7634 67.8243 80.5497 67.9833L70.8853 75.1271L82.9178 68.1797C83.1486 68.0485 83.4207 68.0101 83.6789 68.0722C83.937 68.1344 84.1618 68.2924 84.3076 68.5143C84.4534 68.7362 84.5093 69.0053 84.4639 69.2669C84.4185 69.5285 84.2752 69.7631 84.0631 69.9228L71.0692 79.5518L85.9776 70.9449C86.2099 70.8102 86.485 70.7701 86.746 70.8329C87.0071 70.8956 87.2339 71.0564 87.3796 71.2819C87.5253 71.5074 87.5786 71.7803 87.5285 72.044C87.4783 72.3078 87.3287 72.5421 87.1104 72.6984L74.4614 81.7881L88.1325 73.896C88.3648 73.7667 88.6376 73.7307 88.8955 73.7955C89.1534 73.8602 89.3769 74.0209 89.5205 74.2447C89.6641 74.4684 89.717 74.7385 89.6684 75C89.6198 75.2614 89.4734 75.4944 89.259 75.6517L76.9277 84.3882L109.083 65.8221C109.319 65.6755 109.602 65.6284 109.873 65.6911C110.143 65.7538 110.377 65.9212 110.523 66.1565C110.67 66.3919 110.717 66.6758 110.654 66.9458C110.592 67.2159 110.424 67.45 110.189 67.5966L86.9641 83.1237L113.299 67.9164C113.534 67.78 113.813 67.7406 114.077 67.8068C114.341 67.8729 114.569 68.0393 114.712 68.2705C114.855 68.5018 114.902 68.7797 114.844 69.0453C114.785 69.3109 114.625 69.5432 114.398 69.6929L90.6677 85.4415L116.415 70.577C116.651 70.4454 116.928 70.41 117.189 70.4783C117.45 70.5466 117.675 70.7132 117.816 70.9434C117.957 71.1735 118.004 71.4493 117.946 71.7129C117.888 71.9766 117.731 72.2076 117.506 72.3578L99.0823 84.2899L118.413 73.129C118.53 73.0571 118.66 73.0089 118.796 72.9872C118.931 72.9655 119.07 72.9707 119.203 73.0026C119.337 73.0344 119.463 73.0922 119.574 73.1727C119.685 73.2532 119.779 73.3548 119.851 73.4718C119.923 73.5887 119.971 73.7186 119.993 73.8542C120.015 73.9897 120.01 74.1282 119.978 74.2617C119.946 74.3953 119.888 74.5212 119.808 74.6324C119.727 74.7436 119.625 74.8378 119.508 74.9097L99.1116 88.2297L120.023 76.1575C120.259 76.0329 120.534 76.0035 120.791 76.0753C121.049 76.1472 121.269 76.3148 121.406 76.5439C121.544 76.7729 121.588 77.0459 121.531 77.3068C121.473 77.5676 121.318 77.7966 121.097 77.9466L119.245 79.1066L120.763 78.2308C120.998 78.097 121.276 78.0598 121.539 78.127C121.801 78.1943 122.027 78.3608 122.169 78.5914C122.311 78.822 122.358 79.0987 122.3 79.3633C122.242 79.6278 122.083 79.8595 121.858 80.0095L103.787 91.7891L121.438 81.6C121.673 81.4588 121.955 81.4162 122.222 81.4813C122.489 81.5464 122.72 81.714 122.864 81.9479C123.008 82.1817 123.055 82.463 122.993 82.7308C122.931 82.9986 122.767 83.2313 122.535 83.3787L105.304 94.665L121.553 85.3036C121.787 85.1721 122.063 85.1361 122.324 85.203C122.584 85.2699 122.809 85.4346 122.951 85.6628C123.093 85.891 123.141 86.1652 123.087 86.4284C123.032 86.6916 122.878 86.9235 122.656 87.076L104.349 99.307L120.965 89.7136C121.199 89.58 121.475 89.5418 121.737 89.6069C121.998 89.6721 122.224 89.8356 122.368 90.0634C122.511 90.2911 122.562 90.5656 122.508 90.8295C122.454 91.0934 122.301 91.3263 122.079 91.4797L103.66 104.123L119.147 95.1833C119.38 95.0491 119.655 95.0097 119.916 95.0733C120.177 95.1369 120.404 95.2985 120.549 95.5247C120.694 95.751 120.746 96.0243 120.695 96.288C120.643 96.5518 120.493 96.7856 120.273 96.9411L104.276 108.252L114.99 102.068C115.224 101.938 115.499 101.903 115.758 101.97C116.017 102.038 116.241 102.202 116.382 102.429C116.524 102.656 116.574 102.928 116.52 103.191C116.467 103.453 116.315 103.685 116.095 103.838L110.287 107.755C110.501 107.788 110.699 107.887 110.855 108.037C111.01 108.187 111.115 108.382 111.155 108.595C111.195 108.808 111.168 109.027 111.077 109.224C110.987 109.421 110.838 109.584 110.651 109.693L88.26 122.617C88.1013 122.71 87.921 122.758 87.7375 122.758Z" fill="#D3374E"/>
<path d="M110.109 65.4647C106.37 64.2938 102.359 64.3121 98.6309 65.517V41.8324C101.942 43.2954 104.767 40.593 106.063 37.7547C109.052 32.3101 98.518 30.2116 95.548 26.8864C112.507 16.7433 103.392 -9.54761 84.8386 3.97928C83.5012 2.62922 81.8655 1.61195 80.0633 1.00931C78.2611 0.406679 76.3425 0.235509 74.4621 0.509578C72.5816 0.783647 70.7917 1.4953 69.2365 2.58728C67.6812 3.67925 66.404 5.12106 65.5076 6.79668C53.3037 -4.7969 47.1756 3.56126 35.9102 10.889C36.8695 3.68249 26.8728 7.37981 22.5735 6.53333C14.9406 7.05376 19.3485 17.596 18.2533 22.6603C13.4964 27.9878 -6.89846 32.9434 2.4483 41.5126C3.75877 42.7269 5.74015 42.3319 7.79259 41.3433C12.5475 114.123 -14.7195 107.176 62.9013 106.445C70.4046 113.047 81.2813 124.766 91.7922 122.153C113.936 115.141 140.363 79.2654 110.109 65.4647ZM74.1312 1.77844C80.0272 -0.077535 82.481 9.07067 85.9484 5.95856C99.3394 -8.23296 108.832 16.8896 94.0599 25.8978C85.2817 20.0163 76.447 14.2122 67.7 8.27853C68.075 6.71051 68.8728 5.27535 70.0067 4.12927C71.1407 2.98319 72.5672 2.17008 74.1312 1.77844ZM21.2798 9.53466C21.1888 8.99527 21.3142 8.44177 21.6288 7.99428C25.1255 7.89396 28.154 7.95248 31.5859 7.93994C33.6174 8.61085 32.7082 11.284 32.8838 12.908L21.2798 20.6413V9.53466ZM5.22599 40.4864C4.96473 38.7705 2.36052 37.5603 2.47338 35.5852C7.13422 29.9734 15.461 26.8822 21.2045 22.2088C26.0117 18.9483 31.0842 15.6941 35.835 12.4587C51.8678 2.5434 49.7987 -2.87404 66.4962 10.4271C78.6666 18.5658 90.7179 26.9762 103.087 34.8244C105.085 36.7452 102.598 38.8854 101.59 40.5763C100.832 41.4018 99.469 39.3222 98.5285 39.0254C74.8042 23.9937 53.6904 8.61503 52.614 8.684C52.1751 8.71118 5.34512 40.4968 5.22599 40.4864ZM15.9731 104.492C5.48307 109.337 12.9509 48.3659 10.8399 39.5375C24.766 29.6097 38.6085 20.9192 52.6871 11.3697C67.0877 20.775 81.1329 30.7007 95.5668 40.0517V66.7856C92.9562 68.135 90.6661 70.0295 88.8515 72.341C86.8624 69.6705 84.2139 67.5623 81.1653 66.2228C78.1166 64.8834 74.7724 64.3585 71.4601 64.6998C73.5773 50.5333 50.1414 58.5717 41.6411 56.6677C28.7726 55.6581 37.2729 94.734 34.9738 104.492H15.9731ZM38.0003 104.492V63.4708C37.0096 57.8276 41.15 57.4995 45.5809 58.1244C52.9338 59.7317 70.0848 52.8993 68.4378 65.3121C50.8813 70.1757 50.2543 92.669 61.271 104.492H38.0003ZM88.9581 120.851C71.0818 114.188 45.7126 91.4944 61.8646 71.8331C78.2026 57.4305 86.2201 78.6133 90.0198 75.3152C117.266 45.791 141.594 101.773 88.9581 120.851Z" fill="#262626"/>
</svg>
