<svg width="20" height="14" viewBox="0 0 20 14" fill="none" xmlns="http://www.w3.org/2000/svg">
<path d="M6.60002 8.20004C5.27455 8.20004 4.20004 9.27455 4.20004 10.6C4.20004 11.9255 5.27455 13 6.60002 13C7.92549 13 9 11.9255 9 10.6C9 9.27455 7.92549 8.20004 6.60002 8.20004Z" stroke="white" stroke-width="1.5" stroke-linecap="round" stroke-linejoin="round"/>
<path d="M18.5999 10.6H11.3999" stroke="white" stroke-width="2" stroke-linecap="round" stroke-linejoin="round"/>
<path d="M3.3999 10.6L0.999922 10.6" stroke="white" stroke-width="2" stroke-linecap="round" stroke-linejoin="round"/>
<path d="M12.9998 5.79996C14.3253 5.79996 15.3998 4.72545 15.3998 3.39998C15.3998 2.07451 14.3253 1 12.9998 1C11.6744 1 10.5999 2.07451 10.5999 3.39998C10.5999 4.72545 11.6744 5.79996 12.9998 5.79996Z" stroke="white" stroke-width="1.5" stroke-linecap="round" stroke-linejoin="round"/>
<path d="M1 3.40002H8.19994" stroke="white" stroke-width="2" stroke-linecap="round" stroke-linejoin="round"/>
<path d="M16.2 3.40002L18.5999 3.40002" stroke="white" stroke-width="2" stroke-linecap="round" stroke-linejoin="round"/>
</svg>
