<svg width="19" height="17" viewBox="0 0 19 17" fill="none" xmlns="http://www.w3.org/2000/svg">
<path d="M0.730769 2.92308H3.65385C3.65385 3.72912 4.30935 4.38461 5.11538 4.38461H6.57692C7.38296 4.38461 8.03846 3.72912 8.03846 2.92308H18.2692C18.6726 2.92308 19 2.59642 19 2.19231C19 1.78819 18.6726 1.46154 18.2692 1.46154H8.03846C8.03846 0.6555 7.38296 0 6.57692 0H5.11538C4.30935 0 3.65385 0.6555 3.65385 1.46154H0.730769C0.327385 1.46154 0 1.78819 0 2.19231C0 2.59642 0.327385 2.92308 0.730769 2.92308Z" fill="#010103"/>
<path d="M18.2692 7.30761H13.8846C13.8846 6.50157 13.2291 5.84607 12.4231 5.84607H10.9615C10.1555 5.84607 9.5 6.50157 9.5 7.30761H0.730769C0.327385 7.30761 0 7.63426 0 8.03838C0 8.44249 0.327385 8.76915 0.730769 8.76915H9.5C9.5 9.57518 10.1555 10.2307 10.9615 10.2307H12.4231C13.2291 10.2307 13.8846 9.57518 13.8846 8.76915H18.2692C18.6726 8.76915 19 8.44249 19 8.03838C19 7.63426 18.6726 7.30761 18.2692 7.30761Z" fill="#010103"/>
<path d="M18.2692 13.1539H8.03846C8.03846 12.3479 7.38296 11.6924 6.57692 11.6924H5.11538C4.30935 11.6924 3.65385 12.3479 3.65385 13.1539H0.730769C0.327385 13.1539 0 13.4806 0 13.8847C0 14.2888 0.327385 14.6155 0.730769 14.6155H3.65385C3.65385 15.4215 4.30935 16.077 5.11538 16.077H6.57692C7.38296 16.077 8.03846 15.4215 8.03846 14.6155H18.2692C18.6726 14.6155 19 14.2888 19 13.8847C19 13.4806 18.6726 13.1539 18.2692 13.1539Z" fill="#010103"/>
</svg>
