<svg width="22" height="20" viewBox="0 0 22 20" fill="none" xmlns="http://www.w3.org/2000/svg">
<path fill-rule="evenodd" clip-rule="evenodd" d="M19.5112 16.5581H17.0989C16.9397 16.5581 16.8104 16.4287 16.8104 16.2696V14.9913C16.8104 14.8371 16.9397 14.7078 17.0989 14.7078H19.5112C19.6704 14.7078 19.7948 14.8371 19.7948 14.9913V16.2696C19.7948 16.4287 19.6704 16.5581 19.5112 16.5581ZM21.272 19.0002H13.6968V19.7165C13.6968 19.8707 13.5675 20 13.4083 20H1.844C1.68483 20 1.55551 19.8707 1.55551 19.7165V11.4996H0.282199C-0.0112608 11.4996 -0.110739 11.0967 0.152877 10.9575L7.48936 7.08282C7.60873 7.01815 7.70324 7.05297 7.80272 7.10768V3.08381C7.80272 2.92465 7.93204 2.8003 8.0912 2.8003H9.16059V1.51704C9.16059 1.35787 9.28991 1.22855 9.44907 1.22855H10.2548V0.283512C10.2548 0.129321 10.3842 0 10.5433 0H13.5923C13.7515 0 13.8808 0.129321 13.8808 0.283512V1.22855H14.6915C14.8457 1.22855 14.9751 1.35787 14.9751 1.51704V2.8003H16.0444C16.2036 2.8003 16.3329 2.92465 16.3329 3.08381V5.62049H20.5607C20.7199 5.62049 20.8492 5.74981 20.8492 5.90898V17.2295C21.6998 17.2295 21.5605 17.1301 21.5605 18.7118C21.5605 18.8709 21.4312 19.0002 21.272 19.0002ZM13.6968 17.2295H15.7609V3.3723H8.37969V7.41109L15.0745 10.9475C15.4028 11.0967 15.2337 11.5195 14.9651 11.4996H13.6968V17.2295ZM16.3329 17.2295H20.2772V6.19249H16.3329V17.2295ZM13.6968 18.4283H20.9885V17.8065H13.6968V18.4283ZM9.73756 2.79532H14.4031V1.80552H9.73756V2.79532ZM10.8318 1.22855H13.3088V0.571997H10.8318V1.22855ZM14.6766 6.39642H13.08C12.9208 6.39642 12.7915 6.2671 12.7915 6.10793V4.46655C12.7915 4.30739 12.9208 4.17807 13.08 4.17807H14.6766C14.8308 4.17807 14.9601 4.30739 14.9601 4.46655V6.10793C14.9601 6.2671 14.8308 6.39642 14.6766 6.39642ZM13.3685 5.82442H14.3881V4.75504H13.3685V5.82442ZM11.0606 6.39642H9.46399C9.30483 6.39642 9.17551 6.2671 9.17551 6.10793V4.46655C9.17551 4.30739 9.30483 4.17807 9.46399 4.17807H11.0606C11.2148 4.17807 11.3441 4.30739 11.3441 4.46655V6.10793C11.3441 6.2671 11.2148 6.39642 11.0606 6.39642ZM9.75248 5.82442H10.7721V4.75504H9.75248V5.82442ZM14.6766 9.3708H13.08C12.9208 9.3708 12.7915 9.24148 12.7915 9.08232V7.44094C12.7915 7.28177 12.9208 7.15742 13.08 7.15742H14.6766C14.8308 7.15742 14.9601 7.28177 14.9601 7.44094V9.08232C14.9601 9.24148 14.8308 9.3708 14.6766 9.3708ZM13.3685 8.79881H14.3881V7.72942H13.3685V8.79881ZM2.13248 19.428H6.81291V14.6829C6.81291 14.5238 6.94223 14.3944 7.1014 14.3944H11.7022C11.8614 14.3944 11.9907 14.5238 11.9907 14.6829V19.428H13.1198V11.4996H2.13248V19.428ZM1.44111 10.9276H13.8062L7.62366 7.65979L1.44111 10.9276ZM7.38988 19.428H11.4138V14.9664H7.38988V19.428ZM5.66892 17.0853H3.55004C3.39088 17.0853 3.26156 16.961 3.26156 16.8018V14.6829C3.26156 14.5238 3.39088 14.3944 3.55004 14.3944H5.66892C5.82808 14.3944 5.95243 14.5238 5.95243 14.6829V16.8018C5.95243 16.961 5.82808 17.0853 5.66892 17.0853ZM3.83355 16.5133H5.38043V14.9664H3.83355V16.5133ZM19.5112 8.71922H17.0989C16.9397 8.71922 16.8104 8.5899 16.8104 8.43074V7.15245C16.8104 6.99329 16.9397 6.86894 17.0989 6.86894H19.5112C19.6704 6.86894 19.7948 6.99329 19.7948 7.15245V8.43074C19.7948 8.5899 19.6704 8.71922 19.5112 8.71922ZM17.3874 8.14723H19.2228V7.44094H17.3874V8.14723ZM19.5112 11.3305H17.0989C16.9397 11.3305 16.8104 11.2012 16.8104 11.047V9.76871C16.8104 9.60955 16.9397 9.48023 17.0989 9.48023H19.5112C19.6704 9.48023 19.7948 9.60955 19.7948 9.76871V11.047C19.7948 11.2012 19.6704 11.3305 19.5112 11.3305ZM17.3874 10.7585H19.2228V10.0522H17.3874V10.7585ZM19.5112 13.9468H17.0989C16.9397 13.9468 16.8104 13.8175 16.8104 13.6583V12.38C16.8104 12.2208 16.9397 12.0915 17.0989 12.0915H19.5112C19.6704 12.0915 19.7948 12.2208 19.7948 12.38V13.6583C19.7948 13.8175 19.6704 13.9468 19.5112 13.9468ZM17.3874 13.3698H19.2228V12.6685H17.3874V13.3698ZM17.3874 15.9861H19.2228V15.2798H17.3874V15.9861Z" fill="white"/>
</svg>
