<svg width="20" height="20" viewBox="0 0 20 20" fill="none" xmlns="http://www.w3.org/2000/svg">
<path d="M17.3879 9.23816C17.1126 9.00716 16.7183 8.99183 16.4273 9.2015L16.101 9.43682C16.0413 9.29183 15.9376 9.16616 15.799 9.0775C15.5456 8.91583 15.2286 8.91217 14.971 9.06983C14.8363 9.1525 14.731 9.27183 14.6793 9.38983L13.9383 10.7175C13.8393 10.6455 13.7087 10.6288 13.5953 10.6851L11.777 11.5921L8.93308 7.80019C8.89241 7.74585 8.83608 7.70519 8.77208 7.68386L7.48577 7.2552C7.8011 7.1512 8.07809 6.94687 8.26742 6.66287C8.52408 6.27921 8.58975 5.78855 8.44342 5.35023L8.35209 5.07557C8.32342 4.98923 8.30875 4.8999 8.30875 4.80957V2.32095C9.09574 1.55563 9.2934 0.453313 9.30407 0.388314C9.3204 0.291649 9.29307 0.192984 9.2294 0.117986C9.16607 0.0433203 9.07307 0.000321081 8.97508 0.000321081H5.31214C5.03281 -0.00167888 2.54652 -0.00501218 1.65254 0.879306C1.42754 1.10197 1.30854 1.3743 1.30854 1.66696C1.30854 3.70392 2.28786 6.33954 2.32953 6.45088C2.37852 6.58087 2.50319 6.66687 2.64185 6.66687C2.64552 6.66687 2.64919 6.66687 2.65285 6.66654C2.74652 6.66354 2.82952 6.61887 2.88885 6.55187L3.33784 7.15053L1.25154 7.67719C1.11755 7.71119 1.01821 7.82452 1.00221 7.96218L0.00223224 16.6287C-0.00876757 16.723 0.0212319 16.8174 0.0845641 16.8884C0.147563 16.9594 0.238228 17 0.333226 17V18C0.333226 18.5513 0.781885 19 1.33321 19H2.33319V20H2.99985V17.6667H3.97516C4.15949 17.6667 4.30849 17.5177 4.30849 17.3334V15.6667H6.33312V17.3334C6.33312 17.5177 6.48212 17.6667 6.66645 17.6667H7.3331V20H7.99976V17.6667H8.30842C8.49275 17.6667 8.64175 17.5177 8.64175 17.3334V12.1334L11.0984 14.5701C11.1924 14.6641 11.3344 14.6921 11.4574 14.6427L15.385 13.0658C15.4846 13.0258 15.5586 12.9401 15.5843 12.8361C15.5963 12.7868 15.5963 12.7364 15.586 12.6881C16.103 12.4298 16.7866 11.9918 17.1033 11.6165L17.8896 10.6855C18.0243 10.5258 18.0893 10.3238 18.0716 10.1158C18.0539 9.90782 17.9566 9.71915 17.7973 9.58449L17.3879 9.23816ZM7.7191 5.28623L7.81076 5.56122C7.8921 5.80522 7.85543 6.07888 7.71243 6.29255C7.55677 6.52721 7.29544 6.66687 7.01378 6.66687H3.8085L3.15218 5.79189L3.89083 3.3296C4.42316 3.3166 5.72247 3.25726 7.04044 2.9936C7.26177 2.94927 7.46044 2.87894 7.64177 2.79161V4.80957C7.64177 4.97157 7.66777 5.1319 7.7191 5.28623ZM5.6218 9.96148L5.30847 10.5881L4.99515 9.96148L5.30847 8.70784L5.6218 9.96148ZM1.9752 1.66696C1.9752 1.59429 1.99053 1.48296 2.1212 1.35363C2.69452 0.786641 4.50615 0.666643 5.24314 0.666643C5.26547 0.666643 5.28781 0.666643 5.30814 0.666976H8.54075C8.35975 1.20697 7.90776 2.14062 6.90911 2.34028C5.29681 2.66261 3.65817 2.66694 3.64184 2.66694C3.49484 2.66694 3.36484 2.76361 3.32251 2.9046L2.62619 5.2259C2.34152 4.28591 1.9752 2.84627 1.9752 1.66696ZM2.33319 18.3333H1.33321C1.14921 18.3333 0.999882 18.184 0.999882 18V17H1.99986V17.3334C1.99986 17.5177 2.14886 17.6667 2.33319 17.6667V18.3333ZM3.64184 17H2.66652V11.6668H1.99986V16.3334H0.70722L1.63787 8.26718L3.64184 7.76119V17ZM4.30849 15.0001V7.33353H4.96515L4.31882 9.91948C4.29916 9.99648 4.30849 10.0781 4.34382 10.1491L5.01048 11.4825C5.06681 11.5955 5.18214 11.6668 5.30847 11.6668C5.4348 11.6668 5.55014 11.5955 5.6068 11.4825L6.27346 10.1491C6.30879 10.0778 6.31812 9.99648 6.29846 9.91948L5.6518 7.33353H6.33312V15.0001H4.30849ZM11.412 13.9424L8.54308 11.0968C8.44742 11.0021 8.30409 10.9745 8.18009 11.0258C8.05609 11.0775 7.97509 11.1991 7.97509 11.3335V17H6.99978V7.79619L8.46242 8.28351L11.1704 11.8944L11.1357 11.9121L11.4334 12.5084L13.6603 11.3978L14.706 12.6201L11.412 13.9424ZM17.3809 10.2548L16.5946 11.1861C16.3433 11.4835 15.657 11.9254 15.1783 12.1471L14.407 11.2455L15.2743 9.68915C15.2836 9.66815 15.2993 9.65015 15.319 9.63815C15.3723 9.60515 15.4176 9.62515 15.4403 9.63949C15.4626 9.65382 15.4993 9.68749 15.4923 9.74949L15.46 10.0335C15.445 10.1645 15.5086 10.2918 15.6226 10.3588C15.7366 10.4258 15.8793 10.4185 15.986 10.3415L16.8173 9.74249C16.8596 9.71149 16.9183 9.71415 16.9579 9.74782L17.3676 10.0941C17.3993 10.1205 17.4063 10.1541 17.4076 10.1715C17.4093 10.1888 17.4076 10.2231 17.3809 10.2548Z" fill="white"/>
<path d="M4.99976 18.0001H5.66641V20H4.99976V18.0001Z" fill="white"/>
<path d="M19.7715 4.35092L17.9995 3.76027V3.33361H18.3329C18.4775 3.33361 18.6052 3.24061 18.6499 3.10361C18.6945 2.96628 18.6455 2.81595 18.5289 2.73095L17.6662 2.10363V0.333661C17.6662 0.149331 17.5172 0.000333336 17.3329 0.000333336H15.9996C15.8152 0.000333336 15.6662 0.149331 15.6662 0.333661V0.648655L14.8623 0.0639989C14.7456 -0.021333 14.5869 -0.021333 14.4703 0.0639989L10.8037 2.73062C10.6867 2.81562 10.638 2.96595 10.6827 3.10328C10.7273 3.24061 10.855 3.33361 10.9997 3.33361H11.333V7.33354H10.333V8.00019H11.6663H17.6662H19.6662C19.8505 8.00019 19.9995 7.8512 19.9995 7.66687V4.66692C19.9995 4.52325 19.9078 4.39626 19.7715 4.35092ZM14.6663 0.745654L15.8036 1.57264C15.9049 1.64664 16.0389 1.6563 16.1509 1.60031C16.2626 1.54364 16.3329 1.42864 16.3329 1.30331V0.666988H16.9996V2.27296C16.9996 2.37963 17.0506 2.47962 17.1369 2.54262L17.3079 2.66695H12.0246L14.6663 0.745654ZM15.3329 7.33354H13.9996V5.33357H15.3329V7.33354ZM15.9996 7.33354V5.00025C15.9996 4.81592 15.8506 4.66692 15.6662 4.66692H13.6663C13.482 4.66692 13.333 4.81592 13.333 5.00025V7.33354H11.9996V3.33361H17.3329V7.33354H15.9996ZM19.3329 7.33354H17.9995V4.46259L19.3329 4.90725V7.33354Z" fill="white"/>
</svg>
