<svg width="20" height="21" viewBox="0 0 20 21" fill="none" xmlns="http://www.w3.org/2000/svg">
<path d="M19.464 4.69813C19.4643 4.26873 19.3468 3.84746 19.1244 3.48018C18.9019 3.1129 18.5829 2.81369 18.2022 2.61511C17.8215 2.41653 17.3936 2.3262 16.9651 2.35395C16.5366 2.38169 16.1239 2.52646 15.7719 2.77248C14.3927 1.68136 12.7438 0.984017 11.0003 0.754468C9.2567 0.524919 7.4835 0.771727 5.86889 1.4687C5.66463 0.963249 5.2909 0.5446 4.81177 0.284519C4.33265 0.0244382 3.77798 -0.0608745 3.24284 0.0432065C2.70771 0.147288 2.22545 0.434279 1.87873 0.854982C1.53202 1.27568 1.34245 1.80389 1.34252 2.34905C1.34252 3.12161 1.56643 3.83753 1.95584 4.55131C0.868289 5.9965 0.204997 7.71617 0.0403913 9.51734C-0.124215 11.3185 0.216378 13.1299 1.02395 14.7483C1.83152 16.3667 3.07412 17.728 4.61231 18.6795C6.15049 19.631 7.9234 20.135 9.73208 20.1349C11.3085 20.1341 12.8612 19.7505 14.2566 19.0171C15.6521 18.2838 16.8486 17.2226 17.7434 15.9247C18.6382 14.6268 19.2045 13.1311 19.3936 11.5661C19.5828 10.001 19.3891 8.41349 18.8293 6.93982C19.2319 6.21287 19.464 5.48486 19.464 4.69813ZM18.7928 4.69813C18.7928 5.57903 18.4992 6.52433 17.1145 8.20421C16.0977 6.97694 15.437 5.89037 15.437 4.69813C15.437 4.25312 15.6138 3.82634 15.9284 3.51167C16.2431 3.197 16.6699 3.02022 17.1149 3.02022C17.5599 3.02022 17.9867 3.197 18.3013 3.51167C18.616 3.82634 18.7928 4.25312 18.7928 4.69813ZM10.0113 1.34713C11.3955 1.38924 12.7517 1.74838 13.9753 2.39692C13.6518 2.9651 13.1593 3.4975 12.4828 3.3623C11.5405 3.17404 10.8705 3.69289 10.332 4.10998C9.70724 4.59381 9.41067 4.79247 8.92676 4.42971C8.86961 4.38741 8.82206 4.33349 8.78722 4.2715C8.75239 4.20952 8.73107 4.14086 8.72466 4.07005C8.64982 3.51361 9.11754 2.52624 10.0113 1.34713ZM3.69159 0.671143C4.13645 0.671642 4.56294 0.848582 4.8775 1.16314C5.19207 1.4777 5.36901 1.9042 5.36951 2.34905C5.36951 3.22996 5.07587 4.17525 3.69122 5.85513C2.6744 4.62787 2.01368 3.54129 2.01368 2.34905C2.01418 1.9042 2.19112 1.4777 2.50568 1.16314C2.82024 0.848582 3.24674 0.671642 3.69159 0.671143ZM2.33341 5.17109C2.673 5.66671 3.04137 6.14197 3.43664 6.59442C3.46814 6.63118 3.50722 6.66068 3.5512 6.68091C3.59518 6.70114 3.64302 6.71161 3.69143 6.71161C3.73983 6.71161 3.78767 6.70114 3.83165 6.68091C3.87563 6.66068 3.91471 6.63118 3.94622 6.59442C4.61717 5.81155 5.16841 5.0809 5.53667 4.34246C6.04914 4.95292 6.22218 5.60769 6.05053 6.29466C5.74989 7.4971 5.089 8.03348 4.44984 8.55221C3.74717 9.12262 3.02043 9.71244 3.02043 11.0742C3.02043 12.1718 2.94052 12.9165 2.54264 13.237C2.2746 13.453 1.82404 13.4995 1.16969 13.3789C0.838632 12.4217 0.67019 11.4158 0.671353 10.403C0.664844 8.52819 1.2461 6.69846 2.33341 5.17109ZM1.45376 14.0976C1.57564 14.1097 1.69182 14.1158 1.80231 14.116C2.2889 14.116 2.66782 13.9981 2.96376 13.7597C3.63593 13.218 3.69159 12.1803 3.69159 11.0742C3.69159 10.0321 4.18712 9.62993 4.87297 9.07329C5.56385 8.51261 6.34689 7.87706 6.70189 6.45734C6.95115 5.45982 6.64665 4.49812 5.82158 3.65988C5.96543 3.23777 6.03943 2.79501 6.04067 2.34905C6.04067 2.27556 6.03681 2.20295 6.03018 2.13118C7.02163 1.68495 8.08618 1.42338 9.17153 1.35934C8.53354 2.26919 7.95085 3.35144 8.05945 4.15935C8.07722 4.31861 8.12764 4.4725 8.20757 4.6114C8.2875 4.75029 8.39521 4.87121 8.52398 4.9666C8.8315 5.19731 9.1175 5.28666 9.38391 5.28666C9.90868 5.28666 10.3571 4.93937 10.743 4.64066C11.24 4.25575 11.7098 3.89227 12.3512 4.02055C13.2085 4.19186 13.9822 3.73652 14.5564 2.73275C14.8041 2.88863 15.0445 3.05681 15.2775 3.2373C14.946 3.65198 14.7655 4.1672 14.7658 4.69813C14.7659 4.93302 14.7867 5.16745 14.8282 5.39866C14.1492 5.60181 13.5647 5.70488 13.0879 5.70488C11.9001 5.70488 10.8534 6.2502 10.3562 7.12859C9.93372 7.8748 9.96828 8.7643 10.4511 9.56894C10.8866 10.2946 11.6152 10.666 12.3864 11.0588C13.5367 11.6447 14.726 12.2504 15.1079 14.1603C15.3251 15.2457 15.6676 16.1389 16.1267 16.822C14.7987 18.1522 13.0873 19.0329 11.233 19.3403C11.3639 18.6304 11.6299 17.4248 12.0457 16.5936C12.5882 15.5087 12.6791 14.6634 12.3232 14.0096C11.9509 13.3253 11.1364 12.917 9.83497 12.762C9.98772 12.3275 10.0664 11.8704 10.0677 11.4098C10.0677 10.7868 9.82017 10.1893 9.37963 9.74873C8.93909 9.30819 8.3416 9.0607 7.71858 9.0607C7.09557 9.0607 6.49807 9.30819 6.05753 9.74873C5.617 10.1893 5.36951 10.7868 5.36951 11.4098C5.36951 12.0308 5.51431 12.6153 5.77325 13.1915C5.36527 13.559 5.23145 14.1085 5.37601 14.8314C5.52794 15.5916 6.16953 16.1918 6.84879 16.8273C7.63343 17.5614 8.44143 18.3181 8.67872 19.4029C7.11856 19.2186 5.63284 18.6329 4.36656 17.7031C3.10028 16.7732 2.0967 15.531 1.45376 14.0975V14.0976ZM6.04067 11.4098C6.04067 10.9648 6.21745 10.538 6.53212 10.2233C6.84679 9.90865 7.27357 9.73187 7.71858 9.73187C8.16359 9.73187 8.59037 9.90865 8.90504 10.2233C9.21971 10.538 9.39649 10.9648 9.39649 11.4098C9.39649 12.2907 9.10286 13.236 7.7182 14.9159C6.70139 13.6886 6.04067 12.602 6.04067 11.4098ZM9.37229 19.4561C9.14837 18.0598 8.17384 17.1479 7.30733 16.3372C6.68302 15.7531 6.14386 15.2488 6.03417 14.6998C5.94834 14.2707 5.99675 14.0049 6.10594 13.829C6.4583 14.4246 6.92191 15.0229 7.46379 15.6551C7.49529 15.6919 7.53438 15.7214 7.57836 15.7416C7.62234 15.7619 7.67017 15.7723 7.71858 15.7723C7.76699 15.7723 7.81483 15.7619 7.85881 15.7416C7.90279 15.7214 7.94187 15.6919 7.97337 15.6551C8.64324 14.8735 9.19376 14.1441 9.56202 13.4067C9.60595 13.4114 9.65028 13.4162 9.69499 13.4211C10.7856 13.5423 11.4714 13.8482 11.7337 14.3302C11.977 14.7771 11.8825 15.4192 11.4455 16.2933C10.9489 17.2862 10.6555 18.7344 10.5356 19.4281C10.2699 19.4513 10.002 19.4637 9.73212 19.4637C9.61173 19.4638 9.49188 19.4608 9.37229 19.4561ZM18.7928 10.403C18.799 12.5742 18.0196 14.6743 16.5985 16.3157C16.2314 15.7236 15.9518 14.9569 15.7661 14.0286C15.3203 11.7999 13.8625 11.0574 12.691 10.4608C11.9784 10.0978 11.363 9.78426 11.0266 9.22363C10.6665 8.62348 10.6358 7.99691 10.9403 7.45926C11.3185 6.79133 12.1415 6.37604 13.0879 6.37604C13.6234 6.37604 14.2647 6.26572 14.9979 6.04843C15.3293 7.01243 15.9954 7.93457 16.8601 8.9435C16.8916 8.98025 16.9307 9.00976 16.9747 9.02998C17.0186 9.05021 17.0665 9.06069 17.1149 9.06069C17.1633 9.06069 17.2111 9.05021 17.2551 9.02998C17.2991 9.00976 17.3382 8.98025 17.3697 8.9435C17.7452 8.5054 18.0828 8.08357 18.3722 7.66778C18.652 8.55254 18.7939 9.4751 18.7928 10.403Z" fill="white"/>
</svg>
