<svg width="50" height="45" viewBox="0 0 50 45" fill="none" xmlns="http://www.w3.org/2000/svg">
<g opacity="0.21">
<path d="M12.7819 35.7915C9.50742 35.7915 6.59498 33.6951 5.53759 30.574L5.466 30.3388C5.21648 29.5126 5.11217 28.8172 5.11217 28.1218V14.1772L0.150389 30.7397C-0.48773 33.1756 0.966445 35.7015 3.40643 36.3744L35.0322 44.8438C35.4269 44.946 35.8217 44.9951 36.2103 44.9951C38.2473 44.9951 40.1085 43.6432 40.63 41.6511L42.4728 35.7915H12.7819Z" fill="#222222"/>
<path d="M18.4056 14.3168C20.6615 14.3168 22.4961 12.4822 22.4961 10.2263C22.4961 7.9704 20.6615 6.1358 18.4056 6.1358C16.1497 6.1358 14.3151 7.9704 14.3151 10.2263C14.3151 12.4822 16.1497 14.3168 18.4056 14.3168Z" fill="#222222"/>
<path d="M43.9736 0H13.2948C10.4764 0 8.18164 2.29477 8.18164 5.11313V27.6109C8.18164 30.4293 10.4764 32.7241 13.2948 32.7241H43.9736C46.7919 32.7241 49.0867 30.4293 49.0867 27.6109V5.11313C49.0867 2.29477 46.7919 0 43.9736 0ZM13.2948 4.09051H43.9736C44.5381 4.09051 44.9962 4.54864 44.9962 5.11313V19.6324L38.5352 12.0936C37.8501 11.2898 36.8581 10.8603 35.7926 10.8358C34.7331 10.8419 33.7391 11.3123 33.0601 12.1263L25.464 21.244L22.9893 18.7754C21.5903 17.3765 19.314 17.3765 17.917 18.7754L12.2721 24.4183V5.11313C12.2721 4.54864 12.7303 4.09051 13.2948 4.09051V4.09051Z" fill="#222222"/>
</g>
</svg>
