<svg width="20" height="23" viewBox="0 0 20 23" fill="none" xmlns="http://www.w3.org/2000/svg">
<path fill-rule="evenodd" clip-rule="evenodd" d="M20 9.05592V17.7409C20 20.2159 18.0102 22.2222 15.5556 22.2222H4.44444C1.98985 22.2222 0 20.2159 0 17.7409V9.05592C0 7.71041 0.599606 6.43611 1.63318 5.58503L7.18873 1.01039C8.82478 -0.336794 11.1752 -0.336796 12.8113 1.01038L18.3668 5.58502C19.4004 6.43611 20 7.71041 20 9.05592ZM13.6111 16.9444V19.4444C13.6111 20.0581 13.1136 20.5556 12.5 20.5556H7.5C6.88635 20.5556 6.38889 20.0581 6.38889 19.4444V16.9444C6.38889 14.9501 8.00564 13.3333 10 13.3333C11.9944 13.3333 13.6111 14.9501 13.6111 16.9444Z" fill="#7166F0"/>
</svg>
