<svg width="24" height="22" viewBox="0 0 24 22" fill="none" xmlns="http://www.w3.org/2000/svg">
<path d="M23.1171 9.95801L12.9914 0.731504C12.547 0.326463 11.8768 0.326507 11.4325 0.73146L1.30673 9.95806C0.950701 10.2825 0.833099 10.7823 1.00703 11.2315C1.18101 11.6806 1.60461 11.9707 2.08626 11.9707H3.70352V21.215C3.70352 21.5815 4.0007 21.8787 4.36721 21.8787H9.91736C10.2839 21.8787 10.5811 21.5816 10.5811 21.215V15.6022H13.843V21.2151C13.843 21.5816 14.1402 21.8788 14.5067 21.8788H20.0566C20.4231 21.8788 20.7203 21.5816 20.7203 21.2151V11.9707H22.3378C22.8194 11.9707 23.2431 11.6805 23.4171 11.2315C23.5908 10.7823 23.4732 10.2825 23.1171 9.95801Z" fill="#7166F0"/>
<path d="M20.5451 1.75195H16.0879L21.2088 6.40827V2.41561C21.2088 2.04909 20.9117 1.75195 20.5451 1.75195Z" fill="#7166F0"/>
</svg>
