<svg width="19" height="19" viewBox="0 0 19 19" fill="none" xmlns="http://www.w3.org/2000/svg">
<path d="M13.5981 0.453125H5.59013C2.91051 0.453125 0.730469 2.63316 0.730469 5.31282V13.3207C0.730469 16.0004 2.91051 18.1804 5.59013 18.1804H13.5981C16.2777 18.1804 18.4577 16.0004 18.4577 13.3207V5.31282C18.4577 2.63316 16.2777 0.453125 13.5981 0.453125ZM17.4109 13.3207C17.4109 15.4231 15.7005 17.1335 13.5981 17.1335H5.59013C3.48775 17.1335 1.77735 15.4231 1.77735 13.3207V5.31282C1.77735 3.21041 3.48775 1.5 5.59013 1.5H13.5981C15.7005 1.5 17.4109 3.21041 17.4109 5.31282V13.3207Z" fill="#7E8BA0"/>
<path d="M9.59269 4.45703C6.91165 4.45703 4.73047 6.63821 4.73047 9.31926C4.73047 12.0003 6.91162 14.1815 9.59269 14.1815C12.2737 14.1815 14.455 12.0003 14.455 9.31922C14.455 6.63818 12.2737 4.45703 9.59269 4.45703ZM9.59269 13.1346C7.48889 13.1346 5.77731 11.423 5.77731 9.31922C5.77731 7.21542 7.48889 5.50384 9.59269 5.50384C11.6965 5.50384 13.4081 7.21546 13.4081 9.31926C13.4081 11.4231 11.6965 13.1346 9.59269 13.1346Z" fill="#7E8BA0"/>
<path d="M14.7468 2.6875C13.9322 2.6875 13.2695 3.35023 13.2695 4.16478C13.2695 4.97934 13.9322 5.64203 14.7468 5.64203C15.5613 5.64203 16.224 4.9793 16.224 4.16475C16.224 3.3502 15.5613 2.6875 14.7468 2.6875ZM14.7468 4.59512C14.5095 4.59512 14.3164 4.40206 14.3164 4.16475C14.3164 3.92744 14.5095 3.73438 14.7468 3.73438C14.9841 3.73438 15.1772 3.92747 15.1772 4.16475C15.1772 4.40202 14.9841 4.59512 14.7468 4.59512Z" fill="#7E8BA0"/>
</svg>
