<svg width="17" height="17" viewBox="0 0 17 17" fill="none" xmlns="http://www.w3.org/2000/svg">
<g clip-path="url(#clip0_127_174682)">
<path fill-rule="evenodd" clip-rule="evenodd" d="M7.10329 1.56124C7.11201 1.94345 6.80922 2.26035 6.427 2.26906C4.45842 2.31391 3.60277 2.51526 3.0469 3.0692C2.5667 3.54774 2.34325 4.25968 2.26839 5.76479C2.2494 6.14663 1.92447 6.44078 1.54263 6.42179C1.16079 6.4028 0.866645 6.07786 0.885636 5.69603C0.962433 4.15176 1.19266 2.96247 2.06964 2.08853C3.06446 1.09716 4.47839 0.928632 6.39546 0.884949C6.77767 0.876237 7.09458 1.17902 7.10329 1.56124ZM9.8954 1.56124C9.90411 1.17902 10.221 0.876237 10.6032 0.884949C12.5203 0.928632 13.9342 1.09716 14.9291 2.08853C15.8061 2.96247 16.0363 4.15176 16.1131 5.69603C16.1321 6.07786 15.8379 6.4028 15.4561 6.42179C15.0742 6.44078 14.7493 6.14663 14.7303 5.76479C14.6555 4.25968 14.432 3.54774 13.9518 3.0692C13.3959 2.51526 12.5403 2.31391 10.5717 2.26906C10.1895 2.26035 9.88669 1.94345 9.8954 1.56124ZM1.54263 10.5769C1.92447 10.5579 2.2494 10.8521 2.26839 11.2339C2.34325 12.739 2.5667 13.451 3.0469 13.9295C3.60277 14.4834 4.45842 14.6848 6.427 14.7296C6.80922 14.7383 7.11201 15.0553 7.10329 15.4375C7.09458 15.8197 6.77767 16.1224 6.39546 16.1137C4.47839 16.0701 3.06446 15.9015 2.06964 14.9102C1.19266 14.0362 0.962433 12.847 0.885636 11.3026C0.866645 10.9209 1.16079 10.5959 1.54263 10.5769ZM15.4561 10.5769C15.8379 10.5959 16.1321 10.9209 16.1131 11.3026C16.0363 12.847 15.8061 14.0362 14.9291 14.9102C13.9342 15.9015 12.5203 16.0701 10.6032 16.1137C10.221 16.1224 9.90411 15.8197 9.8954 15.4375C9.88669 15.0553 10.1895 14.7383 10.5717 14.7296C12.5403 14.6848 13.3959 14.4834 13.9518 13.9295C14.432 13.451 14.6555 12.739 14.7303 11.2339C14.7493 10.8521 15.0742 10.5579 15.4561 10.5769Z" fill="#7166F0"/>
<path d="M6.18945 6.72982C6.18945 5.4577 7.22194 4.42773 8.49404 4.42773C9.76613 4.42773 10.7987 5.4577 10.7987 6.72982C10.7987 8.00191 9.76613 9.0319 8.49404 9.0319C7.22194 9.0319 6.18945 8.00191 6.18945 6.72982Z" fill="#7166F0"/>
<path d="M4.94564 12.4273C4.73343 12.2246 4.72565 11.8884 4.92826 11.6762C6.77913 9.73759 10.1887 9.63289 12.0781 11.683C12.277 11.8987 12.2633 12.2348 12.0475 12.4336C11.9454 12.5278 11.8163 12.5742 11.6875 12.5742H5.3125C5.18063 12.5742 5.04855 12.5255 4.94564 12.4273Z" fill="#7166F0"/>
</g>
<defs>
<clipPath id="clip0_127_174682">
<rect width="17" height="17" fill="white"/>
</clipPath>
</defs>
</svg>
