<svg width="17" height="20" viewBox="0 0 19 19" fill="none" xmlns="http://www.w3.org/2000/svg">
    <path fill-rule="evenodd" clip-rule="evenodd" d="M15.1035 9.5C12.5316 9.5 10.431 7.54489 10.15 5.04688H1.66992C0.74909 5.04688 0 5.79596 0 6.7168V16.7363C0 17.6572 0.74909 18.4062 1.66992 18.4062H16.2168C17.1376 18.4062 17.8867 17.6572 17.8867 16.7363V8.65194C17.0899 9.1865 16.133 9.5 15.1035 9.5ZM12.877 10.6133C13.1844 10.6133 13.4336 10.8625 13.4336 11.1699C13.4336 11.4773 13.1844 11.7266 12.877 11.7266C12.5695 11.7266 12.3203 11.4773 12.3203 11.1699C12.3203 10.8625 12.5695 10.6133 12.877 10.6133ZM10.6504 10.6133C10.9578 10.6133 11.207 10.8625 11.207 11.1699C11.207 11.4773 10.9578 11.7266 10.6504 11.7266C10.343 11.7266 10.0938 11.4773 10.0938 11.1699C10.0938 10.8625 10.343 10.6133 10.6504 10.6133ZM7.79297 15.623C7.79297 15.9307 7.544 16.1797 7.23633 16.1797H2.7832C2.47553 16.1797 2.22656 15.9307 2.22656 15.623V14.5098C2.22656 13.5507 2.71422 12.7033 3.45473 12.2026C3.04148 11.7981 2.7832 11.2361 2.7832 10.6133C2.7832 9.38529 3.78178 8.38672 5.00977 8.38672C6.23775 8.38672 7.23633 9.38529 7.23633 10.6133C7.23633 11.2361 6.97805 11.7981 6.5648 12.2026C7.30531 12.7033 7.79297 13.5507 7.79297 14.5098V15.623ZM15.1035 16.1797H10.6504C10.3427 16.1797 10.0938 15.9307 10.0938 15.623C10.0938 15.3154 10.3427 15.0664 10.6504 15.0664H15.1035C15.4112 15.0664 15.6602 15.3154 15.6602 15.623C15.6602 15.9307 15.4112 16.1797 15.1035 16.1797ZM15.1035 13.9531H10.6504C10.3427 13.9531 10.0938 13.7042 10.0938 13.3965C10.0938 13.0888 10.3427 12.8398 10.6504 12.8398H15.1035C15.4112 12.8398 15.6602 13.0888 15.6602 13.3965C15.6602 13.7042 15.4112 13.9531 15.1035 13.9531ZM15.1035 11.7266C14.7961 11.7266 14.5469 11.4773 14.5469 11.1699C14.5469 10.8625 14.7961 10.6133 15.1035 10.6133C15.4109 10.6133 15.6602 10.8625 15.6602 11.1699C15.6602 11.4773 15.4109 11.7266 15.1035 11.7266Z" fill="#7166F0"/>
    <path fill-rule="evenodd" clip-rule="evenodd" d="M5.01172 9.5C4.398 9.5 3.89844 9.99957 3.89844 10.6133C3.89844 11.227 4.398 11.7266 5.01172 11.7266C5.62543 11.7266 6.125 11.227 6.125 10.6133C6.125 9.99957 5.62543 9.5 5.01172 9.5Z" fill="#7166F0"/>
    <path fill-rule="evenodd" clip-rule="evenodd" d="M5.00977 12.8398C4.08893 12.8398 3.33984 13.5889 3.33984 14.5098V15.0664H6.67969V14.5098C6.67969 13.5889 5.9306 12.8398 5.00977 12.8398Z" fill="#7166F0"/>
    <path fill-rule="evenodd" clip-rule="evenodd" d="M15.0664 0.59375C12.9181 0.59375 11.207 2.34194 11.207 4.49023C11.207 6.63853 12.9552 8.38672 15.1035 8.38672C17.2518 8.38672 19 6.63853 19 4.49023C19 2.34194 17.2147 0.59375 15.0664 0.59375ZM17.167 3.7705L14.9404 5.99706C14.723 6.21448 14.3707 6.21448 14.1533 5.99706L13.04 4.88378C12.8226 4.66636 12.8226 4.31408 13.04 4.09665C13.2574 3.87923 13.6097 3.87923 13.8271 4.09665L14.5469 4.81639L16.3799 2.98337C16.5973 2.76595 16.9496 2.76595 17.167 2.98337C17.3844 3.20079 17.3844 3.55307 17.167 3.7705Z" fill="#7166F0"/>
</svg>