<svg width="19" height="19" viewBox="0 0 19 19" fill="none" xmlns="http://www.w3.org/2000/svg">
<path d="M5.18235 18.2327H5.23235V18.1827V5.9707V5.9207H5.18235H0.455078H0.405078V5.9707V18.1827V18.2327H0.455078H5.18235ZM4.34452 17.3449H1.29291V6.80853H4.34452V17.3449Z" fill="white" stroke="white" stroke-width="0.1"/>
<path d="M18.576 18.2327H18.626V18.1827V10.5945C18.626 8.016 16.5204 5.9207 13.9373 5.9207C13.0787 5.92014 12.241 6.18083 11.5351 6.66696V5.9707V5.9207H11.4851H6.75781H6.70781V5.9707V18.1827V18.2327H6.75781H11.4851H11.5351V18.1827V11.4858C11.5351 10.8608 12.0417 10.354 12.6669 10.354C13.2919 10.354 13.7987 10.8608 13.7987 11.4858V18.1827V18.2327H13.8487H18.576ZM17.738 10.5947V17.3449H14.6866V11.4858C14.6866 10.3703 13.7823 9.46616 12.6669 9.46616C11.5514 9.46616 10.6471 10.3703 10.6471 11.4858V17.3449H7.59564V6.80853H10.6471V8.64942V8.77823L10.734 8.68315L11.4135 7.93973C11.4136 7.93971 11.4136 7.93969 11.4136 7.93967C12.084 7.21094 12.9818 6.80853 13.9373 6.80853L13.9374 6.80853C16.0319 6.80583 17.7328 8.50012 17.738 10.5947Z" fill="white" stroke="white" stroke-width="0.1"/>
<path d="M2.81871 5.23235L2.81881 5.23235C4.15065 5.2297 5.22955 4.15065 5.23235 2.81882V2.81871C5.23235 1.48579 4.15178 0.405078 2.81871 0.405078C1.48564 0.405078 0.405078 1.48579 0.405078 2.81871C0.405078 4.15178 1.48565 5.23235 2.81871 5.23235ZM1.29291 2.81871C1.29291 1.97613 1.97612 1.29305 2.81871 1.29305C3.66131 1.29305 4.34452 1.97613 4.34452 2.81871C4.34452 3.66145 3.66131 4.34452 2.81871 4.34452C1.97612 4.34452 1.29291 3.66145 1.29291 2.81871Z" fill="white" stroke="white" stroke-width="0.1"/>
</svg>
