<svg width="20" height="20" viewBox="0 0 20 20" fill="none" xmlns="http://www.w3.org/2000/svg">
<path d="M5 17.5827C4.58579 17.5827 4.25 17.9185 4.25 18.3327C4.25 18.7469 4.58579 19.0827 5 19.0827V17.5827ZM15 19.0827C15.4142 19.0827 15.75 18.7469 15.75 18.3327C15.75 17.9185 15.4142 17.5827 15 17.5827V19.0827ZM15.5 7.91602C15.5 9.2952 14.613 11.1065 13.3657 12.6257C12.7546 13.37 12.0896 14.0032 11.4666 14.4434C10.8202 14.9002 10.3133 15.0827 10 15.0827V16.5827C10.7804 16.5827 11.6016 16.1847 12.3322 15.6685C13.0862 15.1357 13.847 14.4034 14.525 13.5776C15.8558 11.9567 17 9.80963 17 7.91602H15.5ZM10 15.0827C9.70184 15.0827 9.20166 14.8941 8.55088 14.4055C7.92658 13.9368 7.25948 13.264 6.64585 12.4781C5.39363 10.8742 4.5 8.97853 4.5 7.59194H3C3 9.47815 4.13762 11.7029 5.46352 13.4012C6.13896 14.2663 6.89764 15.04 7.65029 15.6051C8.37646 16.1503 9.20441 16.5827 10 16.5827V15.0827ZM4.5 7.59194C4.5 4.6466 7.1229 2.41602 10 2.41602V0.916016C6.43377 0.916016 3 3.68543 3 7.59194H4.5ZM10 2.41602C12.8495 2.41602 15.5 4.62105 15.5 7.91602H17C17 3.71098 13.5938 0.916016 10 0.916016V2.41602ZM11.75 7.49935C11.75 8.46585 10.9665 9.24935 10 9.24935V10.7493C11.7949 10.7493 13.25 9.29427 13.25 7.49935H11.75ZM10 9.24935C9.0335 9.24935 8.25 8.46585 8.25 7.49935H6.75C6.75 9.29427 8.20507 10.7493 10 10.7493V9.24935ZM8.25 7.49935C8.25 6.53285 9.0335 5.74935 10 5.74935V4.24935C8.20507 4.24935 6.75 5.70442 6.75 7.49935H8.25ZM10 5.74935C10.9665 5.74935 11.75 6.53285 11.75 7.49935H13.25C13.25 5.70442 11.7949 4.24935 10 4.24935V5.74935ZM5 19.0827H15V17.5827H5V19.0827Z" fill="#7166F0"/>
</svg>
