<svg width="10" height="14" viewBox="0 0 10 14" fill="none" xmlns="http://www.w3.org/2000/svg">
<path fill-rule="evenodd" clip-rule="evenodd" d="M5.14293 13.9742C5.27826 13.9742 5.40463 13.9059 5.4797 13.7922C5.78755 13.326 6.13915 12.8289 6.51128 12.3027C6.62307 12.1447 6.73672 11.984 6.85159 11.8207C7.34583 11.1183 7.85824 10.3745 8.32096 9.61487C9.23771 8.10999 9.99997 6.48066 9.99997 4.92953C9.99997 2.22525 7.82146 0.025795 5.14293 0.025795C2.4644 0.025795 0.285889 2.22525 0.285889 4.92953C0.285889 6.48066 1.04815 8.10999 1.96489 9.61487C2.42761 10.3745 2.94002 11.1183 3.43427 11.8207C3.54913 11.984 3.66278 12.1447 3.77457 12.3027C4.1467 12.8289 4.49831 13.326 4.80615 13.7922C4.88122 13.9059 5.0076 13.9742 5.14293 13.9742ZM2.65442 9.18671C1.74977 7.70168 1.09539 6.23893 1.09539 4.92953C1.09539 2.67663 2.91148 0.843084 5.14293 0.843084C7.37438 0.843084 9.19046 2.67663 9.19046 4.92953C9.19046 6.23893 8.53608 7.70168 7.63143 9.18671C7.18346 9.92209 6.68399 10.6477 6.19165 11.3474C6.07993 11.5062 5.96834 11.664 5.85777 11.8203C5.61108 12.1691 5.36948 12.5107 5.14293 12.8401C4.91637 12.5107 4.67477 12.1691 4.42808 11.8203C4.31751 11.664 4.20592 11.5062 4.09421 11.3474C3.60187 10.6477 3.10239 9.92209 2.65442 9.18671Z" fill="#7166F0"/>
<path fill-rule="evenodd" clip-rule="evenodd" d="M2.52759 5.00743C2.52759 6.38116 3.64464 7.49821 5.01838 7.49821C6.39211 7.49821 7.50917 6.38116 7.50917 5.00743C7.50917 3.63369 6.39211 2.51664 5.01838 2.51664C3.64464 2.51664 2.52759 3.63369 2.52759 5.00743ZM5.01838 6.66795C4.10319 6.66795 3.35785 5.92262 3.35785 5.00743C3.35785 4.09223 4.10319 3.3469 5.01838 3.3469C5.93357 3.3469 6.6789 4.09223 6.6789 5.00743C6.6789 5.92262 5.93357 6.66795 5.01838 6.66795Z" fill="#7166F0"/>
</svg>
