<svg width="56" height="59" viewBox="0 0 56 59" fill="none" xmlns="http://www.w3.org/2000/svg">
<path d="M18.3671 29.8291L18.3699 29.5441C18.3897 27.1133 20.2567 24.8832 22.7139 24.354L23.0444 24.2842V29.8291H18.3671Z" fill="white"/>
<path d="M23.0415 31.2447H18.3671V36.0568H23.0415V31.2447Z" fill="white"/>
<path d="M29.0743 29.8289L29.0714 29.544C29.0517 27.1132 27.1819 24.883 24.7275 24.3538L24.397 24.2841V29.8289H29.0743Z" fill="white"/>
<path d="M29.0714 31.2446H24.397V36.0567H29.0714V31.2446Z" fill="white"/>
<path d="M7.36572 21.7169L11.7295 17.1519V20.4956L7.36572 24.9967V21.7169Z" fill="white"/>
<path d="M4.88872 21.7227L0.214279 17.1519H11.7295L7.36574 21.7169L4.88872 21.7227Z" fill="white"/>
<path d="M0.214279 17.1519L4.88872 21.7227V46.2748L0.214279 51.4097V17.1519Z" fill="white"/>
<path d="M7.36572 24.9972L23.8689 7.70837V15.0705L7.36572 32.0395V24.9972Z" fill="white"/>
<path d="M23.8689 15.0385V7.70837L55.0478 40.0995L51.6246 43.6149L23.8689 15.0385Z" fill="white"/>
<path d="M0.25935 15.2913L0.273472 14.9947C0.677366 6.58582 7.82601 0 16.5479 0H48.8989L44.2217 4.81506H16.5479C10.5855 4.81506 5.41112 9.3946 5.0157 15.0267L4.99875 15.2884H0.25935V15.2913Z" fill="white"/>
<path d="M44.2219 26.7416V4.81506L48.8992 0V31.7311L44.2219 26.7416Z" fill="white"/>
<path d="M43.6767 37.7234C42.4 42.8671 38.1521 46.5598 33.3703 46.5598H4.88872L0.214279 50.9183H9.18468V58.1904L15.3984 50.9183H33.3731C39.5247 50.9183 44.9985 47.278 47.5122 41.2533L43.6767 37.7234Z" fill="white"/>
</svg>
