<svg width="88" height="87" viewBox="0 0 88 87" fill="none" xmlns="http://www.w3.org/2000/svg">
<path d="M19.6694 86.6076C19.5099 86.6078 19.3546 86.556 19.2272 86.4599C19.0997 86.3639 19.0071 86.2289 18.9633 86.0755C18.9195 85.9221 18.927 85.7585 18.9845 85.6097C19.0421 85.4609 19.1466 85.3349 19.2822 85.2508L45.6376 68.9254L15.1825 86.505C15.0169 86.5947 14.8232 86.6173 14.6414 86.5681C14.4596 86.5188 14.3037 86.4015 14.206 86.2405C14.1083 86.0795 14.0764 85.887 14.1167 85.7031C14.157 85.5191 14.2666 85.3577 14.4227 85.2523L49.4204 63.4191L9.43562 86.505C9.2689 86.5971 9.07287 86.6208 8.889 86.571C8.70513 86.5212 8.54785 86.4018 8.45046 86.2381C8.35307 86.0743 8.3232 85.8792 8.36718 85.6938C8.41115 85.5085 8.52553 85.3475 8.68609 85.245L34.886 69.2496L5.14818 86.4184C5.06535 86.4676 4.97364 86.5 4.87828 86.5138C4.78293 86.5276 4.68579 86.5224 4.59242 86.4987C4.49905 86.4749 4.41128 86.433 4.33412 86.3753C4.25695 86.3176 4.1919 86.2453 4.14269 86.1625C4.09347 86.0796 4.06105 85.9879 4.04728 85.8926C4.03351 85.7972 4.03865 85.7001 4.06242 85.6067C4.11042 85.4181 4.23137 85.2564 4.39864 85.157L34.6308 66.7032L2.78077 85.0924C2.61394 85.1832 2.41843 85.2056 2.23537 85.1551C2.05231 85.1046 1.89597 84.9851 1.79925 84.8217C1.70253 84.6583 1.67297 84.4637 1.71678 84.2789C1.7606 84.0942 1.87437 83.9336 2.03417 83.831L33.0334 64.9431L1.72761 83.014C1.56053 83.1138 1.36065 83.1431 1.17194 83.0955C0.983242 83.0479 0.821172 82.9273 0.721389 82.7602C0.621606 82.5931 0.592283 82.3933 0.639871 82.2046C0.68746 82.0159 0.808061 81.8538 0.975144 81.754L42.9739 55.8489L1.6308 79.7166C1.46398 79.8073 1.26847 79.8298 1.08541 79.7793C0.902345 79.7288 0.746007 79.6093 0.649286 79.4459C0.552564 79.2825 0.523 79.0879 0.566814 78.9031C0.610628 78.7183 0.724404 78.5578 0.884203 78.4552L29.9575 60.7891L1.6308 77.1439C1.46313 77.2427 1.26308 77.2708 1.07465 77.2221C0.886227 77.1735 0.724858 77.0519 0.626047 76.8842C0.527236 76.7166 0.499078 76.5165 0.547767 76.3281C0.596456 76.1397 0.718003 75.9783 0.88567 75.8795L17.3314 65.9786L1.63667 75.0434C1.46973 75.1328 1.27467 75.1542 1.09232 75.1031C0.909974 75.052 0.754476 74.9323 0.65838 74.7691C0.562285 74.6059 0.533043 74.4118 0.576776 74.2276C0.620508 74.0433 0.733825 73.8831 0.893004 73.7805L6.32014 70.5301L1.6308 73.2349C1.46372 73.3344 1.26392 73.3636 1.07535 73.3159C0.886786 73.2681 0.724902 73.1474 0.625314 72.9804C0.525725 72.8133 0.496589 72.6135 0.544315 72.4249C0.592041 72.2363 0.712719 72.0745 0.879803 71.9749L42.7568 46.1593L1.62933 69.8964C1.4624 69.9859 1.26734 70.0072 1.08499 69.9561C0.90264 69.905 0.747142 69.7853 0.651046 69.6221C0.554951 69.4589 0.525709 69.2649 0.569442 69.0806C0.613174 68.8963 0.726491 68.7361 0.88567 68.6335L17.8873 58.3938L1.62933 67.7813C1.46262 67.8735 1.26658 67.8972 1.08271 67.8474C0.898844 67.7976 0.74157 67.6782 0.644178 67.5144C0.546785 67.3507 0.516916 67.1555 0.560893 66.9702C0.604871 66.7848 0.719242 66.6239 0.879803 66.5213L40.6211 42.0875L1.62787 64.5998C1.46078 64.6994 1.26098 64.7286 1.07242 64.6808C0.883852 64.6331 0.721969 64.5124 0.62238 64.3453C0.522791 64.1783 0.493655 63.9785 0.541381 63.7899C0.589107 63.6013 0.709786 63.4394 0.876869 63.3399L41.9545 38.0186L1.62787 61.2995C1.4604 61.3985 1.26045 61.427 1.07202 61.3786C0.883597 61.3301 0.722119 61.2089 0.623113 61.0414C0.524108 60.8739 0.495686 60.674 0.5441 60.4855C0.592514 60.2971 0.713797 60.1356 0.881269 60.0366L25.0907 45.3452L1.622 58.8911C1.45529 58.9832 1.25925 59.0069 1.07538 58.9571C0.891511 58.9073 0.734236 58.7879 0.636844 58.6242C0.539451 58.4605 0.509582 58.2653 0.553559 58.0799C0.597537 57.8946 0.711908 57.7336 0.872469 57.6311L30.0368 39.7626L1.6264 56.1643C1.46 56.2545 1.26516 56.2769 1.08263 56.2268C0.900102 56.1767 0.744016 56.0579 0.647019 55.8954C0.550023 55.7329 0.519628 55.5391 0.562193 55.3547C0.604758 55.1702 0.716985 55.0094 0.875402 54.9058L31.4757 35.9841L1.6264 53.2087C1.45977 53.2966 1.26572 53.3169 1.08448 53.2656C0.90324 53.2142 0.7487 53.0951 0.652895 52.933C0.55709 52.7708 0.527366 52.5779 0.569883 52.3944C0.612401 52.2109 0.7239 52.0508 0.881269 51.9473L7.37037 48.0221L1.6264 51.3415C1.45923 51.4346 1.26228 51.4587 1.07759 51.4086C0.892897 51.3585 0.735091 51.2383 0.63785 51.0735C0.54061 50.9086 0.511637 50.7124 0.557115 50.5265C0.602593 50.3406 0.71892 50.1799 0.881269 50.0786L7.71213 45.9363L1.62493 49.4566C1.45776 49.5498 1.26081 49.5739 1.07612 49.5238C0.89143 49.4737 0.733624 49.3534 0.636383 49.1886C0.539143 49.0238 0.51017 48.8275 0.555648 48.6416C0.601126 48.4558 0.717454 48.295 0.879803 48.1937L3.8618 46.3778L1.61907 47.6716C1.45198 47.7668 1.25418 47.7925 1.06828 47.7433C0.882374 47.6941 0.723236 47.5738 0.625144 47.4084C0.527052 47.243 0.497854 47.0457 0.54384 46.859C0.589825 46.6722 0.707315 46.5111 0.871002 46.4101L7.95122 42.0919L1.62493 45.7457C1.45842 45.8346 1.264 45.856 1.08214 45.8053C0.900284 45.7545 0.745 45.6356 0.648612 45.4733C0.552225 45.3109 0.522161 45.1176 0.564678 44.9337C0.607195 44.7497 0.719017 44.5893 0.876869 44.4857L4.92669 42.0141L1.62493 43.921C1.45822 44.0131 1.26218 44.0368 1.07831 43.987C0.894444 43.9372 0.73717 43.8178 0.639777 43.6541C0.542385 43.4904 0.512516 43.2952 0.556493 43.1098C0.60047 42.9245 0.714842 42.7635 0.875402 42.661L8.20938 38.1521L1.62787 41.9511C1.46147 42.0413 1.26663 42.0637 1.0841 42.0136C0.901569 41.9634 0.745483 41.8447 0.648486 41.6822C0.551489 41.5196 0.521095 41.3259 0.56366 41.1414C0.606224 40.957 0.718451 40.7961 0.876869 40.6925L8.30619 36.0985L1.62347 39.9547C1.54112 40.0047 1.44974 40.038 1.35453 40.0527C1.25932 40.0673 1.16216 40.0631 1.06859 40.0402C0.87961 39.994 0.71673 39.8746 0.615779 39.7083C0.514829 39.542 0.484078 39.3424 0.530291 39.1534C0.576504 38.9645 0.695896 38.8016 0.862201 38.7006L17.2771 28.2204L1.62347 37.2588C1.45755 37.3603 1.2581 37.3918 1.06898 37.3462C0.879865 37.3007 0.71658 37.1819 0.615046 37.016C0.513512 36.8501 0.482047 36.6507 0.527572 36.4615C0.573098 36.2724 0.691884 36.1091 0.857801 36.0076L16.6992 25.7136L1.622 34.4191C1.45688 34.5148 1.26095 34.5424 1.07581 34.496C0.890678 34.4496 0.730927 34.3328 0.630491 34.1705C0.530055 34.0082 0.496848 33.8132 0.537922 33.6268C0.578996 33.4404 0.691116 33.2773 0.850467 33.1723L15.0182 23.7936L1.622 31.5295C1.4555 31.63 1.25587 31.6603 1.06703 31.6137C0.878192 31.5671 0.715607 31.4474 0.615046 31.2809C0.514485 31.1144 0.484184 30.9147 0.53081 30.7259C0.577435 30.537 0.697168 30.3745 0.863668 30.2739L1.84935 29.6505L1.622 29.7811C1.45699 29.8791 1.26014 29.9085 1.07369 29.863C0.887228 29.8176 0.726026 29.7008 0.62467 29.5378C0.523315 29.3748 0.489882 29.1786 0.531548 28.9913C0.573213 28.8039 0.686656 28.6404 0.847533 28.5357L9.45615 22.7668L1.622 27.2904C1.45879 27.3862 1.26486 27.4152 1.08078 27.3713C0.896687 27.3275 0.736682 27.2141 0.634213 27.055C0.531743 26.8959 0.494742 26.7034 0.530943 26.5176C0.567145 26.3319 0.673748 26.1673 0.828465 26.0583L10.2453 19.3257L1.62053 24.3055C1.45645 24.3993 1.2625 24.4261 1.07912 24.3804C0.895742 24.3347 0.737095 24.2199 0.636266 24.0601C0.535436 23.9002 0.500209 23.7076 0.537931 23.5224C0.575652 23.3372 0.68341 23.1737 0.838732 23.0661L3.64911 21.1343L1.62053 22.3077C1.46123 22.4053 1.27071 22.4384 1.08785 22.4002C0.904987 22.3621 0.743565 22.2556 0.636521 22.1026C0.529476 21.9495 0.484877 21.7613 0.511824 21.5765C0.538771 21.3916 0.635233 21.224 0.781527 21.1079L6.8922 15.9741L1.61907 19.0324C1.46295 19.1194 1.28043 19.1464 1.1058 19.1083C0.931168 19.0703 0.776451 18.9697 0.670717 18.8256C0.564983 18.6815 0.51551 18.5038 0.531593 18.3258C0.547676 18.1478 0.628208 17.9818 0.758059 17.8589L3.71512 15.1366L1.6176 16.3481C1.48185 16.4263 1.32466 16.4589 1.16905 16.4412C1.01343 16.4235 0.867566 16.3565 0.752799 16.2499C0.638032 16.1433 0.560395 16.0028 0.531252 15.8489C0.502109 15.6951 0.522992 15.5359 0.590844 15.3947L1.79655 12.885C1.62853 12.9064 1.4583 12.8689 1.31478 12.7789C1.17126 12.689 1.0633 12.5522 1.00922 12.3916C0.955144 12.2311 0.958287 12.0569 1.01812 11.8984C1.07795 11.74 1.19077 11.6071 1.33744 11.5224L3.07413 10.525C3.20975 10.4472 3.36666 10.4148 3.52199 10.4325C3.67731 10.4502 3.82291 10.5171 3.93755 10.6234C4.05219 10.7297 4.12986 10.8698 4.15924 11.0234C4.18863 11.1769 4.16818 11.3358 4.10088 11.4769L2.94065 13.8986L8.78143 10.525C8.93758 10.4368 9.12065 10.4088 9.296 10.4465C9.47135 10.4841 9.62684 10.5847 9.73305 10.7292C9.83927 10.8737 9.88885 11.0521 9.87242 11.2307C9.85599 11.4093 9.7747 11.5757 9.6439 11.6984L6.68538 14.4076L13.4194 10.525C13.5783 10.4323 13.7662 10.4028 13.9459 10.4422C14.1255 10.4815 14.2838 10.587 14.3894 10.7376C14.4949 10.8882 14.5401 11.0729 14.5158 11.2553C14.4916 11.4376 14.3997 11.6041 14.2584 11.7219L8.14924 16.8425L19.1018 10.525C19.266 10.4277 19.4617 10.3982 19.6473 10.4429C19.8328 10.4875 19.9937 10.6028 20.0957 10.7641C20.1976 10.9255 20.2327 11.1202 20.1934 11.307C20.154 11.4938 20.0434 11.6579 19.8851 11.7644L17.0732 13.6888L22.5678 10.525C22.731 10.4292 22.925 10.4002 23.1091 10.4441C23.2931 10.4879 23.4531 10.6013 23.5556 10.7604C23.6581 10.9195 23.6951 11.112 23.6589 11.2978C23.6227 11.4835 23.5161 11.6481 23.3614 11.7571L13.9475 18.4809L27.7353 10.5162C27.9004 10.4182 28.0972 10.3887 28.2837 10.4342C28.4701 10.4797 28.6313 10.5964 28.7327 10.7594C28.834 10.9224 28.8675 11.1186 28.8258 11.3059C28.7841 11.4933 28.6707 11.6568 28.5098 11.7615L19.8953 17.5333L32.0507 10.5162C32.2167 10.4213 32.4133 10.395 32.5984 10.443C32.7836 10.4909 32.9427 10.6093 33.0418 10.7729C33.1409 10.9365 33.1722 11.1323 33.129 11.3186C33.0858 11.505 32.9715 11.667 32.8105 11.7703L31.8365 12.3878L35.0796 10.5147C35.2447 10.419 35.4406 10.3914 35.6258 10.4378C35.8109 10.4842 35.9707 10.6009 36.0711 10.7632C36.1715 10.9255 36.2047 11.1206 36.1637 11.307C36.1226 11.4934 36.0105 11.6564 35.8511 11.7615L21.679 21.149L40.0916 10.5147C40.257 10.4223 40.4517 10.3975 40.6349 10.4454C40.8182 10.4933 40.9758 10.6103 41.0747 10.7718C41.1737 10.9333 41.2063 11.1268 41.1658 11.3119C41.1252 11.4969 41.0147 11.6591 40.8573 11.7644L25.0159 22.0613L45.0127 10.5132C45.0951 10.4632 45.1865 10.4298 45.2817 10.415C45.377 10.4003 45.4742 10.4044 45.5678 10.4272C45.6615 10.45 45.7497 10.4911 45.8275 10.548C45.9053 10.6049 45.9711 10.6766 46.0211 10.7589C46.0712 10.8413 46.1046 10.9327 46.1194 11.0279C46.1341 11.1232 46.13 11.2204 46.1072 11.314C46.0843 11.4077 46.0433 11.4959 45.9864 11.5737C45.9295 11.6515 45.8578 11.7173 45.7755 11.7673L29.3576 22.2491L49.6845 10.5147C49.8511 10.4208 50.0478 10.3958 50.2326 10.4448C50.4174 10.4939 50.5758 10.6132 50.6739 10.7773C50.772 10.9414 50.8022 11.1374 50.7579 11.3235C50.7137 11.5095 50.5985 11.6709 50.4369 11.7732L43.0105 16.3643L53.1461 10.5118C53.3132 10.4122 53.513 10.383 53.7016 10.4308C53.8901 10.4785 54.052 10.5992 54.1516 10.7663C54.2512 10.9333 54.2803 11.1331 54.2326 11.3217C54.1849 11.5103 54.0642 11.6722 53.8971 11.7717L46.5631 16.2836L56.5593 10.5118C56.7264 10.4166 56.9242 10.3908 57.1101 10.44C57.296 10.4892 57.4552 10.6095 57.5533 10.7749C57.6514 10.9403 57.6805 11.1376 57.6346 11.3243C57.5886 11.5111 57.4711 11.6723 57.3074 11.7732L53.2854 14.2272L59.7217 10.5118C59.8046 10.4626 59.8963 10.4301 59.9916 10.4164C60.087 10.4026 60.1841 10.4077 60.2775 10.4315C60.3709 10.4553 60.4586 10.4972 60.5358 10.5549C60.613 10.6126 60.678 10.6849 60.7272 10.7677C60.7765 10.8506 60.8089 10.9423 60.8226 11.0376C60.8364 11.133 60.8313 11.2301 60.8075 11.3235C60.7837 11.4168 60.7418 11.5046 60.6841 11.5818C60.6264 11.659 60.5541 11.724 60.4713 11.7732L53.3837 16.0988L63.0558 10.5103C63.2232 10.4113 63.4232 10.3829 63.6116 10.4313C63.8 10.4797 63.9615 10.601 64.0605 10.7685C64.1595 10.9359 64.188 11.1359 64.1395 11.3243C64.0911 11.5127 63.9698 11.6742 63.8024 11.7732L60.816 13.5832L66.139 10.503C66.2219 10.4539 66.3137 10.4217 66.409 10.4082C66.5044 10.3946 66.6015 10.4 66.6948 10.424C66.7881 10.4479 66.8758 10.49 66.9528 10.5479C67.0298 10.6057 67.0947 10.6782 67.1437 10.7611C67.1927 10.844 67.225 10.9358 67.2385 11.0312C67.2521 11.1266 67.2467 11.2237 67.2227 11.317C67.1988 11.4103 67.1567 11.4979 67.0988 11.575C67.041 11.652 66.9685 11.7169 66.8856 11.7659L60.0606 15.9037L69.4143 10.5103C69.5818 10.4113 69.7817 10.3829 69.9702 10.4313C70.1586 10.4797 70.3201 10.601 70.4191 10.7685C70.5181 10.9359 70.5465 11.1359 70.4981 11.3243C70.4497 11.5127 70.3284 11.6742 70.1609 11.7732L63.6674 15.6984L72.6545 10.5088C72.8216 10.4091 73.0214 10.3797 73.2101 10.4273C73.3988 10.4749 73.5609 10.5955 73.6607 10.7626C73.7605 10.9297 73.7898 11.1296 73.7422 11.3183C73.6946 11.507 73.574 11.669 73.4069 11.7688L42.8037 30.6978L77.7707 10.5088C77.9377 10.4092 78.1375 10.3801 78.3261 10.4278C78.5147 10.4756 78.6766 10.5962 78.7761 10.7633C78.8757 10.9304 78.9049 11.1302 78.8571 11.3188C78.8094 11.5073 78.6887 11.6692 78.5217 11.7688L49.3588 29.6402L82.4981 10.5074C82.5811 10.4582 82.6729 10.4259 82.7683 10.4123C82.8637 10.3987 82.9608 10.4039 83.0542 10.4278C83.1476 10.4517 83.2353 10.4938 83.3124 10.5516C83.3895 10.6094 83.4545 10.6819 83.5036 10.7648C83.5527 10.8477 83.5851 10.9395 83.5987 11.0349C83.6123 11.1303 83.6071 11.2275 83.5832 11.3208C83.5593 11.4142 83.5172 11.502 83.4594 11.5791C83.4016 11.6562 83.3291 11.7212 83.2462 11.7703L59.0133 26.472L85.2572 11.3244C85.4225 11.2416 85.6129 11.2243 85.7904 11.276C85.9678 11.3276 86.1193 11.4444 86.2144 11.6029C86.3095 11.7613 86.3412 11.9499 86.3033 12.1308C86.2653 12.3117 86.1604 12.4716 86.0096 12.5785L44.9394 37.8939L85.885 14.2609C86.0517 14.1687 86.2477 14.145 86.4316 14.1948C86.6155 14.2447 86.7727 14.3641 86.8701 14.5278C86.9675 14.6915 86.9974 14.8867 86.9534 15.072C86.9094 15.2574 86.7951 15.4184 86.6345 15.5209L46.8946 39.9533L85.885 17.4409C85.968 17.392 86.0598 17.3599 86.1553 17.3465C86.2507 17.333 86.3478 17.3385 86.4411 17.3626C86.5344 17.3867 86.622 17.429 86.699 17.487C86.776 17.5449 86.8408 17.6175 86.8897 17.7005C86.9386 17.7836 86.9707 17.8754 86.9842 17.9708C86.9976 18.0662 86.9921 18.1634 86.968 18.2567C86.9439 18.35 86.9016 18.4376 86.8437 18.5146C86.7857 18.5916 86.7131 18.6564 86.6301 18.7053L69.6035 28.9582L85.885 19.559C86.052 19.4594 86.2518 19.4302 86.4404 19.478C86.629 19.5257 86.7909 19.6464 86.8904 19.8134C86.99 19.9805 87.0192 20.1803 86.9715 20.3689C86.9237 20.5575 86.803 20.7193 86.636 20.8189L44.7678 46.6345L85.885 22.8974C86.0526 22.7988 86.2526 22.7708 86.4409 22.8196C86.5341 22.8438 86.6217 22.8861 86.6986 22.9441C86.7755 23.0021 86.8402 23.0747 86.889 23.1577C86.9378 23.2408 86.9698 23.3326 86.9832 23.428C86.9965 23.5234 86.9909 23.6204 86.9668 23.7137C86.9426 23.8069 86.9003 23.8945 86.8423 23.9713C86.7842 24.0482 86.7117 24.1129 86.6286 24.1618L81.1692 27.4298L85.885 24.7074C86.0521 24.6143 86.2491 24.5902 86.4338 24.6403C86.6185 24.6903 86.7763 24.8106 86.8735 24.9754C86.9708 25.1402 86.9997 25.3365 86.9542 25.5224C86.9088 25.7083 86.7924 25.869 86.6301 25.9703L70.202 35.858L85.885 26.8064C86.0518 26.7157 86.2473 26.6932 86.4304 26.7437C86.6134 26.7942 86.7698 26.9137 86.8665 27.0771C86.9632 27.2406 86.9928 27.4351 86.949 27.6199C86.9051 27.8047 86.7914 27.9652 86.6316 28.0678L57.5289 45.753L85.885 29.3821C86.0514 29.2919 86.2462 29.2695 86.4287 29.3196C86.6113 29.3697 86.7673 29.4884 86.8643 29.651C86.9613 29.8135 86.9917 30.0073 86.9492 30.1917C86.9066 30.3762 86.7944 30.537 86.636 30.6406L44.6592 56.5325L85.885 32.7308C86.0518 32.6401 86.2473 32.6176 86.4304 32.6681C86.6134 32.7186 86.7698 32.8381 86.8665 33.0015C86.9632 33.1649 86.9928 33.3595 86.949 33.5443C86.9051 33.7291 86.7914 33.8896 86.6316 33.9922L55.6309 52.886L85.885 35.4179C86.0521 35.3227 86.2498 35.297 86.4358 35.3462C86.6217 35.3954 86.7808 35.5156 86.8789 35.6811C86.977 35.8465 87.0062 36.0438 86.9602 36.2305C86.9142 36.4173 86.7967 36.5784 86.633 36.6794L56.3819 55.1463L85.885 38.1125C86.0521 38.0172 86.2498 37.9915 86.4358 38.0407C86.6217 38.0899 86.7808 38.2102 86.8789 38.3756C86.977 38.541 87.0062 38.7383 86.9602 38.925C86.9142 39.1118 86.7967 39.2729 86.633 39.3739L60.4405 55.3649L85.885 40.6749C86.0519 40.575 86.2516 40.5454 86.4403 40.5927C86.629 40.64 86.7912 40.7603 86.8912 40.9272C86.9912 41.0941 87.0208 41.2939 86.9734 41.4826C86.9261 41.6713 86.8058 41.8335 86.6389 41.9335L51.6324 63.7696L85.885 43.9958C86.0516 43.9019 86.2483 43.8768 86.4331 43.9259C86.6179 43.9749 86.7763 44.0943 86.8744 44.2584C86.9725 44.4225 87.0027 44.6185 86.9584 44.8045C86.9142 44.9905 86.799 45.1519 86.6374 45.2543L60.285 61.5782L85.885 46.7988C86.0511 46.7057 86.247 46.6809 86.4312 46.7296C86.6153 46.7784 86.7732 46.8969 86.8716 47.06C86.9699 47.2231 87.0009 47.4181 86.958 47.6037C86.9152 47.7893 86.8018 47.9509 86.6418 48.0544L57.3895 66.5052L85.885 50.0551C86.0511 49.9664 86.2449 49.945 86.4264 49.9953C86.6079 50.0456 86.763 50.1637 86.8598 50.3253C86.9565 50.4869 86.9873 50.6795 86.946 50.8632C86.9046 51.0469 86.7941 51.2076 86.6374 51.3121L70.1609 61.5166L85.885 52.4401C86.0515 52.3511 86.2459 52.3298 86.4278 52.3805C86.6096 52.4312 86.7649 52.5502 86.8613 52.7125C86.9577 52.8749 86.9877 53.0681 86.9452 53.2521C86.9027 53.436 86.7909 53.5965 86.633 53.7001L83.3621 55.7023L85.8864 54.2457C86.0537 54.1463 86.2536 54.1175 86.4422 54.1655C86.5356 54.1892 86.6233 54.2312 86.7005 54.2888C86.7777 54.3465 86.8427 54.4189 86.8919 54.5017C86.9411 54.5845 86.9735 54.6762 86.9873 54.7716C87.0011 54.8669 86.996 54.9641 86.9722 55.0574C86.9484 55.1508 86.9065 55.2386 86.8488 55.3157C86.7911 55.3929 86.7188 55.458 86.636 55.5072L83.588 57.3729L85.8864 56.0528C86.0524 55.9629 86.2467 55.9405 86.4288 55.9901C86.6109 56.0398 86.7669 56.1578 86.8642 56.3196C86.9615 56.4814 86.9927 56.6744 86.9513 56.8586C86.9099 57.0428 86.799 57.2039 86.6418 57.3084L74.268 65.0619L85.8923 58.3513C86.0586 58.2597 86.2539 58.2362 86.4372 58.2856C86.6205 58.3351 86.7774 58.4537 86.8751 58.6165C86.9727 58.7793 87.0034 58.9736 86.9607 59.1586C86.9181 59.3435 86.8053 59.5048 86.6462 59.6083L78.9206 64.4385L85.8923 60.4151C86.0574 60.3193 86.2533 60.2917 86.4385 60.3381C86.6236 60.3846 86.7834 60.5013 86.8838 60.6636C86.9842 60.8259 87.0175 61.021 86.9764 61.2074C86.9353 61.3938 86.8232 61.5568 86.6638 61.6618L68.8555 73.4754L85.885 63.6479C86.0494 63.5542 86.2437 63.5276 86.4273 63.5739C86.6108 63.6201 86.7694 63.7356 86.8698 63.896C86.9702 64.0565 87.0047 64.2496 86.966 64.4349C86.9274 64.6202 86.8186 64.7833 86.6624 64.8903L71.6556 75.0639L85.8835 66.8499C86.0476 66.7561 86.2415 66.7293 86.4249 66.775C86.6083 66.8207 86.7669 66.9355 86.8678 67.0953C86.9686 67.2552 87.0038 67.4478 86.9661 67.633C86.9284 67.8182 86.8206 67.9817 86.6653 68.0893L75.3812 75.834L85.8835 69.7703C86.0481 69.678 86.2419 69.6527 86.4246 69.6997C86.6074 69.7466 86.765 69.8622 86.8647 70.0224C86.9644 70.1825 86.9986 70.375 86.9601 70.5597C86.9216 70.7444 86.8134 70.9071 86.658 71.0141L81.6797 74.3526L85.8835 71.9279C86.0462 71.8368 86.2375 71.811 86.4185 71.8558C86.5995 71.9007 86.7566 72.0128 86.8579 72.1694C86.9592 72.326 86.997 72.5153 86.9637 72.6988C86.9304 72.8822 86.8284 73.0461 86.6785 73.1571L80.0119 77.9579L85.8791 74.5696C86.041 74.4762 86.2324 74.4481 86.4142 74.4911C86.5961 74.534 86.7547 74.6448 86.8577 74.8007C86.9607 74.9567 87.0002 75.1461 86.9683 75.3302C86.9363 75.5143 86.8353 75.6793 86.6858 75.7915L82.3353 79.0434L85.8908 76.9898C86.0527 76.8964 86.2441 76.8683 86.426 76.9113C86.6079 76.9542 86.7665 77.065 86.8695 77.221C86.9724 77.3769 87.012 77.5663 86.98 77.7504C86.9481 77.9345 86.8471 78.0995 86.6976 78.2117L85.4919 79.1138L85.8908 78.8849C86.0471 78.7899 86.2333 78.7567 86.4128 78.7918C86.5923 78.827 86.7522 78.9279 86.8611 79.0748C86.97 79.2218 87.0201 79.4041 87.0015 79.5861C86.9829 79.768 86.897 79.9365 86.7606 80.0584L84.5795 82.1207L85.8571 81.3873C85.9405 81.3384 86.0328 81.3065 86.1287 81.2934C86.2245 81.2803 86.322 81.2862 86.4155 81.311C86.509 81.3357 86.5967 81.3786 86.6735 81.4374C86.7503 81.4962 86.8148 81.5695 86.8631 81.6533C86.9115 81.737 86.9428 81.8295 86.9553 81.9255C86.9678 82.0214 86.9611 82.1188 86.9358 82.2122C86.9104 82.3055 86.8669 82.3929 86.8076 82.4693C86.7484 82.5458 86.6746 82.6097 86.5905 82.6575L79.896 86.505C79.7398 86.6016 79.5529 86.6361 79.3724 86.6015C79.1919 86.567 79.031 86.466 78.9214 86.3184C78.8119 86.1709 78.7617 85.9876 78.7808 85.8048C78.8 85.6221 78.887 85.4532 79.0248 85.3315L81.2059 83.278L75.6115 86.505C75.4497 86.5984 75.2583 86.6265 75.0764 86.5835C74.8945 86.5406 74.7359 86.4298 74.6329 86.2738C74.53 86.1179 74.4904 85.9285 74.5223 85.7444C74.5543 85.5603 74.6553 85.3953 74.8048 85.2831L76.0061 84.3825L72.3303 86.505C72.1685 86.5984 71.977 86.6265 71.7952 86.5835C71.6133 86.5406 71.4547 86.4298 71.3517 86.2738C71.2487 86.1179 71.2092 85.9285 71.2411 85.7444C71.2731 85.5603 71.3741 85.3953 71.5236 85.2831L75.8814 82.0268L68.1206 86.505C67.9579 86.5961 67.7666 86.6219 67.5856 86.5771C67.4046 86.5322 67.2475 86.4201 67.1462 86.2635C67.0449 86.1069 67.0071 85.9176 67.0404 85.7341C67.0738 85.5506 67.1757 85.3867 67.3256 85.2758L73.9922 80.475L63.5457 86.505C63.3815 86.5937 63.1896 86.6166 63.0091 86.5688C62.8287 86.521 62.6732 86.4062 62.5745 86.2478C62.4757 86.0894 62.4411 85.8993 62.4776 85.7162C62.5142 85.5331 62.6192 85.3709 62.7712 85.2626L67.7392 81.9286L59.8186 86.505C59.6548 86.5951 59.4628 86.6194 59.2818 86.5728C59.1008 86.5262 58.9444 86.4122 58.8446 86.2542C58.7448 86.0961 58.7091 85.9059 58.7448 85.7224C58.7805 85.539 58.885 85.3761 59.0368 85.267L70.3311 77.5164L54.7508 86.505C54.5867 86.5949 54.3944 86.6187 54.2133 86.5716C54.0323 86.5244 53.8761 86.4098 53.7767 86.2512C53.6774 86.0926 53.6424 85.9021 53.679 85.7186C53.7155 85.535 53.8209 85.3724 53.9734 85.264L68.9758 75.0962L49.2151 86.505C49.0503 86.5987 48.8555 86.625 48.6717 86.5782C48.4879 86.5315 48.3294 86.4154 48.2294 86.2542C48.1294 86.0931 48.0956 85.8995 48.1353 85.7141C48.175 85.5286 48.2849 85.3658 48.4421 85.2596L66.2475 73.4505L43.6207 86.505C43.4549 86.5924 43.2619 86.613 43.0813 86.5626C42.9008 86.5122 42.7464 86.3945 42.6498 86.2338C42.5533 86.0731 42.522 85.8815 42.5624 85.6984C42.6027 85.5153 42.7117 85.3546 42.8668 85.2494L50.5792 80.4251L40.0476 86.505C39.8815 86.5981 39.6856 86.6229 39.5014 86.5741C39.3173 86.5254 39.1594 86.4069 39.061 86.2438C38.9627 86.0806 38.9317 85.8856 38.9746 85.7001C39.0174 85.5145 39.1308 85.3528 39.2908 85.2494L51.6866 77.4754L36.0506 86.505C35.8835 86.6045 35.6837 86.6337 35.4952 86.586C35.3066 86.5382 35.1447 86.4175 35.0451 86.2505C34.9455 86.0834 34.9164 85.8836 34.9641 85.695C35.0118 85.5064 35.1325 85.3446 35.2996 85.245L38.3065 83.4027L32.9322 86.505C32.7655 86.5971 32.5695 86.6208 32.3856 86.571C32.2017 86.5212 32.0444 86.4018 31.947 86.2381C31.8497 86.0743 31.8198 85.8792 31.8638 85.6938C31.9077 85.5085 32.0221 85.3475 32.1827 85.245L35.4874 83.2267L29.8065 86.505C29.6404 86.5937 29.4465 86.6151 29.265 86.5648C29.0836 86.5145 28.9284 86.3963 28.8317 86.2347C28.735 86.0731 28.7041 85.8806 28.7455 85.6969C28.7869 85.5131 28.8973 85.3524 29.054 85.2479L45.532 75.0434L25.676 86.505C25.5101 86.5962 25.3154 86.6197 25.1326 86.5707C24.9497 86.5216 24.7929 86.4038 24.695 86.2418C24.597 86.0798 24.5655 85.8862 24.607 85.7015C24.6485 85.5168 24.7598 85.3554 24.9176 85.2508L54.1729 66.803L20.0361 86.505C19.9251 86.5709 19.7986 86.6063 19.6694 86.6076Z" fill="#E1EFFF"/>
<path d="M2.27594 13.3119C2.12345 13.3124 1.9746 13.2654 1.8501 13.1773C1.7256 13.0893 1.63164 12.9646 1.58129 12.8207C1.53095 12.6767 1.52672 12.5207 1.5692 12.3742C1.61168 12.2278 1.69875 12.0982 1.8183 12.0036L8.79145 6.4576L1.63202 10.591C1.46926 10.6844 1.27688 10.7119 1.09448 10.6678C0.912079 10.6236 0.753539 10.5112 0.651489 10.3538C0.549439 10.1963 0.511644 10.0056 0.545884 9.82113C0.580123 9.63662 0.683792 9.47225 0.835552 9.36186L1.79484 8.66807L1.63202 8.76487C1.47939 8.85313 1.30007 8.88345 1.1269 8.85028C0.953735 8.81711 0.798316 8.72266 0.689109 8.58423C0.579903 8.44581 0.524219 8.27268 0.532257 8.09655C0.540295 7.92042 0.611516 7.75307 0.732876 7.62517L4.12264 4.04766L1.66136 5.46898C1.50797 5.55748 1.32774 5.58748 1.15396 5.55346C0.980175 5.51944 0.824569 5.42369 0.715875 5.28389C0.607181 5.14408 0.55274 4.96968 0.562605 4.79287C0.57247 4.61606 0.645975 4.44879 0.769546 4.32195L1.7699 3.29519C1.65201 3.23085 1.55447 3.13483 1.48828 3.01797C1.39124 2.85001 1.3647 2.65045 1.41446 2.46297C1.46422 2.27549 1.58622 2.11536 1.75377 2.01762L4.75776 0.286798C4.91115 0.198306 5.09137 0.168301 5.26516 0.202323C5.43894 0.236345 5.59455 0.332097 5.70324 0.471898C5.81194 0.611698 5.86638 0.786105 5.85651 0.962914C5.84665 1.13972 5.77314 1.30699 5.64957 1.43383L5.5645 1.52037L7.76029 0.257462C7.91292 0.169201 8.09224 0.138881 8.26541 0.172056C8.43858 0.20523 8.59399 0.299678 8.7032 0.438101C8.81241 0.576524 8.86809 0.749656 8.86005 0.925788C8.85202 1.10192 8.78079 1.26926 8.65943 1.39716L5.27114 4.96734L13.4353 0.257462C13.5981 0.164052 13.7905 0.13659 13.9729 0.180728C14.1553 0.224866 14.3138 0.337246 14.4159 0.494737C14.5179 0.652228 14.5557 0.842848 14.5215 1.02736C14.4872 1.21188 14.3835 1.37624 14.2318 1.48664L13.271 2.1819L16.6036 0.257462C16.7639 0.164305 16.9535 0.135293 17.1342 0.176261C17.315 0.21723 17.4736 0.325139 17.578 0.478283C17.6825 0.631426 17.7251 0.818442 17.6972 1.00171C17.6694 1.18498 17.5732 1.3509 17.4279 1.4661L10.4519 7.00472L22.1569 0.257462C22.321 0.16367 22.5149 0.136841 22.6983 0.182569C22.8817 0.228298 23.0403 0.343054 23.1411 0.502905C23.242 0.662757 23.2772 0.855362 23.2395 1.04055C23.2018 1.22575 23.094 1.38923 22.9387 1.4969L21.6494 2.37698L25.3266 0.257462C25.4893 0.162588 25.6821 0.133895 25.8653 0.177325C26.0485 0.220755 26.208 0.332981 26.3108 0.490762C26.4135 0.648543 26.4516 0.839793 26.4172 1.02491C26.3828 1.21002 26.2786 1.37482 26.126 1.48517L21.1389 5.13016L29.5774 0.257462C29.74 0.162588 29.9329 0.133895 30.1161 0.177325C30.2993 0.220755 30.4588 0.332981 30.5615 0.490762C30.6643 0.648543 30.7024 0.839793 30.668 1.02491C30.6336 1.21002 30.5294 1.37482 30.3768 1.48517L25.4425 5.08175L33.8062 0.257462C33.9673 0.162905 34.1585 0.13344 34.3407 0.175082C34.5229 0.216724 34.6823 0.326333 34.7864 0.481528C34.8904 0.636722 34.9314 0.825796 34.9008 1.01014C34.8702 1.19448 34.7703 1.3602 34.6217 1.47344L28.1751 6.43854L38.8901 0.257462C39.0523 0.16455 39.2438 0.13708 39.4256 0.180665C39.6074 0.224249 39.7657 0.335599 39.8681 0.491962C39.9705 0.648326 40.0094 0.837902 39.9767 1.02196C39.9441 1.20601 39.8424 1.37065 39.6924 1.48224L34.321 5.44845L43.3183 0.257462C43.4795 0.162905 43.6707 0.13344 43.8529 0.175082C44.035 0.216724 44.1944 0.326333 44.2985 0.481528C44.4026 0.636722 44.4435 0.825796 44.4129 1.01014C44.3823 1.19448 44.2825 1.3602 44.1339 1.47344L37.6682 6.46054L48.4228 0.257462C48.5853 0.160973 48.7787 0.130934 48.9628 0.173608C49.1469 0.216282 49.3075 0.328375 49.4109 0.486514C49.5144 0.644652 49.5528 0.836629 49.5182 1.02241C49.4836 1.2082 49.3786 1.37345 49.2251 1.4837L43.9916 5.33111L52.7924 0.253062C52.9556 0.161351 53.1477 0.135553 53.3294 0.180955C53.5111 0.226357 53.6685 0.339521 53.7694 0.497251C53.8703 0.654981 53.907 0.845332 53.8721 1.02929C53.8372 1.21324 53.7332 1.37687 53.5815 1.48664L50.2343 3.84524L56.4549 0.257462C56.6181 0.164414 56.8107 0.137482 56.993 0.182217C57.1754 0.226953 57.3337 0.339946 57.4352 0.497911C57.5368 0.655877 57.5739 0.846779 57.5389 1.03127C57.5038 1.21577 57.3994 1.3798 57.247 1.48957L53.3233 4.28381L60.3053 0.257462C60.4661 0.164353 60.6562 0.135741 60.8373 0.177405C61.0183 0.219069 61.1768 0.327904 61.2808 0.481923C61.3847 0.635941 61.4263 0.823662 61.3971 1.00716C61.368 1.19066 61.2703 1.35626 61.1238 1.4705L54.4454 6.68642L65.5887 0.257462C65.7509 0.16455 65.9424 0.13708 66.1242 0.180665C66.306 0.224249 66.4643 0.335599 66.5667 0.491962C66.6691 0.648326 66.708 0.837902 66.6753 1.02196C66.6427 1.20601 66.541 1.37065 66.391 1.48224L61.1399 5.34871L69.9641 0.257462C70.1278 0.163511 70.3215 0.136296 70.5047 0.18148C70.688 0.226664 70.8468 0.340766 70.9481 0.500049C71.0493 0.659332 71.0853 0.851529 71.0485 1.03665C71.0116 1.22178 70.9049 1.38558 70.7503 1.49397L68.0514 3.37734L73.4566 0.257462C73.618 0.165564 73.8083 0.138359 73.9891 0.181344C74.1698 0.224328 74.3275 0.334297 74.4303 0.489042C74.5331 0.643786 74.5733 0.831773 74.5428 1.01503C74.5124 1.1983 74.4135 1.36317 74.2662 1.47637L68.2289 6.0469L78.2647 0.257462C78.4282 0.164716 78.621 0.138271 78.8034 0.183587C78.9858 0.228903 79.1439 0.342521 79.245 0.500988C79.346 0.659455 79.3824 0.850676 79.3466 1.03518C79.3107 1.21969 79.2054 1.38339 79.0524 1.4925L76 3.63109L81.8188 0.27213C81.9797 0.178333 82.1704 0.14932 82.352 0.190983C82.5336 0.232646 82.6925 0.341862 82.7965 0.496452C82.9005 0.651042 82.9418 0.839417 82.9119 1.02332C82.882 1.20723 82.7833 1.37288 82.6358 1.48664L76.1071 6.56468L84.6819 1.60838C84.8438 1.51497 85.0352 1.48687 85.2171 1.52982C85.399 1.57277 85.5576 1.68353 85.6606 1.83948C85.7635 1.99544 85.8031 2.18482 85.7711 2.36895C85.7392 2.55308 85.6382 2.71807 85.4887 2.83022L81.5474 5.78288L85.7087 3.38174C85.8704 3.29221 86.06 3.26705 86.2394 3.31128C86.4189 3.35552 86.575 3.46588 86.6766 3.6203C86.7782 3.77471 86.8177 3.96179 86.7873 4.14411C86.7569 4.32642 86.6587 4.49052 86.5125 4.60358L85.0457 5.7022L85.8906 5.21376C86.0456 5.12186 86.2289 5.09023 86.4058 5.1249C86.5826 5.15957 86.7404 5.25811 86.8492 5.40172C86.958 5.54534 87.0102 5.72399 86.9957 5.90358C86.9812 6.08318 86.9011 6.25115 86.7707 6.37546L84.1304 8.93062L85.9082 7.90386C86.0447 7.82356 86.2036 7.78961 86.361 7.8071C86.5184 7.82459 86.6659 7.89257 86.7815 8.00088C86.8971 8.10919 86.9745 8.252 87.0021 8.40796C87.0298 8.56392 87.0062 8.72464 86.9349 8.86608L86.0241 10.6966C86.1978 10.6214 86.394 10.6162 86.5714 10.6823C86.7489 10.7484 86.8939 10.8805 86.9762 11.0511C87.0584 11.2216 87.0715 11.4174 87.0127 11.5974C86.9539 11.7774 86.8277 11.9277 86.6606 12.0168L84.6526 13.1653C84.5161 13.2456 84.3572 13.2795 84.1998 13.262C84.0424 13.2445 83.8948 13.1766 83.7793 13.0682C83.6637 12.9599 83.5863 12.8171 83.5586 12.6612C83.531 12.5052 83.5546 12.3445 83.6258 12.203L84.5294 10.3842L79.7095 13.1711C79.5544 13.2645 79.3701 13.2972 79.1923 13.2629C79.0145 13.2286 78.8556 13.1297 78.7464 12.9853C78.6371 12.8409 78.5851 12.6612 78.6005 12.4807C78.6158 12.3003 78.6974 12.1319 78.8294 12.008L81.4697 9.4528L75.0319 13.1755C74.8701 13.2669 74.6797 13.2934 74.4991 13.2498C74.3185 13.2062 74.1612 13.0956 74.0589 12.9405C73.9567 12.7854 73.9171 12.5972 73.9483 12.414C73.9794 12.2309 74.0789 12.0663 74.2266 11.9537L75.6934 10.8536L71.6729 13.177C71.5111 13.2704 71.3197 13.2985 71.1378 13.2556C70.9559 13.2126 70.7973 13.1018 70.6943 12.9459C70.5913 12.7899 70.5518 12.6006 70.5837 12.4164C70.6157 12.2323 70.7167 12.0673 70.8662 11.9552L74.8045 9.00396L67.5718 13.1799C67.4109 13.2718 67.2211 13.2993 67.0407 13.257C66.8604 13.2147 66.7027 13.1056 66.5994 12.9518C66.4961 12.798 66.4549 12.6108 66.484 12.4278C66.5131 12.2448 66.6103 12.0796 66.7562 11.9654L73.285 6.89324L62.3867 13.1829C62.2228 13.2801 62.0276 13.3098 61.8422 13.2657C61.6569 13.2215 61.496 13.107 61.3937 12.9463C61.2913 12.7856 61.2555 12.5914 61.2938 12.4047C61.3321 12.2181 61.4416 12.0537 61.599 11.9464L64.6514 9.8063L58.8018 13.1799C58.6404 13.2718 58.4501 13.299 58.2693 13.256C58.0886 13.2131 57.9309 13.1031 57.8281 12.9483C57.7253 12.7936 57.6851 12.6056 57.7155 12.4224C57.746 12.2391 57.8448 12.0742 57.9921 11.961L64.0295 7.38462L53.9893 13.1873C53.8251 13.2917 53.6262 13.3267 53.4362 13.2844C53.2463 13.2422 53.0809 13.1263 52.9764 12.9621C52.872 12.7979 52.837 12.599 52.8793 12.4091C52.9215 12.2191 53.0374 12.0537 53.2016 11.9493L55.8976 10.0689L50.4939 13.1887C50.3317 13.2816 50.1401 13.3091 49.9584 13.2655C49.7766 13.2219 49.6183 13.1106 49.5159 12.9542C49.4134 12.7979 49.3746 12.6083 49.4072 12.4242C49.4399 12.2402 49.5416 12.0755 49.6916 11.964L54.9441 8.09161L46.1126 13.1902C45.9518 13.2814 45.7626 13.3086 45.5827 13.2664C45.4028 13.2241 45.2454 13.1154 45.1422 12.9621C45.0389 12.8088 44.9974 12.6222 45.0258 12.4396C45.0543 12.2569 45.1506 12.0918 45.2956 11.9772L51.9724 6.75683L40.8248 13.1931C40.6617 13.2862 40.4691 13.3131 40.2867 13.2684C40.1043 13.2236 39.946 13.1106 39.8445 12.9527C39.7429 12.7947 39.7058 12.6038 39.7409 12.4193C39.7759 12.2348 39.8803 12.0708 40.0327 11.961L43.9549 9.16384L36.973 13.1946C36.8097 13.2863 36.6176 13.3121 36.4359 13.2667C36.2543 13.2213 36.0969 13.1081 35.996 12.9504C35.8951 12.7927 35.8583 12.6023 35.8932 12.4184C35.9282 12.2344 36.0321 12.0708 36.1838 11.961L39.5267 9.60241L33.3001 13.1975C33.1376 13.294 32.9442 13.3241 32.7601 13.2814C32.576 13.2387 32.4154 13.1266 32.312 12.9685C32.2085 12.8103 32.1701 12.6184 32.2047 12.4326C32.2393 12.2468 32.3443 12.0815 32.4978 11.9713L37.7313 8.11802L28.9305 13.199C28.7694 13.2936 28.5782 13.323 28.396 13.2814C28.2138 13.2397 28.0544 13.1301 27.9503 12.9749C27.8463 12.8197 27.8053 12.6307 27.8359 12.4463C27.8665 12.262 27.9664 12.0963 28.115 11.983L34.5806 6.99592L23.8246 13.2019C23.6624 13.2948 23.4709 13.3223 23.2891 13.2787C23.1073 13.2351 22.949 13.1238 22.8466 12.9674C22.7442 12.8111 22.7053 12.6215 22.738 12.4374C22.7706 12.2534 22.8723 12.0887 23.0223 11.9772L28.3937 8.00507L19.3905 13.2049C19.2293 13.2994 19.0381 13.3289 18.856 13.2872C18.6738 13.2456 18.5144 13.136 18.4103 12.9808C18.3062 12.8256 18.2653 12.6365 18.2959 12.4522C18.3265 12.2678 18.4263 12.1021 18.575 11.9889L25.0215 7.01792L14.3022 13.2078C14.1396 13.3027 13.9467 13.3314 13.7635 13.2879C13.5803 13.2445 13.4208 13.1323 13.318 12.9745C13.2153 12.8167 13.1772 12.6255 13.2116 12.4404C13.246 12.2552 13.3502 12.0904 13.5028 11.9801L18.4386 8.37764L10.069 13.2093C9.90639 13.3041 9.7135 13.3328 9.5303 13.2894C9.3471 13.246 9.18761 13.1337 9.08488 12.976C8.98214 12.8182 8.94402 12.6269 8.97841 12.4418C9.0128 12.2567 9.11707 12.0919 9.26962 11.9816L14.2567 8.33804L5.81532 13.2122C5.65099 13.3076 5.45606 13.3354 5.27158 13.2899C5.08711 13.2445 4.92749 13.1291 4.82634 12.9683C4.7252 12.8075 4.69042 12.6136 4.72934 12.4277C4.76826 12.2417 4.87783 12.0781 5.03498 11.9713L6.33163 11.0824L2.64264 13.2137C2.53115 13.278 2.40468 13.3119 2.27594 13.3119Z" fill="#5A6277"/>
<path d="M55.3581 66.1164C55.2034 66.1183 55.0521 66.0712 54.9258 65.9819C54.7995 65.8926 54.7047 65.7656 54.6549 65.6192C54.6051 65.4727 54.6029 65.3142 54.6486 65.1664C54.6943 65.0187 54.7855 64.8891 54.9093 64.7963L61.1857 59.9133L59.8656 60.6775C59.7045 60.77 59.5143 60.7979 59.3334 60.7556C59.1525 60.7133 58.9944 60.6039 58.8911 60.4495C58.7877 60.2951 58.7468 60.1073 58.7766 59.9239C58.8064 59.7405 58.9046 59.5753 59.0515 59.4616L60.9407 58.0065C60.7791 58.0918 60.5914 58.1137 60.4144 58.0678C60.2375 58.022 60.084 57.9117 59.9842 57.7586C59.8843 57.6055 59.8452 57.4206 59.8746 57.2402C59.9039 57.0597 59.9996 56.8968 60.1428 56.7832L61.5084 55.708C61.349 55.7961 61.1625 55.8218 60.9852 55.7799C60.808 55.7381 60.6526 55.6318 60.5494 55.4817C60.4462 55.3317 60.4025 55.1486 60.4269 54.9681C60.4512 54.7876 60.5418 54.6226 60.6811 54.5053L62.717 52.8097L61.7563 53.3641C61.5984 53.4576 61.4112 53.4885 61.2316 53.4508C61.052 53.413 60.8931 53.3093 60.7863 53.16C60.6794 53.0108 60.6324 52.827 60.6545 52.6448C60.6766 52.4626 60.7661 52.2954 60.9055 52.176L63.1893 50.1841L61.6785 51.0539C61.5187 51.146 61.3299 51.1744 61.15 51.1335C60.9701 51.0926 60.8123 50.9854 60.7079 50.8332C60.6035 50.6811 60.5603 50.4952 60.5869 50.3127C60.6134 50.1301 60.7078 49.9642 60.8513 49.8482L61.237 49.5387C61.0804 49.5742 60.9165 49.5573 60.7704 49.4906C60.6243 49.4239 60.5042 49.3111 60.4284 49.1695C60.3526 49.028 60.3254 48.8654 60.3509 48.7069C60.3764 48.5484 60.4533 48.4026 60.5696 48.2919L63.1864 45.7984L60.8395 47.1566C60.6865 47.245 60.5066 47.2751 60.3331 47.2414C60.1595 47.2078 60.004 47.1125 59.8951 46.9733C59.7862 46.834 59.7313 46.6602 59.7404 46.4836C59.7495 46.3071 59.8221 46.1398 59.9448 46.0125L62.849 43.0085L59.8201 44.7569C59.6691 44.8441 59.492 44.8747 59.3205 44.8431C59.149 44.8115 58.9944 44.7199 58.8844 44.5846C58.7744 44.4493 58.7162 44.2793 58.7202 44.1049C58.7242 43.9306 58.7902 43.7634 58.9063 43.6334L61.947 40.2172L58.3093 42.3177C58.1532 42.4035 57.9712 42.4297 57.7973 42.3912C57.6234 42.3527 57.4694 42.2522 57.3641 42.1085C57.2589 41.9648 57.2095 41.7877 57.2253 41.6102C57.241 41.4328 57.3208 41.2671 57.4498 41.1442L58.8183 39.9063L57.1065 40.8875C56.9544 40.9757 56.7755 41.0063 56.6027 40.9736C56.4299 40.941 56.2745 40.8473 56.165 40.7097C56.0555 40.5721 55.9991 40.3996 56.006 40.2239C56.013 40.0481 56.0829 39.8808 56.203 39.7522L58.7963 36.98L55.298 38.9998C55.1417 39.0948 54.9556 39.128 54.7761 39.0929C54.5966 39.0578 54.4367 38.9568 54.3277 38.8099C54.2188 38.6629 54.1687 38.4806 54.1873 38.2986C54.2059 38.1167 54.2918 37.9482 54.4282 37.8263L56.1106 36.2451L54.5089 37.1707C54.3624 37.255 54.1913 37.2862 54.0244 37.2589C53.8576 37.2317 53.7054 37.1476 53.5934 37.021C53.4814 36.8943 53.4166 36.7329 53.41 36.564C53.4033 36.3951 53.4552 36.2291 53.5569 36.0941L55.2188 33.8939C55.0468 33.9726 54.8511 33.9819 54.6724 33.9197C54.4938 33.8576 54.3461 33.7288 54.2601 33.5603C54.1742 33.3918 54.1566 33.1966 54.2112 33.0155C54.2657 32.8344 54.3881 32.6814 54.5529 32.5884L57.6023 30.8283C57.7488 30.7431 57.9203 30.7113 58.0876 30.7382C58.2549 30.7652 58.4077 30.8492 58.52 30.9761C58.6324 31.1029 58.6973 31.2648 58.7038 31.4341C58.7103 31.6034 58.658 31.7698 58.5557 31.9049L56.8997 34.1051L60.8469 31.8257C61.0032 31.7306 61.1893 31.6974 61.3688 31.7326C61.5483 31.7677 61.7082 31.8686 61.8171 32.0156C61.926 32.1625 61.9761 32.3449 61.9575 32.5268C61.939 32.7088 61.8531 32.8772 61.7167 32.9991L60.0401 34.5803L62.3371 33.2529C62.4893 33.1657 62.6677 33.136 62.8399 33.169C63.0121 33.2021 63.1668 33.2957 63.2759 33.433C63.385 33.5703 63.4412 33.7422 63.4345 33.9174C63.4278 34.0926 63.3585 34.2596 63.2392 34.3882L60.6474 37.1604L64.0489 35.1978C64.205 35.112 64.387 35.0858 64.5609 35.1243C64.7348 35.1628 64.8888 35.2633 64.9941 35.407C65.0993 35.5507 65.1487 35.7278 65.1329 35.9053C65.1172 36.0827 65.0374 36.2484 64.9084 36.3713L63.5414 37.6093L65.1461 36.6822C65.2969 36.596 65.4734 36.5661 65.6443 36.5979C65.8151 36.6296 65.9691 36.721 66.0788 36.8558C66.1885 36.9905 66.2468 37.1598 66.2434 37.3335C66.2399 37.5072 66.1749 37.6741 66.0599 37.8043L63.0207 41.2205L66.6407 39.1274C66.7939 39.039 66.974 39.0089 67.1476 39.0427C67.3213 39.0766 67.4769 39.1721 67.5857 39.3116C67.6944 39.4511 67.7491 39.6253 67.7396 39.8019C67.7301 39.9786 67.6571 40.1459 67.534 40.273L64.6297 43.2784L67.7408 41.4743C67.8971 41.3758 68.0848 41.34 68.2663 41.3739C68.4479 41.4078 68.6099 41.5089 68.7202 41.6571C68.8304 41.8053 68.8806 41.9897 68.8609 42.1733C68.8411 42.3569 68.7528 42.5263 68.6136 42.6477L65.9968 45.1412L68.5446 43.6745C68.7045 43.5824 68.8932 43.554 69.0731 43.5949C69.253 43.6358 69.4109 43.743 69.5153 43.8951C69.6197 44.0472 69.6629 44.2331 69.6363 44.4157C69.6097 44.5983 69.5153 44.7641 69.3719 44.8802L69.0917 45.1075C69.2524 45.0517 69.4274 45.0535 69.5869 45.1125C69.7464 45.1715 69.8805 45.2842 69.9661 45.4311C70.0517 45.5781 70.0836 45.7502 70.0562 45.9181C70.0289 46.086 69.9441 46.2391 69.8163 46.3514L67.5355 48.3418L69.3924 47.2696C69.5514 47.1781 69.739 47.1496 69.918 47.1896C70.097 47.2296 70.2545 47.3353 70.3595 47.4857C70.4644 47.6362 70.5092 47.8205 70.4849 48.0023C70.4607 48.1841 70.3692 48.3503 70.2285 48.4679L68.1896 50.1665L69.6462 49.326C69.8066 49.2341 69.9958 49.2062 70.1759 49.2478C70.356 49.2894 70.5137 49.3975 70.6176 49.5505C70.7214 49.7034 70.7636 49.8899 70.7358 50.0727C70.708 50.2555 70.6122 50.421 70.4676 50.5361L69.1049 51.6069L69.7415 51.2402C69.9029 51.1421 70.096 51.1101 70.2804 51.1508C70.4649 51.1916 70.6265 51.3019 70.7316 51.4588C70.8367 51.6157 70.8772 51.8072 70.8447 51.9932C70.8122 52.1793 70.7092 52.3456 70.5571 52.4576L68.6737 53.9068L69.6872 53.3201C69.8479 53.2305 70.0364 53.2046 70.2152 53.2475C70.3941 53.2903 70.5503 53.3989 70.653 53.5515C70.7556 53.7041 70.7971 53.8898 70.7693 54.0716C70.7415 54.2534 70.6464 54.4182 70.5028 54.5331L64.222 59.4205L69.2809 56.5001C69.4493 56.4044 69.6487 56.3791 69.8356 56.4299C70.0225 56.4806 70.1817 56.6032 70.2786 56.771C70.3754 56.9387 70.402 57.1379 70.3525 57.3251C70.303 57.5124 70.1814 57.6724 70.0143 57.7704L55.7248 66.0211C55.6131 66.0844 55.4866 66.1173 55.3581 66.1164Z" fill="#F26376"/>
<path d="M45.5908 79.2062C45.4376 79.2044 45.2889 79.1547 45.1654 79.064C45.042 78.9733 44.95 78.8462 44.9024 78.7006C44.8548 78.555 44.8541 78.3982 44.9002 78.2521C44.9463 78.106 45.037 77.978 45.1596 77.8861L56.3982 69.7249L40.4688 78.9217C40.3043 79.0154 40.11 79.0419 39.9264 78.9957C39.7429 78.9494 39.5843 78.834 39.4839 78.6735C39.3835 78.5131 39.349 78.32 39.3877 78.1347C39.4264 77.9494 39.5352 77.7862 39.6914 77.6793L51.9875 69.3435L36.768 78.1296C36.6075 78.2203 36.4187 78.2472 36.2392 78.205C36.0598 78.1627 35.9028 78.0544 35.7996 77.9016C35.6963 77.7488 35.6545 77.5628 35.6823 77.3805C35.7101 77.1982 35.8055 77.0331 35.9496 76.918L37.8241 75.4512L34.5253 77.3581C34.369 77.4547 34.1822 77.4892 34.0017 77.4547C33.8212 77.4201 33.6602 77.3191 33.5507 77.1716C33.4411 77.024 33.391 76.8407 33.4101 76.658C33.4293 76.4752 33.5163 76.3063 33.654 76.1846L36.5715 73.4168L31.8631 76.1348C31.7042 76.2258 31.5171 76.2541 31.3384 76.2142C31.1598 76.1743 31.0025 76.0689 30.8975 75.9189C30.7926 75.7689 30.7475 75.5851 30.7712 75.4036C30.7949 75.222 30.8856 75.0559 31.0255 74.9379L32.0244 74.1077L30.188 75.1682C30.0318 75.2576 29.8482 75.2865 29.6721 75.2493C29.496 75.2121 29.3397 75.1115 29.233 74.9665C29.1263 74.8216 29.0766 74.6425 29.0934 74.4633C29.1102 74.2841 29.1923 74.1173 29.3241 73.9947L31.2397 72.2272L28.3457 73.8979C28.1878 73.9899 28.0013 74.0196 27.8227 73.9812C27.6441 73.9429 27.4862 73.8393 27.38 73.6907C27.2737 73.542 27.2268 73.3591 27.2483 73.1777C27.2699 72.9963 27.3583 72.8294 27.4964 72.7098L28.6083 71.7402L26.8995 72.7259C26.7432 72.818 26.5584 72.8489 26.3807 72.8127C26.203 72.7765 26.045 72.6758 25.9372 72.5299C25.8294 72.384 25.7795 72.2034 25.7972 72.0229C25.8148 71.8424 25.8986 71.6748 26.0326 71.5525L27.7077 69.9962L25.3989 71.3295C25.24 71.4222 25.0521 71.4517 24.8725 71.4124C24.6928 71.373 24.5345 71.2675 24.429 71.1169C24.3234 70.9663 24.2783 70.7816 24.3025 70.5993C24.3268 70.417 24.4186 70.2504 24.5599 70.1326L24.8899 69.8569L24.3282 70.1796C24.1737 70.2675 23.9926 70.2964 23.8185 70.2608C23.6444 70.2252 23.4891 70.1276 23.3815 69.9862C23.274 69.8447 23.2214 69.669 23.2336 69.4917C23.2459 69.3144 23.3221 69.1476 23.4481 69.0223L25.5881 66.9145L22.9479 68.4429C22.7895 68.5359 22.602 68.5662 22.4224 68.5276C22.2428 68.489 22.0842 68.3844 21.978 68.2345C21.8718 68.0846 21.8257 67.9003 21.8489 67.7181C21.872 67.5359 21.9627 67.369 22.103 67.2504L22.6751 66.7619L22.0356 67.1316C21.8835 67.2187 21.7053 67.2486 21.5332 67.2157C21.3611 67.1828 21.2065 67.0894 21.0972 66.9524C20.988 66.8154 20.9315 66.6437 20.9379 66.4686C20.9443 66.2935 21.0131 66.1265 21.132 65.9977L23.9952 62.9277L20.6949 64.8346C20.5373 64.9248 20.3517 64.9533 20.1743 64.9145C19.9968 64.8758 19.8401 64.7725 19.7343 64.6248C19.6286 64.4771 19.5815 64.2954 19.6021 64.115C19.6226 63.9345 19.7094 63.7681 19.8456 63.6479L21.0704 62.5757L19.9336 63.2314C19.7774 63.324 19.5923 63.3553 19.4143 63.3192C19.2362 63.2832 19.0779 63.1824 18.97 63.0363C18.863 62.8898 18.8142 62.7088 18.8329 62.5284C18.8516 62.348 18.9365 62.1809 19.0712 62.0594L20.9428 60.3726L19.1973 61.3803C19.0436 61.47 18.8625 61.5008 18.6878 61.4669C18.513 61.433 18.3566 61.3367 18.2476 61.1959C18.1386 61.0552 18.0846 60.8796 18.0955 60.7019C18.1064 60.5243 18.1816 60.3566 18.307 60.2303L21.8507 56.6249L18.4126 58.611C18.257 58.7277 18.0614 58.7778 17.8688 58.7503C17.6763 58.7228 17.5025 58.6199 17.3858 58.4643C17.2691 58.3087 17.219 58.1131 17.2465 57.9205C17.274 57.728 17.3769 57.5542 17.5325 57.4375L21.2611 53.8908L17.9432 55.8094C17.7838 55.9017 17.5955 55.9307 17.4158 55.8905C17.236 55.8504 17.078 55.744 16.973 55.5927C16.868 55.4414 16.8239 55.2561 16.8493 55.0736C16.8747 54.8912 16.9678 54.725 17.1101 54.6081L19.4672 52.6631L17.7848 53.6341C17.626 53.7237 17.4395 53.7509 17.2618 53.7104C17.084 53.6699 16.9277 53.5647 16.8233 53.4153C16.7189 53.2658 16.6739 53.0829 16.6971 52.902C16.7203 52.7212 16.81 52.5555 16.9487 52.4372L21.0235 49.046L17.8464 50.8766C17.6849 50.9685 17.4946 50.9957 17.3139 50.9527C17.1332 50.9097 16.9755 50.7997 16.8727 50.645C16.7699 50.4902 16.7297 50.3022 16.7601 50.119C16.7906 49.9357 16.8894 49.7708 17.0367 49.6577L21.2347 46.4776L18.1764 48.2378C18.0146 48.3292 17.8242 48.3557 17.6436 48.3121C17.463 48.2684 17.3057 48.1579 17.2035 48.0028C17.1012 47.8476 17.0617 47.6595 17.0928 47.4763C17.1239 47.2931 17.2234 47.1286 17.3712 47.016L23.0139 42.8033L18.9069 45.1751C18.7452 45.27 18.5533 45.2992 18.3706 45.257C18.188 45.2147 18.0284 45.1041 17.9248 44.9479C17.8212 44.7917 17.7813 44.6017 17.8133 44.417C17.8454 44.2323 17.947 44.0669 18.0972 43.9548L23.1298 40.1411L20.1625 41.8543C20.0009 41.9483 19.8097 41.977 19.6276 41.9347C19.4456 41.8924 19.2866 41.7822 19.1831 41.6267C19.0796 41.4711 19.0394 41.2819 19.0706 41.0977C19.1019 40.9135 19.2023 40.7481 19.3513 40.6354L21.9476 38.6611L21.8801 38.7007C21.7238 38.7928 21.539 38.8237 21.3613 38.7875C21.1836 38.7513 21.0256 38.6505 20.9178 38.5046C20.8101 38.3588 20.7602 38.1781 20.7778 37.9976C20.7954 37.8171 20.8793 37.6495 21.0132 37.5273L24.8973 33.9189C24.8233 33.8619 24.7614 33.7906 24.7154 33.7092C24.618 33.5409 24.5914 33.3409 24.6415 33.153C24.6916 32.9652 24.8142 32.8049 24.9824 32.7074L28.2724 30.8005C28.4286 30.7085 28.6134 30.6775 28.7912 30.7137C28.9689 30.7499 29.1269 30.8507 29.2346 30.9966C29.3424 31.1425 29.3923 31.3231 29.3747 31.5036C29.3571 31.6841 29.2732 31.8517 29.1393 31.974L26.7645 34.1742L31.2309 31.597C31.3924 31.503 31.5837 31.4743 31.7657 31.5166C31.9477 31.5589 32.1067 31.6691 32.2102 31.8246C32.3138 31.9802 32.354 32.1694 32.3227 32.3536C32.2915 32.5379 32.1911 32.7032 32.042 32.8159L29.4429 34.7917L32.5231 33.0139C32.6846 32.922 32.8749 32.8948 33.0556 32.9378C33.2364 32.9808 33.3941 33.0908 33.4968 33.2455C33.5996 33.4003 33.6399 33.5882 33.6094 33.7715C33.579 33.9548 33.4801 34.1196 33.3328 34.2328L28.3061 38.0465L33.0703 35.3139C33.2323 35.2196 33.4244 35.1909 33.6069 35.2338C33.7894 35.2767 33.9486 35.3879 34.0517 35.5445C34.1548 35.7011 34.194 35.8913 34.1612 36.0759C34.1285 36.2605 34.0262 36.4256 33.8755 36.5372L28.2269 40.741L30.6662 39.3329C30.8276 39.241 31.0179 39.2138 31.1987 39.2568C31.3794 39.2997 31.5371 39.4097 31.6399 39.5645C31.7427 39.7192 31.7829 39.9072 31.7525 40.0905C31.722 40.2737 31.6232 40.4386 31.4759 40.5518L27.2808 43.7318L27.7047 43.4868C27.8637 43.3954 28.0513 43.3669 28.2303 43.4069C28.4093 43.4469 28.5668 43.5526 28.6718 43.703C28.7767 43.8534 28.8215 44.0378 28.7973 44.2196C28.773 44.4014 28.6815 44.5675 28.5408 44.6852L24.4704 48.075L26.3538 46.9881C26.513 46.8978 26.7001 46.8703 26.8785 46.9109C27.0569 46.9516 27.2137 47.0574 27.3181 47.2077C27.4224 47.358 27.4668 47.5419 27.4426 47.7232C27.4183 47.9046 27.3271 48.0703 27.1869 48.1879L24.8283 50.1344L25.8712 49.533C26.0275 49.4363 26.2144 49.4018 26.3949 49.4364C26.5754 49.4709 26.7363 49.572 26.8459 49.7195C26.9554 49.867 27.0056 50.0503 26.9864 50.2331C26.9673 50.4158 26.8802 50.5848 26.7425 50.7064L23.0139 54.2531L25.7847 52.6543C25.9382 52.5658 26.1186 52.5358 26.2926 52.57C26.4665 52.6042 26.6221 52.7002 26.7307 52.8403C26.8393 52.9804 26.8935 53.155 26.8833 53.332C26.873 53.5089 26.7991 53.6762 26.675 53.8028L23.1313 57.4097L26.2306 55.6202C26.3866 55.5354 26.5681 55.5101 26.7414 55.549C26.9146 55.5879 27.0679 55.6884 27.1727 55.8317C27.2775 55.975 27.3268 56.1515 27.3113 56.3284C27.2959 56.5053 27.2168 56.6706 27.0887 56.7936L25.2141 58.4892L26.807 57.5695C26.9645 57.481 27.1491 57.4536 27.3255 57.4927C27.5019 57.5318 27.6576 57.6347 27.7628 57.7815C27.868 57.9284 27.9154 58.1089 27.8957 58.2885C27.8761 58.4681 27.7908 58.6341 27.6563 58.7547L26.4345 59.8255L27.5111 59.205C27.6633 59.1179 27.8416 59.0881 28.0139 59.1212C28.1861 59.1542 28.3407 59.2479 28.4498 59.3852C28.5589 59.5225 28.6152 59.6943 28.6085 59.8695C28.6018 60.0448 28.5325 60.2118 28.4132 60.3403L25.5529 63.4059L28.8459 61.4991C29.0042 61.4076 29.1911 61.3786 29.3697 61.4178C29.5483 61.4569 29.7059 61.5614 29.8115 61.7107C29.9171 61.86 29.9631 62.0433 29.9405 62.2248C29.9179 62.4063 29.8283 62.5728 29.6893 62.6916L29.1143 63.183L29.8125 62.7811C29.9669 62.6931 30.1481 62.6643 30.3222 62.6999C30.4963 62.7354 30.6516 62.833 30.7591 62.9745C30.8667 63.1159 30.9193 63.2916 30.907 63.4689C30.8948 63.6462 30.8186 63.813 30.6926 63.9384L28.5525 66.0462L31.3556 64.4327C31.5142 64.342 31.701 64.3138 31.8794 64.3537C32.0577 64.3936 32.2148 64.4986 32.3197 64.6481C32.4247 64.7977 32.4701 64.9811 32.4469 65.1624C32.4238 65.3436 32.3338 65.5097 32.1946 65.6281L31.8675 65.9039L32.6009 65.4844C32.7571 65.3936 32.9413 65.3638 33.1182 65.4005C33.2951 65.4372 33.4522 65.5379 33.5594 65.6833C33.6667 65.8287 33.7165 66.0085 33.6993 66.1884C33.6821 66.3682 33.5991 66.5354 33.4663 66.6578L31.7927 68.2126L34.3904 66.7033C34.5482 66.6113 34.7347 66.5816 34.9134 66.6199C35.092 66.6583 35.2499 66.7619 35.3561 66.9105C35.4624 67.0592 35.5093 67.2421 35.4878 67.4235C35.4662 67.6049 35.3777 67.7718 35.2396 67.8914L34.1293 68.8624L36.2195 67.6552C36.3757 67.5658 36.5593 67.5369 36.7354 67.5741C36.9115 67.6113 37.0678 67.7119 37.1745 67.8568C37.2812 68.0018 37.3309 68.1809 37.3141 68.3601C37.2973 68.5393 37.2152 68.7061 37.0834 68.8287L35.1766 70.5888L38.7218 68.5353C38.8808 68.4439 39.0684 68.4154 39.2474 68.4554C39.4264 68.4954 39.5839 68.601 39.6889 68.7515C39.7938 68.9019 39.8386 69.0862 39.8143 69.268C39.7901 69.4499 39.6986 69.616 39.5579 69.7337L38.5619 70.5624L41.2095 69.0501C41.3649 68.9627 41.5467 68.9348 41.7212 68.9717C41.8956 69.0086 42.0506 69.1078 42.1572 69.2507C42.2638 69.3936 42.3146 69.5705 42.3003 69.7482C42.286 69.9259 42.2074 70.0923 42.0793 70.2162L39.1545 72.9944L46.1203 68.9724C46.2809 68.8799 46.4706 68.8517 46.6512 68.8933C46.8317 68.935 46.9898 69.0434 47.0937 69.1969C47.1976 69.3504 47.2395 69.5375 47.211 69.7206C47.1826 69.9037 47.0858 70.0693 46.9403 70.184L45.0672 71.6508L68.9877 57.838C69.1521 57.7442 69.3464 57.7177 69.53 57.764C69.7135 57.8102 69.8721 57.9257 69.9725 58.0861C70.0729 58.2466 70.1074 58.4397 70.0687 58.625C70.0301 58.8102 69.9213 58.9734 69.7651 59.0803L57.466 67.4103L67.8142 61.4345C67.9768 61.3421 68.1685 61.3152 68.3502 61.3594C68.5319 61.4036 68.6899 61.5156 68.7918 61.6724C68.8937 61.8292 68.9318 62.019 68.8985 62.203C68.8651 62.387 68.7627 62.5513 68.6122 62.6623L57.3751 70.8206L65.2224 66.2911C65.3829 66.2004 65.5717 66.1735 65.7512 66.2157C65.9307 66.258 66.0877 66.3663 66.1909 66.5191C66.2941 66.6719 66.336 66.8579 66.3082 67.0402C66.2804 67.2225 66.1849 67.3876 66.0409 67.5027L60.6768 71.7021C60.8305 71.7183 60.9752 71.7825 61.0902 71.8858C61.2052 71.9891 61.2847 72.126 61.3172 72.2771C61.3497 72.4283 61.3337 72.5858 61.2714 72.7272C61.209 72.8687 61.1036 72.9868 60.9702 73.0648L53.1962 77.559C53.0356 77.6515 52.8459 77.6798 52.6653 77.6381C52.4848 77.5965 52.3266 77.488 52.2228 77.3345C52.1189 77.181 52.077 76.9939 52.1055 76.8108C52.1339 76.6277 52.2307 76.4622 52.3762 76.3475L56.9453 72.7699L45.959 79.1065C45.8474 79.1721 45.7203 79.2065 45.5908 79.2062Z" fill="#F26376"/>
<path d="M43.1576 44.028C43.0165 44.0278 42.8785 43.9869 42.7601 43.9102C42.6416 43.8335 42.5479 43.7243 42.4899 43.5956C42.432 43.467 42.4125 43.3243 42.4336 43.1848C42.4547 43.0453 42.5156 42.9149 42.6091 42.8091L44.5731 40.5943L41.0058 42.6478C40.8516 42.7345 40.6712 42.7626 40.4979 42.7267C40.3246 42.6909 40.1701 42.5936 40.0629 42.4528C39.9556 42.312 39.903 42.1372 39.9145 41.9606C39.9261 41.784 40.0011 41.6176 40.1258 41.4919L43.6123 38.0288L39.8163 40.229C39.661 40.3241 39.4758 40.358 39.2969 40.3241C39.118 40.2902 38.9581 40.1909 38.8483 40.0456C38.7386 39.9004 38.6867 39.7194 38.703 39.5381C38.7192 39.3567 38.8024 39.1879 38.9362 39.0644L43.2251 34.9574L39.7693 36.9419C39.6131 37.034 39.4283 37.065 39.2506 37.0287C39.0728 36.9925 38.9148 36.8918 38.8071 36.7459C38.6993 36.6 38.6494 36.4194 38.667 36.2389C38.6847 36.0584 38.7685 35.8908 38.9025 35.7685L42.8628 32.0825L39.7635 33.8719C39.603 33.9657 39.4129 33.9951 39.2317 33.9541C39.0504 33.9131 38.8914 33.8048 38.7869 33.6512C38.6824 33.4975 38.6402 33.3098 38.6687 33.1262C38.6972 32.9426 38.7944 32.7766 38.9406 32.6618L39.9674 31.8448L39.7635 31.9622C39.6049 32.054 39.4178 32.0832 39.2388 32.0439C39.0599 32.0047 38.9021 31.8999 38.7965 31.7502C38.6909 31.6005 38.6452 31.4167 38.6683 31.2349C38.6915 31.0532 38.7818 30.8867 38.9215 30.7682L41.44 28.6282L39.7635 29.5962C39.6085 29.6881 39.4251 29.7198 39.2483 29.6851C39.0715 29.6504 38.9136 29.5519 38.8048 29.4083C38.696 29.2647 38.6439 29.086 38.6584 28.9064C38.6729 28.7268 38.753 28.5589 38.8834 28.4345L42.3128 25.1064L39.7591 26.5732C39.6011 26.664 39.4149 26.6927 39.2369 26.6537C39.0589 26.6148 38.9017 26.5109 38.7961 26.3624C38.6905 26.214 38.6439 26.0315 38.6654 25.8505C38.687 25.6696 38.7752 25.5031 38.9127 25.3836L39.5596 24.8262C39.4067 24.8592 39.2473 24.8425 39.1046 24.7785C38.9619 24.7145 38.8435 24.6065 38.7665 24.4704C38.6895 24.3343 38.658 24.1771 38.6767 24.0218C38.6953 23.8666 38.7631 23.7213 38.8702 23.6073L39.9923 22.4045C39.8325 22.3455 39.699 22.2317 39.6153 22.0833C39.5179 21.915 39.4914 21.715 39.5414 21.5271C39.5915 21.3393 39.7141 21.179 39.8823 21.0815L42.8892 19.3463C43.0414 19.2591 43.2197 19.2294 43.392 19.2624C43.5642 19.2955 43.7188 19.3891 43.8279 19.5264C43.937 19.6637 43.9933 19.8356 43.9866 20.0108C43.9799 20.186 43.9106 20.353 43.7913 20.4816L43.2896 21.0184L45.3857 19.8098C45.5437 19.719 45.7298 19.6903 45.9079 19.7292C46.0859 19.7682 46.243 19.872 46.3487 20.0205C46.4543 20.169 46.5009 20.3515 46.4793 20.5325C46.4578 20.7134 46.3696 20.8799 46.232 20.9994L45.7348 21.4291L46.7087 20.8673C46.8637 20.7754 47.0471 20.7438 47.2239 20.7785C47.4007 20.8131 47.5586 20.9117 47.6674 21.0553C47.7762 21.1989 47.8283 21.3776 47.8138 21.5572C47.7993 21.7368 47.7192 21.9047 47.5888 22.029L44.1565 25.3587L47.7179 23.3052C47.8764 23.2133 48.0636 23.1842 48.2425 23.2234C48.4215 23.2626 48.5793 23.3674 48.6849 23.5171C48.7904 23.6668 48.8362 23.8507 48.813 24.0324C48.7899 24.2141 48.6996 24.3806 48.5598 24.4991L46.0472 26.645L47.7487 25.6623C47.9092 25.5685 48.0992 25.5392 48.2805 25.5801C48.4618 25.6211 48.6207 25.7294 48.7252 25.8831C48.8297 26.0368 48.872 26.2244 48.8435 26.408C48.8149 26.5917 48.7178 26.7577 48.5716 26.8724L47.5448 27.6894L47.7487 27.5721C47.9049 27.48 48.0898 27.4491 48.2675 27.4853C48.4452 27.5215 48.6032 27.6222 48.711 27.7681C48.8187 27.914 48.8686 28.0946 48.851 28.2751C48.8334 28.4556 48.7495 28.6232 48.6156 28.7455L44.6552 32.4301L47.7531 30.6421C47.9083 30.5536 48.0905 30.5248 48.2655 30.5611C48.4404 30.5975 48.5961 30.6964 48.7032 30.8394C48.8104 30.9824 48.8616 31.1596 48.8474 31.3377C48.8331 31.5158 48.7544 31.6826 48.6258 31.8067L44.3369 35.9137L47.7531 33.9409C47.9072 33.8553 48.0869 33.828 48.2594 33.8641C48.432 33.9001 48.5857 33.9971 48.6926 34.1373C48.7995 34.2775 48.8523 34.4514 48.8414 34.6273C48.8304 34.8033 48.7565 34.9694 48.6332 35.0953L45.1466 38.5642L47.7502 37.0608C47.901 36.9735 48.078 36.9429 48.2494 36.9743C48.4208 37.0057 48.5754 37.0971 48.6855 37.2321C48.7957 37.3671 48.8541 37.537 48.8505 37.7112C48.8468 37.8854 48.7812 38.0526 48.6654 38.1829L46.7029 40.3977L47.4289 39.9782C47.5973 39.8825 47.7967 39.8573 47.9836 39.908C48.1705 39.9587 48.3297 40.0813 48.4266 40.2491C48.5234 40.4168 48.55 40.616 48.5005 40.8032C48.451 40.9905 48.3294 41.1505 48.1623 41.2485L43.5243 43.9312C43.4125 43.9946 43.2862 44.0279 43.1576 44.028Z" fill="#F26376"/>
<path d="M4.99136 86.5548C29.5528 86.8071 54.2067 86.5827 78.7975 86.6428C86.9544 86.6326 87.1172 81.8156 87.1172 74.9085V10.3783C87.1172 7.67499 87.7831 3.6413 85.6372 1.53205C83.4487 -0.612404 79.2845 0.120994 76.5313 0.120994H12.3972C5.4314 0.120994 0.400291 0.162065 0.400291 8.48466V56.4621C1.87149 63.9163 -3.64073 84.4353 4.99136 86.5548ZM2.0431 5.27824C3.4967 0.566899 7.7812 1.56725 11.4071 1.56725H70.2373C78.6113 0.440755 86.4425 0.550766 86.1022 11.8803H1.90522C1.57915 9.68754 1.62576 7.45547 2.0431 5.27824ZM2.00497 13.2767C30.0471 13.2767 58.0908 13.2767 86.1359 13.2767C85.0256 32.4609 85.5932 49.1765 85.4744 68.0277C85.4744 74.3041 88.0868 85.1995 79.0542 85.1995H5.90664C0.602709 84.1229 2.0431 77.0573 2.0431 73.559C2.00643 53.4639 2.11644 33.3703 2.00497 13.2767Z" fill="#262626"/>
<path d="M7.13581 7.36992C7.89121 7.28338 9.30227 7.71902 9.43428 6.64826C9.04558 5.07439 4.14208 6.61159 7.13581 7.36992Z" fill="#262626"/>
<path d="M14.1883 7.39479H15.6551C16.5484 7.5532 17.2964 6.17002 16.1245 6.02774C15.1637 5.72558 12.28 6.45457 14.1883 7.39479Z" fill="#262626"/>
<path d="M21.6218 7.47717C22.7248 7.87614 25.2477 6.7115 23.3585 5.94437C22.2554 5.54687 19.7326 6.7115 21.6218 7.47717Z" fill="#262626"/>
<path d="M71.4809 7.57817C73.1237 7.12493 83.2152 8.95403 80.575 5.84442C78.9337 6.29766 68.8407 4.46857 71.4809 7.57817Z" fill="#262626"/>
<path d="M44.7138 79.3852C69.1329 78.3584 78.8373 48.2569 61.9193 31.861C56.9879 27.4254 50.1277 35.2875 54.93 39.7362C65.6684 50.5832 59.0238 69.8891 42.8275 68.8375C27.9674 67.8723 22.0811 50.0815 32.4205 39.6321C37.4384 35.195 30.8511 27.311 25.7921 31.9417C8.30057 48.867 18.9202 80.4633 44.7138 79.3852ZM26.549 33.0902C30.0986 30.2959 34.9977 35.198 31.5771 38.5657C20.4398 49.8234 26.2233 70.4715 43.4186 70.58C60.4715 70.6871 67.5209 49.9818 56.1137 38.4645C55.7551 38.16 55.4611 37.7868 55.2488 37.3669C55.0366 36.9471 54.9104 36.489 54.8778 36.0197C54.8452 35.5504 54.9067 35.0793 55.0588 34.6341C55.2108 34.1889 55.4504 33.7786 55.7633 33.4273C56.0762 33.076 56.4563 32.7908 56.881 32.5886C57.3058 32.3863 57.7667 32.271 58.2366 32.2494C58.7066 32.2278 59.1761 32.3005 59.6176 32.463C60.0591 32.6255 60.4636 32.8747 60.8074 33.1958C76.6151 48.6353 68.1839 76.811 44.9323 77.7409C21.0089 78.6987 9.92138 49.3305 26.549 33.0902Z" fill="#262626"/>
<path d="M43.3525 44.1045C49.9238 44.3802 49.0056 36.6502 48.9674 32.3701C48.9674 28.2132 50.5677 19.1689 43.9803 19.1689C37.6144 19.8305 38.5151 26.1656 38.5532 30.9268C38.5503 35.5824 36.9617 43.2464 43.3525 44.1045ZM43.6122 20.6665C48.5626 20.7428 47.351 28.332 47.351 31.3741C47.351 33.7606 48.6961 42.5541 44.0258 42.6215C38.9478 41.8177 40.1667 35.597 40.1667 31.9139C40.1667 28.8689 38.76 21.4659 43.6122 20.6665Z" fill="#262626"/>
</svg>
