<svg width="78" height="39" viewBox="0 0 78 39" fill="none" xmlns="http://www.w3.org/2000/svg">
<path d="M28.3673 14.1688H24.5471V17.987H28.3673V14.1688Z" fill="white"/>
<path d="M33.3348 14.1688H29.5166V17.987H33.3348V14.1688Z" fill="white"/>
<path d="M33.3348 18.9111H29.5166V22.7293H33.3348V18.9111Z" fill="white"/>
<path d="M28.3673 18.9111H24.5471V22.7293H28.3673V18.9111Z" fill="white"/>
<path d="M70.4698 6.3016L71.4595 7.42603L54.3359 22.1824C46.9894 15.8521 30.7025 1.8202 28.9454 0.303955C26.7537 2.18753 9.09544 17.4031 0 25.2394H7.09963L28.9434 6.41996C30.2698 7.5648 49.6403 24.2537 50.7851 25.2394H57.8847L74.5185 10.9075L75.5389 12.0686C76.7899 8.36884 76.7531 8.47904 78 4.79556C73.6676 5.66286 73.4921 5.69755 70.4698 6.3016Z" fill="white"/>
<path d="M41.7771 9.77296L45.3279 12.832L53.0704 6.1609L54.0458 7.27105C55.5539 2.81414 54.9968 4.45691 56.5069 0C54.1662 0.467322 51.3154 1.03668 48.9767 1.504L50.0093 2.67945L41.7771 9.77296Z" fill="white"/>
<path d="M48.5308 15.5909L52.0816 18.65L64.3483 8.08112L65.3462 9.21575C66.8522 4.75884 66.2972 6.40161 67.8073 1.9447C65.4686 2.41202 62.6178 2.98138 60.2771 3.4487L61.2872 4.59762L48.5308 15.5909Z" fill="white"/>
<path d="M54.7446 34.0618C54.7446 33.2096 54.916 32.4651 55.2589 31.8284C55.6115 31.1917 56.0964 30.7019 56.7135 30.3591C57.3404 30.0163 58.0555 29.8448 58.8587 29.8448C59.8872 29.8448 60.7443 30.1142 61.43 30.653C62.1255 31.1917 62.581 31.9509 62.7965 32.9304H60.1223C59.897 32.3035 59.4611 31.99 58.8146 31.99C58.3542 31.99 57.9869 32.1713 57.7126 32.5337C57.4384 32.8863 57.3012 33.3957 57.3012 34.0618C57.3012 34.7279 57.4384 35.2421 57.7126 35.6045C57.9869 35.9572 58.3542 36.1335 58.8146 36.1335C59.4611 36.1335 59.897 35.82 60.1223 35.1931H62.7965C62.581 36.1531 62.1255 36.9073 61.43 37.4559C60.7345 38.0044 59.8774 38.2787 58.8587 38.2787C58.0555 38.2787 57.3404 38.1073 56.7135 37.7644C56.0964 37.4216 55.6115 36.9318 55.2589 36.2951C54.916 35.6584 54.7446 34.914 54.7446 34.0618Z" fill="white"/>
<path d="M67.8725 38.2787C67.0692 38.2787 66.3444 38.1073 65.6979 37.7644C65.0612 37.4216 64.5567 36.9318 64.1845 36.2951C63.8221 35.6584 63.6408 34.914 63.6408 34.0618C63.6408 33.2194 63.827 32.4798 64.1992 31.8431C64.5714 31.1966 65.0808 30.7019 65.7273 30.3591C66.3738 30.0163 67.0986 29.8448 67.9018 29.8448C68.7051 29.8448 69.4299 30.0163 70.0764 30.3591C70.7229 30.7019 71.2323 31.1966 71.6045 31.8431C71.9767 32.4798 72.1628 33.2194 72.1628 34.0618C72.1628 34.9042 71.9718 35.6486 71.5898 36.2951C71.2176 36.9318 70.7033 37.4216 70.047 37.7644C69.4005 38.1073 68.6757 38.2787 67.8725 38.2787ZM67.8725 36.1041C68.3524 36.1041 68.7589 35.9278 69.092 35.5752C69.4348 35.2225 69.6062 34.7181 69.6062 34.0618C69.6062 33.4055 69.4397 32.901 69.1067 32.5484C68.7834 32.1957 68.3818 32.0194 67.9018 32.0194C67.4121 32.0194 67.0056 32.1957 66.6823 32.5484C66.3591 32.8912 66.1974 33.3957 66.1974 34.0618C66.1974 34.7181 66.3542 35.2225 66.6676 35.5752C66.9909 35.9278 67.3925 36.1041 67.8725 36.1041Z" fill="white"/>
<path d="M16.1697 27.6423V37.9569H13.6572V33.7106H9.74885V37.9569H7.23633V27.6423H9.74885V31.6829H13.6572V27.6423H16.1697Z" fill="white"/>
<path d="M21.7156 38.0744C20.9124 38.0744 20.1875 37.903 19.541 37.5602C18.9043 37.2173 18.3998 36.7276 18.0276 36.0909C17.6652 35.4542 17.484 34.7097 17.484 33.8575C17.484 33.0151 17.6701 32.2756 18.0423 31.6389C18.4145 30.9924 18.9239 30.4977 19.5704 30.1549C20.2169 29.812 20.9417 29.6406 21.745 29.6406C22.5482 29.6406 23.2731 29.812 23.9195 30.1549C24.566 30.4977 25.0754 30.9924 25.4476 31.6389C25.8199 32.2756 26.006 33.0151 26.006 33.8575C26.006 34.6999 25.815 35.4444 25.4329 36.0909C25.0607 36.7276 24.5465 37.2173 23.8902 37.5602C23.2437 37.903 22.5188 38.0744 21.7156 38.0744ZM21.7156 35.8999C22.1956 35.8999 22.6021 35.7235 22.9351 35.3709C23.278 35.0183 23.4494 34.5138 23.4494 33.8575C23.4494 33.2012 23.2828 32.6968 22.9498 32.3441C22.6266 31.9915 22.2249 31.8152 21.745 31.8152C21.2552 31.8152 20.8487 31.9915 20.5254 32.3441C20.2022 32.687 20.0406 33.1914 20.0406 33.8575C20.0406 34.5138 20.1973 35.0183 20.5107 35.3709C20.834 35.7235 21.2356 35.8999 21.7156 35.8999Z" fill="white"/>
<path d="M37.8004 29.67C38.8191 29.67 39.6272 29.9785 40.2248 30.5956C40.8321 31.2128 41.1357 32.0699 41.1357 33.1669V37.9569H38.6379V33.5049C38.6379 32.9759 38.4959 32.5694 38.2118 32.2854C37.9375 31.9915 37.5555 31.8446 37.0657 31.8446C36.576 31.8446 36.1891 31.9915 35.905 32.2854C35.6307 32.5694 35.4936 32.9759 35.4936 33.5049V37.9569H32.9958V33.5049C32.9958 32.9759 32.8537 32.5694 32.5697 32.2854C32.2954 31.9915 31.9134 31.8446 31.4236 31.8446C30.9338 31.8446 30.5469 31.9915 30.2628 32.2854C29.9886 32.5694 29.8514 32.9759 29.8514 33.5049V37.9569H27.3389V29.7581H29.8514V30.7867C30.1061 30.4438 30.4392 30.1744 30.8506 29.9785C31.262 29.7728 31.7273 29.67 32.2464 29.67C32.8635 29.67 33.4121 29.8022 33.892 30.0667C34.3818 30.3312 34.7638 30.7083 35.0381 31.1981C35.3222 30.7475 35.7091 30.3802 36.1989 30.0961C36.6886 29.812 37.2225 29.67 37.8004 29.67Z" fill="white"/>
<path d="M50.6215 33.7253C50.6215 33.9604 50.6068 34.2053 50.5774 34.4599H44.8912C44.9304 34.9693 45.092 35.3611 45.3761 35.6354C45.6699 35.8999 46.0275 36.0321 46.4487 36.0321C47.0756 36.0321 47.5115 35.7676 47.7564 35.2387H50.4305C50.2934 35.7774 50.0436 36.2623 49.6812 36.6933C49.3285 37.1243 48.8828 37.4622 48.3441 37.7071C47.8053 37.952 47.2029 38.0744 46.5368 38.0744C45.7336 38.0744 45.0185 37.903 44.3916 37.5602C43.7647 37.2173 43.275 36.7276 42.9223 36.0909C42.5697 35.4542 42.3934 34.7097 42.3934 33.8575C42.3934 33.0053 42.5648 32.2609 42.9076 31.6242C43.2603 30.9875 43.75 30.4977 44.3769 30.1549C45.0038 29.812 45.7238 29.6406 46.5368 29.6406C47.3303 29.6406 48.0355 29.8071 48.6526 30.1402C49.2697 30.4732 49.7497 30.9483 50.0926 31.5654C50.4452 32.1825 50.6215 32.9025 50.6215 33.7253ZM48.0502 33.0641C48.0502 32.6331 47.9033 32.2903 47.6094 32.0356C47.3156 31.7809 46.9482 31.6536 46.5074 31.6536C46.0862 31.6536 45.7287 31.776 45.4348 32.0209C45.1508 32.2658 44.9745 32.6135 44.9059 33.0641H48.0502Z" fill="white"/>
</svg>
