<svg width="148" height="73" viewBox="0 0 148 73" fill="none" xmlns="http://www.w3.org/2000/svg">
<path d="M53.7521 26.8477H46.5133V34.0825H53.7521V26.8477Z" fill="#7166F0"/>
<path d="M63.1646 26.8477H55.9297V34.0825H63.1646V26.8477Z" fill="#7166F0"/>
<path d="M63.1646 35.834H55.9297V43.0689H63.1646V35.834Z" fill="#7166F0"/>
<path d="M53.7521 35.834H46.5133V43.0689H53.7521V35.834Z" fill="#7166F0"/>
<path d="M133.53 11.9406L135.406 14.0712L102.959 42.0324C89.0381 30.0375 58.1768 3.449 54.8474 0.575928C50.6944 4.14503 17.2346 32.9763 0 47.825H13.4528L54.8436 12.1649C57.357 14.3342 94.0612 45.9573 96.2305 47.825H109.683L141.202 20.6681L143.135 22.8683C145.506 15.8577 145.436 16.0665 147.799 9.08687C139.589 10.7303 139.257 10.796 133.53 11.9406Z" fill="white"/>
<path d="M79.1619 18.5184L85.8902 24.3148L100.561 11.674L102.409 13.7776C105.267 5.33239 104.211 8.4452 107.073 0C102.638 0.885509 97.2355 1.96436 92.8041 2.84987L94.7607 5.07718L79.1619 18.5184Z" fill="#7166F0"/>
<path d="M91.9586 29.5425L98.6869 35.3389L121.931 15.3124L123.821 17.4624C126.675 9.0172 125.623 12.13 128.485 3.68481C124.053 4.57032 118.651 5.64918 114.216 6.53468L116.13 8.71172L91.9586 29.5425Z" fill="#7166F0"/>
<path d="M103.733 64.5422C103.733 62.9274 104.058 61.5168 104.708 60.3103C105.376 59.1039 106.295 58.1758 107.464 57.5262C108.652 56.8766 110.007 56.5518 111.529 56.5518C113.478 56.5518 115.102 57.0622 116.401 58.083C117.719 59.1039 118.582 60.5424 118.99 62.3984H113.923C113.496 61.2105 112.67 60.6166 111.445 60.6166C110.573 60.6166 109.877 60.96 109.357 61.6467C108.838 62.3149 108.578 63.2801 108.578 64.5422C108.578 65.8044 108.838 66.7788 109.357 67.4656C109.877 68.1338 110.573 68.4678 111.445 68.4678C112.67 68.4678 113.496 67.8739 113.923 66.686H118.99C118.582 68.505 117.719 69.9342 116.401 70.9736C115.083 72.013 113.459 72.5327 111.529 72.5327C110.007 72.5327 108.652 72.2079 107.464 71.5582C106.295 70.9086 105.376 69.9806 104.708 68.7741C104.058 67.5676 103.733 66.157 103.733 64.5422Z" fill="#7166F0"/>
<path d="M128.609 72.5327C127.087 72.5327 125.713 72.2079 124.488 71.5582C123.282 70.9086 122.326 69.9806 121.621 68.7741C120.934 67.5676 120.59 66.157 120.59 64.5422C120.59 62.946 120.943 61.5446 121.648 60.3382C122.354 59.1132 123.319 58.1758 124.544 57.5262C125.769 56.8766 127.142 56.5518 128.664 56.5518C130.186 56.5518 131.56 56.8766 132.785 57.5262C134.01 58.1758 134.975 59.1132 135.68 60.3382C136.386 61.5446 136.738 62.946 136.738 64.5422C136.738 66.1385 136.376 67.5491 135.653 68.7741C134.947 69.9806 133.973 70.9086 132.729 71.5582C131.504 72.2079 130.131 72.5327 128.609 72.5327ZM128.609 68.4122C129.518 68.4122 130.289 68.0781 130.92 67.4099C131.569 66.7417 131.894 65.7858 131.894 64.5422C131.894 63.2986 131.579 62.3428 130.947 61.6746C130.335 61.0064 129.574 60.6723 128.664 60.6723C127.736 60.6723 126.966 61.0064 126.354 61.6746C125.741 62.3242 125.435 63.2801 125.435 64.5422C125.435 65.7858 125.732 66.7417 126.326 67.4099C126.938 68.0781 127.699 68.4122 128.609 68.4122Z" fill="#7166F0"/>
<path d="M30.6393 52.3784V71.923H25.8785V63.8769H18.4727V71.923H13.7118V52.3784H18.4727V60.0348H25.8785V52.3784H30.6393Z" fill="white"/>
<path d="M41.1479 72.1458C39.6259 72.1458 38.2524 71.8209 37.0274 71.1713C35.8209 70.5217 34.865 69.5936 34.1597 68.3872C33.473 67.1807 33.1296 65.7701 33.1296 64.1553C33.1296 62.5591 33.4823 61.1577 34.1876 59.9513C34.8929 58.7262 35.8581 57.7889 37.0831 57.1393C38.3081 56.4897 39.6816 56.1648 41.2036 56.1648C42.7256 56.1648 44.0991 56.4897 45.3241 57.1393C46.5491 57.7889 47.5143 58.7262 48.2196 59.9513C48.9249 61.1577 49.2776 62.5591 49.2776 64.1553C49.2776 65.7515 48.9156 67.1622 48.1918 68.3872C47.4865 69.5936 46.512 70.5217 45.2684 71.1713C44.0434 71.8209 42.6699 72.1458 41.1479 72.1458ZM41.1479 68.0252C42.0574 68.0252 42.8277 67.6912 43.4587 67.023C44.1084 66.3548 44.4332 65.3989 44.4332 64.1553C44.4332 62.9117 44.1177 61.9558 43.4866 61.2876C42.8741 60.6195 42.1131 60.2854 41.2036 60.2854C40.2755 60.2854 39.5053 60.6195 38.8928 61.2876C38.2802 61.9373 37.974 62.8932 37.974 64.1553C37.974 65.3989 38.271 66.3548 38.8649 67.023C39.4774 67.6912 40.2384 68.0252 41.1479 68.0252Z" fill="white"/>
<path d="M71.6263 56.2205C73.5567 56.2205 75.0879 56.8052 76.2202 57.9745C77.3709 59.1439 77.9463 60.7679 77.9463 62.8468V71.923H73.2133V63.4871C73.2133 62.4848 72.9442 61.7145 72.4059 61.1763C71.8862 60.6195 71.1623 60.341 70.2343 60.341C69.3062 60.341 68.5731 60.6195 68.0348 61.1763C67.5151 61.7145 67.2552 62.4848 67.2552 63.4871V71.923H62.5222V63.4871C62.5222 62.4848 62.2531 61.7145 61.7148 61.1763C61.1951 60.6195 60.4712 60.341 59.5432 60.341C58.6152 60.341 57.882 60.6195 57.3437 61.1763C56.824 61.7145 56.5642 62.4848 56.5642 63.4871V71.923H51.8033V56.3876H56.5642V58.3365C57.0468 57.6868 57.6778 57.1764 58.4574 56.8052C59.2369 56.4154 60.1186 56.2205 61.1023 56.2205C62.2717 56.2205 63.3111 56.4711 64.2205 56.9722C65.1486 57.4734 65.8725 58.188 66.3922 59.116C66.9304 58.2622 67.6636 57.5662 68.5916 57.0279C69.5197 56.4897 70.5312 56.2205 71.6263 56.2205Z" fill="white"/>
<path d="M95.9205 63.9047C95.9205 64.3502 95.8927 64.8142 95.837 65.2968H85.0624C85.1366 66.262 85.4429 67.0044 85.9812 67.5241C86.538 68.0252 87.2155 68.2758 88.0136 68.2758C89.2015 68.2758 90.0274 67.7747 90.4915 66.7724H95.5586C95.2987 67.7932 94.8254 68.712 94.1387 69.5287C93.4705 70.3454 92.626 70.9857 91.6051 71.4497C90.5843 71.9138 89.4428 72.1458 88.1806 72.1458C86.6586 72.1458 85.3037 71.8209 84.1158 71.1713C82.9279 70.5217 81.9998 69.5936 81.3316 68.3872C80.6635 67.1807 80.3294 65.7701 80.3294 64.1553C80.3294 62.5405 80.6542 61.1299 81.3038 59.9234C81.972 58.717 82.9 57.7889 84.0879 57.1393C85.2758 56.4897 86.6401 56.1648 88.1806 56.1648C89.6841 56.1648 91.0204 56.4804 92.1898 57.1114C93.3591 57.7425 94.2686 58.6427 94.9182 59.8121C95.5864 60.9814 95.9205 62.3456 95.9205 63.9047ZM91.0483 62.6519C91.0483 61.8352 90.7699 61.1856 90.213 60.703C89.6562 60.2204 88.9602 59.9791 88.1249 59.9791C87.3268 59.9791 86.6493 60.2111 86.0925 60.6751C85.5543 61.1392 85.2202 61.7981 85.0902 62.6519H91.0483Z" fill="white"/>
</svg>
