<svg width="18" height="18" viewBox="0 0 18 18" fill="none" xmlns="http://www.w3.org/2000/svg">
<path d="M3.98336 13.787C2.52771 12.3573 1.63766 10.5045 1.43101 8.50598C0.657357 9.48396 0.237872 10.6835 0.239806 11.9423C0.241107 12.7611 0.425396 13.575 0.774604 14.311L0.0545319 16.4066C-0.0692535 16.7668 0.0211686 17.158 0.290536 17.4274C0.480099 17.617 0.730026 17.7179 0.987053 17.7179C1.09519 17.7179 1.2046 17.7001 1.3113 17.6634L3.40693 16.9433C4.14293 17.2925 4.95683 17.4768 5.77563 17.4781C7.05915 17.4798 8.28072 17.0443 9.26879 16.2417C7.28204 16.062 5.4287 15.2066 3.98336 13.787Z" fill="#111111"/>
<path d="M17.9353 13.9863L16.8898 10.9438C17.3938 9.91363 17.6601 8.76795 17.6619 7.61521C17.6649 5.61084 16.8895 3.71567 15.4782 2.27883C14.0667 0.841679 12.1858 0.0327317 10.1819 0.000985525C8.10394 -0.0318856 6.1508 0.758499 4.68242 2.22684C3.21405 3.69521 2.42353 5.64832 2.45643 7.72634C2.48818 9.73022 3.29712 11.6112 4.73421 13.0227C6.16824 14.4312 8.05859 15.2065 10.0587 15.2064C10.0626 15.2064 10.0668 15.2064 10.0706 15.2064C11.2234 15.2046 12.3691 14.9383 13.3992 14.4344L16.4418 15.4799C16.5686 15.5234 16.6986 15.5447 16.8271 15.5447C17.1325 15.5447 17.4295 15.4247 17.6548 15.1993C17.9749 14.8792 18.0824 14.4144 17.9353 13.9863ZM10.7932 10.2416H6.86718C6.5713 10.2416 6.33147 10.0018 6.33147 9.70592C6.33147 9.41005 6.57134 9.17021 6.86718 9.17021H10.7932C11.089 9.17021 11.3289 9.41008 11.3289 9.70592C11.3289 10.0018 11.0891 10.2416 10.7932 10.2416ZM13.2502 8.03842H6.86721C6.57134 8.03842 6.3315 7.79855 6.3315 7.50271C6.3315 7.20687 6.57137 6.967 6.86721 6.967H13.2502C13.5461 6.967 13.7859 7.20687 13.7859 7.50271C13.7859 7.79855 13.5461 8.03842 13.2502 8.03842ZM13.2502 5.83514H6.86721C6.57134 5.83514 6.3315 5.59527 6.3315 5.29943C6.3315 5.00355 6.57137 4.76372 6.86721 4.76372H13.2502C13.5461 4.76372 13.7859 5.00359 13.7859 5.29943C13.7859 5.59527 13.5461 5.83514 13.2502 5.83514Z" fill="#111111"/>
</svg>
