<svg width="21" height="22" viewBox="0 0 21 22" fill="none" xmlns="http://www.w3.org/2000/svg">
<path fill-rule="evenodd" clip-rule="evenodd" d="M7.0875 3.9375C7.0875 2.63273 8.14523 1.575 9.45 1.575H11.55C12.8548 1.575 13.9125 2.63273 13.9125 3.9375V4.9875H7.0875V3.9375ZM5.5125 4.9875V3.9375C5.5125 1.76288 7.27538 0 9.45 0H11.55C13.7246 0 15.4875 1.76288 15.4875 3.9375V4.9875H17C19.2091 4.9875 21 6.77836 21 8.9875V17.7875C21 19.9966 19.2091 21.7875 17 21.7875H4C1.79086 21.7875 0 19.9966 0 17.7875V8.9875C0 6.77836 1.79086 4.9875 4 4.9875H5.5125ZM4.4625 9.18745C4.4625 8.75253 4.81508 8.39995 5.25 8.39995H15.75C16.1849 8.39995 16.5375 8.75253 16.5375 9.18745C16.5375 9.62238 16.1849 9.97495 15.75 9.97495H5.25C4.81508 9.97495 4.4625 9.62238 4.4625 9.18745ZM5.25 12.6C4.81508 12.6 4.4625 12.9525 4.4625 13.3875C4.4625 13.8224 4.81508 14.175 5.25 14.175H15.75C16.1849 14.175 16.5375 13.8224 16.5375 13.3875C16.5375 12.9525 16.1849 12.6 15.75 12.6H5.25ZM4.4625 17.5875C4.4625 17.1525 4.81508 16.8 5.25 16.8H15.75C16.1849 16.8 16.5375 17.1525 16.5375 17.5875C16.5375 18.0224 16.1849 18.375 15.75 18.375H5.25C4.81508 18.375 4.4625 18.0224 4.4625 17.5875Z" fill="#7166F0"/>
</svg>
