<svg width="110" height="28" viewBox="0 0 110 28" fill="none" xmlns="http://www.w3.org/2000/svg">
<path d="M41.4112 6.59326H35.412C35.2133 6.59314 35.0212 6.66397 34.8702 6.79301C34.7192 6.92204 34.6192 7.10079 34.5882 7.29704L32.1619 22.6863C32.1507 22.7577 32.1552 22.8306 32.1749 22.9002C32.1947 22.9697 32.2292 23.0341 32.2763 23.089C32.3233 23.1439 32.3816 23.1879 32.4473 23.2181C32.513 23.2482 32.5844 23.2638 32.6566 23.2637H35.5207C35.7195 23.2638 35.9117 23.1928 36.0627 23.0636C36.2138 22.9344 36.3137 22.7554 36.3444 22.559L36.9988 18.4083C37.0296 18.212 37.1293 18.0332 37.2802 17.904C37.4311 17.7748 37.6231 17.7038 37.8217 17.7036H39.7208C43.6727 17.7036 45.9534 15.7906 46.549 11.9997C46.8175 10.3412 46.5604 9.03806 45.7841 8.12543C44.9315 7.12329 43.4191 6.59326 41.4112 6.59326ZM42.1033 12.2138C41.7752 14.3673 40.1305 14.3673 38.5401 14.3673H37.6348L38.2699 10.3456C38.2885 10.2279 38.3485 10.1208 38.439 10.0434C38.5295 9.966 38.6447 9.92348 38.7638 9.92348H39.1787C40.2621 9.92348 41.284 9.92348 41.8121 10.5413C42.127 10.9098 42.2235 11.4574 42.1033 12.2138ZM59.3441 12.1445H56.4712C56.3521 12.1445 56.2369 12.187 56.1464 12.2644C56.0559 12.3418 55.9959 12.4489 55.9773 12.5666L55.8501 13.3704L55.6492 13.0791C55.0273 12.1761 53.6404 11.8742 52.2562 11.8742C49.0816 11.8742 46.3701 14.2795 45.842 17.6536C45.5674 19.3367 45.9578 20.9461 46.9122 22.0685C47.7877 23.1004 49.0403 23.5304 50.5307 23.5304C53.0887 23.5304 54.5071 21.8851 54.5071 21.8851L54.379 22.6836C54.3676 22.755 54.3718 22.828 54.3913 22.8977C54.4109 22.9673 54.4452 23.0318 54.4921 23.0869C54.5389 23.1419 54.5972 23.1862 54.6628 23.2165C54.7284 23.2469 54.7998 23.2627 54.872 23.2628H57.4598C57.6585 23.2629 57.8508 23.1919 58.0018 23.0627C58.1528 22.9335 58.2528 22.7545 58.2835 22.5581L59.8362 12.7219C59.8476 12.6507 59.8434 12.5778 59.824 12.5083C59.8045 12.4389 59.7702 12.3745 59.7234 12.3196C59.6766 12.2647 59.6184 12.2206 59.5529 12.1903C59.4874 12.1601 59.4162 12.1445 59.3441 12.1445ZM55.3396 17.7379C55.0624 19.3797 53.7597 20.4819 52.0983 20.4819C51.2641 20.4819 50.5974 20.2143 50.1693 19.707C49.7447 19.2033 49.5833 18.4864 49.7184 17.6879C49.9772 16.06 51.3018 14.9219 52.9378 14.9219C53.7536 14.9219 54.4168 15.193 54.8536 15.7046C55.2913 16.2215 55.465 16.9428 55.3396 17.7379ZM74.6444 12.1445H71.7575C71.6213 12.1447 71.4873 12.1782 71.367 12.2419C71.2467 12.3057 71.1438 12.3979 71.0671 12.5104L67.0854 18.3776L65.3977 12.7395C65.3459 12.5675 65.2401 12.4168 65.096 12.3096C64.952 12.2025 64.7772 12.1446 64.5977 12.1445H61.7608C61.6811 12.1443 61.6026 12.1631 61.5317 12.1994C61.4608 12.2357 61.3996 12.2884 61.3532 12.3531C61.3068 12.4178 61.2765 12.4927 61.2648 12.5715C61.2532 12.6503 61.2605 12.7308 61.2862 12.8062L64.4661 22.1413L61.4766 26.3631C61.4234 26.4379 61.3919 26.526 61.3855 26.6176C61.379 26.7091 61.3979 26.8007 61.44 26.8823C61.4822 26.9638 61.5459 27.0322 61.6243 27.08C61.7027 27.1277 61.7927 27.1529 61.8845 27.1529H64.7679C64.9025 27.1531 65.0351 27.1206 65.1545 27.0582C65.2738 26.9959 65.3762 26.9055 65.453 26.7948L75.0549 12.9299C75.107 12.8549 75.1375 12.767 75.1432 12.6759C75.1489 12.5848 75.1295 12.4938 75.0872 12.4129C75.045 12.332 74.9813 12.2642 74.9033 12.2169C74.8252 12.1696 74.7357 12.1445 74.6444 12.1445Z" fill="#253B80"/>
<path d="M84.2281 6.59414H78.2189C78.0201 6.59422 77.8279 6.66506 77.6769 6.79389C77.5258 6.92273 77.4258 7.10112 77.3948 7.29696L74.9648 22.6652C74.9535 22.7364 74.9578 22.8092 74.9774 22.8785C74.997 22.9479 75.0315 23.0122 75.0784 23.067C75.1253 23.1218 75.1836 23.1658 75.2492 23.196C75.3149 23.2262 75.3863 23.2418 75.4585 23.2418H78.5422C78.6813 23.2416 78.8158 23.1919 78.9215 23.1016C79.0271 23.0113 79.097 22.8864 79.1185 22.7493L79.8082 18.3931C79.839 18.1971 79.9389 18.0185 80.09 17.8895C80.2411 17.7604 80.4334 17.6895 80.6323 17.6894H82.5334C86.4922 17.6894 88.7755 15.779 89.3729 11.9932C89.6426 10.337 89.3834 9.0356 88.6059 8.12421C87.7529 7.12344 86.2391 6.59414 84.2281 6.59414ZM84.9213 12.207C84.5936 14.3576 82.9464 14.3576 81.3527 14.3576H80.4469L81.0838 10.3413C81.1021 10.2238 81.1619 10.1167 81.2525 10.0394C81.3431 9.96209 81.4584 9.91967 81.5776 9.91982H81.9931C83.0773 9.91982 84.1016 9.91982 84.6305 10.5368C84.9459 10.9048 85.0417 11.4516 84.9213 12.207ZM102.187 12.1378H99.3119C99.1926 12.1375 99.0772 12.1798 98.9866 12.2572C98.896 12.3345 98.8362 12.4417 98.8181 12.5593L98.6907 13.362L98.4887 13.0711C97.8658 12.1694 96.4777 11.8679 95.0914 11.8679C91.9119 11.8679 89.1972 14.2699 88.6683 17.6394C88.3942 19.3202 88.7834 20.9274 89.7393 22.0483C90.6178 23.0788 91.8706 23.5082 93.3633 23.5082C95.9251 23.5082 97.3457 21.8651 97.3457 21.8651L97.2174 22.6626C97.206 22.734 97.2102 22.8071 97.2299 22.8767C97.2495 22.9464 97.2841 23.0109 97.3312 23.0659C97.3783 23.1209 97.4369 23.1651 97.5028 23.1953C97.5687 23.2255 97.6404 23.2411 97.7129 23.2409H100.304C100.503 23.2408 100.695 23.1699 100.846 23.0408C100.997 22.9118 101.097 22.7332 101.128 22.5372L102.684 12.7144C102.695 12.6431 102.69 12.5702 102.67 12.5007C102.65 12.4313 102.616 12.367 102.569 12.3122C102.521 12.2574 102.463 12.2135 102.397 12.1834C102.331 12.1533 102.26 12.1377 102.187 12.1378ZM98.1768 17.7236C97.9009 19.3632 96.5945 20.4638 94.9306 20.4638C94.0968 20.4638 93.4274 20.1966 92.9987 19.69C92.5734 19.187 92.4135 18.4711 92.5471 17.6736C92.808 16.048 94.1329 14.9114 95.7713 14.9114C96.5884 14.9114 97.2526 15.1822 97.6901 15.6931C98.1302 16.2092 98.3042 16.9296 98.1768 17.7236ZM105.579 7.01565L103.113 22.6652C103.102 22.7364 103.106 22.8092 103.126 22.8785C103.146 22.9479 103.18 23.0122 103.227 23.067C103.274 23.1218 103.332 23.1658 103.398 23.196C103.463 23.2262 103.535 23.2418 103.607 23.2418H106.086C106.498 23.2418 106.848 22.9439 106.911 22.5381L109.343 7.17076C109.354 7.09953 109.35 7.0267 109.33 6.95729C109.311 6.88787 109.276 6.82352 109.229 6.76864C109.183 6.71377 109.124 6.66968 109.059 6.63941C108.993 6.60913 108.922 6.59339 108.849 6.59326H106.073C105.954 6.59368 105.839 6.63642 105.748 6.71382C105.658 6.79122 105.598 6.89822 105.579 7.01565Z" fill="#179BD7"/>
<path d="M7.22249 26.2167L7.68025 23.3031L6.66057 23.2794H1.7915L5.17526 1.78022C5.18533 1.71453 5.21863 1.65466 5.26907 1.61151C5.31952 1.56836 5.38376 1.54482 5.45009 1.54517H13.66C16.3856 1.54517 18.2665 2.1135 19.2485 3.23525C19.7089 3.76149 20.0021 4.3114 20.1439 4.91657C20.2927 5.55155 20.2954 6.3102 20.1501 7.2355L20.1396 7.30303V7.89592L20.5999 8.15728C20.9514 8.33571 21.2673 8.57707 21.5321 8.86945C21.926 9.31938 22.1807 9.89122 22.2883 10.5692C22.3995 11.2664 22.3627 12.0961 22.1807 13.0355C21.9706 14.116 21.631 15.0571 21.1724 15.8271C20.7677 16.517 20.2236 17.1144 19.575 17.5812C18.9658 18.0145 18.242 18.3434 17.4236 18.5539C16.6306 18.7609 15.7265 18.8652 14.7348 18.8652H14.0959C13.639 18.8652 13.1953 19.0301 12.8469 19.3257C12.499 19.6244 12.2683 20.0371 12.1957 20.4904L12.1476 20.7527L11.3388 25.8878L11.3021 26.0764C11.2924 26.136 11.2758 26.1658 11.2513 26.186C11.2276 26.2055 11.1979 26.2163 11.1673 26.2167H7.22249Z" fill="#253B80"/>
<path d="M21.055 7.33606C21.0305 7.4936 21.0024 7.65467 20.9708 7.82014C19.8856 13.4099 16.173 15.3409 11.4314 15.3409H9.01719C8.43732 15.3409 7.94869 15.7634 7.85833 16.3373L6.62226 24.2022L6.27223 26.4316C6.25829 26.52 6.26361 26.6105 6.28784 26.6966C6.31206 26.7828 6.35461 26.8627 6.41256 26.9308C6.4705 26.9989 6.54247 27.0535 6.6235 27.091C6.70452 27.1286 6.79269 27.148 6.88193 27.148H11.1639C11.6709 27.148 12.1017 26.7784 12.1815 26.2767L12.2236 26.0584L13.0298 20.9254L13.0816 20.6438C13.1605 20.1404 13.5921 19.7707 14.0992 19.7707H14.7396C18.8882 19.7707 22.1358 18.0808 23.085 13.1908C23.4815 11.148 23.2762 9.44224 22.227 8.24261C21.8945 7.8715 21.4973 7.56431 21.055 7.33606Z" fill="#179BD7"/>
<path d="M19.8942 6.88809C19.5482 6.78692 19.1963 6.70795 18.8404 6.65167C18.1373 6.54244 17.4267 6.49003 16.7154 6.49494H10.2754C10.0304 6.49475 9.7933 6.5832 9.6071 6.7443C9.4209 6.9054 9.29787 7.12852 9.26023 7.37332L7.89025 16.1447L7.85083 16.4006C7.89351 16.1214 8.03364 15.8668 8.24588 15.683C8.45812 15.4991 8.72845 15.3981 9.00795 15.3983H11.4186C16.153 15.3983 19.86 13.4547 20.9436 7.83199C20.976 7.66553 21.0031 7.50349 21.0277 7.34499C20.7417 7.19342 20.4438 7.06636 20.1368 6.96513C20.0564 6.93814 19.9755 6.91245 19.8942 6.88809Z" fill="#222D65"/>
<path d="M9.26082 7.39389C9.29809 7.15018 9.42089 6.92802 9.60691 6.76777C9.79294 6.60752 10.0299 6.51982 10.2746 6.52058H16.7055C17.4673 6.52058 18.1785 6.57081 18.8275 6.67656C19.2667 6.7461 19.6998 6.85011 20.123 6.98764C20.4422 7.09427 20.7388 7.22028 21.0125 7.36569C21.3344 5.29743 21.0099 3.88921 19.8999 2.61406C18.6762 1.21026 16.4675 0.609253 13.6414 0.609253H5.43659C4.85928 0.609253 4.36682 1.03225 4.2776 1.60769L0.860109 23.4315C0.84419 23.5328 0.850247 23.6364 0.877861 23.7352C0.905475 23.8339 0.953991 23.9254 1.02007 24.0035C1.08615 24.0815 1.16823 24.1442 1.26066 24.1873C1.35309 24.2303 1.45368 24.2527 1.5555 24.2528H6.62095L7.89277 16.1234L9.26082 7.39389Z" fill="#253B80"/>
</svg>
