<svg width="91" height="32" viewBox="0 0 91 32" fill="none" xmlns="http://www.w3.org/2000/svg">
<path d="M32.0374 9.4191C31.8289 10.6421 31.6424 11.7375 31.4559 12.8317C31.1467 14.6477 30.8316 16.4613 30.5374 18.2796C30.4957 18.5406 30.3798 18.5894 30.1586 18.5882C29.3095 18.5836 28.4616 18.5755 27.6126 18.5917C27.2975 18.5975 27.2662 18.4583 27.3126 18.203C27.9554 14.6511 28.5972 11.0993 29.2331 7.54745C29.3686 6.7909 29.4972 6.03319 29.6037 5.27316C29.6524 4.92505 29.7775 4.78001 30.1574 4.79277C31.0436 4.82178 31.932 4.82874 32.8181 4.79045C33.2444 4.77189 33.4182 4.93898 33.5699 5.31145C34.7016 8.08122 35.8565 10.8417 37.0032 13.6057C37.031 13.673 37.0322 13.76 37.1839 13.7635C37.4723 12.0798 37.7619 10.3892 38.0515 8.69736C38.2519 7.52425 38.4558 6.35113 38.648 5.17569C38.6932 4.89953 38.8125 4.78929 39.1056 4.79625C39.877 4.81482 40.6497 4.82874 41.4188 4.79277C41.8787 4.77189 41.9215 4.96335 41.8532 5.33698C41.4605 7.49176 41.0782 9.64885 40.6937 11.806C40.3161 13.9236 39.928 16.0389 39.5759 18.16C39.5168 18.5128 39.394 18.5998 39.0662 18.594C38.1407 18.5766 37.2152 18.5755 36.2897 18.5952C35.9711 18.6021 35.8287 18.4989 35.7036 18.1949C34.5684 15.4251 33.41 12.6646 32.2587 9.90181C32.2054 9.77997 32.1486 9.66394 32.0374 9.4191Z" fill="#4B5BA9"/>
<path d="M9.55393 11.4196C10.7991 11.7097 11.5891 12.4314 11.8266 13.6092C12.0918 14.9273 11.7745 16.1341 10.7725 17.0949C9.73116 18.0928 8.41992 18.4908 7.03802 18.543C4.99703 18.6208 2.95141 18.5674 0.9081 18.5929C0.520057 18.5975 0.507315 18.4119 0.557124 18.1346C1.32742 13.8076 2.09887 9.47949 2.86685 5.15253C2.89928 4.97267 2.92013 4.79746 3.15991 4.80558C5.35148 4.87984 7.55927 4.58279 9.73347 4.98312C11.2868 5.26972 12.2575 6.25022 12.3513 7.44075C12.4903 9.1952 11.6725 10.5447 10.1099 11.1458C9.93966 11.2096 9.74042 11.2165 9.55393 11.4196ZM4.05762 16.01C5.28082 15.9566 6.46001 16.155 7.58939 15.6851C8.33536 15.3752 8.75815 14.6767 8.64348 13.8946C8.54734 13.2448 7.93921 12.7749 7.11679 12.7505C6.46117 12.7308 5.79976 12.7993 5.15109 12.7273C4.66111 12.6728 4.5615 12.8956 4.50358 13.2773C4.36574 14.1673 4.214 15.055 4.05762 16.01ZM6.37198 10.3625C7.03802 10.3381 7.67627 10.4171 8.26818 10.1038C8.94117 9.74637 9.2574 9.1279 9.12071 8.38295C9.03152 7.90025 8.51954 7.53241 7.81063 7.45699C7.60097 7.43494 7.38784 7.43378 7.17818 7.44307C6.64419 7.46511 5.94571 7.21796 5.62138 7.53821C5.30978 7.84571 5.37233 8.5396 5.28198 9.06524C5.21132 9.47485 4.96691 10.0539 5.14414 10.2592C5.39434 10.547 5.97351 10.3161 6.37198 10.3625Z" fill="#4B5BA9"/>
<path d="M33.7169 30.6393C33.9393 30.5836 33.988 30.3979 34.076 30.2587C35.9363 27.3404 37.8024 24.4256 39.6418 21.4934C39.9025 21.078 40.1828 20.9086 40.6623 20.9561C41.0828 20.9979 41.5125 20.9921 41.933 20.9573C42.2979 20.9271 42.3906 21.1105 42.4462 21.4133C43.0103 24.4511 43.5709 27.4889 44.1605 30.5209C44.259 31.028 44.2219 31.2554 43.6288 31.1916C43.1331 31.1394 42.6257 31.1603 42.1265 31.1881C41.8276 31.2044 41.7083 31.0849 41.6712 30.8145C41.6423 30.6057 41.6041 30.3968 41.5624 30.1902C41.3469 29.1227 41.3469 29.1227 40.2847 29.1227C39.4947 29.1227 38.7036 29.1343 37.9136 29.1169C37.6147 29.11 37.3854 29.1575 37.2719 29.4662C37.2464 29.537 37.1873 29.595 37.1468 29.66C36.8352 30.1624 36.6707 30.8807 36.1796 31.1127C35.6884 31.3448 35.0085 31.1789 34.4119 31.18C33.4864 31.1835 32.5609 31.1731 31.6354 31.1858C31.3516 31.1893 31.2045 31.1209 31.0864 30.8238C30.6265 29.6646 30.0867 28.5356 29.6465 27.3706C29.4647 26.8879 29.1357 27.077 28.8461 27.0434C28.5091 27.0039 28.5021 27.2743 28.465 27.5017C28.2913 28.5634 28.1094 29.624 27.9484 30.688C27.894 31.0443 27.7712 31.2276 27.3635 31.1905C26.9048 31.1487 26.4368 31.158 25.9769 31.1881C25.6109 31.2125 25.5101 31.1081 25.5773 30.7391C25.9399 28.756 26.2827 26.7695 26.6314 24.7842C26.8202 23.7062 27.0206 22.6305 27.1874 21.5491C27.2523 21.1302 27.382 20.9306 27.8662 20.9515C29.021 21.0002 30.1782 20.9817 31.3354 20.9875C31.5879 20.9886 31.8288 21.0316 32.0744 21.0908C33.4598 21.4203 34.2521 22.1699 34.354 23.2769C34.5 24.8457 33.8594 26.035 32.4752 26.5502C31.9354 26.751 31.918 26.9343 32.1509 27.3892C32.6999 28.4602 33.1992 29.5555 33.7169 30.6393ZM29.8075 25.2982C30.6161 25.2982 31.0377 25.2239 31.3794 25.0232C32.0281 24.6426 32.1717 23.5681 31.5937 23.213C30.9311 22.8069 30.1527 22.8452 29.4554 22.9844C29.0291 23.0692 29.2261 23.7108 29.1021 24.0903C29.072 24.1808 29.0546 24.2759 29.0384 24.3711C28.8867 25.2982 28.8867 25.2982 29.8075 25.2982ZM40.6519 23.7921C40.6044 23.7932 40.5569 23.7944 40.5094 23.7955C39.8527 24.9095 39.1959 26.0234 38.4928 27.2174C39.3337 27.2174 40.0774 27.2197 40.8222 27.2163C40.9786 27.2151 41.1396 27.2081 41.1048 26.9691C40.9508 25.9097 40.8025 24.8503 40.6519 23.7921Z" fill="#4B5BA9"/>
<path d="M47.3125 10.4554C48.2427 9.70461 48.9713 8.7566 49.8064 7.91186C50.7273 6.98242 51.6123 6.017 52.5088 5.06203C52.6455 4.91699 52.7718 4.79863 52.993 4.79979C54.2406 4.80676 55.4869 4.80327 56.7252 4.80327C55.8263 5.73736 54.9587 6.67144 54.0564 7.56956C52.8691 8.7508 51.6621 9.91347 50.4447 11.0634C50.1713 11.3221 50.1945 11.4939 50.3926 11.7828C51.8185 13.8598 53.2259 15.9485 54.6379 18.0348C54.7421 18.1891 54.8429 18.3458 55.0016 18.586C53.6672 18.586 52.4243 18.5802 51.1814 18.5906C50.9231 18.5929 50.8686 18.4049 50.7737 18.2506C49.5736 16.3059 48.377 14.3576 47.1793 12.4117C47.1399 12.3479 47.0948 12.2887 46.9766 12.1158C46.8469 12.7761 46.7276 13.3342 46.6303 13.8958C46.3835 15.3126 46.1426 16.7306 45.9109 18.1497C45.86 18.4606 45.7499 18.6103 45.3943 18.5964C44.624 18.5662 43.8526 18.5744 43.0823 18.5929C42.7568 18.601 42.6352 18.5187 42.6977 18.1717C43.2155 15.3033 43.7217 12.4314 44.2325 9.56189C44.485 8.14509 44.7584 6.73178 44.9808 5.31035C45.0399 4.92975 45.143 4.77891 45.5449 4.79399C46.3152 4.823 47.0867 4.81372 47.857 4.79747C48.2068 4.79051 48.2566 4.89378 48.1975 5.24073C47.9021 6.97662 47.4898 8.69278 47.3114 10.4496C47.2871 10.4577 47.2627 10.4646 47.2407 10.4762C47.2384 10.4774 47.25 10.5053 47.2558 10.5215C47.272 10.4995 47.2917 10.4774 47.3125 10.4554Z" fill="#4B5BA9"/>
<path d="M11.4766 18.5868C12.4889 16.9937 13.433 15.5038 14.3805 14.0174C16.2593 11.0654 18.1428 8.11581 20.0158 5.15923C20.1768 4.90511 20.3436 4.78444 20.6587 4.79604C21.429 4.82157 22.2016 4.82273 22.9719 4.79604C23.3113 4.78444 23.4329 4.88655 23.4943 5.22305C23.8893 7.37318 24.3133 9.51868 24.7198 11.6665C25.131 13.8352 25.5237 16.0062 25.9523 18.1714C26.0241 18.5335 25.9407 18.6008 25.6094 18.595C24.7418 18.5799 23.8742 18.5799 23.0067 18.595C22.7055 18.5996 22.5665 18.5277 22.5271 18.1923C22.4483 17.5251 22.2931 16.8684 22.2016 16.2023C22.1669 15.9517 22.0649 15.8751 21.8344 15.8763C20.2533 15.8797 18.6722 15.8844 17.091 15.8716C16.8177 15.8693 16.7308 16.0387 16.6231 16.2186C16.2072 16.9101 15.7833 17.5982 15.379 18.2968C15.2724 18.4801 15.167 18.5938 14.9388 18.5926C13.821 18.5822 12.7044 18.5868 11.4766 18.5868ZM21.0861 8.38617C20.0969 10.0698 19.183 11.6259 18.2389 13.2341C19.293 13.2341 20.2556 13.197 21.2147 13.2492C21.7522 13.2782 21.7997 13.0717 21.7302 12.6354C21.5124 11.2755 21.3155 9.91436 21.0861 8.38617Z" fill="#4B5BA9"/>
<path d="M52.4857 27.6498C52.8563 25.4857 53.2212 23.4447 53.5455 21.3978C53.6011 21.0439 53.7181 20.9476 54.0494 20.9603C54.5695 20.9812 55.0908 20.9836 55.6109 20.9592C55.9317 20.9441 56.0151 21.0636 55.9618 21.3572C55.3954 24.4913 54.8244 27.6254 54.2799 30.7642C54.2185 31.1181 54.0934 31.2028 53.7656 31.1889C53.227 31.1645 52.6837 31.1506 52.1474 31.1923C51.6992 31.2272 51.4802 31.0879 51.3076 30.6516C50.5316 28.6895 49.7114 26.7447 48.9052 24.7942C48.8624 24.6909 48.7964 24.5969 48.6956 24.417C48.494 25.5878 48.3029 26.6821 48.1176 27.7774C47.9473 28.78 47.7782 29.7825 47.6172 30.7862C47.5708 31.074 47.462 31.2121 47.1353 31.1912C46.6361 31.1587 46.1322 31.1599 45.6329 31.19C45.2553 31.2132 45.165 31.0844 45.231 30.7294C45.4905 29.3335 45.736 27.9341 45.9828 26.5358C46.2723 24.8928 46.5758 23.2509 46.8365 21.602C46.9129 21.1193 47.0658 20.893 47.5928 20.9557C48.0295 21.0079 48.4859 21.0195 48.9203 20.9534C49.5435 20.8594 49.7867 21.1564 49.9952 21.6856C50.7227 23.5224 51.4941 25.3418 52.2494 27.1671C52.3015 27.2889 52.3652 27.4038 52.4857 27.6498Z" fill="#4B5BA9"/>
<path d="M89.914 31.181C89.0464 31.181 88.2437 31.1705 87.441 31.1868C87.1804 31.1926 87.1387 31.0417 87.061 30.8538C86.5861 29.7015 86.0672 28.5667 85.6282 27.4017C85.444 26.9132 85.1058 27.0617 84.7884 27.0408C84.4363 27.0188 84.4837 27.2787 84.4455 27.5108C84.2671 28.6085 84.0552 29.7004 83.8872 30.8004C83.8432 31.0882 83.7644 31.1996 83.4644 31.188C82.9061 31.1659 82.3466 31.1763 81.7871 31.1833C81.5427 31.1868 81.4709 31.1439 81.523 30.8549C82.0709 27.8345 82.591 24.8095 83.1308 21.7868C83.2779 20.9618 83.2976 20.9467 84.1722 20.9699C85.4208 21.0012 86.6776 20.8422 87.9182 21.0778C89.4171 21.3632 90.2094 22.0792 90.3264 23.3881C90.4503 24.7689 89.9256 25.8294 88.5982 26.5001C87.8858 26.8598 87.8846 26.8505 88.231 27.5851C88.7847 28.7605 89.3337 29.9394 89.914 31.181ZM85.7822 25.2968C86.7622 25.2968 87.0193 25.2423 87.4352 24.9452C88.0954 24.4741 88.0908 23.4449 87.4051 23.1258C86.7541 22.823 86.0093 22.8125 85.3768 23.0028C84.9899 23.1189 85.1197 23.8151 85.0201 24.2525C85.0119 24.2896 85.0119 24.3291 85.005 24.3662C84.8312 25.2968 84.8312 25.2968 85.7822 25.2968Z" fill="#4B5BA9"/>
<path d="M73.0306 31.1821C73.6074 27.8531 74.175 24.5855 74.7368 21.3157C74.7808 21.0604 74.9001 20.9606 75.1619 20.9617C77.1079 20.9687 79.0551 20.971 81.0011 20.9606C81.3011 20.9594 81.3752 21.0673 81.3104 21.3365C81.2478 21.5976 81.1911 21.8599 81.1389 22.1233C80.9663 22.9866 80.9675 22.9866 80.0767 22.9866C79.1327 22.9866 78.1875 22.9982 77.2435 22.9808C76.8983 22.9738 76.6909 23.0434 76.6851 23.4391C76.6817 23.6863 76.6226 23.9334 76.582 24.1794C76.4535 24.951 76.4523 24.951 77.2539 24.951C78.1794 24.951 79.1049 24.9638 80.0293 24.9441C80.3883 24.936 80.4602 25.0694 80.3872 25.3897C80.276 25.8724 80.342 26.514 80.0501 26.8053C79.7443 27.1093 79.0991 26.8865 78.6022 26.897C77.9083 26.912 77.2145 26.9144 76.5206 26.8946C76.1952 26.8853 76.0318 26.9666 75.9959 27.3263C75.938 27.8995 75.5662 28.6502 75.8048 28.9867C76.0573 29.343 76.8763 29.0784 77.4473 29.0912C78.2558 29.1086 79.0667 29.1155 79.8752 29.0865C80.2447 29.0738 80.364 29.1863 80.2818 29.5391C80.2123 29.8384 80.0953 30.1425 80.1069 30.4407C80.1358 31.1578 79.7397 31.2019 79.1698 31.1926C77.3396 31.1636 75.5083 31.1821 73.6769 31.1821C73.4684 31.1821 73.2599 31.1821 73.0306 31.1821Z" fill="#4B5BA9"/>
<path d="M59.8726 31.4324C58.4096 31.4081 57.249 31.0878 56.2586 30.257C55.9655 30.011 55.8173 29.7894 56.254 29.5399C56.386 29.4645 56.4914 29.3438 56.6107 29.2475C56.9096 29.0061 57.1772 28.6835 57.5189 28.5478C57.9474 28.3761 58.0911 28.9307 58.4247 29.0862C59.1162 29.4064 59.7996 29.5608 60.541 29.3194C61.0252 29.1616 61.3113 28.8321 61.3842 28.3273C61.4503 27.869 61.2232 27.5499 60.8653 27.312C60.4634 27.0451 60.0151 26.8711 59.5587 26.7202C58.4525 26.3536 57.5594 25.742 57.4065 24.4935C57.2316 23.0674 57.8444 21.9964 59.0815 21.2805C60.5873 20.4091 62.9746 20.5355 64.2245 21.5184C64.6253 21.834 64.7573 22.0846 64.2534 22.4014C64.1411 22.4722 64.0484 22.5754 63.9476 22.666C63.6893 22.8957 63.4646 23.2206 63.1623 23.3308C62.8437 23.4469 62.67 23.0071 62.3885 22.869C61.6483 22.5058 60.6962 22.5894 60.1807 23.1057C59.6467 23.6406 59.7301 24.3241 60.3973 24.6826C60.7495 24.8718 61.1271 25.0203 61.5024 25.163C63.1773 25.7977 64.0391 26.8444 63.943 28.1451C63.8237 29.7604 62.758 30.9242 61.0495 31.2862C60.5989 31.379 60.1425 31.4614 59.8726 31.4324Z" fill="#4B5BA9"/>
<path d="M68.3666 25.1629C69.4936 25.1629 70.5871 25.1722 71.6806 25.1583C72.0547 25.1536 72.269 25.1733 72.1057 25.6572C71.9493 26.1225 72.1091 26.7816 71.764 27.0682C71.4176 27.356 70.8025 27.1425 70.3045 27.1541C69.7079 27.168 69.1079 27.1854 68.5125 27.1483C68.1117 27.1227 67.9831 27.284 67.9241 27.6495C67.7526 28.7089 67.5372 29.7614 67.3704 30.8208C67.3252 31.1097 67.2279 31.2037 66.9406 31.1909C66.4402 31.1689 65.9364 31.1561 65.4383 31.1933C65.0132 31.2257 64.961 31.0494 65.0259 30.6943C65.3109 29.1081 65.5808 27.5196 65.8611 25.9334C66.1171 24.4794 66.3904 23.0278 66.6302 21.5704C66.7032 21.126 66.8468 20.9404 67.3542 20.9531C69.1067 20.9937 70.8616 20.9833 72.6142 20.9589C73.0555 20.9531 73.2374 21.0692 73.0833 21.5031C72.913 21.9858 73.1192 22.6855 72.7045 22.9373C72.3397 23.159 71.735 22.9872 71.2369 22.9884C70.5431 22.9896 69.8492 22.993 69.1554 22.9861C68.8948 22.9837 68.7419 23.0244 68.7036 23.3516C68.6353 23.941 68.4905 24.5189 68.3666 25.1629Z" fill="#4B5BA9"/>
<path d="M22.2505 20.9665C23.4262 20.9665 24.602 20.9735 25.7765 20.9618C26.1228 20.9584 26.3174 20.9665 26.1819 21.4283C26.0313 21.9389 26.1877 22.6629 25.8252 22.9577C25.4383 23.2733 24.7514 23.0424 24.1954 23.0493C23.0463 23.0621 23.0776 23.0586 22.8899 24.205C22.5239 26.4387 22.1162 28.6643 21.7351 30.8956C21.6992 31.1057 21.6204 31.1904 21.4026 31.1869C20.8049 31.1764 20.2072 31.1695 19.6107 31.188C19.291 31.1985 19.2782 31.0569 19.3223 30.8028C19.7543 28.3661 20.1644 25.9258 20.6184 23.4937C20.6926 23.0946 20.6011 23.0377 20.2501 23.0482C19.6153 23.0679 18.9771 23.0261 18.3435 23.0632C17.9137 23.0876 17.8535 22.8985 17.9207 22.5527C17.9971 22.1582 18.1037 21.7648 18.1338 21.3668C18.1604 21.0303 18.3041 20.9572 18.6087 20.9607C19.8227 20.9746 21.0366 20.9665 22.2505 20.9665Z" fill="#4B5BA9"/>
<path d="M58.6667 8.85725C58.6423 8.60546 58.7118 8.40355 58.8798 8.21674C59.7254 7.27453 60.5652 6.32652 61.3459 5.3263C61.5058 5.12207 61.5683 5.03505 61.3772 4.81922C60.549 3.87701 59.7474 2.91044 58.9238 1.96359C58.6238 1.61897 58.5798 1.24533 58.7362 0.84733C58.852 0.55376 59.1369 0.601335 59.3837 0.615259C59.6976 0.632664 59.8204 0.915791 59.9849 1.10725C60.9382 2.21887 61.8683 3.35021 62.8135 4.46996C63.146 4.86332 63.1541 5.24623 62.8251 5.63843C61.8533 6.80227 60.8768 7.96146 59.913 9.13226C59.6605 9.43859 59.3709 9.64513 58.9783 9.51401C58.684 9.4177 58.6296 9.1369 58.6667 8.85725Z" fill="#4B5BA9"/>
<path d="M66.5125 5.07089C66.5924 5.39927 66.443 5.60233 66.26 5.81815C65.3275 6.91585 64.4113 8.02631 63.4823 9.12632C63.341 9.29341 63.1834 9.47791 62.9599 9.51736C62.6935 9.56378 62.3402 9.56958 62.2602 9.28529C62.1826 9.00681 62.0958 8.6645 62.3529 8.36861C63.2332 7.35794 64.0939 6.33103 64.9719 5.31804C65.1503 5.11266 65.126 4.98038 64.9487 4.77964C64.0603 3.77477 63.1753 2.76642 62.3228 1.73139C62.0981 1.4587 62.1027 1.01429 62.3205 0.776417C62.5672 0.507215 62.9807 0.470083 63.2761 0.811227C64.0116 1.66293 64.7345 2.52507 65.4642 3.38141C65.697 3.65409 65.9287 3.92794 66.1719 4.19134C66.4129 4.45242 66.633 4.71234 66.5125 5.07089Z" fill="#4B5BA9"/>
<path d="M47.3262 10.4538C47.3022 10.4805 47.2783 10.5071 47.2529 10.5338C47.2459 10.5155 47.2318 10.4805 47.2346 10.4791C47.2614 10.465 47.2924 10.4566 47.3205 10.4468C47.3205 10.4482 47.3262 10.4538 47.3262 10.4538Z" fill="white"/>
</svg>
