<svg width="78" height="32" viewBox="0 0 78 32" fill="none" xmlns="http://www.w3.org/2000/svg">
<path d="M6.05429 12.7625C6.05429 11.9391 6.73544 11.6222 7.86381 11.6222C9.48145 11.6222 11.5249 12.1081 13.1427 12.9738V8.01127C11.376 7.31447 9.63052 7.03993 7.86381 7.03993C3.54251 7.03993 0.668823 9.27838 0.668823 13.0161C0.668823 18.8442 8.75764 17.9152 8.75764 20.4281C8.75764 21.3993 7.90631 21.7162 6.71418 21.7162C4.94747 21.7162 2.69103 20.9981 0.902909 20.0268V25.0526C2.88261 25.8973 4.88356 26.2562 6.71418 26.2562C11.1418 26.2562 14.1858 24.0813 14.1858 20.3013C14.1645 14.0086 6.05429 15.1276 6.05429 12.7625ZM20.444 2.81664L15.2501 3.91463L15.2288 20.8292C15.2288 23.9546 17.5917 26.2562 20.7421 26.2562C22.4876 26.2562 23.7647 25.9395 24.4671 25.5594V21.2727C23.7861 21.5472 20.4227 22.5185 20.4227 19.3932V11.8968H24.4671V7.39895H20.4227L20.444 2.81664ZM31.0874 8.96153L30.7467 7.39895H26.1488V25.8761H31.4705V13.3539C32.7263 11.728 34.855 12.0236 35.5149 12.2558V7.39895C34.8338 7.1455 32.3432 6.68091 31.0874 8.96153ZM36.8133 7.39895H42.1563V25.8761H36.8133V7.39895ZM36.8133 5.79406L42.1563 4.65375V0.367065L36.8133 1.48629V5.79391V5.79406ZM53.2679 7.03993C51.1817 7.03993 49.8407 8.01127 49.0958 8.68714L48.8189 7.37787H44.136V31.9999L49.4575 30.8808L49.4789 24.9047C50.2452 25.4538 51.3733 26.2351 53.2466 26.2351C57.0569 26.2351 60.5266 23.1943 60.5266 16.5003C60.5053 10.3764 56.993 7.03993 53.2679 7.03993ZM51.9907 21.5894C50.7348 21.5894 49.9896 21.146 49.4789 20.597L49.4575 12.7625C50.011 12.1502 50.7773 11.728 51.9907 11.728C53.9278 11.728 55.2688 13.8818 55.2688 16.648C55.2688 19.4777 53.949 21.5894 51.9907 21.5894ZM77.3004 16.7114C77.3004 11.3055 74.6608 7.03993 69.616 7.03993C64.5496 7.03993 61.4843 11.3057 61.4843 16.6693C61.4843 23.0253 65.1032 26.2351 70.297 26.2351C72.8302 26.2351 74.7459 25.6649 76.1934 24.8626V20.6391C74.7461 21.3572 73.0856 21.8007 70.9783 21.8007C68.9134 21.8007 67.0828 21.0826 66.8487 18.5909H77.2579C77.2579 18.3162 77.3004 17.2182 77.3004 16.7114ZM66.7848 14.7054C66.7848 12.3192 68.2537 11.3266 69.5947 11.3266C70.8931 11.3266 72.2768 12.3192 72.2768 14.7054H66.7848Z" fill="#6772E5"/>
</svg>
