<svg width="140" height="27" viewBox="0 0 140 27" fill="none" xmlns="http://www.w3.org/2000/svg">
<path d="M15.7867 0.55021C29.8878 0.55021 43.989 0.512742 58.0901 0.5627C67.7852 0.597045 77.4772 0.771895 87.1723 0.853076C101.22 0.971724 115.272 1.05915 129.32 1.17155C130.718 1.18092 132.116 1.27771 133.514 1.28708C137.542 1.31518 139.917 3.72561 139.558 7.76278C139.286 10.8258 138.697 13.8607 138.229 16.9081C138.082 17.8729 137.879 18.8283 137.689 19.7868C137.127 22.6469 135.848 23.8802 132.927 24.5203C130.562 25.0355 128.171 24.7763 125.794 24.8232C117.347 24.9855 108.897 25.048 100.45 25.1572C85.0567 25.3602 69.6637 25.56 54.2707 25.7755C40.4317 25.969 26.5958 26.1814 12.7568 26.3906C10.9438 26.4187 9.13084 26.5279 7.321 26.503C3.62019 26.453 1.05209 24.0644 0.81494 20.3895C0.50914 15.6747 0.340637 10.9538 0.172135 6.22972C0.00987376 1.67112 3.20206 0.163042 6.2975 0.116207C9.4616 0.0693725 12.6226 0.10684 15.7867 0.10684C15.7867 0.25359 15.7867 0.403461 15.7867 0.55021ZM99.111 13.1644C99.111 11.9311 99.0798 10.6978 99.1235 9.46757C99.1516 8.67762 98.8614 8.35602 98.0501 8.37475C96.3932 8.4091 94.73 8.47155 93.0824 8.34353C92.3772 8.29045 91.984 9.24588 91.4692 8.83998C90.558 8.12184 89.5813 8.50901 88.6389 8.381C87.1068 8.1718 85.5903 8.91804 84.0395 8.40598C83.64 8.27484 83.0347 8.27796 82.9473 8.9274C82.888 9.36453 82.7414 10.0733 83.225 10.1732C84.5824 10.4542 84.1768 11.4378 84.1986 12.2339C84.2392 13.6702 84.2891 15.1158 84.1861 16.5459C84.1019 17.7355 84.6885 17.901 85.6652 17.901C86.6325 17.901 87.2628 17.7417 87.2192 16.5677C87.1567 14.8754 87.2379 13.1769 87.1911 11.4846C87.1661 10.5822 87.4095 10.1139 88.4111 10.2606C89.2162 10.3793 90.2584 10.0077 90.1867 11.4815C90.1055 13.1738 90.2272 14.8723 90.1492 16.5646C90.0931 17.7573 90.7171 17.901 91.6813 17.901C92.6487 17.901 93.2696 17.748 93.2197 16.5615C93.1448 14.8692 93.2447 13.1706 93.1854 11.4783C93.1511 10.4854 93.6004 10.1919 94.4928 10.2981C95.2948 10.3918 96.362 10.0077 96.312 11.4846C96.2527 13.2799 96.3276 15.0784 96.2902 16.8768C96.2683 17.8916 96.9236 17.8978 97.6288 17.8853C98.3465 17.8697 99.1516 18.004 99.1204 16.8643C99.0861 15.631 99.111 14.3977 99.111 13.1644ZM81.1063 13.1613C81.1063 11.928 81.0907 10.6946 81.1125 9.46132C81.125 8.79627 80.9596 8.37163 80.1764 8.37788C78.4134 8.39661 76.6503 8.4372 74.8904 8.35914C74.2663 8.33104 73.9356 9.26462 73.4269 8.8431C72.5782 8.13746 71.6452 8.49028 70.7527 8.381C69.127 8.18117 67.5106 8.94614 65.8693 8.40285C65.5136 8.28421 64.9706 8.31855 64.9332 8.90867C64.9051 9.3458 64.6991 10.0639 65.1828 10.1638C66.5464 10.4542 66.1158 11.4471 66.1408 12.2339C66.1876 13.6702 66.2219 15.1158 66.1345 16.549C66.0628 17.7324 66.6588 17.901 67.6386 17.901C68.6246 17.901 69.2144 17.7074 69.1676 16.5428C69.0989 14.8505 69.1894 13.1488 69.1364 11.4565C69.1083 10.5167 69.4234 10.1201 70.3939 10.2606C71.199 10.3762 72.2287 9.99212 72.1413 11.4846C72.0415 13.2268 72.1538 14.9785 72.107 16.727C72.0758 17.9103 72.8434 17.8822 73.6578 17.8853C74.4879 17.8885 75.2087 17.8791 75.165 16.6989C75.0995 14.9535 75.1962 13.2019 75.1338 11.4565C75.0932 10.2856 75.7828 10.2513 76.6316 10.2919C77.4679 10.3324 78.3229 10.2107 78.2636 11.5189C78.1856 13.2112 78.2979 14.9129 78.2261 16.6052C78.1824 17.6793 78.6786 17.901 79.6241 17.901C80.6008 17.901 81.2186 17.7355 81.1281 16.5521C81.0376 15.4281 81.1063 14.2947 81.1063 13.1613ZM24.009 17.8853C24.4739 17.8853 24.942 17.8853 25.4069 17.8853C29.7942 17.8853 29.7692 17.8853 29.6444 13.5266C29.6163 12.5431 29.3137 12.1247 28.2871 12.1715C26.6832 12.2464 25.0761 12.2277 23.4723 12.2683C22.6953 12.287 22.1929 12.1403 22.2178 11.1755C22.2428 10.2419 22.8014 10.245 23.4598 10.2481C25.2228 10.2544 26.9827 10.2357 28.7457 10.2544C29.4322 10.2606 29.8036 10.0514 29.8129 9.29272C29.8223 8.49028 29.3823 8.37163 28.727 8.37788C26.705 8.39349 24.6861 8.38412 22.6641 8.38412C18.5233 8.38412 18.5763 8.38412 18.5545 12.49C18.5482 13.7701 19.0101 14.0824 20.1896 14.0199C21.7404 13.9387 23.2975 14.0105 24.8515 13.9949C25.4849 13.9887 25.9904 14.0667 26.0029 14.8661C26.0185 15.7622 25.3757 15.6498 24.8203 15.656C23.1633 15.6654 21.5033 15.6685 19.8463 15.656C19.0787 15.6498 18.567 15.7996 18.5638 16.7551C18.5607 17.6793 19.0132 17.901 19.812 17.8885C21.21 17.8697 22.6079 17.8853 24.009 17.8853ZM11.4555 8.38412C10.9906 8.38412 10.5225 8.38412 10.0576 8.38412C5.52364 8.38412 5.54861 8.38412 5.75455 12.874C5.79512 13.7608 6.1134 14.0324 6.95903 14.0137C8.6659 13.9731 10.3759 14.023 12.0859 13.9918C12.7848 13.9793 13.1843 14.2041 13.1718 14.9348C13.1593 15.7028 12.582 15.656 12.064 15.6591C10.4071 15.6654 8.75015 15.6779 7.09321 15.656C6.26318 15.6466 5.72959 15.7871 5.74831 16.83C5.76391 17.8198 6.31311 17.8916 7.0464 17.8885C8.85936 17.8822 10.6723 17.8885 12.4822 17.8885C16.9194 17.8885 16.8944 17.8885 16.7509 13.4548C16.7197 12.5431 16.4482 12.1372 15.4965 12.1777C13.9987 12.2433 12.4978 12.2558 10.9968 12.262C10.2542 12.2652 9.37111 12.49 9.38671 11.2192C9.40231 10.0421 10.2167 10.2669 10.9064 10.2606C12.4073 10.245 13.9113 10.2731 15.4122 10.2481C16.08 10.2357 16.9506 10.5229 16.9974 9.3458C17.0442 8.13746 16.1705 8.40598 15.4965 8.39349C14.1485 8.36851 12.8036 8.38412 11.4555 8.38412ZM58.4333 8.38412C57.0354 8.38412 55.6375 8.40598 54.2426 8.37475C53.5125 8.35914 53.2129 8.65888 53.216 9.36765C53.2254 11.8312 53.2316 14.2947 53.2098 16.7582C53.2035 17.5357 53.5218 17.8885 54.3082 17.8853C57.051 17.876 59.7939 17.8791 62.5367 17.8791C63.2325 17.8791 63.5633 17.5638 63.5571 16.8425C63.5383 14.379 63.5352 11.9155 63.5602 9.45195C63.5695 8.67137 63.2856 8.34353 62.4712 8.37163C61.1263 8.41534 59.7782 8.38412 58.4333 8.38412ZM105.97 8.38412C104.572 8.38412 103.174 8.41222 101.776 8.37163C100.98 8.34977 100.674 8.62766 100.69 9.43947C100.727 11.853 100.727 14.2635 100.69 16.677C100.677 17.5169 101.058 17.7199 101.82 17.7136C104.512 17.6886 107.202 17.7043 109.895 17.7011C110.195 17.7011 110.622 17.7979 110.735 17.4701C111.053 16.5459 111.15 15.5623 110.682 14.6725C110.454 14.2416 107.848 14.2791 107.755 14.6975C107.393 16.3242 106.148 15.7434 105.174 15.8371C104.353 15.9152 103.807 15.7622 103.795 14.7068C103.782 13.6296 104.257 13.3673 105.199 13.4267C105.87 13.4673 106.544 13.436 107.218 13.436C111.209 13.436 111.187 13.436 110.953 9.44571C110.906 8.6464 110.638 8.35602 109.848 8.37788C108.56 8.4091 107.265 8.38412 105.97 8.38412ZM46.6756 8.38412C45.3807 8.38412 44.0857 8.41847 42.7938 8.37163C41.9451 8.34041 41.5831 8.61205 41.6018 9.50816C41.6487 11.9217 41.6362 14.3353 41.605 16.7457C41.5956 17.5263 41.8889 17.8854 42.6784 17.8822C45.3713 17.8729 48.0642 17.8822 50.7571 17.876C51.1659 17.876 51.5872 17.876 51.8087 17.4076C52.5919 15.7434 51.6527 14.2947 49.8429 14.3321C49.1532 14.3478 48.5916 14.4164 48.5354 15.2564C48.498 15.809 48.1017 15.8402 47.6586 15.8902C44.9157 16.1993 44.7472 16.0588 44.7472 13.3486C44.7472 12.6804 44.7472 12.0123 44.7503 11.3472C44.7535 10.8227 44.7472 10.1888 45.4618 10.2138C46.4447 10.2481 48.0237 9.64866 48.292 10.5697C48.7476 12.1434 49.7243 11.7344 50.6698 11.7843C52.1395 11.8593 51.7557 10.754 51.8087 9.94528C51.868 9.06166 51.843 8.29045 50.5637 8.36539C49.2687 8.44344 47.9706 8.38412 46.6756 8.38412ZM35.7168 17.8853C36.4438 17.8853 37.1677 17.8853 37.8948 17.8853C40.4286 17.8853 40.4348 17.8697 40.2975 15.4281C40.2632 14.8317 40.2382 14.1542 39.4394 14.2822C38.575 14.4227 37.305 13.5578 36.9119 14.9067C36.6342 15.8621 36.085 15.8028 35.4109 15.7778C34.4311 15.7434 34.6246 14.9972 34.6152 14.4164C34.5934 12.9271 34.5248 11.4284 34.6308 9.9484C34.7276 8.5777 34.1097 8.33729 32.8959 8.34977C31.7413 8.35914 31.1578 8.58395 31.2764 9.88596C31.3887 11.1099 31.3014 12.3495 31.3014 13.5828C31.2982 17.8853 31.2982 17.8853 35.7168 17.8853ZM115.968 14.0043C115.968 13.027 115.971 12.0497 115.964 11.0724C115.961 10.6197 116.052 10.2419 116.604 10.2013C117.022 10.1701 117.609 10.1233 117.668 10.5822C117.908 12.4057 119.294 11.622 120.211 11.6782C121.818 11.7812 121.185 10.4792 121.3 9.68301C121.422 8.83686 121.175 8.39973 120.149 8.3529C117.718 8.24049 115.3 8.73382 112.872 8.39661C112.491 8.34353 111.973 8.28421 111.892 8.86808C111.836 9.25837 111.689 9.83288 112.126 9.98587C113.259 10.3824 112.947 11.2723 112.963 12.0404C112.991 13.5328 112.988 15.0222 112.966 16.5147C112.953 17.3202 113.203 17.6949 114.12 17.7355C115.434 17.7917 116.242 17.5731 115.983 16.0088C115.877 15.3563 115.964 14.6725 115.968 14.0043ZM127.507 10.1701C126.936 11.5502 126.284 11.7999 125.341 10.6665C125.341 11.8405 125.351 12.7616 125.338 13.6796C125.329 14.1604 125.466 14.482 126.015 14.482C127.123 14.482 128.231 14.482 129.654 14.482C127.944 13.3361 128.914 12.6992 129.775 11.9748C130.443 11.4128 131.036 10.7633 131.638 10.1326C131.975 9.77668 132.103 9.32706 131.944 8.85247C131.779 8.3529 131.323 8.38724 130.911 8.38724C128.434 8.38412 125.953 8.39661 123.475 8.381C122.864 8.37788 122.533 8.51526 122.523 9.22715C122.511 9.99836 122.839 10.1982 123.541 10.1795C124.808 10.1451 126.081 10.1701 127.507 10.1701ZM124.764 13.1769C123.734 14.3915 123.017 15.1939 122.355 16.0369C121.466 17.1641 121.734 17.8854 123.16 17.9322C125.747 18.0165 128.34 17.9478 130.93 17.9728C131.872 17.9821 132.006 17.4389 132.041 16.677C132.078 15.8246 131.532 15.8902 130.945 15.7684C129.445 15.4562 127.703 16.6021 126.415 15.044C125.067 15.5405 124.742 14.7505 124.764 13.1769Z" fill="#2B5EAB"/>
<path d="M99.1165 13.1685C99.1165 14.4019 99.0915 15.6352 99.1227 16.8654C99.1539 18.005 98.3488 17.8708 97.6311 17.8864C96.9228 17.902 96.2707 17.8957 96.2925 16.8779C96.3299 15.0825 96.255 13.2809 96.3143 11.4856C96.3643 10.0087 95.2971 10.3928 94.4951 10.2991C93.6027 10.1961 93.1534 10.4896 93.1877 11.4794C93.247 13.1717 93.1471 14.8702 93.222 16.5625C93.2751 17.749 92.651 17.902 91.6836 17.902C90.7194 17.902 90.0953 17.7552 90.1515 16.5656C90.2326 14.8733 90.1078 13.1748 90.189 11.4825C90.2607 10.0087 89.2185 10.3803 88.4135 10.2616C87.4118 10.1149 87.1653 10.5832 87.1934 11.4856C87.2433 13.1779 87.159 14.8764 87.2215 16.5687C87.2651 17.7459 86.6348 17.902 85.6675 17.902C84.6877 17.902 84.101 17.7365 84.1884 16.5469C84.2914 15.1169 84.2415 13.6712 84.2009 12.235C84.1791 11.4419 84.5847 10.4552 83.2273 10.1742C82.7437 10.0743 82.8903 9.36554 82.9496 8.92842C83.037 8.27897 83.6455 8.27585 84.0418 8.40699C85.5926 8.91905 87.1091 8.17282 88.6412 8.38201C89.5805 8.51003 90.5603 8.12286 91.4715 8.84099C91.9863 9.24689 92.3795 8.28834 93.0847 8.34454C94.7323 8.47256 96.3955 8.41011 98.0524 8.37577C98.8637 8.35703 99.1539 8.67863 99.1258 9.46858C99.0853 10.7019 99.1165 11.9352 99.1165 13.1685Z" fill="#F3F6FA"/>
<path d="M81.1118 13.1659C81.1118 14.2962 81.0431 15.4327 81.1305 16.5567C81.221 17.7432 80.6031 17.9056 79.6265 17.9056C78.681 17.9056 78.1817 17.6839 78.2285 16.6098C78.3003 14.9175 78.1879 13.2159 78.266 11.5236C78.3252 10.2153 77.4702 10.334 76.634 10.2965C75.7852 10.2559 75.0925 10.2902 75.1362 11.4611C75.1986 13.2065 75.1019 14.9581 75.1674 16.7035C75.2142 17.8837 74.4903 17.8931 73.6602 17.89C72.8458 17.8869 72.0782 17.915 72.1094 16.7316C72.1562 14.9862 72.0438 13.2315 72.1437 11.4892C72.2311 9.99675 71.2013 10.3777 70.3963 10.2653C69.4258 10.1279 69.1107 10.5244 69.1387 11.4611C69.1918 13.1565 69.1013 14.8551 69.1699 16.5474C69.2168 17.7089 68.627 17.9056 67.6409 17.9056C66.6611 17.9056 66.0651 17.737 66.1369 16.5536C66.2243 15.1205 66.19 13.6748 66.1432 12.2386C66.1182 11.4518 66.5488 10.4589 65.1852 10.1685C64.7015 10.0654 64.9106 9.35043 64.9356 8.9133C64.973 8.32318 65.5128 8.28884 65.8717 8.40748C67.513 8.95077 69.1294 8.1858 70.7551 8.38563C71.6476 8.49491 72.5806 8.14209 73.4293 8.84773C73.9379 9.26925 74.2687 8.33567 74.8928 8.36377C76.6527 8.44183 78.4157 8.40436 80.1788 8.38251C80.962 8.37314 81.1274 8.8009 81.1149 9.46595C81.0962 10.6993 81.1118 11.9326 81.1118 13.1659Z" fill="#F3F6FA"/>
<path d="M24.0095 17.8864C22.6116 17.8864 21.2105 17.8739 19.8126 17.8926C19.0138 17.902 18.5644 17.6834 18.5644 16.7592C18.5675 15.8069 19.0793 15.6539 19.8469 15.6601C21.5038 15.6726 23.1639 15.6695 24.8208 15.6601C25.3763 15.657 26.0191 15.7663 26.0035 14.8702C25.9879 14.0709 25.4855 13.9928 24.852 13.9991C23.2981 14.0147 21.7379 13.9429 20.1902 14.024C19.0106 14.0865 18.5488 13.7711 18.5551 12.4941C18.5769 8.38513 18.5239 8.38513 22.6646 8.38513C24.6867 8.38513 26.7056 8.39449 28.7276 8.37888C29.3829 8.37264 29.8229 8.49441 29.8135 9.29372C29.8041 10.0524 29.4328 10.2616 28.7463 10.2554C26.9833 10.2367 25.2234 10.2554 23.4603 10.2492C22.8019 10.246 22.2434 10.2429 22.2184 11.1765C22.1935 12.1382 22.6958 12.288 23.4728 12.2693C25.0767 12.2287 26.6837 12.2474 28.2876 12.1725C29.3142 12.1257 29.6169 12.5441 29.645 13.5276C29.7698 17.8864 29.7948 17.8864 25.4075 17.8864C24.9425 17.8864 24.4745 17.8864 24.0095 17.8864Z" fill="#F3F6FA"/>
<path d="M11.4542 8.38472C12.7991 8.38472 14.1471 8.36911 15.492 8.39096C16.166 8.40345 17.0398 8.13493 16.9929 9.34327C16.9461 10.5204 16.0787 10.2331 15.4078 10.2456C13.9069 10.2737 12.4059 10.2425 10.9019 10.2581C10.2123 10.2644 9.39474 10.0427 9.38226 11.2167C9.36666 12.4843 10.2529 12.2626 10.9924 12.2595C12.4933 12.2564 13.9942 12.2408 15.492 12.1752C16.4469 12.1346 16.7152 12.5374 16.7464 13.4522C16.8931 17.8859 16.9149 17.8859 12.4777 17.8859C10.6647 17.8859 8.85179 17.8828 7.04195 17.8859C6.30865 17.8891 5.75946 17.8173 5.74386 16.8275C5.72514 15.7846 6.25873 15.6441 7.08876 15.6535C8.7457 15.6753 10.4026 15.6629 12.0596 15.6566C12.5776 15.6535 13.1548 15.7003 13.1673 14.9322C13.1798 14.2016 12.7804 13.9768 12.0814 13.9893C10.3745 14.0205 8.66456 13.9706 6.95458 14.0111C6.10895 14.0299 5.79066 13.7614 5.7501 12.8715C5.54415 8.37847 5.51607 8.3816 10.0531 8.3816C10.5243 8.38472 10.9893 8.38472 11.4542 8.38472Z" fill="#F3F6FA"/>
<path d="M58.4276 8.38512C59.7725 8.38512 61.1205 8.41634 62.4654 8.37263C63.2798 8.34453 63.5607 8.67237 63.5544 9.45295C63.5295 11.9165 63.5326 14.38 63.5513 16.8435C63.5575 17.5647 63.2299 17.877 62.5309 17.8801C59.7881 17.8801 57.0452 17.877 54.3024 17.8863C53.516 17.8895 53.1978 17.5366 53.204 16.7592C53.2259 14.2957 53.2196 11.8322 53.2102 9.36865C53.2071 8.65988 53.5067 8.36014 54.2369 8.37575C55.6317 8.40698 57.0296 8.38512 58.4276 8.38512ZM60.5963 13.2684C60.5963 12.7564 60.5432 12.2381 60.6056 11.7322C60.7523 10.5551 60.2249 10.2429 59.0985 10.2772C55.7097 10.3772 56.2558 9.89632 56.2027 13.1186C56.1965 13.4776 56.2495 13.8429 56.1934 14.1926C55.9812 15.5259 56.468 15.9755 57.8721 15.9224C60.5931 15.8194 60.5963 15.9006 60.5963 13.2684Z" fill="#F3F6FA"/>
<path d="M105.974 8.38533C107.268 8.38533 108.563 8.4103 109.855 8.37596C110.645 8.3541 110.913 8.64448 110.96 9.44379C111.191 13.4372 111.216 13.4341 107.225 13.4341C106.551 13.4341 105.877 13.4685 105.206 13.4248C104.26 13.3654 103.786 13.6277 103.802 14.7049C103.814 15.7603 104.36 15.9101 105.181 15.8352C106.158 15.7446 107.4 16.3254 107.762 14.6955C107.855 14.2771 110.461 14.2397 110.688 14.6706C111.157 15.5573 111.057 16.5408 110.742 17.4682C110.629 17.7929 110.202 17.6992 109.902 17.6992C107.209 17.7055 104.516 17.6867 101.826 17.7117C101.065 17.7179 100.684 17.5181 100.697 16.6751C100.734 14.2615 100.734 11.8511 100.697 9.43755C100.684 8.62574 100.987 8.34786 101.783 8.36971C103.178 8.41343 104.576 8.38533 105.974 8.38533ZM105.643 11.9479C106.052 11.9479 106.463 11.9448 106.872 11.9479C107.643 11.951 107.708 11.3984 107.577 10.8988C107.215 9.52185 106.061 10.343 105.281 10.2119C104.744 10.1213 103.849 9.82784 103.792 10.9456C103.764 11.5108 103.836 11.9729 104.569 11.9541C104.925 11.9417 105.284 11.951 105.643 11.9479Z" fill="#F3F6FA"/>
<path d="M46.6689 8.38455C47.9639 8.38455 49.262 8.44387 50.5507 8.36893C51.8301 8.294 51.855 9.06521 51.7957 9.94883C51.7427 10.7575 52.1234 11.8628 50.6568 11.7879C49.7144 11.741 48.7377 12.1469 48.279 10.5733C48.0107 9.65221 46.4349 10.2517 45.4488 10.2173C44.7342 10.1924 44.7405 10.8231 44.7374 11.3508C44.7342 12.0189 44.7342 12.6871 44.7342 13.3522C44.7342 16.0623 44.9027 16.2028 47.6456 15.8937C48.0887 15.8438 48.4819 15.8094 48.5224 15.2599C48.5817 14.42 49.1403 14.3513 49.8299 14.3357C51.6397 14.2951 52.579 15.747 51.7957 17.4112C51.5742 17.8795 51.1529 17.8795 50.7442 17.8795C48.0512 17.8889 45.3583 17.8795 42.6654 17.8858C41.8759 17.8889 41.5826 17.5298 41.592 16.7493C41.6232 14.3357 41.6326 11.9221 41.5889 9.5117C41.5733 8.6156 41.9321 8.34396 42.7809 8.37518C44.079 8.41889 45.3739 8.38455 46.6689 8.38455Z" fill="#F3F6FA"/>
<path d="M35.7087 17.8875C31.2902 17.8875 31.2902 17.8875 31.2902 13.5849C31.2902 12.3516 31.3776 11.1089 31.2652 9.88807C31.1466 8.58606 31.7302 8.36126 32.8847 8.35189C34.0986 8.3394 34.7164 8.57982 34.6197 9.95052C34.5136 11.4336 34.5822 12.9292 34.6041 14.4186C34.6134 14.9993 34.42 15.7456 35.3998 15.7799C36.0738 15.8018 36.623 15.8611 36.9007 14.9088C37.2939 13.5599 38.5639 14.4248 39.4282 14.2843C40.227 14.1563 40.252 14.8338 40.2863 15.4302C40.4268 17.875 40.4205 17.8875 37.8836 17.8875C37.1597 17.8875 36.4326 17.8875 35.7087 17.8875Z" fill="#F3F6FA"/>
<path d="M115.972 14.0079C115.972 14.676 115.881 15.3598 115.987 16.0093C116.246 17.5767 115.438 17.7952 114.124 17.7359C113.207 17.6953 112.957 17.3207 112.97 16.5151C112.992 15.0226 112.995 13.5333 112.967 12.0408C112.951 11.2727 113.263 10.3797 112.13 9.98632C111.694 9.83332 111.84 9.25881 111.896 8.86852C111.978 8.28465 112.496 8.34397 112.876 8.39705C115.304 8.73426 117.725 8.24094 120.153 8.35334C121.18 8.40018 121.426 8.8373 121.304 9.68345C121.192 10.4796 121.822 11.7785 120.215 11.6786C119.298 11.6193 117.913 12.4061 117.672 10.5827C117.61 10.1206 117.023 10.1674 116.608 10.2018C116.059 10.2455 115.965 10.6201 115.969 11.0729C115.978 12.0533 115.972 13.0306 115.972 14.0079Z" fill="#F3F6FA"/>
<path d="M127.518 10.1727C126.092 10.1727 124.819 10.1508 123.549 10.1821C122.847 10.2008 122.52 9.99784 122.532 9.22975C122.545 8.51473 122.872 8.38048 123.484 8.3836C125.961 8.39921 128.442 8.38984 130.92 8.38984C131.332 8.38984 131.787 8.3555 131.953 8.85507C132.109 9.32966 131.984 9.77928 131.647 10.1352C131.045 10.7691 130.452 11.4154 129.784 11.9774C128.923 12.7018 127.952 13.3387 129.662 14.4846C128.239 14.4846 127.132 14.4846 126.024 14.4846C125.475 14.4846 125.34 14.163 125.347 13.6822C125.362 12.7642 125.35 11.8431 125.35 10.6691C126.295 11.8025 126.944 11.5496 127.518 10.1727Z" fill="#F3F6FA"/>
<path d="M124.764 13.1765C124.739 14.7502 125.063 15.5401 126.408 15.0437C127.697 16.6017 129.438 15.4589 130.939 15.768C131.526 15.8898 132.072 15.8242 132.034 16.6766C132.003 17.4385 131.866 17.9818 130.923 17.9724C128.333 17.9474 125.74 18.0161 123.153 17.9318C121.731 17.885 121.462 17.1637 122.348 16.0366C123.019 15.1935 123.737 14.3911 124.764 13.1765Z" fill="#F3F6FA"/>
<path d="M60.6054 13.2683C60.6054 15.9005 60.6023 15.8193 57.8813 15.9223C56.4771 15.9754 55.9904 15.5258 56.2025 14.1925C56.2587 13.8428 56.2057 13.4775 56.2119 13.1185C56.2649 9.89623 55.7189 10.3771 59.1076 10.2772C60.2372 10.2428 60.7615 10.555 60.6148 11.7322C60.5524 12.238 60.6054 12.7563 60.6054 13.2683Z" fill="#2B5EAB"/>
<path d="M105.635 11.9458C105.276 11.9458 104.917 11.9396 104.558 11.9489C103.825 11.9677 103.753 11.5056 103.781 10.9404C103.837 9.82576 104.73 10.1193 105.27 10.2067C106.053 10.3378 107.207 9.51665 107.566 10.8936C107.697 11.3932 107.632 11.9489 106.861 11.9427C106.452 11.9427 106.043 11.9458 105.635 11.9458Z" fill="#2B5EAB"/>
</svg>
