<svg width="128" height="23" viewBox="0 0 128 23" fill="none" xmlns="http://www.w3.org/2000/svg">
<path d="M31.9689 16.4875C31.9689 18.2684 31.9689 19.9449 31.9689 21.6173C31.9689 22.3596 31.7693 22.5557 31.0123 22.5557C30.3552 22.5557 29.7022 22.564 29.0451 22.5515C28.5169 22.5431 28.3006 22.3305 28.259 21.8008C28.2507 21.6799 28.2549 21.5589 28.2549 21.438C28.2549 16.425 28.2549 11.412 28.2549 6.39489C28.2549 5.43984 28.4254 5.26884 29.3612 5.26884C29.8603 5.26884 30.3594 5.26884 30.8626 5.26884C31.7069 5.26884 31.8026 5.34391 31.998 6.18219C32.6885 5.56495 33.4662 5.14373 34.377 5.01027C37.1927 4.60573 39.7672 6.19887 40.6822 8.90137C41.5972 11.6122 40.9193 14.5733 38.9229 16.254C37.1927 17.7095 35.2255 17.9806 33.1085 17.2299C32.7051 17.0923 32.3599 16.8337 31.9689 16.4875ZM31.9523 11.3286C31.9606 12.9343 33.146 14.1687 34.6765 14.1687C36.1862 14.1646 37.3591 12.9009 37.3508 11.2786C37.3425 9.69377 36.1446 8.44261 34.6557 8.45929C33.121 8.48015 31.944 9.72713 31.9523 11.3286Z" fill="#091C32"/>
<path d="M57.5662 5.27637C57.9114 5.27637 58.2566 5.27637 58.6018 5.27637C59.338 5.28054 59.5043 5.39732 59.704 6.09797C60.2946 8.15403 60.881 10.2101 61.4674 12.2662C61.5423 12.5331 61.613 12.8 61.6879 13.0627C61.7378 13.2337 61.7835 13.3755 62.0206 13.3797C62.2618 13.3797 62.2951 13.2337 62.3408 13.0586C62.7359 11.5739 63.1352 10.0933 63.5345 8.61279C63.7632 7.762 63.9837 6.91122 64.2207 6.0646C64.3954 5.43902 64.6034 5.28471 65.2563 5.27637C66.0507 5.26803 66.8451 5.25969 67.6395 5.28054C68.28 5.29723 68.5129 5.61001 68.3216 6.23559C66.9491 10.7189 65.614 15.2147 64.1667 19.6772C63.3515 22.1837 60.96 23.389 58.3897 22.8092C57.5371 22.6174 56.7386 22.3338 56.0648 21.7541C55.6697 21.4121 55.6115 21.0368 55.8776 20.6114C56.1729 20.1443 56.4765 19.6855 56.8051 19.2393C57.0796 18.8639 57.4706 18.8347 57.9572 19.1142C58.2691 19.2935 58.5602 19.5104 58.9179 19.6021C59.5584 19.7689 60.1864 19.527 60.5192 18.9599C60.5732 18.8723 60.6148 18.7764 60.6439 18.6763C60.7812 18.2509 61.1597 17.7462 60.985 17.4293C60.8186 17.129 60.1948 17.3208 59.7747 17.3334C59.1383 17.3542 58.9554 16.9288 58.7973 16.4534C57.8574 13.5715 56.9174 10.6855 55.9775 7.79954C55.8277 7.34078 55.678 6.88202 55.5324 6.4191C55.2787 5.60584 55.5075 5.29306 56.3642 5.27637C56.7718 5.2722 57.1669 5.27637 57.5662 5.27637Z" fill="#091C32"/>
<path d="M50.9772 6.14184C51.1686 5.35361 51.2725 5.27437 52.1127 5.27437C52.6658 5.27437 53.2148 5.2702 53.768 5.27437C54.5 5.27854 54.7246 5.4954 54.7246 6.23359C54.7287 8.36055 54.7246 10.4875 54.7246 12.6103C54.7246 13.8531 54.7287 15.1001 54.7246 16.3429C54.7246 17.1228 54.5291 17.3105 53.7389 17.3147C53.1358 17.3188 52.5327 17.3188 51.9297 17.3147C51.2517 17.3105 51.0979 17.1645 50.9939 16.418C50.3243 17.0519 49.5632 17.4398 48.6814 17.5774C46.2775 17.9486 44.0981 16.906 42.8171 14.7665C41.0662 11.8471 41.8107 7.93516 44.4849 5.99587C46.2317 4.7322 48.669 4.57789 50.3201 5.6372C50.553 5.78734 50.7568 5.97084 50.9772 6.14184ZM51.0313 11.2841C51.023 9.71597 49.8252 8.44813 48.3446 8.44396C46.8473 8.43979 45.6287 9.72848 45.6328 11.3175C45.637 12.9231 46.8265 14.1784 48.3487 14.1701C49.8501 14.1617 51.0396 12.8856 51.0313 11.2841Z" fill="#091C32"/>
<path d="M98.5873 16.478C96.5619 18.3381 93.297 17.8001 91.5294 16.1277C88.4517 13.225 88.9466 7.81583 92.5733 5.71806C94.3243 4.70462 96.1626 4.58785 97.9718 5.65967C98.1881 5.78896 98.3752 5.97246 98.6248 6.16848C98.6663 5.86403 98.6996 5.56792 98.9575 5.39693C99.2029 5.23428 99.4898 5.27599 99.7602 5.27599C100.33 5.27181 100.9 5.26764 101.47 5.27599C102.106 5.28433 102.347 5.51371 102.351 6.15597C102.36 9.57996 102.36 13.004 102.351 16.4321C102.351 17.0869 102.127 17.3079 101.482 17.3163C100.862 17.3246 100.238 17.3205 99.6188 17.3163C98.8785 17.3163 98.7329 17.1912 98.5873 16.478ZM98.6539 11.3191C98.6622 9.74679 97.4727 8.46227 96.0004 8.45809C94.4615 8.45392 93.2679 9.67589 93.2512 11.2815C93.2346 12.908 94.4241 14.1675 95.9837 14.1675C97.4519 14.1717 98.6455 12.8955 98.6539 11.3191Z" fill="#091C32"/>
<path d="M116.364 8.73266C116.364 6.22617 116.364 3.71552 116.364 1.20903C116.364 0.316539 116.543 0.137207 117.412 0.137207C117.982 0.137207 118.552 0.137207 119.121 0.137207C119.903 0.137207 120.078 0.316539 120.078 1.12145C120.078 3.69883 120.074 6.27622 120.086 8.8536C120.086 9.02876 119.937 9.30819 120.215 9.37909C120.481 9.44998 120.723 9.39994 120.918 9.108C121.625 8.06537 122.39 7.06028 123.089 6.01347C123.43 5.5005 123.825 5.25027 124.457 5.29614C125.144 5.34619 125.838 5.30448 126.529 5.30866C126.782 5.30866 127.078 5.26278 127.219 5.54638C127.373 5.85499 127.277 6.15527 127.082 6.41802C126.4 7.33136 125.709 8.23636 125.023 9.14554C124.72 9.54591 124.437 9.95879 124.112 10.3383C123.913 10.5677 123.938 10.722 124.1 10.9597C125.244 12.6238 126.375 14.2961 127.51 15.9643C127.598 16.0936 127.689 16.2187 127.751 16.3605C127.976 16.8485 127.727 17.2947 127.186 17.3072C126.271 17.3323 125.356 17.3156 124.445 17.3114C124.046 17.3114 123.78 17.0946 123.567 16.7651C122.719 15.443 121.862 14.1293 121.001 12.8156C120.918 12.6905 120.868 12.532 120.706 12.4778C120.298 12.336 120.086 12.4903 120.086 12.9407C120.086 14.1001 120.09 15.2595 120.086 16.4148C120.086 17.1029 119.891 17.3031 119.192 17.3114C118.572 17.3198 117.949 17.3156 117.329 17.3114C116.584 17.3073 116.376 17.1029 116.376 16.3522C116.36 13.8165 116.364 11.2767 116.364 8.73266Z" fill="#091C32"/>
<path d="M74.1722 4.96881C75.5905 4.98549 76.884 5.41505 78.061 6.1866C78.9344 6.75796 78.9885 7.20004 78.3064 7.97575C78.1234 8.18428 77.9404 8.38863 77.7574 8.59716C77.2666 9.15184 76.9588 9.2144 76.3183 8.84739C75.6612 8.46787 75.0124 8.07168 74.243 7.96741C73.8645 7.9132 73.4902 7.87566 73.1158 8.00078C72.7873 8.11338 72.4171 8.2093 72.4046 8.63887C72.3922 9.08511 72.7582 9.24359 73.1075 9.35203C73.4361 9.45212 73.7771 9.5105 74.114 9.5814C75.1579 9.79827 76.2227 9.9359 77.1876 10.4322C78.402 11.0619 79.1132 12.0378 79.1507 13.4308C79.1839 14.7737 78.6474 15.8789 77.512 16.5879C75.0872 18.0976 72.5835 17.9683 70.0756 16.7797C69.564 16.5378 69.0691 16.2501 68.7031 15.7913C68.2289 15.1949 68.2747 14.7111 68.8694 14.2357C69.1938 13.9771 69.5307 13.7394 69.8551 13.4767C70.2336 13.1681 70.6079 13.1847 70.9906 13.4558C71.3274 13.6935 71.6518 13.9521 72.0054 14.169C72.7332 14.6152 73.5276 14.7946 74.3802 14.6736C74.6256 14.6402 74.8502 14.5568 75.0457 14.4067C75.5031 14.0564 75.4532 13.5559 74.9292 13.3057C74.2055 12.9595 73.407 12.8928 72.6376 12.701C72.0054 12.5425 71.3566 12.4507 70.7535 12.1796C69.485 11.6041 68.7155 10.6491 68.6407 9.23942C68.5658 7.8423 69.1107 6.72877 70.2877 5.93637C71.4689 5.13146 72.7914 4.94378 74.1722 4.96881Z" fill="#091C32"/>
<path d="M109.715 17.6601C104.574 17.5517 101.867 12.0633 104.433 7.89273C106.733 4.15177 112.46 3.93907 115.001 7.48819C115.433 8.08874 115.375 8.48494 114.785 8.93953C114.373 9.25649 113.965 9.57345 113.549 9.88207C113.075 10.2324 112.809 10.2115 112.368 9.80283C112.09 9.54425 111.836 9.26066 111.536 9.02711C109.914 7.76761 107.581 8.70598 107.253 10.7454C106.911 12.8848 108.604 14.5531 110.613 14.0568C111.191 13.915 111.624 13.548 112.015 13.1309C112.792 12.301 112.988 12.2801 113.903 12.9849C114.244 13.2477 114.597 13.4979 114.922 13.7857C115.388 14.1986 115.417 14.5405 115.059 15.0493C113.761 16.8677 111.944 17.6351 109.715 17.6601Z" fill="#091C32"/>
<path d="M81.6398 11.4528C81.6398 10.5895 81.6274 9.72208 81.6481 8.85878C81.6565 8.53765 81.5608 8.42504 81.2406 8.45424C80.9661 8.47926 80.6874 8.46258 80.4129 8.45841C79.8847 8.45007 79.6435 8.25822 79.6144 7.73274C79.5811 7.16555 79.5852 6.59001 79.6144 6.02282C79.6393 5.53904 79.9055 5.2763 80.4171 5.27213C80.808 5.26796 81.3237 5.44729 81.5608 5.19289C81.8145 4.91763 81.6274 4.40049 81.6398 3.99178C81.6565 3.47463 81.6357 2.95332 81.6481 2.43617C81.6606 1.90235 81.8811 1.66463 82.3926 1.65212C83.1496 1.63543 83.9107 1.6396 84.6676 1.65212C85.1459 1.66046 85.3913 1.91903 85.3871 2.40698C85.383 3.23691 85.4038 4.06685 85.3788 4.89678C85.3705 5.23042 85.4787 5.29715 85.7864 5.28881C86.6141 5.26796 87.4417 5.27213 88.2694 5.28464C88.9556 5.29298 89.1885 5.53904 89.201 6.23552C89.2093 6.68594 89.2093 7.13635 89.201 7.5826C89.1844 8.21235 88.9348 8.46258 88.3193 8.46675C87.475 8.47509 86.6307 8.47926 85.7864 8.46258C85.487 8.45424 85.358 8.50845 85.3664 8.85044C85.3872 10.1642 85.358 11.4779 85.3788 12.7916C85.3955 13.951 86.0734 14.3514 87.1381 13.8634C87.2962 13.7925 87.4459 13.7091 87.6039 13.6382C87.9699 13.4755 88.286 13.5506 88.5065 13.8843C88.8225 14.3597 89.1262 14.8393 89.4048 15.3356C89.6377 15.7443 89.488 16.103 89.1636 16.3991C87.9866 17.4667 86.5559 17.717 85.0669 17.5251C82.8293 17.2374 81.6773 15.8486 81.6481 13.5882C81.6357 12.8708 81.6398 12.1618 81.6398 11.4528Z" fill="#091C32"/>
<path d="M10.2764 11.7853C7.39418 11.7853 4.51195 11.7853 1.62971 11.7853C0.523399 11.7853 0.178196 11.435 0.178196 10.3298C0.178196 9.8627 0.169878 9.3956 0.178196 8.9285C0.190674 8.11525 0.589945 7.70237 1.38849 7.6982C7.32348 7.69403 13.2626 7.69403 19.1976 7.6982C20.0752 7.6982 20.462 8.0944 20.4703 8.96604C20.4745 9.50403 20.4745 10.0379 20.4703 10.5759C20.462 11.3557 20.0419 11.777 19.2351 11.7811C17.01 11.7895 14.7849 11.7853 12.5556 11.7853C11.7945 11.7853 11.0334 11.7853 10.2764 11.7853Z" fill="#56C0F1"/>
<path d="M9.81499 6.38528C7.04089 6.38528 4.26263 6.38528 1.48853 6.38528C0.556899 6.38528 0.186741 6.00576 0.186741 5.06322C0.186741 4.52939 0.178423 3.9914 0.186741 3.45757C0.19506 2.79029 0.615126 2.34821 1.27226 2.31068C1.53012 2.29399 1.78798 2.30651 2.04585 2.30651C7.34034 2.30651 12.6348 2.30651 17.9252 2.30651C19.0689 2.30651 19.4349 2.67768 19.4391 3.82875C19.4391 4.26248 19.4516 4.69204 19.4349 5.12578C19.3975 6.00159 18.9816 6.38528 18.0874 6.38528C15.3299 6.38528 12.5725 6.38528 9.81499 6.38528Z" fill="#56C0F1"/>
<path d="M9.8173 13.0987C12.5914 13.0987 15.3697 13.0987 18.1438 13.0987C19.013 13.0987 19.4123 13.4782 19.4372 14.3456C19.4497 14.8461 19.4539 15.3466 19.4372 15.847C19.4081 16.7437 19.013 17.1649 18.1313 17.1649C12.5623 17.1733 6.99329 17.1733 1.42846 17.1649C0.580005 17.1649 0.184893 16.7228 0.184893 15.8595C0.184893 15.3424 0.180734 14.8211 0.184893 14.3039C0.193211 13.4949 0.588323 13.0945 1.39102 13.0945C4.1984 13.0945 7.00577 13.0987 9.8173 13.0987Z" fill="#56C0F1"/>
<path d="M5.99612 18.4385C7.49338 18.4385 8.99481 18.4343 10.4921 18.4385C11.536 18.4427 11.9353 18.8347 11.9477 19.8648C11.9519 20.2986 11.9561 20.7281 11.9477 21.1618C11.9228 22.1252 11.4986 22.5381 10.5337 22.5381C8.17131 22.5423 5.81312 22.5381 3.45076 22.5381C2.777 22.5381 2.10738 22.5506 1.43361 22.534C0.568528 22.5173 0.173416 22.1086 0.169257 21.2536C0.165098 20.7198 0.165098 20.1818 0.169257 19.6479C0.181734 18.8472 0.585164 18.4427 1.39202 18.4385C2.93088 18.4343 4.46142 18.4385 5.99612 18.4385Z" fill="#56C0F1"/>
</svg>
