<svg width="120" height="26" viewBox="0 0 120 26" fill="none" xmlns="http://www.w3.org/2000/svg">
<path d="M8.23222 6.96924L7.24127 10.5701L12.9132 6.94875L9.20366 20.6131L12.9711 20.6162L18.4512 0.43335" fill="#3395FF"/>
<path d="M2.12882 14.8721L0.568481 20.6167H8.29029L11.45 8.93069L2.12882 14.8721ZM28.9516 9.81461C28.7629 10.5072 28.3992 11.0159 27.8569 11.3408C27.3158 11.6651 26.5564 11.8278 25.5761 11.8278H22.4617L23.5552 7.80266H26.6696C27.6486 7.80266 28.3212 7.96416 28.6861 8.29338C29.051 8.6226 29.1391 9.12574 28.9516 9.82144M32.1761 9.73448C32.5725 8.28096 32.4089 7.16286 31.6841 6.38019C30.9606 5.60374 29.6909 5.2124 27.8789 5.2124H20.9284L16.7445 20.6235H20.1212L21.8074 14.4118H24.0221C24.5191 14.4118 24.9105 14.4926 25.1961 14.6479C25.4824 14.8094 25.6504 15.0889 25.702 15.4927L26.3047 20.6235H29.9224L29.3361 15.8405C29.2165 14.7721 28.7214 14.1447 27.8512 13.9584C28.9604 13.6416 29.8897 13.1136 30.6384 12.3806C31.3819 11.653 31.9131 10.7411 32.1761 9.74069M40.3843 15.1076C40.1012 16.1511 39.667 16.94 39.08 17.4928C38.4924 18.0457 37.7902 18.319 36.971 18.319C36.1368 18.319 35.5711 18.0519 35.2723 17.5115C34.9728 16.971 34.9627 16.1884 35.2408 15.1635C35.5189 14.1385 35.9625 13.3372 36.5728 12.7596C37.1831 12.1819 37.8966 11.893 38.7157 11.893C39.5337 11.893 40.0936 12.1726 40.3767 12.7273C40.6662 13.2844 40.6725 14.0814 40.3893 15.1187L40.3843 15.1076ZM41.8641 9.65373L41.4413 11.2129C41.2588 10.6538 40.9046 10.2066 40.3811 9.87114C39.8564 9.54192 39.2071 9.37421 38.4326 9.37421C37.4826 9.37421 36.5703 9.61646 35.6957 10.101C34.8212 10.5855 34.0536 11.2688 33.3992 12.1508C32.7449 13.0329 32.2667 14.0329 31.9584 15.1572C31.6564 16.2878 31.5935 17.2754 31.776 18.1326C31.9647 18.996 32.3611 19.6545 32.9714 20.1141C33.588 20.58 34.3745 20.8098 35.3371 20.8098C36.102 20.8137 36.8583 20.6503 37.5518 20.3315C38.2374 20.0262 38.8472 19.5768 39.3386 19.0147L38.8982 20.6396H42.1636L45.1452 9.65932H41.8735L41.8641 9.65373ZM56.8793 9.65373H47.3832L46.7194 12.1011H52.2448L44.9401 18.3314L44.316 20.6297H54.1185L54.7822 18.1823H48.8617L56.2784 11.8589M65.2378 15.0889C64.944 16.1697 64.508 16.9822 63.9323 17.5115C63.3566 18.0457 62.6595 18.3128 61.8409 18.3128C60.1296 18.3128 59.5671 17.2381 60.151 15.0889C60.4404 14.0205 60.8783 13.2174 61.4634 12.6763C62.0485 12.1334 62.7576 11.8626 63.5913 11.8626C64.4092 11.8626 64.9616 12.1316 65.246 12.6732C65.5304 13.2136 65.5278 14.0193 65.2378 15.0877M67.1492 10.0668C66.3974 9.60466 65.4379 9.37358 64.2676 9.37358C63.0829 9.37358 61.9862 9.60341 60.9771 10.0631C59.9721 10.5199 59.0888 11.2017 58.3975 12.0545C57.6865 12.9179 57.175 13.9304 56.861 15.0858C56.5527 16.2368 56.515 17.2475 56.7541 18.1127C56.9931 18.9762 57.4965 19.6408 58.2515 20.1005C59.0128 20.5639 59.9817 20.7943 61.1708 20.7943C62.3411 20.7943 63.4296 20.562 64.4299 20.0999C65.4303 19.6352 66.286 18.9755 66.997 18.1059C67.7079 17.24 68.2175 16.23 68.5321 15.0746C68.8467 13.9193 68.8845 12.9105 68.6454 12.0433C68.4063 11.1799 67.9092 10.5153 67.1605 10.0525M78.8065 12.5869L79.6433 9.59907C79.3602 9.4562 78.989 9.38166 78.5234 9.38166C77.7747 9.38166 77.0574 9.56428 76.3653 9.93449C75.7701 10.2488 75.2643 10.6923 74.8364 11.2476L75.2706 9.63882L74.3224 9.64255H71.9945L68.9933 20.6185H72.3046L73.8618 14.8808C74.0883 14.0466 74.496 13.39 75.0843 12.9242C75.6694 12.4564 76.3993 12.2222 77.2801 12.2222C77.8212 12.2222 78.3245 12.3446 78.8027 12.5887M88.0201 15.1417C87.7369 16.1666 87.3091 16.9493 86.724 17.4897C86.1388 18.0326 85.4342 18.3034 84.6163 18.3034C83.7983 18.3034 83.2384 18.0301 82.9427 17.4835C82.6407 16.9338 82.6344 16.1418 82.9175 15.1007C83.2006 14.0603 83.6348 13.2621 84.2325 12.7092C84.8302 12.1521 85.5348 11.8738 86.3528 11.8738C87.1581 11.8738 87.6992 12.1595 87.9886 12.7372C88.278 13.3149 88.2843 14.1162 88.0062 15.1411M90.3216 10.0848C89.7081 9.60031 88.9248 9.35805 87.9748 9.35805C87.1424 9.35805 86.349 9.5444 85.5965 9.92083C84.8446 10.2966 84.2343 10.8091 83.7656 11.4576L83.7769 11.3831L84.3325 9.63758H81.0986L80.2743 12.6751L80.2492 12.7807L76.8517 25.2934H80.1674L81.8787 18.9948C82.0486 19.5551 82.3947 19.9949 82.9232 20.3129C83.4517 20.6297 84.1041 20.7869 84.8799 20.7869C85.8425 20.7869 86.7611 20.557 87.6325 20.0974C88.507 19.6365 89.262 18.9731 89.9038 18.1159C90.5456 17.2586 91.0218 16.2648 91.3257 15.1405C91.634 14.0143 91.6969 13.0099 91.5208 12.1309C91.3415 11.2507 90.9445 10.5693 90.3316 10.0873M101.32 15.097C101.037 16.1343 100.603 16.9294 100.018 17.4761C99.4326 18.0264 98.7279 18.3003 97.91 18.3003C97.0732 18.3003 96.507 18.0332 96.2112 17.4928C95.9092 16.9524 95.9029 16.1697 96.1798 15.1448C96.4566 14.1199 96.8983 13.3186 97.5086 12.7409C98.1189 12.1632 98.833 11.875 99.6522 11.875C100.47 11.875 101.024 12.1545 101.313 12.7074C101.603 13.2621 101.604 14.059 101.323 15.0989L101.32 15.097ZM102.799 9.64006L102.375 11.1992C102.193 10.637 101.84 10.1898 101.318 9.85747C100.79 9.52577 100.142 9.36054 99.3678 9.36054C98.4177 9.36054 97.5004 9.60279 96.6246 10.0873C95.7501 10.5718 94.9825 11.2514 94.3281 12.1309C93.6738 13.0105 93.1956 14.0131 92.8873 15.1374C92.5822 16.266 92.5224 17.2555 92.7049 18.1165C92.8892 18.9737 93.2862 19.6358 93.9003 20.098C94.5131 20.5577 95.3034 20.79 96.266 20.79C97.0399 20.79 97.7791 20.6309 98.4807 20.3117C99.1647 20.005 99.7729 19.555 100.263 18.9929L99.8227 20.6191H103.088L106.069 9.64317H102.804L102.799 9.64006ZM119.778 9.64379L119.78 9.64068H117.773C117.709 9.64068 117.652 9.64379 117.594 9.64503H116.552L116.018 10.378L115.885 10.5519L115.829 10.6389L111.598 16.458L110.723 9.64379H107.258L109.013 19.9986L105.137 25.2971H108.591L109.529 23.9846C109.555 23.9461 109.579 23.9138 109.611 23.8728L110.705 22.3385L110.737 22.295L115.64 15.4312L119.774 9.65435L119.78 9.65062H119.778V9.64379Z" fill="#072654"/>
</svg>
