<svg width="128" height="30" viewBox="0 0 128 30" fill="none" xmlns="http://www.w3.org/2000/svg">
<path d="M87.3114 18.9937C87.3114 20.1325 87.2611 21.2743 87.3262 22.4101C87.3795 23.3217 87.19 23.7103 86.1416 23.7013C82.647 23.6744 82.6529 23.7223 82.6411 20.2551C82.6381 18.8204 82.6736 17.3797 82.5552 15.954C82.4219 14.3429 81.7585 13.778 80.3103 13.784C78.8888 13.7899 78.0358 14.5491 77.9796 16.0885C77.9055 18.1658 77.9114 20.2491 77.9766 22.3264C78.0092 23.3307 77.7486 23.7013 76.6765 23.6984C73.2677 23.6924 73.2796 23.7372 73.2648 20.3119C73.2588 18.7785 73.3536 17.2452 73.1404 15.7148C72.9479 14.328 72.1275 13.7601 70.8156 13.7959C69.468 13.8348 68.6773 14.5671 68.6299 15.9061C68.5529 18.0821 68.5233 20.264 68.5766 22.44C68.6033 23.4323 68.2775 23.6864 67.3209 23.6954C63.8292 23.7282 63.8292 23.7611 63.8322 20.2312C63.8322 18.9429 63.85 17.6577 63.8352 16.3694C63.8055 13.4014 65.2271 11.2463 67.7 9.83854C70.1551 8.43971 72.631 8.66986 74.9143 10.3317C75.4711 10.7352 75.7999 10.6515 76.3181 10.2899C78.6281 8.67883 81.0803 8.45466 83.5443 9.86843C85.9462 11.2434 87.2344 13.3595 87.2759 16.1781C87.2907 17.1196 87.2789 18.0582 87.2789 18.9997C87.2966 18.9937 87.3025 18.9937 87.3114 18.9937Z" fill="#303069"/>
<path d="M62.0288 19.513C62.0288 19.8597 62.0288 20.2034 62.0288 20.5501C62.0318 24.0024 61.9104 24.107 58.3979 23.6706C58.2528 23.6527 58.007 23.6826 57.9744 23.6108C57.24 22.0476 56.2419 23.282 55.4394 23.4345C52.8717 23.9217 50.4106 23.8141 48.687 21.6501C46.8597 19.3545 46.531 16.7153 47.5468 13.8399C49.146 9.32658 55.309 6.86368 59.861 11.3172C61.2914 12.7161 61.9489 14.638 62.0022 16.6944C62.0259 17.6329 62.0051 18.5714 62.0051 19.51C62.017 19.513 62.0229 19.513 62.0288 19.513ZM57.4414 16.3835C57.4414 14.4287 56.1235 12.9612 54.3791 12.9761C52.6703 12.994 51.3406 14.5214 51.3583 16.4493C51.3791 18.4877 52.6348 19.8686 54.4413 19.8417C56.2864 19.8178 57.4414 18.4818 57.4414 16.3835Z" fill="#303069"/>
<path d="M127.692 16.3733C127.698 20.8328 124.739 23.6006 120.036 23.6873C115.689 23.768 112.295 20.6296 112.434 16.3135C112.57 12.0303 115.573 9.0384 120.022 8.9846C124.141 8.93378 128.041 12.1858 127.692 16.3733ZM117.039 16.3643C117.048 18.4835 118.313 20.0438 120.028 20.0527C121.76 20.0617 123.066 18.5014 123.072 16.4211C123.078 14.2511 121.87 12.8583 120.004 12.8822C118.2 12.9091 117.03 14.281 117.039 16.3643Z" fill="#303069"/>
<path d="M96.625 9.005C100.925 9.00799 104.325 11.8535 104.304 16.3967C104.284 20.7845 101.313 23.5852 96.7168 23.6898C91.8717 23.8004 89.0108 20.2913 89.0049 16.3578C88.999 12.1554 92.2478 9.01098 96.625 9.005ZM93.7227 16.322C93.7019 18.6384 94.7651 20.0163 96.5954 20.0462C98.4286 20.0761 99.7465 18.5189 99.7405 16.3309C99.7376 14.3373 98.4671 12.9056 96.6872 12.8936C94.7888 12.8757 93.7434 14.0862 93.7227 16.322Z" fill="#303069"/>
<path d="M7.49103 18.7935C7.60357 16.9882 7.31926 14.9945 8.17515 13.0128C9.84843 9.13615 15.1111 7.90171 18.1082 10.1076C20.2317 11.6708 21.2356 13.5718 21.3037 16.0825C21.363 18.2585 21.3037 20.4344 21.3422 22.6104C21.3541 23.3516 21.1379 23.6356 20.3501 23.6804C16.8614 23.8807 16.8673 23.9076 16.8614 20.3746C16.8584 18.9399 16.9058 17.5023 16.7903 16.0765C16.6571 14.4565 15.7923 13.7421 14.2789 13.784C12.81 13.8258 11.9867 14.6269 11.9393 16.2559C11.8801 18.3302 11.886 20.4105 11.9393 22.4878C11.963 23.3875 11.6787 23.6685 10.7695 23.6864C7.49103 23.7522 7.49103 23.785 7.49103 20.4703C7.49103 19.9801 7.49103 19.4839 7.49103 18.7935Z" fill="#303069"/>
<path d="M30.5145 8.99612C31.9627 8.97819 33.4938 9.27708 34.9865 9.83602C35.6676 10.0901 35.8335 10.4338 35.4189 11.0436C35.3093 11.205 35.1671 11.3723 35.1257 11.5547C34.7644 13.1657 33.9766 13.5931 32.4247 12.81C31.5096 12.3497 30.399 12.4962 29.3654 12.5859C28.7494 12.6397 28.1275 12.825 28.0712 13.5513C28.012 14.3105 28.7139 14.2985 29.2114 14.439C30.5826 14.8246 32.0279 14.8276 33.3783 15.3686C35.4603 16.2055 36.1504 17.0514 36.1474 19.054C36.1444 21.0715 35.2264 22.4494 33.2984 23.0861C30.2954 24.0784 27.2746 23.7496 24.2775 23.0024C23.4157 22.7872 23.0544 22.2522 23.5667 21.3435C23.7799 20.9639 23.8717 20.5096 23.9932 20.0822C24.2182 19.2901 24.6536 19.1138 25.4206 19.4336C26.8481 20.0314 28.3733 20.1778 29.9015 20.1449C30.4731 20.133 31.2194 20.0613 31.3349 19.3529C31.4622 18.5787 30.6981 18.4173 30.1621 18.2768C28.785 17.9152 27.3901 17.6282 25.9981 17.3293C24.6536 17.0424 23.8214 16.2862 23.5845 14.8814C23.3357 13.4138 23.3268 12.009 24.5085 10.9031C26.1551 9.3548 28.1897 8.92439 30.5145 8.99612Z" fill="#303069"/>
<path d="M37.7368 13.3469C37.7368 11.5176 37.7694 9.6854 37.722 7.85914C37.6983 6.97142 37.9767 6.58286 38.8978 6.65758C39.6293 6.71736 40.3756 6.71437 41.11 6.66057C41.9778 6.59481 42.4368 6.86083 42.2947 7.81132C42.1525 8.76779 42.653 8.98299 43.5059 8.96805C44.1012 8.95908 45.0311 8.6004 45.2444 9.26694C45.5672 10.2772 45.5553 11.4519 45.2414 12.4771C45.0756 13.0151 44.2523 12.776 43.7517 12.7192C42.5582 12.5847 42.1851 13.0659 42.271 14.2226C42.3598 15.4541 42.271 16.6945 42.3035 17.9289C42.345 19.4653 42.887 19.9196 44.4122 19.8658C46.2276 19.8 45.7182 21.4888 46.1625 22.3945C46.66 23.4107 45.6057 23.2911 45.0756 23.4436C43.4052 23.9188 41.7053 23.7604 40.1505 23.1297C38.5335 22.4752 38.0211 20.891 37.8286 19.274C37.7131 18.2966 37.7664 17.2983 37.7576 16.3119C37.7487 15.3226 37.7546 14.3332 37.7546 13.3439C37.7487 13.3469 37.7427 13.3469 37.7368 13.3469Z" fill="#303069"/>
<path d="M110.634 17.3799C110.634 19.7561 110.691 22.1323 110.62 24.5086C110.54 27.1329 109.171 28.8067 106.956 29.4433C105.834 29.7662 105.203 29.4015 104.981 28.3673C104.821 27.6171 103.63 26.7593 104.522 26.1794C106.124 25.1303 106.085 23.6328 106.106 22.1323C106.162 18.2706 106.177 14.4089 106.1 10.5501C106.077 9.31569 106.426 8.94506 107.661 8.96897C110.661 9.02576 110.661 8.96598 110.661 12.0356C110.661 13.8171 110.661 15.5985 110.661 17.3829C110.652 17.3799 110.643 17.3799 110.634 17.3799Z" fill="#303069"/>
<path d="M5.28373 10.6624C5.29558 14.6677 5.2867 18.6729 5.33704 22.6781C5.34889 23.6286 4.93131 24.041 4.08134 24.1546C3.74076 24.1994 3.39722 24.2234 3.05368 24.2293C0.459354 24.2742 0.163198 23.9932 0.166159 21.4376C0.172083 17.827 0.192813 14.2163 0.20466 10.6086C1.89275 11.0331 3.58676 11.1287 5.28373 10.6624Z" fill="#303069"/>
<path d="M5.21019 3.22239C5.16281 4.79159 4.33061 5.65242 2.85279 5.65839C1.44013 5.66138 0.341392 4.52558 0.371007 3.09685C0.397661 1.78171 1.68298 0.469558 2.90906 0.502436C4.21215 0.538304 5.25462 1.76976 5.21019 3.22239Z" fill="#D95C37"/>
<path d="M5.28238 10.6622C3.58541 11.1285 1.8914 11.0329 0.203308 10.6084C0.591272 8.60881 2.17867 9.06911 3.47287 9.04819C4.48572 9.03324 5.33273 9.38594 5.28238 10.6622Z" fill="#D95C37"/>
</svg>
