<svg width="69" height="22" viewBox="0 0 69 22" fill="none" xmlns="http://www.w3.org/2000/svg">
<path d="M29.2678 7.57373C25.495 7.57373 22.434 10.6364 22.434 14.3927C22.434 18.149 25.5033 21.2116 29.2678 21.2116C33.0323 21.2116 36.1016 18.149 36.1016 14.3927C36.1016 10.6364 33.0405 7.57373 29.2678 7.57373ZM29.2678 17.9845C27.2866 17.9845 25.6736 16.375 25.6736 14.3982C25.6736 12.4213 27.2866 10.8118 29.2678 10.8118C31.2489 10.8118 32.8619 12.4213 32.8619 14.3982C32.8619 16.375 31.2489 17.9845 29.2678 17.9845Z" fill="black"/>
<path d="M52.0029 5.21377C53.179 5.21377 54.1352 4.26235 54.1352 3.08611C54.1352 1.90986 53.179 0.961182 52.0029 0.961182C50.8268 0.961182 49.8706 1.9126 49.8706 3.08885C49.8706 4.2651 50.8268 5.21377 52.0029 5.21377Z" fill="black"/>
<path d="M15.3237 7.58224C15.145 7.56853 14.9747 7.5603 14.7988 7.5603C13.1501 7.5603 11.5866 8.23479 10.4655 9.42475C9.34441 8.24028 7.78641 7.5603 6.15421 7.5603C2.88431 7.56304 0.22168 10.2117 0.22168 13.4744V20.9377H3.41738V13.5649C3.41738 12.2105 4.533 10.9629 5.84645 10.8286C5.93988 10.8203 6.03055 10.8149 6.11574 10.8149C7.59406 10.8149 8.80035 12.0185 8.80859 13.4936V20.935H12.0757V13.5512C12.0757 12.205 13.1831 10.9574 14.5048 10.8231C14.5982 10.8149 14.6889 10.8094 14.7741 10.8094C16.2524 10.8094 17.4669 12.0076 17.4724 13.4744V20.9377H20.7396V13.5649C20.7396 12.0706 20.1845 10.6284 19.1843 9.51797C18.1869 8.3993 16.8157 7.7111 15.3237 7.58224Z" fill="black"/>
<path d="M41.1401 1.27771H37.873V20.9477H41.1401V1.27771ZM47.3942 1.27771H44.127V20.9477H47.3942V1.27771ZM53.6454 7.89925H50.3783V20.9422H53.6454V7.89925Z" fill="black"/>
<path d="M68.9164 14.0886C68.9164 12.3585 68.2405 10.7299 67.0204 9.48781C65.7922 8.2485 64.171 7.5603 62.4453 7.5603H62.3601C60.5713 7.58224 58.8787 8.28963 57.6147 9.5591C56.3507 10.8286 55.639 12.5066 55.6198 14.2997C55.5978 16.1285 56.3012 17.8586 57.6009 19.1692C58.9006 20.4798 60.6208 21.2037 62.4536 21.2037H62.4618C64.8634 21.2037 67.1139 19.9205 68.3449 17.8586L68.5015 17.5954L65.8032 16.2711L65.6685 16.4905C64.9871 17.6037 63.8165 18.2617 62.5168 18.2617C60.8543 18.2617 59.42 17.1567 58.9776 15.5829H68.9164V14.0886ZM62.3162 10.5215C63.8082 10.5215 65.1437 11.5003 65.6136 12.8877H59.0271C59.4887 11.5003 60.8241 10.5215 62.3162 10.5215Z" fill="black"/>
</svg>
