<svg width="18" height="18" viewBox="0 0 18 18" fill="none" xmlns="http://www.w3.org/2000/svg">
<path d="M11.5 12.3333L11.3529 13.0688C11.6846 13.1351 12.0196 12.9713 12.1708 12.6687L11.5 12.3333ZM5.66667 6.5L5.33126 5.82918C5.02875 5.98043 4.8649 6.31544 4.93123 6.64709L5.66667 6.5ZM5.96168 6.35249L6.29709 7.02331L5.96168 6.35249ZM6.76379 4.2428L7.46014 3.96425L6.76379 4.2428ZM6.08574 2.54768L5.38938 2.82623V2.82623L6.08574 2.54768ZM15.4523 11.9143L15.1738 12.6106L15.4523 11.9143ZM13.7572 11.2362L14.0357 10.5399L13.7572 11.2362ZM11.6475 12.0383L12.3183 12.3737L12.3183 12.3737L11.6475 12.0383ZM12.4167 8.16667C12.4167 8.58088 12.7525 8.91667 13.1667 8.91667C13.5809 8.91667 13.9167 8.58088 13.9167 8.16667H12.4167ZM12.9129 6.89105L13.6058 6.60404V6.60404L12.9129 6.89105ZM11.1089 5.08707L11.396 4.39416L11.1089 5.08707ZM9.83333 4.08333C9.41912 4.08333 9.08333 4.41912 9.08333 4.83333C9.08333 5.24755 9.41912 5.58333 9.83333 5.58333V4.08333ZM15.75 8.16667C15.75 8.58088 16.0858 8.91667 16.5 8.91667C16.9142 8.91667 17.25 8.58088 17.25 8.16667H15.75ZM15.9925 5.61544L16.6854 5.32843L15.9925 5.61544ZM12.3846 2.00747L12.6716 1.31456V1.31456L12.3846 2.00747ZM9.83333 0.75C9.41912 0.75 9.08333 1.08579 9.08333 1.5C9.08333 1.91421 9.41912 2.25 9.83333 2.25V0.75ZM15.75 13.4617V14.8333H17.25V13.4617H15.75ZM3.16667 2.25H4.53828V0.75H3.16667V2.25ZM11.5 12.3333C11.6471 11.5979 11.6473 11.5979 11.6475 11.598C11.6476 11.598 11.6478 11.598 11.6479 11.5981C11.6481 11.5981 11.6483 11.5981 11.6485 11.5982C11.6488 11.5982 11.649 11.5983 11.6491 11.5983C11.6493 11.5983 11.649 11.5983 11.6482 11.5981C11.6467 11.5978 11.6432 11.5971 11.6379 11.5959C11.6272 11.5935 11.6092 11.5894 11.5845 11.5834C11.535 11.5714 11.4586 11.5516 11.3601 11.5227C11.1627 11.4646 10.8787 11.3701 10.5454 11.2273C9.87542 10.9402 9.02725 10.4666 8.28033 9.71967L7.21967 10.7803C8.13942 11.7001 9.16625 12.2682 9.95456 12.606C10.3504 12.7757 10.6914 12.8895 10.9368 12.9617C11.0597 12.9978 11.1591 13.0237 11.23 13.0409C11.2654 13.0496 11.2938 13.056 11.3145 13.0606C11.3249 13.0629 11.3333 13.0647 11.3397 13.066C11.3429 13.0667 11.3456 13.0673 11.3478 13.0677C11.3489 13.068 11.3499 13.0682 11.3508 13.0683C11.3512 13.0684 11.3516 13.0685 11.3519 13.0686C11.3521 13.0686 11.3524 13.0687 11.3524 13.0687C11.3527 13.0687 11.3529 13.0688 11.5 12.3333ZM8.28033 9.71967C7.53341 8.97275 7.05984 8.12458 6.77269 7.45456C6.62985 7.12127 6.53537 6.83726 6.47734 6.63994C6.44837 6.54144 6.42863 6.46505 6.41658 6.41551C6.41055 6.39076 6.40647 6.37276 6.40412 6.36211C6.40294 6.35679 6.4022 6.35331 6.40187 6.35175C6.40171 6.35098 6.40165 6.35068 6.40169 6.35087C6.40171 6.35096 6.40175 6.35118 6.40182 6.35152C6.40186 6.35169 6.4019 6.35189 6.40194 6.35212C6.40197 6.35224 6.40201 6.35244 6.40202 6.35249C6.40206 6.3527 6.4021 6.35291 5.66667 6.5C4.93123 6.64709 4.93128 6.64732 4.93132 6.64755C4.93134 6.64764 4.93139 6.64789 4.93143 6.64807C4.9315 6.64843 4.93158 6.64882 4.93166 6.64924C4.93184 6.65009 4.93204 6.65106 4.93226 6.65217C4.93271 6.65437 4.93328 6.65709 4.93395 6.6603C4.9353 6.66673 4.93711 6.67515 4.93939 6.68549C4.94396 6.70618 4.95045 6.73457 4.95907 6.77004C4.97632 6.84094 5.00215 6.94033 5.03829 7.06319C5.11046 7.30857 5.22431 7.64956 5.39397 8.04544C5.73182 8.83375 6.29992 9.86058 7.21967 10.7803L8.28033 9.71967ZM6.00208 7.17082L6.29709 7.02331L5.62627 5.68167L5.33126 5.82918L6.00208 7.17082ZM7.46014 3.96425L6.7821 2.26914L5.38938 2.82623L6.06743 4.52134L7.46014 3.96425ZM15.7309 11.2179L14.0357 10.5399L13.4787 11.9326L15.1738 12.6106L15.7309 11.2179ZM10.9767 11.7029L10.8292 11.9979L12.1708 12.6687L12.3183 12.3737L10.9767 11.7029ZM14.0357 10.5399C12.8688 10.0731 11.5388 10.5787 10.9767 11.7029L12.3183 12.3737C12.5315 11.9473 13.036 11.7555 13.4787 11.9326L14.0357 10.5399ZM6.29709 7.02331C7.42128 6.46122 7.92694 5.13124 7.46014 3.96425L6.06743 4.52134C6.24449 4.96399 6.05269 5.46846 5.62627 5.68167L6.29709 7.02331ZM4.53828 2.25C4.91311 2.25 5.25017 2.47821 5.38938 2.82623L6.7821 2.26914C6.41509 1.35163 5.52647 0.75 4.53828 0.75V2.25ZM17.25 13.4617C17.25 12.4735 16.6484 11.5849 15.7309 11.2179L15.1738 12.6106C15.5218 12.7498 15.75 13.0869 15.75 13.4617H17.25ZM14.8333 15.75C7.88375 15.75 2.25 10.1162 2.25 3.16667H0.75C0.75 10.9447 7.05532 17.25 14.8333 17.25V15.75ZM14.8333 17.25C16.168 17.25 17.25 16.168 17.25 14.8333H15.75C15.75 15.3396 15.3396 15.75 14.8333 15.75V17.25ZM2.25 3.16667C2.25 2.66041 2.66041 2.25 3.16667 2.25V0.75C1.83198 0.75 0.75 1.83198 0.75 3.16667H2.25ZM13.9167 8.16667C13.9167 7.63044 13.811 7.09946 13.6058 6.60404L12.22 7.17807C12.3498 7.49149 12.4167 7.82742 12.4167 8.16667H13.9167ZM13.6058 6.60404C13.4006 6.10863 13.0999 5.65849 12.7207 5.27931L11.66 6.33997C11.8999 6.57986 12.0902 6.86464 12.22 7.17807L13.6058 6.60404ZM12.7207 5.27931C12.3415 4.90014 11.8914 4.59937 11.396 4.39416L10.8219 5.77998C11.1354 5.9098 11.4201 6.10009 11.66 6.33997L12.7207 5.27931ZM11.396 4.39416C10.9005 4.18895 10.3696 4.08333 9.83333 4.08333V5.58333C10.1726 5.58333 10.5085 5.65015 10.8219 5.77998L11.396 4.39416ZM17.25 8.16667C17.25 7.1927 17.0582 6.22826 16.6854 5.32843L15.2996 5.90246C15.597 6.6203 15.75 7.38968 15.75 8.16667H17.25ZM16.6854 5.32843C16.3127 4.4286 15.7664 3.61099 15.0777 2.92229L14.017 3.98295C14.5665 4.53236 15.0023 5.18461 15.2996 5.90246L16.6854 5.32843ZM15.0777 2.92229C14.389 2.23359 13.5714 1.68728 12.6716 1.31456L12.0975 2.70038C12.8154 2.99772 13.4676 3.43354 14.017 3.98295L15.0777 2.92229ZM12.6716 1.31456C11.7717 0.941838 10.8073 0.75 9.83333 0.75V2.25C10.6103 2.25 11.3797 2.40304 12.0975 2.70038L12.6716 1.31456Z" fill="#7166F0"/>
</svg>
