<svg width="62" height="56" viewBox="0 0 62 56" fill="none" xmlns="http://www.w3.org/2000/svg">
<path d="M15.9072 44.5457C11.832 44.5457 8.20738 41.9366 6.89141 38.0524L6.80232 37.7597C6.49179 36.7313 6.36197 35.8659 6.36197 35.0005V17.646L0.18686 38.2586C-0.607301 41.2901 1.20247 44.4337 4.23912 45.2711L43.5984 55.8116C44.0897 55.9388 44.581 55.9999 45.0646 55.9999C47.5998 55.9999 49.9161 54.3174 50.5652 51.8382L52.8586 44.5457H15.9072Z" fill="#C8C8C8"/>
<path d="M22.9072 17.8178C25.7147 17.8178 27.998 15.5346 27.998 12.727C27.998 9.91944 25.7147 7.63623 22.9072 7.63623C20.0996 7.63623 17.8164 9.91944 17.8164 12.727C17.8164 15.5346 20.0996 17.8178 22.9072 17.8178Z" fill="#C8C8C8"/>
<path d="M54.723 0H16.5422C13.0346 0 10.1787 2.85593 10.1787 6.36347V34.3627C10.1787 37.8703 13.0346 40.7262 16.5422 40.7262H54.723C58.2305 40.7262 61.0865 37.8703 61.0865 34.3627V6.36347C61.0865 2.85593 58.2305 0 54.723 0ZM16.5422 5.09078H54.723C55.4255 5.09078 55.9957 5.66094 55.9957 6.36347V24.4332L47.9548 15.0509C47.1021 14.0505 45.8676 13.516 44.5414 13.4855C43.2229 13.4931 41.9859 14.0785 41.1408 15.0916L31.6872 26.4389L28.6073 23.3667C26.8663 21.6256 24.0333 21.6256 22.2948 23.3667L15.2695 30.3894V6.36347C15.2695 5.66094 15.8397 5.09078 16.5422 5.09078Z" fill="#C8C8C8"/>
</svg>
