<svg width="33" height="32" viewBox="0 0 33 32" fill="none" xmlns="http://www.w3.org/2000/svg">
<path d="M18.1998 28.8416H28.2722V30.9291H18.1998V28.8416Z" fill="#DAE8F0"/>
<path d="M26.5383 14.5019V7.27283H23.6676V11.5749" fill="#DAE8F0"/>
<path d="M21.2427 14.9694C21.2427 16.4316 20.056 17.6183 18.5938 17.6183C17.1316 17.6183 15.9449 16.4316 15.9449 14.9694C15.9449 13.4966 17.1316 12.3099 18.5938 12.3099C20.056 12.3099 21.2427 13.4966 21.2427 14.9694Z" fill="#5BBE88"/>
<path d="M31.4171 30.4271H28.7686V17.4952L31.1922 19.9707C31.3874 20.1698 31.7036 20.1697 31.8987 19.9785C32.0958 19.7853 32.0992 19.4691 31.9065 19.272C31.7183 19.0797 27.3807 14.6492 27.0379 14.2991V7.27266C27.0379 6.99649 26.8144 6.77302 26.5383 6.77302H23.6677C23.3916 6.77302 23.1681 6.99649 23.1681 7.27266V10.3463L19.3105 6.40609C19.1221 6.21384 18.7845 6.21384 18.5961 6.40609C16.7941 8.24674 9.16866 16.0355 6.00011 19.2719C5.80738 19.4691 5.81079 19.7853 6.00792 19.9785C6.20505 20.1712 6.52123 20.1683 6.71445 19.9707L9.13802 17.4952V30.4271H6.48951C6.21335 30.4271 5.98987 30.6506 5.98987 30.9268C5.98987 31.2029 6.21335 31.4264 6.48951 31.4264C6.54003 31.4264 33.1056 31.4314 31.4171 31.4264C31.6933 31.4264 31.9168 31.2029 31.9168 30.9268C31.9168 30.6506 31.6933 30.4271 31.4171 30.4271ZM24.1674 7.77231H26.0386V13.2783L24.1674 11.367V7.77231ZM10.1373 16.4745L18.9533 7.46979C21.9198 10.4998 24.5021 13.1374 27.7693 16.4745V30.4271H18.701V20.9246C18.701 20.6484 18.4776 20.4249 18.2014 20.4249H12.2027C11.9266 20.4249 11.7031 20.6484 11.7031 20.9246V30.4271H10.1373V16.4745ZM12.7024 30.3095V21.4242H17.7018V30.3095H12.7024Z" fill="#7E8BA0"/>
<path d="M16.8119 24.6163H16.6436C16.3674 24.6163 16.1439 24.8397 16.1439 25.1159C16.1439 25.3921 16.3674 25.6156 16.6436 25.6156H16.8119C17.0881 25.6156 17.3115 25.3921 17.3115 25.1159C17.3115 24.8397 17.0881 24.6163 16.8119 24.6163Z" fill="#7E8BA0"/>
<path d="M20.5756 27.0533H26.2044C26.4806 27.0533 26.704 26.8299 26.704 26.5537C26.704 24.5851 26.704 22.8935 26.704 20.9249C26.704 20.6487 26.4806 20.4252 26.2044 20.4252C24.2358 20.4252 22.5442 20.4252 20.5756 20.4252C20.2994 20.4252 20.0759 20.6487 20.0759 20.9249V26.5537C20.0759 26.8299 20.2994 27.0533 20.5756 27.0533ZM21.0752 24.2389H22.8903V26.054H21.0752V24.2389ZM25.7047 26.054H23.8896V24.2389H25.7047V26.054ZM25.7047 23.2396H23.8896V21.4245H25.7047V23.2396ZM21.0752 21.4245H22.8903V23.2396H21.0752V21.4245Z" fill="#7E8BA0"/>
<path d="M25.121 5.46996V4.22421H12.067V5.46996L8.5885 3.02067L12.067 0.571411V1.81716H25.121V0.571411L28.5997 3.02067L25.121 5.46996Z" fill="#7166F0"/>
<path d="M5.47001 4.05008L4.22425 4.05008L4.22424 17.1041L5.47 17.1041L3.02069 20.5826L0.571411 17.1041L1.81717 17.1041L1.81717 4.05006L0.571411 4.05005L3.02069 0.571411L5.47001 4.05008Z" fill="#7166F0"/>
</svg>
