<svg width="31" height="32" viewBox="0 0 31 32" fill="none" xmlns="http://www.w3.org/2000/svg">
<path d="M30.1894 2.93805V30.6613H4.97153C3.8904 30.6613 2.90802 30.2242 2.19825 29.5097C1.87862 29.1901 1.6154 28.8187 1.42737 28.4098C1.93502 28.6495 2.49908 28.7811 3.09135 28.7811H28.3093V2.93805H30.1894Z" fill="#DAE8F0"/>
<path d="M11.476 19.2032V7.56323H26.6422V26.0371H11.476V23.8373V19.2032Z" fill="#7166F0"/>
<path d="M7.9234 3.51595V3.54415C7.56616 3.44546 7.19957 3.39844 6.83292 3.39844C5.71888 3.39844 4.60018 3.8497 3.79641 4.75217C3.52848 5.05771 3.39686 5.46195 3.39686 5.86618V24.9923C2.47088 25.2462 1.62478 25.829 1.04663 26.7362V3.51595C1.04663 3.11172 1.17826 2.70749 1.44619 2.40195C2.24995 1.49947 3.36866 1.04822 4.48266 1.04822C5.60137 1.04822 6.72011 1.49947 7.52387 2.40195C7.79183 2.70749 7.9234 3.11172 7.9234 3.51595Z" fill="#DAE8F0"/>
<path d="M30.1918 2.46102H8.13759C7.64445 1.54814 6.17957 0.571472 4.48532 0.571472C2.75201 0.571472 0.571411 1.72822 0.571411 3.51658V26.737C0.571411 29.1886 2.56414 31.1397 4.97415 31.1397H30.1918C30.4558 31.1397 30.6695 30.9261 30.6695 30.6621V2.93866C30.6695 2.67466 30.4558 2.46102 30.1918 2.46102ZM1.52669 3.51658C1.52669 2.32906 3.28071 1.52674 4.48533 1.52674C5.69132 1.52674 7.44816 2.3259 7.44816 3.51658V25.4622C5.76715 24.0214 3.21151 24.0026 1.52669 25.4571L1.52669 3.51658ZM29.7142 30.1844H4.97415C3.11851 30.1844 1.60645 28.7163 1.53021 26.8846C2.93087 24.8392 5.8641 24.8428 7.31103 26.6945C7.38612 26.7897 7.45656 26.89 7.52326 26.994C7.63754 27.1726 7.85536 27.2556 8.05967 27.1955C8.2635 27.1358 8.40344 26.9492 8.40344 26.737C8.40344 22.1368 8.40344 14.6905 8.40344 3.4163H29.7142L29.7142 30.1844Z" fill="#7E8BA0"/>
<path d="M17.1445 17.2541H15.0493C14.7853 17.2541 14.5717 17.0404 14.5717 16.7764C14.5717 16.5124 14.7853 16.2988 15.0493 16.2988H16.6669V7.56327C16.6669 7.29926 16.8805 7.08563 17.1445 7.08563C17.4086 7.08563 17.6222 7.29926 17.6222 7.56327V16.7764C17.6222 17.0404 17.4086 17.2541 17.1445 17.2541Z" fill="white"/>
<path d="M13.0249 17.2543H11.4763C11.2123 17.2543 10.9987 17.0407 10.9987 16.7766C10.9987 16.5126 11.2123 16.299 11.4763 16.299H13.0249C13.2889 16.299 13.5025 16.5126 13.5025 16.7766C13.5025 17.0407 13.2889 17.2543 13.0249 17.2543Z" fill="white"/>
<path d="M19.449 14.0417H17.1443C16.8803 14.0417 16.6666 13.8281 16.6666 13.5641C16.6666 13.3001 16.8803 13.0864 17.1443 13.0864H19.449C19.713 13.0864 19.9266 13.3001 19.9266 13.5641C19.9266 13.8281 19.713 14.0417 19.449 14.0417Z" fill="white"/>
<path d="M26.6423 14.0417H21.8235C21.5595 14.0417 21.3458 13.8281 21.3458 13.5641C21.3458 13.3001 21.5595 13.0864 21.8235 13.0864H26.6423C26.9063 13.0864 27.1199 13.3001 27.1199 13.5641C27.1199 13.8281 26.9063 14.0417 26.6423 14.0417Z" fill="white"/>
<path d="M23.0107 15.0786C22.7467 15.0786 22.5331 14.865 22.5331 14.601V13.5641C22.5331 13.3001 22.7467 13.0864 23.0107 13.0864C23.2747 13.0864 23.4884 13.3001 23.4884 13.5641V14.601C23.4884 14.865 23.2747 15.0786 23.0107 15.0786Z" fill="white"/>
<path d="M26.6424 18.6507H22.4519C22.1879 18.6507 21.9742 18.4371 21.9742 18.1731C21.9742 17.9091 22.1879 17.6954 22.4519 17.6954H26.6424C26.9064 17.6954 27.12 17.9091 27.12 18.1731C27.12 18.4371 26.9064 18.6507 26.6424 18.6507Z" fill="white"/>
<path d="M22.4519 19.9428C22.1879 19.9428 21.9742 19.7292 21.9742 19.4652V16.8811C21.9742 16.6171 22.1879 16.4034 22.4519 16.4034C22.7159 16.4034 22.9295 16.6171 22.9295 16.8811V19.4652C22.9295 19.7292 22.7159 19.9428 22.4519 19.9428Z" fill="white"/>
<path d="M21.4392 26.5149C21.1752 26.5149 20.9615 26.3013 20.9615 26.0373V23.4709C20.9615 23.2069 21.1752 22.9933 21.4392 22.9933C21.7032 22.9933 21.9168 23.2069 21.9168 23.4709V26.0373C21.9168 26.3013 21.7032 26.5149 21.4392 26.5149Z" fill="white"/>
</svg>
