<svg width="31" height="29" viewBox="0 0 31 29" fill="none" xmlns="http://www.w3.org/2000/svg">
<path d="M23.7458 1.62921V8.17102L27.4983 11.8508H27.7254V1.62921H23.7458Z" fill="#DAE8F0"/>
<path d="M7.31188 19.9672C7.31188 20.8941 6.83289 21.7063 6.10391 22.1645C5.69776 22.4249 5.21876 22.5707 4.70843 22.5707C4.19817 22.5707 3.71917 22.4249 3.31302 22.1645C2.58404 21.7063 2.10498 20.8941 2.10498 19.9672C2.10498 18.5301 3.27132 17.3638 4.70843 17.3638C6.14554 17.3638 7.31188 18.5301 7.31188 19.9672Z" fill="#7166F0"/>
<path d="M19.566 9.80385C19.566 10.9834 18.9564 12.0172 18.0286 12.6003C17.5117 12.9317 16.9021 13.1172 16.2526 13.1172C15.6032 13.1172 14.9936 12.9317 14.4767 12.6003C13.5489 12.0172 12.9392 10.9834 12.9392 9.80385C12.9392 7.97486 14.4236 6.49048 16.2526 6.49048C18.0816 6.49048 19.566 7.97486 19.566 9.80385Z" fill="#5BBE88"/>
<path d="M30.3425 13.9494L28.2149 11.8634C28.2188 -3.9 28.2169 3.86623 28.2174 1.62926C28.2174 1.35768 27.9975 1.1375 27.7257 1.1375H23.7465C23.4746 1.1375 23.2547 1.35768 23.2547 1.62926V7.00003L16.2586 0.140529C16.0675 -0.0467628 15.7611 -0.0470037 15.57 0.14077L1.49091 13.9494C1.34828 14.0892 1.30457 14.3015 1.37997 14.4866C1.45537 14.6715 1.63546 14.7923 1.83523 14.7923H5.83799V15.7904C5.83799 16.062 6.05794 16.2822 6.32975 16.2822C6.60157 16.2822 6.82152 16.062 6.82152 15.7904V14.3005C6.82152 14.0289 6.60157 13.8087 6.32975 13.8087H3.0387L15.9143 1.18048L23.4015 8.52141C23.4018 8.52168 23.4019 8.52204 23.4021 8.52231C23.4398 8.55928 27.905 12.937 28.7942 13.8087H25.4887C25.2169 13.8087 24.997 14.0289 24.997 14.3005V27.6174H19.725V19.3888C19.725 17.4744 18.1676 15.917 16.2533 15.917C14.3386 15.917 12.7812 17.4744 12.7812 19.3888V27.6174H10.8886C10.6168 27.6174 10.3969 27.8376 10.3969 28.1092C10.3969 28.3808 10.6168 28.6009 10.8886 28.6009H25.4887C25.7606 28.6009 25.9805 28.3808 25.9805 28.1092V14.7923H29.9981C30.1979 14.7923 30.378 14.6715 30.4534 14.4864C30.5288 14.3015 30.4851 14.0892 30.3425 13.9494ZM24.2382 2.12102H27.2339V10.9016L24.2382 7.96434V2.12102ZM13.7648 19.3888C13.7648 18.0168 14.8813 16.9005 16.2533 16.9005C17.6254 16.9005 18.7414 18.0168 18.7414 19.3888V27.5286H13.7648V19.3888Z" fill="#7E8BA0"/>
<path d="M7.24195 22.3289C7.01288 22.1834 6.70889 22.2513 6.56338 22.4804C6.41739 22.7095 6.48558 23.0134 6.71466 23.1592C7.84114 23.8751 8.4291 25.0728 8.4291 26.2947V27.6175H0.983527V26.2947C0.983527 25.0175 1.62608 23.8471 2.70277 23.164C2.93184 23.0185 3.00003 22.7147 2.85452 22.4854C2.70901 22.2559 2.40454 22.1879 2.17547 22.3337C0.81352 23.1981 0 24.6789 0 26.2947V28.1092C0 28.3808 0.21995 28.601 0.491761 28.601H8.92085C9.19266 28.601 9.41261 28.3808 9.41261 28.1092V26.2947C9.41262 24.7152 8.63649 23.2151 7.24195 22.3289Z" fill="#7E8BA0"/>
</svg>
