<svg width="56" height="52" viewBox="0 0 56 52" fill="none" xmlns="http://www.w3.org/2000/svg">
<path d="M46.4054 16.0575L27.1049 3.21863L7.80444 16.0575V49.15H46.4141V16.0575H46.4054Z" fill="#E1EFFB"/>
<path d="M46.4023 16.0575L27.1019 3.21863L23.1406 5.85364L41.5751 18.1164H41.5839V49.15H46.411V16.0575H46.4023Z" fill="#CCDFED"/>
<path d="M4.19787 21.2122L26.7857 6.18653C26.9834 6.05499 27.2407 6.05499 27.4384 6.18653L50.0263 21.2122C50.6624 21.6353 51.4902 21.6353 52.1264 21.2122C53.2541 20.462 53.2541 18.8053 52.1264 18.0552L27.4384 1.6326C27.2408 1.50105 26.9835 1.50105 26.7857 1.6326L2.09786 18.0552C0.970148 18.8053 0.970148 20.462 2.09786 21.2122C2.73388 21.6353 3.56185 21.6353 4.19787 21.2122Z" fill="#FF4C4C"/>
<path d="M27.1079 19.5127C29.4121 19.5127 31.2801 17.6448 31.2801 15.3405C31.2801 13.0363 29.4121 11.1683 27.1079 11.1683C24.8036 11.1683 22.9357 13.0363 22.9357 15.3405C22.9357 17.6448 24.8036 19.5127 27.1079 19.5127Z" fill="#FFB125"/>
<path d="M33.7703 31.1047H20.4458V51.2064H33.7703V31.1047Z" fill="#FFB125"/>
<path d="M33.769 31.1045H27.1068V51.2062H33.769V31.1045Z" fill="#FF901D"/>
<path d="M50.2168 48.0292H3.99829C3.12132 48.0292 2.41028 48.7402 2.41028 49.6173C2.41028 50.4942 3.12121 51.2053 3.99829 51.2053H50.2167C51.0937 51.2053 51.8047 50.4943 51.8047 49.6173C51.8047 48.7403 51.0938 48.0292 50.2168 48.0292Z" fill="#2D5871"/>
<path d="M52.8612 20.2685C52.8735 20.2336 52.886 20.1988 52.8961 20.1635C52.9018 20.1436 52.9059 20.1235 52.911 20.1035C52.9199 20.0679 52.9294 20.0326 52.9363 19.9966C52.9402 19.9766 52.9423 19.9564 52.9454 19.9363C52.9522 19.8899 52.9594 19.8436 52.9628 19.7968C52.966 19.7504 52.9703 19.7043 52.9708 19.6579C52.971 19.6385 52.9695 19.619 52.9692 19.5996C52.9686 19.5608 52.9679 19.5219 52.9649 19.4831C52.9634 19.4641 52.9605 19.4453 52.9584 19.4264C52.9542 19.3871 52.9496 19.348 52.943 19.3089C52.9399 19.2909 52.9356 19.2731 52.932 19.2551C52.9241 19.2156 52.9156 19.1761 52.9052 19.137C52.9005 19.1198 52.8951 19.1029 52.8899 19.0858C52.8782 19.0464 52.8656 19.0073 52.8512 18.9685C52.8452 18.9522 52.8384 18.9362 52.832 18.92C52.8163 18.8811 52.7996 18.8426 52.7812 18.8047C52.7738 18.7893 52.766 18.7742 52.7581 18.759C52.7386 18.7211 52.7176 18.6838 52.6954 18.6471C52.691 18.6398 52.6874 18.6321 52.6829 18.6249C52.6827 18.6253 52.6824 18.6256 52.6822 18.626C52.5452 18.4075 52.3611 18.2111 52.1262 18.0549L49.6597 16.4141L49.3835 16.8383C48.9007 17.5795 47.9061 17.7844 47.1696 17.2946L27.438 4.16938C27.2404 4.03794 26.9831 4.03794 26.7853 4.16938L4.19747 19.195C3.56134 19.6181 2.73348 19.6181 2.09735 19.195C1.86274 19.039 1.67767 18.8433 1.54064 18.6251C1.01876 19.4565 1.20458 20.62 2.09961 21.2137C2.7452 21.6419 3.59251 21.6146 4.23745 21.1855L26.7853 6.18643C26.983 6.05499 27.2403 6.05499 27.438 6.18643L50.0259 21.2121C50.662 21.6352 51.4898 21.6352 52.126 21.2121C52.1748 21.1796 52.2208 21.1448 52.2653 21.109C52.2807 21.0965 52.2958 21.0838 52.3107 21.071C52.339 21.0467 52.3663 21.0217 52.3928 20.9962C52.4088 20.9808 52.4253 20.9657 52.4407 20.9499C52.4726 20.917 52.5031 20.8831 52.5322 20.8485L52.5338 20.8459C52.6296 20.7313 52.7092 20.6078 52.7735 20.4779L52.7776 20.4717C52.7846 20.4575 52.7899 20.4427 52.7965 20.4283C52.812 20.3946 52.8273 20.3611 52.8407 20.3268C52.8482 20.3075 52.8543 20.2879 52.8612 20.2685Z" fill="#F33939"/>
<path d="M51.7944 49.4412C51.7931 49.4295 51.7907 49.4182 51.7891 49.4066C51.7828 49.3588 51.7747 49.3116 51.7642 49.2652C51.7623 49.257 51.7599 49.249 51.758 49.2409C51.7456 49.1901 51.7309 49.1405 51.7138 49.0918C51.7127 49.0887 51.7115 49.0856 51.7103 49.0824C51.6912 49.029 51.6694 48.9771 51.6448 48.9265V48.9264C51.3876 48.396 50.8457 48.0294 50.2167 48.0294H46.9775V48.7381C46.9775 49.3375 46.4916 49.8234 45.8922 49.8234H3.99829C3.36936 49.8234 2.82737 49.4568 2.57019 48.9264C2.44219 49.1904 2.38254 49.4937 2.42263 49.8153C2.52269 50.6178 3.23222 51.2055 4.04095 51.2055H50.2168C51.0939 51.2055 51.8048 50.4944 51.8048 49.6174C51.8047 49.5577 51.8008 49.4991 51.7944 49.4412Z" fill="#1D4859"/>
<path d="M37.3526 51.2053H33.106V21.5454C33.106 20.3728 34.0566 19.4221 35.2293 19.4221C36.4019 19.4221 37.3526 20.3728 37.3526 21.5454V51.2053Z" fill="#FF6D3A"/>
<path d="M35.2271 19.4221C34.8399 19.4221 34.4781 19.5274 34.1655 19.7085C34.7996 20.0757 35.2271 20.76 35.2271 21.5454V51.2054H37.3505V21.5454C37.3504 20.3727 36.3998 19.4221 35.2271 19.4221Z" fill="#ED5729"/>
<path d="M53.3674 40.6779H17.0923C16.3555 40.6779 15.7584 40.0807 15.7584 39.3441V25.4884C15.7584 24.7517 16.3556 24.1545 17.0923 24.1545H53.3673C54.104 24.1545 54.7011 24.7518 54.7011 25.4884V39.3441C54.7012 40.0807 54.104 40.6779 53.3674 40.6779Z" fill="#61AFF6"/>
<path d="M53.3674 24.1545H49.8741V37.3148C49.8741 38.0515 49.2769 38.6487 48.5403 38.6487H15.7584V39.3442C15.7584 40.0809 16.3556 40.6781 17.0923 40.6781H53.3673C54.104 40.6781 54.7011 40.0809 54.7011 39.3442V25.4884C54.7012 24.7517 54.104 24.1545 53.3674 24.1545Z" fill="#55A2F0"/>
<path d="M26.3243 32.9086C27.1798 32.6463 27.8186 31.939 27.8186 30.6271C27.8186 28.8134 26.6094 28.2431 25.1151 28.2431H22.8566C22.5714 28.2431 22.3774 28.4599 22.3774 28.6993V36.114C22.3774 36.422 22.7538 36.5817 23.1189 36.5817C23.4953 36.5817 23.8603 36.422 23.8603 36.114V33.1367H24.8186L26.4384 36.2851C26.5525 36.5132 26.7464 36.6388 26.9518 36.6388C27.3852 36.6388 27.8757 36.2395 27.8757 35.8631C27.8757 35.8176 27.8644 35.7376 27.8188 35.6805L26.3243 32.9086ZM25.1151 31.9733H23.8603V29.5435H25.1151C25.8567 29.5435 26.3357 29.8629 26.3357 30.7641C26.3357 31.6654 25.8565 31.9733 25.1151 31.9733Z" fill="white"/>
<path d="M33.8176 29.5435C34.1141 29.5435 34.2853 29.2355 34.2853 28.8818C34.2853 28.5739 34.137 28.2431 33.8176 28.2431H29.7567C29.4259 28.2431 29.1064 28.4028 29.1064 28.7108V36.114C29.1064 36.422 29.4259 36.5817 29.7567 36.5817H33.8176C34.137 36.5817 34.2853 36.2508 34.2853 35.9429C34.2853 35.5892 34.1141 35.2813 33.8176 35.2813H30.5894V32.9883H32.3232C32.6426 32.9883 32.7909 32.6804 32.7909 32.418C32.7909 32.1101 32.6197 31.8247 32.3232 31.8247H30.5894V29.5433H33.8176V29.5435Z" fill="white"/>
<path d="M40.1715 28.2431C39.7951 28.2431 39.4301 28.3799 39.4301 28.6993V33.285L37.2284 29.0302C36.8748 28.3571 36.658 28.2431 36.1219 28.2431C35.7456 28.2431 35.3805 28.3914 35.3805 28.7108V36.114C35.3805 36.422 35.7455 36.5817 36.1219 36.5817C36.4869 36.5817 36.8634 36.422 36.8634 36.114V31.5283L39.316 36.114C39.51 36.4676 39.8179 36.5817 40.1715 36.5817C40.5365 36.5817 40.913 36.422 40.913 36.114V28.6994C40.913 28.38 40.5366 28.2431 40.1715 28.2431Z" fill="white"/>
<path d="M47.2557 28.2431H42.4305C42.1111 28.2431 41.9628 28.5854 41.9628 28.9047C41.9628 29.2697 42.134 29.5778 42.4305 29.5778H44.1073V36.1141C44.1073 36.4221 44.4723 36.5818 44.8488 36.5818C45.2138 36.5818 45.5903 36.4221 45.5903 36.1141V29.5778H47.2557C47.5522 29.5778 47.7233 29.2584 47.7233 28.9047C47.7233 28.5854 47.5751 28.2431 47.2557 28.2431Z" fill="white"/>
<path d="M53.2206 23.3672H37.9935V21.5454C37.9935 19.9405 36.6879 18.6348 35.083 18.6348C33.4781 18.6348 32.1724 19.9405 32.1724 21.5454V23.3672H16.9455C15.8489 23.3672 14.9441 24.2035 14.8353 25.2718C14.8281 25.3431 14.8244 25.4153 14.8244 25.4884V39.3441C14.8244 40.5137 15.7759 41.4652 16.9455 41.4652H19.5135V47.242H8.44534V19.2331L26.963 6.91516L36.9436 13.5543L45.4806 19.2331V21.4702C45.4806 21.905 45.8331 22.2574 46.2679 22.2574C46.7026 22.2574 47.0551 21.905 47.0551 21.4702V20.2805L49.4411 21.8676C50.3439 22.4682 51.5104 22.4682 52.4133 21.8676C53.1628 21.369 53.6103 20.5339 53.6103 19.6336C53.6103 18.7334 53.1628 17.8982 52.4133 17.3998L27.7254 0.977187C27.2622 0.669063 26.6638 0.669063 26.2007 0.977187L11.8762 10.506C11.5142 10.7468 11.4159 11.2355 11.6567 11.5975C11.8976 11.9595 12.3864 12.0578 12.7482 11.8169L26.963 2.361L51.5412 18.7107C51.8555 18.9199 52.0358 19.2562 52.0358 19.6338C52.0358 20.0113 51.8555 20.3477 51.5412 20.5569C51.1682 20.805 50.6862 20.805 50.3131 20.5569L27.7254 5.53123C27.2622 5.22322 26.6638 5.223 26.2007 5.53123L3.61272 20.5569C3.23979 20.8048 2.75778 20.805 2.38474 20.5568C2.07038 20.3477 1.89015 20.0113 1.89015 19.6338C1.89015 19.2562 2.07038 18.9199 2.38474 18.7107L8.67565 14.5259C9.03762 14.2852 9.13595 13.7965 8.89511 13.4344C8.65426 13.0726 8.16558 12.9741 7.80362 13.2151L1.5127 17.3998C0.76319 17.8983 0.315674 18.7334 0.315674 19.6338C0.315674 20.5342 0.76319 21.3693 1.5127 21.8677C1.9642 22.1681 2.48136 22.3182 2.99884 22.3182C3.5161 22.3181 4.03358 22.168 4.48486 21.8677L6.87086 20.2806V47.242H3.85378C2.54401 47.242 1.47853 48.3076 1.47853 49.6173C1.47853 50.927 2.54401 51.9925 3.85378 51.9925H32.9597H37.2064H50.0723C51.3821 51.9925 52.4475 50.9269 52.4475 49.6173C52.4475 48.3075 51.3821 47.242 50.0723 47.242H47.0552V43.3619C47.0552 42.9271 46.7027 42.5747 46.268 42.5747C45.8332 42.5747 45.4807 42.9271 45.4807 43.3619V47.242H37.9938V41.4652H53.2207C54.3903 41.4652 55.3418 40.5137 55.3418 39.3441V25.4884C55.3417 24.3187 54.3901 23.3672 53.2206 23.3672ZM33.7469 21.5454C33.7469 20.8087 34.3462 20.2093 35.083 20.2093C35.8197 20.2093 36.4191 20.8087 36.4191 21.5454V23.3672H33.7469V21.5454ZM32.1724 50.418H3.85378C3.41228 50.418 3.053 50.0589 3.053 49.6173C3.053 49.1757 3.41218 48.8165 3.85378 48.8165H7.6581H20.3008H32.1724V50.418ZM32.1724 47.242H21.088V41.4652H32.1724V47.242ZM36.4191 48.0292V50.418H33.7469V48.0292V41.4652H36.4191V48.0292ZM46.2679 48.8165H50.0722C50.5137 48.8165 50.873 49.1757 50.873 49.6173C50.873 50.0589 50.5138 50.418 50.0722 50.418H37.9935V48.8165H46.2679ZM53.7672 39.3441C53.7672 39.6455 53.5221 39.8908 53.2206 39.8908H37.2063H32.9596H20.3008H16.9455C16.644 39.8908 16.3988 39.6456 16.3988 39.3441V25.4884C16.3988 25.187 16.644 24.9418 16.9455 24.9418H32.9596H37.2063C37.207 24.9418 37.2077 24.9417 37.2084 24.9417H53.2205C53.5219 24.9417 53.7671 25.1868 53.7671 25.4884L53.7672 39.3441Z" fill="black"/>
<path d="M22.0023 15.3404C22.0023 18.0751 24.2271 20.3 26.9618 20.3C29.6964 20.3 31.9212 18.0752 31.9212 15.3404C31.9212 12.6059 29.6964 10.381 26.9618 10.381C24.2271 10.381 22.0023 12.6058 22.0023 15.3404ZM26.1745 18.632C24.9384 18.3363 23.964 17.361 23.6694 16.1243H26.1745V18.632ZM26.1745 14.5498H23.671C23.9675 13.3163 24.9406 12.3441 26.1745 12.049V14.5498ZM27.749 12.049C28.983 12.3441 29.9562 13.3164 30.2525 14.5498H27.749V12.049ZM27.749 16.1243H30.254C29.9595 17.361 28.9851 18.3362 27.749 18.632V16.1243Z" fill="black"/>
</svg>
