
<svg width="21" height="25" viewBox="0 0 21 25" fill="none" xmlns="http://www.w3.org/2000/svg">
<path d="M12.1365 14.6639C12.37 14.6639 12.5385 14.6639 12.7099 14.6639C14.1789 14.6639 15.6479 14.661 17.1169 14.6639C18.7308 14.6697 19.452 15.8717 18.6894 17.254C18.6362 17.3471 18.6421 17.513 18.6894 17.612C19.0027 18.261 18.9406 18.8546 18.5091 19.4338C18.4322 19.5385 18.4086 19.7394 18.4529 19.8674C18.6717 20.5047 18.5859 21.0693 18.1603 21.6019C18.0716 21.7125 18.0362 21.9308 18.0776 22.0704C18.4175 23.1967 17.6844 24.2269 16.4844 24.2327C13.703 24.2444 10.9217 24.2386 8.14033 24.2357C7.44868 24.2357 7.39548 24.1716 7.39548 23.5052C7.39548 20.4116 7.38957 17.318 7.4073 14.2274C7.41026 13.9655 7.51666 13.6541 7.67923 13.4474C8.71965 12.1524 9.39948 10.7118 9.65071 9.07627C9.82215 7.95583 10.502 7.65607 11.4774 8.27013C12.4055 8.85509 12.7454 9.75435 12.8104 10.7817C12.8843 11.9196 12.6212 13.0109 12.302 14.0935C12.2577 14.2565 12.2104 14.4165 12.1365 14.6639Z" fill="#7166F0"/>
<path d="M6.27216 19.2509C6.27216 20.6042 6.27216 21.9575 6.27216 23.3107C6.27216 23.8898 6.00319 24.2187 5.42091 24.2274C4.079 24.2507 2.73413 24.2536 1.39222 24.2274C0.747869 24.2158 0.354755 23.7123 0.354755 22.9877C0.351799 20.6653 0.354755 18.3429 0.354755 16.0206C0.354755 15.8052 0.345887 15.5899 0.35771 15.3745C0.390224 14.7139 0.824719 14.2715 1.48681 14.2657C2.76665 14.2541 4.04649 14.2512 5.32632 14.2657C5.99137 14.2715 6.27216 14.58 6.27216 15.2348C6.27216 16.5735 6.27216 17.9122 6.27216 19.2509ZM2.52132 16.85C3.04153 16.8558 3.32233 16.6637 3.32233 16.3C3.32233 15.9507 3.04449 15.747 2.56861 15.7441C2.08387 15.7412 1.80898 15.9304 1.7942 16.2767C1.77647 16.6317 2.0484 16.8442 2.52132 16.85Z" fill="#7166F0"/>
<path d="M7.92463 7.08197C8.01626 6.63961 8.09311 6.12159 8.23203 5.61812C8.32071 5.29799 8.22021 5.10592 7.98079 4.91093C7.62019 4.617 7.25959 4.31434 6.95515 3.96802C6.80441 3.79923 6.66844 3.4791 6.73347 3.30158C6.80145 3.12114 7.10885 2.9669 7.33644 2.91743C7.79163 2.81848 8.26159 2.77191 8.7286 2.75154C9.04191 2.73699 9.19856 2.61767 9.31088 2.33829C9.49414 1.88138 9.69217 1.42739 9.9375 1.00249C10.038 0.827879 10.2804 0.621253 10.4518 0.627073C10.6469 0.635804 10.907 0.822059 11.0134 1.00249C11.2765 1.45358 11.4508 1.95414 11.6991 2.41396C11.776 2.55365 11.9711 2.68752 12.1336 2.71662C12.6243 2.80684 13.1297 2.81266 13.6145 2.91743C13.842 2.9669 14.1494 3.12405 14.2174 3.30449C14.2825 3.48201 14.1465 3.80214 13.9957 3.97093C13.6795 4.32598 13.3041 4.63737 12.9346 4.94295C12.7189 5.12047 12.6391 5.28926 12.7129 5.57447C12.84 6.04883 12.9465 6.53193 12.9967 7.02085C13.0174 7.2333 12.9435 7.56797 12.7957 7.65819C12.6213 7.76296 12.2903 7.73095 12.0804 7.63782C11.6134 7.43119 11.1848 7.13726 10.7237 6.91317C10.5878 6.84624 10.3602 6.84915 10.2242 6.91608C9.73651 7.15472 9.27541 7.44574 8.79067 7.69602C8.30593 7.94048 7.89508 7.67856 7.92463 7.08197Z" fill="#7166F0"/>
<path d="M0.953146 8.60367C1.05364 8.08855 1.15414 7.68403 1.20439 7.27369C1.22212 7.12236 1.16005 6.91864 1.0566 6.80805C0.808315 6.53449 0.483182 6.32495 0.246722 6.04557C0.104847 5.87678 -0.0399852 5.59158 0.0132183 5.41405C0.063466 5.23944 0.364952 5.01244 0.548209 5.02117C1.66844 5.06773 2.33348 4.58755 2.62019 3.51949C2.66452 3.35361 2.96306 3.14116 3.13153 3.1528C3.32957 3.16153 3.63697 3.36234 3.6813 3.53695C3.95619 4.59919 4.62123 5.05027 5.72077 5.01244C5.91289 5.00662 6.22029 5.24526 6.28532 5.43151C6.34148 5.59449 6.19369 5.9408 6.03112 6.04557C5.13258 6.6218 4.90203 7.35809 5.27741 8.34174C5.34835 8.52509 5.23011 8.90342 5.0705 9.01401C4.91385 9.1246 4.51482 9.10714 4.36112 8.982C3.52169 8.30682 2.74433 8.34757 1.91376 8.99364C1.76007 9.11296 1.42902 9.11005 1.23099 9.03438C1.08024 8.97326 1.01522 8.70843 0.953146 8.60367Z" fill="#7166F0"/>
<path d="M20.9995 5.64487C20.9344 5.738 20.8605 5.95044 20.7127 6.04357C19.829 6.60525 19.5275 7.32116 19.9295 8.31937C20.0034 8.50563 19.9029 8.90142 19.7492 8.99746C19.5689 9.11095 19.1639 9.09931 18.9984 8.96835C18.1915 8.3281 17.4437 8.33101 16.6309 8.95671C16.4594 9.09058 16.084 9.10513 15.8683 9.01783C15.5431 8.88396 15.5668 8.526 15.6821 8.24662C16.0604 7.3328 15.821 6.65181 14.9904 6.1076C14.8012 5.98246 14.6505 5.6536 14.6564 5.42369C14.6653 5.07737 15.0141 4.95805 15.3215 4.98425C16.4003 5.07737 16.9619 4.55062 17.2516 3.5786C17.3077 3.38653 17.6151 3.16535 17.8191 3.1508C17.9905 3.13916 18.2979 3.3778 18.3481 3.55823C18.6319 4.58845 19.2703 5.06573 20.3581 4.99589C20.7009 4.97552 20.9522 5.16177 20.9995 5.64487Z" fill="#7166F0"/>
</svg>
