<svg width="61" height="51" viewBox="0 0 61 51" fill="none" xmlns="http://www.w3.org/2000/svg">
<g clip-path="url(#clip0_76_5234)">
<path d="M18.1952 42.6297V49.2915H13.4625V37.8713H18.1952V42.6297Z" fill="#965353"/>
<path d="M17.2486 22.6444H1.15759V37.8713H13.4625H18.1952H29.5535V22.6444H17.2486Z" fill="#FFD2A6"/>
<path d="M29.5535 22.6444H25.7673V37.8713H29.5535V22.6444Z" fill="#F7C292"/>
<path d="M57.003 17.1722L37.1258 5.51412L17.2487 17.1722L14.4091 18.8377V15.0309L37.1258 1.7074L59.8425 15.0309V18.8377L57.003 17.1722Z" fill="#ED5565"/>
<path d="M53.2168 23.5961H43.7515V26.4511H53.2168V23.5961Z" fill="#F5F7FA"/>
<path d="M53.2168 26.4511H43.7515V33.1129H53.2168V26.4511Z" fill="#5D9CEC"/>
<path d="M39.9653 30.2579H34.2861V42.6297H39.9653V30.2579Z" fill="#ED5565"/>
<path d="M37.1257 19.7894C39.2167 19.7894 40.9118 18.085 40.9118 15.9826C40.9118 13.8802 39.2167 12.1759 37.1257 12.1759C35.0347 12.1759 33.3396 13.8802 33.3396 15.9826C33.3396 18.085 35.0347 19.7894 37.1257 19.7894Z" fill="#5D9CEC"/>
<path d="M57.003 17.1723V42.6297H39.9654V30.2579H34.2862V42.6297H18.1952V37.8713H29.5536V22.6444H17.2487V17.1723L37.1258 5.51416L57.003 17.1723ZM53.2168 33.1129V26.4511V23.5961H43.7515V26.4511V33.1129H53.2168ZM37.1258 19.7894C39.2176 19.7894 40.9119 18.0859 40.9119 15.9827C40.9119 13.8794 39.2176 12.1759 37.1258 12.1759C35.034 12.1759 33.3397 13.8794 33.3397 15.9827C33.3397 18.0859 35.034 19.7894 37.1258 19.7894Z" fill="#E6E9ED"/>
<path d="M53.2168 14.9525V23.5961V26.4511V33.1129V42.6297H57.0029V17.1723L53.2168 14.9525Z" fill="#CCD1D9"/>
<path d="M56.0564 16.6179L57.0029 17.1722L59.8425 18.8377V15.031L56.0564 12.8112V16.6179Z" fill="#DA4453"/>
<path d="M48.8191 33.1129H45.9795L48.1494 26.4511H50.989L48.8191 33.1129Z" fill="#87BCF4"/>
<path d="M14.4098 15.9827C14.0845 15.9827 13.7674 15.8137 13.5911 15.5104C13.3284 15.056 13.4811 14.4731 13.9318 14.209L36.6486 0.885418C37.1006 0.623705 37.6791 0.774785 37.943 1.22802C38.2056 1.68245 38.053 2.26536 37.6022 2.52945L14.8855 15.853C14.7364 15.941 14.5719 15.9827 14.4098 15.9827Z" fill="black"/>
<path d="M59.8412 15.9826C59.6791 15.9826 59.5146 15.941 59.3655 15.8529L36.6488 2.52938C36.1968 2.26529 36.0454 1.6812 36.308 1.22796C36.5719 0.773532 37.1528 0.622453 37.6024 0.885355L60.3192 14.2089C60.7711 14.473 60.9226 15.0571 60.6599 15.5103C60.4836 15.8137 60.1665 15.9826 59.8412 15.9826Z" fill="black"/>
<path d="M14.4098 19.7894C14.0845 19.7894 13.7674 19.6205 13.5911 19.3171C13.3284 18.8627 13.4811 18.2798 13.9318 18.0157L36.6486 4.69216C37.1006 4.42926 37.6791 4.58153 37.943 5.03476C38.2056 5.48919 38.053 6.0721 37.6022 6.33619L14.8855 19.6597C14.7364 19.7478 14.5719 19.7894 14.4098 19.7894Z" fill="black"/>
<path d="M59.8412 19.7894C59.6791 19.7894 59.5146 19.7478 59.3655 19.6597L36.6488 6.33619C36.1968 6.0721 36.0454 5.488 36.308 5.03476C36.5719 4.58033 37.1528 4.42807 37.6024 4.69216L60.3192 18.0157C60.7711 18.2798 60.9226 18.8639 60.6599 19.3171C60.4836 19.6205 60.1665 19.7894 59.8412 19.7894Z" fill="black"/>
<path d="M14.4091 19.7894C13.8861 19.7894 13.4625 19.3635 13.4625 18.8377V15.031C13.4625 14.5052 13.8861 14.0793 14.4091 14.0793C14.932 14.0793 15.3556 14.5052 15.3556 15.031V18.8377C15.3556 19.3647 14.932 19.7894 14.4091 19.7894Z" fill="black"/>
<path d="M59.8425 19.7894C59.3196 19.7894 58.896 19.3635 58.896 18.8377V15.031C58.896 14.5052 59.3196 14.0793 59.8425 14.0793C60.3655 14.0793 60.7891 14.5052 60.7891 15.031V18.8377C60.7891 19.3647 60.3655 19.7894 59.8425 19.7894Z" fill="black"/>
<path d="M17.2487 23.5961C16.7257 23.5961 16.3021 23.1702 16.3021 22.6444V17.1461C16.3021 16.6203 16.7257 16.1944 17.2487 16.1944C17.7716 16.1944 18.1952 16.6203 18.1952 17.1461V22.6444C18.1952 23.1714 17.7716 23.5961 17.2487 23.5961Z" fill="black"/>
<path d="M57.0029 43.5814C56.48 43.5814 56.0564 43.1555 56.0564 42.6297V17.1472C56.0564 16.6214 56.48 16.1956 57.0029 16.1956C57.5259 16.1956 57.9495 16.6214 57.9495 17.1472V42.6309C57.9495 43.1567 57.5259 43.5814 57.0029 43.5814Z" fill="black"/>
<path d="M57.003 43.5814H18.1952C17.6722 43.5814 17.2487 43.1555 17.2487 42.6297C17.2487 42.1039 17.6722 41.678 18.1952 41.678H57.003C57.5259 41.678 57.9495 42.1039 57.9495 42.6297C57.9495 43.1555 57.5259 43.5814 57.003 43.5814Z" fill="black"/>
<path d="M39.9653 43.5814H34.2861C33.7632 43.5814 33.3396 43.1555 33.3396 42.6297V30.2578C33.3396 29.732 33.7632 29.3062 34.2861 29.3062H39.9653C40.4883 29.3062 40.9118 29.732 40.9118 30.2578V42.6297C40.9118 43.1567 40.4883 43.5814 39.9653 43.5814ZM35.2327 41.678H39.0188V31.2095H35.2327V41.678Z" fill="black"/>
<path d="M53.2168 34.0646H43.7515C43.2285 34.0646 42.8049 33.6387 42.8049 33.1129V23.5961C42.8049 23.0703 43.2285 22.6444 43.7515 22.6444H53.2168C53.7397 22.6444 54.1633 23.0703 54.1633 23.5961V33.1129C54.1633 33.6399 53.7397 34.0646 53.2168 34.0646ZM44.698 32.1612H52.2702V24.5478H44.698V32.1612Z" fill="black"/>
<path d="M53.2168 27.4028H43.7515C43.2285 27.4028 42.8049 26.9769 42.8049 26.4511C42.8049 25.9253 43.2285 25.4995 43.7515 25.4995H53.2168C53.7397 25.4995 54.1633 25.9253 54.1633 26.4511C54.1633 26.9769 53.7397 27.4028 53.2168 27.4028Z" fill="black"/>
<path d="M37.1257 20.7411C34.5157 20.7411 32.3931 18.6069 32.3931 15.9827C32.3931 13.3584 34.5157 11.2242 37.1257 11.2242C39.7358 11.2242 41.8584 13.3584 41.8584 15.9827C41.8584 18.6069 39.7358 20.7411 37.1257 20.7411ZM37.1257 13.1276C35.5604 13.1276 34.2861 14.4088 34.2861 15.9827C34.2861 17.5565 35.5604 18.8377 37.1257 18.8377C38.691 18.8377 39.9653 17.5565 39.9653 15.9827C39.9653 14.4088 38.691 13.1276 37.1257 13.1276Z" fill="black"/>
<path d="M37.1257 20.7411C36.6028 20.7411 36.1792 20.3152 36.1792 19.7894V12.1759C36.1792 11.6501 36.6028 11.2242 37.1257 11.2242C37.6487 11.2242 38.0723 11.6501 38.0723 12.1759V19.7894C38.0723 20.3164 37.6487 20.7411 37.1257 20.7411Z" fill="black"/>
<path d="M40.9118 16.9343H33.3396C32.8166 16.9343 32.3931 16.5084 32.3931 15.9826C32.3931 15.4568 32.8166 15.0309 33.3396 15.0309H40.9118C41.4348 15.0309 41.8584 15.4568 41.8584 15.9826C41.8584 16.5096 41.4348 16.9343 40.9118 16.9343Z" fill="black"/>
<path d="M29.5535 38.823H1.15759C0.634632 38.823 0.21106 38.3971 0.21106 37.8713V22.6444C0.21106 22.1186 0.634632 21.6927 1.15759 21.6927H29.5535C30.0765 21.6927 30.5 22.1186 30.5 22.6444V37.8713C30.5 38.3983 30.0765 38.823 29.5535 38.823ZM2.10412 36.9196H28.607V23.5961H2.10412V36.9196Z" fill="black"/>
<path d="M13.4625 50.2432C12.9396 50.2432 12.516 49.8173 12.516 49.2915V37.8713C12.516 37.3455 12.9396 36.9196 13.4625 36.9196C13.9855 36.9196 14.4091 37.3455 14.4091 37.8713V49.2915C14.4091 49.8185 13.9855 50.2432 13.4625 50.2432Z" fill="black"/>
<path d="M18.1952 50.2432C17.6722 50.2432 17.2487 49.8173 17.2487 49.2915V37.8713C17.2487 37.3455 17.6722 36.9196 18.1952 36.9196C18.7181 36.9196 19.1417 37.3455 19.1417 37.8713V49.2915C19.1417 49.8185 18.7181 50.2432 18.1952 50.2432Z" fill="black"/>
<path d="M19.1417 50.2431H12.516C11.993 50.2431 11.5695 49.8173 11.5695 49.2915C11.5695 48.7657 11.993 48.3398 12.516 48.3398H19.1417C19.6647 48.3398 20.0882 48.7657 20.0882 49.2915C20.0882 49.8173 19.6647 50.2431 19.1417 50.2431Z" fill="black"/>
<path d="M10.6233 34.0646C10.5015 34.0646 10.3784 34.042 10.2589 33.9908C9.77617 33.7886 9.54782 33.2319 9.75014 32.7465L12.1165 27.0364C12.3188 26.5511 12.8737 26.3227 13.3541 26.5249C13.8368 26.7271 14.0651 27.2839 13.8628 27.7692L11.4965 33.4793C11.345 33.8457 10.9948 34.0646 10.6233 34.0646Z" fill="black"/>
<path d="M15.3556 34.0646C14.9841 34.0646 14.6339 33.8445 14.4824 33.4793L12.1161 27.7692C11.915 27.2839 12.1421 26.7259 12.6249 26.5249C13.1064 26.3227 13.6613 26.5511 13.8625 27.0364L16.2288 32.7465C16.4299 33.2319 16.2027 33.7898 15.72 33.9908C15.6005 34.042 15.4775 34.0646 15.3556 34.0646Z" fill="black"/>
<path d="M14.9601 33.1128H11.0178C10.4949 33.1128 10.0713 32.687 10.0713 32.1612C10.0713 31.6353 10.4949 31.2095 11.0178 31.2095H14.9613C15.4843 31.2095 15.9078 31.6353 15.9078 32.1612C15.9078 32.687 15.4843 33.1128 14.9601 33.1128Z" fill="black"/>
<path d="M18.1952 34.0646C17.6722 34.0646 17.2487 33.6387 17.2487 33.1129V27.4028C17.2487 26.877 17.6722 26.4511 18.1952 26.4511C18.7181 26.4511 19.1417 26.877 19.1417 27.4028V33.1129C19.1417 33.6399 18.7181 34.0646 18.1952 34.0646Z" fill="black"/>
<path d="M20.0883 34.0646H18.1952C17.6722 34.0646 17.2487 33.6387 17.2487 33.1129C17.2487 32.5871 17.6722 32.1612 18.1952 32.1612H20.0883C20.6112 32.1612 21.0348 32.5871 21.0348 33.1129C21.0348 33.6387 20.6112 34.0646 20.0883 34.0646Z" fill="black"/>
<path d="M22.9279 34.0646C22.4049 34.0646 21.9813 33.6387 21.9813 33.1129V27.4028C21.9813 26.877 22.4049 26.4511 22.9279 26.4511C23.4508 26.4511 23.8744 26.877 23.8744 27.4028V33.1129C23.8744 33.6399 23.4508 34.0646 22.9279 34.0646Z" fill="black"/>
<path d="M25.7674 28.3545H22.9279C22.4049 28.3545 21.9813 27.9286 21.9813 27.4028C21.9813 26.877 22.4049 26.4511 22.9279 26.4511H25.7674C26.2904 26.4511 26.714 26.877 26.714 27.4028C26.714 27.9286 26.2904 28.3545 25.7674 28.3545Z" fill="black"/>
<path d="M25.7674 34.0646H22.9279C22.4049 34.0646 21.9813 33.6387 21.9813 33.1129C21.9813 32.5871 22.4049 32.1612 22.9279 32.1612H25.7674C26.2904 32.1612 26.714 32.5871 26.714 33.1129C26.714 33.6387 26.2904 34.0646 25.7674 34.0646Z" fill="black"/>
<path d="M24.8209 31.2095H22.9279C22.4049 31.2095 21.9813 30.7836 21.9813 30.2578C21.9813 29.732 22.4049 29.3062 22.9279 29.3062H24.8209C25.3439 29.3062 25.7674 29.732 25.7674 30.2578C25.7674 30.7836 25.3439 31.2095 24.8209 31.2095Z" fill="black"/>
<path d="M4.94372 29.782C4.42076 29.782 3.99719 29.3561 3.99719 28.8303C3.99719 27.5182 5.05849 26.4511 6.36352 26.4511C7.36684 26.4511 8.26368 27.0899 8.59497 28.0416C8.76889 28.5377 8.5086 29.0813 8.01522 29.2538C7.52539 29.4299 6.98231 29.1682 6.80957 28.6709C6.74213 28.4818 6.56347 28.3545 6.36234 28.3545C6.10204 28.3545 5.88907 28.5686 5.88907 28.8303C5.89025 29.3573 5.46668 29.782 4.94372 29.782Z" fill="black"/>
<path d="M6.36429 34.0646C5.36097 34.0646 4.46413 33.4258 4.13285 32.4742C3.95892 31.9781 4.21922 31.4344 4.7126 31.2619C5.20479 31.0847 5.74668 31.3488 5.91824 31.8449C5.98568 32.034 6.16434 32.1613 6.36548 32.1613C6.62577 32.1613 6.83874 31.9472 6.83874 31.6854C6.83874 31.1596 7.26231 30.7338 7.78527 30.7338C8.30823 30.7338 8.7318 31.1596 8.7318 31.6854C8.73062 32.9988 7.66932 34.0646 6.36429 34.0646Z" fill="black"/>
<path d="M7.78332 32.6371C7.26036 32.6371 6.83679 32.2112 6.83679 31.6854C6.77644 31.5295 6.23219 31.2559 5.93995 31.1096C5.16616 30.7194 3.99719 30.133 3.99719 28.8303C3.99719 28.3045 4.42076 27.8787 4.94372 27.8787C5.46668 27.8787 5.89025 28.3045 5.89025 28.8303V28.8387C5.9506 28.9862 6.49485 29.2598 6.78709 29.4073C7.56088 29.7963 8.72985 30.384 8.72985 31.6854C8.72985 32.2124 8.30627 32.6371 7.78332 32.6371Z" fill="black"/>
</g>
<defs>
<clipPath id="clip0_76_5234">
<rect width="60.578" height="49.4862" fill="white" transform="translate(0.21106 0.756897)"/>
</clipPath>
</defs>
</svg>
