<svg width="20" height="22" viewBox="0 0 20 22" fill="none" xmlns="http://www.w3.org/2000/svg">
<path d="M1 17H0.25H1ZM1 5H1.75H1ZM5 1V0.25V1ZM15 1V0.25V1ZM19 5H18.25H19ZM19 11.3431H19.75H19ZM9.34315 21V20.25V21ZM5 21V21.75V21ZM17.8284 14.1716L17.2981 13.6412V13.6412L17.8284 14.1716ZM12.1716 19.8284L12.7019 20.3588L12.1716 19.8284ZM11 17H10.25H11ZM15 13V12.25V13ZM7.46852 6.41435C7.14508 6.15559 6.67311 6.20803 6.41435 6.53148C6.15559 6.85493 6.20803 7.32689 6.53148 7.58565L7.46852 6.41435ZM8.75282 8.40226L8.2843 8.98791L8.75282 8.40226ZM10.1301 8.27989L9.56566 7.78602H9.56566L10.1301 8.27989ZM13.5644 5.49388C13.8372 5.18215 13.8056 4.70833 13.4939 4.43557C13.1822 4.16281 12.7083 4.19439 12.4356 4.50612L13.5644 5.49388ZM1.75 17L1.75 5H0.250001L0.25 17H1.75ZM5 1.75L15 1.75V0.25L5 0.25V1.75ZM18.25 5V11.3431H19.75V5H18.25ZM9.34315 20.25H5V21.75H9.34315V20.25ZM17.2981 13.6412L11.6412 19.2981L12.7019 20.3588L18.3588 14.7019L17.2981 13.6412ZM9.34315 21.75C10.6029 21.75 11.8111 21.2496 12.7019 20.3588L11.6412 19.2981C11.0317 19.9076 10.2051 20.25 9.34315 20.25V21.75ZM18.25 11.3431C18.25 12.2051 17.9076 13.0318 17.2981 13.6412L18.3588 14.7019C19.2496 13.8111 19.75 12.6029 19.75 11.3431H18.25ZM1.75 5C1.75 3.20507 3.20508 1.75 5 1.75V0.25C2.37665 0.25 0.250001 2.37665 0.250001 5H1.75ZM0.25 17C0.25 19.6234 2.37665 21.75 5 21.75V20.25C3.20507 20.25 1.75 18.7949 1.75 17H0.25ZM15 1.75C16.7949 1.75 18.25 3.20508 18.25 5H19.75C19.75 2.37665 17.6234 0.250001 15 0.25V1.75ZM11.75 21V17H10.25V21H11.75ZM15 13.75L19 13.75V12.25L15 12.25V13.75ZM11.75 17C11.75 15.2051 13.2051 13.75 15 13.75V12.25C12.3766 12.25 10.25 14.3766 10.25 17H11.75ZM6.53148 7.58565L8.2843 8.98791L9.22134 7.81661L7.46852 6.41435L6.53148 7.58565ZM10.6945 8.77377L13.5644 5.49388L12.4356 4.50612L9.56566 7.78602L10.6945 8.77377ZM8.2843 8.98791C9.01559 9.57294 10.0778 9.47856 10.6945 8.77377L9.56566 7.78602C9.47756 7.8867 9.32581 7.90018 9.22134 7.81661L8.2843 8.98791Z" fill="#7E8BA0"/>
</svg>
