<svg width="18" height="20" viewBox="0 0 18 20" fill="none" xmlns="http://www.w3.org/2000/svg">
<path fill-rule="evenodd" clip-rule="evenodd" d="M0 4V16C0 18.2091 1.79086 20 4 20H8.34315C8.65089 20 8.95498 19.9645 9.24995 19.8959V16C9.24995 13.3766 11.3766 11.25 14 11.25H17.8959C17.9645 10.955 18 10.6509 18 10.3431V4C18 1.79086 16.2091 0 14 0H4C1.79086 0 0 1.79086 0 4ZM11.1716 18.8284C11.039 18.961 10.898 19.0834 10.75 19.1949V16C10.75 14.2051 12.205 12.75 14 12.75H17.1949C17.0833 12.898 16.961 13.039 16.8284 13.1716L11.1716 18.8284ZM12.5644 4.49386C12.8371 4.18214 12.8056 3.70832 12.4938 3.43555C12.1821 3.16279 11.7083 3.19438 11.4355 3.50611L8.56561 6.786C8.47752 6.88669 8.32577 6.90017 8.2213 6.81659L6.46848 5.41433C6.14503 5.15558 5.67306 5.20802 5.4143 5.53147C5.15555 5.85491 5.20799 6.32688 5.53143 6.58564L7.28425 7.9879C8.01554 8.57292 9.07779 8.47855 9.69448 7.77376L12.5644 4.49386Z" fill="#7166F0"/>
</svg>
