<svg width="15" height="15" viewBox="0 0 15 15" fill="none" xmlns="http://www.w3.org/2000/svg">
<path d="M7.5 15C8.98336 15 10.4334 14.5601 11.6668 13.736C12.9001 12.9119 13.8614 11.7406 14.4291 10.3701C14.9967 8.99968 15.1453 7.49168 14.8559 6.03683C14.5665 4.58197 13.8522 3.2456 12.8033 2.1967C11.7544 1.14781 10.418 0.433503 8.96317 0.144114C7.50832 -0.145275 6.00032 0.00324963 4.62987 0.570907C3.25943 1.13856 2.08809 2.09986 1.26398 3.33323C0.439867 4.56659 0 6.01664 0 7.5C0 9.48913 0.790176 11.3968 2.1967 12.8033C2.89314 13.4997 3.71993 14.0522 4.62987 14.4291C5.53981 14.806 6.51508 15 7.5 15V15ZM7.5 13.5C7.27749 13.5 7.05999 13.434 6.87498 13.3104C6.68998 13.1868 6.54578 13.0111 6.46063 12.8055C6.37548 12.6 6.35321 12.3738 6.39661 12.1555C6.44002 11.9373 6.54717 11.7368 6.7045 11.5795C6.86184 11.4222 7.06229 11.315 7.28052 11.2716C7.49875 11.2282 7.72495 11.2505 7.93052 11.3356C8.13608 11.4208 8.31178 11.565 8.4354 11.75C8.55902 11.935 8.625 12.1525 8.625 12.375C8.625 12.6734 8.50647 12.9595 8.29549 13.1705C8.08451 13.3815 7.79837 13.5 7.5 13.5ZM4.5 5.2455C4.48894 4.66929 4.64804 4.10262 4.9574 3.61637C5.26676 3.13012 5.71264 2.74589 6.23925 2.51175C6.70622 2.30319 7.2182 2.21559 7.72795 2.25701C8.2377 2.29842 8.72882 2.46754 9.156 2.74875C9.5499 3.00955 9.87665 3.35968 10.1096 3.77065C10.3426 4.18161 10.4753 4.64179 10.4968 5.11372C10.5182 5.58564 10.428 6.05597 10.2333 6.48641C10.0386 6.91685 9.74507 7.29524 9.3765 7.59075C8.85961 7.98908 8.48782 8.54611 8.31825 9.17625C8.2715 9.36959 8.14987 9.53645 7.9801 9.64011C7.81033 9.74377 7.60634 9.77575 7.413 9.729C7.21965 9.68226 7.0528 9.56062 6.94914 9.39086C6.84548 9.22109 6.8135 9.0171 6.86025 8.82375C7.10438 7.87114 7.65847 7.02681 8.43525 6.42375C8.61987 6.27608 8.76697 6.08685 8.86455 5.87152C8.96214 5.65618 9.00744 5.42082 8.99676 5.18465C8.98609 4.94847 8.91974 4.71816 8.80312 4.51251C8.68651 4.30685 8.52294 4.13167 8.32575 4.00125C8.10484 3.85666 7.85056 3.77109 7.58718 3.75271C7.3238 3.73432 7.0601 3.78375 6.82125 3.89625C6.56798 4.01748 6.35527 4.2095 6.20885 4.44909C6.06244 4.68868 5.98859 4.96557 5.99625 5.24625C5.98332 5.43556 5.89913 5.61292 5.76062 5.74261C5.62212 5.87231 5.43961 5.94468 5.24987 5.94516C5.06013 5.94563 4.87726 5.87417 4.73811 5.74518C4.59896 5.61618 4.51387 5.43924 4.5 5.25V5.2455Z" fill="#7166F0"/>
</svg>
