<svg width="16" height="19" viewBox="0 0 16 19" fill="none" xmlns="http://www.w3.org/2000/svg">
<path d="M15.9994 11.3808V10.2302H10.6954C10.6954 11.719 9.48849 12.9259 7.99969 12.9259C6.51089 12.9259 5.304 11.719 5.304 10.2302H0V11.3808L2.30318 11.6247C2.44685 12.2136 2.67945 12.7677 2.98597 13.2718L1.52946 15.0733L3.15662 16.7005L4.95811 15.2439C5.46227 15.5505 6.01634 15.7831 6.60524 15.9267L6.84913 18.2299H9.15025L9.39414 15.9267C9.98304 15.7831 10.5371 15.5505 11.0413 15.2439L12.8428 16.7005L14.4699 15.0733L13.0134 13.2718C13.3199 12.7677 13.5525 12.2136 13.6962 11.6247L15.9994 11.3808Z" fill="#7166F0"/>
<path d="M8.00056 0C6.86125 0 5.93433 0.926928 5.93433 2.06624C5.93433 3.20554 6.86125 4.13244 8.00056 4.13244C9.13987 4.13244 10.0668 3.20554 10.0668 2.06624C10.0668 0.926928 9.13987 0 8.00056 0Z" fill="#7166F0"/>
<path d="M10.2001 4.70374H5.80036C4.78745 4.70377 3.96338 5.5278 3.96338 6.54071V9.1617H12.0371V6.54071C12.0371 5.5278 11.2131 4.70374 10.2001 4.70374Z" fill="#7166F0"/>
<path d="M3.61538 0.955078C2.59474 0.955078 1.7644 1.78545 1.7644 2.80605C1.7644 3.81846 2.58156 4.64317 3.59092 4.65638C4.00891 4.16746 4.58567 3.8185 5.24093 3.6905C5.38456 3.42756 5.46635 3.12621 5.46635 2.80605C5.46635 1.78541 4.63601 0.955078 3.61538 0.955078Z" fill="#7166F0"/>
<path d="M1.6456 5.16821C0.738224 5.16821 0 5.9064 0 6.81382V9.16176H2.89468V6.54073C2.89468 6.04458 3.01994 5.5772 3.24015 5.16821H1.6456Z" fill="#7166F0"/>
<path d="M12.3832 0.954834C11.3626 0.954834 10.5322 1.7852 10.5322 2.80581C10.5322 3.12593 10.614 3.42732 10.7576 3.69026C11.4129 3.81826 11.9897 4.16722 12.4077 4.65614C13.417 4.64296 14.2342 3.81822 14.2342 2.80581C14.2342 1.78517 13.4038 0.954834 12.3832 0.954834Z" fill="#7166F0"/>
<path d="M14.3543 5.16821H12.7598C12.98 5.5772 13.1052 6.04458 13.1052 6.54073V9.16172H15.9999V6.81378C15.9999 5.9064 15.2617 5.16821 14.3543 5.16821Z" fill="#7166F0"/>
</svg>
