<svg width="16" height="16" viewBox="0 0 16 16" fill="none" xmlns="http://www.w3.org/2000/svg">
<path fill-rule="evenodd" clip-rule="evenodd" d="M7.15151 0H8.84849C9.7857 0 10.5455 0.716344 10.5455 1.6C10.5455 2.61122 11.6274 3.25412 12.5156 2.77065L12.6058 2.72154C13.4174 2.27972 14.4553 2.54192 14.9239 3.30719L15.7724 4.69283C16.241 5.45809 15.9629 6.43664 15.1512 6.87847C14.2627 7.36216 14.2627 8.63784 15.1512 9.12153C15.9629 9.56336 16.241 10.5419 15.7724 11.3072L14.9239 12.6928C14.4553 13.4581 13.4174 13.7203 12.6058 13.2785L12.5156 13.2294C11.6274 12.7459 10.5455 13.3888 10.5455 14.4C10.5455 15.2837 9.7857 16 8.84849 16H7.15151C6.2143 16 5.45454 15.2837 5.45454 14.4C5.45454 13.3888 4.37259 12.7459 3.48444 13.2294L3.39424 13.2785C2.58258 13.7203 1.54473 13.4581 1.07612 12.6928L0.227635 11.3072C-0.240972 10.5419 0.0371203 9.56337 0.848771 9.12154C1.73734 8.63785 1.73734 7.36215 0.848773 6.87846C0.0371216 6.43663 -0.240971 5.45808 0.227636 4.69281L1.07612 3.30717C1.54473 2.54191 2.58259 2.27971 3.39424 2.72153L3.48444 2.77064C4.37259 3.25411 5.45454 2.61121 5.45454 1.6C5.45454 0.716345 6.2143 0 7.15151 0ZM8.00001 10.6667C9.47277 10.6667 10.6667 9.47276 10.6667 8C10.6667 6.52724 9.47277 5.33333 8.00001 5.33333C6.52725 5.33333 5.33334 6.52724 5.33334 8C5.33334 9.47276 6.52725 10.6667 8.00001 10.6667Z" fill="#7166F0"/>
</svg>
