<svg width="16" height="15" viewBox="0 0 16 15" fill="none" xmlns="http://www.w3.org/2000/svg">
<path d="M11.647 3.9928C11.2971 3.9928 11.0908 4.1928 11.0908 4.61777V6.27399C11.0908 6.56149 11.1783 6.74274 11.347 6.83649V6.56149C11.347 6.35524 11.4971 6.26774 11.647 6.26774C11.7971 6.26774 11.947 6.35524 11.947 6.56149V6.83649C12.1096 6.74274 12.2095 6.56149 12.2095 6.27399V4.61777C12.2095 4.1928 11.9971 3.9928 11.647 3.9928V3.9928Z" fill="#7166F0"/>
<path d="M7.21533 5.99894H8.12783L7.67158 4.32397L7.21533 5.99894Z" fill="#7166F0"/>
<path d="M12.4062 0H3.59375C1.61216 0 0 1.61216 0 3.59375V7.03125C0 8.85406 1.364 10.3642 3.125 10.5946V13.7758C3.125 13.9654 3.23919 14.1364 3.41438 14.2089C3.47234 14.2329 3.53328 14.2446 3.59366 14.2446C3.71563 14.2446 3.83553 14.197 3.92519 14.1073L7.4075 10.625H12.4062C14.3878 10.625 16 9.01284 16 7.03125V3.59375C16 1.61216 14.3878 0 12.4062 0V0ZM5.03441 5.04903C5.22191 5.04903 5.32816 5.23028 5.32816 5.43028C5.32816 5.59903 5.24062 5.79903 5.03441 5.79903H4.09069V7.41153C4.09069 7.61153 3.84691 7.71153 3.60319 7.71153C3.35941 7.71153 3.11569 7.61153 3.11569 7.41153V3.44281C3.11569 3.24281 3.32816 3.14281 3.54069 3.14281H5.70937C5.91562 3.14281 6.00313 3.36156 6.00313 3.56156C6.00313 3.79281 5.89687 3.99281 5.70937 3.99281H4.09066V5.04903H5.03441ZM8.86569 7.7115C8.70944 7.7115 8.58444 7.6615 8.54697 7.53025L8.33444 6.749H7.01572L6.80325 7.53025C6.76572 7.6615 6.64072 7.7115 6.48447 7.7115C6.21572 7.7115 5.85947 7.54275 5.85947 7.3115C5.85947 7.29275 5.86575 7.26775 5.87197 7.24275L7.03444 3.43031C7.10322 3.21156 7.38447 3.10531 7.67194 3.10531C7.95941 3.10531 8.24066 3.21156 8.30944 3.43031L9.47812 7.24275C9.48434 7.26775 9.49063 7.29275 9.49063 7.3115C9.49069 7.54275 9.13444 7.7115 8.86569 7.7115ZM13.1843 6.274C13.1843 7.224 12.6594 7.64272 11.9468 7.73025V8.09275C11.9468 8.29275 11.7969 8.39275 11.6468 8.39275C11.4969 8.39275 11.3468 8.29275 11.3468 8.09275V7.73025C10.6344 7.64275 10.1157 7.224 10.1157 6.274V4.61778C10.1157 3.53653 10.7843 3.14281 11.6468 3.14281C12.5093 3.14281 13.1843 3.53656 13.1843 4.61778V6.274H13.1843Z" fill="#7166F0"/>
</svg>
