<svg width="16" height="17" viewBox="0 0 16 17" fill="none" xmlns="http://www.w3.org/2000/svg">
<path d="M5.95312 8.49524H9.35501V11.0467H5.95312V8.49524Z" fill="#7166F0"/>
<path d="M8.50472 6.79404C8.50472 6.3244 8.12392 5.9436 7.65415 5.9436C7.18451 5.9436 6.80371 6.32427 6.80371 6.79404V7.64448H8.50459V6.79404H8.50472Z" fill="#7166F0"/>
<path d="M14.883 2.54211C12.4092 2.54211 9.15444 1.7075 7.99428 0.160833C7.83994 -0.0271014 7.56251 -0.0542086 7.37471 0.100004C7.35253 0.118292 7.33217 0.138654 7.31388 0.160833C6.15372 1.70724 2.89878 2.54211 0.425155 2.54211C0.190399 2.54211 0 2.73251 0 2.9674V8.49532C0 13.1712 4.0605 15.99 7.53748 16.9834C7.61361 17.0055 7.69455 17.0055 7.77081 16.9834C11.2478 15.99 15.3083 13.1712 15.3083 8.49532V2.9674C15.3083 2.73251 15.1179 2.54211 14.883 2.54211V2.54211ZM10.2055 11.4719C10.2055 11.7068 10.0151 11.8972 9.78037 11.8972H5.52792C5.29316 11.8972 5.10276 11.7068 5.10276 11.4719V8.07016C5.10276 7.83528 5.29316 7.64488 5.52792 7.64488H5.9532V6.79444C5.9532 5.85503 6.71467 5.09356 7.65408 5.09356C8.59349 5.09356 9.35509 5.85503 9.35509 6.79444V7.64488H9.78024C10.0151 7.64488 10.2054 7.83528 10.2054 8.07016V11.4719H10.2055Z" fill="#7166F0"/>
</svg>
