<svg width="17" height="17" viewBox="0 0 17 17" fill="none" xmlns="http://www.w3.org/2000/svg">
<path d="M14.7133 4.94087L9.55553 0.206944C9.3861 0.0714301 9.18372 0 8.97033 0C8.75698 0 8.55413 0.0714301 8.38473 0.206944L3.22754 4.92674C2.82334 5.24954 2.75632 5.83911 3.08099 6.24449C3.40275 6.64744 3.99304 6.71606 4.39874 6.39104L8.97033 2.17138L13.5429 6.40564C13.9203 6.70956 14.5529 6.644 14.8598 6.25819C15.184 5.85449 15.1179 5.26401 14.7133 4.94087Z" fill="#7166F0"/>
<path d="M13.6608 0.000976562H11.7853C11.5261 0.000976562 11.3164 0.210672 11.3164 0.469852V0.543814L14.1296 3.13849V0.469852C14.1296 0.210672 13.9199 0.000976562 13.6608 0.000976562Z" fill="#7166F0"/>
<path d="M1.46912 7.53467H0.468876C0.209726 7.53467 0 7.74436 0 8.00354V15.5367C0 15.7958 0.209695 16.0055 0.468876 16.0055H1.46912C2.24475 16.0055 2.87571 15.3746 2.87571 14.5989V8.94126C2.87571 8.16563 2.24478 7.53467 1.46912 7.53467Z" fill="#7166F0"/>
<path d="M15.6225 8.6503C15.238 8.36899 14.7035 8.42526 14.3847 8.77222L11.8528 11.923C11.6746 12.1105 11.337 12.2231 11.1589 12.2231H7.09844C6.83585 12.2231 6.62957 12.0168 6.62957 11.7542C6.62957 11.4916 6.83582 11.2853 7.09844 11.2853C9.19896 11.2853 8.51442 11.2853 10.8494 11.2853C11.3652 11.2853 11.7871 10.8633 11.7871 10.3476C11.7871 9.83183 11.3651 9.40987 10.8494 9.40987C8.6474 9.40987 10.7478 9.40987 8.39253 9.40987C8.15886 9.40987 8.04232 9.26167 7.85801 9.10039C7.5767 8.84725 7.25787 8.65968 6.92967 8.52839C5.91351 8.11344 4.73934 8.23901 3.81641 8.88085C3.81641 10.5881 3.81641 13.1321 3.81641 15.0675H10.8494C11.7309 15.0675 12.5749 14.6455 13.1 13.9422L15.8194 9.9725C16.1288 9.55989 16.0444 8.95975 15.6225 8.6503Z" fill="#7166F0"/>
<path d="M8.96888 3.44824L4.75 7.34261V7.46984C5.05951 7.39853 5.37499 7.35027 5.69779 7.35027C6.24406 7.35027 6.77608 7.45468 7.27975 7.66024C7.37907 7.69998 7.46813 7.75618 7.56316 7.80295V7.06548C7.56316 6.80633 7.77285 6.59661 8.03203 6.59661H9.90751C10.1667 6.59661 10.3764 6.8063 10.3764 7.06548V8.47208H10.8453C11.5976 8.47208 12.2478 8.91713 12.5463 9.55769L13.1896 8.75714V7.35377L8.96888 3.44824Z" fill="#7166F0"/>
<path d="M8.50391 7.53418V8.42098L8.56024 8.47193H9.44166V7.53418H8.50391Z" fill="#7166F0"/>
</svg>
