<svg width="22" height="22" viewBox="0 0 22 22" fill="none" xmlns="http://www.w3.org/2000/svg">
<path d="M20.7155 15.134L20.0332 14.7162V14.7162L20.7155 15.134ZM19.6548 16.866L20.3371 17.2838L19.6548 16.866ZM1.28455 6.86602L0.602294 6.44825H0.602294L1.28455 6.86602ZM2.34516 5.13397L3.02741 5.55174V5.55174L2.34516 5.13397ZM5.2428 4.40192L5.62528 3.69928L5.62528 3.69928L5.2428 4.40192ZM2.06097 9.59807L1.67848 10.3007H1.67848L2.06097 9.59807ZM16.7572 17.5981L16.3747 18.3007H16.3747L16.7572 17.5981ZM19.939 12.4019L19.5565 13.1046L19.939 12.4019ZM2.34515 16.866L1.6629 17.2838H1.6629L2.34515 16.866ZM1.28454 15.134L1.96679 14.7162L1.96679 14.7162L1.28454 15.134ZM19.6548 5.13398L20.3371 4.71621V4.71621L19.6548 5.13398ZM20.7155 6.86603L20.0332 7.2838V7.28381L20.7155 6.86603ZM19.939 9.59808L20.3215 10.3007L19.939 9.59808ZM16.7572 4.40193L17.1397 5.10457L16.7572 4.40193ZM2.06096 12.4019L2.44345 13.1046H2.44345L2.06096 12.4019ZM5.24279 17.5981L4.86031 16.8954L4.86031 16.8954L5.24279 17.5981ZM16.6445 4.46331L16.262 3.76067V3.76067L16.6445 4.46331ZM5.35556 4.4633L4.97307 5.16594L4.97307 5.16594L5.35556 4.4633ZM16.6445 17.5367L17.0269 16.8341H17.0269L16.6445 17.5367ZM5.35556 17.5367L5.73804 18.2393L5.73804 18.2393L5.35556 17.5367ZM9.93939 1.8H12.0606V0.2H9.93939V1.8ZM12.0606 20.2H9.93939V21.8H12.0606V20.2ZM9.93939 20.2C9.1647 20.2 8.61817 19.619 8.61817 19H7.01817C7.01817 20.5901 8.37105 21.8 9.93939 21.8V20.2ZM13.3818 19C13.3818 19.619 12.8353 20.2 12.0606 20.2V21.8C13.629 21.8 14.9818 20.5901 14.9818 19H13.3818ZM12.0606 1.8C12.8353 1.8 13.3818 2.38096 13.3818 3H14.9818C14.9818 1.4099 13.629 0.2 12.0606 0.2V1.8ZM9.93939 0.2C8.37105 0.2 7.01817 1.4099 7.01817 3H8.61817C8.61817 2.38096 9.1647 1.8 9.93939 1.8V0.2ZM20.0332 14.7162L18.9726 16.4482L20.3371 17.2838L21.3977 15.5517L20.0332 14.7162ZM1.9668 7.28379L3.02741 5.55174L1.6629 4.7162L0.602294 6.44825L1.9668 7.28379ZM3.02741 5.55174C3.38005 4.97584 4.20171 4.74605 4.86031 5.10456L5.62528 3.69928C4.25475 2.95322 2.48178 3.37892 1.6629 4.7162L3.02741 5.55174ZM2.44345 8.89543C1.80982 8.5505 1.63254 7.82966 1.9668 7.28379L0.602294 6.44825C-0.234963 7.81555 0.282989 9.54107 1.67848 10.3007L2.44345 8.89543ZM18.9726 16.4482C18.62 17.0241 17.7983 17.2539 17.1397 16.8954L16.3747 18.3007C17.7453 19.0468 19.5182 18.6211 20.3371 17.2838L18.9726 16.4482ZM21.3977 15.5517C22.235 14.1844 21.717 12.4589 20.3215 11.6993L19.5565 13.1046C20.1902 13.4495 20.3675 14.1703 20.0332 14.7162L21.3977 15.5517ZM3.02741 16.4483L1.96679 14.7162L0.602293 15.5518L1.6629 17.2838L3.02741 16.4483ZM18.9726 5.55175L20.0332 7.2838L21.3977 6.44826L20.3371 4.71621L18.9726 5.55175ZM20.0332 7.28381C20.3675 7.82968 20.1902 8.55052 19.5565 8.89544L20.3215 10.3007C21.717 9.54108 22.235 7.81556 21.3977 6.44826L20.0332 7.28381ZM17.1397 5.10457C17.7983 4.74606 18.6199 4.97586 18.9726 5.55175L20.3371 4.71621C19.5182 3.37894 17.7453 2.95323 16.3747 3.69929L17.1397 5.10457ZM1.96679 14.7162C1.63253 14.1703 1.80981 13.4495 2.44345 13.1046L1.67848 11.6993C0.282987 12.4589 -0.234964 14.1845 0.602293 15.5518L1.96679 14.7162ZM1.6629 17.2838C2.48177 18.6211 4.25475 19.0468 5.62528 18.3007L4.86031 16.8954C4.20171 17.254 3.38005 17.0242 3.0274 16.4483L1.6629 17.2838ZM17.0269 5.16595L17.1397 5.10457L16.3747 3.69929L16.262 3.76067L17.0269 5.16595ZM4.86031 5.10456L4.97307 5.16594L5.73804 3.76066L5.62528 3.69928L4.86031 5.10456ZM17.1397 16.8954L17.0269 16.8341L16.262 18.2393L16.3747 18.3007L17.1397 16.8954ZM4.97307 16.8341L4.86031 16.8954L5.62528 18.3007L5.73804 18.2393L4.97307 16.8341ZM1.67848 10.3007C2.23251 10.6023 2.23251 11.3977 1.67848 11.6993L2.44345 13.1046C4.11085 12.1969 4.11085 9.80309 2.44345 8.89543L1.67848 10.3007ZM5.73804 18.2393C6.31514 17.9252 7.01817 18.3429 7.01817 19H8.61817C8.61817 17.129 6.61633 15.9395 4.97307 16.8341L5.73804 18.2393ZM14.9818 19C14.9818 18.3429 15.6849 17.9252 16.262 18.2393L17.0269 16.8341C15.3837 15.9395 13.3818 17.129 13.3818 19H14.9818ZM20.3215 11.6993C19.7675 11.3977 19.7675 10.6023 20.3215 10.3007L19.5565 8.89544C17.8892 9.8031 17.8892 12.1969 19.5565 13.1046L20.3215 11.6993ZM4.97307 5.16594C6.61634 6.06046 8.61817 4.87096 8.61817 3H7.01817C7.01817 3.65707 6.31514 4.07481 5.73804 3.76066L4.97307 5.16594ZM16.262 3.76067C15.6849 4.07482 14.9818 3.65707 14.9818 3H13.3818C13.3818 4.87097 15.3837 6.06048 17.0269 5.16595L16.262 3.76067ZM13.5333 11C13.5333 12.3991 12.3991 13.5333 11 13.5333V15.1333C13.2828 15.1333 15.1333 13.2828 15.1333 11H13.5333ZM11 13.5333C9.60089 13.5333 8.46668 12.3991 8.46668 11H6.86668C6.86668 13.2828 8.71723 15.1333 11 15.1333V13.5333ZM8.46668 11C8.46668 9.60088 9.60089 8.46667 11 8.46667V6.86667C8.71723 6.86667 6.86668 8.71722 6.86668 11H8.46668ZM11 8.46667C12.3991 8.46667 13.5333 9.60088 13.5333 11H15.1333C15.1333 8.71722 13.2828 6.86667 11 6.86667V8.46667Z" fill="#7E8BA0"/>
</svg>
