<svg width="14" height="14" viewBox="0 0 14 14" fill="none" xmlns="http://www.w3.org/2000/svg">
<path d="M8.79768 7.85826C6.01905 10.4867 6.06595 10.4946 5.91744 13.3016C0.790076 13.1984 -0.0814203 13.9171 0.0162811 11.4673C0.082718 10.5462 -0.194754 9.6886 0.321109 9.12084C2.82617 7.53269 5.95653 7.19124 8.79768 7.85826Z" fill="#7166F0"/>
<path d="M9.47373 3.31986C9.23534 7.83816 3.06452 7.61978 2.91992 3.31589C3.15441 -1.19843 9.34477 -1.01182 9.47373 3.31986Z" fill="#7166F0"/>
<path d="M13.999 7.67965C13.8505 9.26383 10.1535 11.9677 9.59467 12.8332C8.99283 13.3891 8.21122 13.2938 7.4257 13.4407C6.265 13.7027 6.52684 12.9086 6.62064 12.19C6.65581 10.2763 7.80869 9.85542 8.68409 8.82312C9.73926 7.88214 10.5287 6.63544 11.7715 5.96048C12.8501 5.60712 14.0342 6.51236 13.999 7.67965ZM7.53512 12.4679C9.21949 12.5394 9.98938 10.9235 11.1032 9.96262C11.7793 9.17649 14.3899 7.30247 12.2287 6.84984C10.9625 7.43746 10.1848 8.85886 9.10616 9.75219C7.69535 11.114 7.64455 11.1458 7.53512 12.4679Z" fill="#7166F0"/>
<path d="M10.0366 13.3009C10.7596 12.5664 11.4631 11.8518 12.1743 11.1292C12.3541 13.2493 11.7483 13.3645 10.0366 13.3009Z" fill="#7166F0"/>
</svg>
