<svg width="16" height="16" viewBox="0 0 16 16" fill="none" xmlns="http://www.w3.org/2000/svg">
<path d="M6.42625 1.01713C7.07 -0.339042 8.93 -0.339044 9.57375 1.01713L10.6863 3.36094C10.9419 3.89948 11.4361 4.27275 12.0077 4.35911L14.4955 4.73495C15.9349 4.95243 16.5097 6.79163 15.4681 7.84727L13.6679 9.67167C13.2543 10.0909 13.0656 10.6948 13.1632 11.2867L13.5882 13.8628C13.8341 15.3534 12.3293 16.4901 11.0418 15.7864L8.81666 14.5701C8.3054 14.2906 7.6946 14.2906 7.18334 14.5701L4.95821 15.7864C3.67071 16.4901 2.16594 15.3534 2.41183 13.8628L2.83679 11.2867C2.93443 10.6948 2.74569 10.0909 2.33207 9.67167L0.5319 7.84727C-0.509707 6.79164 0.0650625 4.95243 1.50453 4.73495L3.9923 4.35911C4.56391 4.27275 5.05805 3.89948 5.31369 3.36094L6.42625 1.01713Z" fill="#7166F0"/>
</svg>
