<svg width="13" height="15" viewBox="0 0 13 15" fill="none" xmlns="http://www.w3.org/2000/svg">
<path fill-rule="evenodd" clip-rule="evenodd" d="M3.3548 2.66566C3.3548 1.19346 4.54825 0 6.02046 0C7.49266 0 8.68612 1.19346 8.68612 2.66566V3.38345C10.0313 3.47726 11.1382 4.51091 11.3077 5.8672L12.0185 11.5539C12.2307 13.251 10.9074 14.75 9.19713 14.75H2.84379C1.13351 14.75 -0.189759 13.251 0.0223758 11.5539L0.733219 5.8672C0.902756 4.51091 2.00966 3.47726 3.3548 3.38345V2.66566ZM7.61986 2.66566V3.37651H4.42106V2.66566C4.42106 1.78234 5.13714 1.06627 6.02046 1.06627C6.90378 1.06627 7.61986 1.78234 7.61986 2.66566ZM3.88795 8.53012C3.5935 8.53012 3.35481 8.76881 3.35481 9.06325C3.35481 9.35769 3.5935 9.59639 3.88795 9.59639H8.153C8.44745 9.59639 8.68614 9.35769 8.68614 9.06325C8.68614 8.76881 8.44745 8.53012 8.153 8.53012H3.88795Z" fill="#7166F0"/>
</svg>
