<svg width="17" height="17" viewBox="0 0 17 17" fill="none" xmlns="http://www.w3.org/2000/svg">
<path d="M0.852166 6.6L15.6478 6.6C16.4894 6.6 16.8199 5.48508 16.1197 5.00823L9.19365 0.291844C8.62222 -0.0972814 7.87778 -0.0972814 7.30635 0.291844L0.380337 5.00823C-0.319905 5.48508 0.010578 6.6 0.852166 6.6Z" fill="#7166F0"/>
<path d="M2.8875 7.8375H5.3625V11.9625H2.8875V7.8375Z" fill="#7166F0"/>
<path d="M13.6125 7.8375H11.1375V11.9625H13.6125V7.8375Z" fill="#7166F0"/>
<path d="M7.0125 7.8375H9.4875V11.9625H7.0125V7.8375Z" fill="#7166F0"/>
<path d="M15.078 13.656C14.9383 13.3766 14.6526 13.2 14.3401 13.2L2.15988 13.2C1.84739 13.2 1.56172 13.3766 1.42198 13.656L0.596975 15.306C0.322703 15.8546 0.721588 16.5 1.33488 16.5H15.1651C15.7784 16.5 16.1773 15.8546 15.903 15.306L15.078 13.656Z" fill="#7166F0"/>
</svg>
