<svg width="16" height="18" viewBox="0 0 16 18" fill="none" xmlns="http://www.w3.org/2000/svg">
<path fill-rule="evenodd" clip-rule="evenodd" d="M6.15248 0.507775C7.29573 -0.169259 8.70427 -0.169258 9.84752 0.507775L14.1525 3.05718C15.2957 3.73421 16 4.98542 16 6.33949V11.4383C16 12.7924 15.2957 14.0436 14.1525 14.7206L9.84752 17.27C8.70427 17.947 7.29573 17.947 6.15248 17.27L1.84752 14.7206C0.704271 14.0436 0 12.7924 0 11.4383V6.33949C0 4.98542 0.704271 3.73421 1.84752 3.05718L6.15248 0.507775ZM8 5.11111C7.38635 5.11111 6.88889 5.60857 6.88889 6.22222C6.88889 6.59041 6.59041 6.88889 6.22222 6.88889C5.85403 6.88889 5.55556 6.59041 5.55556 6.22222C5.55556 4.87219 6.64997 3.77778 8 3.77778C9.35003 3.77778 10.4444 4.87219 10.4444 6.22222C10.4444 6.70786 10.3021 7.16229 10.0567 7.54367C9.90302 7.78255 9.72331 8.01062 9.5576 8.21656L9.46822 8.32734C9.33073 8.49751 9.20452 8.65373 9.08789 8.81402C8.80026 9.20933 8.66667 9.5064 8.66667 9.77778V10.2222C8.66667 10.5904 8.36819 10.8889 8 10.8889C7.63181 10.8889 7.33333 10.5904 7.33333 10.2222V9.77778C7.33333 9.06732 7.68214 8.4798 8.00974 8.02956C8.14817 7.83931 8.29985 7.65168 8.43778 7.48106L8.51879 7.3807C8.68341 7.17612 8.82354 6.99613 8.93547 6.82218C9.04658 6.6495 9.11111 6.44441 9.11111 6.22222C9.11111 5.60857 8.61365 5.11111 8 5.11111ZM8.66667 12.4444C8.66667 12.0763 8.36819 11.7778 8 11.7778C7.63181 11.7778 7.33333 12.0763 7.33333 12.4444V13.3333C7.33333 13.7015 7.63181 14 8 14C8.36819 14 8.66667 13.7015 8.66667 13.3333V12.4444Z" fill="#7166F0"/>
</svg>
