<svg width="21" height="21" viewBox="0 0 21 21" fill="none" xmlns="http://www.w3.org/2000/svg">
<path d="M11.6136 0H9.38636C8.15627 0 7.15908 0.940203 7.15908 2.1C7.15908 3.42721 5.73903 4.27102 4.57333 3.63646L4.45493 3.57201C3.38964 2.99211 2.02746 3.33625 1.41241 4.34067L0.298772 6.15932C-0.316274 7.16373 0.0487222 8.44807 1.11401 9.02797C2.28026 9.66283 2.28026 11.3372 1.11401 11.972C0.0487204 12.5519 -0.316276 13.8363 0.298771 14.8407L1.41241 16.6593C2.02746 17.6637 3.38964 18.0079 4.45493 17.428L4.57333 17.3635C5.73903 16.729 7.15908 17.5728 7.15908 18.9C7.15908 20.0598 8.15627 21 9.38636 21H11.6136C12.8437 21 13.8409 20.0598 13.8409 18.9C13.8409 17.5728 15.261 16.729 16.4267 17.3635L16.5451 17.428C17.6104 18.0079 18.9725 17.6637 19.5876 16.6593L20.7012 14.8407C21.3163 13.8363 20.9513 12.5519 19.886 11.972C18.7197 11.3372 18.7197 9.66284 19.886 9.02799C20.9513 8.44809 21.3163 7.16375 20.7012 6.15933L19.5876 4.34068C18.9725 3.33627 17.6104 2.99213 16.5451 3.57203L16.4267 3.63647C15.261 4.27103 13.8409 3.42722 13.8409 2.1C13.8409 0.940202 12.8437 0 11.6136 0Z" fill="#7166F0"/>
<path d="M14.4375 10.5C14.4375 12.6746 12.6746 14.4375 10.5 14.4375C8.32538 14.4375 6.5625 12.6746 6.5625 10.5C6.5625 8.32538 8.32538 6.5625 10.5 6.5625C12.6746 6.5625 14.4375 8.32538 14.4375 10.5Z" fill="white"/>
</svg>
