<svg width="16" height="14" viewBox="0 0 16 14" fill="none" xmlns="http://www.w3.org/2000/svg">
<path d="M3.80002 0C1.70133 0 0 1.70133 0 3.80002V10.2001C0 12.2988 1.70133 14.0001 3.80002 14.0001H9.60006C11.6988 14.0001 13.4001 12.2988 13.4001 10.2001C13.4001 9.86869 13.1315 9.60006 12.8001 9.60006C12.4687 9.60006 12.2001 9.86869 12.2001 10.2001C12.2001 11.636 11.036 12.8001 9.60006 12.8001H5.97133C6.6093 12.1204 7.00004 11.2058 7.00004 10.2001V3.80002C7.00004 2.79425 6.6093 1.87973 5.97133 1.20001H9.60006C11.036 1.20001 12.2001 2.36407 12.2001 3.80002C12.2001 4.1314 12.4687 4.40003 12.8001 4.40003C13.1315 4.40003 13.4001 4.1314 13.4001 3.80002C13.4001 1.70133 11.6988 0 9.60006 0H3.80002Z" fill="#7166F0"/>
<path d="M10.8242 4.97577C11.0585 5.21008 11.0585 5.58998 10.8242 5.8243L10.2485 6.40004L15.4 6.40004C15.7314 6.40004 16 6.66867 16 7.00004C16 7.33141 15.7314 7.60005 15.4 7.60005L10.2485 7.60005L10.8242 8.17578C11.0585 8.4101 11.0585 8.79 10.8242 9.02432C10.5899 9.25863 10.21 9.25863 9.97568 9.02432L8.94135 7.99C8.39462 7.44326 8.39462 6.55682 8.94136 6.01009L9.97568 4.97577C10.21 4.74145 10.5899 4.74145 10.8242 4.97577Z" fill="#7166F0"/>
</svg>
