<svg width="16" height="16" viewBox="0 0 16 16" fill="none" xmlns="http://www.w3.org/2000/svg">
<path fill-rule="evenodd" clip-rule="evenodd" d="M1.80018 0.200195C0.916533 0.200195 0.200198 0.91653 0.200198 1.80017V5.00013C0.200198 5.88377 0.916533 6.60011 1.80018 6.60011H5.00013C5.88378 6.60011 6.60011 5.88377 6.60011 5.00013V1.80017C6.60011 0.91653 5.88378 0.200195 5.00013 0.200195H1.80018ZM12.8001 6.60012C14.5673 6.60012 16 5.16745 16 3.40016C16 1.63288 14.5673 0.200206 12.8001 0.200206C11.0328 0.200206 9.60011 1.63288 9.60011 3.40016C9.60011 5.16745 11.0328 6.60012 12.8001 6.60012ZM6.60011 12.8C6.60011 14.5673 5.16744 16 3.40015 16C1.63286 16 0.200195 14.5673 0.200195 12.8C0.200195 11.0327 1.63286 9.60004 3.40015 9.60004C5.16744 9.60004 6.60011 11.0327 6.60011 12.8ZM11.2001 9.6001C10.3164 9.6001 9.6001 10.3164 9.6001 11.2001V14.4C9.6001 15.2837 10.3164 16 11.2001 16H14.4C15.2837 16 16 15.2837 16 14.4V11.2001C16 10.3164 15.2837 9.6001 14.4 9.6001H11.2001Z" fill="#7166F0"/>
</svg>
