<svg width="279" height="295" viewBox="0 0 279 295" fill="none" xmlns="http://www.w3.org/2000/svg">
<path d="M3.19917 146.929C13.0783 82.7827 68.7797 -35.6005 150.466 11.9999C220.592 52.8715 172.34 102.443 229.999 122.853C328.435 157.679 242.886 304.528 123.483 279.164C4.07935 253.8 -5.98369 206.58 3.19917 146.929Z" fill="#E6EBF0"/>
<path d="M201.202 33.0796C196.565 56.4593 204.696 100.038 250.374 114.954C296.052 129.871 280.196 94.006 250.374 64.8176C220.553 35.6292 208.191 -2.14093 201.202 33.0796Z" fill="#E6EBF0"/>
<path d="M100.809 94.3548C100.809 94.3548 104.962 88.344 106.542 88.517C110.032 100.629 112.575 108.152 112.831 108.287C113.718 108.746 125.905 96.6718 127.997 95.9496C128.997 95.6036 130.088 95.6562 131.134 95.6938C133.624 95.7691 134.12 95.7766 134.12 95.7766C134.188 95.7841 134.211 95.7841 134.211 95.7841L134.196 98.1237C131.39 100.651 124.965 138.905 124.423 138.875C123.822 138.845 111.116 142.042 111.341 140.974C111.379 140.801 119.955 133.782 122.385 123.656C123.205 120.256 123.603 116.6 124.047 113.395C121.226 114.809 111.507 120.188 109.761 119.466C104.33 117.239 100.809 94.3548 100.809 94.3548Z" fill="#7166F0"/>
<path d="M179.032 220.98L125.793 208.695V282.11L179.032 294.395V220.98Z" fill="#F7EDE7"/>
<path d="M57.4775 220.98L31.1926 210.32L31.7945 282.11L57.4775 294.395V220.98Z" fill="#F7EDE7"/>
<path d="M179.032 220.98L229.999 209.252L229.533 281.84L179.032 294.395V220.98Z" fill="#FFF8F3"/>
<path d="M57.4774 220.98L125.793 208.695V282.11L57.4774 294.395V220.98Z" fill="#FFF8F3"/>
<path d="M179.032 224.124V291.063L125.793 278.635V212.193L179.032 224.124Z" fill="#C6D0DB"/>
<path d="M57.4773 224.26V291.123L34.2091 280.741V215.759L57.4773 224.26Z" fill="#C6D0DB"/>
<path d="M226.546 279.748L179.032 291.063V224.124L226.546 213.043V279.748Z" fill="#FFE1C8"/>
<path d="M125.793 278.635L57.4774 291.123V224.26L125.793 212.193V278.635Z" fill="#FFE1C8"/>
<path d="M81.6784 222.183C76.7058 223.011 71.7858 223.537 71.4774 226.953C70.9734 232.565 85.7332 230.722 84.7101 227.81C83.7397 225.05 84.2061 223.959 93.0906 223.959C101.975 223.959 102.878 222.281 100.869 220.724C99.154 219.385 91.2776 220.588 81.6784 222.183Z" fill="#BAC5D0"/>
<path d="M34.2091 274.49C34.2091 274.49 36.2328 272.263 40.8668 271.767C45.847 271.232 50.6165 269.75 50.451 266.425C50.2855 263.093 54.8895 264.447 57.4848 257.812C57.4848 249.401 57.4848 237.041 57.4848 234.378C57.4848 231.715 55.4762 227.848 48.1941 227.231C40.912 226.614 38.9034 229.721 40.6562 233.046C42.4166 236.379 37.3913 238.892 34.2091 239.561C34.2091 259.76 34.2091 274.49 34.2091 274.49Z" fill="#C6D0DB"/>
<path d="M57.4773 257.804C57.4773 257.804 58.6283 254.945 62.3296 254.291C67.242 253.418 77.7364 256.126 82.4231 250.815C86.4178 246.279 94.0685 248.664 100.839 247.107C105.691 245.993 101.847 242.149 108.385 242.224C119.24 242.352 122.783 240.975 122.603 237.259C122.264 230.3 125.868 229.007 125.868 229.007L125.785 212.185C112.372 215.315 107.098 220.491 113.297 227.291C117.48 231.88 113.982 235.168 104.352 237.658C73.9373 245.527 68.0394 232.414 57.4698 239.441L57.4773 257.804Z" fill="#BAC5D0"/>
<path d="M200.141 286.037L195.657 256.33L226.546 248.942V244.647L189.932 254.562L191.926 267.749L179.032 269.72V274.49L192.769 272.835L195.116 287.234L200.141 286.037Z" fill="black"/>
<path d="M125.793 257.466L149.294 269.419L179.032 274.49V269.72L152.408 266.087L132.653 254.983L132.819 243.18L175.015 234.671L179.032 233.189V224.124L175.797 223.394L168.146 230.677L125.793 239.403V257.466Z" fill="#012968"/>
<path d="M183.771 223.289L179.032 233.189V224.124L183.771 223.289Z" fill="black"/>
<path d="M125.792 239.403L123.114 241.103L122.362 252.982H77.255C75.7955 252.982 74.4489 252.32 73.7267 251.244L57.4849 227.058V239.433L66.7982 254.93C67.8363 256.661 69.9352 257.759 72.2297 257.767L80.7305 257.797L67.5881 265.605C63.7815 267.862 62.45 272.12 64.4285 275.678L71.5601 288.535L77.6687 287.422L69.8299 274.324C68.6112 272.293 69.3334 269.811 71.5225 268.487L89.8106 257.451H125.808V239.403H125.792Z" fill="black"/>
<path d="M45.0796 219.731L54.2726 223.086L57.4773 227.066V239.441L34.2091 247.821V241.773L54.9271 235.89L55.0474 231.564L45.0796 219.731Z" fill="#012968"/>
<path d="M179.024 278.244L184.614 276.626L184.885 281.238L179.024 283.051V278.244Z" fill="black"/>
<path d="M154.011 273.993L179.024 278.244V283.051L154.011 278.8V273.993Z" fill="#012968"/>
<path d="M195.657 245.617L213.419 241.058L213.644 244.707L195.883 249.266L195.657 245.617Z" fill="black"/>
<path d="M211.072 271.925L221.754 268.231L223.439 269.954L212.757 273.647L211.072 271.925Z" fill="#012968"/>
<path d="M210.485 255.299L221.957 252.523L222.928 255.028L211.456 257.797L210.485 255.299Z" fill="#012968"/>
<path d="M201.187 276.04L198.554 260.542L202.887 259.113L205.798 274.949L201.187 276.04Z" fill="#012968"/>
<path d="M207.822 280.501L222.514 274.904L224.259 276.581L209.56 282.178L207.822 280.501Z" fill="#012968"/>
<path d="M141.109 254.291L159.171 263.303L155.734 264.65L137.671 255.637L141.109 254.291Z" fill="black"/>
<path d="M114.305 259.474L125.792 260.828L138.657 268.787L138.077 272.662L125.792 264.123L115.042 262.882L114.305 259.474Z" fill="black"/>
<path d="M189.842 224.365C191.851 224.538 193.122 226.276 192.408 227.878L190.933 231.188C190.437 232.294 189.128 232.986 187.743 232.866C185.735 232.693 184.463 230.955 185.178 229.353L186.653 226.043C187.149 224.929 188.458 224.245 189.842 224.365Z" fill="black"/>
<path d="M165.468 221.198L169.809 222.116L159.661 229.533L155.327 228.615L165.468 221.198Z" fill="black"/>
<path d="M155.327 228.615L159.66 229.533L130.81 236.221L128.982 234.589L155.327 228.615Z" fill="black"/>
<path d="M173.059 238.199L174.676 240.96L148.978 243.917L147.353 241.156L173.059 238.199Z" fill="black"/>
<path d="M135.881 244.82L141.515 244.79L141.718 252.749L136.084 252.779L135.881 244.82Z" fill="black"/>
<path d="M94.0687 248.649L94.1364 251.139L111.853 251.049V251.056L117.48 251.026V251.019L117.42 248.536L117.277 243.067L111.65 243.097L111.785 248.559L94.0687 248.649Z" fill="black"/>
<path d="M72.2524 233.964L72.3126 236.454L90.0364 236.364V236.371L95.6635 236.341V236.334L95.5958 233.851L95.5657 232.422H110.672L110.566 228.382L89.8258 228.412L89.9687 233.874L72.2524 233.964Z" fill="black"/>
<path d="M187.066 265.974C190.918 265.011 179.197 257.21 186.976 252.185C190.376 249.988 186.058 244.767 192.423 243.067C204.429 239.855 209.071 233.565 222.469 240.787C223.921 241.57 225.275 242.224 226.539 242.766V213.043L204.655 218.144C202.473 220.566 200.442 224.929 199.502 228.232C198.411 232.061 194.71 233.031 188.293 235.476C181.876 237.921 182.372 241.69 179.024 241.547C179.024 256.721 179.19 263.679 179.19 263.679C181.71 265.312 183.222 266.937 187.066 265.974Z" fill="#BAC5D0"/>
<path d="M158.284 257.804C156.433 255.502 149.151 254.863 148.421 250.356C147.895 247.099 154.199 244.594 163.813 244.594C172.788 244.594 170.975 248.777 179.032 241.547C179.032 259.384 179.197 263.679 179.197 263.679C179.197 263.679 167.386 267.764 161.015 262.942C157.148 260.016 159.247 259 158.284 257.804Z" fill="#C6D0DB"/>
<path d="M137.889 281.456C138.566 279.312 137.513 278.695 134 276.777C130.487 274.858 129.396 272.376 125.793 270.789C125.793 277.078 125.793 278.635 125.793 278.635L137.889 281.456Z" fill="#256653"/>
<path d="M92.6544 284.691C92.6544 284.691 94.836 283.179 88.7049 279.854C74.0729 271.917 84.8983 263.589 92.1353 261.701C99.3798 259.813 108.904 260.181 113.297 264.033C117.322 267.554 123.987 269.419 125.785 270.789C125.785 276.86 125.785 278.635 125.785 278.635L92.6544 284.691Z" fill="#BAC5D0"/>
<path d="M132.909 213.788C135.881 214.63 140.108 216.744 136.633 220.604C133.157 224.455 136.919 227.457 125.868 229.014C125.868 217.692 125.785 212.193 125.785 212.193L132.909 213.788Z" fill="#3CA64C"/>
<path d="M198.554 283.051L226.546 271.797V270.247L198.554 280.651V283.051Z" fill="black"/>
<path d="M212.922 268.532C219.061 263.221 221.002 266.508 223.868 266.094C225.824 265.816 226.546 264.484 226.546 264.484V256.992C226.546 256.992 225.689 259.933 218.835 259.572C211.982 259.211 207.799 257.451 205.806 259.926C204.376 261.708 209.665 261.979 208.379 266.99C207.829 269.103 210.327 270.774 212.922 268.532Z" fill="#BAC5D0"/>
<path d="M134.406 49.6088C96.1826 49.6088 65.1959 72.0044 65.1959 118.007C65.1959 164.009 124.055 238.478 124.055 238.478C124.055 238.478 203.624 164.017 203.624 118.014C203.624 72.0044 172.63 49.6088 134.406 49.6088ZM134.406 156.328C112.515 156.328 94.7758 138.582 94.7758 116.698C94.7758 94.8137 112.522 77.0673 134.406 77.0673C156.298 77.0673 174.037 94.8137 174.037 116.698C174.037 138.582 156.298 156.328 134.406 156.328Z" fill="#B79326"/>
<path d="M124.047 49.6088C85.8235 49.6088 54.8369 72.0044 54.8369 118.007C54.8369 164.009 124.047 238.478 124.047 238.478C124.047 238.478 193.265 164.009 193.265 118.007C193.265 72.0044 162.278 49.6088 124.047 49.6088ZM124.047 156.328C102.156 156.328 84.4168 138.582 84.4168 116.698C84.4168 94.8137 102.163 77.0673 124.047 77.0673C145.931 77.0673 163.678 94.8137 163.678 116.698C163.678 138.582 145.939 156.328 124.047 156.328Z" fill="#F2C94C"/>
<path d="M166.401 62.533C166.431 62.7136 166.582 63.9699 166.792 65.8581L172.893 64.4513C172.54 63.511 172.246 62.7211 172.066 62.1343C170.772 58.0494 172.118 56.1687 172.081 53.5958C172.043 51.0155 175.06 48.0064 174.285 47.4798C173.503 46.9532 171.456 51.4443 170.501 51.497C169.546 51.5496 171.238 45.4185 170.524 45.0273C169.207 44.3051 168.289 51.6625 167.657 51.3766C167.025 51.0907 167.627 43.4926 166.251 44.0268C164.874 44.5609 166.401 51.8882 165.558 51.9107C164.723 51.9408 164.731 44.8919 162.986 44.6361C162.053 44.5007 164.407 56.5147 163.55 57.6582C162.692 58.8017 159.141 55.2509 158.216 56.1085C157.283 56.951 166.288 61.7732 166.401 62.533Z" fill="#F79C8D"/>
<path d="M81.528 158.397C81.528 158.397 69.7095 167.65 69.3183 169.298C68.7466 171.66 57.9287 168.553 60.5392 168.071C61.141 167.959 63.0593 167.477 63.2173 167.387C64.0599 166.935 74.5768 154.267 74.5768 154.267L81.528 158.397Z" fill="#F7A491"/>
<path d="M55.469 168.071L63.0144 167.454C63.0144 167.454 65.1735 169.237 69.3185 169.32C69.3185 169.32 69.9806 171.216 69.6646 173.428C69.6119 173.811 69.5442 174.962 69.1606 174.94C67.7688 174.842 64.0525 173.924 59.8247 173.074C59.8247 173.074 54.1374 171.87 50.8499 169.907C47.5624 167.936 55.469 168.071 55.469 168.071Z" fill="#000A53"/>
<path d="M134.482 135.174C134.482 135.174 125.83 136.626 116.261 134.391C105.188 131.804 92.9403 129.404 89.3519 131.495C86.4632 133.173 68.4308 160.428 68.4308 160.428L75.397 165.514L95.2574 143.276C95.2574 143.276 120.594 152.627 126.282 151.589C139.229 149.219 139.417 138.868 134.482 135.174Z" fill="#000A53"/>
<path d="M107.422 176.677C107.422 176.677 107.948 190.971 108.272 193.393C108.595 195.801 102.208 203.06 103.021 200.54C103.209 199.961 103.69 198.035 103.69 197.854C103.698 196.899 101.321 180.589 101.321 180.589L107.422 176.677Z" fill="#F7A491"/>
<path d="M98.9435 205.738L103.66 198.065C103.66 198.065 106.256 197.012 108.302 193.408C108.302 193.408 110.28 193.724 112.078 195.056C112.387 195.282 114.501 196.831 114.358 197.185C113.816 198.494 110.935 201.307 107.79 204.377C107.79 204.377 103.329 207.973 100.042 209.929C96.7469 211.892 98.9435 205.738 98.9435 205.738Z" fill="#000A53"/>
<path d="M93.3991 148.497C96.4233 144.465 120.85 140.628 120.85 140.628L127.658 127.538L142.719 136.821C142.719 136.821 141.214 148.805 140.086 152.002C138.581 156.268 128.463 156.486 122.279 156.426C116.592 156.366 106.203 157.524 106.203 157.524L109.716 188.518C109.716 188.518 102.81 190.091 100.869 189.835C100.644 189.82 89.6302 153.522 93.3991 148.497Z" fill="#012968"/>
<path d="M134.128 95.7991L142.621 96.2731C142.621 96.2731 142.817 96.3333 142.877 96.3408C143.569 96.4687 142.937 121.226 142.32 130.472C141.703 139.718 140.455 143.607 140.455 143.607C140.455 143.607 128.93 141.561 125.394 140.192C123.927 139.62 120.376 135.181 120.376 135.181C120.376 135.181 124.002 130.307 125.83 122.377C127.237 116.269 128.975 105.436 129.975 103.172C132.262 97.9732 134.128 95.7991 134.128 95.7991Z" fill="#FFF8F3"/>
<path d="M142.381 88.7728L142.621 96.2731C142.621 96.2731 137.122 105.752 134.301 104.428C131.931 103.322 134.038 96.1151 134.038 96.1151C134.038 96.1151 134.451 94.4601 135.016 92.5643C135.414 91.2403 135.745 89.8034 135.723 88.7427C135.655 86.1774 142.381 88.7728 142.381 88.7728Z" fill="#F7A491"/>
<path d="M135.715 88.7427C135.655 86.1774 142.381 88.7728 142.381 88.7728L142.403 89.5025C142.178 89.841 141.929 90.1344 141.651 90.3526C139.845 91.8195 137.227 92.4815 135.106 92.2408C135.46 91.0071 135.738 89.7131 135.715 88.7427Z" fill="#F2C94C"/>
<path d="M135.813 71.6582C135.813 71.6582 133.007 75.8861 132.804 79.4368C132.593 82.9952 133.345 85.4175 133.345 85.4175L142.335 74.6673L135.813 71.6582Z" fill="#05173E"/>
<path d="M131.871 78.7147C131.743 79.956 132.224 81.0317 132.954 81.0994C133.676 81.1747 134.368 80.2268 134.496 78.978C134.624 77.7367 134.143 76.6609 133.413 76.5932C132.683 76.518 131.991 77.4659 131.871 78.7147Z" fill="#F48C7F"/>
<path d="M145.246 76.3977C145.45 76.3525 145.435 86.704 142.433 89.1414C139.431 91.5788 134.21 91.7894 132.691 89.337C131.006 86.6212 132.608 75.7206 137.069 73.4036C141.53 71.079 145.246 76.3977 145.246 76.3977Z" fill="#F7A491"/>
<path d="M146.006 69.9806C148.293 71.9892 149.407 73.4562 150.956 77.022C152.86 81.4079 149.083 85.9592 145.909 87.7647C142.741 89.5702 142.478 91.7593 142.478 91.7593L142.35 90.4127C142.29 89.9238 142.305 89.5175 142.388 89.1715C142.486 88.7652 142.674 88.4267 142.839 88.0807C143.11 87.5014 143.975 85.5304 144.314 85.0038C145.209 83.6271 145.382 83.3337 144.938 82.0248C144.6 81.0167 144.991 78.7974 144.464 77.1424L140.199 76.2246C140.199 76.2246 137.528 75.5852 136.181 74.0279C132.315 69.5594 139.965 64.5792 146.006 69.9806Z" fill="#05173E"/>
<path d="M143.923 83.1607C143.396 84.2967 143.509 85.4627 144.163 85.7712C144.825 86.0796 145.781 85.4025 146.307 84.2666C146.834 83.1306 146.721 81.9646 146.067 81.6562C145.412 81.3477 144.449 82.0248 143.923 83.1607Z" fill="#F7A491"/>
<path d="M142.621 96.2731C142.621 96.2731 151.047 95.8819 153.221 94.8964C154.538 94.3021 165.363 85.5831 165.363 85.5831L165.243 62.2322L172.856 61.6529C172.856 61.6529 176.805 87.4638 175.436 90.2849C174.022 93.2038 158.186 105.21 155.012 110.424C153.183 113.425 149.377 154.259 148.805 154.628C144.705 156.764 132.044 158.893 132.345 157.6C140.583 121.836 142.621 96.2731 142.621 96.2731Z" fill="#7166F0"/>
<path d="M139.033 85.8539L134.128 84.2967C134.128 84.2967 133.647 86.1925 135.783 86.9447C138.386 87.8475 139.033 85.8539 139.033 85.8539Z" fill="white"/>
<path d="M52.0158 72.1624L86.5382 72.704C88.0428 72.7266 89.2766 71.5305 89.2991 70.0259L89.6527 47.7357C89.6753 46.2311 88.4791 44.9973 86.9745 44.9748L52.4521 44.4331C50.9476 44.4105 49.7138 45.6067 49.6912 47.1113L49.3377 69.4015C49.3151 70.8986 50.5112 72.1398 52.0158 72.1624Z" fill="#7166F0"/>
<path d="M87.7719 54.8297L99.4022 64.4363L84.7703 64.1655L87.7719 54.8297Z" fill="#7166F0"/>
<path d="M61.8932 56.733L65.4816 56.6352C65.4816 56.6352 69.9653 53.2123 70.0931 52.0236C70.221 50.8275 69.4537 48.3149 70.1533 47.9914C70.853 47.6679 72.335 47.4046 73.2904 48.9694C73.9825 50.1053 73.4559 54.2955 73.8847 54.5739C74.148 54.7469 76.2092 54.7469 77.7213 54.7243C78.7144 54.7093 79.6246 55.2434 80.0986 56.1161C80.422 56.7029 80.2866 57.4401 79.7751 57.8689L78.9852 58.546L79.6246 59.3735C80.0986 59.9904 79.9857 60.8781 79.3688 61.352L78.7444 61.841L79.1808 62.33C79.745 62.9619 79.6397 63.9399 78.9476 64.4288L78.3909 64.8276L78.4736 64.9855C78.8272 65.625 78.6391 66.4374 78.0298 66.8512L77.4731 67.2274L67.9266 67.4907C67.0313 67.5132 66.1436 67.3552 65.3086 67.0242L61.9384 66.5653C61.5773 66.5127 61.3064 66.2118 61.2989 65.8431L61.1936 57.4852C61.1635 57.079 61.487 56.748 61.8932 56.733Z" fill="white"/>
</svg>
