<svg width="283" height="283" viewBox="0 0 283 283" fill="none" xmlns="http://www.w3.org/2000/svg">
<g clip-path="url(#clip0_4_397)">
<path d="M264.122 281.108H14.7793V283H264.122V281.108Z" fill="black"/>
<path d="M7.19915 145.929C17.0783 81.7827 72.7797 -36.6005 154.466 10.9998C224.592 51.8715 176.34 101.443 233.999 121.853C332.435 156.679 246.886 303.528 127.483 278.164C8.07934 252.8 -1.9837 205.58 7.19915 145.929Z" fill="#E6EBF0"/>
<path d="M205.202 32.0796C200.565 55.4592 208.696 99.0381 254.374 113.954C300.052 128.87 284.195 93.0059 254.374 63.8175C224.553 34.6291 212.191 -3.14099 205.202 32.0796Z" fill="#E6EBF0"/>
<path d="M228.284 209.983H204.86V197.143H228.284V209.983ZM206.213 208.643H226.944V198.497H206.213V208.643Z" fill="#AAB6C2"/>
<path d="M244.324 221.469H220.901V208.629H244.324V221.469ZM222.254 220.129H242.984V209.983H222.254V220.129Z" fill="#AAB6C2"/>
<path d="M170.546 99.669H147.123V86.8292H170.546V99.669ZM148.463 98.3285H169.193V88.1828H148.463V98.3285Z" fill="#AAB6C2"/>
<path d="M129.388 241.379H105.964V228.539H129.388V241.379ZM107.317 240.039H128.048V229.893H107.317V240.039Z" fill="#AAB6C2"/>
<path d="M151.484 241.379H128.061V228.539H151.484V241.379ZM129.414 240.039H150.144V229.893H129.414V240.039Z" fill="#AAB6C2"/>
<path d="M140.423 252.865H116.999V240.026H140.423V252.865ZM118.352 251.525H139.083V241.379H118.352V251.525Z" fill="#AAB6C2"/>
<path d="M95.4281 167.547H72.0046V154.708H95.4281V167.547ZM73.3577 166.207H94.0881V156.061H73.3577V166.207Z" fill="#AAB6C2"/>
<path d="M79.3877 179.047H55.9773V166.207H79.4008V179.047H79.3877ZM57.3173 177.706H78.0477V167.561H57.3173V177.706Z" fill="#AAB6C2"/>
<path d="M56.2926 114.756H32.8822V101.916H56.3057V114.756H56.2926ZM34.2222 113.402H54.9526V103.257H34.2222V113.402Z" fill="#AAB6C2"/>
<path d="M78.4024 114.756H54.9789V101.916H78.4024V114.756ZM56.3189 113.402H77.0493V103.257H56.3189V113.402Z" fill="#AAB6C2"/>
<path d="M67.3278 126.242H43.9174V113.402H67.3409V126.242H67.3278ZM45.2574 124.902H65.9878V114.756H45.2574V124.902Z" fill="#AAB6C2"/>
<path d="M65.4754 47.2586H68.7991L66.8811 19.8839H63.5574L65.4754 47.2586Z" fill="black"/>
<path d="M99.7502 281.042H101.405L76.5238 190.559H74.8685L99.7502 281.042Z" fill="black"/>
<path d="M71.3083 190.559H69.7187V281.042H71.3083V190.559Z" fill="black"/>
<path d="M39.4771 281.042H41.1323L66.0141 190.559H64.3456L39.4771 281.042Z" fill="black"/>
<path d="M88.137 240.854L74.1459 190.559H77.4565L91.4607 240.854H88.137Z" fill="black"/>
<path d="M72.1754 190.559H68.8648V240.854H72.1754V190.559Z" fill="black"/>
<path d="M49.4219 240.854L63.5706 190.559H66.8943L52.7456 240.854H49.4219Z" fill="black"/>
<path d="M77.4565 190.559H63.5706V194.081H77.4565V190.559Z" fill="black"/>
<path d="M59.4455 26.192H71.8864L71.6368 22.67H59.1959L59.4455 26.192Z" fill="black"/>
<path d="M130.544 193.516H9.5901L0 25.8766H120.94L130.544 193.516Z" fill="black"/>
<path d="M133.775 193.516H12.835L3.24487 25.8766H124.185L133.775 193.516Z" fill="#AAB6C2"/>
<path d="M17.5381 189.587L7.48816 29.7929H119.482L129.532 189.587H17.5381Z" fill="white"/>
<path d="M119.18 30.1215L129.19 189.258H17.8402L7.82972 30.1215H119.18ZM119.784 29.4644H7.13345L17.2228 189.915H129.874L119.784 29.4644Z" fill="black"/>
<path d="M43.2474 102.297H30.6489V102.81H43.2474V102.297Z" fill="black"/>
<path d="M88.137 41.8835H67.9452V42.3961H88.137V41.8835Z" fill="black"/>
<path d="M116.364 44.6795L115.853 44.7152L116.71 56.9866L117.221 56.9509L116.364 44.6795Z" fill="black"/>
<path d="M111.35 78.8783H99.9341V79.3908H111.35V78.8783Z" fill="black"/>
<path d="M94.5873 102.297H46.8733V102.81H94.5873V102.297Z" fill="black"/>
<path d="M19.3682 56.7372L18.8571 56.773L20.0107 73.266L20.5218 73.2302L19.3682 56.7372Z" fill="black"/>
<path d="M20.1224 56.9614L19.6113 56.9972L20.7502 73.2804L21.2613 73.2446L20.1224 56.9614Z" fill="black"/>
<path d="M42.2476 37.6103L41.7365 37.646L42.6365 50.5336L43.1477 50.4979L42.2476 37.6103Z" fill="black"/>
<path d="M55.754 47.5084H55.4781C45.8749 47.5084 43.97 37.7701 43.9437 37.665L44.4429 37.573C44.5086 37.9541 46.269 46.8118 55.2022 46.9958L54.5716 37.9804L55.084 37.941L55.754 47.5084Z" fill="black"/>
<path d="M29.8344 102.573L28.6127 85.1865H53.9805L53.5601 79.1543L54.0724 79.1149L54.5322 85.699H29.1644L30.3336 102.534L29.8344 102.573Z" fill="black"/>
<path d="M89.0172 97.2903H81.6473L80.7145 83.9905H88.0844L89.0172 97.2903ZM82.1202 96.7777H88.4654L87.6115 84.5031H81.2663L82.1202 96.7777Z" fill="black"/>
<path d="M76.445 63.6993H66.2637L66.2505 63.4627L64.9237 44.4331H104.755L105.425 54.0793H75.775L76.445 63.6993ZM66.7366 63.1999H75.8932L75.2232 53.5799H104.874L104.269 44.9588H65.4623L66.7366 63.1999Z" fill="black"/>
<path d="M39.95 70.52H29.3878L28.6389 59.7567H39.2012L39.95 70.52ZM29.8607 70.0075H39.3982L38.7151 60.2693H29.1776L29.8607 70.0075Z" fill="black"/>
<path d="M48.4497 102.074L47.5827 89.6942H41.29L42.1439 102.035L41.6447 102.074L40.7382 89.1948H48.0688L48.9621 102.035L48.4497 102.074Z" fill="black"/>
<path d="M93.8122 76.9202H76.5106L76.2873 73.6873H93.5889L93.8122 76.9202ZM76.9967 76.4077H93.2736L93.116 74.1867H76.8391L76.9967 76.4077Z" fill="black"/>
<path d="M29.1644 89.1948H22.3463V89.7074H29.1644V89.1948Z" fill="black"/>
<path d="M29.5717 94.8984H22.7535V95.411H29.5717V94.8984Z" fill="black"/>
<path d="M75.1143 44.6805L74.6032 44.7162L75.2414 53.8542L75.7525 53.8185L75.1143 44.6805Z" fill="black"/>
<path d="M75.1706 53.8165H65.8433V54.3291H75.1706V53.8165Z" fill="black"/>
<path d="M67.735 63.4627L66.5001 45.7999H104.611V46.3124H67.0519L68.2474 63.4364L67.735 63.4627Z" fill="black"/>
<path d="M36.1271 50.7676L35.1287 36.5479H44.9684V38.7032H37.4408L38.2684 50.623L36.1271 50.7676Z" fill="black"/>
<path d="M59.6426 50.7676L58.7887 38.7032H54.8081V36.5479H60.7986L61.7839 50.623L59.6426 50.7676Z" fill="black"/>
<path d="M69.9158 41.0688H60.1155V43.2241H69.9158V41.0688Z" fill="black"/>
<path d="M115.199 47.3244L114.91 43.2241H84.9053V41.0688H116.92L117.354 47.1798L115.199 47.3244Z" fill="black"/>
<path d="M119.653 80.2056H110.155V78.0503H117.354L115.699 54.4867L117.853 54.3422L119.653 80.2056Z" fill="black"/>
<path d="M101.642 78.0504H63.807V80.2056H101.642V78.0504Z" fill="black"/>
<path d="M55.9642 78.0504H21.0325V80.2056H55.9642V78.0504Z" fill="black"/>
<path d="M18.4183 57.0495L17.8928 49.6111H45.1129V51.7664H20.2049L20.5596 56.8918L18.4183 57.0495Z" fill="black"/>
<path d="M31.8838 103.638H21.6631L19.5218 72.9907L21.6763 72.833L23.6731 101.483H31.8838V103.638Z" fill="black"/>
<path d="M51.0377 101.483H40.1339V103.638H51.0377V101.483Z" fill="black"/>
<path d="M101.274 103.638H91.9336V101.483H98.962L97.4118 79.2069L99.5532 79.0623L101.274 103.638Z" fill="black"/>
<path d="M107.462 120.933H95.704V121.406H107.462V120.933Z" fill="black"/>
<path d="M72.6483 177.325H53.7965V177.798H72.6483V177.325Z" fill="black"/>
<path d="M27.1371 163.713L26.6653 163.746L27.4667 175.205L27.9385 175.172L27.1371 163.713Z" fill="black"/>
<path d="M42.7876 142.801H32.1334V143.274H42.7876V142.801Z" fill="black"/>
<path d="M92.3146 120.933H47.7797V121.406H92.3146V120.933Z" fill="black"/>
<path d="M117.394 148.515L116.923 148.548L117.998 163.939L118.469 163.906L117.394 148.515Z" fill="black"/>
<path d="M116.715 148.507L116.243 148.54L117.306 163.735L117.778 163.702L116.715 148.507Z" fill="black"/>
<path d="M96.2718 169.734L95.8 169.767L96.6418 181.802L97.1136 181.769L96.2718 169.734Z" fill="black"/>
<path d="M94.5742 181.833C94.5085 181.478 92.8795 173.212 84.5374 173.041L85.1286 181.452L84.6557 181.491L84.0251 172.568H84.2747C93.2342 172.568 95.0208 181.662 95.034 181.754L94.5742 181.833Z" fill="black"/>
<path d="M85.6015 143.051L85.168 136.913H108.854L107.751 121.182L108.224 121.156L109.367 137.387H85.6803L86.0745 143.024L85.6015 143.051Z" fill="black"/>
<path d="M60.7198 138.504H53.8359L52.9689 126.098H59.8528L60.7198 138.504ZM54.2826 138.017H60.2075L59.4061 126.558H53.4812L54.2826 138.017Z" fill="black"/>
<path d="M75.4728 175.419H38.2947L37.6641 166.417H65.3441L64.7135 157.441H74.2248L75.4728 175.419ZM38.7282 174.946H74.9604L73.765 157.914H65.2127L65.8433 166.89H38.1765L38.7282 174.946Z" fill="black"/>
<path d="M109.34 161.121H99.4875L98.7912 151.081H108.644L109.34 161.121ZM99.9341 160.635H108.828L108.197 151.54H99.3035L99.9341 160.635Z" fill="black"/>
<path d="M98.0424 133.641H91.2111L90.3703 121.642L90.8432 121.616L91.6446 133.168H97.53L96.7287 121.642L97.2016 121.616L98.0424 133.641Z" fill="black"/>
<path d="M64.858 148.124H48.7125L48.5023 145.101H64.6478L64.858 148.124ZM49.1591 147.65H64.3457L64.2011 145.587H49.0146L49.1591 147.65Z" fill="black"/>
<path d="M115.199 133.168H108.841V133.641H115.199V133.168Z" fill="black"/>
<path d="M114.832 127.832H108.473V128.305H114.832V127.832Z" fill="black"/>
<path d="M65.8293 166.643L65.3575 166.676L65.9527 175.198L66.4245 175.165L65.8293 166.643Z" fill="black"/>
<path d="M74.6057 166.194H65.8958V166.667H74.6057V166.194Z" fill="black"/>
<path d="M73.9883 174.145H38.4261V173.672H73.4759L72.3593 157.691L72.8454 157.665L73.9883 174.145Z" fill="black"/>
<path d="M103.284 182.792H94.0881V180.781H101.13L100.355 169.65L102.351 169.506L103.284 182.792Z" fill="black"/>
<path d="M84.9052 182.792H79.322L78.4024 169.65L80.3992 169.506L81.1874 180.781H84.9052V182.792Z" fill="black"/>
<path d="M79.9526 176.563H70.8091V178.574H79.9526V176.563Z" fill="black"/>
<path d="M56.8181 178.574H26.918L26.5239 172.857L28.5338 172.725L28.7966 176.563H56.8181V178.574Z" fill="black"/>
<path d="M26.0641 166.181L24.3694 142.026H33.2369V144.036H26.5239L28.0609 166.036L26.0641 166.181Z" fill="black"/>
<path d="M76.5106 142.026H41.198V144.036H76.5106V142.026Z" fill="black"/>
<path d="M116.434 142.026H83.828V144.036H116.434V142.026Z" fill="black"/>
<path d="M119.377 170.583H93.9567V168.573H117.223L116.881 163.789L118.891 163.657L119.377 170.583Z" fill="black"/>
<path d="M115.843 148.912L113.978 122.168H106.319V120.157H115.843L117.853 148.767L115.843 148.912Z" fill="black"/>
<path d="M98.6073 120.157H88.426V122.168H98.6073V120.157Z" fill="black"/>
<path d="M43.1423 143.103L41.5265 120.157H50.2495V122.168H43.6941L45.1392 142.959L43.1423 143.103Z" fill="black"/>
<path d="M85.0498 193.477H55.9773V196.999H85.0498V193.477Z" fill="black"/>
<path d="M70.7566 251.131L94.7055 259.331V257.938L70.7566 249.724V251.131Z" fill="black"/>
<path d="M46.2427 259.213L70.2705 251.131V249.724L46.2427 257.807V259.213Z" fill="black"/>
<path d="M209.984 37.4678C210.063 49.4796 200.394 59.2967 188.386 59.3755C176.379 59.4544 166.566 49.7819 166.487 37.7701C166.408 25.7451 176.077 15.9412 188.084 15.8624C200.092 15.7835 209.905 25.456 209.984 37.4678Z" fill="#F2C94C"/>
<path d="M185.706 50.4389C183.696 50.3338 180.097 46.6803 175.013 39.5836C174.711 39.1631 174.592 38.6506 174.671 38.1512C174.75 37.6386 175.026 37.1918 175.446 36.9027C175.775 36.6661 176.169 36.5347 176.563 36.5347C177.18 36.5347 177.772 36.837 178.126 37.3364C180.544 40.7139 183.486 44.2622 185.102 45.7867L185.391 46.0627L185.601 45.721C188.781 40.4904 198.095 25.7977 198.187 25.6531C198.541 25.088 199.146 24.7595 199.816 24.7595C200.184 24.7595 200.538 24.8646 200.84 25.0617C201.734 25.6268 202.01 26.8228 201.432 27.7164C198.029 33.0784 188.991 47.4031 188.032 49.1773C187.624 49.9133 186.889 50.3995 186.048 50.4389C185.969 50.4389 185.89 50.4521 185.798 50.4521L185.706 50.4389Z" fill="white"/>
<path d="M199.829 25.0749C200.131 25.0749 200.42 25.1669 200.683 25.3246C201.432 25.7977 201.655 26.7833 201.182 27.5324C197.779 32.9075 188.728 47.2323 187.769 49.0065C187.414 49.6504 186.784 50.0578 186.048 50.0973C185.982 50.0973 185.903 50.1104 185.825 50.1104H185.72C183.841 50.0053 180.228 46.2992 175.276 39.3865C175.026 39.0448 174.934 38.6112 175 38.1906C175.065 37.7701 175.302 37.4021 175.643 37.1524C175.919 36.9553 176.235 36.8501 176.576 36.8501C177.088 36.8501 177.575 37.0998 177.877 37.5204C180.346 40.9636 183.237 44.4593 184.905 46.0232L185.496 46.5752L185.917 45.8787C188.964 40.8584 197.53 27.3353 198.502 25.8108C198.778 25.3509 199.277 25.0749 199.829 25.0749ZM199.829 24.4178C199.08 24.4178 198.357 24.7858 197.924 25.4691C197.49 26.1657 188.465 40.3985 185.339 45.5501C183.631 43.9468 180.688 40.3459 178.402 37.1524C177.956 36.5347 177.272 36.2062 176.563 36.2062C176.103 36.2062 175.643 36.3376 175.249 36.6267C174.238 37.3495 174.001 38.7557 174.737 39.7808C181.844 49.6767 184.485 50.7149 185.68 50.7675C185.733 50.7675 185.772 50.7675 185.812 50.7675C185.917 50.7675 185.995 50.7675 186.074 50.7544C187.02 50.7018 187.861 50.163 188.321 49.3219C189.28 47.574 198.318 33.2492 201.721 27.8873C202.391 26.8359 202.075 25.4429 201.024 24.7726C200.67 24.5361 200.249 24.4178 199.829 24.4178Z" fill="black"/>
<path d="M54.2695 102.626L52.9164 103.677C52.7324 103.822 52.7981 104.124 53.0346 104.164L54.7161 104.479C54.9001 104.518 55.084 104.505 55.2679 104.466L77.4302 99.1433C78.0083 98.9988 78.363 98.4337 78.2185 97.8554C78.0871 97.2772 77.5091 96.9223 76.931 97.0669L54.7687 102.389C54.5848 102.429 54.414 102.508 54.2695 102.626Z" fill="black"/>
<path d="M76.3047 97.207L75.8448 97.3176L76.345 99.4004L76.8049 99.2899L76.3047 97.207Z" fill="white"/>
<path d="M115.646 95.6606C115.397 95.6606 115.121 95.6475 114.858 95.6081C114.74 95.5949 114.7 95.5424 114.674 95.5029C114.451 95.1087 114.792 93.9522 115.108 93.2688L115.134 93.2031V88.7085L120.862 86.343V92.8745C120.533 93.3214 118.668 95.6606 115.646 95.6606Z" fill="white"/>
<path d="M120.533 86.8292V92.7563C120.1 93.3214 118.366 95.319 115.646 95.319C115.423 95.319 115.186 95.3058 114.937 95.2795C114.871 94.9904 115.081 94.1099 115.41 93.3871L115.462 93.2557V93.1111V88.9188L120.533 86.8292ZM121.19 85.8436L114.805 88.4851V93.1242C114.805 93.1242 113.61 95.7789 114.805 95.9366C115.094 95.9761 115.37 95.9892 115.646 95.9892C119.206 95.9892 121.19 92.9797 121.19 92.9797V85.8436Z" fill="black"/>
<path d="M116.303 89.1291C114.819 89.1291 113.281 88.3932 112.204 87.1578C111.35 86.1853 110.917 85.0551 111.035 84.1352C111.534 80.3634 113.058 76.8151 113.452 75.9477L123.476 76.7625C123.647 77.9978 124.159 83.6489 120.139 87.447C118.944 88.5509 117.656 89.1291 116.303 89.1291Z" fill="white"/>
<path d="M113.662 76.2894L123.187 77.0647C123.358 78.6549 123.594 83.7409 119.916 87.1972C118.786 88.2617 117.577 88.8006 116.303 88.8006C114.91 88.8006 113.479 88.104 112.454 86.9475C111.679 86.0539 111.258 84.9894 111.363 84.1746C111.823 80.6919 113.163 77.4064 113.662 76.2894ZM113.255 75.5928C113.255 75.5928 111.298 79.6537 110.72 84.0826C110.418 86.3299 113.071 89.4445 116.303 89.4445C117.617 89.4445 119.022 88.932 120.362 87.6572C125.065 83.2152 123.752 76.4339 123.752 76.4339L113.255 75.5928Z" fill="black"/>
<path d="M124.947 81.4936C124.974 81.4673 125 81.2833 125.079 81.0731C125.525 79.9428 125.21 78.6418 124.409 77.7613C124.067 77.3801 123.568 77.4327 123.253 77.6561C123.239 77.6561 123.226 77.643 123.213 77.643C121.873 77.5379 114.871 78.7601 114.687 79.6537C114.385 81.1519 113.242 84.5163 114.529 85.5019C117.538 87.8018 122.149 86.9738 123.213 86.6584C124.501 86.2773 124.461 84.7002 124.895 83.7015C125.157 83.1101 125.354 82.7027 125.184 82.0324C125.157 81.8484 125.039 81.6776 124.947 81.4936Z" fill="black"/>
<path d="M114.556 73.4375C113.452 72.741 112.06 72.2548 111.061 73.4113C109.774 74.8963 111.127 76.6048 112.27 77.6035C112.717 77.9847 113.229 77.735 113.439 77.3407C114.884 78.1161 113.794 79.3383 115.134 79.9954C117.104 80.9548 122.688 82.4004 124.106 79.2989C126.524 74.0552 118.313 70.5857 114.556 73.4375Z" fill="black"/>
<path d="M160.168 275.548C159.879 275.548 159.747 275.496 159.747 275.456C159.734 275.286 159.682 274.944 159.629 274.51C159.025 270.055 158.867 267.611 159.143 267.216C159.143 267.216 159.38 266.954 160.996 266.954C162.795 266.954 164.766 267.256 165.213 267.44C165.475 269.188 165.607 273.393 165.173 273.827C164.753 274.234 161.6 275.548 160.168 275.548Z" fill="white"/>
<path d="M160.982 267.295C162.559 267.295 164.28 267.532 164.91 267.703C165.134 269.411 165.265 273.051 164.937 273.603C164.529 273.985 161.508 275.233 160.168 275.233C160.115 275.233 160.076 275.233 160.05 275.233C160.023 275.049 159.997 274.786 159.945 274.484C159.393 270.371 159.209 267.992 159.38 267.466C159.498 267.414 159.905 267.295 160.982 267.295ZM160.982 266.638C159.958 266.638 159.091 266.743 158.867 267.019C158.25 267.795 159.288 274.418 159.406 275.483C159.432 275.759 159.721 275.877 160.155 275.877C161.652 275.877 164.884 274.55 165.37 274.063C166.027 273.419 165.699 268.544 165.488 267.269C165.462 267.006 162.927 266.638 160.982 266.638Z" fill="black"/>
<path d="M166.211 270.541L158.04 271.422C153.783 257.321 142.38 233.231 140.712 218.446C138.111 195.474 134.971 170.886 134.826 164.84C134.813 163.868 134.8 163.355 134.8 163.355C140.423 156.508 149.947 153.722 154.19 153.223C155.872 153.026 157.094 153.354 157.619 154.221C159.34 157.1 160.693 159.767 161.744 162.278C168.589 178.547 162.822 188.364 162.953 209.51C162.953 210.732 162.966 211.981 163.005 213.229C163.229 221.969 160.864 232.732 163.386 241.865C168.3 259.765 166.211 270.541 166.211 270.541Z" fill="black"/>
<path d="M148.62 245.756C144.942 235.938 141.566 225.99 140.712 218.446C138.886 202.295 136.784 185.342 135.654 174.592L142.604 173.304C142.604 173.304 143.155 179.572 142.131 189.166C141.093 198.957 146.256 239.513 148.62 245.756Z" fill="black"/>
<path d="M165.869 272.578C165.869 272.578 169.062 277.152 166.776 280.74C166.776 280.74 150.131 281.528 145.113 280.74C145.113 280.74 144.981 274.602 149.29 274.077C153.599 273.551 159.117 273.314 159.117 273.314C159.117 273.314 162.743 275.982 165.869 272.578Z" fill="black"/>
<path d="M123.936 274.996C123.121 274.996 122.924 274.826 122.924 274.786C122.898 274.537 122.806 274.024 122.701 273.367C122.438 271.816 121.729 267.703 122.096 267.19C122.11 267.177 122.372 266.94 124.159 266.94C126.169 266.94 128.626 267.243 129.164 267.453C129.427 269.201 129.558 273.393 129.125 273.827C128.757 274.169 125.788 274.996 123.936 274.996Z" fill="white"/>
<path d="M124.146 267.269C125.998 267.269 128.126 267.532 128.849 267.703C129.072 269.411 129.204 273.038 128.888 273.577C128.521 273.866 125.722 274.655 123.936 274.655C123.542 274.655 123.331 274.615 123.226 274.576C123.187 274.3 123.108 273.866 123.016 273.301C122.766 271.882 122.123 268.15 122.333 267.427C122.477 267.387 122.924 267.269 124.146 267.269ZM124.146 266.612C122.99 266.612 122.044 266.717 121.834 266.993C121.216 267.768 122.477 273.748 122.596 274.826C122.635 275.194 123.174 275.325 123.936 275.325C125.775 275.325 128.888 274.51 129.335 274.077C129.992 273.433 129.663 268.557 129.453 267.282C129.414 267.006 126.392 266.612 124.146 266.612Z" fill="black"/>
<path d="M129.821 272.578C129.821 272.578 133.013 277.152 130.728 280.74C130.728 280.74 114.083 281.528 109.064 280.74C109.064 280.74 108.933 274.602 113.242 274.077C117.551 273.551 122.399 273.63 122.399 273.63C122.399 273.63 126.694 275.982 129.821 272.578Z" fill="black"/>
<path d="M130.793 215.542C130.005 225.333 129.585 237.345 130.36 247.135C130.412 247.793 130.412 270.541 130.412 270.541L121.216 271.422C116.211 256.466 106.647 222.941 106.647 208.064C106.647 193.174 107.935 168.375 113.4 156.613C118.602 145.429 139.28 160.74 141.513 163.618C144.981 168.073 143.589 182.056 138.965 188.706C133.631 196.368 131.214 210.272 130.793 215.542Z" fill="black"/>
<path d="M142.262 180.151C142.262 180.151 142.617 179.651 142.735 180.085C142.853 180.505 149.12 179.467 149.12 179.467L155.452 172.003L154.637 161.62H135.641L133.027 170.912L137.979 178.087L142.262 180.151Z" fill="black"/>
<path d="M106.634 208.064C106.634 193.174 107.922 168.375 113.387 156.613C117.459 147.861 131.003 155.325 137.769 160.372C143.339 155.667 150.63 153.617 154.204 153.196C155.885 152.999 157.107 153.328 157.632 154.195C159.353 157.073 160.706 159.741 161.757 162.251C162.125 163.132 162.454 163.999 162.756 164.84C162.703 164.866 144.219 171.779 125.394 167.994C106.687 164.236 108.473 224.373 110.588 233.652C108.289 223.69 106.634 214.267 106.634 208.064Z" fill="black"/>
<path d="M123.87 145.797C123.634 145.758 123.581 145.705 123.581 145.705C123.568 145.574 123.949 145.127 124.146 144.877C124.54 144.391 124.921 143.931 124.829 143.511C124.803 143.379 124.711 143.195 124.461 143.064L124.395 143.024L124.277 143.011C124.041 143.011 123.712 143.208 122.977 143.642C122.241 144.089 121.137 144.759 120.625 144.759C120.533 144.746 120.454 144.628 120.573 144.168C120.612 144.023 121.006 143.563 121.269 143.248C121.991 142.407 122.385 141.907 122.202 141.513C122.149 141.408 122.018 141.224 121.676 141.224H121.584L121.453 141.277C121.256 141.395 121.032 141.553 120.783 141.723C119.981 142.262 118.891 143.011 118.234 143.011C118.011 143.011 117.919 142.919 117.866 142.827C117.971 142.289 118.773 141.461 119.338 141.106C121.453 139.792 121.387 139.529 121.321 139.305L121.256 139.069L120.927 139.029C120.481 139.029 119.285 139.634 118.208 140.396C117.919 140.606 117.63 140.725 117.42 140.725C117.328 140.725 117.262 140.698 117.236 140.659C117.183 140.567 117.183 140.291 117.459 139.805C118.812 137.531 122.057 136.716 124.658 136.716C125.065 136.716 125.473 136.743 125.841 136.782C126.563 136.861 129.007 138.228 130.031 139.857C130.439 140.514 130.557 141.106 130.373 141.618C130.189 142.144 129.887 142.197 129.348 142.275C129.072 142.315 128.744 142.367 128.415 142.512C127.956 142.709 127.378 143.261 126.694 143.892C125.788 144.746 124.658 145.811 123.949 145.811C123.962 145.797 123.896 145.797 123.87 145.797Z" fill="white"/>
<path d="M124.658 137.032C125.052 137.032 125.446 137.058 125.801 137.097C126.458 137.163 128.796 138.504 129.742 140.028C130.097 140.593 130.202 141.079 130.044 141.5C129.926 141.815 129.847 141.855 129.282 141.947C128.993 141.999 128.639 142.052 128.271 142.21C127.759 142.433 127.154 142.998 126.458 143.655C125.762 144.312 124.737 145.272 124.093 145.456C124.185 145.337 124.29 145.206 124.382 145.101C124.829 144.549 125.263 144.036 125.131 143.445C125.065 143.156 124.882 142.919 124.593 142.775L124.422 142.696H124.277C123.962 142.696 123.647 142.867 122.806 143.379C122.28 143.695 121.374 144.247 120.862 144.404C120.862 144.378 120.875 144.339 120.888 144.299C120.954 144.155 121.295 143.747 121.518 143.484C122.254 142.63 122.78 142.013 122.491 141.395C122.425 141.25 122.215 140.922 121.663 140.922H121.584H121.558L121.4 140.935L121.256 141.014C121.059 141.132 120.822 141.29 120.573 141.461C119.889 141.921 118.76 142.683 118.208 142.683C118.379 142.341 118.983 141.697 119.482 141.382C121.453 140.146 121.755 139.739 121.61 139.213C121.518 138.898 121.243 138.701 120.888 138.701C120.297 138.701 118.983 139.41 117.985 140.12C117.814 140.238 117.656 140.317 117.551 140.357C117.577 140.265 117.63 140.133 117.735 139.962C119.022 137.794 122.267 137.032 124.658 137.032ZM124.658 136.375C121.939 136.375 118.576 137.268 117.183 139.634C116.658 140.528 116.868 141.053 117.42 141.053C117.682 141.053 118.024 140.935 118.392 140.672C119.522 139.87 120.612 139.371 120.914 139.371C121.203 139.371 120.822 139.805 119.167 140.843C118.471 141.277 117.262 142.499 117.59 143.011C117.735 143.248 117.971 143.353 118.234 143.353C119.206 143.353 120.77 142.105 121.624 141.579C121.65 141.579 121.663 141.579 121.676 141.579C122.661 141.579 120.428 143.524 120.27 144.102C120.073 144.838 120.257 145.101 120.638 145.101C121.624 145.101 123.883 143.353 124.29 143.353C124.304 143.353 124.317 143.353 124.33 143.366C125.354 143.879 122.005 145.863 123.831 146.139C123.87 146.152 123.923 146.152 123.962 146.152C125.341 146.152 127.509 143.274 128.56 142.827C129.44 142.446 130.307 142.788 130.688 141.737C131.529 139.384 127.089 136.598 125.88 136.467C125.499 136.401 125.092 136.375 124.658 136.375Z" fill="black"/>
<path d="M125.42 136.716C125.079 136.716 124.947 136.69 124.921 136.677C124.698 136.624 124.474 136.506 124.225 136.388C124.014 136.283 123.804 136.177 123.594 136.112C123.345 136.033 122.609 135.77 122.254 135.35C122.136 135.218 122.123 135.126 122.136 135.1C122.175 135.021 122.412 134.903 122.753 134.903C123.266 134.929 124.225 135.258 126.222 136.677C125.972 136.703 125.696 136.716 125.42 136.716Z" fill="white"/>
<path d="M122.753 135.231H122.806C123.095 135.244 123.752 135.428 125.21 136.375C125.065 136.375 125.013 136.361 125.013 136.361C124.829 136.309 124.606 136.204 124.382 136.099C124.172 135.994 123.949 135.888 123.712 135.796C123.213 135.626 122.845 135.428 122.622 135.244C122.661 135.244 122.714 135.231 122.753 135.231ZM122.753 134.574C122.136 134.574 121.453 134.89 122.005 135.56C122.359 135.98 122.99 136.243 123.476 136.414C123.936 136.572 124.369 136.874 124.829 136.992C124.947 137.019 125.157 137.032 125.407 137.032C126.116 137.032 127.128 136.927 127.036 136.861C126.156 136.204 123.975 134.614 122.819 134.561C122.806 134.574 122.78 134.574 122.753 134.574Z" fill="black"/>
<path d="M133.552 142.262C132.764 142.262 132.054 142.236 131.476 142.183C130.031 142.052 129.033 141.921 128.652 141.868L125.985 136.887C128.521 136.664 139.766 135.534 145.152 132.839C147.451 131.696 148.41 130.369 148.029 128.91C148.003 128.831 145.743 120.67 141.421 118.265C141.264 118.173 141.106 118.094 140.935 118.002C139.451 117.187 137.874 116.373 136.271 115.597C132.383 113.678 129.335 110.629 127.68 107.002C126.235 103.861 125.643 100.576 125.959 97.2377C126.208 94.4779 128.534 92.4015 131.371 92.4015C132.146 92.4015 132.908 92.5592 133.631 92.8877C140.594 96.0418 144.049 97.7109 153.258 104.177L153.284 104.203L153.415 104.282C153.718 104.492 154.02 104.716 154.322 104.939C155.228 105.649 156.082 106.45 156.857 107.318C157.751 108.303 158.907 109.907 160.286 112.075C162.887 116.136 164.437 120.657 164.779 125.138C165.226 131.013 163.505 134.876 159.524 136.979C152.719 140.593 140.016 142.262 133.552 142.262Z" fill="white"/>
<path d="M131.384 92.7432C132.12 92.7432 132.83 92.9009 133.499 93.2031C140.436 96.3441 143.878 98 153.048 104.453C153.1 104.492 153.126 104.518 153.139 104.518L153.179 104.545L153.205 104.558C153.52 104.781 153.809 105.005 154.112 105.215C155.005 105.911 155.846 106.7 156.608 107.567C157.488 108.54 158.631 110.13 159.997 112.272C162.572 116.28 164.109 120.749 164.437 125.191C164.871 130.921 163.216 134.692 159.353 136.716C152.614 140.278 139.963 141.934 133.539 141.934C132.751 141.934 132.068 141.907 131.49 141.855C130.228 141.737 129.309 141.631 128.849 141.566L126.497 137.176C129.769 136.861 140.147 135.718 145.297 133.142C147.753 131.919 148.778 130.474 148.344 128.831C148.318 128.752 146.098 120.486 141.579 117.989C141.421 117.897 141.264 117.818 141.093 117.726L140.975 117.66C139.595 116.898 138.006 116.083 136.403 115.308C132.593 113.416 129.585 110.419 127.969 106.871C126.537 103.782 125.972 100.55 126.274 97.2771C126.537 94.7013 128.718 92.7432 131.384 92.7432ZM131.384 92.0861C128.547 92.0861 125.933 94.1756 125.643 97.2246C125.381 100.037 125.683 103.454 127.391 107.147C129.151 111.011 132.33 114.02 136.14 115.899C137.533 116.583 139.122 117.398 140.685 118.252C140.896 118.357 141.08 118.462 141.277 118.567C145.192 120.736 147.425 127.832 147.727 129.015C148.095 130.421 146.965 131.604 145.021 132.563C139.043 135.56 125.473 136.624 125.473 136.624L128.455 142.183C128.455 142.183 129.585 142.354 131.463 142.525C132.054 142.578 132.764 142.604 133.565 142.604C140.16 142.604 152.929 140.882 159.682 137.308C164.24 134.903 165.528 130.448 165.121 125.151C164.766 120.433 163.124 115.913 160.575 111.93C159.445 110.169 158.171 108.303 157.12 107.134C156.332 106.24 155.478 105.425 154.532 104.702C154.23 104.479 153.928 104.242 153.612 104.019L153.599 104.006C153.56 103.966 153.52 103.966 153.481 103.927C144.193 97.3954 140.672 95.7133 133.802 92.5986C132.987 92.2569 132.173 92.0861 131.384 92.0861Z" fill="black"/>
<path d="M141.907 121.051C140.291 120.157 130.11 114.375 126.786 106.818C125.276 103.375 124.093 94.4253 128.284 92.2175C134.997 88.6691 147.293 96.528 155.951 102.613C154.742 110.235 149.369 116.767 141.907 121.051Z" fill="#7166F0"/>
<path d="M147.504 105.215C147.504 105.215 151.182 107.318 153.665 109.394C153.665 109.394 152.417 111.681 150.854 113.744C149.29 115.807 146.256 107.055 146.256 107.055L147.504 105.215Z" fill="black"/>
<path d="M108.972 123.666C110.904 127.583 112.703 131.144 113.452 133.51C115.817 141.001 109.288 153.236 110.431 158.808C111.482 160.096 126.55 166.43 137.9 166.838C152.68 167.377 164.805 163.565 164.95 161.397C165.081 159.426 158.066 132.13 154.19 121.222C149.895 109.118 143.944 97.3954 140.567 93.9259C140.305 93.6631 140.055 93.4397 139.818 93.2688C138.754 92.5066 137.204 91.9678 135.299 91.6918C124.566 89.957 107.948 94.767 101.379 100.523C99.9735 106.003 104.808 115.216 108.972 123.666Z" fill="#7166F0"/>
<path d="M112.848 131.867C112.848 131.867 116.316 123.64 115.252 114.362C114.188 105.083 107.685 121.051 107.685 121.051L110.326 126.439C110.326 126.439 111.626 129.107 112.848 131.867Z" fill="black"/>
<path d="M85.4833 138.688C83.8806 138.688 82.002 137.465 79.9 135.074C73.5548 127.832 66.8549 111.904 67.446 107.37C67.538 106.7 68.0503 105.911 70.0078 105.911C71.0981 105.911 72.1491 106.161 72.2017 106.161C72.5958 106.266 73.6205 107.37 77.4959 111.733C81.0035 115.676 86.8627 122.26 87.8348 122.339C88.4654 122.01 90.7644 118.554 92.9846 115.19C93.0766 115.058 93.7334 114.086 93.7334 114.086C93.9305 113.797 94.1144 113.508 94.3377 113.205C99.5137 105.451 101.419 103.27 106.962 101.128C107.304 100.996 107.646 100.931 107.961 100.931C108.578 100.931 109.13 101.193 109.603 101.693C112.257 104.571 111.455 115.137 111.416 115.597C111.416 115.65 111.482 117.674 110.864 120.538C110.299 123.285 109.183 125.283 106.45 128.476L106.345 128.608C106.293 128.673 106.227 128.739 106.174 128.805C105.583 129.475 104.926 130.158 104.164 130.894C103.613 131.394 103.061 131.867 102.456 132.366C102.102 132.655 101.708 132.945 101.314 133.221C96.952 136.375 91.7103 138.214 85.746 138.701C85.6541 138.688 85.5753 138.688 85.4833 138.688Z" fill="white"/>
<path d="M107.948 101.259C112.217 101.259 111.074 115.571 111.074 115.571C111.074 115.571 111.153 117.608 110.536 120.46C109.958 123.272 108.802 125.217 106.187 128.253C106.095 128.358 105.99 128.476 105.898 128.595C105.307 129.278 104.637 129.948 103.915 130.645C103.376 131.131 102.824 131.604 102.22 132.103C101.865 132.393 101.484 132.669 101.09 132.945C97.4249 135.586 92.4328 137.82 85.6935 138.359C85.6147 138.359 85.549 138.372 85.4702 138.372C78.5338 138.372 67.0125 113.087 67.7613 107.423C67.8927 106.49 68.9568 106.253 69.9946 106.253C71.0587 106.253 72.1097 106.503 72.1097 106.503C72.9899 106.739 86.1139 122.694 87.8086 122.694C87.8348 122.694 87.8611 122.694 87.8874 122.681C88.6493 122.313 90.6199 119.343 93.2342 115.4C93.3918 115.163 93.5758 114.914 93.7334 114.664C94.0093 114.257 94.272 113.849 94.5742 113.429C94.5873 113.402 94.6136 113.363 94.6399 113.337C99.8816 105.491 101.708 103.546 107.054 101.456C107.383 101.312 107.672 101.259 107.948 101.259ZM107.948 100.602C107.593 100.602 107.212 100.681 106.831 100.825C101.195 103.02 99.2773 105.215 94.1144 112.942L94.0881 112.982C94.075 112.995 94.0618 113.021 94.0487 113.048C93.8385 113.35 93.6415 113.626 93.4575 113.915L93.2211 114.27C93.1422 114.388 93.0634 114.493 92.9977 114.598C92.9058 114.743 92.8007 114.874 92.7219 115.006C90.8695 117.805 88.5837 121.248 87.7823 121.945C86.416 121.222 81.0298 115.163 77.7587 111.497C73.4891 106.7 72.7666 105.951 72.3199 105.833C72.2542 105.819 71.1638 105.57 70.034 105.57C67.7219 105.57 67.2358 106.661 67.1439 107.304C66.5396 111.904 73.2789 127.99 79.6767 135.271C81.8443 137.741 83.8149 138.99 85.5096 138.99C85.6015 138.99 85.6935 138.99 85.7855 138.977C91.8023 138.49 97.0965 136.624 101.524 133.431C101.944 133.129 102.338 132.839 102.68 132.563C103.297 132.051 103.862 131.578 104.401 131.092C105.189 130.329 105.846 129.646 106.424 128.989C106.503 128.884 106.555 128.818 106.608 128.765L106.726 128.634C109.485 125.414 110.615 123.377 111.206 120.565C111.797 117.858 111.771 115.873 111.758 115.558C111.863 114.257 112.533 104.348 109.853 101.443C109.288 100.891 108.657 100.602 107.948 100.602Z" fill="black"/>
<path d="M84.3404 121.077C84.5243 122.01 84.7739 123.469 85.2862 124.258C85.8117 125.059 86.7313 125.664 87.6772 125.519C88.9646 125.322 90.1076 124.494 91.014 123.548C100.512 113.507 99.1985 107.252 98.8306 107.055C98.5285 107.475 94.0224 114.243 93.7466 114.651C93.5758 114.901 93.3919 115.15 93.2473 115.387C90.6462 119.329 88.6888 122.352 87.9005 122.667C87.1517 122.97 83.8412 118.501 84.3404 121.077Z" fill="black"/>
<path d="M68.5627 109.368C67.8139 109.368 67.157 109.118 66.0404 108.592C64.3325 107.909 63.899 106.634 64.0304 105.951C64.0566 105.833 64.0961 105.727 64.1486 105.635C63.5574 105.07 63.3472 104.334 63.4655 103.848C63.5049 103.69 63.5837 103.546 63.6888 103.441C63.3867 102.915 63.321 102.192 63.5574 101.614C63.6888 101.285 63.9121 101.036 64.188 100.891C63.2553 100.444 62.0073 100.024 61.1796 99.8924C60.5359 99.7872 60.0761 99.3798 59.9973 98.8541C59.9447 98.4073 60.1943 97.9868 60.6804 97.7896C60.9037 97.6976 61.1796 97.6451 61.5212 97.6451C62.3751 97.6451 63.6494 97.9342 65.3309 98.5124C66.487 98.9067 68.405 99.7215 69.9683 101.18C69.9421 100.983 69.9552 100.773 70.034 100.563C70.2048 100.129 70.5858 99.8398 71.0062 99.8398C71.177 99.8398 71.3477 99.8924 71.5185 99.9712C72.333 100.418 73.1081 100.97 73.3315 102.035C73.3577 102.192 73.5022 106.279 73.1738 107.239C73.1344 107.344 73.003 107.607 72.6089 107.607C72.3856 107.607 72.1097 107.515 71.8338 107.41C71.2295 108.474 70.3625 109.144 69.3378 109.302C69.0356 109.341 68.7991 109.368 68.5627 109.368Z" fill="white"/>
<path d="M61.5212 97.9605C62.6641 97.9605 64.3982 98.5256 65.2258 98.8016C67.3803 99.5375 69.5874 100.825 70.8879 102.718C70.993 102.573 71.1244 102.429 71.2427 102.297C71.0325 102.008 70.7697 101.759 70.5332 101.548C69.9946 101.062 70.3887 100.142 71.0062 100.142C71.1113 100.142 71.2295 100.168 71.3609 100.234C72.136 100.655 72.8191 101.154 73.003 102.074C73.0293 102.232 73.1475 106.24 72.8454 107.107C72.806 107.212 72.714 107.252 72.5826 107.252C72.333 107.252 71.9652 107.094 71.663 106.95C71.177 107.935 70.3756 108.763 69.2589 108.947C68.9962 108.987 68.7729 109.013 68.5495 109.013C67.8795 109.013 67.2884 108.803 66.1717 108.264C64.0304 107.396 64.1092 105.635 64.6478 105.635C64.6741 105.635 64.7004 105.635 64.7266 105.649C63.5837 104.926 63.518 103.572 64.1749 103.533C63.4523 102.836 63.61 101.062 64.7398 101.062C64.9106 101.062 65.1076 101.101 65.3309 101.193C64.5164 100.497 62.3488 99.7215 61.219 99.5375C60.2206 99.3798 59.9973 98.4073 60.7986 98.0525C60.9957 97.9999 61.2322 97.9605 61.5212 97.9605ZM61.5212 97.3034C61.1271 97.3034 60.8118 97.356 60.549 97.4742C59.9447 97.7371 59.6032 98.2891 59.682 98.8804C59.7608 99.5507 60.352 100.076 61.1271 100.208C61.7839 100.313 62.7429 100.615 63.5706 100.97C63.4392 101.115 63.3341 101.285 63.2553 101.483C63.0057 102.087 63.0451 102.81 63.3078 103.401C63.2421 103.506 63.1896 103.625 63.1502 103.756C63.0057 104.308 63.1896 105.07 63.7545 105.701C63.7282 105.754 63.7151 105.819 63.7019 105.885C63.5443 106.674 64.0172 108.132 65.9221 108.895C67.0388 109.433 67.735 109.696 68.5495 109.696C68.7991 109.696 69.0619 109.67 69.364 109.617C70.4019 109.447 71.3083 108.803 71.9521 107.804C72.1754 107.883 72.3856 107.935 72.5826 107.935C73.003 107.935 73.3315 107.712 73.4628 107.344C73.8175 106.345 73.6862 102.232 73.6336 101.969C73.384 100.76 72.4907 100.129 71.6499 99.669C71.4397 99.5507 71.2164 99.4981 70.9799 99.4981C70.415 99.4981 69.9158 99.8661 69.7056 100.431C69.6925 100.457 69.6925 100.471 69.6793 100.497C68.1817 99.2616 66.487 98.5519 65.4098 98.1839C63.7282 97.6057 62.4014 97.3034 61.5212 97.3034Z" fill="black"/>
<path d="M116.907 106.739C116.828 111.273 116.067 113.113 116.067 113.113C116.067 113.113 109.564 128.345 107.856 130.802C98.5416 128.227 93.5889 119.29 93.5101 112.377C97.7928 104.453 99.4875 101.391 104.283 98.4205C107.212 96.5937 117.026 99.6953 116.907 106.739Z" fill="#7166F0"/>
<path d="M72.9505 106.621C72.9505 106.621 72.8848 107.173 73.476 107.764C74.054 108.369 70.218 111.234 70.218 111.234L67.919 109.696C67.919 109.696 68.2737 109.21 67.6562 108.908C67.0388 108.592 67.735 106.398 68.786 105.99C69.837 105.583 71.5317 105.083 71.9915 105.333C72.4644 105.57 72.9505 106.621 72.9505 106.621Z" fill="white"/>
<path d="M252.193 200.692L249.658 204.989H150.092L147.556 200.692H252.193Z" fill="#F2C94C"/>
<path d="M258.526 281.108H260.785L248.252 204.989H243.444L258.526 281.108Z" fill="#F2C94C"/>
<path d="M233.893 281.108H236.166L223.633 204.989H218.825L233.893 281.108Z" fill="#F2C94C"/>
<path d="M162.966 281.108H160.693L173.226 204.989H178.034L162.966 281.108Z" fill="#F2C94C"/>
<path d="M186.757 281.108H184.485L197.018 204.989H201.826L186.757 281.108Z" fill="#F2C94C"/>
<path d="M281.095 200.692L278.56 204.989H245.94L244.469 200.692H281.095Z" fill="#AAB6C2"/>
<path d="M233.828 161.266L237.217 158.545L237.283 153.157H233.828V161.266Z" fill="#33373B"/>
<path d="M233.828 153.157H230.754V161.266H233.828V153.157Z" fill="#AAB6C2"/>
<path d="M233.499 153.716H237.834V152.573H233.499V153.716Z" fill="black"/>
<path d="M230.355 153.716H233.508V152.573H230.355V153.716Z" fill="#33373B"/>
<path d="M255.346 167.206H234.682L224.356 157.205H245.021L255.346 167.206Z" fill="black"/>
<path d="M253.389 167.206H234.682L230.53 157.205H243.063L253.389 167.206Z" fill="#AAB6C2"/>
<path d="M253.389 167.206H234.747V200.692H253.389V167.206Z" fill="#AAB6C2"/>
<path d="M238.95 200.688H248.133V184.983H238.95V200.688Z" fill="black"/>
<path d="M239.477 200.626L239.542 184.987L248.66 185.053L248.594 200.626H239.477Z" fill="#F2C94C"/>
<path d="M248.515 185.118V200.547H239.608V185.118H248.515ZM248.66 184.987H239.477V200.692H248.66V184.987Z" fill="black"/>
<path d="M241.171 164.262C241.171 166.194 242.288 167.758 243.654 167.758C245.021 167.758 246.137 166.194 246.137 164.262C246.137 162.33 245.021 160.766 243.654 160.766C242.288 160.766 241.171 162.33 241.171 164.262Z" fill="black"/>
<path d="M241.592 164.262C241.592 166.194 242.708 167.758 244.075 167.758C245.441 167.758 246.558 166.194 246.558 164.262C246.558 162.33 245.441 160.766 244.075 160.766C242.695 160.766 241.592 162.33 241.592 164.262Z" fill="white"/>
<path d="M244.062 167.942C242.59 167.942 241.395 166.286 241.395 164.262C241.395 162.238 242.59 160.582 244.062 160.582C245.533 160.582 246.728 162.238 246.728 164.262C246.728 166.286 245.533 167.942 244.062 167.942ZM244.062 160.95C242.8 160.95 241.763 162.435 241.763 164.262C241.763 166.089 242.787 167.574 244.062 167.574C245.323 167.574 246.361 166.089 246.361 164.262C246.361 162.435 245.336 160.95 244.062 160.95Z" fill="black"/>
<path d="M244.154 160.766H243.97V167.771H244.154V160.766Z" fill="black"/>
<path d="M246.557 164.17H241.592V164.354H246.557V164.17Z" fill="black"/>
<path d="M216.151 200.696H234.792V167.21H216.151V200.696Z" fill="#33373B"/>
<path d="M226.326 180.701H232.553V171.751H226.326V180.701Z" fill="black"/>
<path d="M231.989 171.924H226.129V180.505H231.989V171.924Z" fill="white"/>
<path d="M231.805 172.108V180.321H226.313V172.108H231.805ZM232.172 171.74H225.945V180.689H232.172V171.74Z" fill="black"/>
<path d="M229.151 171.911H228.967V180.571H229.151V171.911Z" fill="black"/>
<path d="M232.028 176.155H225.945V176.339H232.028V176.155Z" fill="black"/>
<path d="M218.464 180.701H224.691V171.751H218.464V180.701Z" fill="black"/>
<path d="M224.172 171.924H218.313V180.505H224.172V171.924Z" fill="white"/>
<path d="M223.988 172.108V180.321H218.497V172.108H223.988ZM224.356 171.74H218.129V180.689H224.356V171.74Z" fill="black"/>
<path d="M221.334 171.911H221.15V180.571H221.334V171.911Z" fill="black"/>
<path d="M224.211 176.155H218.129V176.339H224.211V176.155Z" fill="black"/>
<path d="M242.669 171.74H236.442V180.689H242.669V171.74Z" fill="black"/>
<path d="M242.866 171.924H237.007V180.505H242.866V171.924Z" fill="white"/>
<path d="M242.682 172.108V180.321H237.191V172.108H242.682ZM243.05 171.74H236.823V180.689H243.05V171.74Z" fill="black"/>
<path d="M240.028 171.911H239.845V180.571H240.028V171.911Z" fill="black"/>
<path d="M243.037 176.155H236.954V176.339H243.037V176.155Z" fill="black"/>
<path d="M250.525 171.74H244.298V180.689H250.525V171.74Z" fill="black"/>
<path d="M250.683 171.924H244.824V180.505H250.683V171.924Z" fill="white"/>
<path d="M250.499 172.108V180.321H245.007V172.108H250.499ZM250.867 171.74H244.64V180.689H250.867V171.74Z" fill="black"/>
<path d="M247.845 171.911H247.661V180.571H247.845V171.911Z" fill="black"/>
<path d="M250.853 176.155H244.771V176.339H250.853V176.155Z" fill="black"/>
<path d="M226.326 194.924H232.553V185.974H226.326V194.924Z" fill="black"/>
<path d="M231.989 186.156H226.129V194.738H231.989V186.156Z" fill="white"/>
<path d="M231.805 186.341V194.554H226.313V186.341H231.805ZM232.172 185.973H225.945V194.922H232.172V185.973Z" fill="black"/>
<path d="M229.151 186.143H228.967V194.804H229.151V186.143Z" fill="black"/>
<path d="M232.028 190.375H225.945V190.559H232.028V190.375Z" fill="black"/>
<path d="M218.464 194.924H224.691V185.974H218.464V194.924Z" fill="black"/>
<path d="M224.172 186.156H218.313V194.738H224.172V186.156Z" fill="white"/>
<path d="M223.988 186.341V194.554H218.497V186.341H223.988ZM224.356 185.973H218.129V194.922H224.356V185.973Z" fill="black"/>
<path d="M221.334 186.143H221.15V194.804H221.334V186.143Z" fill="black"/>
<path d="M224.211 190.375H218.129V190.559H224.211V190.375Z" fill="black"/>
<path d="M214.188 167.547H234.852L245.178 157.546H224.514L214.03 167.206L214.188 167.547Z" fill="black"/>
<path d="M214.03 167.14L224.408 157.257L245.021 157.283L234.669 167.14H214.03Z" fill="#F2C94C"/>
<path d="M244.679 157.349L234.642 167.074H214.385L224.422 157.349H244.679ZM245.021 157.205H224.356L214.03 167.206H234.695L245.021 157.205Z" fill="black"/>
<path d="M248.134 192.596C248.134 192.898 247.898 193.135 247.595 193.135C247.293 193.135 247.057 192.898 247.057 192.596C247.057 192.294 247.293 192.057 247.595 192.057C247.884 192.057 248.134 192.294 248.134 192.596Z" fill="black"/>
<path d="M193.326 177.404L190.265 174.946L190.212 170.11H193.326V177.404Z" fill="#33373B"/>
<path d="M196.098 170.11H193.326V177.417H196.098V170.11Z" fill="#AAB6C2"/>
<path d="M193.615 169.584H189.713V170.61H193.615V169.584Z" fill="black"/>
<path d="M196.466 169.584H193.615V170.61H196.466V169.584Z" fill="#33373B"/>
<path d="M173.936 182.766H192.551L201.852 173.75H183.237L173.936 182.766Z" fill="black"/>
<path d="M175.709 182.766H192.551L196.295 173.75H184.997L175.709 182.766Z" fill="#AAB6C2"/>
<path d="M192.498 182.766H175.709V200.77H192.498V182.766Z" fill="#AAB6C2"/>
<path d="M188.61 186.065H180.333V200.77H188.61V186.065Z" fill="black"/>
<path d="M179.966 200.692L180.031 186.065L188.242 186.13L188.163 200.692H179.966Z" fill="#F2C94C"/>
<path d="M188.097 186.196V200.626H180.097V186.196H188.097ZM188.242 186.065H179.966V200.77H188.242V186.065Z" fill="black"/>
<path d="M186.705 180.111C186.705 181.846 185.706 183.265 184.472 183.265C183.237 183.265 182.238 181.859 182.238 180.111C182.238 178.363 183.237 176.957 184.472 176.957C185.706 176.957 186.705 178.363 186.705 180.111Z" fill="black"/>
<path d="M186.337 180.111C186.337 181.846 185.339 183.265 184.104 183.265C182.869 183.265 181.87 181.859 181.87 180.111C181.87 178.363 182.869 176.957 184.104 176.957C185.339 176.957 186.337 178.363 186.337 180.111Z" fill="white"/>
<path d="M184.104 183.423C182.777 183.423 181.7 181.938 181.7 180.111C181.7 178.284 182.777 176.799 184.104 176.799C185.431 176.799 186.508 178.284 186.508 180.111C186.508 181.938 185.417 183.423 184.104 183.423ZM184.104 177.115C182.961 177.115 182.041 178.455 182.041 180.098C182.041 181.741 182.974 183.081 184.104 183.081C185.247 183.081 186.166 181.741 186.166 180.098C186.166 178.455 185.247 177.115 184.104 177.115Z" fill="black"/>
<path d="M184.183 176.957H184.012V183.265H184.183V176.957Z" fill="black"/>
<path d="M186.337 180.019H181.87V180.177H186.337V180.019Z" fill="black"/>
<path d="M209.248 182.766H192.459V200.77H209.248V182.766Z" fill="#33373B"/>
<path d="M200.078 186.84H194.469V194.909H200.078V186.84Z" fill="black"/>
<path d="M200.249 187.011H194.968V194.738H200.249V187.011Z" fill="white"/>
<path d="M200.092 187.182V194.581H195.139V187.182H200.092ZM200.42 186.84H194.81V194.909H200.42V186.84Z" fill="black"/>
<path d="M197.701 186.998H197.53V194.804H197.701V186.998Z" fill="black"/>
<path d="M200.407 190.809H194.929V190.967H200.407V190.809Z" fill="black"/>
<path d="M207.159 186.84H201.55V194.909H207.159V186.84Z" fill="black"/>
<path d="M207.304 187.011H202.023V194.738H207.304V187.011Z" fill="white"/>
<path d="M207.133 187.182V194.581H202.18V187.182H207.133ZM207.462 186.84H201.852V194.909H207.462V186.84Z" fill="black"/>
<path d="M204.742 186.998H204.571V194.804H204.742V186.998Z" fill="black"/>
<path d="M207.448 190.809H201.97V190.967H207.448V190.809Z" fill="black"/>
<path d="M211.009 183.068H192.406L183.105 174.053H201.707L211.153 182.766L211.009 183.068Z" fill="black"/>
<path d="M192.538 182.687L183.289 173.711L201.852 173.829L210.982 182.687H192.538Z" fill="#F2C94C"/>
<path d="M201.799 173.895L210.811 182.621H192.59L183.578 173.895H201.799ZM201.852 173.75H183.237L192.538 182.753H211.153L201.852 173.75Z" fill="black"/>
<path d="M187.598 193.437C187.598 193.792 187.309 194.068 186.968 194.068C186.626 194.068 186.337 193.779 186.337 193.437C186.337 193.082 186.626 192.806 186.968 192.806C187.309 192.806 187.598 193.096 187.598 193.437Z" fill="black"/>
</g>
<defs>
<clipPath id="clip0_4_397">
<rect width="283" height="283" fill="white"/>
</clipPath>
</defs>
</svg>
