<svg width="310" height="310" viewBox="0 0 310 310" fill="none" xmlns="http://www.w3.org/2000/svg">
<path d="M296.451 307.203H43.875V309.12H296.451V307.203Z" fill="black"/>
<path d="M35.8638 153.049C26.5618 201.675 61.148 243.154 135.244 242.848C209.34 242.542 162.325 303.145 224.191 306.924C286.058 310.717 316.226 272.83 308.561 188.753C300.882 104.663 299.525 6.02826 172.026 37.2476C91.5955 56.9427 44.5802 107.498 35.8638 153.049Z" fill="#E6EBF0"/>
<path d="M87.3638 255.703C110.333 250.114 155.485 245.417 169.95 266.868C184.415 288.32 170.03 296.198 144 285.831C117.971 275.465 55.6387 263.422 87.3638 255.703Z" fill="#E6EBF0"/>
<mask id="mask0_4_36" style="mask-type:luminance" maskUnits="userSpaceOnUse" x="34" y="31" width="276" height="277">
<path d="M35.8638 153.049C26.5618 201.675 61.148 243.154 135.244 242.848C209.34 242.542 162.325 303.145 224.191 306.924C286.058 310.717 316.226 272.83 308.561 188.753C300.882 104.663 299.525 6.02826 172.026 37.2476C91.5955 56.9427 44.5802 107.498 35.8638 153.049Z" fill="white"/>
</mask>
<g mask="url(#mask0_4_36)">
<path d="M108.416 107.045V96.732H125.53V47.4278H130.254V96.732H148.685V107.045H158.559V313.804H87.3504V107.045H108.416Z" fill="#C6D0DB"/>
<path d="M97.2245 107.045H87.3503V293.031H97.2245V107.045Z" fill="#AAB6C2"/>
<path d="M194.156 156.296H122.948V313.804H194.156V156.296Z" fill="#C6D0DB"/>
<path d="M132.822 156.296H122.948V313.804H132.822V156.296Z" fill="#AAB6C2"/>
<path d="M184.229 163.017H174.009V167.262H184.229V163.017Z" fill="#AAB6C2"/>
<path d="M167.022 163.017H156.802V167.262H167.022V163.017Z" fill="#AAB6C2"/>
<path d="M184.229 178.453H174.009V182.698H184.229V178.453Z" fill="#AAB6C2"/>
<path d="M167.022 178.453H156.802V182.698H167.022V178.453Z" fill="#AAB6C2"/>
<path d="M149.816 178.453H139.596V182.698H149.816V178.453Z" fill="#AAB6C2"/>
<path d="M184.229 193.89H174.009V198.135H184.229V193.89Z" fill="#AAB6C2"/>
<path d="M149.816 193.89H139.596V198.135H149.816V193.89Z" fill="#AAB6C2"/>
<path d="M167.022 201.608H156.802V205.853H167.022V201.608Z" fill="#AAB6C2"/>
<path d="M184.229 209.34H174.009V213.585H184.229V209.34Z" fill="#AAB6C2"/>
<path d="M167.022 217.058H156.802V221.303H167.022V217.058Z" fill="#AAB6C2"/>
<path d="M184.229 224.777H174.009V229.022H184.229V224.777Z" fill="#AAB6C2"/>
<path d="M149.816 224.777H139.596V229.022H149.816V224.777Z" fill="#AAB6C2"/>
<path d="M184.229 239.042H174.009V243.287H184.229V239.042Z" fill="#AAB6C2"/>
<path d="M167.022 239.042H156.802V243.287H167.022V239.042Z" fill="#AAB6C2"/>
<path d="M184.229 254.479H174.009V258.724H184.229V254.479Z" fill="#AAB6C2"/>
<path d="M167.022 254.479H156.802V258.724H167.022V254.479Z" fill="#AAB6C2"/>
<path d="M149.816 254.479H139.596V258.724H149.816V254.479Z" fill="#AAB6C2"/>
<path d="M184.229 269.929H174.009V274.174H184.229V269.929Z" fill="#AAB6C2"/>
<path d="M149.816 269.929H139.596V274.174H149.816V269.929Z" fill="#AAB6C2"/>
<path d="M167.022 277.647H156.802V281.892H167.022V277.647Z" fill="#AAB6C2"/>
<path d="M149.816 277.647H139.596V281.892H149.816V277.647Z" fill="#AAB6C2"/>
<path d="M184.229 285.366H174.009V289.611H184.229V285.366Z" fill="#AAB6C2"/>
<path d="M167.022 293.084H156.802V297.329H167.022V293.084Z" fill="#AAB6C2"/>
<path d="M184.229 300.802H174.009V305.047H184.229V300.802Z" fill="#AAB6C2"/>
<path d="M149.816 300.802H139.596V305.047H149.816V300.802Z" fill="#AAB6C2"/>
<path d="M364.532 156.296H293.324V313.804H364.532V156.296Z" fill="#C6D0DB"/>
<path d="M303.198 156.296H293.324V313.804H303.198V156.296Z" fill="#AAB6C2"/>
<path d="M287.708 81.3885H192.173V313.817H287.708V81.3885Z" fill="#C6D0DB"/>
<path d="M202.048 81.3885H192.173V313.817H202.048V81.3885Z" fill="#AAB6C2"/>
<path d="M277.647 92.5135H262.73V98.7015H277.647V92.5135Z" fill="#AAB6C2"/>
<path d="M252.523 92.5135H237.605V98.7015H252.523V92.5135Z" fill="#AAB6C2"/>
<path d="M277.647 115.07H262.73V121.258H277.647V115.07Z" fill="#AAB6C2"/>
<path d="M252.523 115.07H237.605V121.258H252.523V115.07Z" fill="#AAB6C2"/>
<path d="M227.398 115.07H212.481V121.258H227.398V115.07Z" fill="#AAB6C2"/>
<path d="M277.647 137.613H262.73V143.801H277.647V137.613Z" fill="#AAB6C2"/>
<path d="M227.398 137.613H212.481V143.801H227.398V137.613Z" fill="#AAB6C2"/>
<path d="M252.523 148.884H237.605V155.072H252.523V148.884Z" fill="#AAB6C2"/>
<path d="M277.647 160.156H262.73V166.344H277.647V160.156Z" fill="#AAB6C2"/>
<path d="M252.523 171.44H237.605V177.628H252.523V171.44Z" fill="#AAB6C2"/>
<path d="M277.647 182.712H262.73V188.9H277.647V182.712Z" fill="#AAB6C2"/>
<path d="M227.398 182.712H212.481V188.9H227.398V182.712Z" fill="#AAB6C2"/>
<path d="M277.647 203.551H262.73V209.739H277.647V203.551Z" fill="#AAB6C2"/>
<path d="M252.523 203.551H237.605V209.739H252.523V203.551Z" fill="#AAB6C2"/>
<path d="M277.647 226.094H262.73V232.282H277.647V226.094Z" fill="#AAB6C2"/>
<path d="M252.523 226.094H237.605V232.282H252.523V226.094Z" fill="#AAB6C2"/>
<path d="M227.398 226.094H212.481V232.282H227.398V226.094Z" fill="#AAB6C2"/>
<path d="M277.647 248.637H262.73V254.825H277.647V248.637Z" fill="#AAB6C2"/>
<path d="M227.398 248.637H212.481V254.825H227.398V248.637Z" fill="#AAB6C2"/>
<path d="M252.523 259.908H237.605V266.096H252.523V259.908Z" fill="#AAB6C2"/>
<path d="M227.398 259.908H212.481V266.096H227.398V259.908Z" fill="#AAB6C2"/>
<path d="M277.647 271.193H262.73V277.381H277.647V271.193Z" fill="#AAB6C2"/>
<path d="M252.523 282.465H237.605V288.653H252.523V282.465Z" fill="#AAB6C2"/>
<path d="M277.647 293.736H262.73V299.924H277.647V293.736Z" fill="#AAB6C2"/>
<path d="M227.398 293.736H212.481V299.924H227.398V293.736Z" fill="#AAB6C2"/>
<path d="M100.086 167.102H39.7761V313.817H100.086V167.102Z" fill="#C6D0DB"/>
<path d="M46.004 167.102H39.7761V313.817H46.004V167.102Z" fill="#AAB6C2"/>
<path d="M93.7246 174.128H84.3029V178.041H93.7246V174.128Z" fill="#AAB6C2"/>
<path d="M77.8754 174.128H68.4537V178.041H77.8754V174.128Z" fill="#AAB6C2"/>
<path d="M93.7246 188.354H84.3029V192.267H93.7246V188.354Z" fill="#AAB6C2"/>
<path d="M77.8754 188.354H68.4537V192.267H77.8754V188.354Z" fill="#AAB6C2"/>
<path d="M62.0129 188.354H52.5912V192.267H62.0129V188.354Z" fill="#AAB6C2"/>
<path d="M93.7246 202.593H84.3029V206.506H93.7246V202.593Z" fill="#AAB6C2"/>
<path d="M62.0129 202.593H52.5912V206.506H62.0129V202.593Z" fill="#AAB6C2"/>
<path d="M77.8754 209.699H68.4537V213.612H77.8754V209.699Z" fill="#AAB6C2"/>
<path d="M93.7246 216.819H84.3029V220.731H93.7246V216.819Z" fill="#AAB6C2"/>
<path d="M77.8754 223.938H68.4537V227.851H77.8754V223.938Z" fill="#AAB6C2"/>
<path d="M93.7246 231.058H84.3029V234.97H93.7246V231.058Z" fill="#AAB6C2"/>
<path d="M62.0129 231.058H52.5912V234.97H62.0129V231.058Z" fill="#AAB6C2"/>
<path d="M93.7246 244.206H84.3029V248.118H93.7246V244.206Z" fill="#AAB6C2"/>
<path d="M77.8754 244.206H68.4537V248.118H77.8754V244.206Z" fill="#AAB6C2"/>
<path d="M93.7246 258.445H84.3029V262.357H93.7246V258.445Z" fill="#AAB6C2"/>
<path d="M77.8754 258.445H68.4537V262.357H77.8754V258.445Z" fill="#AAB6C2"/>
<path d="M62.0129 258.445H52.5912V262.357H62.0129V258.445Z" fill="#AAB6C2"/>
<path d="M93.7246 272.67H84.3029V276.583H93.7246V272.67Z" fill="#AAB6C2"/>
<path d="M62.0129 272.67H52.5912V276.583H62.0129V272.67Z" fill="#AAB6C2"/>
<path d="M77.8754 279.79H68.4537V283.702H77.8754V279.79Z" fill="#AAB6C2"/>
<path d="M62.0129 279.79H52.5912V283.702H62.0129V279.79Z" fill="#AAB6C2"/>
<path d="M93.7246 286.909H84.3029V290.822H93.7246V286.909Z" fill="#AAB6C2"/>
<path d="M77.8754 294.016H68.4537V297.928H77.8754V294.016Z" fill="#AAB6C2"/>
<path d="M93.7246 301.135H84.3029V305.047H93.7246V301.135Z" fill="#AAB6C2"/>
<path d="M62.0129 301.135H52.5912V305.047H62.0129V301.135Z" fill="#AAB6C2"/>
<path opacity="0.35" d="M257.553 10.0737H1.98291V301.468H257.553V10.0737Z" fill="white"/>
<path opacity="0.5" d="M89.9719 296.211H70.1304L176.471 13.4139H196.299L89.9719 296.211Z" fill="white"/>
<path opacity="0.5" d="M54.9466 296.211H45.0326L151.359 13.4139H161.273L54.9466 296.211Z" fill="white"/>
<path opacity="0.5" d="M173.37 296.211H163.456L254.612 43.7683V64.1022L173.37 296.211Z" fill="white"/>
<path opacity="0.35" d="M514.468 4.31158H258.897V295.706H514.468V4.31158Z" fill="white"/>
<path opacity="0.5" d="M301.175 296.211H281.334L387.661 13.4139H407.502L301.175 296.211Z" fill="white"/>
<path opacity="0.5" d="M266.15 296.211H256.222L362.563 13.4139H372.477L266.15 296.211Z" fill="white"/>
<path d="M525.14 62.6383V59.2982H515.958V6.73358H260.348H254.785H-0.811646V13.4006H4.75088V15.7561H169.564V59.2982H-0.811646V62.6383H169.577V148.219H-0.811646V151.559H169.577V237.139H-0.811646V240.48H169.577V296.238H4.80411V298.168H-0.811646V305.886H254.785H260.348H515.945V305.261V240.48H525.127V237.139H515.945V151.559H525.127V148.219H515.945V62.6383H525.14ZM260.374 151.546H339.98V237.126H260.374V151.546ZM260.374 148.206V62.6383H339.98V148.219H260.374V148.206ZM260.374 59.2982V15.7561H339.98V59.2982H260.374ZM260.374 240.453H339.98V296.211H260.401V298.141H260.374V240.453ZM345.569 296.211V240.453H425.174V296.211H345.569ZM345.569 237.113V151.532H425.174V237.113H345.569ZM345.569 148.206V62.6383H425.174V148.219H345.569V148.206ZM345.569 59.2982V15.7561H425.174V59.2982H345.569ZM430.764 15.7561H510.369V59.2982H430.764V15.7561ZM175.167 15.7561H254.772V59.2982H175.167V15.7561ZM175.167 62.6383H254.772V148.219H175.167V62.6383ZM175.167 151.546H254.772V237.126H175.167V151.546ZM175.167 240.453H254.772V298.141H254.745V296.211H175.18V240.453H175.167ZM510.369 298.141H510.342V296.211H430.777V240.453H510.382V298.141H510.369ZM510.369 237.113H430.764V151.532H510.369V237.113ZM510.369 148.206H430.764V62.6383H510.369V148.206Z" fill="white"/>
</g>
<path d="M63.9557 66.99C57.4483 66.99 51.5531 63.0243 48.9315 56.8763L48.7452 56.4371L48.3992 56.7565C46.3499 58.6329 43.7416 59.6576 41.0269 59.6576C37.1677 59.6576 33.6412 57.6348 31.5919 54.2414L31.3656 53.8688L31.0596 54.1882C28.5977 56.7565 25.2974 58.1671 21.7576 58.1671C16.2217 58.1671 11.3246 54.6406 9.55467 49.3975L9.50144 49.2511L9.35506 49.1979C3.95222 47.1086 0.319275 41.7191 0.319275 35.7839C0.319275 27.8793 6.56049 21.4517 14.2389 21.4517C16.448 21.4517 18.5771 21.984 20.56 23.022L21.1056 23.3148L21.0523 22.7027C20.9858 22.0107 20.9459 21.3187 20.9459 20.64C20.9459 9.44839 29.7821 0.346069 40.6543 0.346069C48.4791 0.346069 55.572 5.12346 58.7125 12.5091L58.8988 12.9483L59.2448 12.6289C61.7067 10.3799 64.8606 9.12901 68.1342 9.12901C75.5199 9.12901 81.5216 15.317 81.5216 22.9156C81.5216 23.4878 81.4816 24.0866 81.3752 24.8052L81.3086 25.3109L81.801 25.1645C82.9189 24.8318 84.0633 24.6722 85.1811 24.6722C91.9946 24.6722 97.5438 30.3811 97.5438 37.4074C97.5438 37.6337 97.5305 37.78 97.5305 37.9131C97.5305 37.9131 97.5039 38.5519 97.4906 38.6583L97.4506 38.991C97.0514 42.4377 95.3214 45.3786 92.5801 47.2683C92.4736 47.3481 92.101 47.5877 92.101 47.5877L91.9147 47.7074C90.371 48.6656 88.6677 49.2245 86.8712 49.3576L86.8046 49.3309L86.6982 49.3709L86.5119 49.3842C86.3389 49.3975 86.1526 49.4108 85.9663 49.4108C84.1298 49.4108 82.3599 48.9716 80.7098 48.1067L80.1642 47.8139L80.2174 48.426C80.2707 48.9983 80.2973 49.5705 80.2973 50.1427C80.3505 59.4313 72.9915 66.99 63.9557 66.99Z" fill="white"/>
<path d="M40.6677 0.665374C48.3594 0.665374 55.3325 5.36292 58.4199 12.6288L58.7925 13.4938L59.4845 12.855C61.8798 10.6593 64.9538 9.44832 68.1476 9.44832C75.347 9.44832 81.2023 15.4766 81.2023 22.9022C81.2023 23.4611 81.1624 24.0466 81.0692 24.7519L80.9361 25.7633L81.9209 25.4705C83.0121 25.1512 84.1166 24.9915 85.2078 24.9915C91.8483 24.9915 97.2378 30.554 97.2378 37.3674V37.4473V37.4739C97.2378 37.607 97.2245 37.74 97.2245 37.8731L97.2112 38.086L97.1979 38.2856C97.1979 38.3921 97.1846 38.4986 97.1846 38.605C97.1846 38.6583 97.1713 38.7248 97.158 38.778L97.1314 38.9377C96.7454 42.2912 95.0554 45.1523 92.3939 46.9887C92.2874 47.0686 92.1677 47.1351 92.0213 47.2416L91.9414 47.2948L91.7551 47.4146C90.2514 48.3328 88.6146 48.8784 86.858 49.0248L86.7116 49.0381L86.5253 49.0514C86.3523 49.0647 86.1793 49.078 86.0063 49.078C84.2231 49.078 82.5064 48.6522 80.9095 47.8138L79.8183 47.2416L79.9381 48.4659C79.9913 49.0248 80.0179 49.597 80.0179 50.1559C80.0179 59.2716 72.8186 66.6971 63.9558 66.6971C57.5815 66.6971 51.8061 62.8113 49.2377 56.7831L48.8651 55.9181L48.1731 56.5568C46.1903 58.3666 43.6486 59.378 41.0137 59.378C37.2743 59.378 33.8542 57.4085 31.8714 54.1216L31.419 53.3763L30.8201 54.0018C28.4248 56.5036 25.2044 57.8743 21.7577 57.8743C16.3682 57.8743 11.5908 54.4409 9.86085 49.3309L9.75439 49.0381L9.46162 48.9316C4.17855 46.8956 0.638759 41.6258 0.638759 35.8238C0.638759 28.1054 6.73359 21.8243 14.2257 21.8243C16.3815 21.8243 18.4575 22.3433 20.4004 23.3546L21.4916 23.9269L21.3718 22.7026C21.3053 22.0239 21.2654 21.3452 21.2654 20.6665C21.292 9.62131 29.9818 0.665374 40.6677 0.665374ZM40.6677 0C29.5959 0 20.6266 9.2354 20.6266 20.6266C20.6266 21.3319 20.6665 22.0372 20.7331 22.7292C18.7902 21.7045 16.5944 21.119 14.2523 21.119C6.37429 21.119 0 27.6929 0 35.7838C0 42.065 3.84586 47.4146 9.2487 49.5039C11.0186 54.7337 15.9424 58.4997 21.771 58.4997C25.5238 58.4997 28.9039 56.9294 31.3125 54.4276C33.3353 57.7678 36.915 60.0035 41.027 60.0035C43.9546 60.0035 46.6028 58.8723 48.6256 57.0093C51.2072 63.0775 57.1024 67.3226 63.9558 67.3226C73.1912 67.3226 80.6833 59.6176 80.6833 50.116C80.6833 49.5305 80.6567 48.9449 80.6035 48.3594C82.227 49.2111 84.0634 49.7035 86.0063 49.7035C86.2591 49.7035 86.4987 49.6769 86.7515 49.6635L86.7781 49.6769C86.8314 49.6769 86.8713 49.6636 86.9245 49.6502C88.8142 49.5039 90.5708 48.905 92.1011 47.9469C92.1943 47.8937 92.2741 47.8404 92.3673 47.7739C92.5003 47.6807 92.6467 47.6009 92.7798 47.4944C95.5212 45.6048 97.3709 42.6372 97.7967 38.9776C97.81 38.8579 97.8366 38.7514 97.8366 38.6316C97.85 38.4453 97.85 38.259 97.8633 38.0727C97.8766 37.8598 97.8899 37.6469 97.8899 37.4207C97.8899 37.4074 97.8899 37.394 97.8899 37.3807C97.8899 37.3674 97.8899 37.3541 97.8899 37.3408C97.8899 30.1282 92.2076 24.2729 85.1945 24.2729C83.9836 24.2729 82.8258 24.4592 81.7213 24.7785C81.8011 24.1398 81.8677 23.501 81.8677 22.849C81.8677 15.0508 75.7196 8.72971 68.1476 8.72971C64.6478 8.72971 61.4673 10.0871 59.032 12.3094C55.9447 5.08346 48.8917 0 40.6677 0Z" fill="black"/>
<path d="M69.4252 82.1205C68.9063 82.1205 68.4006 82.0274 67.9215 81.8544C66.817 81.4552 65.9254 80.6434 65.4197 79.5655C64.914 78.4876 64.8608 77.2899 65.2733 76.1854C65.9121 74.4421 67.5755 73.2711 69.4386 73.2711C69.9576 73.2711 70.4632 73.3642 70.9423 73.5372C72.0468 73.9364 72.9384 74.7482 73.4441 75.8261C73.9498 76.904 74.003 78.1017 73.5905 79.2062C72.9517 80.9495 71.275 82.1205 69.4252 82.1205Z" fill="white"/>
<path d="M69.4252 72.9384V73.6037C69.9043 73.6037 70.37 73.6836 70.8225 73.8566C71.8472 74.2292 72.6722 74.9744 73.138 75.9725C73.6037 76.9572 73.657 78.075 73.2844 79.0997C72.6988 80.7099 71.1552 81.8011 69.4385 81.8011C68.9594 81.8011 68.4937 81.7213 68.0412 81.5483C67.0165 81.1757 66.1915 80.4305 65.7257 79.4324C65.2599 78.4477 65.2067 77.3298 65.5926 76.3051C66.1782 74.6949 67.7218 73.6037 69.4385 73.6037V72.9384H69.4252ZM69.4252 72.9384C67.4823 72.9384 65.6592 74.136 64.9539 76.0789C64.0623 78.5541 65.3398 81.2821 67.8017 82.1738C68.334 82.3734 68.8796 82.4665 69.4252 82.4665C71.3681 82.4665 73.1912 81.2688 73.8965 79.3259C74.7881 76.8508 73.5106 74.1227 71.0487 73.2311C70.5031 73.0315 69.9575 72.9384 69.4252 72.9384Z" fill="black"/>
<path d="M77.9685 93.0326C77.6624 93.0326 77.3696 92.9794 77.0769 92.873C75.7195 92.3806 75.0142 90.8768 75.5066 89.5062C75.8792 88.4682 76.8773 87.7762 77.9685 87.7762C78.2746 87.7762 78.5673 87.8294 78.8601 87.9359C80.2174 88.4283 80.9227 89.932 80.4304 91.3027C80.0578 92.3407 79.073 93.0326 77.9685 93.0326Z" fill="white"/>
<path d="M77.9684 88.1089C78.2346 88.1089 78.5007 88.1621 78.7536 88.2419C79.9379 88.6678 80.5501 89.9852 80.1242 91.1696C79.7916 92.0745 78.9266 92.6733 77.9684 92.6733C77.7023 92.6733 77.4361 92.6201 77.1833 92.5403C76.6111 92.3273 76.1453 91.9148 75.8925 91.3559C75.6396 90.797 75.5997 90.1848 75.8126 89.5993C76.1453 88.721 77.0103 88.1089 77.9684 88.1089ZM77.9684 87.4435C76.7574 87.4435 75.6263 88.1887 75.1872 89.3864C74.6282 90.9167 75.4267 92.6201 76.9571 93.179C77.2897 93.2988 77.6357 93.352 77.9684 93.352C79.1794 93.352 80.3105 92.6068 80.7497 91.4091C81.3086 89.8788 80.5102 88.1754 78.9798 87.6165C78.6471 87.51 78.3011 87.4435 77.9684 87.4435Z" fill="black"/>
<path d="M53.8536 29.6676C53.8536 22.9483 48.387 17.4817 41.6677 17.4817C34.9484 17.4817 29.4818 22.9483 29.4818 29.6676C29.4818 36.3869 34.9484 41.8535 41.6677 41.8535C48.387 41.8535 53.8536 36.3869 53.8536 29.6676ZM41.6677 40.1127C35.9083 40.1127 31.2227 35.4271 31.2227 29.6676C31.2227 23.9082 35.9083 19.2225 41.6677 19.2225C47.4271 19.2225 52.1128 23.9082 52.1128 29.6676C52.1128 35.427 47.4271 40.1127 41.6677 40.1127Z" fill="#F2C94C"/>
<path d="M68.3958 51.683L57.0803 40.3675C56.7403 40.0277 56.1894 40.0277 55.8493 40.3675L54.7239 41.4929L53.3389 40.1079C55.8224 37.3345 57.3352 33.6746 57.3352 29.6676C57.3352 21.0285 50.3067 14 41.6676 14C33.0285 14 26 21.0285 26 29.6676C26 38.3067 33.0285 45.3352 41.6676 45.3352C45.6747 45.3352 49.3345 43.8224 52.108 41.3389L53.493 42.7239L52.3676 43.8493C52.0277 44.1892 52.0277 44.7403 52.3676 45.0803L63.6831 56.3958C64.9855 57.6981 67.0932 57.6982 68.3958 56.3958C69.6951 55.0964 69.6951 52.9823 68.3958 51.683ZM27.7409 29.6676C27.7409 21.9884 33.9885 15.7408 41.6677 15.7408C49.347 15.7408 55.5944 21.9884 55.5944 29.6676C55.5944 33.4457 54.0815 36.8765 51.6305 39.388C51.537 39.4505 51.4545 39.5309 51.388 39.6306C48.8765 42.0815 45.4457 43.5943 41.6677 43.5943C33.9885 43.5943 27.7409 37.3468 27.7409 29.6676ZM67.1649 55.1647C66.5431 55.7866 65.5361 55.7868 64.9142 55.1647L54.2141 44.4647C54.9831 43.6957 55.6171 43.0616 56.4649 42.2139L67.1649 52.914C67.7854 53.5346 67.7854 54.5442 67.1649 55.1647Z" fill="#F2C94C"/>
<path d="M138.74 68.1385L138.313 293.86L264.668 294.099L265.095 68.3775L138.74 68.1385Z" fill="white"/>
<path d="M139.077 68.467L264.766 68.7199L264.34 293.776L138.651 293.523L139.077 68.467ZM138.411 67.8016L137.985 294.189L265.005 294.441L265.431 68.0545L138.411 67.8016Z" fill="black"/>
<path d="M261.04 59.3914L187.596 59.8172L187.582 69.3587L224.777 69.4385L251.285 69.5849C260.215 69.5982 267.441 76.8641 267.427 85.7934L267.081 270.222C267.068 279.151 259.802 286.377 250.873 286.364L187.17 286.497L187.13 306.525L260.561 307.217C269.49 307.23 276.743 300.004 276.769 291.075L277.182 75.6265C277.195 66.6706 269.982 59.4047 261.04 59.3914Z" fill="black"/>
<path d="M255.53 59.3248C255.171 59.2982 254.785 59.2849 254.413 59.2849L141.499 59.2582C135.71 59.2582 131.012 63.9558 131.012 69.7445L130.972 296.584C130.972 302.359 135.657 307.057 141.445 307.057L254.373 307.07C254.732 307.07 255.105 307.07 255.477 307.03C263.901 306.471 270.555 299.458 270.555 290.888L270.594 75.4535C270.594 66.91 263.941 59.9103 255.53 59.3248ZM260.827 275.771C260.827 281.56 256.129 286.257 250.34 286.257L151.186 286.244C145.411 286.244 140.713 281.547 140.713 275.758L140.753 79.9514C140.753 74.1626 145.451 69.4784 151.226 69.4784L250.394 69.4917C256.182 69.4917 260.867 74.1892 260.867 79.978L260.827 275.771Z" fill="#AAB6C2"/>
<path d="M214.011 301.534L187.09 301.481C184.389 301.481 182.206 299.285 182.206 296.584C182.206 293.883 184.402 291.7 187.103 291.7L214.024 291.753C216.726 291.753 218.908 293.949 218.908 296.651C218.908 299.352 216.712 301.534 214.011 301.534Z" fill="black"/>
<path d="M260.853 83.611H140.713V73.4174C140.713 71.1152 142.576 69.2522 144.879 69.2522H256.688C258.99 69.2522 260.853 71.1152 260.853 73.4174V83.611Z" fill="black"/>
<path d="M163.669 76.4382C163.669 75.2139 164.653 74.2292 165.878 74.2292C167.102 74.2292 168.087 75.2139 168.087 76.4382C168.087 77.6625 167.102 78.6473 165.878 78.6473C164.653 78.634 163.669 77.6492 163.669 76.4382Z" fill="white"/>
<path d="M155.192 76.4382C155.192 75.2139 156.177 74.2292 157.401 74.2292C158.625 74.2292 159.61 75.2139 159.61 76.4382C159.61 77.6625 158.625 78.6473 157.401 78.6473C156.177 78.634 155.192 77.6492 155.192 76.4382Z" fill="#AAB6C2"/>
<path d="M146.702 76.4382C146.702 75.2139 147.686 74.2292 148.911 74.2292C150.135 74.2292 151.12 75.2139 151.12 76.4382C151.12 77.6625 150.135 78.6473 148.911 78.6473C147.686 78.634 146.702 77.6492 146.702 76.4382Z" fill="#F2C94C"/>
<path d="M250.354 74.828L251.445 73.7368L253.002 75.2938L254.559 73.7368L255.65 74.828L254.093 76.385L255.65 77.942L254.559 79.0332L253.002 77.4762L251.445 79.0332L250.354 77.942L251.911 76.385L250.354 74.828Z" fill="white"/>
<path d="M203.232 205.148C234.1 205.148 259.123 180.125 259.123 149.257C259.123 118.389 234.1 93.3654 203.232 93.3654C172.364 93.3654 147.341 118.389 147.341 149.257C147.341 180.125 172.364 205.148 203.232 205.148Z" fill="#E6EBF0"/>
<path d="M227.012 273.176H174.541C172.492 273.176 170.828 271.513 170.828 269.463V256.941C170.828 254.892 172.492 253.228 174.541 253.228H227.012C229.062 253.228 230.725 254.892 230.725 256.941V269.463C230.739 271.513 229.075 273.176 227.012 273.176Z" fill="#F2C94C"/>
<path d="M227.012 273.469H174.541C172.332 273.469 170.535 271.672 170.535 269.463V256.941C170.535 254.732 172.332 252.935 174.541 252.935H227.012C229.221 252.935 231.018 254.732 231.018 256.941V269.463C231.031 271.672 229.235 273.469 227.012 273.469ZM174.541 253.508C172.651 253.508 171.121 255.038 171.121 256.928V269.45C171.121 271.34 172.651 272.87 174.541 272.87H227.012C228.902 272.87 230.432 271.326 230.432 269.45V256.928C230.432 255.038 228.902 253.508 227.012 253.508H174.541Z" fill="black"/>
<path d="M165.971 238.217V234.478C164.8 234.145 163.948 233.64 163.403 232.961C162.857 232.282 162.591 231.47 162.591 230.499C162.591 229.528 162.897 228.702 163.509 228.037C164.121 227.372 164.946 226.986 165.971 226.893V226.014H167.262V226.893C168.207 226.999 168.965 227.332 169.524 227.864C170.083 228.396 170.442 229.115 170.589 230.007L168.326 230.299C168.193 229.594 167.834 229.115 167.262 228.875V232.362C168.686 232.748 169.657 233.254 170.176 233.866C170.695 234.478 170.948 235.276 170.948 236.235C170.948 237.312 170.629 238.217 169.977 238.963C169.324 239.694 168.42 240.147 167.262 240.32V241.983H165.971V240.36C164.946 240.24 164.108 239.854 163.469 239.202C162.83 238.563 162.418 237.658 162.232 236.487L164.56 236.235C164.654 236.714 164.84 237.126 165.093 237.472C165.359 237.818 165.652 238.071 165.971 238.217ZM165.971 228.849C165.625 228.969 165.346 229.168 165.133 229.461C164.92 229.74 164.827 230.06 164.827 230.406C164.827 230.725 164.92 231.018 165.106 231.284C165.292 231.55 165.585 231.776 165.971 231.936V228.849ZM167.262 238.337C167.714 238.257 168.074 238.044 168.353 237.712C168.633 237.379 168.766 236.993 168.766 236.541C168.766 236.141 168.646 235.795 168.42 235.503C168.18 235.21 167.794 234.997 167.262 234.837V238.337Z" fill="#F2C94C"/>
<path d="M178.959 240.16H176.457V230.712C175.539 231.564 174.461 232.202 173.224 232.615V230.339C173.876 230.126 174.594 229.714 175.353 229.115C176.125 228.516 176.644 227.824 176.936 227.026H178.972V240.16H178.959Z" fill="#F2C94C"/>
<path d="M182.738 236.793L185.24 236.541C185.307 237.099 185.52 237.552 185.879 237.885C186.225 238.217 186.638 238.377 187.09 238.377C187.609 238.377 188.061 238.164 188.421 237.738C188.78 237.312 188.966 236.674 188.966 235.809C188.966 235.01 188.78 234.398 188.421 233.999C188.061 233.6 187.596 233.4 187.01 233.4C186.292 233.4 185.639 233.719 185.067 234.358L183.031 234.065L184.322 227.252H190.949V229.594H186.225L185.826 231.816C186.385 231.537 186.957 231.404 187.542 231.404C188.66 231.404 189.592 231.803 190.377 232.615C191.149 233.427 191.535 234.478 191.535 235.769C191.535 236.847 191.229 237.805 190.603 238.656C189.752 239.814 188.567 240.386 187.063 240.386C185.852 240.386 184.868 240.067 184.109 239.415C183.351 238.763 182.898 237.885 182.738 236.793Z" fill="#F2C94C"/>
<path d="M197.111 227.026C198.375 227.026 199.373 227.478 200.078 228.383C200.93 229.448 201.356 231.231 201.356 233.706C201.356 236.181 200.93 237.965 200.065 239.042C199.36 239.934 198.375 240.386 197.097 240.386C195.82 240.386 194.795 239.894 194.023 238.923C193.238 237.938 192.852 236.195 192.852 233.693C192.852 231.231 193.278 229.461 194.143 228.37C194.862 227.465 195.846 227.026 197.111 227.026ZM197.111 229.102C196.804 229.102 196.538 229.195 196.299 229.394C196.059 229.594 195.873 229.94 195.74 230.432C195.567 231.085 195.487 232.176 195.487 233.706C195.487 235.236 195.567 236.301 195.713 236.873C195.873 237.446 196.059 237.831 196.299 238.018C196.538 238.204 196.804 238.297 197.111 238.297C197.417 238.297 197.683 238.204 197.922 238.004C198.162 237.805 198.348 237.459 198.481 236.966C198.654 236.328 198.734 235.236 198.734 233.706C198.734 232.176 198.654 231.111 198.508 230.539C198.348 229.967 198.162 229.581 197.922 229.381C197.683 229.195 197.417 229.102 197.111 229.102Z" fill="#F2C94C"/>
<path d="M212.361 227.026C213.625 227.026 214.623 227.478 215.328 228.383C216.18 229.448 216.606 231.231 216.606 233.706C216.606 236.181 216.18 237.965 215.315 239.042C214.61 239.934 213.625 240.386 212.348 240.386C211.07 240.386 210.045 239.894 209.274 238.923C208.488 237.938 208.102 236.195 208.102 233.693C208.102 231.231 208.528 229.461 209.393 228.37C210.099 227.465 211.083 227.026 212.361 227.026ZM212.361 229.102C212.055 229.102 211.789 229.195 211.549 229.394C211.31 229.594 211.123 229.94 210.99 230.432C210.817 231.085 210.737 232.176 210.737 233.706C210.737 235.236 210.817 236.301 210.964 236.873C211.123 237.446 211.31 237.831 211.549 238.018C211.789 238.204 212.055 238.297 212.361 238.297C212.667 238.297 212.933 238.204 213.173 238.004C213.412 237.805 213.598 237.459 213.732 236.966C213.905 236.328 213.984 235.236 213.984 233.706C213.984 232.176 213.905 231.111 213.758 230.539C213.598 229.967 213.412 229.581 213.173 229.381C212.933 229.195 212.654 229.102 212.361 229.102Z" fill="#F2C94C"/>
<path d="M222.514 227.026C223.779 227.026 224.777 227.478 225.482 228.383C226.334 229.448 226.76 231.231 226.76 233.706C226.76 236.181 226.334 237.965 225.469 239.042C224.763 239.934 223.779 240.386 222.501 240.386C221.224 240.386 220.199 239.894 219.427 238.923C218.642 237.938 218.256 236.195 218.256 233.693C218.256 231.231 218.682 229.461 219.547 228.37C220.266 227.465 221.25 227.026 222.514 227.026ZM222.514 229.102C222.208 229.102 221.942 229.195 221.703 229.394C221.463 229.594 221.277 229.94 221.144 230.432C220.971 231.085 220.891 232.176 220.891 233.706C220.891 235.236 220.971 236.301 221.117 236.873C221.277 237.446 221.463 237.831 221.703 238.018C221.942 238.204 222.208 238.297 222.514 238.297C222.821 238.297 223.087 238.204 223.326 238.004C223.566 237.805 223.752 237.459 223.885 236.966C224.058 236.328 224.138 235.236 224.138 233.706C224.138 232.176 224.058 231.111 223.912 230.539C223.752 229.967 223.566 229.581 223.326 229.381C223.087 229.195 222.821 229.102 222.514 229.102Z" fill="#F2C94C"/>
<path d="M232.681 227.026C233.946 227.026 234.944 227.478 235.649 228.383C236.501 229.448 236.926 231.231 236.926 233.706C236.926 236.181 236.501 237.965 235.636 239.042C234.93 239.934 233.946 240.386 232.668 240.386C231.391 240.386 230.366 239.894 229.594 238.923C228.809 237.938 228.423 236.195 228.423 233.693C228.423 231.231 228.849 229.461 229.714 228.37C230.432 227.465 231.417 227.026 232.681 227.026ZM232.681 229.102C232.375 229.102 232.109 229.195 231.87 229.394C231.63 229.594 231.444 229.94 231.311 230.432C231.138 231.085 231.058 232.176 231.058 233.706C231.058 235.236 231.138 236.301 231.284 236.873C231.444 237.446 231.63 237.831 231.87 238.018C232.109 238.204 232.375 238.297 232.681 238.297C232.987 238.297 233.254 238.204 233.493 238.004C233.733 237.805 233.919 237.459 234.052 236.966C234.225 236.328 234.305 235.236 234.305 233.706C234.305 232.176 234.225 231.111 234.079 230.539C233.919 229.967 233.733 229.581 233.493 229.381C233.254 229.195 232.987 229.102 232.681 229.102Z" fill="#F2C94C"/>
<path d="M179.758 217.963V215.754C179.066 215.555 178.56 215.262 178.24 214.863C177.921 214.464 177.761 213.984 177.761 213.412C177.761 212.84 177.948 212.348 178.307 211.962C178.666 211.576 179.159 211.35 179.758 211.283V210.764H180.516V211.283C181.075 211.35 181.514 211.536 181.847 211.855C182.179 212.175 182.392 212.587 182.486 213.119L181.155 213.292C181.075 212.88 180.862 212.6 180.516 212.454V214.517C181.354 214.743 181.94 215.036 182.246 215.408C182.552 215.768 182.698 216.233 182.698 216.806C182.698 217.444 182.512 217.977 182.126 218.416C181.74 218.855 181.208 219.121 180.516 219.214V220.199H179.758V219.241C179.145 219.174 178.653 218.935 178.28 218.562C177.894 218.176 177.655 217.644 177.548 216.952L178.932 216.806C178.986 217.085 179.092 217.325 179.252 217.538C179.398 217.724 179.571 217.87 179.758 217.963ZM179.758 212.414C179.545 212.481 179.385 212.6 179.265 212.773C179.145 212.946 179.079 213.133 179.079 213.332C179.079 213.519 179.132 213.692 179.252 213.851C179.358 214.011 179.531 214.144 179.758 214.237V212.414ZM180.529 218.03C180.796 217.977 181.008 217.857 181.168 217.657C181.328 217.458 181.421 217.231 181.421 216.965C181.421 216.726 181.354 216.526 181.208 216.353C181.075 216.18 180.835 216.047 180.529 215.954V218.03Z" fill="#33373B"/>
<path d="M188.66 217.724V219.108H183.457C183.51 218.589 183.683 218.096 183.963 217.631C184.242 217.165 184.801 216.553 185.626 215.781C186.291 215.156 186.704 214.73 186.85 214.517C187.05 214.211 187.156 213.905 187.156 213.612C187.156 213.279 187.063 213.026 186.89 212.853C186.717 212.68 186.464 212.587 186.158 212.587C185.852 212.587 185.599 212.68 185.413 212.867C185.227 213.053 185.12 213.359 185.094 213.798L183.617 213.652C183.71 212.84 183.976 212.255 184.442 211.895C184.907 211.536 185.493 211.363 186.185 211.363C186.944 211.363 187.542 211.563 187.981 211.975C188.421 212.388 188.634 212.893 188.634 213.505C188.634 213.851 188.567 214.184 188.447 214.503C188.327 214.823 188.128 215.142 187.848 215.488C187.675 215.714 187.343 216.047 186.877 216.473C186.411 216.899 186.118 217.192 185.985 217.325C185.866 217.471 185.759 217.604 185.679 217.737H188.66V217.724Z" fill="#33373B"/>
<path d="M189.685 217.112L191.162 216.965C191.202 217.298 191.335 217.564 191.535 217.764C191.748 217.963 191.987 218.057 192.253 218.057C192.559 218.057 192.826 217.937 193.038 217.684C193.251 217.431 193.358 217.058 193.358 216.553C193.358 216.074 193.251 215.728 193.038 215.488C192.826 215.249 192.546 215.129 192.213 215.129C191.788 215.129 191.402 215.315 191.069 215.688L189.871 215.515L190.63 211.483H194.556V212.867H191.761L191.535 214.184C191.867 214.024 192.2 213.931 192.546 213.931C193.198 213.931 193.757 214.171 194.223 214.65C194.675 215.129 194.915 215.754 194.915 216.513C194.915 217.152 194.729 217.724 194.356 218.216C193.85 218.895 193.158 219.241 192.267 219.241C191.548 219.241 190.976 219.055 190.523 218.669C190.044 218.269 189.765 217.764 189.685 217.112Z" fill="#33373B"/>
<path d="M198.175 211.336C198.92 211.336 199.506 211.602 199.932 212.135C200.437 212.773 200.69 213.811 200.69 215.289C200.69 216.752 200.437 217.804 199.932 218.442C199.519 218.975 198.934 219.228 198.175 219.228C197.417 219.228 196.818 218.935 196.352 218.363C195.886 217.777 195.66 216.752 195.66 215.262C195.66 213.811 195.913 212.76 196.418 212.121C196.844 211.602 197.43 211.336 198.175 211.336ZM198.175 212.561C198.002 212.561 197.842 212.614 197.696 212.734C197.55 212.853 197.443 213.053 197.363 213.346C197.257 213.732 197.217 214.37 197.217 215.289C197.217 216.193 197.257 216.819 197.35 217.165C197.443 217.498 197.563 217.724 197.696 217.844C197.829 217.95 197.989 218.017 198.175 218.017C198.348 218.017 198.521 217.963 198.654 217.844C198.801 217.724 198.907 217.524 198.987 217.231C199.093 216.846 199.133 216.207 199.133 215.302C199.133 214.397 199.093 213.772 199 213.426C198.907 213.093 198.787 212.867 198.654 212.747C198.521 212.627 198.361 212.561 198.175 212.561Z" fill="#33373B"/>
<path d="M207.184 211.336C207.93 211.336 208.515 211.602 208.941 212.135C209.447 212.773 209.699 213.811 209.699 215.289C209.699 216.752 209.447 217.804 208.941 218.442C208.528 218.975 207.943 219.228 207.184 219.228C206.426 219.228 205.827 218.935 205.361 218.363C204.895 217.777 204.669 216.752 204.669 215.262C204.669 213.811 204.922 212.76 205.428 212.121C205.854 211.602 206.439 211.336 207.184 211.336ZM207.184 212.561C207.011 212.561 206.852 212.614 206.705 212.734C206.559 212.853 206.452 213.053 206.373 213.346C206.266 213.732 206.226 214.37 206.226 215.289C206.226 216.193 206.266 216.819 206.359 217.165C206.452 217.498 206.572 217.724 206.705 217.844C206.838 217.95 206.998 218.017 207.184 218.017C207.357 218.017 207.53 217.963 207.663 217.844C207.81 217.724 207.916 217.524 207.996 217.231C208.103 216.846 208.143 216.207 208.143 215.302C208.143 214.397 208.103 213.772 208.009 213.426C207.916 213.093 207.797 212.867 207.663 212.747C207.53 212.627 207.371 212.561 207.184 212.561Z" fill="#33373B"/>
<path d="M213.199 211.336C213.945 211.336 214.53 211.602 214.956 212.135C215.462 212.773 215.714 213.811 215.714 215.289C215.714 216.752 215.462 217.804 214.956 218.442C214.543 218.975 213.958 219.228 213.199 219.228C212.441 219.228 211.842 218.935 211.376 218.363C210.91 217.777 210.684 216.752 210.684 215.262C210.684 213.811 210.937 212.76 211.443 212.121C211.869 211.602 212.441 211.336 213.199 211.336ZM213.199 212.561C213.026 212.561 212.867 212.614 212.72 212.734C212.574 212.853 212.467 213.053 212.388 213.346C212.281 213.732 212.241 214.37 212.241 215.289C212.241 216.193 212.281 216.819 212.374 217.165C212.467 217.498 212.587 217.724 212.72 217.844C212.853 217.95 213.013 218.017 213.199 218.017C213.372 218.017 213.545 217.963 213.678 217.844C213.825 217.724 213.931 217.524 214.011 217.231C214.118 216.846 214.157 216.207 214.157 215.302C214.157 214.397 214.118 213.772 214.024 213.426C213.931 213.093 213.811 212.867 213.678 212.747C213.532 212.627 213.372 212.561 213.199 212.561Z" fill="#33373B"/>
<path d="M219.201 211.336C219.946 211.336 220.532 211.602 220.958 212.135C221.463 212.773 221.716 213.811 221.716 215.289C221.716 216.752 221.463 217.804 220.958 218.442C220.545 218.975 219.96 219.228 219.201 219.228C218.443 219.228 217.844 218.935 217.378 218.363C216.912 217.777 216.686 216.752 216.686 215.262C216.686 213.811 216.939 212.76 217.444 212.121C217.87 211.602 218.456 211.336 219.201 211.336ZM219.201 212.561C219.028 212.561 218.868 212.614 218.722 212.734C218.576 212.853 218.469 213.053 218.389 213.346C218.283 213.732 218.243 214.37 218.243 215.289C218.243 216.193 218.283 216.819 218.376 217.165C218.469 217.498 218.589 217.724 218.722 217.844C218.855 217.95 219.015 218.017 219.201 218.017C219.374 218.017 219.547 217.963 219.68 217.844C219.827 217.724 219.933 217.524 220.013 217.231C220.119 216.846 220.159 216.207 220.159 215.302C220.159 214.397 220.119 213.772 220.026 213.426C219.933 213.093 219.813 212.867 219.68 212.747C219.547 212.627 219.387 212.561 219.201 212.561Z" fill="#33373B"/>
<path d="M185.081 257.646H189.645C190.55 257.646 191.229 257.686 191.668 257.753C192.107 257.833 192.506 257.979 192.865 258.218C193.211 258.458 193.504 258.777 193.744 259.177C193.983 259.576 194.09 260.015 194.09 260.507C194.09 261.04 193.943 261.532 193.651 261.984C193.358 262.437 192.972 262.77 192.48 262.996C193.172 263.195 193.717 263.541 194.09 264.034C194.462 264.526 194.649 265.098 194.649 265.75C194.649 266.269 194.529 266.775 194.289 267.268C194.05 267.76 193.717 268.146 193.305 268.439C192.892 268.731 192.373 268.918 191.761 268.984C191.375 269.024 190.444 269.051 188.98 269.064H185.094V257.646H185.081ZM187.396 259.549V262.197H188.913C189.818 262.197 190.377 262.184 190.59 262.157C190.989 262.104 191.295 261.971 191.521 261.745C191.748 261.519 191.854 261.226 191.854 260.853C191.854 260.494 191.761 260.215 191.561 259.988C191.362 259.762 191.082 259.629 190.696 259.589C190.47 259.563 189.805 259.549 188.727 259.549H187.396ZM187.396 264.087V267.148H189.539C190.364 267.148 190.896 267.121 191.122 267.081C191.468 267.015 191.748 266.868 191.961 266.629C192.174 266.389 192.28 266.07 192.28 265.657C192.28 265.311 192.2 265.019 192.027 264.779C191.854 264.54 191.615 264.367 191.309 264.26C190.989 264.154 190.31 264.1 189.259 264.1H187.396V264.087Z" fill="black"/>
<path d="M196.592 257.646H198.894V263.834C198.894 264.819 198.92 265.458 198.974 265.75C199.067 266.216 199.306 266.589 199.679 266.882C200.052 267.161 200.557 267.307 201.209 267.307C201.861 267.307 202.354 267.174 202.686 266.908C203.019 266.642 203.219 266.309 203.285 265.924C203.352 265.538 203.392 264.886 203.392 263.981V257.66H205.694V263.661C205.694 265.032 205.627 266.003 205.508 266.576C205.388 267.148 205.148 267.627 204.816 268.013C204.483 268.399 204.031 268.718 203.472 268.944C202.913 269.171 202.181 269.29 201.276 269.29C200.185 269.29 199.36 269.171 198.787 268.918C198.228 268.665 197.776 268.332 197.457 267.933C197.124 267.534 196.911 267.108 196.805 266.669C196.658 266.017 196.578 265.045 196.578 263.768V257.646H196.592Z" fill="black"/>
<path d="M211.137 269.077V264.26L206.945 257.646H209.646L212.334 262.171L214.969 257.646H217.631L213.439 264.287V269.077H211.137Z" fill="black"/>
<path d="M228.25 214.663H169.577V215.741H228.25V214.663Z" fill="#33373B"/>
<path d="M204.616 120.459L199.04 115.988L198.92 107.152H204.616V120.459Z" fill="#33373B"/>
<path d="M209.66 107.152H204.616V120.459H209.66V107.152Z" fill="#AAB6C2"/>
<path d="M205.135 106.207H198.015V108.083H205.135V106.207Z" fill="black"/>
<path d="M210.325 106.207H205.135V108.083H210.325V106.207Z" fill="#33373B"/>
<path d="M169.285 130.214H203.205L220.146 113.806H186.225L169.285 130.214Z" fill="black"/>
<path d="M172.492 130.214H203.205L210.019 113.806H189.446L172.492 130.214Z" fill="#AAB6C2"/>
<path d="M203.099 130.214H172.492V185.16H203.099V130.214Z" fill="#AAB6C2"/>
<path d="M196.192 159.384H181.115V185.16H196.192V159.384Z" fill="black"/>
<path d="M195.221 159.49H180.37V185.041H195.221V159.49Z" fill="#F2C94C"/>
<path d="M195.101 159.61V184.934H180.49V159.61H195.101ZM195.327 159.384H180.25V185.16H195.327V159.384Z" fill="black"/>
<path d="M192.546 125.37C192.546 128.537 190.723 131.119 188.474 131.119C186.225 131.119 184.402 128.55 184.402 125.37C184.402 122.203 186.225 119.621 188.474 119.621C190.723 119.634 192.546 122.203 192.546 125.37Z" fill="black"/>
<path d="M191.867 125.37C191.867 128.537 190.044 131.119 187.795 131.119C185.546 131.119 183.723 128.55 183.723 125.37C183.723 122.203 185.546 119.621 187.795 119.621C190.044 119.634 191.867 122.203 191.867 125.37Z" fill="white"/>
<path d="M187.795 131.425C185.387 131.425 183.417 128.71 183.417 125.383C183.417 122.056 185.373 119.342 187.795 119.342C190.204 119.342 192.174 122.056 192.174 125.383C192.174 128.71 190.204 131.425 187.795 131.425ZM187.795 119.927C185.719 119.927 184.029 122.362 184.029 125.37C184.029 128.364 185.719 130.813 187.795 130.813C189.871 130.813 191.561 128.377 191.561 125.37C191.561 122.376 189.871 119.927 187.795 119.927Z" fill="black"/>
<path d="M187.955 119.634H187.649V131.119H187.955V119.634Z" fill="black"/>
<path d="M191.867 125.223H183.723V125.53H191.867V125.223Z" fill="black"/>
<path d="M233.626 130.214H203.019V185.16H233.626V130.214Z" fill="#33373B"/>
<path d="M216.912 137.653H206.692V152.344H216.912V137.653Z" fill="black"/>
<path d="M217.231 137.959H207.61V152.051H217.231V137.959Z" fill="white"/>
<path d="M216.925 138.265V151.745H207.916V138.265H216.925ZM217.538 137.653H207.317V152.344H217.538V137.653Z" fill="black"/>
<path d="M212.574 137.932H212.268V152.145H212.574V137.932Z" fill="black"/>
<path d="M217.538 144.892H207.544V145.198H217.538V144.892Z" fill="black"/>
<path d="M229.821 137.653H219.6V152.344H229.821V137.653Z" fill="black"/>
<path d="M230.073 137.959H220.452V152.051H230.073V137.959Z" fill="white"/>
<path d="M229.767 138.265V151.745H220.758V138.265H229.767ZM230.366 137.653H220.146V152.344H230.366V137.653Z" fill="black"/>
<path d="M225.416 137.932H225.11V152.145H225.416V137.932Z" fill="black"/>
<path d="M230.366 144.892H220.372V145.198H230.366V144.892Z" fill="black"/>
<path d="M190.095 152.351H200.315V137.66H190.095V152.351Z" fill="black"/>
<path d="M199.4 137.959H189.778V152.051H199.4V137.959Z" fill="white"/>
<path d="M199.093 138.265V151.745H190.084V138.265H199.093ZM199.692 137.653H189.472V152.344H199.692V137.653Z" fill="black"/>
<path d="M194.742 137.932H194.436V152.145H194.742V137.932Z" fill="black"/>
<path d="M199.466 144.892H189.472V145.198H199.466V144.892Z" fill="black"/>
<path d="M177.187 152.351H187.407V137.66H177.187V152.351Z" fill="black"/>
<path d="M186.558 137.959H176.936V152.051H186.558V137.959Z" fill="white"/>
<path d="M186.252 138.265V151.745H177.243V138.265H186.252ZM186.851 137.653H176.63V152.344H186.851V137.653Z" fill="black"/>
<path d="M181.9 137.932H181.594V152.145H181.9V137.932Z" fill="black"/>
<path d="M186.624 144.892H176.63V145.198H186.624V144.892Z" fill="black"/>
<path d="M216.912 161.007H206.692V175.699H216.912V161.007Z" fill="black"/>
<path d="M217.231 161.3H207.61V175.393H217.231V161.3Z" fill="white"/>
<path d="M216.925 161.606V175.087H207.916V161.606H216.925ZM217.538 161.007H207.317V175.699H217.538V161.007Z" fill="black"/>
<path d="M212.574 161.273H212.268V175.486H212.574V161.273Z" fill="black"/>
<path d="M217.538 168.233H207.544V168.539H217.538V168.233Z" fill="black"/>
<path d="M229.821 161.007H219.6V175.699H229.821V161.007Z" fill="black"/>
<path d="M230.073 161.3H220.452V175.393H230.073V161.3Z" fill="white"/>
<path d="M229.767 161.606V175.087H220.758V161.606H229.767ZM230.366 161.007H220.146V175.699H230.366V161.007Z" fill="black"/>
<path d="M225.416 161.273H225.11V175.486H225.416V161.273Z" fill="black"/>
<path d="M230.366 168.233H220.372V168.539H230.366V168.233Z" fill="black"/>
<path d="M236.847 130.759H202.926L185.972 114.351H219.893L237.1 130.214L236.847 130.759Z" fill="black"/>
<path d="M203.179 130.094L186.518 113.925H220.146L236.82 130.094H203.179Z" fill="#F2C94C"/>
<path d="M220.053 114.032L236.527 129.988H203.259L186.784 114.032H220.053ZM220.146 113.806H186.225L203.179 130.214H237.1L220.146 113.806Z" fill="black"/>
<path d="M181.128 171.866C181.128 172.359 181.528 172.744 182.007 172.744C182.499 172.744 182.885 172.345 182.885 171.866C182.885 171.374 182.486 170.988 182.007 170.988C181.514 170.988 181.128 171.387 181.128 171.866Z" fill="black"/>
<path d="M100.618 301.907C98.8882 301.907 95.721 301.149 95.1621 300.603C94.337 299.804 94.8294 294.561 94.9624 293.75C95.0955 292.938 100.352 292.858 100.405 292.858C102.268 292.858 102.707 293.111 102.88 293.337C103.333 293.909 103.08 296.052 102.428 299.818C102.321 300.43 102.242 300.909 102.215 301.149C102.135 301.894 101.017 301.907 100.618 301.907C100.631 301.907 100.631 301.907 100.618 301.907Z" fill="white"/>
<path d="M100.405 293.151C101.523 293.151 102.441 293.257 102.654 293.51C103.253 294.255 102.029 300.071 101.922 301.109C101.882 301.455 101.363 301.601 100.618 301.601C98.8349 301.601 95.8141 300.816 95.375 300.39C94.7362 299.765 95.0556 295.027 95.2552 293.803C95.3085 293.523 98.2361 293.151 100.405 293.151ZM100.405 292.565C99.4737 292.565 94.8427 292.618 94.6697 293.696C94.6564 293.75 93.8979 299.778 94.9625 300.816C95.6145 301.455 98.9414 302.2 100.618 302.2C101.803 302.2 102.441 301.854 102.508 301.188C102.534 300.962 102.614 300.483 102.721 299.871C103.506 295.32 103.599 293.75 103.12 293.151C102.88 292.845 102.388 292.565 100.405 292.565Z" fill="black"/>
<path d="M94.9091 298.953C94.9091 298.953 91.8085 303.384 94.0308 306.871C94.0308 306.871 110.186 307.629 115.07 306.871C115.07 306.871 115.19 300.909 111.011 300.403C106.833 299.898 102.122 299.964 102.122 299.964C102.122 299.964 97.9433 302.24 94.9091 298.953Z" fill="black"/>
<path d="M64.7143 302.439C63.1707 302.439 59.9636 301.122 59.4313 300.603C58.6062 299.791 59.0986 294.561 59.2316 293.75C59.3647 292.964 63.876 292.885 63.9159 292.885C65.6192 292.885 66.0318 293.164 66.1915 293.364C66.6173 293.896 66.5241 295.932 65.8455 300.909C65.7922 301.322 65.7523 301.628 65.7257 301.801C65.7124 302.04 65.5394 302.439 64.7143 302.439Z" fill="white"/>
<path d="M63.9159 293.177C64.914 293.177 65.7524 293.284 65.9653 293.55C66.5641 294.295 65.5528 300.736 65.4463 301.774C65.4197 302.04 65.1402 302.147 64.7144 302.147C63.2639 302.147 60.1233 300.856 59.6442 300.39C59.0055 299.765 59.3249 295.027 59.5245 293.803C59.5644 293.537 62.0396 293.177 63.9159 293.177ZM63.9159 292.578C63.4236 292.578 59.1119 292.605 58.9389 293.696C58.9256 293.75 58.1671 299.778 59.2317 300.816C59.8705 301.441 63.1707 302.745 64.7144 302.745C65.8189 302.745 66.0052 302.107 66.0318 301.841C66.0451 301.668 66.0984 301.361 66.1516 300.949C66.8569 295.759 66.9234 293.789 66.4311 293.177C66.1915 292.885 65.7125 292.578 63.9159 292.578Z" fill="black"/>
<path d="M95.0821 236.075C95.8406 245.576 95.1486 264.739 94.3901 274.241C94.3501 274.88 94.3502 296.957 94.3502 296.957L103.279 297.808C108.137 283.303 117.425 250.753 117.425 236.314C117.425 221.862 116.174 197.789 110.865 186.371C105.821 175.513 85.8999 190.51 83.5578 193.172C82.4799 194.396 84.5292 205.401 87.3504 212.68C90.6374 221.131 94.6695 230.965 95.0821 236.075Z" fill="black"/>
<path d="M94.3369 296.97L99.8462 297.502C99.3405 294.029 99.8329 286.297 100.032 282.771C100.392 276.623 101.922 270.621 103.346 264.659C105.595 255.198 107.738 245.177 105.063 235.569C103.679 230.632 100.658 227.185 98.1828 222.821C96.5459 219.866 95.7209 216.553 95.9604 213.186C96.0935 211.35 97.2379 209.021 96.6125 207.184C95.8406 204.855 88.8808 196.991 87.0976 198.175C84.9551 199.626 86.033 205.201 85.168 207.81C88.455 216.247 94.643 230.978 95.0555 236.088C95.814 245.59 94.2437 264.673 93.7247 274.201C93.2324 283.662 94.3369 296.97 94.3369 296.97Z" fill="black"/>
<path d="M58.8325 296.97L66.7638 297.822C70.9024 284.128 81.9609 260.747 83.5978 246.401C86.1262 224.111 89.1736 200.238 89.3067 194.369C89.32 193.424 89.3333 192.919 89.3333 192.919C83.8772 186.278 74.6152 183.564 70.5032 183.071C68.8797 182.872 67.6953 183.191 67.1763 184.043C65.4996 186.837 64.1954 189.419 63.1708 191.854C56.5303 207.637 62.1195 217.178 61.9997 237.698C61.9997 238.883 61.9864 240.107 61.9598 241.305C61.7469 249.795 64.0358 260.241 61.6005 269.104C56.8098 286.51 58.8325 296.97 58.8325 296.97Z" fill="black"/>
<path d="M58.8326 296.97L60.6424 297.143C60.6025 292.485 60.7089 285.911 61.2146 281.28C61.9998 273.988 64.0491 267.135 66.5642 260.268C70.6097 249.196 73.3377 238.257 72.5526 226.36C72.1268 219.88 70.0774 213.878 69.1725 207.517C68.6003 203.405 69.4519 199.479 70.104 195.487C70.45 193.225 70.7561 190.936 70.7029 188.594C70.6363 186.677 63.1841 188.208 63.1841 191.362C56.5437 207.144 62.1328 217.178 62.0131 237.712C62.0131 238.896 61.9998 240.12 61.9731 241.318C61.7735 249.808 61.4675 259.456 60.0835 268.545C56.7566 290.409 58.8326 296.97 58.8326 296.97Z" fill="black"/>
<path d="M59.1651 298.953C59.1651 298.953 56.0645 303.384 58.2868 306.871C58.2868 306.871 74.4421 307.629 79.326 306.871C79.326 306.871 79.459 300.909 75.2672 300.403C71.0886 299.898 65.7257 299.671 65.7257 299.671C65.7257 299.671 62.1992 302.24 59.1651 298.953Z" fill="black"/>
<path d="M102.721 124.731C102.721 124.731 114.937 134.219 122.669 159.504L102.721 164.015L102.521 138.917L102.721 124.731Z" fill="black"/>
<path d="M114.857 193.251C114.617 194.01 105.236 197.23 95.9204 198.667C85.1946 200.318 68.1211 196.192 63.7163 195.367C61.9198 195.035 60.7621 194.542 60.4826 193.97C59.6309 192.134 62.5719 174.301 62.2126 162.445C62.146 160.142 62.1061 157.814 62.1061 155.538C62.0396 143.614 62.8779 132.449 65.5794 130.373C66.1915 129.894 66.8968 129.389 67.6819 128.856C68.3606 128.391 69.0792 127.925 69.8777 127.459C70.4765 127.1 71.102 126.754 71.754 126.408C74.1627 125.144 76.9972 123.973 80.1511 123.161C85.0216 121.897 90.6906 121.471 96.9318 122.908C96.9318 122.908 96.9318 122.921 96.9451 122.921C98.4622 123.254 99.9925 123.706 101.576 124.305C101.949 124.438 102.321 124.585 102.707 124.718C107.977 126.834 107.218 138.305 106.367 147.939C105.981 152.411 105.582 156.469 105.741 159.011C105.808 159.863 105.901 160.715 106.061 161.553C107.272 168.633 113.979 188.088 114.857 193.251Z" fill="#7166F0"/>
<path d="M91.7951 124.891C89.1203 124.891 85.8866 122.389 85.7402 122.296L85.6204 122.203V113.739L92.7532 116.693V121.976C92.9262 122.309 93.5384 123.573 93.1924 124.319C93.0726 124.585 92.8331 124.758 92.5137 124.824C92.2875 124.864 92.0479 124.891 91.7951 124.891Z" fill="white"/>
<path d="M85.9265 114.178L92.4738 116.893V122.043C92.4738 122.043 93.6981 124.279 92.4738 124.518C92.2609 124.558 92.0347 124.585 91.7951 124.585C89.1869 124.585 85.9265 122.043 85.9265 122.043V114.178ZM85.3277 113.287V114.178V122.043V122.336L85.5539 122.509C85.687 122.615 89.0139 125.17 91.7818 125.17C92.0613 125.17 92.3274 125.144 92.5803 125.09C92.9928 125.011 93.2989 124.771 93.4719 124.412C93.8445 123.6 93.3255 122.389 93.0593 121.87V116.866V116.467L92.6867 116.321L86.1394 113.606L85.3277 113.287Z" fill="black"/>
<path d="M91.8218 118.663C90.3446 118.663 88.9074 118.157 87.5501 117.159C82.1339 113.18 82.5464 105.968 82.5597 105.901L82.5731 105.675L93.5783 103.399L93.6848 103.572C93.7114 103.612 96.7189 108.217 97.8767 112.661C98.1561 113.739 97.8101 115.003 96.9318 116.148C95.7075 117.718 93.8046 118.663 91.8218 118.663Z" fill="white"/>
<path d="M93.4452 103.732C93.4452 103.732 96.4394 108.283 97.5971 112.728C98.2093 115.057 95.4546 118.37 91.8217 118.37C90.5309 118.37 89.1336 117.958 87.7363 116.92C82.3867 112.994 82.8658 105.928 82.8658 105.928L93.4452 103.732ZM93.7114 103.067L93.3121 103.146L82.7194 105.342L82.2802 105.435L82.2536 105.888C82.227 106.194 81.8278 113.34 87.377 117.399C88.7876 118.437 90.278 118.956 91.8217 118.956C93.8977 118.956 95.8938 117.971 97.1713 116.307C98.1161 115.097 98.4754 113.726 98.1694 112.568C96.9983 108.083 94.0573 103.586 93.9376 103.399L93.7114 103.067Z" fill="black"/>
<path d="M79.7918 110.798C78.9667 112.355 80.7766 113.327 82.5332 113.54C82.613 113.673 82.7061 113.806 82.8126 113.925C82.8259 115.722 84.1434 117.399 85.9 116.015C88.4949 118.077 91.6621 119.754 95.3749 118.077C96.9984 117.345 98.236 114.711 97.7835 113.367C97.2246 111.663 94.6563 113.579 93.5518 112.568C93.2457 112.289 92.6601 112.275 92.3807 112.621C91.4226 113.779 90.7173 114.338 89.0671 113.979C88.1888 113.792 87.4436 113.433 86.7649 112.941C86.5254 111.703 85.7802 110.452 85.3943 109.348C85.2878 109.042 84.9152 107.724 84.5692 106.66C88.7344 106.087 94.2304 105.076 95.9471 101.416C97.4775 98.1694 94.8692 96.5059 92.0746 96.9318C90.7971 95.9869 88.5082 96.4394 87.8961 97.9831C86.898 97.5439 85.7269 97.2378 84.9684 98.0629C84.6224 98.4355 84.516 98.8347 84.5293 99.2473C84.2099 99.2207 83.8639 99.2739 83.4913 99.4602C82.959 99.7396 82.5864 100.165 82.3468 100.658C81.0826 100.245 79.6454 101.975 80.0313 103.559C79.2462 104.211 78.7538 105.475 79.539 106.673C78.2348 107.897 78.3147 109.76 79.7918 110.798Z" fill="black"/>
<path d="M102.8 171.427C102.8 171.427 120.779 173.423 122.708 168.566C124.518 164.028 122.575 158.452 120.233 152.224C118.437 147.407 103.386 161.952 103.386 161.952L102.8 171.427Z" fill="black"/>
<path d="M94.1106 161.38C92.9395 162.737 93.0327 170.961 91.2228 171.108C81.0958 171.959 76.1321 161.021 75.2006 162.032C74.8147 162.431 74.7348 164.906 74.6018 165.598C73.6969 170.562 72.579 175.526 71.1019 180.37C70.9555 180.836 70.7958 181.408 70.5829 181.913C71.1152 183.976 64.2486 193.757 63.7296 195.381C61.933 195.048 60.7753 194.556 60.4958 193.983C59.6442 192.147 62.5851 174.315 62.2258 162.458C62.1593 160.156 62.1194 157.827 62.1194 155.551C62.0528 143.628 62.9311 135.43 64.9272 131.145C65.2599 130.44 66.91 129.415 67.6952 128.883C68.3739 128.417 69.3985 132.263 70.197 131.811C75.866 130.081 79.4457 134.605 84.2763 137.466C89.3332 140.461 100.418 154.021 100.578 154.513C101.749 158.066 96.3728 158.825 94.1106 161.38Z" fill="black"/>
<path d="M100.259 126.847L100.205 126.754C99.2074 124.891 99.234 124.784 99.2473 124.678C99.2473 124.625 99.2606 124.412 99.2606 124.186C98.5819 123.866 97.9831 123.573 97.9166 123.52C97.1181 123.001 96.9052 122.189 96.8121 121.391C96.7721 121.125 96.852 120.872 97.0117 120.686C97.1847 120.486 97.4641 120.366 97.7569 120.366C97.9432 120.366 98.1162 120.406 98.2626 120.499C97.5839 118.783 97.5307 116.986 97.5706 115.922C97.6637 113.726 97.9565 112.422 98.4622 111.916C98.6618 111.716 98.9013 111.597 99.1542 111.597C99.407 111.597 99.6599 111.716 99.8195 111.929C100.032 112.195 100.112 112.595 100.032 112.994C99.8861 113.699 99.8195 114.83 99.8994 115.722C100.099 115.549 100.378 115.456 100.685 115.456C101.23 115.456 101.789 115.735 102.108 116.134C102.188 116.095 102.295 116.081 102.388 116.081C102.867 116.081 103.452 116.494 103.745 117.199C103.785 117.186 103.825 117.186 103.865 117.186C104.53 117.186 105.515 117.984 105.542 119.688C105.648 121.125 105.595 121.684 105.076 122.562C104.983 122.708 104.876 122.855 104.757 122.988L105.156 123.627L105.209 125.543L102.441 127.685L100.259 126.847Z" fill="white"/>
<path d="M99.1675 111.889C99.5534 111.889 99.8861 112.315 99.7531 112.927C99.5401 113.912 99.4869 115.908 99.793 116.787C99.7664 116.041 100.192 115.749 100.685 115.749C101.217 115.749 101.842 116.095 102.042 116.587C102.108 116.441 102.242 116.374 102.401 116.374C102.814 116.374 103.426 116.866 103.599 117.705C103.612 117.572 103.719 117.492 103.878 117.492C104.344 117.492 105.236 118.144 105.262 119.701C105.369 121.125 105.316 121.63 104.837 122.429C104.717 122.629 104.557 122.802 104.397 122.961L104.876 123.733L104.916 125.41L102.401 127.353L100.472 126.621C100.472 126.621 99.5268 124.851 99.5534 124.731C99.5667 124.665 99.5667 124.319 99.5667 123.999C98.755 123.613 98.1295 123.307 98.0896 123.281C97.3976 122.841 97.2113 122.123 97.1182 121.364C97.0649 120.912 97.4109 120.672 97.7702 120.672C98.0497 120.672 98.3292 120.819 98.4356 121.111C98.5288 121.378 98.6618 121.67 98.8215 121.923C98.9679 121.857 99.1143 121.803 99.274 121.764C98.1562 120.113 97.8102 117.918 97.89 115.935C97.9299 114.99 98.063 112.754 98.7018 112.129C98.8481 111.956 99.0078 111.889 99.1675 111.889ZM99.1675 111.291C98.8348 111.291 98.5155 111.437 98.2626 111.69C97.9033 112.049 97.4109 112.874 97.2779 115.895C97.2379 116.866 97.2779 118.463 97.7969 120.06C97.7835 120.06 97.7702 120.06 97.7569 120.06C97.371 120.06 97.025 120.22 96.7855 120.486C96.5593 120.739 96.4661 121.072 96.506 121.431C96.6125 122.269 96.8387 123.187 97.7569 123.773C97.8501 123.839 98.4755 124.132 98.9679 124.372C98.9679 124.492 98.9679 124.598 98.9546 124.651C98.9147 124.838 98.9014 124.944 99.9394 126.887L100.046 127.087L100.259 127.166L102.188 127.898L102.494 128.018L102.761 127.818L105.276 125.876L105.515 125.689L105.502 125.383L105.462 123.706V123.547L105.382 123.414L105.143 123.028C105.222 122.935 105.289 122.828 105.356 122.722C105.914 121.777 105.968 121.165 105.861 119.648C105.835 117.825 104.73 116.933 103.958 116.88C103.586 116.174 102.947 115.775 102.401 115.775C102.335 115.775 102.268 115.775 102.215 115.788C101.829 115.403 101.257 115.15 100.698 115.15C100.512 115.15 100.339 115.176 100.179 115.23C100.152 114.458 100.219 113.606 100.339 113.047C100.445 112.555 100.352 112.076 100.072 111.73C99.8462 111.45 99.5135 111.291 99.1675 111.291Z" fill="black"/>
<path d="M105.568 171.254C119.275 168.153 105.475 123.041 105.475 123.041L99.1275 124.957C98.8081 125.357 101.629 156.909 98.4621 155.551C96.9184 154.886 86.3257 135.63 79.3392 131.185C75.8127 128.936 72.2197 128.55 69.332 128.604C65.3131 128.67 63.3303 132.583 63.9824 136.548C65.2865 144.586 71.235 155.937 79.0731 164.095C87.683 173.064 93.7512 173.942 105.568 171.254Z" fill="#7166F0"/>
<path d="M97.4109 173.49C96.9319 173.49 96.4661 173.29 96.1334 172.931C95.7741 172.545 95.6011 172.039 95.6277 171.507C95.6676 170.921 96.0003 170.123 96.6258 170.03C96.5992 169.83 96.5992 169.631 96.6258 169.431C96.6923 168.779 97.0782 167.821 97.8767 167.821C98.0497 167.821 98.2227 167.874 98.3957 167.967C98.5687 168.06 98.7417 168.193 98.9014 168.353C99.0744 167.901 99.3804 167.528 99.8063 167.275C100.059 167.115 100.312 167.049 100.551 167.049C100.964 167.049 101.27 167.275 101.483 167.528C101.683 166.823 102.042 166.45 102.548 166.45C102.707 166.45 102.88 166.49 103.067 166.583C103.599 166.836 103.998 167.448 104.304 167.941L104.424 168.127C104.743 168.619 105.568 170.07 105.529 170.855C105.475 171.68 104.903 172.558 104.051 172.558C103.785 172.558 103.532 172.465 103.28 172.305C103.226 172.265 103.173 172.226 103.12 172.186C103.053 172.918 102.641 173.25 102.255 173.383C102.095 173.436 101.935 173.476 101.762 173.476C101.27 173.476 100.778 173.224 100.299 172.731C100.112 173.077 99.8462 173.37 99.4204 173.423H99.407C99.0344 173.423 98.7417 173.277 98.5154 173.117C98.2094 173.343 97.8235 173.49 97.4109 173.49Z" fill="white"/>
<path d="M102.561 166.73C102.681 166.73 102.8 166.756 102.947 166.823C103.479 167.076 103.878 167.781 104.184 168.247C104.624 168.925 105.276 170.176 105.236 170.788C105.196 171.494 104.703 172.212 104.051 172.212C103.865 172.212 103.665 172.146 103.453 172.013C103.226 171.853 103 171.653 102.787 171.427C102.92 172.159 102.84 172.824 102.162 173.077C102.029 173.13 101.896 173.144 101.776 173.144C101.204 173.144 100.671 172.691 100.245 172.146C100.245 172.159 100.245 172.186 100.232 172.199C100.072 172.558 99.8595 173.024 99.4071 173.091C99.3805 173.091 99.3538 173.091 99.3405 173.091C99.0212 173.091 98.7151 172.851 98.4622 172.598C98.4622 172.691 98.4356 172.771 98.3691 172.824C98.063 173.077 97.7436 173.184 97.4243 173.184C96.6125 173.184 95.8806 172.465 95.9471 171.507C95.9737 171.068 96.2399 170.296 96.7722 170.296C96.7855 170.296 96.7988 170.296 96.8254 170.296C96.892 170.296 96.9585 170.323 97.0117 170.349C96.9452 170.056 96.9053 169.75 96.9452 169.431C96.9984 168.885 97.3178 168.087 97.9033 168.087C98.0231 168.087 98.1429 168.114 98.2892 168.193C98.6086 168.366 98.8748 168.646 99.0877 168.979C99.1409 168.393 99.3938 167.847 99.9926 167.488C100.219 167.355 100.418 167.302 100.591 167.302C101.097 167.302 101.43 167.781 101.669 168.34C101.723 167.674 101.935 166.73 102.561 166.73ZM102.561 166.131C102.228 166.131 101.709 166.264 101.377 166.982C101.137 166.809 100.871 166.716 100.565 166.716C100.272 166.716 99.966 166.809 99.6599 166.982C99.2873 167.195 99.0079 167.488 98.8082 167.834C98.7284 167.768 98.6352 167.714 98.5421 167.674C98.3292 167.555 98.1029 167.501 97.8767 167.501C96.9984 167.501 96.4262 168.446 96.333 169.391C96.3197 169.524 96.3197 169.657 96.3197 169.804C95.6677 170.07 95.3616 170.921 95.335 171.48C95.2951 172.106 95.508 172.691 95.9205 173.13C96.3064 173.543 96.852 173.783 97.4109 173.783C97.8102 173.783 98.1961 173.663 98.5421 173.437C98.7683 173.583 99.0345 173.689 99.3405 173.689C99.3805 173.689 99.4337 173.689 99.4736 173.676C99.8861 173.623 100.166 173.41 100.379 173.144C100.831 173.53 101.297 173.729 101.776 173.729C101.975 173.729 102.175 173.689 102.375 173.623C102.694 173.503 103.146 173.237 103.346 172.625C103.586 172.745 103.825 172.798 104.065 172.798C105.089 172.798 105.781 171.773 105.835 170.815C105.901 169.777 104.73 167.994 104.677 167.914L104.557 167.741C104.224 167.222 103.812 166.57 103.2 166.277C102.987 166.184 102.774 166.131 102.561 166.131Z" fill="black"/>
</svg>
