<svg width="14" height="14" viewBox="0 0 14 14" fill="none" xmlns="http://www.w3.org/2000/svg">
<path d="M6.98367 0C6.68605 0 6.38843 0.160474 6.2344 0.484143L4.5296 4.0853L0.715348 4.66192C0.031341 4.76528 -0.242784 5.64381 0.253252 6.14699L3.01278 8.94849L2.3601 12.906C2.24262 13.6159 2.96056 14.1571 3.57147 13.8226L6.98367 11.9567V0Z" fill="#FFC403"/>
<path d="M6.9404 0C7.23802 0 7.53564 0.160474 7.68967 0.484143L9.39447 4.0853L13.2087 4.66192C13.8927 4.76528 14.1669 5.64381 13.6708 6.14699L10.9113 8.94849L11.564 12.906C11.6815 13.6159 10.9635 14.1571 10.3526 13.8226L6.9404 11.9567V0Z" fill="#FFC403"/>
</svg>
