<svg width="112" height="113" viewBox="0 0 112 113" fill="none" xmlns="http://www.w3.org/2000/svg">
<path d="M52.6047 111.969C52.2692 111.968 51.9425 111.861 51.6721 111.663C51.4017 111.464 51.2017 111.185 51.1011 110.865C51.0006 110.545 51.0047 110.201 51.1129 109.883C51.2211 109.566 51.4278 109.291 51.7028 109.099L76.8407 91.5827L44.4062 110.307C44.0532 110.505 43.6373 110.56 43.2448 110.461C42.8523 110.361 42.5133 110.114 42.298 109.771C42.0827 109.428 42.0076 109.015 42.0884 108.618C42.1692 108.221 42.3995 107.871 42.7318 107.639L73.2649 86.8906L36.9613 107.847C36.6053 108.04 36.1888 108.089 35.798 107.983C35.4072 107.877 35.072 107.625 34.8621 107.279C34.6521 106.933 34.5833 106.519 34.6701 106.123C34.7568 105.728 34.9923 105.381 35.3279 105.154L48.0198 97.0694L32.7706 105.873C32.4149 106.069 31.9974 106.12 31.6051 106.015C31.2128 105.911 30.8759 105.659 30.6646 105.313C30.4533 104.966 30.3839 104.551 30.4707 104.155C30.5576 103.758 30.7941 103.41 31.1309 103.184L53.9637 88.502L28.3466 103.288C27.9919 103.498 27.5687 103.562 27.1678 103.464C26.767 103.366 26.4204 103.115 26.2026 102.765C25.9847 102.414 25.9128 101.993 26.0024 101.59C26.0919 101.187 26.3358 100.835 26.6817 100.611L67.4849 73.4325L22.8536 99.1979C22.4976 99.3908 22.0811 99.4393 21.6903 99.3335C21.2994 99.2277 20.9643 98.9755 20.7543 98.6293C20.5444 98.2831 20.4756 97.8695 20.5623 97.474C20.6491 97.0785 20.8846 96.7315 21.2202 96.505L44.8697 81.4796L19.5111 96.1203C19.1553 96.3272 18.7326 96.3867 18.3334 96.2862C17.9343 96.1856 17.5902 95.933 17.3749 95.5821C17.1595 95.2313 17.0899 94.8102 17.1809 94.4087C17.272 94.0073 17.5164 93.6573 17.862 93.4337L57.694 67.4098L15.6011 91.7088C15.2462 91.9043 14.8297 91.9556 14.438 91.8522C14.0463 91.7487 13.7094 91.4985 13.4973 91.1533C13.2851 90.8081 13.214 90.3946 13.2987 89.9984C13.3833 89.6022 13.6173 89.2537 13.9519 89.0254L53.4056 63.361L12.3154 87.0861C11.9579 87.283 11.538 87.3336 11.144 87.2273C10.75 87.121 10.4126 86.866 10.2027 86.5161C9.99276 86.1661 9.92674 85.7483 10.0185 85.3507C10.1102 84.953 10.3526 84.6064 10.6946 84.3838L20.1544 78.5029L10.5306 84.0559C10.1735 84.2466 9.75678 84.2926 9.36666 84.1845C8.97655 84.0764 8.64298 83.8223 8.43505 83.4749C8.22713 83.1276 8.16078 82.7136 8.24976 82.3186C8.33873 81.9237 8.57621 81.5781 8.913 81.3535L14.4691 77.907L9.01076 81.0603C8.65396 81.2693 8.2293 81.3299 7.82829 81.2288C7.42728 81.1278 7.08203 80.8732 6.86696 80.52C6.65188 80.1667 6.5842 79.7432 6.67849 79.3405C6.77279 78.9378 7.02151 78.5884 7.37105 78.3674L37.4122 59.1829L7.15979 76.6488C6.80102 76.8642 6.37139 76.9282 5.96543 76.8268C5.55946 76.7253 5.21042 76.4668 4.99507 76.108C4.77972 75.7493 4.71572 75.3197 4.81713 74.9137C4.91855 74.5077 5.17708 74.1587 5.53585 73.9433L14.6551 68.2674L6.05299 73.2307C5.69837 73.4291 5.28085 73.4828 4.88753 73.3808C4.49421 73.2788 4.15547 73.0289 3.94194 72.6832C3.72842 72.3375 3.65661 71.9227 3.74149 71.5253C3.82637 71.128 4.06139 70.7787 4.39752 70.5504L45.4909 43.4323L4.65609 67.003C4.30176 67.1958 3.88701 67.2455 3.49718 67.1417C3.10734 67.038 2.77209 66.7889 2.56041 66.4455C2.34872 66.1021 2.27671 65.6906 2.35918 65.2958C2.44166 64.9009 2.67234 64.5527 3.00378 64.3227L39.0267 40.6574L4.02544 60.8541C3.66997 61.0527 3.25145 61.1061 2.85751 61.0031C2.46357 60.9001 2.12476 60.6486 1.91204 60.3014C1.69931 59.9542 1.62917 59.5382 1.71629 59.1404C1.80342 58.7427 2.04105 58.394 2.37943 58.1675L27.3975 41.9944L4.04751 55.4778C3.69403 55.6824 3.27497 55.7418 2.87854 55.6436C2.48212 55.5454 2.13927 55.2972 1.92221 54.9512C1.70442 54.6054 1.62939 54.1886 1.71292 53.7886C1.79645 53.3886 2.03202 53.0367 2.36997 52.807L37.0559 29.2521L5.05025 47.7271C4.69588 47.9286 4.27721 47.9851 3.88211 47.8846C3.487 47.7841 3.14618 47.5345 2.93117 47.1881C2.71617 46.8417 2.64369 46.4256 2.72896 46.0269C2.81422 45.6282 3.0506 45.2781 3.38848 45.05L25.3037 30.444L6.83815 41.1021C6.48514 41.2929 6.07264 41.342 5.68469 41.2393C5.29675 41.1366 4.96258 40.8898 4.75028 40.5492C4.53799 40.2087 4.46355 39.8 4.54214 39.4064C4.62072 39.0129 4.84642 38.6642 5.17323 38.4312L19.59 28.7759L9.55942 34.5685C9.20562 34.7668 8.78899 34.8212 8.39614 34.7202C8.00329 34.6193 7.66445 34.3709 7.45007 34.0265C7.23568 33.6822 7.16224 33.2685 7.24501 32.8715C7.32778 32.4744 7.5604 32.1245 7.8945 31.8945L12.5014 28.8232C12.1546 28.8878 11.7961 28.8341 11.4834 28.6708C11.1706 28.5075 10.9217 28.244 10.7764 27.9226C10.6311 27.6011 10.5978 27.2401 10.6819 26.8975C10.7659 26.5549 10.9625 26.2503 11.2401 26.0326L22.2103 17.4053C21.8996 17.3367 21.6169 17.1757 21.3993 16.9435C21.1818 16.7112 21.0396 16.4186 20.9915 16.104C20.9434 15.7894 20.9916 15.4677 21.1298 15.181C21.268 14.8944 21.4897 14.6562 21.7657 14.4979L37.4501 5.45753C37.7954 5.25447 38.2051 5.19051 38.5959 5.27862C38.9867 5.36673 39.3294 5.60031 39.5542 5.93191C39.779 6.2635 39.8691 6.66825 39.8063 7.06391C39.7435 7.45958 39.5324 7.81648 39.2159 8.06213L30.5413 14.8826L52.324 2.30742C52.6788 2.09671 53.1019 2.03345 53.5028 2.1312C53.9036 2.22896 54.2502 2.47994 54.4681 2.8303C54.686 3.18066 54.7578 3.60248 54.6682 4.00522C54.5787 4.40797 54.3348 4.75956 53.989 4.98454L50.5803 7.25489L59.195 2.27904C59.5497 2.06833 59.9729 2.00506 60.3737 2.10282C60.7746 2.20058 61.1211 2.45157 61.339 2.80193C61.5569 3.15229 61.6288 3.5741 61.5392 3.97684C61.4496 4.37959 61.2058 4.73118 60.8599 4.95616L46.4526 14.602L66.2173 3.19033C66.5717 2.98876 66.9904 2.9323 67.3855 3.03278C67.7806 3.13327 68.1214 3.3829 68.3364 3.72928C68.5514 4.07566 68.6239 4.49185 68.5386 4.89052C68.4534 5.28918 68.217 5.63933 67.8791 5.86746L45.9639 20.4765L72.8707 4.94039C73.2246 4.73074 73.6463 4.66767 74.046 4.76462C74.4458 4.86158 74.7917 5.11089 75.0102 5.45937C75.2287 5.80785 75.3023 6.2279 75.2154 6.62991C75.1285 7.03192 74.888 7.38407 74.5451 7.61121L39.8592 31.1756L80.1012 7.94546C80.4572 7.74277 80.8782 7.68665 81.275 7.78901C81.6717 7.89138 82.0131 8.14417 82.2266 8.49384C82.4402 8.84351 82.5093 9.26259 82.4192 9.66229C82.3291 10.062 82.0869 10.4109 81.744 10.6352L56.7418 26.7988L84.7522 10.6289C85.1074 10.4269 85.5272 10.3708 85.923 10.4723C86.3188 10.5737 86.6597 10.8249 86.874 11.1729C87.0882 11.5208 87.159 11.9383 87.0714 12.3374C86.9839 12.7365 86.7448 13.086 86.4045 13.3123L50.369 36.9934L89.7502 14.2551C90.1058 14.0422 90.531 13.9778 90.9338 14.076C91.3365 14.1743 91.6844 14.4272 91.902 14.78C92.1197 15.1328 92.1896 15.5571 92.0967 15.9611C92.0038 16.3651 91.7555 16.7163 91.4056 16.9386L50.3122 44.0567L94.4107 18.5846C94.7687 18.3782 95.1934 18.3205 95.5934 18.4241C95.9934 18.5277 96.3368 18.7841 96.5496 19.1383C96.7625 19.4925 96.8278 19.9161 96.7315 20.3179C96.6351 20.7198 96.3849 21.0677 96.0346 21.2869L86.9059 26.9628L96.8166 21.2428C97.1742 21.0258 97.6032 20.9597 98.0095 21.059C98.4157 21.1583 98.7659 21.415 98.9829 21.7725C99.1999 22.1301 99.266 22.5591 99.1667 22.9654C99.0673 23.3717 98.8107 23.7218 98.4532 23.9388L68.4372 43.1075L99.7334 25.0393C100.091 24.8424 100.511 24.7918 100.905 24.8982C101.299 25.0045 101.636 25.2594 101.846 25.6094C102.056 25.9594 102.122 26.3771 102.03 26.7748C101.939 27.1724 101.696 27.519 101.354 27.7417L95.754 31.2103L101.578 27.8457C101.756 27.7393 101.953 27.6689 102.157 27.6386C102.362 27.6082 102.571 27.6185 102.772 27.6689C102.973 27.7193 103.162 27.8087 103.328 27.9321C103.494 28.0555 103.635 28.2104 103.741 28.3881C103.848 28.5657 103.918 28.7626 103.948 28.9675C103.979 29.1723 103.968 29.3811 103.918 29.582C103.868 29.7828 103.778 29.9718 103.655 30.1381C103.531 30.3044 103.376 30.4448 103.199 30.5512L93.7674 36.4163L103.312 30.9076C103.668 30.7006 104.091 30.6411 104.49 30.7416C104.889 30.8422 105.233 31.0948 105.449 31.4457C105.664 31.7965 105.734 32.2176 105.643 32.6191C105.552 33.0205 105.307 33.3705 104.962 33.5941L65.4889 59.2617L105.674 36.0631C106.029 35.8612 106.449 35.805 106.845 35.9065C107.241 36.008 107.582 36.2592 107.796 36.6071C108.01 36.955 108.081 37.3726 107.993 37.7717C107.906 38.1708 107.667 38.5203 107.326 38.7466L67.4976 64.7705L107.544 41.6602C107.902 41.4432 108.331 41.3771 108.737 41.4764C109.143 41.5758 109.493 41.8324 109.71 42.1899C109.927 42.5475 109.993 42.9765 109.894 43.3828C109.795 43.7891 109.538 44.1392 109.181 44.3562L85.5311 59.3721L108.55 46.0874C108.905 45.8767 109.328 45.8134 109.729 45.9112C110.13 46.0089 110.476 46.2599 110.694 46.6103C110.912 46.9606 110.984 47.3824 110.894 47.7852C110.805 48.1879 110.561 48.5395 110.215 48.7645L69.3895 75.952L109.326 52.8984C109.682 52.6957 110.103 52.6396 110.499 52.742C110.896 52.8444 111.238 53.0971 111.451 53.4468C111.665 53.7965 111.734 54.2156 111.644 54.6153C111.554 55.015 111.311 55.3639 110.968 55.5882L88.1483 70.2635L109.345 58.0319C109.701 57.8328 110.121 57.7796 110.515 57.8835C110.91 57.9875 111.249 58.2405 111.461 58.5894C111.673 58.9382 111.742 59.3557 111.652 59.754C111.563 60.1523 111.322 60.5003 110.981 60.7248L98.2955 68.8035L108.947 62.6515C109.301 62.4465 109.72 62.3865 110.116 62.4843C110.513 62.5821 110.856 62.83 111.073 63.1758C111.291 63.5216 111.366 63.9383 111.282 64.3381C111.198 64.7379 110.963 65.0896 110.625 65.3191L80.0759 86.0645L107.371 70.2982C107.723 70.0962 108.139 70.0377 108.533 70.1348C108.927 70.2319 109.268 70.4772 109.486 70.8197C109.704 71.1621 109.781 71.5753 109.702 71.9732C109.623 72.3712 109.393 72.7233 109.061 72.9564L83.9292 90.4791L104.142 78.812C104.49 78.6122 104.902 78.5532 105.293 78.6469C105.684 78.7406 106.024 78.98 106.244 79.3161C106.464 79.6522 106.548 80.0598 106.478 80.4555C106.408 80.8511 106.189 81.2051 105.867 81.445L88.2334 94.427L97.8477 88.9024C98.2081 88.7139 98.6273 88.672 99.0178 88.7853C99.4084 88.8986 99.7401 89.1584 99.9436 89.5104C100.147 89.8625 100.207 90.2796 100.11 90.6746C100.013 91.0695 99.7676 91.4118 99.4244 91.63L65.2493 111.347C64.9006 111.547 64.4888 111.606 64.098 111.512C63.7072 111.419 63.367 111.179 63.1468 110.843C62.9266 110.507 62.843 110.1 62.9132 109.704C62.9834 109.308 63.202 108.954 63.5244 108.714L81.1827 95.7229L53.4087 111.757C53.1648 111.899 52.8869 111.972 52.6047 111.969Z" fill="#4AB591"/>
<path d="M41.3633 89.4416C41.0357 89.442 40.7162 89.3404 40.449 89.1509C40.1819 88.9614 39.9804 88.6933 39.8726 88.384C39.7648 88.0747 39.7559 87.7396 39.8473 87.425C39.9387 87.1105 40.1258 86.8322 40.3826 86.6289L42.7602 84.7369L39.2159 86.7834C38.8669 86.9804 38.4561 87.037 38.0668 86.9419C37.6775 86.8468 37.3391 86.6071 37.1202 86.2714C36.9014 85.9357 36.8186 85.5293 36.8886 85.1347C36.9587 84.7402 37.1764 84.3871 37.4974 84.1473L43.5989 79.6886L36.3212 83.8887C35.9671 84.0939 35.5471 84.1534 35.1499 84.0546C34.7527 83.9558 34.4096 83.7064 34.1929 83.3591C33.9763 83.0119 33.9032 82.594 33.9891 82.1938C34.075 81.7936 34.3131 81.4425 34.6531 81.2147L35.3311 80.7607L33.9752 81.5427C33.6661 81.7202 33.3059 81.7878 32.9535 81.7344C32.601 81.6809 32.2771 81.5096 32.0345 81.2484C31.7919 80.9872 31.6451 80.6514 31.6178 80.296C31.5906 79.9406 31.6846 79.5864 31.8846 79.2912L35.1514 74.4857L29.9327 77.497C29.6181 77.6787 29.2504 77.7461 28.8919 77.6879C28.5333 77.6297 28.2058 77.4495 27.9648 77.1777C27.7238 76.9059 27.584 76.5592 27.5691 76.1962C27.5542 75.8333 27.6651 75.4763 27.8831 75.1857L30.7746 71.3482L26.6754 73.7257C26.3716 73.8999 26.0184 73.9679 25.6717 73.9192C25.3249 73.8704 25.0042 73.7076 24.7603 73.4564C24.5163 73.2052 24.3629 72.8799 24.3243 72.5318C24.2856 72.1838 24.364 71.8328 24.5469 71.5342L26.77 67.9363C26.4006 68.0894 25.9869 68.0964 25.6126 67.9559C25.2382 67.8155 24.9313 67.5381 24.7537 67.1798C24.5762 66.8216 24.5414 66.4093 24.6564 66.0264C24.7714 65.6434 25.0276 65.3185 25.3731 65.1173L30.6075 62.0933C30.9127 61.9152 31.269 61.8449 31.6191 61.8935C31.9691 61.9421 32.2927 62.107 32.5378 62.3616C32.7829 62.6161 32.9354 62.9457 32.9708 63.2973C33.0061 63.649 32.9223 64.0023 32.7328 64.3006L30.5255 67.8827L35.9365 64.7578C36.2514 64.5765 36.6193 64.5095 36.9779 64.5681C37.3365 64.6268 37.6638 64.8075 37.9045 65.0797C38.1452 65.3519 38.2845 65.699 38.2988 66.062C38.3131 66.4251 38.2015 66.782 37.983 67.0723L35.0946 70.9099L39.5659 68.3242C39.8751 68.145 40.2359 68.0762 40.5893 68.129C40.9427 68.1817 41.2677 68.353 41.511 68.6146C41.7543 68.8763 41.9015 69.2128 41.9286 69.5691C41.9556 69.9254 41.8608 70.2803 41.6597 70.5756L38.3898 75.3812L73.7127 54.967C74.0665 54.7626 74.4858 54.7037 74.8823 54.8025C75.2788 54.9013 75.6214 55.1502 75.838 55.4967C76.0551 55.8432 76.1292 56.2605 76.0444 56.6606C75.9597 57.0607 75.7229 57.4122 75.3839 57.6409L68.6674 62.1469C69.0251 62.2522 69.333 62.4828 69.5346 62.7965C69.7542 63.1345 69.8361 63.5437 69.7634 63.9401C69.6906 64.3366 69.4689 64.6901 69.1436 64.9281L60.6581 71.1306C60.9667 71.1684 61.2572 71.2965 61.4932 71.499C61.7291 71.7014 61.8999 71.969 61.9842 72.2683C62.0684 72.5675 62.0623 72.885 61.9667 73.1808C61.871 73.4766 61.69 73.7375 61.4464 73.9307L54.3327 79.5782C54.5532 79.7281 54.7322 79.9314 54.8528 80.1693C54.9734 80.4071 55.0317 80.6717 55.0222 80.9382C55.0128 81.2047 54.9359 81.4644 54.7988 81.6931C54.6616 81.9218 54.4687 82.112 54.2381 82.2459L42.1516 89.2177C41.9132 89.3605 41.6412 89.4378 41.3633 89.4416Z" fill="white"/>
<path d="M49.1612 68.3715C48.8281 68.3714 48.5036 68.2657 48.2342 68.0697C47.9649 67.8737 47.7645 67.5974 47.6619 67.2805C47.5593 66.9636 47.5597 66.6223 47.6631 66.3056C47.7665 65.9889 47.9675 65.7131 48.2373 65.5178L62.1968 55.4273L59.5544 56.9535C59.2084 57.151 58.8006 57.2101 58.4128 57.1192C58.025 57.0282 57.686 56.7938 57.464 56.4631C57.2419 56.1324 57.1533 55.73 57.2158 55.3366C57.2784 54.9432 57.4875 54.5881 57.8012 54.3426L68.0146 46.4594C67.7564 46.4707 67.4993 46.4193 67.2653 46.3094C67.0314 46.1996 66.8276 46.0347 66.6713 45.8288C66.4407 45.5179 66.3325 45.133 66.3674 44.7474C66.4023 44.3619 66.5778 44.0026 66.8605 43.7382L75.0874 36.0505C75.0442 35.9975 75.0061 35.9405 74.9739 35.8802C74.7655 35.5188 74.709 35.0895 74.8165 34.6864C74.9241 34.2833 75.187 33.9393 75.5477 33.7297L81.0029 30.5764C81.3388 30.3754 81.7376 30.3065 82.1215 30.3833C82.5054 30.46 82.847 30.6768 83.0799 30.9915C83.3128 31.3062 83.4202 31.6963 83.3814 32.0858C83.3425 32.4754 83.1601 32.8366 82.8696 33.0991L79.0857 36.6465L85.8558 32.7396C86.2017 32.5422 86.6096 32.483 86.9974 32.5739C87.3852 32.6649 87.7241 32.8993 87.9462 33.23C88.1683 33.5607 88.2569 33.9631 88.1944 34.3565C88.1318 34.7499 87.9227 35.105 87.609 35.3505L78.4361 42.4264L87.3221 37.2961C87.672 37.0952 88.0855 37.0362 88.4776 37.1311C88.8698 37.226 89.2106 37.4676 89.43 37.8061C89.6494 38.1447 89.7306 38.5545 89.657 38.9512C89.5834 39.3478 89.3605 39.7012 89.0343 39.9385L75.0748 50.0289L80.7853 46.7338C81.1457 46.5453 81.5649 46.5033 81.9554 46.6166C82.346 46.7299 82.6776 46.9897 82.8811 47.3418C83.0846 47.6939 83.1442 48.1109 83.0475 48.5059C82.9508 48.9009 82.7051 49.2432 82.362 49.4614L49.9495 68.1571C49.7106 68.2976 49.4384 68.3716 49.1612 68.3715Z" fill="white"/>
<path d="M86.8364 32.0868C85.1434 30.8265 83.0426 30.2399 80.9416 30.4409C78.8405 30.6419 76.889 31.6162 75.4657 33.1747L43.4411 70.5504C38.9603 65.8205 32.5592 58.1517 25.8175 63.9033C25.0467 64.6105 24.4302 65.4693 24.0066 66.4258C23.583 67.3823 23.3615 68.416 23.3559 69.462C23.3502 70.5081 23.5607 71.5441 23.9739 72.5051C24.3872 73.4661 24.9945 74.3315 25.7576 75.047C35.3846 84.6739 42.9177 96.1171 54.074 83.0972C65.5056 69.7652 76.9351 56.4311 88.3626 43.0949C89.0068 42.2805 89.4794 41.3442 89.7521 40.3423C90.0248 39.3403 90.0919 38.2936 89.9493 37.2651C89.8067 36.2366 89.4574 35.2476 88.9224 34.3576C88.3874 33.4677 87.6778 32.6953 86.8364 32.0868ZM44.0718 85.6262C38.0049 85.9415 32.7831 77.8975 28.5546 73.5208C27.6555 72.6246 27.1167 71.4295 27.0406 70.1623C26.9644 68.8951 27.3562 67.6441 28.1415 66.6466C33.5777 60.9708 38.4022 71.0045 42.4605 73.9275C42.8622 74.2878 43.3862 74.4815 43.9257 74.4692C44.4652 74.4569 44.9797 74.2395 45.3646 73.8613L78.7893 34.8869C79.1761 34.414 79.6605 34.0301 80.2092 33.7612C80.7579 33.4924 81.3581 33.345 81.9689 33.3292C82.5797 33.3133 83.1868 33.4293 83.7487 33.6693C84.3106 33.9093 84.8142 34.2676 85.2251 34.7198C85.9803 35.6749 86.3771 36.8643 86.3465 38.0815C86.316 39.2986 85.8601 40.4667 85.058 41.3827L57.2493 73.8109C53.6546 78.0047 49.8013 85.3171 44.0718 85.6262Z" fill="#262626"/>
<path fill-rule="evenodd" clip-rule="evenodd" d="M95.8138 18.2336V18.4679C88.3831 10.577 78.7313 5.1285 68.136 2.84356C57.5407 0.558612 46.5012 1.54491 36.4788 5.67192L36.4483 5.64597C35.1789 6.43449 33.8098 7.07775 32.3643 7.55255C23.0303 12.3037 15.2082 19.5729 9.78636 28.5415C4.2818 37.6469 1.47792 48.129 1.7014 58.7666L1.5733 58.7666C1.66863 59.7224 1.73952 60.6854 1.78533 61.655H1.8496C2.99718 75.4172 9.23653 88.2565 19.3478 97.6627C29.459 107.069 42.715 112.366 56.5241 112.517C101.546 113.567 128.081 56.4994 99.4716 22.7406C99.4723 22.6823 99.473 22.624 99.4736 22.5657C98.0891 21.2715 96.8597 19.8169 95.8138 18.2336ZM0 0.278117V0H0.326509L0 0.278117ZM21.3956 94.6871C31.0223 103.674 43.6764 108.713 56.8457 108.803C122.758 107.021 126.019 12.4704 60.6833 5.63407C53.3578 5.02358 45.9864 5.9849 39.0625 8.4537C32.1386 10.9225 25.822 14.8418 20.5353 19.9493C15.2487 25.0569 11.114 31.2347 8.40812 38.0694C5.70222 44.9041 4.48747 52.238 4.8452 59.5802C4.9294 59.8075 4.94151 60.0552 4.87989 60.2897C5.87358 73.4218 11.7689 85.7001 21.3956 94.6871Z" fill="#262626"/>
</svg>
