<svg width="14" height="14" viewBox="0 0 14 14" fill="none" xmlns="http://www.w3.org/2000/svg">
<path d="M10.2125 8.33665L10.2072 8.3804C8.9245 7.74108 8.79033 7.65591 8.62466 7.90441C8.50975 8.07649 8.17491 8.46673 8.074 8.58223C7.97191 8.69598 7.87041 8.70473 7.69716 8.62598C7.52216 8.53848 6.96041 8.35473 6.29541 7.75974C5.77741 7.296 5.42975 6.72726 5.32708 6.55227C5.15616 6.2571 5.51375 6.21511 5.83925 5.59912C5.89758 5.47662 5.86783 5.38037 5.82466 5.29346C5.78091 5.20596 5.43266 4.34847 5.28683 4.00665C5.14683 3.66598 5.00275 3.70915 4.89483 3.70915C4.55883 3.67998 4.31325 3.68465 4.09683 3.90981C3.15533 4.94463 3.39275 6.01211 4.19833 7.14725C5.7815 9.21922 6.625 9.60071 8.16733 10.1304C8.58383 10.2628 8.96358 10.2441 9.264 10.201C9.59883 10.1479 10.2947 9.78037 10.44 9.36913C10.5887 8.95789 10.5887 8.61665 10.545 8.5379C10.5018 8.45915 10.3875 8.4154 10.2125 8.33665Z" fill="white"/>
<path d="M11.97 2.00286C7.48475 -2.33298 0.0618333 0.81171 0.0589167 6.92843C0.0589167 8.15108 0.379167 9.34339 0.989333 10.3963L0 13.9907L3.69542 13.0271C8.30667 15.5179 13.9977 12.2104 14 6.93193C14 5.0793 13.2767 3.33575 11.9612 2.0256L11.97 2.00286ZM12.8345 6.91268C12.831 11.3652 7.94325 14.1459 4.0775 11.8733L3.8675 11.7484L1.68 12.3172L2.26625 10.191L2.12683 9.97221C-0.278833 6.1427 2.485 1.13779 7.042 1.13779C8.59017 1.13779 10.0432 1.74153 11.1376 2.83526C12.2313 3.91965 12.8345 5.37271 12.8345 6.91268Z" fill="white"/>
</svg>
